<?xml version="1.0" encoding="UTF-8"?>
<svg version="1.1" xmlns="http://www.w3.org/2000/svg" width="1040" height="1040">
<path d="M0 0 C1.11234673 -0.00327219 2.22469345 -0.00654439 3.37074766 -0.00991574 C5.19197686 -0.0076903 5.19197686 -0.0076903 7.04999858 -0.00541991 C8.35127705 -0.00777214 9.65255552 -0.01012437 10.99326667 -0.01254788 C14.61497364 -0.01894311 18.23665842 -0.01910988 21.85836996 -0.01827047 C25.79507093 -0.01844007 29.73176396 -0.0243473 33.66846097 -0.02951133 C41.48102329 -0.03883766 49.29357994 -0.04275944 57.10614713 -0.0450303 C66.46259972 -0.04799233 75.81904478 -0.05668983 85.17549342 -0.06544458 C107.79302073 -0.0862912 130.41054935 -0.09675958 153.02808403 -0.10557419 C163.7291549 -0.10978086 174.4302252 -0.11500286 185.13129559 -0.12025872 C221.76565109 -0.13815014 258.40000674 -0.15314545 295.03436595 -0.16057891 C297.33443692 -0.16105366 299.63450789 -0.16152955 301.93457885 -0.16200657 C303.64551693 -0.16236113 303.64551693 -0.16236113 305.39101941 -0.16272286 C311.16995858 -0.16392405 316.94889774 -0.1651395 322.72783691 -0.16636485 C323.87468404 -0.166605 325.02153117 -0.16684515 326.20313125 -0.16709258 C363.37663569 -0.17498339 400.55010821 -0.19841012 437.72359871 -0.23092079 C477.02919173 -0.26523332 516.33476606 -0.28493142 555.6403743 -0.28822315 C559.95699202 -0.28864068 564.27360972 -0.28912024 568.59022743 -0.28964633 C570.18452617 -0.28983111 570.18452617 -0.28983111 571.81103297 -0.29001964 C588.90287957 -0.29235002 605.99468903 -0.30800109 623.08652241 -0.32848817 C640.27459366 -0.34876335 657.46262042 -0.35421548 674.65070143 -0.34471754 C684.85589554 -0.339509 695.06094129 -0.34534947 705.26611399 -0.36725221 C712.09264405 -0.38079335 718.91907237 -0.37965411 725.74560353 -0.36685025 C729.62900062 -0.35997558 733.51211477 -0.35920785 737.3954862 -0.37641034 C775.7647231 -0.5357116 809.03558861 8.59931192 837.24175292 35.93739492 C856.91946142 55.76236409 872.4462436 85.38178819 872.46821034 113.78939199 C872.47148253 114.90173872 872.47475473 116.01408545 872.47812608 117.16013965 C872.47664246 118.37429246 872.47515883 119.58844526 872.47363025 120.83939058 C872.47598248 122.14066905 872.47833471 123.44194752 872.48075822 124.78265867 C872.48715345 128.40436564 872.48732022 132.02605041 872.48648081 135.64776195 C872.48665041 139.58446292 872.49255764 143.52115596 872.49772167 147.45785296 C872.507048 155.27041528 872.51096978 163.08297193 872.51324064 170.89553913 C872.51620267 180.25199171 872.52490017 189.60843678 872.53365492 198.96488542 C872.55450154 221.58241273 872.56496992 244.19994135 872.57378453 266.81747603 C872.5779912 277.51854689 872.5832132 288.21961719 872.58846906 298.92068759 C872.60636048 335.55504308 872.62135579 372.18939874 872.62878925 408.82375795 C872.629264 411.12382891 872.62973989 413.42389988 872.63021691 415.72397085 C872.63057147 417.43490893 872.63057147 417.43490893 872.6309332 419.18041141 C872.63213439 424.95935057 872.63334984 430.73828974 872.63457519 436.5172289 C872.63481534 437.66407604 872.63505549 438.81092317 872.63530292 439.99252325 C872.64319373 477.16602769 872.66662046 514.3395002 872.69913113 551.5129907 C872.73344366 590.81858372 872.75314176 630.12415806 872.75643349 669.4297663 C872.75685102 673.74638401 872.75733058 678.06300172 872.75785667 682.37961942 C872.75797986 683.44248525 872.75810305 684.50535108 872.75822998 685.60042497 C872.76056036 702.69227156 872.77621143 719.78408103 872.79669851 736.8759144 C872.81697369 754.06398566 872.82242582 771.25201242 872.81292788 788.44009342 C872.80771934 798.64528753 872.8135598 808.85033328 872.83546255 819.05550599 C872.84900369 825.88203605 872.84786445 832.70846437 872.83506059 839.53499552 C872.82818592 843.41839261 872.82741819 847.30150676 872.84462068 851.18487819 C873.00392194 889.55411509 863.86889842 922.82498061 836.53081542 951.03114492 C816.70584624 970.70885341 787.08642215 986.23563559 758.67881835 986.25760233 C757.56647162 986.26087453 756.45412489 986.26414672 755.30807069 986.26751807 C753.48684148 986.26529264 753.48684148 986.26529264 751.62881976 986.26302224 C750.32754129 986.26537447 749.02626282 986.2677267 747.68555167 986.27015021 C744.0638447 986.27654545 740.44215993 986.27671222 736.82044838 986.27587281 C732.88374742 986.2760424 728.94705438 986.28194963 725.01035738 986.28711367 C717.19779506 986.29643999 709.38523841 986.30036177 701.57267121 986.30263263 C692.21621863 986.30559467 682.85977356 986.31429216 673.50332492 986.32304691 C650.88579761 986.34389353 628.26826899 986.35436191 605.65073431 986.36317652 C594.94966345 986.36738319 584.24859315 986.37260519 573.54752275 986.37786105 C536.91316726 986.39575247 500.2788116 986.41074779 463.64445239 986.41818124 C461.34438143 986.418656 459.04431046 986.41913189 456.74423949 986.4196089 C455.03330141 986.41996347 455.03330141 986.41996347 453.28779893 986.42032519 C447.50885976 986.42152639 441.7299206 986.42274184 435.95098144 986.42396718 C434.8041343 986.42420733 433.65728717 986.42444748 432.47568709 986.42469491 C395.30218265 986.43258573 358.12871014 986.45601246 320.95521963 986.48852313 C281.64962662 986.52283565 242.34405228 986.54253376 203.03844404 986.54582548 C198.72182633 986.54624302 194.40520862 986.54672258 190.08859092 986.54724866 C188.49429217 986.54743345 188.49429217 986.54743345 186.86778537 986.54762197 C169.77593878 986.54995235 152.68412931 986.56560342 135.59229594 986.58609051 C118.40422468 986.60636569 101.21619792 986.61181782 84.02811692 986.60231987 C73.82292281 986.59711133 63.61787706 986.6029518 53.41270435 986.62485455 C46.58617429 986.63839569 39.75974597 986.63725645 32.93321482 986.62445259 C29.04981773 986.61757791 25.16670358 986.61681018 21.28333215 986.63401268 C-17.08590476 986.79331393 -50.35677027 977.65829042 -78.56293458 950.32020742 C-98.24064307 930.49523824 -113.76742525 900.87581415 -113.78939199 872.46821034 C-113.79266419 871.35586361 -113.79593638 870.24351689 -113.79930773 869.09746268 C-113.79782411 867.88330988 -113.79634049 866.66915707 -113.7948119 865.41821176 C-113.79716413 864.11693329 -113.79951636 862.81565482 -113.80193987 861.47494367 C-113.80833511 857.85323669 -113.80850188 854.23155192 -113.80766247 850.60984038 C-113.80783206 846.67313941 -113.81373929 842.73644638 -113.81890333 838.79974937 C-113.82822965 830.98718705 -113.83215143 823.1746304 -113.83442229 815.36206321 C-113.83738433 806.00561062 -113.84608182 796.64916556 -113.85483657 787.29271692 C-113.87568319 764.67518961 -113.88615157 742.05766099 -113.89496618 719.44012631 C-113.89917285 708.73905544 -113.90439485 698.03798514 -113.90965071 687.33691475 C-113.92754213 650.70255925 -113.94253745 614.0682036 -113.9499709 577.43384439 C-113.95044566 575.13377342 -113.95092155 572.83370245 -113.95139856 570.53363148 C-113.95163494 569.3930061 -113.95187132 568.25238072 -113.95211485 567.07719093 C-113.95331605 561.29825176 -113.9545315 555.51931259 -113.95575684 549.74037343 C-113.95599699 548.5935263 -113.95623714 547.44667916 -113.95648457 546.26507909 C-113.96437539 509.09157465 -113.98780212 471.91810213 -114.02031279 434.74461163 C-114.05462532 395.43901861 -114.07432342 356.13344428 -114.07761514 316.82783604 C-114.07803268 312.51121832 -114.07851224 308.19460062 -114.07903832 303.87798291 C-114.07916151 302.81511708 -114.07928471 301.75225125 -114.07941163 300.65717737 C-114.08174201 283.56533077 -114.09739308 266.4735213 -114.11788017 249.38168793 C-114.13815535 232.19361667 -114.14360748 215.00558992 -114.13410953 197.81750891 C-114.12890099 187.6123148 -114.13474146 177.40726905 -114.15664421 167.20209635 C-114.17018535 160.37556629 -114.16904611 153.54913797 -114.15624225 146.72260681 C-114.14936757 142.83920972 -114.14859984 138.95609557 -114.16580234 135.07272414 C-114.32510359 96.70348724 -105.19008008 63.43262173 -77.85199708 35.22645742 C-58.0270279 15.54874892 -28.40760381 0.02196674 0 0 Z " fill="#697DFC" transform="translate(140.66059082746506,26.87119883298874)"/>
<path d="M0 0 C6.31749484 0.58004943 12.2501177 1.6103121 18.375 3.25 C19.211521 3.47324951 20.04804199 3.69649902 20.90991211 3.92651367 C27.29991256 5.69066227 33.06112605 8.06215278 39 11 C42.01009537 12.378428 45.03572407 13.72116846 48.0625 15.0625 C49.23921265 15.58674561 49.23921265 15.58674561 50.43969727 16.12158203 C54.43092854 17.89256196 58.42914115 19.60546007 62.5 21.1875 C66.69122055 22.81781987 70.65886826 24.78007238 74.66015625 26.828125 C77.72163418 28.36141945 80.83610498 29.6931738 84 31 C84 31.66 84 32.32 84 33 C84.61746094 33.16363037 85.23492188 33.32726074 85.87109375 33.49584961 C92.02176364 35.21899676 97.41105336 37.49504471 103 40.5625 C103.80888672 40.99723633 104.61777344 41.43197266 105.45117188 41.87988281 C107.97422308 43.24123433 110.4884438 44.61756827 113 46 C113.80695312 46.4439209 114.61390625 46.8878418 115.4453125 47.34521484 C119.30119253 49.4717578 123.14964013 51.61118526 126.9921875 53.76171875 C130.19086168 55.55175462 133.40209403 57.31635841 136.625 59.0625 C141.74973018 61.8456227 146.83005075 64.70537479 151.90478516 67.57836914 C156.60148708 70.23205983 161.33055534 72.82283638 166.06835938 75.40234375 C193.29521581 90.24016425 193.29521581 90.24016425 203.25341797 97.1027832 C209.0133395 101.06562841 214.93632661 104.74934874 220.875 108.4375 C238.37852361 119.33612617 255.38872431 130.14919549 270.99853516 143.69677734 C274.7948143 146.98941468 278.67124951 150.12037764 282.66796875 153.16796875 C286.20464564 155.94636316 289.6157527 158.87151143 293.03417969 161.79296875 C295.7528327 164.1127151 298.48494834 166.40599758 301.27734375 168.63671875 C302.27894531 169.43722656 303.28054688 170.23773438 304.3125 171.0625 C305.21613281 171.77535156 306.11976563 172.48820313 307.05078125 173.22265625 C307.69402344 173.80917969 308.33726562 174.39570313 309 175 C309 175.66 309 176.32 309 177 C309.58523438 177.25652344 310.17046875 177.51304687 310.7734375 177.77734375 C313.19234608 179.10562162 314.73198872 180.56524801 316.625 182.5625 C319.04521959 185.14015389 319.04521959 185.14015389 322 187 C319.73272046 162.39832503 315.05551509 137.94539371 303.88525391 115.75976562 C303.0466261 114.09268642 302.2315706 112.41380993 301.41796875 110.734375 C295.12664146 98.30479408 286.44402901 87.2499779 276.9375 77.11328125 C274.84088834 74.82645281 272.93173895 72.42664727 271 70 C269.68505488 68.64852862 268.35735142 67.30887458 267 66 C291.54437491 72.8896491 311.2848121 90.82849243 326 111 C326.40347656 111.54946289 326.80695312 112.09892578 327.22265625 112.66503906 C333.13557074 120.77822124 338.13950787 129.2365431 343 138 C343.71122952 139.23365579 344.42347134 140.46672852 345.13671875 141.69921875 C347.03276774 145.05804768 348.50411278 148.44726786 350 152 C350.5878125 153.14984375 351.175625 154.2996875 351.78125 155.484375 C354.46211721 160.81118954 356.72090124 166.30467799 359 171.8125 C359.63808594 173.33713867 359.63808594 173.33713867 360.2890625 174.89257812 C363.49208034 182.60045387 366.51235217 190.36203911 369.0625 198.3125 C369.95569028 201.07357861 369.95569028 201.07357861 371.44067383 203.79882812 C372.91475823 206.82500546 373.93933083 209.68247413 374.88671875 212.90625 C375.22622559 214.04578125 375.56573242 215.1853125 375.91552734 216.359375 C376.27340332 217.56078125 376.6312793 218.7621875 377 220 C377.77532579 222.4693845 378.55273801 224.93811469 379.33203125 227.40625 C385.4207427 247.00020002 389.76230689 266.58542062 393.26367188 286.79150391 C394.11169769 291.67290756 395.03125987 296.54001155 395.9543457 301.40771484 C404.84815686 348.45815379 411.38865081 395.16309174 411.9642334 443.11645508 C412.00429903 446.34659317 412.05176056 449.57659437 412.09863281 452.80664062 C412.85738066 508.5637217 412.85738066 508.5637217 408.52587891 532.07324219 C407.66547005 536.86181293 407.03528265 541.68058611 406.375 546.5 C406.13434886 548.16298347 405.89224315 549.82575733 405.6484375 551.48828125 C405.23380312 554.33724008 404.84089363 557.18715142 404.4765625 560.04296875 C404.31929687 561.24566406 404.16203125 562.44835937 404 563.6875 C403.87625 564.68136719 403.7525 565.67523437 403.625 566.69921875 C402.94065548 570.31341324 401.91097517 573.71736295 400.82470703 577.2277832 C399.34894052 582.1885081 398.16297767 587.22272074 396.9375 592.25 C396.42805777 594.33909813 395.91640627 596.42765898 395.40234375 598.515625 C395.18054443 599.42602539 394.95874512 600.33642578 394.73022461 601.27441406 C393.93791164 604.23174673 392.99064576 607.10320564 392 610 C391.64309082 611.07072754 391.28618164 612.14145508 390.91845703 613.24462891 C389.21516927 618.35449219 387.51188151 623.46435547 385.80859375 628.57421875 C385.59338074 629.22018005 385.37816772 629.86614136 385.15643311 630.53167725 C384.72463802 631.82641239 384.29206361 633.1208879 383.85870361 634.4151001 C382.86372199 637.38940042 381.88285636 640.36680803 380.92871094 643.35449219 C379.27708888 648.49018109 377.4898742 653.24912456 374.96875 658.015625 C373.09245129 661.85901106 371.84482195 665.94711193 370.5 670 C368.62648012 675.64622431 366.62591471 680.98286844 363.87451172 686.26269531 C362.79446908 688.40830766 362.01859974 690.58119622 361.3125 692.875 C360.63929088 695.03378233 360.01192986 696.97614028 359 699 C358.34 699 357.68 699 357 699 C356.79375 699.763125 356.5875 700.52625 356.375 701.3125 C350.0514217 718.27118725 336.71044557 737.0869604 323 749 C322.34 749 321.68 749 321 749 C320.77183594 749.56332031 320.54367187 750.12664063 320.30859375 750.70703125 C318.63771072 753.63481733 316.57908203 755.4453229 314.0625 757.6875 C313.57450928 758.12320313 313.08651855 758.55890625 312.58374023 759.0078125 C308.42449543 762.69245883 304.14746388 766.22616701 299.81640625 769.70703125 C297.86133492 771.29874674 295.93315993 772.92384705 294.02734375 774.57421875 C284.98362109 782.38099354 276.31732366 789.23240233 264 789 C264 789.66 264 790.32 264 791 C252.12881191 793.47551141 240.32894783 793.30763702 228.25878906 793.31884766 C225.9444943 793.32817053 223.63020282 793.3383376 221.31591511 793.34927177 C214.97381458 793.37668428 208.63173649 793.39178881 202.28959203 793.4046917 C196.13687809 793.41808637 189.98420149 793.44235768 183.83151702 793.46522567 C169.67079137 793.51738651 155.51004816 793.55575871 141.34926921 793.58992171 C130.38213595 793.61647795 119.41502112 793.64725863 108.44790649 793.68060303 C24.54017422 793.93446641 -59.36783312 794.070996 -180.6409961 794.12139618 C-188.78049582 794.12320021 -196.91999485 794.12543461 -205.05949402 794.12897491 C-222.19882175 794.13637838 -239.33814022 794.14101987 -256.47746938 794.13576198 C-257.94558585 794.13531896 -259.41370231 794.13488001 -260.88181877 794.13444519 C-261.6009682 794.13423113 -262.32011763 794.13401707 -263.06105946 794.13379653 C-267.95711087 794.13257444 -272.85315758 794.1337729 -277.74920845 794.13612366 C-302.65629703 794.14690266 -327.56586267 794.13870301 -352.47021711 793.7275846 C-354.48938775 793.69567545 -356.50863877 793.6684593 -358.52793944 793.64625382 C-361.26469008 793.61437813 -364.00040433 793.56363148 -366.73674011 793.50704956 C-367.5382194 793.50107655 -368.33969869 793.49510355 -369.16546524 793.48894954 C-374.54383608 793.34650038 -374.54383608 793.34650038 -377.01645374 791.4683094 C-377.50330914 790.74149625 -377.50330914 790.74149625 -378 790 C-372.82919264 787.32712903 -367.72450271 784.98290853 -362.23046875 783.06640625 C-361.50409714 782.81210342 -360.77772552 782.5578006 -360.02934265 782.29579163 C-351.26322226 779.30590314 -342.3073186 777.11605372 -333.3125 774.9375 C-331.53104108 774.49954191 -329.7497108 774.06106021 -327.96850586 773.62207031 C-317.35335286 771.01510853 -306.71991296 768.50020349 -296.046875 766.140625 C-292.3778022 765.32430714 -288.7267421 764.45023036 -285.078125 763.546875 C-272.93309684 760.54326589 -260.79662091 757.90258158 -248.47192383 755.73632812 C-227.11671538 751.96611985 -206.07215668 746.26423075 -185.5625 739.25 C-183.89247925 738.68514893 -183.89247925 738.68514893 -182.1887207 738.10888672 C-181.15835693 737.74811035 -180.12799316 737.38733398 -179.06640625 737.015625 C-177.7043103 736.54044434 -177.7043103 736.54044434 -176.31469727 736.05566406 C-173.96526889 734.98416018 -172.75612643 733.84427683 -171 732 C-170.34 732 -169.68 732 -169 732 C-169.16977438 725.33249721 -170.44815357 720.04919783 -175 715 C-180.1185821 711.00285999 -185.84960215 708.82493455 -191.875 706.5 C-192.89859619 706.10345215 -193.92219238 705.7069043 -194.97680664 705.29833984 C-202.58740898 702.4107158 -210.0660289 700.10891617 -218.02586365 698.425354 C-219.82240107 698.03826606 -221.61236502 697.6209808 -223.40136719 697.20043945 C-234.49674272 694.80158237 -245.34361082 694.50712884 -256.67114258 694.55395508 C-259.79770996 694.56245977 -262.92243994 694.53360219 -266.04882812 694.50195312 C-282.60488847 694.44239866 -298.25628111 696.28148512 -313.5625 702.9375 C-314.39040039 703.28232422 -315.21830078 703.62714844 -316.07128906 703.98242188 C-321.83273104 706.41044193 -327.51274951 708.99645236 -333 712 C-330.589111 696.76636069 -313.2820656 684.81626388 -301.62890625 676.23046875 C-294.50636223 671.15166565 -286.94339447 666.79122236 -279.38964844 662.39355469 C-257.37760204 649.55694242 -239.63136754 633.3516506 -223 614 C-222.00079295 612.87429565 -221.00091264 611.7491881 -220 610.625 C-205.10544118 593.09040033 -195.62823854 573.93632352 -195.6875 550.8125 C-195.67138672 549.57435547 -195.65527344 548.33621094 -195.63867188 547.06054688 C-195.63258311 535.43709496 -198.03450948 524.89529929 -201.9375 514 C-202.22761963 513.18241211 -202.51773926 512.36482422 -202.81665039 511.52246094 C-215.8701208 475.48417816 -233.17239769 444.48895606 -256.01635742 413.79248047 C-259.16834101 409.54266373 -262.1989596 405.26488244 -265.0625 400.8125 C-269.67934433 393.73333869 -275.11201409 387.3240354 -280.49609375 380.82421875 C-282.52510766 378.36305123 -284.51478165 375.87156247 -286.5 373.375 C-290.79743281 367.99645201 -295.10339974 362.85534584 -300 358 C-301.64658461 356.3488134 -303.29280799 354.69726651 -304.9387207 353.04541016 C-309.67782476 348.28996365 -314.41947229 343.53706192 -319.16257954 338.78560829 C-322.02174857 335.9212241 -324.87997449 333.05591172 -327.73608398 330.18847656 C-330.51474454 327.39887482 -333.29590928 324.6117916 -336.07875633 321.82636642 C-337.13086067 320.77243131 -338.18209287 319.71762474 -339.23238564 318.66188431 C-344.44391153 313.42439304 -349.68513973 308.28092633 -355.29978943 303.47213745 C-357.6612677 301.42743742 -359.87611667 299.25351361 -362.0859375 297.046875 C-362.95347656 296.180625 -363.82101562 295.314375 -364.71484375 294.421875 C-366.03162109 293.09929687 -366.03162109 293.09929687 -367.375 291.75 C-368.27605469 290.8528125 -369.17710937 289.955625 -370.10546875 289.03125 C-371.39517578 287.73960937 -371.39517578 287.73960937 -372.7109375 286.421875 C-373.48743652 285.64424805 -374.26393555 284.86662109 -375.06396484 284.06542969 C-377.64496403 281.31192993 -379 279.85669919 -379 276 C-371.81811263 276.4794874 -365.64218529 279.36709709 -359.0625 282.125 C-357.85916016 282.62273926 -356.65582031 283.12047852 -355.41601562 283.63330078 C-336.05982358 291.6688797 -336.05982358 291.6688797 -326.62866211 296.11889648 C-319.71395249 299.34905641 -312.67705212 302.0485564 -305.49371338 304.62069702 C-296.13390692 307.97358493 -286.82016213 311.40192952 -277.625 315.1875 C-267.55088438 319.30834879 -257.2575724 322.68383966 -246.90917969 326.04296875 C-244.18220054 326.94006159 -241.46867395 327.86797772 -238.7578125 328.8125 C-225.75757602 333.31896577 -212.5858743 336.93430919 -199.22338867 340.2097168 C-197.03751968 340.74562969 -194.855417 341.2970988 -192.67700195 341.86254883 C-185.71099725 343.60494815 -179.35756495 344.40079713 -172.1875 344.1875 C-170.84461914 344.16719727 -170.84461914 344.16719727 -169.47460938 344.14648438 C-167.31613171 344.11185639 -165.15797367 344.05809102 -163 344 C-162.79606418 337.28865755 -164.70064685 334.49558737 -169.10546875 329.71484375 C-182.14397613 316.30321533 -197.4623818 305.24217524 -213.36987305 295.48852539 C-216.99824961 293.26261746 -220.53815817 290.98185646 -224 288.5 C-228.02904826 285.62210839 -232.16770537 282.98054315 -236.375 280.375 C-248.69913466 272.73267603 -260.99466893 265.02389193 -272.6875 256.4375 C-276.9634325 253.2987119 -281.12536141 250.79484395 -286.0703125 248.84765625 C-288.0634262 247.97213869 -289.58538723 246.94305974 -291.3125 245.625 C-294.22584687 243.42498978 -297.21296969 241.83865818 -300.5 240.25 C-305.22964092 237.95274584 -309.71162604 235.43210638 -314.1875 232.6875 C-325.43462842 225.83509903 -336.80231435 219.42924239 -349.265625 215.0703125 C-352.07257599 213.97159168 -354.43644597 212.5753453 -357 211 C-362.38188023 208.50803785 -367.94453028 206.68041738 -373.625 205 C-378.0764688 203.6692561 -382.07783138 202.15943582 -386.1484375 199.93359375 C-388.19783145 198.90024954 -390.25754609 198.2125291 -392.4375 197.5 C-394.2009375 196.7575 -394.2009375 196.7575 -396 196 C-396.72265625 193.90625 -396.72265625 193.90625 -397 192 C-393.31825638 190.15912819 -388.93175819 190.53031595 -384.87109375 190.28125 C-382.10540179 190.31700202 -382.10540179 190.31700202 -381 189 C-378.20549411 188.62466569 -375.4313183 188.32239315 -372.625 188.0625 C-371.7268457 187.97605225 -370.82869141 187.88960449 -369.90332031 187.80053711 C-363.65162998 187.23439471 -357.40120977 186.8428013 -351.1328125 186.53125 C-350.36188263 186.49188828 -349.59095276 186.45252655 -348.79666138 186.41197205 C-344.923052 186.2154015 -341.04961556 186.03312351 -337.17431641 185.87329102 C-324.20000326 185.43223859 -324.20000326 185.43223859 -313 179.4375 C-309.86749618 175.61976097 -309.66444462 173.14007456 -309.7109375 168.3203125 C-310.15026717 164.79380136 -311.76066773 162.68719873 -314 160 C-314.433125 159.443125 -314.86625 158.88625 -315.3125 158.3125 C-317.14947412 156.76153081 -317.14947412 156.76153081 -320.375 155.625 C-324.24366828 153.89076939 -326.03501076 151.96498924 -329 149 C-330.22699986 148.33097359 -331.48013687 147.70858601 -332.75 147.125 C-335.9430072 145.64719555 -338.4248308 143.94098694 -341.125 141.6875 C-345.86136946 137.85757366 -351.00090783 135.40241612 -356.46875 132.76953125 C-361.52080215 130.23791662 -366.52110118 127.46429113 -371 124 C-371 123.34 -371 122.68 -371 122 C-371.66 121.773125 -372.32 121.54625 -373 121.3125 C-376.26957163 119.88206241 -379.07355098 118.09745212 -382.03515625 116.12109375 C-384.02910935 114.98339089 -385.7583525 114.44433547 -388 114 C-388 113.34 -388 112.68 -388 112 C-388.95777344 111.94457031 -389.91554688 111.88914062 -390.90234375 111.83203125 C-396.08788309 111.08713994 -400.1495383 108.36716959 -404.5625 105.6875 C-405.38685547 105.20087891 -406.21121094 104.71425781 -407.06054688 104.21289062 C-409.38793705 102.83059574 -411.69564377 101.4202656 -414 100 C-414.63534668 99.62311035 -415.27069336 99.2462207 -415.92529297 98.85791016 C-417.58984375 97.83203125 -417.58984375 97.83203125 -420 96 C-420 95.01 -420 94.02 -420 93 C-412.91619969 92.59229926 -406.91916689 94.08084192 -400.125 96 C-398.99384766 96.31179199 -397.86269531 96.62358398 -396.69726562 96.94482422 C-388.59003846 99.20467458 -380.53834546 101.63253119 -372.5 104.125 C-371.40252441 104.46523193 -370.30504883 104.80546387 -369.17431641 105.15600586 C-368.10616699 105.48737549 -367.03801758 105.81874512 -365.9375 106.16015625 C-363.9583964 106.77364098 -361.97923562 107.38694131 -360 108 C-359.22914063 108.23960449 -358.45828125 108.47920898 -357.6640625 108.72607422 C-345.06188815 112.59398136 -332.18015789 115.11981271 -319.26171875 117.67797852 C-318.52752213 117.82447342 -317.7933255 117.97096832 -317.03688049 118.12190247 C-315.63778167 118.40045404 -314.23800608 118.67563243 -312.83750916 118.94706726 C-308.11158074 119.88841926 -308.11158074 119.88841926 -307 121 C-305.845 121.165 -304.69 121.33 -303.5 121.5 C-300 122 -300 122 -299 123 C-297.60875265 123.18452333 -296.21122736 123.32269658 -294.8125 123.4375 C-290.93376278 123.82658963 -287.70362102 124.76545966 -284 126 C-282.00393577 126.35614424 -280.0032926 126.68706253 -278 127 C-273.79883041 127.66143875 -270.01275289 128.57324342 -266 130 C-264.67004389 130.30669848 -263.33615247 130.59653312 -262 130.875 C-258.09631249 131.70128052 -254.31986214 132.78540855 -250.5 133.9375 C-244.39497378 135.71868444 -238.31351567 136.95156583 -232.03710938 137.96069336 C-228.72206472 138.4971148 -225.58966791 139.11398114 -222.34375 140.015625 C-216.45976482 141.52848619 -210.4173007 141.74608665 -204.375 142.125 C-203.07208008 142.2070166 -201.76916016 142.2890332 -200.42675781 142.37353516 C-190.87237367 142.9417341 -181.32034732 143.26880864 -171.75 143.375 C-170.52071777 143.40094238 -169.29143555 143.42688477 -168.02490234 143.45361328 C-156.88317501 143.47666195 -148.889014 140.83720778 -140.7890625 133.06640625 C-137.10607667 128.8124772 -136.81097914 124.59415805 -136.9375 119.1875 C-138.80611904 105.80577652 -153.9592624 93.51378278 -164.22265625 85.671875 C-166.71639439 83.8120513 -169.18611262 82.32885588 -172 81 C-172 80.34 -172 79.68 -172 79 C-173.10214844 78.60554688 -173.10214844 78.60554688 -174.2265625 78.203125 C-177.02766547 76.98799864 -178.97998605 75.63004508 -181.375 73.75 C-189.8953778 67.40330658 -199.11689815 62.11718909 -208.22290039 56.6640625 C-210.05007131 55.56920562 -211.87485413 54.47035173 -213.69702148 53.3671875 C-218.38571782 50.53226482 -223.09117372 47.8060554 -227.9375 45.25 C-228.56172852 44.92056396 -229.18595703 44.59112793 -229.82910156 44.25170898 C-231.17638353 43.54097323 -232.52421683 42.83128174 -233.87255859 42.12255859 C-236.09289514 40.95098326 -238.30653737 39.76741231 -240.51953125 38.58203125 C-249.43675919 33.82333164 -258.41564462 29.27816833 -267.59472656 25.04321289 C-272.20914894 22.90397313 -276.61840428 20.58490964 -281 18 C-281 17.01 -281 16.02 -281 15 C-247.95949776 14.5256995 -215.21234168 16.36167713 -182.3125 19.375 C-181.20259705 19.47396576 -180.09269409 19.57293152 -178.94915771 19.67489624 C-165.16544718 20.91746341 -151.72461809 22.79559237 -138.16763306 25.57025146 C-133.45132307 26.50529317 -128.69270107 27.17288694 -123.9375 27.875 C-112.28666345 29.66495615 -100.81408452 32.09924505 -89.3046875 34.62890625 C-84.56822338 35.66887204 -79.8334193 36.63302649 -75.0625 37.5 C-38.90536928 44.14824662 -38.90536928 44.14824662 -22.02783203 49.96582031 C-18.17188407 51.28284947 -14.30297095 52.55900549 -10.43359375 53.8359375 C1.82209716 57.88821409 14.07479448 61.94446391 26.25390625 66.22265625 C26.94698883 66.46520142 27.64007141 66.70774658 28.35415649 66.9576416 C32.23185535 68.32848932 36.03616163 69.80874145 39.8125 71.4375 C44.92452272 73.62836688 50.11584473 75.45331222 55.375 77.25 C67.65754006 81.46366682 79.60847009 86.44832177 91.5625 91.5078125 C97.95478087 94.21093127 104.41100162 96.61956925 110.96875 98.88671875 C113.42962971 99.79052122 115.69489883 100.76270305 118 102 C117.4946875 101.37351562 116.989375 100.74703125 116.46875 100.1015625 C115.49421875 98.87566406 115.49421875 98.87566406 114.5 97.625 C113.52546875 96.40683594 113.52546875 96.40683594 112.53125 95.1640625 C111 93 111 93 111 91 C110.17822266 90.66935547 110.17822266 90.66935547 109.33984375 90.33203125 C106.26451006 88.58129871 103.99841279 86.21052934 101.5625 83.6875 C101.09779297 83.21376953 100.63308594 82.74003906 100.15429688 82.25195312 C98.76677242 80.83733614 97.38336493 79.41868488 96 78 C94.33458977 76.33207784 92.66801783 74.6653144 91 73 C90.29617188 72.28457031 89.59234375 71.56914062 88.8671875 70.83203125 C88.20976563 70.16558594 87.55234375 69.49914062 86.875 68.8125 C86.21242188 68.13832031 85.54984375 67.46414062 84.8671875 66.76953125 C82.92056683 64.82446642 82.92056683 64.82446642 80 63 C80 62.34 80 61.68 80 61 C79.41992188 60.74089844 78.83984375 60.48179687 78.2421875 60.21484375 C75.82536048 58.90537824 74.13041324 57.43916103 72.125 55.5625 C67.67909863 51.52608954 63.03651769 47.8236426 58.29760742 44.14331055 C54.62045187 41.28428876 51.01080153 38.36405369 47.4375 35.375 C37.10426599 26.90144817 25.7865205 19.87744469 14.48046875 12.796875 C13.73458496 12.32958984 12.98870117 11.86230469 12.22021484 11.38085938 C10.73581439 10.45763868 9.24648744 9.54229391 7.75244141 8.63476562 C7.04651855 8.20357422 6.3405957 7.77238281 5.61328125 7.328125 C4.98848877 6.95075195 4.36369629 6.57337891 3.7199707 6.18457031 C1.92521932 4.94849739 0.49045344 3.58440998 -1 2 C-0.67 1.34 -0.34 0.68 0 0 Z " fill="#FEFEFE" transform="translate(508,119)"/>
<path d="M0 0 C5.50363987 0.34600486 9.03411483 3.71888539 13.1875 7 C13.93765381 7.58289795 14.68780762 8.1657959 15.46069336 8.76635742 C21.20436745 13.26982864 26.70882591 17.96883447 32 23 C28.66214596 31.94862774 22.73078746 39.45607703 17 47 C11.44607901 54.31646085 6.47350841 61.82330721 1.7890625 69.7265625 C-6.10941321 83.04514044 -6.10941321 83.04514044 -11 89 C-11.58007812 89.77085937 -12.16015625 90.54171875 -12.7578125 91.3359375 C-17.76059517 97.59447939 -22.36412314 99.89986462 -30 102 C-30.77988281 102.26167969 -31.55976562 102.52335938 -32.36328125 102.79296875 C-38.64733157 104.87357028 -45.07506748 106.02343144 -51.58203125 107.15625 C-62.02006819 109.07647243 -72.16999839 111.84049706 -82.3125 114.9375 C-89.73563357 117.17888591 -97.13360432 119.36987853 -104.6875 121.125 C-111.52207562 122.75887934 -117.95014843 125.06640739 -124.4765625 127.6328125 C-128 129 -128 129 -131.2109375 129.6796875 C-134.59761417 131.28290419 -135.6108478 133.12262335 -137.17702484 136.45956421 C-138.82902401 141.55910793 -138.51695277 146.80764719 -138.45410156 152.1171875 C-138.45468567 153.4155806 -138.45526978 154.71397369 -138.45587158 156.05171204 C-138.45701339 159.59060682 -138.43359175 163.12895288 -138.40557575 166.66772079 C-138.3804723 170.37391078 -138.37821309 174.08011507 -138.37347412 177.78637695 C-138.36107047 184.79505101 -138.32828459 191.80347377 -138.28807616 198.81203747 C-138.24327678 206.79510686 -138.22135095 214.77818862 -138.20129442 222.76135254 C-138.15954934 239.17438184 -138.08924858 255.58715879 -138 272 C-137.37982341 272.20431515 -136.75964682 272.40863029 -136.12067699 272.61913681 C-135.30831742 272.88804859 -134.49595785 273.15696037 -133.65898132 273.434021 C-132.85317973 273.70021114 -132.04737814 273.96640129 -131.21715832 274.24065781 C-128.88922118 275.03794002 -126.67507831 275.95061572 -124.45703125 277.015625 C-123.70091553 277.37575684 -122.9447998 277.73588867 -122.16577148 278.10693359 C-121.0009021 278.67275146 -121.0009021 278.67275146 -119.8125 279.25 C-118.98371338 279.64912598 -118.15492676 280.04825195 -117.30102539 280.45947266 C-115.63396413 281.26426085 -113.96816009 282.07165922 -112.30371094 282.88183594 C-110.30415018 283.85237306 -108.29854088 284.80805904 -106.2890625 285.7578125 C-71.3850457 302.59961082 -40.84362828 330.77898132 -27.25537109 368.04199219 C-26.59361253 370.08181109 -25.97400254 372.12842877 -25.375 374.1875 C-23.88444693 379.33342823 -23.88444693 379.33342823 -21.984375 384.3359375 C-20.41442843 388.58476116 -19.7042249 392.9934688 -18.875 397.4375 C-18.60236328 398.8306543 -18.60236328 398.8306543 -18.32421875 400.25195312 C-18.15277344 401.15751953 -17.98132813 402.06308594 -17.8046875 402.99609375 C-17.64983887 403.81263428 -17.49499023 404.6291748 -17.33544922 405.47045898 C-16.95538805 408.33640786 -16.94595496 411.11226359 -17 414 C-24.15331259 414.02539086 -31.30661352 414.0428841 -38.45996094 414.05493164 C-40.89258254 414.05995504 -43.32520114 414.06677491 -45.7578125 414.07543945 C-49.25782007 414.08759226 -52.75778765 414.09324832 -56.2578125 414.09765625 C-57.34240753 414.10281754 -58.42700256 414.10797882 -59.54446411 414.11329651 C-70.40392814 414.11410018 -70.40392814 414.11410018 -74 413 C-75.29199219 411.26586914 -75.29199219 411.26586914 -76.046875 409.03515625 C-76.33433594 408.23529297 -76.62179687 407.43542969 -76.91796875 406.61132812 C-77.19253906 405.77021484 -77.46710938 404.92910156 -77.75 404.0625 C-78.3238257 402.40605647 -78.90176949 400.75103217 -79.484375 399.09765625 C-79.72897461 398.36039307 -79.97357422 397.62312988 -80.22558594 396.86352539 C-80.94307327 394.80251423 -80.94307327 394.80251423 -83 393 C-83.4684359 391.32701463 -83.93337091 389.65291694 -84.375 387.97265625 C-85.02165444 385.93165317 -85.86676775 384.19899706 -86.875 382.3125 C-88.60031625 379.03250317 -89.73559659 375.79499963 -90.8125 372.25 C-92.94904996 365.57855943 -96.2430694 359.88256239 -100 354 C-100.58652344 353.01128906 -101.17304687 352.02257812 -101.77734375 351.00390625 C-104.4622899 347.37521805 -107.46310917 344.9849449 -111.0625 342.3125 C-112.30470425 341.37283466 -113.54563432 340.43148204 -114.78515625 339.48828125 C-115.33051025 339.08134033 -115.87586426 338.67439941 -116.43774414 338.25512695 C-118 337 -118 337 -119.51733398 335.42260742 C-121.38108925 333.63434759 -123.42856371 332.95272096 -125.80078125 332.0078125 C-128.54735568 330.74916916 -131.0463116 329.19878341 -133.625 327.625 C-138.94011235 324.45727306 -144.28645593 322.23078777 -150.08984375 320.12109375 C-153.67313323 318.74068559 -156.71179641 316.97292215 -160 315 C-162.31013843 313.92955962 -164.64173753 312.96255611 -167 312 C-167 311.34 -167 310.68 -167 310 C-168.010625 309.896875 -169.02125 309.79375 -170.0625 309.6875 C-174.21218208 308.96295233 -177.21356263 307.77730734 -181 306 C-181 305.34 -181 304.68 -181 304 C-181.94875 303.9175 -182.8975 303.835 -183.875 303.75 C-187.00914542 303.30539322 -189.65139299 302.41705392 -192.56640625 301.19140625 C-197.99823152 298.97155526 -203.49602243 297.04051129 -209.0625 295.1875 C-210.09544189 294.84275635 -211.12838379 294.4980127 -212.19262695 294.14282227 C-219.63673974 291.69438906 -227.1297316 289.50537963 -234.6875 287.4375 C-245.93828092 284.3585141 -257.01091688 280.9127796 -268 277 C-269.8253125 276.35417969 -269.8253125 276.35417969 -271.6875 275.6953125 C-281.07033701 272.10637734 -287.66972211 267.18018913 -292 258 C-296.9679736 241.50807591 -291.60790952 221.62257748 -288.47363281 205.25048828 C-286.85241073 196.2565658 -286.18420508 187.22700092 -285.5 178.125 C-284.77035593 168.46274365 -283.9017331 158.91905383 -282.44628906 149.33300781 C-281.68938597 143.68025011 -281.4409959 138.00363432 -281.125 132.3125 C-279.7511945 111.22879106 -277.21026216 92.11214762 -261 77 C-252.31342004 69.76118336 -243.66458728 66.73876711 -232.4855957 65.82739258 C-231.54903043 65.74754781 -230.61246515 65.66770304 -229.64751911 65.58543873 C-217.04326522 64.63216739 -204.40189151 64.73418454 -191.76985741 64.75617027 C-187.11949023 64.76394608 -182.46927006 64.75294311 -177.81892395 64.7389679 C-164.61291797 64.70168868 -151.40698434 64.68298968 -138.20092773 64.69458008 C-130.86658706 64.7008574 -123.53249132 64.68892141 -116.19821054 64.65813476 C-112.34499091 64.64277278 -108.49225381 64.63613167 -104.63902855 64.65271568 C-90.24184454 64.71038625 -76.07275926 64.5330399 -61.87231445 61.81958008 C-60.8667686 61.63214328 -59.86122274 61.44470648 -58.8252058 61.25158978 C-49.51807471 59.21448018 -44.47954473 54.52833395 -39 47 C-38.38253906 46.23300781 -37.76507812 45.46601563 -37.12890625 44.67578125 C-36.01103541 43.27908812 -34.91778349 41.86229081 -33.8515625 40.42578125 C-31.00869813 36.70126907 -27.94888321 33.1653154 -24.90600586 29.60375977 C-22.86964271 27.21742535 -20.86050778 24.82308304 -18.91796875 22.359375 C-17.06337906 20.07796528 -15.07915358 18.07515521 -13 16 C-11.47993745 14.20429231 -9.98081973 12.39070381 -8.5 10.5625 C-7.37078125 9.17224609 -7.37078125 9.17224609 -6.21875 7.75390625 C-4.14005909 5.17384094 -2.06748298 2.58905255 0 0 Z " fill="#6242FE" transform="translate(748,438)"/>
<path d="M0 0 C12.58228244 10.76116261 19.38266428 25.30881661 20.90625 41.66015625 C21.49116673 56.64864747 15.83575807 72.18602623 6.375 83.8125 C-4.69580594 95.15820179 -18.54558367 102.03738353 -34.3125 103.3125 C-35.14136719 103.38339844 -35.97023438 103.45429688 -36.82421875 103.52734375 C-51.78194127 104.14543146 -66.43002534 99.30147201 -77.7109375 89.47265625 C-86.62381355 81.17781158 -92.35452315 71.78682713 -96.3125 60.3125 C-96.539375 59.66925781 -96.76625 59.02601563 -97 58.36328125 C-100.83052446 45.67466898 -98.11404482 30.77214025 -92.76953125 18.87890625 C-84.41432793 3.87013141 -72.36012051 -5.72205437 -56.3125 -11.6875 C-36.11556844 -17.11315385 -16.60115415 -12.35434728 0 0 Z " fill="#4561FD" transform="translate(619.3125,345.6875)"/>
<path d="M0 0 C12.07668619 2.21120188 23.80599211 5.62120982 35.5546875 9.1328125 C42.97691816 11.32946532 50.47620259 13.18740278 58 15 C57.75774482 22.14652781 55.74090433 27.26679545 52.609375 33.6640625 C51.09692978 36.79908244 49.78074446 39.95237276 48.5 43.1875 C43.40894546 55.48014117 35.57185148 66.76670276 26 76 C25.44699219 76.55042969 24.89398438 77.10085938 24.32421875 77.66796875 C17.64475226 83.86919182 9.81141177 88.38642237 2 93 C1.25830566 93.43812012 0.51661133 93.87624023 -0.24755859 94.32763672 C-9.17601075 99.55146477 -18.06477737 104.13522269 -27.765625 107.74609375 C-31.03773513 108.9400458 -31.03773513 108.9400458 -34.109375 110.66015625 C-38.75189394 112.81202652 -38.75189394 112.81202652 -42 112 C-43.70805683 109.80259112 -44.94935688 107.86275041 -46.25 105.4375 C-47.03339876 104.05573129 -47.81726629 102.67422826 -48.6015625 101.29296875 C-48.99762695 100.58060059 -49.39369141 99.86823242 -49.80175781 99.13427734 C-51.67464084 95.79834756 -53.64936993 92.52575494 -55.625 89.25 C-55.99455811 88.63084717 -56.36411621 88.01169434 -56.74487305 87.3737793 C-59.62966247 82.55387543 -62.66411398 77.84282261 -65.78515625 73.171875 C-67 71 -67 71 -67 68 C-66.06655762 67.58657349 -66.06655762 67.58657349 -65.11425781 67.16479492 C-53.89896641 62.17347579 -42.76957901 57.09096992 -32 51.1875 C-31.20754883 50.75655029 -30.41509766 50.32560059 -29.59863281 49.8815918 C-16.72597323 42.69605232 -8.86270469 35.5967588 -4.58349609 21.16113281 C-2.70159162 14.19099961 -1.35261942 7.08802802 0 0 Z " fill="#6C42FE" transform="translate(451,751)"/>
<path d="M0 0 C5.69957511 -0.21392507 10.80417548 0.59503409 16.375 1.75 C25.84837592 3.65014816 35.35094851 5.2096652 44.91162109 6.60449219 C45.92305176 6.75821289 46.93448242 6.91193359 47.9765625 7.0703125 C48.87455566 7.20195801 49.77254883 7.33360352 50.69775391 7.46923828 C53 8 53 8 56 10 C41.2056483 10.35085419 41.2056483 10.35085419 34.671875 8.578125 C27.90321918 7.11356205 20.88278982 6.69793122 14 6 C14 5.34 14 4.68 14 4 C9.38 3.01 4.76 2.02 0 1 C0 0.67 0 0.34 0 0 Z " fill="#C2EAFD" transform="translate(344,141)"/>
<path d="M0 0 C6.54907375 0.56457532 12.79601377 1.76187083 19.2109375 3.18359375 C23.02623532 4.00565276 26.84875548 4.73360196 30.6875 5.4375 C39.82883833 7.11434045 48.91275124 9.05414347 58 11 C58 11.33 58 11.66 58 12 C52.06 11.67 46.12 11.34 40 11 C40 10.34 40 9.68 40 9 C39.34515625 9.02320313 38.6903125 9.04640625 38.015625 9.0703125 C30.9215896 9.21059004 23.88272138 8.86454994 17 7 C16.67 6.34 16.34 5.68 16 5 C13.85284027 4.38105941 13.85284027 4.38105941 11.3125 4 C7.39725362 3.29222232 3.74406485 2.37939231 0 1 C0 0.67 0 0.34 0 0 Z " fill="#D0EAFE" transform="translate(402,151)"/>
<path d="M0 0 C11.64566338 -0.44862909 23.17362895 0.89395365 34.75 2 C36.81505691 2.19321412 38.88016081 2.38592665 40.9453125 2.578125 C45.96410238 3.04629992 50.98220677 3.52126611 56 4 C56 4.33 56 4.66 56 5 C36.91010044 5.63421593 18.80588836 3.94932806 0 1 C0 0.67 0 0.34 0 0 Z " fill="#A8E9FD" transform="translate(286,136)"/>
<path d="M0 0 C10.21535672 0.33492973 19.39983064 3.78160512 29 7 C30.74329229 7.57741891 32.48678092 8.15424538 34.23046875 8.73046875 C38.49104148 10.14172159 42.74669912 11.56698823 47 13 C43.62071324 14.14709734 41.61637607 13.84353618 38.25 12.75 C37.36441406 12.46769531 36.47882813 12.18539062 35.56640625 11.89453125 C33.40258397 11.14032227 31.30336956 10.31349695 29.1875 9.4375 C24.58800728 7.64097012 19.8243434 7.08764828 14.953125 6.4296875 C10.1367543 5.72889282 10.1367543 5.72889282 8 5 C7.67 4.34 7.34 3.68 7 3 C4.6859378 2.26924352 2.35171131 1.59861742 0 1 C0 0.67 0 0.34 0 0 Z " fill="#D1E4FE" transform="translate(460,163)"/>
<path d="M0 0 C7.53717323 -0.50185864 14.08850305 1.3511565 21.3125 3.375 C23.08077148 3.85066406 23.08077148 3.85066406 24.88476562 4.3359375 C33.58581223 6.72387482 33.58581223 6.72387482 37 9 C32.37129391 9.28339017 29.26156058 8.85398258 25.08203125 6.86328125 C18.46577771 4.11995661 11.09570861 2.80633052 4 2 C4.66 3.32 5.32 4.64 6 6 C4 5 2 4 0 3 C0 2.01 0 1.02 0 0 Z " fill="#91F7FC" transform="translate(88,212)"/>
<path d="M0 0 C5.04701783 0.69092161 10.05411069 1.50825555 15.0625 2.4375 C16.0844043 2.62022461 16.0844043 2.62022461 17.12695312 2.80664062 C21.22818688 3.56700385 25.06348714 4.6367292 29 6 C30.61878424 6.40098325 32.24359112 6.77894357 33.875 7.125 C34.65617187 7.29257813 35.43734375 7.46015625 36.2421875 7.6328125 C36.82226562 7.75398437 37.40234375 7.87515625 38 8 C38 8.33 38 8.66 38 9 C35.70774565 8.88628503 33.41617612 8.75869036 31.125 8.625 C29.84882813 8.55539063 28.57265625 8.48578125 27.2578125 8.4140625 C24 8 24 8 22 6 C19.63490639 5.69940057 17.25558119 5.50484988 14.875 5.375 C13.59367188 5.30023438 12.31234375 5.22546875 10.9921875 5.1484375 C10.00476563 5.09945312 9.01734375 5.05046875 8 5 C8 4.34 8 3.68 8 3 C5.36 2.34 2.72 1.68 0 1 C0 0.67 0 0.34 0 0 Z " fill="#AEE6FD" transform="translate(213,243)"/>
<path d="M0 0 C9.68648391 1.90553782 19.34172799 3.95728539 29 6 C29 6.33 29 6.66 29 7 C21.02817701 7.33267267 14.36864027 7.17638474 7 4 C6.30519531 3.71382812 5.61039063 3.42765625 4.89453125 3.1328125 C3.25320796 2.44483268 1.62486269 1.72600248 0 1 C0 0.67 0 0.34 0 0 Z " fill="#ACEFFD" transform="translate(156,230)"/>
<path d="M0 0 C0.66 0 1.32 0 2 0 C3.91281635 9.07449185 5.5338079 17.66824711 5 27 C4.67 27 4.34 27 4 27 C3.32409812 23.62678224 2.66094482 20.25117758 2 16.875 C1.80921875 15.92367187 1.6184375 14.97234375 1.421875 13.9921875 C0.50243109 9.26361884 -0.2609763 4.84437265 0 0 Z " fill="#DFBDFF" transform="translate(727,825)"/>
<path d="M0 0 C12.71362727 -0.11185009 25.31799345 0.06921053 38 1 C38 1.33 38 1.66 38 2 C25.03903597 3.00116006 12.86982226 2.88073489 0 1 C0 0.67 0 0.34 0 0 Z " fill="#DEF8FE" transform="translate(237,134)"/>
<path d="M0 0 C7.0513335 1.25561975 12.60996953 3.5134731 18.875 6.9375 C19.71546875 7.38029297 20.5559375 7.82308594 21.421875 8.27929688 C25.07203149 10.23557084 28.17317536 11.92806532 31 15 C26.89915347 13.8916631 23.43042321 12.19230155 19.75 10.125 C15.33738383 7.65080457 10.94675384 5.67271679 6.19140625 3.95703125 C3.82366463 2.92299079 2.00324469 1.61993592 0 0 Z " fill="#76D3FC" transform="translate(160,335)"/>
<path d="M0 0 C6.42347265 1.6425928 12.76179293 3.50284367 19.0625 5.5625 C19.71742432 5.77221436 20.37234863 5.98192871 21.04711914 6.19799805 C23.93668515 7.15714766 25.81682468 7.81682468 28 10 C23.63399816 9.48635272 20.05642365 8.62256946 16 7 C13.67402489 6.6186926 11.34087842 6.27539746 9 6 C9 5.34 9 4.68 9 4 C8.071875 4.0825 7.14375 4.165 6.1875 4.25 C5.135625 4.1675 4.08375 4.085 3 4 C1.30078125 1.984375 1.30078125 1.984375 0 0 Z " fill="#DAE7FE" transform="translate(508,177)"/>
<path d="M0 0 C4.76084257 -0.126464 8.9520304 0.24735626 13.58984375 1.3125 C14.78544922 1.58320313 15.98105469 1.85390625 17.21289062 2.1328125 C18.44201172 2.41898438 19.67113281 2.70515625 20.9375 3 C22.82178711 3.42925781 22.82178711 3.42925781 24.74414062 3.8671875 C27.83103058 4.57142095 30.91616066 5.28254702 34 6 C34 6.33 34 6.66 34 7 C28.06 6.67 22.12 6.34 16 6 C16 5.34 16 4.68 16 4 C14.824375 3.814375 14.824375 3.814375 13.625 3.625 C9.0646674 2.83873576 4.53432907 1.92299584 0 1 C0 0.67 0 0.34 0 0 Z " fill="#BADEFD" transform="translate(426,156)"/>
<path d="M0 0 C7.17480397 1.30858751 14.1296512 3.07159003 21.125 5.125 C22.08148438 5.40214844 23.03796875 5.67929688 24.0234375 5.96484375 C26.35005287 6.63956221 28.67551422 7.3179883 31 8 C31 8.33 31 8.66 31 9 C24.26483263 8.40390686 17.97211055 7.14905977 11.4375 5.4375 C10.06754883 5.08655273 10.06754883 5.08655273 8.66992188 4.72851562 C6.44515436 4.15776375 4.22197103 3.58152522 2 3 C2 2.34 2 1.68 2 1 C1.34 0.67 0.68 0.34 0 0 Z " fill="#A2F3FD" transform="translate(125,221)"/>
<path d="M0 0 C0.66 0 1.32 0 2 0 C3.01250775 2.53729621 4.01009573 5.07889488 5 7.625 C5.28617188 8.33785156 5.57234375 9.05070313 5.8671875 9.78515625 C7.49899056 14.02007372 8.34956986 17.38276475 8 22 C5.84552097 18.76828146 4.73279606 15.78276142 3.4375 12.125 C3.00308594 10.91070313 2.56867187 9.69640625 2.12109375 8.4453125 C1.20077322 5.61701038 0.49511577 2.92618982 0 0 Z " fill="#DFC3FF" transform="translate(719,803)"/>
<path d="M0 0 C0 3.71797449 -0.85763334 4.98264569 -3 8 C-4.83652305 9.67174095 -6.73710705 11.27513144 -8.6875 12.8125 C-10.17830078 13.99779297 -10.17830078 13.99779297 -11.69921875 15.20703125 C-12.83810547 16.09455078 -12.83810547 16.09455078 -14 17 C-14.66 16.67 -15.32 16.34 -16 16 C-10.72 10.72 -5.44 5.44 0 0 Z " fill="#E1E2FE" transform="translate(277,742)"/>
<path d="M0 0 C9.30099365 0.44805451 17.95301478 1.84337234 27 4 C27 4.33 27 4.66 27 5 C22.05 5 17.1 5 12 5 C12 4.34 12 3.68 12 3 C6.06 2.01 6.06 2.01 0 1 C0 0.67 0 0.34 0 0 Z " fill="#AAE0FD" transform="translate(373,146)"/>
<path d="M0 0 C-4.99795644 1.94364973 -10.0202029 2.73263465 -15.29296875 3.53515625 C-18.08515972 3.9444361 -18.08515972 3.9444361 -21 5 C-23.1875 4.0625 -23.1875 4.0625 -25 3 C-21.58604938 2.29852167 -18.16853031 1.61627764 -14.75 0.9375 C-13.78191406 0.73833984 -12.81382812 0.53917969 -11.81640625 0.33398438 C-10.88183594 0.15029297 -9.94726562 -0.03339844 -8.984375 -0.22265625 C-8.12553711 -0.39547119 -7.26669922 -0.56828613 -6.38183594 -0.74633789 C-3.94790649 -1.00554788 -2.31101537 -0.75084609 0 0 Z " fill="#D0CEFE" transform="translate(258,877)"/>
<path d="M0 0 C2.97 0.495 2.97 0.495 6 1 C6.33 1.99 6.66 2.98 7 4 C8.0828125 4.12375 8.0828125 4.12375 9.1875 4.25 C12.55313254 5.14750201 14.41612816 6.7114278 17 9 C16.67 9.99 16.34 10.98 16 12 C15.34773438 11.54109375 14.69546875 11.0821875 14.0234375 10.609375 C8.24739307 6.54624862 8.24739307 6.54624862 2.375 2.625 C1.59125 2.08875 0.8075 1.5525 0 1 C0 0.67 0 0.34 0 0 Z " fill="#DAE7FE" transform="translate(285,407)"/>
<path d="M0 0 C2.98965642 0.59850402 4.99778498 1.48912049 7.453125 3.28515625 C8.071875 3.73310547 8.690625 4.18105469 9.328125 4.64257812 C9.96234375 5.11115234 10.5965625 5.57972656 11.25 6.0625 C11.8996875 6.53494141 12.549375 7.00738281 13.21875 7.49414062 C14.81653662 8.65723529 16.40881803 9.82788601 18 11 C12.49499551 11 7.33829334 7.00203434 3.234375 3.48828125 C2.11474325 2.36543217 1.04911691 1.18899916 0 0 Z " fill="#70BFFC" transform="translate(226,370)"/>
<path d="M0 0 C1.216875 0.4125 2.43375 0.825 3.6875 1.25 C9.75757149 3.27658936 15.87841551 5.13608633 22 7 C22 7.33 22 7.66 22 8 C13.83550854 7.45192071 6.82591967 5.69281977 0 1 C0 0.67 0 0.34 0 0 Z " fill="#D7E4FE" transform="translate(257,444)"/>
<path d="M0 0 C7.49612516 1.52463563 14.71359134 3.68006154 22 6 C18.21668094 7.37827516 15.40906141 6.62579417 11.5625 5.6875 C10.45003906 5.42324219 9.33757812 5.15898437 8.19140625 4.88671875 C5.35110819 4.09755393 2.70696229 3.15868105 0 2 C0 1.34 0 0.68 0 0 Z " fill="#D8E6FE" transform="translate(234,437)"/>
<path d="M0 0 C4.68317784 1.73451031 7.79620379 5.59240757 10 10 C10.06950541 11.54023996 10.08452357 13.08334988 10.0625 14.625 C10.05347656 15.44226563 10.04445312 16.25953125 10.03515625 17.1015625 C10.02355469 17.72804688 10.01195312 18.35453125 10 19 C9.67 19 9.34 19 9 19 C8.979375 17.865625 8.95875 16.73125 8.9375 15.5625 C8.35932968 10.5724454 5.77384627 7.62333557 2.59375 3.8828125 C1 2 1 2 0 0 Z " fill="#82DCFC" transform="translate(189,275)"/>
<path d="M0 0 C6.19240462 0.68804496 12.01955594 2.28048715 18 4 C18 4.33 18 4.66 18 5 C14.7 5 11.4 5 8 5 C8 4.34 8 3.68 8 3 C5.36 2.34 2.72 1.68 0 1 C0 0.67 0 0.34 0 0 Z " fill="#CEF0FD" transform="translate(213,243)"/>
<path d="M0 0 C2.64 0 5.28 0 8 0 C8 0.66 8 1.32 8 2 C6.68 2 5.36 2 4 2 C4.66 3.32 5.32 4.64 6 6 C4 5 2 4 0 3 C0 2.01 0 1.02 0 0 Z " fill="#ACFBFD" transform="translate(88,212)"/>
<path d="M0 0 C0.66 0.33 1.32 0.66 2 1 C-5.29840547 8.48291572 -5.29840547 8.48291572 -9 11 C-9.66 10.67 -10.32 10.34 -11 10 C-5.555 5.05 -5.555 5.05 0 0 Z " fill="#DA72FF" transform="translate(807,888)"/>
<path d="M0 0 C1.4540625 0.0309375 1.4540625 0.0309375 2.9375 0.0625 C2.2775 1.7125 1.6175 3.3625 0.9375 5.0625 C-1 4.75 -1 4.75 -3.0625 4.0625 C-3.3925 3.0725 -3.7225 2.0825 -4.0625 1.0625 C-3.0625 0.0625 -3.0625 0.0625 0 0 Z " fill="#E8F2FE" transform="translate(511.0625,118.9375)"/>
<path d="M0 0 C1.32 0.33 2.64 0.66 4 1 C0.535 3.97 0.535 3.97 -3 7 C-2.25 2.25 -2.25 2.25 0 0 Z " fill="#E1DFFE" transform="translate(615,567)"/>
<path d="M0 0 C4.60853797 0.72008406 8.67237409 2.31295939 13 4 C9.57186835 5.14271055 8.69088901 4.82699932 5.375 3.6875 C4.57835937 3.42324219 3.78171875 3.15898437 2.9609375 2.88671875 C1 2 1 2 0 0 Z " fill="#D2E5FE" transform="translate(209,427)"/>
<path d="M0 0 C1.258125 -0.04125 2.51625 -0.0825 3.8125 -0.125 C4.52019531 -0.14820313 5.22789062 -0.17140625 5.95703125 -0.1953125 C8 0 8 0 11 2 C5.62694301 2.96891192 5.62694301 2.96891192 3 3 C1 1.5625 1 1.5625 0 0 Z " fill="#E5F8FE" transform="translate(179,237)"/>
<path d="M0 0 C1.64666203 0.1135629 3.29236082 0.24117381 4.9375 0.375 C5.85402344 0.44460937 6.77054687 0.51421875 7.71484375 0.5859375 C8.84599609 0.79089844 8.84599609 0.79089844 10 1 C10.33 1.66 10.66 2.32 11 3 C8.03 3 5.06 3 2 3 C2 2.34 2 1.68 2 1 C1.34 0.67 0.68 0.34 0 0 Z " fill="#EEF8FE" transform="translate(356,144)"/>
<path d="M0 0 C4.38889325 0.66498383 7.9811485 2.18757677 12 4 C8.64474971 5.11841676 8.02910146 4.91538821 4.875 3.6875 C4.17117187 3.42324219 3.46734375 3.15898437 2.7421875 2.88671875 C1 2 1 2 0 0 Z " fill="#D7E7FE" transform="translate(222,432)"/>
<path d="M0 0 C1.98073365 0.280828 3.95958448 0.57496614 5.9375 0.875 C7.59072266 1.11863281 7.59072266 1.11863281 9.27734375 1.3671875 C10.17582031 1.57601562 11.07429687 1.78484375 12 2 C12.33 2.66 12.66 3.32 13 4 C11.58506449 4.10884119 10.16767057 4.18597617 8.75 4.25 C7.96109375 4.29640625 7.1721875 4.3428125 6.359375 4.390625 C3.19758191 3.86714932 2.04385492 2.38137224 0 0 Z " fill="#E2F9FE" transform="translate(144,228)"/>
<path d="M0 0 C-3.00617269 3.00617269 -5.82381598 2.59585316 -10 3 C-9 1 -9 1 -6.6875 -0.1875 C-3.88010429 -1.03624754 -2.698065 -0.99928333 0 0 Z " fill="#D8D6FE" transform="translate(699,496)"/>
<path d="M0 0 C-1.32 0.33 -2.64 0.66 -4 1 C-3.67 2.65 -3.34 4.3 -3 6 C-4.32 5.34 -5.64 4.68 -7 4 C-7 3.01 -7 2.02 -7 1 C-4.53721199 -0.231394 -2.7204945 -0.07159196 0 0 Z " fill="#9AE9FC" transform="translate(118,310)"/>
<path d="M0 0 C4.81430721 -0.56638908 7.20307814 1.17438373 11 4 C8.04725901 4 6.50941597 3.56108169 3.8125 2.5 C3.09707031 2.2215625 2.38164062 1.943125 1.64453125 1.65625 C1.10183594 1.4396875 0.55914062 1.223125 0 1 C0 0.67 0 0.34 0 0 Z " fill="#EEF3FE" transform="translate(252,444)"/>
<path d="M0 0 C1.32 0 2.64 0 4 0 C4.33 1.65 4.66 3.3 5 5 C2.525 4.01 2.525 4.01 0 3 C0 2.01 0 1.02 0 0 Z " fill="#D0F8FD" transform="translate(227,134)"/>
</svg>
