<?xml version="1.0" encoding="UTF-8"?>
<svg version="1.1" xmlns="http://www.w3.org/2000/svg" width="1040" height="1040">
<path d="M0 0 C1.11234673 -0.00327219 2.22469345 -0.00654439 3.37074766 -0.00991574 C5.19197686 -0.0076903 5.19197686 -0.0076903 7.04999858 -0.00541991 C8.35127705 -0.00777214 9.65255552 -0.01012437 10.99326667 -0.01254788 C14.61497364 -0.01894311 18.23665842 -0.01910988 21.85836996 -0.01827047 C25.79507093 -0.01844007 29.73176396 -0.0243473 33.66846097 -0.02951133 C41.48102329 -0.03883766 49.29357994 -0.04275944 57.10614713 -0.0450303 C66.46259972 -0.04799233 75.81904478 -0.05668983 85.17549342 -0.06544458 C107.79302073 -0.0862912 130.41054935 -0.09675958 153.02808403 -0.10557419 C163.7291549 -0.10978086 174.4302252 -0.11500286 185.13129559 -0.12025872 C221.76565109 -0.13815014 258.40000674 -0.15314545 295.03436595 -0.16057891 C297.33443692 -0.16105366 299.63450789 -0.16152955 301.93457885 -0.16200657 C303.64551693 -0.16236113 303.64551693 -0.16236113 305.39101941 -0.16272286 C311.16995858 -0.16392405 316.94889774 -0.1651395 322.72783691 -0.16636485 C323.87468404 -0.166605 325.02153117 -0.16684515 326.20313125 -0.16709258 C363.37663569 -0.17498339 400.55010821 -0.19841012 437.72359871 -0.23092079 C477.02919173 -0.26523332 516.33476606 -0.28493142 555.6403743 -0.28822315 C559.95699202 -0.28864068 564.27360972 -0.28912024 568.59022743 -0.28964633 C570.18452617 -0.28983111 570.18452617 -0.28983111 571.81103297 -0.29001964 C588.90287957 -0.29235002 605.99468903 -0.30800109 623.08652241 -0.32848817 C640.27459366 -0.34876335 657.46262042 -0.35421548 674.65070143 -0.34471754 C684.85589554 -0.339509 695.06094129 -0.34534947 705.26611399 -0.36725221 C712.09264405 -0.38079335 718.91907237 -0.37965411 725.74560353 -0.36685025 C729.62900062 -0.35997558 733.51211477 -0.35920785 737.3954862 -0.37641034 C775.7647231 -0.5357116 809.03558861 8.59931192 837.24175292 35.93739492 C856.91946142 55.76236409 872.4462436 85.38178819 872.46821034 113.78939199 C872.47148253 114.90173872 872.47475473 116.01408545 872.47812608 117.16013965 C872.47664246 118.37429246 872.47515883 119.58844526 872.47363025 120.83939058 C872.47598248 122.14066905 872.47833471 123.44194752 872.48075822 124.78265867 C872.48715345 128.40436564 872.48732022 132.02605041 872.48648081 135.64776195 C872.48665041 139.58446292 872.49255764 143.52115596 872.49772167 147.45785296 C872.507048 155.27041528 872.51096978 163.08297193 872.51324064 170.89553913 C872.51620267 180.25199171 872.52490017 189.60843678 872.53365492 198.96488542 C872.55450154 221.58241273 872.56496992 244.19994135 872.57378453 266.81747603 C872.5779912 277.51854689 872.5832132 288.21961719 872.58846906 298.92068759 C872.60636048 335.55504308 872.62135579 372.18939874 872.62878925 408.82375795 C872.629264 411.12382891 872.62973989 413.42389988 872.63021691 415.72397085 C872.63057147 417.43490893 872.63057147 417.43490893 872.6309332 419.18041141 C872.63213439 424.95935057 872.63334984 430.73828974 872.63457519 436.5172289 C872.63481534 437.66407604 872.63505549 438.81092317 872.63530292 439.99252325 C872.64319373 477.16602769 872.66662046 514.3395002 872.69913113 551.5129907 C872.73344366 590.81858372 872.75314176 630.12415806 872.75643349 669.4297663 C872.75685102 673.74638401 872.75733058 678.06300172 872.75785667 682.37961942 C872.75797986 683.44248525 872.75810305 684.50535108 872.75822998 685.60042497 C872.76056036 702.69227156 872.77621143 719.78408103 872.79669851 736.8759144 C872.81697369 754.06398566 872.82242582 771.25201242 872.81292788 788.44009342 C872.80771934 798.64528753 872.8135598 808.85033328 872.83546255 819.05550599 C872.84900369 825.88203605 872.84786445 832.70846437 872.83506059 839.53499552 C872.82818592 843.41839261 872.82741819 847.30150676 872.84462068 851.18487819 C873.00392194 889.55411509 863.86889842 922.82498061 836.53081542 951.03114492 C816.70584624 970.70885341 787.08642215 986.23563559 758.67881835 986.25760233 C757.56647162 986.26087453 756.45412489 986.26414672 755.30807069 986.26751807 C753.48684148 986.26529264 753.48684148 986.26529264 751.62881976 986.26302224 C750.32754129 986.26537447 749.02626282 986.2677267 747.68555167 986.27015021 C744.0638447 986.27654545 740.44215993 986.27671222 736.82044838 986.27587281 C732.88374742 986.2760424 728.94705438 986.28194963 725.01035738 986.28711367 C717.19779506 986.29643999 709.38523841 986.30036177 701.57267121 986.30263263 C692.21621863 986.30559467 682.85977356 986.31429216 673.50332492 986.32304691 C650.88579761 986.34389353 628.26826899 986.35436191 605.65073431 986.36317652 C594.94966345 986.36738319 584.24859315 986.37260519 573.54752275 986.37786105 C536.91316726 986.39575247 500.2788116 986.41074779 463.64445239 986.41818124 C461.34438143 986.418656 459.04431046 986.41913189 456.74423949 986.4196089 C455.03330141 986.41996347 455.03330141 986.41996347 453.28779893 986.42032519 C447.50885976 986.42152639 441.7299206 986.42274184 435.95098144 986.42396718 C434.8041343 986.42420733 433.65728717 986.42444748 432.47568709 986.42469491 C395.30218265 986.43258573 358.12871014 986.45601246 320.95521963 986.48852313 C281.64962662 986.52283565 242.34405228 986.54253376 203.03844404 986.54582548 C198.72182633 986.54624302 194.40520862 986.54672258 190.08859092 986.54724866 C188.49429217 986.54743345 188.49429217 986.54743345 186.86778537 986.54762197 C169.77593878 986.54995235 152.68412931 986.56560342 135.59229594 986.58609051 C118.40422468 986.60636569 101.21619792 986.61181782 84.02811692 986.60231987 C73.82292281 986.59711133 63.61787706 986.6029518 53.41270435 986.62485455 C46.58617429 986.63839569 39.75974597 986.63725645 32.93321482 986.62445259 C29.04981773 986.61757791 25.16670358 986.61681018 21.28333215 986.63401268 C-17.08590476 986.79331393 -50.35677027 977.65829042 -78.56293458 950.32020742 C-98.24064307 930.49523824 -113.76742525 900.87581415 -113.78939199 872.46821034 C-113.79266419 871.35586361 -113.79593638 870.24351689 -113.79930773 869.09746268 C-113.79782411 867.88330988 -113.79634049 866.66915707 -113.7948119 865.41821176 C-113.79716413 864.11693329 -113.79951636 862.81565482 -113.80193987 861.47494367 C-113.80833511 857.85323669 -113.80850188 854.23155192 -113.80766247 850.60984038 C-113.80783206 846.67313941 -113.81373929 842.73644638 -113.81890333 838.79974937 C-113.82822965 830.98718705 -113.83215143 823.1746304 -113.83442229 815.36206321 C-113.83738433 806.00561062 -113.84608182 796.64916556 -113.85483657 787.29271692 C-113.87568319 764.67518961 -113.88615157 742.05766099 -113.89496618 719.44012631 C-113.89917285 708.73905544 -113.90439485 698.03798514 -113.90965071 687.33691475 C-113.92754213 650.70255925 -113.94253745 614.0682036 -113.9499709 577.43384439 C-113.95044566 575.13377342 -113.95092155 572.83370245 -113.95139856 570.53363148 C-113.95163494 569.3930061 -113.95187132 568.25238072 -113.95211485 567.07719093 C-113.95331605 561.29825176 -113.9545315 555.51931259 -113.95575684 549.74037343 C-113.95599699 548.5935263 -113.95623714 547.44667916 -113.95648457 546.26507909 C-113.96437539 509.09157465 -113.98780212 471.91810213 -114.02031279 434.74461163 C-114.05462532 395.43901861 -114.07432342 356.13344428 -114.07761514 316.82783604 C-114.07803268 312.51121832 -114.07851224 308.19460062 -114.07903832 303.87798291 C-114.07916151 302.81511708 -114.07928471 301.75225125 -114.07941163 300.65717737 C-114.08174201 283.56533077 -114.09739308 266.4735213 -114.11788017 249.38168793 C-114.13815535 232.19361667 -114.14360748 215.00558992 -114.13410953 197.81750891 C-114.12890099 187.6123148 -114.13474146 177.40726905 -114.15664421 167.20209635 C-114.17018535 160.37556629 -114.16904611 153.54913797 -114.15624225 146.72260681 C-114.14936757 142.83920972 -114.14859984 138.95609557 -114.16580234 135.07272414 C-114.32510359 96.70348724 -105.19008008 63.43262173 -77.85199708 35.22645742 C-58.0270279 15.54874892 -28.40760381 0.02196674 0 0 Z " fill="#2392F7" transform="translate(140.66059082746506,26.87119883298874)"/>
<path d="M0 0 C2.80859375 2.16015625 2.80859375 2.16015625 5.4375 5.0625 C6.39641498 6.09043212 7.35735661 7.11647739 8.3203125 8.140625 C9.20460938 9.08421875 10.08890625 10.0278125 11 11 C12.25012256 12.12756152 13.51873781 13.23529028 14.8125 14.3125 C18.75401525 17.66888309 22.36137762 21.32318187 26 25 C31.34464977 30.41495134 31.34464977 30.41495134 37 35.5 C41.01434732 38.89945824 44.71463036 42.60083258 48.4375 46.3125 C49.06591797 46.93640625 49.69433594 47.5603125 50.34179688 48.203125 C50.92896484 48.79222656 51.51613281 49.38132813 52.12109375 49.98828125 C52.6514624 50.51977783 53.18183105 51.05127441 53.72827148 51.59887695 C55.74486353 53.82065114 56.02093498 55.15252628 56.4375 58.1875 C55.68504916 64.7445716 51.15364356 68.06468303 46.31835938 72.18554688 C41.81100261 76.10653877 37.60551387 80.28508225 33.40625 84.53125 C32.61528931 85.32599731 31.82432861 86.12074463 31.00939941 86.9395752 C28.50380477 89.45728432 26.00149142 91.97821446 23.5 94.5 C20.2008832 97.82588189 16.89835626 101.14832336 13.59375 104.46875 C12.85080688 105.21999146 12.10786377 105.97123291 11.34240723 106.74523926 C7.27693216 110.82951368 3.11403909 114.71833161 -1.25524902 118.47570801 C-3.26340833 120.23012523 -5.15352091 122.07658428 -7 124 C-5.97567871 124.00410889 -4.95135742 124.00821777 -3.89599609 124.01245117 C34.52698905 124.24289419 69.07291277 129.97799845 105 144 C105.7528125 144.29036133 106.505625 144.58072266 107.28125 144.87988281 C128.05305596 153.03620336 148.05326387 165.38172711 165.23876953 179.54882812 C166.88183413 180.90263683 168.54441487 182.22710669 170.21484375 183.546875 C184.85983653 195.44016044 198.76266228 209.0805559 209.83056641 224.390625 C210.99079651 225.98733415 212.18872198 227.55642812 213.38671875 229.125 C224.8039263 244.26726457 234.8753274 261.41853751 242 279 C242.34869141 279.85996582 242.69738281 280.71993164 243.05664062 281.60595703 C257.69592158 318.21039421 262.88858902 353.61680869 262.65185547 392.78564453 C262.62336927 397.54538363 262.64030837 402.30372414 262.66907406 407.06341553 C262.86429662 445.23384355 256.92226285 479.32846267 243 515 C242.70963867 515.7528125 242.41927734 516.505625 242.12011719 517.28125 C233.84816887 538.34752667 221.24392007 558.48131916 207 576 C206.19304688 577.02738281 205.38609375 578.05476562 204.5546875 579.11328125 C191.90543471 594.71666988 177.2997911 609.24439308 161 621 C159.93483528 621.80418792 158.87104279 622.61019643 157.80859375 623.41796875 C122.82511137 649.63731104 81.89075179 664.249153 39 671 C38.02526922 671.16991549 37.05053844 671.33983099 36.04627037 671.51489544 C30.98252599 672.22928764 25.91511637 672.14807563 20.81045532 672.14717102 C19.69096949 672.15084771 18.57148366 672.1545244 17.41807401 672.1583125 C13.67015013 672.1693172 9.922254 672.17318785 6.17431641 672.17700195 C3.48481585 672.1832694 0.79531821 672.18990429 -1.8941803 672.19691467 C-9.96561059 672.21663667 -18.03704205 672.2267433 -26.10849041 672.23564246 C-29.92069227 672.2400354 -33.73289276 672.24539986 -37.54509354 672.25063133 C-50.23957976 672.26764505 -62.93406515 672.28213295 -75.62856102 672.28938007 C-78.91969173 672.29128963 -82.21082244 672.29321 -85.50195312 672.29516602 C-86.72877916 672.29589163 -86.72877916 672.29589163 -87.98038955 672.2966319 C-101.19037892 672.30490864 -114.40027704 672.33020484 -127.61022668 672.36274669 C-141.21027003 672.39597264 -154.8102673 672.41384307 -168.4103514 672.41702431 C-176.03077008 672.41917594 -183.65105601 672.42772362 -191.27143478 672.45348549 C-197.77036395 672.47540654 -204.26912817 672.48313991 -210.76809011 672.47351871 C-214.07262525 672.46903375 -217.37655106 672.47278393 -220.68108177 672.49028015 C-290.34843193 672.83808985 -353.76488551 643.80530876 -402.9375 595.3125 C-409.77531055 588.48520161 -416.03531832 581.49525517 -421.7421875 573.70214844 C-423.03039472 571.95886801 -424.35456407 570.24832302 -425.6875 568.5390625 C-433.55498694 558.31972893 -439.86207623 547.32294829 -446 536 C-446.38285156 535.30293945 -446.76570313 534.60587891 -447.16015625 533.88769531 C-453.75182724 521.79283036 -458.42907263 508.96899896 -463 496 C-463.26441895 495.2575 -463.52883789 494.515 -463.80126953 493.75 C-471.86318486 470.80239388 -475.31599453 446.69807712 -475.3359375 422.48046875 C-475.3423892 420.60980637 -475.34911917 418.73914494 -475.35610962 416.8684845 C-475.3680139 412.96120881 -475.37179796 409.05402103 -475.37060547 405.14672852 C-475.37044357 401.1934161 -475.3842388 397.24057024 -475.41162109 393.28735352 C-475.70190648 350.74103789 -475.70190648 350.74103789 -471 330 C-470.76664444 328.95293381 -470.53328888 327.90586761 -470.29286194 326.82707214 C-461.54113179 287.98799333 -445.05535899 252.03810211 -420 221 C-419.3719043 220.20416504 -418.74380859 219.40833008 -418.09667969 218.58837891 C-412.30167169 211.34267427 -406.06252068 204.66520273 -399.5 198.125 C-398.97831238 197.60285919 -398.45662476 197.08071838 -397.91912842 196.54275513 C-389.19587292 187.84161117 -380.12498774 180.04530915 -370 173 C-368.86872681 172.18619873 -368.86872681 172.18619873 -367.71459961 171.35595703 C-353.29143295 161.04981096 -337.45285048 151.66731639 -321 145 C-320.14003418 144.65130859 -319.28006836 144.30261719 -318.39404297 143.94335938 C-304.20560833 138.2689522 -289.91787343 133.35519773 -275 130 C-273.92137695 129.75733398 -272.84275391 129.51466797 -271.73144531 129.26464844 C-255.82180735 125.83899873 -240.48071242 124.54220395 -224.25 124.5625 C-223.40083008 124.56227844 -222.55166016 124.56205688 -221.67675781 124.56182861 C-219.26840114 124.56855619 -216.86121884 124.59366219 -214.453125 124.62890625 C-213.72748352 124.63450058 -213.00184204 124.64009491 -212.25421143 124.64585876 C-207.23521506 124.76478494 -207.23521506 124.76478494 -205 127 C-204.79584575 129.99687925 -204.71686599 132.90172613 -204.7253418 135.90014648 C-204.7176754 137.28324005 -204.7176754 137.28324005 -204.70985413 138.6942749 C-204.69591282 141.75327988 -204.69691831 144.81206071 -204.69921875 147.87109375 C-204.69533428 149.99097274 -204.69100013 152.11085096 -204.68623352 154.23072815 C-204.67876151 158.67866537 -204.67906966 163.12652323 -204.68432617 167.57446289 C-204.69012174 173.28238278 -204.67319232 178.98997828 -204.6499815 184.69784451 C-204.63526959 189.07723397 -204.634369 193.45654487 -204.63749123 197.83595467 C-204.63697672 199.94075221 -204.6317149 202.045554 -204.62167931 204.15032768 C-204.60938163 207.09058756 -204.61606648 210.03020977 -204.62768555 212.97045898 C-204.62004181 213.84485123 -204.61239807 214.71924347 -204.60452271 215.62013245 C-204.65656966 221.56050934 -204.65656966 221.56050934 -206.34429646 223.72030735 C-208.9016443 225.69688054 -211.18768563 225.43726158 -214.37890625 225.51953125 C-215.67989258 225.56867676 -216.98087891 225.61782227 -218.32128906 225.66845703 C-219.01258911 225.69087463 -219.70388916 225.71329224 -220.4161377 225.73638916 C-262.46154448 227.22733559 -298.88104642 242.87946478 -329 272 C-329.66515625 272.61359375 -330.3303125 273.2271875 -331.015625 273.859375 C-351.39862103 293.09939929 -364.74347006 321.52773026 -370.8125 348.5625 C-371.01963623 349.47136963 -371.22677246 350.38023926 -371.44018555 351.31665039 C-374.63724031 366.49087196 -374.18639332 382.09481882 -374.18530273 397.52441406 C-374.18749555 400.99296231 -374.20573222 404.46119492 -374.22460938 407.9296875 C-374.25416312 419.46706635 -374.06195644 430.61755078 -372 442 C-371.86456787 442.8254834 -371.72913574 443.6509668 -371.58959961 444.50146484 C-366.05810039 476.60627206 -348.66985733 505.12835688 -326 528 C-325.15308594 528.85980469 -324.30617188 529.71960938 -323.43359375 530.60546875 C-311.19273083 542.36043482 -296.3857034 551.0337955 -281 558 C-279.87207031 558.53109375 -278.74414062 559.0621875 -277.58203125 559.609375 C-269.59484898 563.11110011 -261.46944674 565.30023408 -253 567.3125 C-251.94441895 567.56725098 -250.88883789 567.82200195 -249.80126953 568.08447266 C-233.8699173 571.6772926 -217.55795923 571.14940093 -201.3203125 571.14526367 C-198.95823107 571.14826104 -196.59615013 571.15166489 -194.23406982 571.15544128 C-187.85811858 571.16422394 -181.48218077 571.16661689 -175.10622406 571.16725707 C-171.11510614 571.16797052 -167.12399047 571.17004729 -163.13287354 571.17275429 C-149.90579713 571.18154132 -136.67872878 571.18617637 -123.45164943 571.18542381 C-122.7412184 571.18538386 -122.03078737 571.1853439 -121.29882812 571.18530273 C-120.58751653 571.18526185 -119.87620493 571.18522097 -119.14333844 571.18517885 C-107.6116618 571.18477225 -96.08001778 571.19435044 -84.54835057 571.2084411 C-72.66798058 571.22284186 -60.78762647 571.22970935 -48.90724754 571.22884732 C-42.25311507 571.22851678 -35.59901209 571.23139949 -28.94488525 571.24202538 C-22.68702161 571.25174739 -16.4292301 571.2517575 -10.17136383 571.24450874 C-7.88459416 571.24346819 -5.59781989 571.24579407 -3.31105804 571.2518692 C8.64015701 571.28154582 20.20501837 571.05266071 32 569 C33.2964595 568.7851157 33.2964595 568.7851157 34.61911011 568.56589031 C72.47164388 562.10667802 108.60421389 538.53633541 131.05371094 507.59448242 C150.45857393 479.97644611 161.1987343 449.00465328 161.1328125 415.17578125 C161.13376923 414.07131149 161.13472595 412.96684174 161.13571167 411.8289032 C161.13638855 409.50352928 161.1345688 407.17815343 161.13037109 404.8527832 C161.12504166 401.33996204 161.13031973 397.82727023 161.13671875 394.31445312 C161.14777041 370.64012568 161.14777041 370.64012568 157.4375 347.3125 C157.17428955 346.19891113 156.9110791 345.08532227 156.63989258 343.93798828 C149.70753493 315.89135164 135.30238378 291.41364765 115 271 C114.52336914 270.51934082 114.04673828 270.03868164 113.55566406 269.54345703 C85.62675496 241.77748254 46.12168054 225.80125408 6.87890625 225.91210938 C5.72261719 225.92048828 4.56632812 225.92886719 3.375 225.9375 C2.18003906 225.94201172 0.98507812 225.94652344 -0.24609375 225.95117188 C-3.16411647 225.96284397 -6.08203037 225.97921674 -9 226 C-6.50217427 228.35648224 -4.00133185 230.70974016 -1.5 233.0625 C-0.80390625 233.71927734 -0.1078125 234.37605469 0.609375 235.05273438 C4.70937841 238.90597833 8.87154503 242.66571494 13.12011719 246.35424805 C15.92219492 248.80733973 18.64957185 251.33744407 21.375 253.875 C26.03833223 258.1986416 30.73696176 262.47818453 35.47265625 266.72265625 C38.84150437 269.75826437 42.18095764 272.82554443 45.51733398 275.89672852 C49.6454218 279.69157144 53.83005807 283.41998639 58.0390625 287.125 C60.73764868 289.70532145 61.90951075 291.48722761 62.5625 295.1875 C61.74346208 300.73875699 58.84660084 303.08786933 55 307 C53.67391369 308.44279801 52.34815877 309.88591383 51.02783203 311.33398438 C45.03225541 317.89495525 38.91751273 324.34590377 32.81420898 330.80639648 C28.07165151 335.83478158 23.41137097 340.92686386 18.8203125 346.09375 C16.32787727 348.70385385 15.33622379 348.96193693 11.6875 349.375 C6.9810503 348.896378 6.1544284 347.41330247 3 344 C1.39719206 342.37365981 -0.20698661 340.74866944 -1.8125 339.125 C-2.60269531 338.32320313 -3.39289063 337.52140625 -4.20703125 336.6953125 C-6.36898659 334.60895 -8.55074923 332.63821511 -10.82421875 330.6796875 C-15.80756305 326.35770393 -20.38375541 321.66734312 -25 316.9609375 C-28.22974198 313.69334698 -31.48511625 310.52847667 -34.96875 307.53125 C-40.14314977 303.07439395 -44.86250569 298.1855361 -49.64453125 293.31640625 C-53.63538702 289.2817751 -57.71652009 285.46028262 -62.01757812 281.75976562 C-66.21240607 278.03608091 -70.07416927 273.96344461 -74 269.9609375 C-77.22974198 266.69334698 -80.48511625 263.52847667 -83.96875 260.53125 C-89.14314977 256.07439395 -93.86250569 251.1855361 -98.64453125 246.31640625 C-101.97251206 242.95192108 -105.31273005 239.6749408 -108.90625 236.59375 C-114.7913538 231.53036177 -120.13378361 225.90964391 -125.578125 220.3828125 C-130.01466458 215.90544587 -134.50387634 211.59124208 -139.2890625 207.48828125 C-141.46796514 205.59293443 -143.48969115 203.57216451 -145.5 201.5 C-148.26883316 198.69317256 -151.07198284 196.00665271 -154.0625 193.4375 C-166.73149117 182.54929072 -166.73149117 182.54929072 -167.33984375 176.7734375 C-166.93660832 172.29613374 -165.35757165 169.95309717 -162.5625 166.625 C-162.11092529 166.06337158 -161.65935059 165.50174316 -161.1940918 164.9230957 C-157.73720717 160.69667219 -153.99828406 156.8117163 -150.06640625 153.0234375 C-148.1894422 151.18550295 -146.46035251 149.30440931 -144.75 147.3125 C-141.38318518 143.3924527 -137.89053824 139.59872879 -134.375 135.8125 C-133.82424805 135.21800049 -133.27349609 134.62350098 -132.70605469 134.01098633 C-129.53598707 130.60349804 -126.29122718 127.29122718 -123 124 C-120.79450392 121.6833715 -118.61533786 119.34261446 -116.4375 117 C-115.82471191 116.34209473 -115.21192383 115.68418945 -114.58056641 115.00634766 C-109.19270828 109.21742901 -103.82598006 103.40912999 -98.46777344 97.59277344 C-95.47923539 94.3497225 -92.48678446 91.11028115 -89.49511719 87.87011719 C-87.01893837 85.18799238 -84.54361351 82.50509149 -82.0703125 79.8203125 C-76.71287587 74.00699959 -71.33648126 68.21226679 -65.9375 62.4375 C-60.8263798 56.96985479 -55.75034808 51.47227841 -50.69921875 45.94921875 C-42.85862869 37.38243801 -34.95878437 28.87193779 -27.01831055 20.39770508 C-23.62480561 16.7682703 -20.29104787 13.09747936 -17 9.375 C-7.70655784 -0.91294335 -7.70655784 -0.91294335 0 0 Z " fill="#FEFEFE" transform="translate(630,158)"/>
</svg>
