<?xml version="1.0" encoding="UTF-8"?>
<svg version="1.1" xmlns="http://www.w3.org/2000/svg" width="1040" height="1040">
<path d="M0 0 C1.11234673 -0.00327219 2.22469345 -0.00654439 3.37074766 -0.00991574 C5.19197686 -0.0076903 5.19197686 -0.0076903 7.04999858 -0.00541991 C8.35127705 -0.00777214 9.65255552 -0.01012437 10.99326667 -0.01254788 C14.61497364 -0.01894311 18.23665842 -0.01910988 21.85836996 -0.01827047 C25.79507093 -0.01844007 29.73176396 -0.0243473 33.66846097 -0.02951133 C41.48102329 -0.03883766 49.29357994 -0.04275944 57.10614713 -0.0450303 C66.46259972 -0.04799233 75.81904478 -0.05668983 85.17549342 -0.06544458 C107.79302073 -0.0862912 130.41054935 -0.09675958 153.02808403 -0.10557419 C163.7291549 -0.10978086 174.4302252 -0.11500286 185.13129559 -0.12025872 C221.76565109 -0.13815014 258.40000674 -0.15314545 295.03436595 -0.16057891 C297.33443692 -0.16105366 299.63450789 -0.16152955 301.93457885 -0.16200657 C303.64551693 -0.16236113 303.64551693 -0.16236113 305.39101941 -0.16272286 C311.16995858 -0.16392405 316.94889774 -0.1651395 322.72783691 -0.16636485 C323.87468404 -0.166605 325.02153117 -0.16684515 326.20313125 -0.16709258 C363.37663569 -0.17498339 400.55010821 -0.19841012 437.72359871 -0.23092079 C477.02919173 -0.26523332 516.33476606 -0.28493142 555.6403743 -0.28822315 C559.95699202 -0.28864068 564.27360972 -0.28912024 568.59022743 -0.28964633 C570.18452617 -0.28983111 570.18452617 -0.28983111 571.81103297 -0.29001964 C588.90287957 -0.29235002 605.99468903 -0.30800109 623.08652241 -0.32848817 C640.27459366 -0.34876335 657.46262042 -0.35421548 674.65070143 -0.34471754 C684.85589554 -0.339509 695.06094129 -0.34534947 705.26611399 -0.36725221 C712.09264405 -0.38079335 718.91907237 -0.37965411 725.74560353 -0.36685025 C729.62900062 -0.35997558 733.51211477 -0.35920785 737.3954862 -0.37641034 C775.7647231 -0.5357116 809.03558861 8.59931192 837.24175292 35.93739492 C856.91946142 55.76236409 872.4462436 85.38178819 872.46821034 113.78939199 C872.47148253 114.90173872 872.47475473 116.01408545 872.47812608 117.16013965 C872.47664246 118.37429246 872.47515883 119.58844526 872.47363025 120.83939058 C872.47598248 122.14066905 872.47833471 123.44194752 872.48075822 124.78265867 C872.48715345 128.40436564 872.48732022 132.02605041 872.48648081 135.64776195 C872.48665041 139.58446292 872.49255764 143.52115596 872.49772167 147.45785296 C872.507048 155.27041528 872.51096978 163.08297193 872.51324064 170.89553913 C872.51620267 180.25199171 872.52490017 189.60843678 872.53365492 198.96488542 C872.55450154 221.58241273 872.56496992 244.19994135 872.57378453 266.81747603 C872.5779912 277.51854689 872.5832132 288.21961719 872.58846906 298.92068759 C872.60636048 335.55504308 872.62135579 372.18939874 872.62878925 408.82375795 C872.629264 411.12382891 872.62973989 413.42389988 872.63021691 415.72397085 C872.63057147 417.43490893 872.63057147 417.43490893 872.6309332 419.18041141 C872.63213439 424.95935057 872.63334984 430.73828974 872.63457519 436.5172289 C872.63481534 437.66407604 872.63505549 438.81092317 872.63530292 439.99252325 C872.64319373 477.16602769 872.66662046 514.3395002 872.69913113 551.5129907 C872.73344366 590.81858372 872.75314176 630.12415806 872.75643349 669.4297663 C872.75685102 673.74638401 872.75733058 678.06300172 872.75785667 682.37961942 C872.75797986 683.44248525 872.75810305 684.50535108 872.75822998 685.60042497 C872.76056036 702.69227156 872.77621143 719.78408103 872.79669851 736.8759144 C872.81697369 754.06398566 872.82242582 771.25201242 872.81292788 788.44009342 C872.80771934 798.64528753 872.8135598 808.85033328 872.83546255 819.05550599 C872.84900369 825.88203605 872.84786445 832.70846437 872.83506059 839.53499552 C872.82818592 843.41839261 872.82741819 847.30150676 872.84462068 851.18487819 C873.00392194 889.55411509 863.86889842 922.82498061 836.53081542 951.03114492 C816.70584624 970.70885341 787.08642215 986.23563559 758.67881835 986.25760233 C757.56647162 986.26087453 756.45412489 986.26414672 755.30807069 986.26751807 C753.48684148 986.26529264 753.48684148 986.26529264 751.62881976 986.26302224 C750.32754129 986.26537447 749.02626282 986.2677267 747.68555167 986.27015021 C744.0638447 986.27654545 740.44215993 986.27671222 736.82044838 986.27587281 C732.88374742 986.2760424 728.94705438 986.28194963 725.01035738 986.28711367 C717.19779506 986.29643999 709.38523841 986.30036177 701.57267121 986.30263263 C692.21621863 986.30559467 682.85977356 986.31429216 673.50332492 986.32304691 C650.88579761 986.34389353 628.26826899 986.35436191 605.65073431 986.36317652 C594.94966345 986.36738319 584.24859315 986.37260519 573.54752275 986.37786105 C536.91316726 986.39575247 500.2788116 986.41074779 463.64445239 986.41818124 C461.34438143 986.418656 459.04431046 986.41913189 456.74423949 986.4196089 C455.03330141 986.41996347 455.03330141 986.41996347 453.28779893 986.42032519 C447.50885976 986.42152639 441.7299206 986.42274184 435.95098144 986.42396718 C434.8041343 986.42420733 433.65728717 986.42444748 432.47568709 986.42469491 C395.30218265 986.43258573 358.12871014 986.45601246 320.95521963 986.48852313 C281.64962662 986.52283565 242.34405228 986.54253376 203.03844404 986.54582548 C198.72182633 986.54624302 194.40520862 986.54672258 190.08859092 986.54724866 C188.49429217 986.54743345 188.49429217 986.54743345 186.86778537 986.54762197 C169.77593878 986.54995235 152.68412931 986.56560342 135.59229594 986.58609051 C118.40422468 986.60636569 101.21619792 986.61181782 84.02811692 986.60231987 C73.82292281 986.59711133 63.61787706 986.6029518 53.41270435 986.62485455 C46.58617429 986.63839569 39.75974597 986.63725645 32.93321482 986.62445259 C29.04981773 986.61757791 25.16670358 986.61681018 21.28333215 986.63401268 C-17.08590476 986.79331393 -50.35677027 977.65829042 -78.56293458 950.32020742 C-98.24064307 930.49523824 -113.76742525 900.87581415 -113.78939199 872.46821034 C-113.79266419 871.35586361 -113.79593638 870.24351689 -113.79930773 869.09746268 C-113.79782411 867.88330988 -113.79634049 866.66915707 -113.7948119 865.41821176 C-113.79716413 864.11693329 -113.79951636 862.81565482 -113.80193987 861.47494367 C-113.80833511 857.85323669 -113.80850188 854.23155192 -113.80766247 850.60984038 C-113.80783206 846.67313941 -113.81373929 842.73644638 -113.81890333 838.79974937 C-113.82822965 830.98718705 -113.83215143 823.1746304 -113.83442229 815.36206321 C-113.83738433 806.00561062 -113.84608182 796.64916556 -113.85483657 787.29271692 C-113.87568319 764.67518961 -113.88615157 742.05766099 -113.89496618 719.44012631 C-113.89917285 708.73905544 -113.90439485 698.03798514 -113.90965071 687.33691475 C-113.92754213 650.70255925 -113.94253745 614.0682036 -113.9499709 577.43384439 C-113.95044566 575.13377342 -113.95092155 572.83370245 -113.95139856 570.53363148 C-113.95163494 569.3930061 -113.95187132 568.25238072 -113.95211485 567.07719093 C-113.95331605 561.29825176 -113.9545315 555.51931259 -113.95575684 549.74037343 C-113.95599699 548.5935263 -113.95623714 547.44667916 -113.95648457 546.26507909 C-113.96437539 509.09157465 -113.98780212 471.91810213 -114.02031279 434.74461163 C-114.05462532 395.43901861 -114.07432342 356.13344428 -114.07761514 316.82783604 C-114.07803268 312.51121832 -114.07851224 308.19460062 -114.07903832 303.87798291 C-114.07916151 302.81511708 -114.07928471 301.75225125 -114.07941163 300.65717737 C-114.08174201 283.56533077 -114.09739308 266.4735213 -114.11788017 249.38168793 C-114.13815535 232.19361667 -114.14360748 215.00558992 -114.13410953 197.81750891 C-114.12890099 187.6123148 -114.13474146 177.40726905 -114.15664421 167.20209635 C-114.17018535 160.37556629 -114.16904611 153.54913797 -114.15624225 146.72260681 C-114.14936757 142.83920972 -114.14859984 138.95609557 -114.16580234 135.07272414 C-114.32510359 96.70348724 -105.19008008 63.43262173 -77.85199708 35.22645742 C-58.0270279 15.54874892 -28.40760381 0.02196674 0 0 Z " fill="#E22020" transform="translate(140.66059082746506,26.87119883298874)"/>
<path d="M0 0 C1.11234673 -0.00327219 2.22469345 -0.00654439 3.37074766 -0.00991574 C5.19197686 -0.0076903 5.19197686 -0.0076903 7.04999858 -0.00541991 C8.35127705 -0.00777214 9.65255552 -0.01012437 10.99326667 -0.01254788 C14.61497364 -0.01894311 18.23665842 -0.01910988 21.85836996 -0.01827047 C25.79507093 -0.01844007 29.73176396 -0.0243473 33.66846097 -0.02951133 C41.48102329 -0.03883766 49.29357994 -0.04275944 57.10614713 -0.0450303 C66.46259972 -0.04799233 75.81904478 -0.05668983 85.17549342 -0.06544458 C107.79302073 -0.0862912 130.41054935 -0.09675958 153.02808403 -0.10557419 C163.7291549 -0.10978086 174.4302252 -0.11500286 185.13129559 -0.12025872 C221.76565109 -0.13815014 258.40000674 -0.15314545 295.03436595 -0.16057891 C297.33443692 -0.16105366 299.63450789 -0.16152955 301.93457885 -0.16200657 C303.64551693 -0.16236113 303.64551693 -0.16236113 305.39101941 -0.16272286 C311.16995858 -0.16392405 316.94889774 -0.1651395 322.72783691 -0.16636485 C323.87468404 -0.166605 325.02153117 -0.16684515 326.20313125 -0.16709258 C363.37663569 -0.17498339 400.55010821 -0.19841012 437.72359871 -0.23092079 C477.02919173 -0.26523332 516.33476606 -0.28493142 555.6403743 -0.28822315 C559.95699202 -0.28864068 564.27360972 -0.28912024 568.59022743 -0.28964633 C570.18452617 -0.28983111 570.18452617 -0.28983111 571.81103297 -0.29001964 C588.90287957 -0.29235002 605.99468903 -0.30800109 623.08652241 -0.32848817 C640.27459366 -0.34876335 657.46262042 -0.35421548 674.65070143 -0.34471754 C684.85589554 -0.339509 695.06094129 -0.34534947 705.26611399 -0.36725221 C712.09264405 -0.38079335 718.91907237 -0.37965411 725.74560353 -0.36685025 C729.62900062 -0.35997558 733.51211477 -0.35920785 737.3954862 -0.37641034 C775.7647231 -0.5357116 809.03558861 8.59931192 837.24175292 35.93739492 C856.91946142 55.76236409 872.4462436 85.38178819 872.46821034 113.78939199 C872.47148253 114.90173872 872.47475473 116.01408545 872.47812608 117.16013965 C872.47664246 118.37429246 872.47515883 119.58844526 872.47363025 120.83939058 C872.47598248 122.14066905 872.47833471 123.44194752 872.48075822 124.78265867 C872.48715345 128.40436564 872.48732022 132.02605041 872.48648081 135.64776195 C872.48665041 139.58446292 872.49255764 143.52115596 872.49772167 147.45785296 C872.507048 155.27041528 872.51096978 163.08297193 872.51324064 170.89553913 C872.51620267 180.25199171 872.52490017 189.60843678 872.53365492 198.96488542 C872.55450154 221.58241273 872.56496992 244.19994135 872.57378453 266.81747603 C872.5779912 277.51854689 872.5832132 288.21961719 872.58846906 298.92068759 C872.60636048 335.55504308 872.62135579 372.18939874 872.62878925 408.82375795 C872.629264 411.12382891 872.62973989 413.42389988 872.63021691 415.72397085 C872.63057147 417.43490893 872.63057147 417.43490893 872.6309332 419.18041141 C872.63213439 424.95935057 872.63334984 430.73828974 872.63457519 436.5172289 C872.63481534 437.66407604 872.63505549 438.81092317 872.63530292 439.99252325 C872.64319373 477.16602769 872.66662046 514.3395002 872.69913113 551.5129907 C872.73344366 590.81858372 872.75314176 630.12415806 872.75643349 669.4297663 C872.75685102 673.74638401 872.75733058 678.06300172 872.75785667 682.37961942 C872.75797986 683.44248525 872.75810305 684.50535108 872.75822998 685.60042497 C872.76056036 702.69227156 872.77621143 719.78408103 872.79669851 736.8759144 C872.81697369 754.06398566 872.82242582 771.25201242 872.81292788 788.44009342 C872.80771934 798.64528753 872.8135598 808.85033328 872.83546255 819.05550599 C872.84900369 825.88203605 872.84786445 832.70846437 872.83506059 839.53499552 C872.82818592 843.41839261 872.82741819 847.30150676 872.84462068 851.18487819 C873.00392194 889.55411509 863.86889842 922.82498061 836.53081542 951.03114492 C816.70584624 970.70885341 787.08642215 986.23563559 758.67881835 986.25760233 C757.56647162 986.26087453 756.45412489 986.26414672 755.30807069 986.26751807 C753.48684148 986.26529264 753.48684148 986.26529264 751.62881976 986.26302224 C750.32754129 986.26537447 749.02626282 986.2677267 747.68555167 986.27015021 C744.0638447 986.27654545 740.44215993 986.27671222 736.82044838 986.27587281 C732.88374742 986.2760424 728.94705438 986.28194963 725.01035738 986.28711367 C717.19779506 986.29643999 709.38523841 986.30036177 701.57267121 986.30263263 C692.21621863 986.30559467 682.85977356 986.31429216 673.50332492 986.32304691 C650.88579761 986.34389353 628.26826899 986.35436191 605.65073431 986.36317652 C594.94966345 986.36738319 584.24859315 986.37260519 573.54752275 986.37786105 C536.91316726 986.39575247 500.2788116 986.41074779 463.64445239 986.41818124 C461.34438143 986.418656 459.04431046 986.41913189 456.74423949 986.4196089 C455.03330141 986.41996347 455.03330141 986.41996347 453.28779893 986.42032519 C447.50885976 986.42152639 441.7299206 986.42274184 435.95098144 986.42396718 C434.8041343 986.42420733 433.65728717 986.42444748 432.47568709 986.42469491 C395.30218265 986.43258573 358.12871014 986.45601246 320.95521963 986.48852313 C281.64962662 986.52283565 242.34405228 986.54253376 203.03844404 986.54582548 C198.72182633 986.54624302 194.40520862 986.54672258 190.08859092 986.54724866 C188.49429217 986.54743345 188.49429217 986.54743345 186.86778537 986.54762197 C169.77593878 986.54995235 152.68412931 986.56560342 135.59229594 986.58609051 C118.40422468 986.60636569 101.21619792 986.61181782 84.02811692 986.60231987 C73.82292281 986.59711133 63.61787706 986.6029518 53.41270435 986.62485455 C46.58617429 986.63839569 39.75974597 986.63725645 32.93321482 986.62445259 C29.04981773 986.61757791 25.16670358 986.61681018 21.28333215 986.63401268 C-17.08590476 986.79331393 -50.35677027 977.65829042 -78.56293458 950.32020742 C-98.24064307 930.49523824 -113.76742525 900.87581415 -113.78939199 872.46821034 C-113.79266419 871.35586361 -113.79593638 870.24351689 -113.79930773 869.09746268 C-113.79782411 867.88330988 -113.79634049 866.66915707 -113.7948119 865.41821176 C-113.79716413 864.11693329 -113.79951636 862.81565482 -113.80193987 861.47494367 C-113.80833511 857.85323669 -113.80850188 854.23155192 -113.80766247 850.60984038 C-113.80783206 846.67313941 -113.81373929 842.73644638 -113.81890333 838.79974937 C-113.82822965 830.98718705 -113.83215143 823.1746304 -113.83442229 815.36206321 C-113.83738433 806.00561062 -113.84608182 796.64916556 -113.85483657 787.29271692 C-113.87568319 764.67518961 -113.88615157 742.05766099 -113.89496618 719.44012631 C-113.89917285 708.73905544 -113.90439485 698.03798514 -113.90965071 687.33691475 C-113.92754213 650.70255925 -113.94253745 614.0682036 -113.9499709 577.43384439 C-113.95044566 575.13377342 -113.95092155 572.83370245 -113.95139856 570.53363148 C-113.95163494 569.3930061 -113.95187132 568.25238072 -113.95211485 567.07719093 C-113.95331605 561.29825176 -113.9545315 555.51931259 -113.95575684 549.74037343 C-113.95599699 548.5935263 -113.95623714 547.44667916 -113.95648457 546.26507909 C-113.96437539 509.09157465 -113.98780212 471.91810213 -114.02031279 434.74461163 C-114.05462532 395.43901861 -114.07432342 356.13344428 -114.07761514 316.82783604 C-114.07803268 312.51121832 -114.07851224 308.19460062 -114.07903832 303.87798291 C-114.07916151 302.81511708 -114.07928471 301.75225125 -114.07941163 300.65717737 C-114.08174201 283.56533077 -114.09739308 266.4735213 -114.11788017 249.38168793 C-114.13815535 232.19361667 -114.14360748 215.00558992 -114.13410953 197.81750891 C-114.12890099 187.6123148 -114.13474146 177.40726905 -114.15664421 167.20209635 C-114.17018535 160.37556629 -114.16904611 153.54913797 -114.15624225 146.72260681 C-114.14936757 142.83920972 -114.14859984 138.95609557 -114.16580234 135.07272414 C-114.32510359 96.70348724 -105.19008008 63.43262173 -77.85199708 35.22645742 C-58.0270279 15.54874892 -28.40760381 0.02196674 0 0 Z M-11.49655932 112.26516277 C-11.88068972 112.88016344 -12.26482012 113.49516411 -12.66059083 114.12880117 C-13.0240144 114.69318222 -13.38743797 115.25756327 -13.76187438 115.83904678 C-17.917175 123.63807437 -17.21626455 132.1449765 -17.1685254 140.7248705 C-17.17313738 142.5271899 -17.1794923 144.32950554 -17.18743438 146.13181335 C-17.20411118 151.07265091 -17.19588862 156.01317888 -17.1834895 160.95401746 C-17.1744341 166.28758878 -17.18841154 171.6211071 -17.19940919 176.95466787 C-17.21719663 187.40071557 -17.21335253 197.84664832 -17.20175862 208.29270053 C-17.19272162 216.78729677 -17.19150148 225.2818608 -17.19585389 233.77646047 C-17.19646682 234.98594099 -17.19707975 236.19542152 -17.19771126 237.44155297 C-17.19899019 239.89876774 -17.20028704 242.3559825 -17.20160162 244.81319726 C-17.21300909 267.85820056 -17.1998931 290.90314024 -17.17840016 313.94813311 C-17.16054717 333.70109607 -17.16361815 353.45396493 -17.1820752 373.20692617 C-17.20351022 396.15759833 -17.21189137 419.10821463 -17.19962615 442.05889541 C-17.198352 444.50946884 -17.19709452 446.96004229 -17.19585389 449.41061574 C-17.19523679 450.61624904 -17.19461968 451.82188235 -17.19398388 453.06404999 C-17.19053752 461.53960147 -17.1963443 470.01511738 -17.2057721 478.49066335 C-17.2170235 488.83290897 -17.21388692 499.17503325 -17.19264913 509.51726508 C-17.18217814 514.78924523 -17.17794888 520.06102352 -17.19124573 525.33300191 C-17.20325888 530.16944478 -17.19646154 535.00550075 -17.17533553 539.84190905 C-17.17090673 541.58149645 -17.17305069 543.32111727 -17.18283868 545.06068277 C-17.23576127 555.25726463 -16.29017704 564.42587105 -13.61539 574.28312713 C-12.62682799 578.26478879 -12.09351069 582.05555892 -11.66059083 586.12880117 C-11.00059083 586.12880117 -10.34059083 586.12880117 -9.66059083 586.12880117 C-9.53941895 586.83005117 -9.41824708 587.53130117 -9.29340333 588.25380117 C-9.1258252 589.20255117 -8.95824708 590.15130117 -8.78559083 591.12880117 C-8.62316895 592.05692617 -8.46074708 592.98505117 -8.29340333 593.94130117 C-4.78729309 611.60170828 2.53220231 627.53249007 11.33940917 643.12880117 C11.71855468 643.8095873 12.09770019 644.49037343 12.48833495 645.19178945 C17.59825766 654.31197407 23.46507327 662.51729132 30.08745605 670.59755117 C31.80037691 672.6926057 33.47367823 674.81841074 35.15190917 676.94130117 C38.86904519 681.57236113 42.63289721 686.16494371 46.40190917 690.75380117 C46.979812 691.45867666 47.55771484 692.16355214 48.15312988 692.8897875 C55.54542405 701.89880237 55.54542405 701.89880237 63.58940917 710.31630117 C66.33940917 713.12880117 66.33940917 713.12880117 67.58159667 715.39833242 C69.95655869 719.08744008 72.97073776 721.7034805 76.21440917 724.62880117 C87.11523435 734.64177055 97.49045094 745.17990176 107.89580566 755.70277578 C116.88030293 764.75669161 126.73372183 772.72623718 136.96440917 780.31630117 C141.77246217 783.89010301 146.40821434 787.62715318 151.02690917 791.44130117 C157.2155831 796.53566816 163.59323845 801.24424636 170.18047363 805.80848867 C174.6303193 808.89724736 178.95573571 812.09456019 183.21440917 815.44130117 C187.86361464 819.06825897 192.61518501 822.27929814 197.62847167 825.37489492 C200.46198149 827.20810228 203.10545534 829.19221704 205.77690917 831.25380117 C216.27588314 839.25106649 227.53505983 846.2691053 238.83940917 853.06630117 C247.12811019 858.10974697 254.97306575 863.80664801 262.89409667 869.40223867 C274.83431405 877.83287139 286.89094989 885.7667723 299.60894042 892.98426992 C302.55861565 894.66411139 305.47060559 896.4010541 308.37847167 898.15223867 C318.16706019 904.03690982 327.78605643 909.7184448 338.33940917 914.12880117 C339.36163574 914.58770742 340.3838623 915.04661367 341.43706542 915.51942617 C352.67978826 920.46565568 362.90377925 921.43604792 375.07085449 921.33461171 C377.33496692 921.31633702 379.59866799 921.31410289 381.86284667 921.31434804 C393.97645816 921.2894968 403.98209439 920.80440194 415.21440917 915.94130117 C416.18402587 915.53129873 417.15364257 915.12129628 418.15264159 914.69886953 C434.68424555 907.64203733 449.88248587 898.58194615 465.11675292 889.10536367 C467.34718641 887.73736446 469.57960871 886.39942366 471.84331542 885.08973867 C479.77547803 880.47910278 487.23270897 875.4364685 494.63140136 870.01039296 C505.81138634 861.81741771 517.45676573 854.368947 529.17290527 846.97108632 C538.31646076 841.18263483 547.2128322 835.15146817 555.94780761 828.76185781 C560.12120558 825.71294354 564.32366476 822.76605015 568.65190917 819.94130117 C573.39325191 816.83040641 577.8886631 813.46499805 582.35112792 809.97303945 C586.20613362 806.96645473 590.14686364 804.11881538 594.15190917 801.31630117 C600.15813324 797.094596 605.84645347 792.54617477 611.51177245 787.88002187 C615.44651262 784.64501396 619.42532316 781.52460035 623.52690917 778.50380117 C629.03405917 774.4336261 634.23890363 770.06989345 639.42925292 765.60926992 C641.22617155 764.07766813 643.04758404 762.57368693 644.90581542 761.11708242 C647.56309548 758.94604623 649.92986569 756.56361416 652.33940917 754.12880117 C653.51132982 752.95567004 654.68390491 751.78319247 655.8569873 750.61122304 C656.501156 749.96705434 657.1453247 749.32288564 657.80901366 748.65919667 C665.81328613 740.65492421 673.81755859 732.65065175 681.82183105 724.64637929 C682.42503173 724.04060048 683.02823241 723.43482167 683.64971191 722.81068593 C684.71687162 721.74846035 685.793402 720.69549335 686.88262206 719.65590078 C689.17127176 717.45894443 690.31456495 716.20333384 691.33940917 713.12880117 C691.99940917 713.12880117 692.65940917 713.12880117 693.33940917 713.12880117 C694.87617434 711.64833325 694.87617434 711.64833325 696.46440917 709.69130117 C699.02790687 706.67136289 701.62083767 703.69276786 704.27690917 700.75380117 C708.48727451 696.02423857 712.41608327 691.09679964 716.33940917 686.12880117 C717.56833597 684.607774 718.7975076 683.08694462 720.02690917 681.56630117 C732.35533615 666.12537191 743.7350848 650.98991053 752.33940917 633.12880117 C753.33888364 631.2118604 754.33886645 629.29518458 755.33940917 627.37880117 C761.53034545 614.93053787 768.33940917 600.28002932 768.33940917 586.12880117 C768.99940917 586.12880117 769.65940917 586.12880117 770.33940917 586.12880117 C770.62944824 584.55292226 770.62944824 584.55292226 770.92534667 582.94520742 C771.18828414 581.52722321 771.45130974 580.10925533 771.71440917 578.69130117 C771.90390136 577.6597289 771.90390136 577.6597289 772.09722167 576.60731679 C772.22612792 575.9144457 772.35503417 575.2215746 772.48784667 574.50770742 C772.61505049 573.81761482 772.7422543 573.12752223 772.87331277 572.41651773 C773.28229303 570.40914133 773.81894688 568.42866244 774.37507659 566.45697671 C776.0367666 558.94231348 775.6290704 551.1551313 775.62029296 543.4990862 C775.62546532 541.69320589 775.63149305 539.88732786 775.63829976 538.08145297 C775.65438622 533.13105351 775.65801589 528.18071214 775.6594947 523.23028964 C775.66320504 517.88659438 775.67830408 512.54292893 775.69176513 507.199251 C775.71889209 495.52166884 775.73097427 483.84410046 775.73978645 472.16649204 C775.74531654 464.8731415 775.75379206 457.57979623 775.76279479 450.28644925 C775.78717215 430.08664929 775.80777417 409.88685355 775.81454498 389.6870392 C775.81498411 388.3950603 775.81542324 387.10308141 775.81587568 385.77195163 C775.81631223 384.47692283 775.81674879 383.18189402 775.81719857 381.84762192 C775.8180855 379.22349351 775.81897863 376.59936511 775.81987792 373.97523671 C775.82032078 372.67358468 775.82076364 371.37193265 775.82121992 370.03083662 C775.82911843 348.93270943 775.86403778 327.83472029 775.91059697 306.73664644 C775.9580307 285.06718027 775.98294888 263.39778338 775.98528081 241.72826445 C775.98711366 229.56486265 775.99860227 217.40164088 776.03492004 205.2382887 C776.06573073 194.88306973 776.07595774 184.52808646 776.05944383 174.17283037 C776.05163448 168.89123355 776.05347122 163.61011135 776.08155853 158.32857305 C776.107059 153.48917108 776.10462348 148.65059981 776.0803771 143.81119881 C776.0764669 142.06495913 776.08260312 140.31866038 776.10006583 138.57250365 C776.20480286 127.38719629 775.31728012 118.169856 767.71605951 109.21673346 C759.81011123 101.78452905 751.06170903 100.54130389 740.58370525 100.61984998 C738.67916581 100.61023055 738.67916581 100.61023055 736.73615083 100.60041678 C733.21692761 100.58321743 729.69813238 100.59081212 726.17890283 100.60252823 C722.34830246 100.61088109 718.51777933 100.59605804 714.6871978 100.58422321 C707.9751805 100.56670213 701.26328525 100.56407389 694.55125076 100.57122976 C684.57010764 100.58184282 674.5890827 100.5696542 664.60795243 100.55306389 C645.74469013 100.5225723 626.88148149 100.51917495 608.0181997 100.52410994 C593.45233824 100.52777438 578.88649439 100.52425906 564.32063514 100.51566106 C562.22842694 100.51445626 560.13621873 100.51325387 558.04401052 100.51205385 C554.89130083 100.51023936 551.73859114 100.50842203 548.58588146 100.50658915 C519.27082164 100.48972823 489.95576845 100.48105999 460.64070445 100.48940259 C459.53542174 100.48971534 458.43013903 100.4900281 457.29136291 100.49035033 C451.68927702 100.49196191 446.08719116 100.49365345 440.4851053 100.49537693 C439.37250185 100.49571911 438.25989841 100.49606128 437.11357971 100.49641383 C434.86362498 100.49710714 432.61367024 100.4978042 430.36371551 100.498505 C395.35256249 100.50921997 360.3415102 100.49335779 325.33037597 100.45643789 C285.99993371 100.41501182 246.66955386 100.39354979 207.33908856 100.40158886 C203.14593588 100.40237956 198.9527832 100.40310265 194.7596305 100.40378362 C193.21092703 100.40405581 193.21092703 100.40405581 191.63093662 100.40433351 C176.04047577 100.40666607 160.4500779 100.39336419 144.85963279 100.37215978 C127.1299773 100.34807053 109.40046062 100.34492075 91.67080309 100.36974011 C81.74844737 100.38300834 71.82642345 100.37971019 61.90409419 100.35256308 C55.275123 100.3360886 48.64640065 100.34144994 42.01744973 100.36451362 C38.24110725 100.37704154 34.46541271 100.38019163 30.68910738 100.35678695 C26.61643296 100.331778 22.54530462 100.35337973 18.47263652 100.37934095 C17.30668292 100.36472225 16.14072932 100.35010356 14.9394438 100.33504188 C4.81189509 100.46900382 -5.28702071 103.78791269 -11.49655932 112.26516277 Z " fill="#E22020" transform="translate(140.66059082746506,26.87119883298874)"/>
<path d="M0 0 C1.90453944 -0.00961943 1.90453944 -0.00961943 3.84755442 -0.0194332 C7.36677763 -0.03663255 10.88557286 -0.02903786 14.40480241 -0.01732175 C18.23540278 -0.00896889 22.06592592 -0.02379194 25.89650744 -0.03562677 C32.60852475 -0.05314785 39.32042 -0.05577609 46.03245449 -0.04862022 C56.01359761 -0.03800716 65.99462255 -0.05019578 75.97575281 -0.06678609 C94.83901512 -0.09727768 113.70222376 -0.10067503 132.56550554 -0.09574004 C147.131367 -0.0920756 161.69721085 -0.09559092 176.26307011 -0.10418892 C178.35527831 -0.10539372 180.44748652 -0.10659611 182.53969472 -0.10779613 C185.69240441 -0.10961062 188.8451141 -0.11142795 191.99782378 -0.11326083 C221.31288361 -0.13012175 250.6279368 -0.13878999 279.94300079 -0.13044739 C281.60092486 -0.12997826 281.60092486 -0.12997826 283.29234234 -0.12949965 C288.89442823 -0.12788807 294.49651409 -0.12619653 300.09859995 -0.12447305 C301.21120339 -0.12413087 302.32380684 -0.1237887 303.47012553 -0.12343615 C305.72008027 -0.12274284 307.970035 -0.12204578 310.21998974 -0.12134498 C345.23114276 -0.11063001 380.24219505 -0.12649219 415.25332928 -0.16341209 C454.58377153 -0.20483816 493.91415139 -0.22630019 533.24461669 -0.21826112 C537.43776936 -0.21747042 541.63092205 -0.21674733 545.82407475 -0.21606636 C546.85654373 -0.2158849 547.88901271 -0.21570343 548.95276862 -0.21551647 C564.54322948 -0.21318391 580.13362734 -0.22648579 595.72407246 -0.2476902 C613.45372795 -0.27177945 631.18324463 -0.27492923 648.91290215 -0.25010987 C658.83525788 -0.23684164 668.7572818 -0.24013979 678.67961106 -0.2672869 C685.30858225 -0.28376138 691.9373046 -0.27840004 698.56625552 -0.25533636 C702.342598 -0.24280844 706.11829254 -0.23965835 709.89459787 -0.26306303 C713.96727229 -0.28807198 718.03840063 -0.26647025 722.11106873 -0.24050903 C723.27702232 -0.25512773 724.44297592 -0.26974642 725.64426145 -0.2848081 C734.59253447 -0.166445 742.38478898 2.28990602 749.24816825 8.24872171 C750.82457324 9.90583854 752.03345419 11.57036841 753.24429607 13.50895119 C753.78943143 14.35552276 753.78943143 14.35552276 754.34557962 15.2191968 C758.50088024 23.01822439 757.7999698 31.52512652 757.75223064 40.10502052 C757.75684263 41.90733992 757.76319754 43.70965556 757.77113962 45.51196337 C757.78781642 50.45280093 757.77959387 55.3933289 757.76719475 60.33416748 C757.75813935 65.6677388 757.77211679 71.00125712 757.78311443 76.33481789 C757.80090188 86.78086559 757.79705778 97.22679834 757.78546387 107.67285055 C757.77642687 116.16744679 757.77520673 124.66201082 757.77955914 133.15661049 C757.78017207 134.36609101 757.780785 135.57557154 757.78141651 136.82170299 C757.78269544 139.27891776 757.78399229 141.73613252 757.78530687 144.19334728 C757.79671434 167.23835058 757.78359835 190.28329026 757.76210541 213.32828313 C757.74425241 233.08124609 757.74732339 252.83411495 757.76578045 272.58707619 C757.78721547 295.53774835 757.79559662 318.48836465 757.78333139 341.43904543 C757.78205725 343.88961886 757.78079976 346.34019231 757.77955914 348.79076576 C757.77894203 349.99639906 757.77832493 351.20203237 757.77768913 352.44420001 C757.77424277 360.91975149 757.78004955 369.3952674 757.78947735 377.87081337 C757.80072875 388.21305899 757.79759216 398.55518327 757.77635437 408.8974151 C757.76588338 414.16939525 757.76165412 419.44117354 757.77495098 424.71315193 C757.78696413 429.5495948 757.78016678 434.38565077 757.75904077 439.22205907 C757.75461198 440.96164647 757.75675593 442.70126729 757.76654392 444.44083279 C757.81946652 454.63741465 756.87388229 463.80602107 754.19909525 473.66327715 C753.21053324 477.64493881 752.67721593 481.43570894 752.24429607 485.50895119 C751.58429607 485.50895119 750.92429607 485.50895119 750.24429607 485.50895119 C750.1231242 486.21020119 750.00195232 486.91145119 749.87710857 487.63395119 C749.70953045 488.58270119 749.54195232 489.53145119 749.36929607 490.50895119 C749.2068742 491.43707619 749.04445232 492.36520119 748.87710857 493.32145119 C745.37099834 510.9818583 738.05150294 526.91264009 729.24429607 542.50895119 C728.86515057 543.18973732 728.48600506 543.87052345 728.09537029 544.57193947 C722.98544759 553.69212409 717.11863198 561.89744134 710.4962492 569.97770119 C708.78332834 572.07275572 707.11002702 574.19856076 705.43179607 576.32145119 C701.71466005 580.95251115 697.95080803 585.54509373 694.18179607 590.13395119 C693.60389324 590.83882668 693.02599041 591.54370216 692.43057537 592.26993752 C688.96117777 596.48330465 685.42413064 600.62484644 681.80630779 604.71158791 C680.30109446 606.44359487 678.86514044 608.21740127 677.43179607 610.00895119 C676.70992107 610.83395119 675.98804607 611.65895119 675.24429607 612.50895119 C674.58429607 612.50895119 673.92429607 612.50895119 673.24429607 612.50895119 C673.01742107 613.06582619 672.79054607 613.62270119 672.55679607 614.19645119 C670.89752404 617.11993049 668.62717923 619.18122559 666.24429607 621.50895119 C665.1010162 622.64952387 663.95918687 623.7915517 662.81851482 624.93473244 C637.67007732 650.08316994 637.67007732 650.08316994 635.88699627 651.86495399 C634.41510735 653.33800505 632.94757645 654.81540766 631.4806242 656.29337502 C628.67860625 659.06939171 625.74178817 661.6357437 622.74429607 664.19645119 C622.13263592 664.71973 621.52097576 665.2430088 620.89078045 665.78214455 C615.37178103 670.46633136 609.6690613 674.87409485 603.90054607 679.24381447 C600.99011257 681.46696695 598.11910778 683.74005218 595.24429607 686.00895119 C585.96821375 693.31317555 576.66198178 700.56245932 567.07925701 707.46305275 C564.42203978 709.38067937 561.775957 711.31273026 559.13101482 713.24723244 C553.37098827 717.43792784 547.5379406 721.51659222 541.68179607 725.57145119 C539.74289528 726.91636097 537.80409239 728.26141192 535.86538982 729.60660744 C534.92880535 730.25581154 533.99222088 730.90501564 533.02725506 731.57389259 C530.30158213 733.46911881 527.58484296 735.37659852 524.86929607 737.28629494 C521.56015031 739.60476498 518.23054905 741.86157332 514.80679607 744.00895119 C512.95262941 745.17561785 511.09846274 746.34228452 509.24429607 747.50895119 C508.44660809 748.0106382 507.6489201 748.51232521 506.82705975 749.02921486 C500.27534834 753.17114143 493.82836222 757.44428268 487.43179607 761.82145119 C486.46677166 762.4787925 485.50174725 763.1361338 484.50747967 763.81339455 C479.38916496 767.31118104 474.34943389 770.88064967 469.36929607 774.57145119 C460.34760571 781.0901394 450.5783089 786.41134047 440.93716717 791.94791603 C437.5851003 793.89108154 434.28546113 795.90187941 430.99429607 797.94645119 C413.96341367 808.50876471 413.96341367 808.50876471 406.13882732 811.40348244 C403.78678855 812.30176445 401.49730296 813.25895346 399.19351482 814.27066994 C398.46156902 814.58713478 397.72962322 814.90359962 396.97549725 815.22965431 C395.53242886 815.8549471 394.09343068 816.48975603 392.65957928 817.13590431 C382.82643232 821.33570685 372.19265946 820.72163832 361.67764568 820.74918556 C359.44622742 820.75888844 357.21573389 820.79000849 354.98453045 820.82145119 C343.08382815 820.91107459 332.273096 819.44887471 321.49429607 814.07145119 C320.32382732 813.49524025 319.15335857 812.91902931 317.94742107 812.32535744 C317.35429119 812.02911476 316.76116131 811.73287209 316.15005779 811.42765236 C314.06674909 810.42336199 311.95441868 809.5093474 309.83023357 808.59488869 C305.22651153 806.56559072 300.93357295 804.15132555 296.61929607 801.57145119 C295.55195232 800.94593361 295.55195232 800.94593361 294.46304607 800.30777931 C290.43499731 797.92119731 286.60873043 795.37470768 282.82583904 792.61857033 C280.68389883 791.11577344 278.44023125 789.90057273 276.11929607 788.69645119 C263.47470618 781.91029221 251.89506625 773.83866747 240.24429607 765.50895119 C233.1066954 760.40750638 225.87320061 755.6120002 218.36929607 751.07145119 C207.18819426 744.30586129 196.35265934 737.28572233 186.08682537 729.18839455 C182.27780011 726.21585197 178.33945993 723.56976882 174.24429607 721.00895119 C168.97396664 717.70963335 164.02884751 714.15531835 159.14322186 710.3119297 C155.21827874 707.23042675 151.20210674 704.31476192 147.11929607 701.44645119 C141.87430324 697.74892539 136.8851841 693.83690616 131.95523357 689.72379494 C129.10964401 687.39894006 126.1955931 685.19776659 123.24429607 683.00895119 C114.84189776 676.75575244 106.8382902 670.0500199 98.86929607 663.25895119 C98.28615643 662.76354836 97.70301678 662.26814552 97.10220623 661.75773048 C96.5432365 661.27860207 95.98426678 660.79947365 95.40835857 660.30582619 C94.91803143 659.88655861 94.42770428 659.46729103 93.92251873 659.03531837 C91.61577756 656.93730473 89.43895139 654.72395849 87.24429607 652.50895119 C86.21024164 651.46919486 85.1759687 650.42965581 84.14151287 649.39029884 C83.58711025 648.83266853 83.03270763 648.27503822 82.46150494 647.70051003 C79.94835391 645.17384615 77.43243183 642.64994868 74.91641521 640.12613869 C73.59780116 638.80249608 72.28008604 637.47795731 70.96329021 636.15250587 C61.61246355 626.6549186 61.61246355 626.6549186 51.66104412 617.80069923 C49.39037584 615.73037253 47.94374149 613.05811931 46.24429607 610.50895119 C44.74517849 608.98724803 43.22096568 607.4901301 41.68179607 606.00895119 C36.03799134 600.48964215 31.32623815 594.42372385 26.53189373 588.16813087 C24.69531004 585.80153573 22.7841803 583.49991339 20.86929607 581.19645119 C8.2579472 565.84547356 -3.11253068 550.45070418 -11.75570393 532.50895119 C-12.75517839 530.59201042 -13.75516121 528.6753346 -14.75570393 526.75895119 C-20.9466402 514.31068789 -27.75570393 499.66017934 -27.75570393 485.50895119 C-28.41570393 485.50895119 -29.07570393 485.50895119 -29.75570393 485.50895119 C-29.9490633 484.45836525 -30.14242268 483.40777931 -30.34164143 482.32535744 C-30.6045789 480.90737323 -30.86760449 479.48940535 -31.13070393 478.07145119 C-31.25703205 477.38373634 -31.38336018 476.6960215 -31.51351643 475.98746681 C-31.64242268 475.29459572 -31.77132893 474.60172462 -31.90414143 473.88785744 C-32.03134524 473.19776484 -32.15854905 472.50767225 -32.28960752 471.79666775 C-32.69858778 469.78929135 -33.23524164 467.80881246 -33.79137135 465.83712673 C-35.45306136 458.3224635 -35.04536515 450.53528132 -35.03658772 442.87923622 C-35.04176007 441.07335591 -35.0477878 439.26747788 -35.05459452 437.46160299 C-35.07068098 432.51120353 -35.07431065 427.56086216 -35.07578945 422.61043966 C-35.07949979 417.2667444 -35.09459883 411.92307895 -35.10805988 406.57940102 C-35.13518684 394.90181886 -35.14726902 383.22425048 -35.1560812 371.54664207 C-35.16161129 364.25329152 -35.17008682 356.95994625 -35.17908955 349.66659927 C-35.20346691 329.46679931 -35.22406893 309.26700357 -35.23083973 289.06718922 C-35.23127886 287.77521032 -35.23171799 286.48323143 -35.23217043 285.15210165 C-35.23260699 283.85707285 -35.23304354 282.56204404 -35.23349333 281.22777194 C-35.23438025 278.60364353 -35.23527338 275.97951513 -35.23617268 273.35538673 C-35.23661554 272.0537347 -35.2370584 270.75208267 -35.23751467 269.41098664 C-35.24541319 248.31285945 -35.28033253 227.21487031 -35.32689172 206.11679646 C-35.37432545 184.44733029 -35.39924364 162.7779334 -35.40157557 141.10841447 C-35.40340842 128.94501267 -35.41489703 116.7817909 -35.45121479 104.61843872 C-35.48202548 94.26321975 -35.4922525 83.90823648 -35.47573858 73.55298039 C-35.46792923 68.27138357 -35.46976597 62.99026137 -35.49785328 57.70872307 C-35.52335376 52.8693211 -35.52091823 48.03074983 -35.49667186 43.19134883 C-35.49276165 41.44510915 -35.49889788 39.6988104 -35.51636058 37.95265367 C-35.62109762 26.76734631 -34.73357487 17.55000602 -27.13235426 8.59688348 C-19.22640598 1.16467907 -10.47800379 -0.07854609 0 0 Z M53.24429607 81.50895119 C50.71190279 85.84739612 49.8689645 88.971996 49.86677265 93.97932148 C49.85894941 95.26985705 49.85112617 96.56039262 49.84306586 97.89003533 C49.84955153 99.31506646 49.85632148 100.74009632 49.86334515 102.16512489 C49.85988773 103.68451836 49.85512259 105.20390932 49.84916341 106.72329503 C49.83663459 110.89575122 49.84283241 115.06800166 49.85212207 119.24045861 C49.8589048 123.7416423 49.84843498 128.24279041 49.8401823 132.74396706 C49.82683288 141.56211086 49.82972857 150.38017812 49.83842023 159.19832494 C49.84519375 166.36724016 49.84611492 173.53613392 49.84284878 180.70505142 C49.84238908 181.72517083 49.84192938 182.74529023 49.84145575 183.79632235 C49.84049657 185.86870311 49.83952393 187.94108386 49.83853798 190.01346461 C49.82997998 209.45438419 49.83982351 228.89526136 49.85593908 248.33617399 C49.86933256 265.00910342 49.86702295 281.68197016 49.85318279 298.35489845 C49.83711685 317.71822257 49.8308146 337.08150945 49.84001958 356.4448393 C49.84097522 358.51115024 49.84191833 360.57746118 49.84284878 362.64377213 C49.8433116 363.66041105 49.84377443 364.67704998 49.84425128 365.72449615 C49.84683888 372.88034541 49.84247492 380.03617101 49.83541012 387.1920166 C49.82698322 395.91943051 49.82929985 404.6467635 49.84525235 413.37416818 C49.8531206 417.82512855 49.85625153 422.27595417 49.84630489 426.72691345 C49.83732683 430.80629263 49.84234182 434.88541291 49.85823755 438.9647688 C49.86157236 440.43583611 49.85992075 441.90692555 49.85261019 443.37797847 C49.81327647 451.95482228 50.56806806 459.35642509 53.24429607 467.50895119 C53.7527636 469.61108775 54.25478817 471.71481895 54.74429607 473.82145119 C55.79566709 478.09925179 57.02776075 481.70917634 59.24429607 485.50895119 C59.90429607 485.50895119 60.56429607 485.50895119 61.24429607 485.50895119 C61.35515545 486.19473244 61.46601482 486.88051369 61.58023357 487.58707619 C63.6013818 496.4801284 67.78766797 504.76411595 73.72867107 511.64176369 C75.24686197 513.51211227 76.25261767 515.32142529 77.24429607 517.50895119 C77.90429607 517.50895119 78.56429607 517.50895119 79.24429607 517.50895119 C79.50597576 518.08774025 79.76765545 518.66652931 80.03726482 519.26285744 C82.65689245 524.13756904 86.85501433 528.11966944 90.74429607 532.00895119 C92.73384856 533.99850367 94.54562042 535.99912708 96.36929607 538.13395119 C99.34749262 541.58033584 102.50327606 544.81190703 105.74429607 548.00895119 C108.9018489 551.12389196 111.98214922 554.2633751 114.86929607 557.63395119 C120.44519741 564.14138735 126.57900725 569.99485917 133.08023357 575.56363869 C136.23779636 578.40202545 139.19257413 581.43601637 142.17300701 584.45719337 C145.41711024 587.72831204 148.77722876 590.77906941 152.28335857 593.76285744 C154.54113206 595.7732653 156.63396316 597.90709951 158.74429607 600.07145119 C162.0251865 603.39720849 165.3664313 606.21021196 169.15835857 608.92301369 C171.59692642 610.77705591 173.80736785 612.80482668 176.05679607 614.88395119 C180.23399349 618.69929411 184.58678504 622.0132654 189.19742107 625.28238869 C192.78042516 627.90073782 196.23016264 630.65862697 199.68179607 633.44645119 C211.37417727 642.85163596 223.44955689 651.45557305 235.87710857 659.86051369 C240.29701462 662.85275805 244.67510874 665.90039736 249.04263592 668.96842384 C256.56796492 674.2339845 264.29393286 679.19977397 272.02798748 684.15079689 C277.81682208 687.86238632 283.53341648 691.67867039 289.24429607 695.50895119 C292.11807884 697.42615177 294.99316487 699.3413691 297.86929607 701.25504494 C300.37575624 702.9252616 302.87351944 704.60797263 305.36929607 706.29410744 C315.15625229 712.88842342 325.08535441 719.17754307 335.1915617 725.27018166 C338.23756961 727.10836483 341.27335479 728.96258659 344.30679607 730.82145119 C345.32902264 731.44535744 346.3512492 732.06926369 347.40445232 732.71207619 C350.79250548 734.85582371 354.0402355 737.16605408 357.24429607 739.57535744 C359.97355525 740.84936709 361.36489334 740.28538054 364.24429607 739.50895119 C366.44867665 738.42961687 366.44867665 738.42961687 368.58804607 737.02457619 C369.41183758 736.50790382 370.23562908 735.99123146 371.08438396 735.45890236 C371.96215496 734.89791847 372.83992596 734.33693459 373.74429607 733.75895119 C375.62822916 732.57246504 377.51234922 731.38627572 379.39663982 730.20035744 C380.3619865 729.58950294 381.32733318 728.97864845 382.32193279 728.34928322 C386.06912655 725.9895216 389.84070918 723.67069184 393.61368084 721.35245705 C401.94129964 716.23177549 410.15694154 711.0022486 418.24429607 705.50895119 C420.28518462 704.15361208 422.32686513 702.79946486 424.36929607 701.44645119 C427.9524757 699.0622942 431.4918594 696.63485497 434.99429607 694.13395119 C439.06798107 691.25916716 443.25018818 688.62002079 447.49429607 686.00895119 C460.66378357 677.88803393 473.32633082 668.96965352 485.98941326 660.08732033 C488.87637225 658.06651155 491.77846951 656.06866803 494.68179607 654.07145119 C508.08775878 644.80544896 521.06639295 635.0243344 533.63492107 624.65348244 C536.13181475 622.60139467 538.6514322 620.58204286 541.18179607 618.57145119 C552.23789421 609.74766539 563.09038026 600.76753594 573.02945232 590.69254494 C575.62497067 588.13364766 578.35453547 585.7788672 581.12320232 583.41129494 C584.61648018 580.27828146 587.86656823 576.90532245 591.14273357 573.54801369 C593.24429607 571.50895119 593.24429607 571.50895119 595.24429607 570.50895119 C595.24429607 569.84895119 595.24429607 569.18895119 595.24429607 568.50895119 C595.80503826 568.27434181 596.36578045 568.03973244 596.94351482 567.79801369 C603.83921277 563.93454964 609.18870505 556.66469289 614.27163982 550.69254494 C616.29883837 548.44857664 618.43365443 546.34116834 620.60147381 544.2338047 C625.83787826 539.13977738 630.26829519 533.9968099 634.44742107 527.96988869 C636.57005194 525.06280729 638.94180711 522.65309591 641.52945232 520.16520119 C651.75501601 510.28903034 657.48789557 498.78055558 662.24429607 485.50895119 C663.99577536 480.63321154 663.99577536 480.63321154 666.24429607 479.50895119 C667.05777144 477.07670323 667.05777144 477.07670323 667.68179607 474.13395119 C669.13219031 467.85167214 669.13219031 467.85167214 669.97274739 465.28198689 C672.50240098 457.250202 672.66948963 449.59043429 672.63197613 441.23131752 C672.63615565 439.70547015 672.64163654 438.17962588 672.64829594 436.65378731 C672.66268741 432.48684163 672.65852572 428.3200948 672.65112913 424.15313852 C672.64638429 419.64936897 672.65891867 415.14564162 672.66914654 410.64188576 C672.68631207 401.83011788 672.6871795 393.01842137 672.68193363 384.20664112 C672.67788779 377.04496978 672.6793404 369.8833195 672.68468189 362.72164917 C672.68543031 361.70134104 672.68617874 360.68103292 672.68694984 359.62980637 C672.68848134 357.55693609 672.69001969 355.48406581 672.69156481 353.41119554 C672.70528083 333.9894232 672.69985767 314.56769118 672.68837959 295.14591976 C672.67844031 277.37873562 672.69140149 259.61165551 672.71531378 241.84448741 C672.73969379 223.5921294 672.74931584 205.33981988 672.74266106 187.08744591 C672.73916741 176.84355624 672.74141099 166.59974665 672.75891209 156.35586929 C672.77361996 147.6390878 672.77428761 138.92244285 672.75684118 130.20566408 C672.74831863 125.7590509 672.74621239 121.31268179 672.76149273 116.86608124 C672.77531163 112.79439423 672.77061301 108.72316105 672.75125349 104.65150049 C672.74748468 103.17996182 672.75044087 101.70838703 672.76086514 100.23688046 C672.81333223 92.26253512 672.69976737 86.27039977 668.24429607 79.50895119 C666.29092939 77.62871398 666.29092939 77.62871398 664.11929607 76.57145119 C663.09449139 76.00104103 663.09449139 76.00104103 662.04898357 75.41910744 C659.14773876 73.95592553 657.4681118 73.38358018 654.2091831 73.38130069 C653.35815533 73.37828472 652.50712756 73.37526875 651.63031107 73.37216139 C650.68807938 73.37393086 649.74584768 73.37570033 648.77506351 73.37752342 C647.27592131 73.37444447 647.27592131 73.37444447 645.7464934 73.37130332 C642.35865376 73.36559674 638.97085431 73.36709505 635.58301067 73.36850929 C633.14510381 73.36592774 630.70719737 73.36291518 628.26929152 73.35950589 C622.24675085 73.35225883 616.22422389 73.34973206 610.2016802 73.34917684 C602.99142451 73.34826468 595.78117707 73.34160151 588.57092491 73.33483001 C571.14072586 73.31875165 553.71052766 73.31286451 536.28032252 73.30808126 C528.0374245 73.30574701 519.79452718 73.30214453 511.55162971 73.29838589 C483.34538235 73.28554834 455.13913539 73.27482965 426.93288517 73.27138329 C425.16142747 73.27116165 423.38996977 73.27093987 421.61851207 73.27071793 C419.84272486 73.27049729 418.06693766 73.27027681 416.29115045 73.27005649 C412.72849456 73.26961393 409.16583868 73.26916681 405.60318279 73.26871681 C404.71984776 73.26860742 403.83651273 73.26849803 402.92640998 73.26838532 C374.28261146 73.26475449 345.63883825 73.24883449 316.99504943 73.22552645 C286.7244225 73.20093958 256.45381003 73.18721096 226.18317282 73.18601537 C222.86117688 73.18584391 219.53918095 73.18562848 216.21718502 73.18538094 C214.99019597 73.18529728 214.99019597 73.18529728 213.73841926 73.18521194 C200.5643621 73.18406044 187.39033087 73.17302995 174.21628247 73.15849388 C160.97776719 73.14413913 147.73928521 73.14088609 134.5007643 73.14893386 C126.63283339 73.15339508 118.76500982 73.1495099 110.89709298 73.13369535 C105.02605253 73.12281763 99.15509307 73.12757099 93.2840503 73.13846722 C90.90578553 73.1404343 88.52751009 73.13729951 86.14926033 73.12862286 C82.92217757 73.11759231 79.69564265 73.12497508 76.46857548 73.13701439 C75.54039078 73.1294192 74.61220608 73.121824 73.65589458 73.11399865 C65.36370042 73.1810037 58.71681317 74.78557304 53.24429607 81.50895119 Z " fill="#FEFEFE" transform="translate(158.75570392608643,127.49104881286621)"/>
<path d="M0 0 C1.70175133 -0.00956978 1.70175133 -0.00956978 3.43788147 -0.01933289 C4.66292892 -0.02044571 5.88797638 -0.02155853 7.15014648 -0.02270508 C8.40633286 -0.02603348 9.66251923 -0.02936188 10.95677185 -0.03279114 C13.61395815 -0.03785712 16.27104216 -0.0406317 18.92822266 -0.04003906 C22.33699479 -0.03993722 25.74555965 -0.05361499 29.15428257 -0.07081127 C32.40289626 -0.08458126 35.65150754 -0.08401916 38.90014648 -0.08520508 C40.12721817 -0.09239059 41.35428986 -0.09957611 42.61854553 -0.10697937 C44.31556862 -0.10236443 44.31556862 -0.10236443 46.046875 -0.09765625 C47.54553856 -0.09979378 47.54553856 -0.09979378 49.07447815 -0.10197449 C51.45874023 0.14526367 51.45874023 0.14526367 53.45874023 2.14526367 C54.52930172 10.09800615 51.33678003 16.84265119 48.45874023 24.14526367 C48.11327148 25.02569336 47.76780273 25.90612305 47.41186523 26.81323242 C46.03510455 30.27206151 44.63572725 33.72016401 43.20483398 37.15698242 C40.52068741 43.79924365 38.60807034 50.21792516 37.32983398 57.27026367 C34.68607243 69.03085319 30.43484913 80.48808076 26.72631836 91.94799805 C24.78605158 97.9605113 22.88163386 103.97729246 21.09912109 110.03857422 C20.56623253 111.79164147 19.96248592 113.52297671 19.34155273 115.24682617 C18.20546872 118.97680111 17.76022174 122.65396412 17.33374023 126.52026367 C17.20418945 127.6243457 17.20418945 127.6243457 17.07202148 128.75073242 C16.86192138 130.5482555 16.65953256 132.34667709 16.45874023 134.14526367 C17.44874023 134.47526367 18.43874023 134.80526367 19.45874023 135.14526367 C19.45874023 135.80526367 19.45874023 136.46526367 19.45874023 137.14526367 C27.38653684 138.01242941 35.20800729 138.28789751 43.17933655 138.27224731 C45.03270029 138.2745873 45.03270029 138.2745873 46.92350572 138.27697456 C50.32264179 138.28025311 53.72172193 138.2791002 57.1208545 138.27598834 C60.79846196 138.27371379 64.47606475 138.27722403 68.15367126 138.27996826 C75.34582047 138.28440288 82.5379592 138.28345981 89.73010881 138.28055562 C95.57739699 138.27829269 101.42468225 138.27799292 107.27197075 138.27907944 C108.10575223 138.27923267 108.9395337 138.2793859 109.79858128 138.27954378 C111.4926411 138.27986352 113.18670091 138.28018773 114.88076072 138.28051637 C130.74639103 138.28336436 146.61201555 138.28009474 162.47764491 138.274716 C176.07852398 138.27024776 189.67939452 138.27102539 203.28027344 138.27563477 C219.09260922 138.28099114 234.90493995 138.28309059 250.71727651 138.2800225 C252.40462617 138.27970397 254.09197583 138.2793896 255.77932549 138.27907944 C256.6094348 138.27892516 257.43954411 138.27877089 258.29480826 138.27861194 C264.13270303 138.27775004 269.97059457 138.2792026 275.80848885 138.28155899 C282.92621285 138.28436895 290.04392583 138.28359347 297.16164858 138.27827825 C300.7902225 138.27565751 304.41877807 138.27460853 308.04735184 138.2779274 C311.9866207 138.28147586 315.92585977 138.27722717 319.86512756 138.27224731 C321.00356222 138.27447804 322.14199687 138.27670876 323.31492954 138.27900708 C332.96986548 138.49697322 332.96986548 138.49697322 342.45874023 137.14526367 C343.11874023 136.15526367 343.77874023 135.16526367 344.45874023 134.14526367 C345.11874023 134.14526367 345.77874023 134.14526367 346.45874023 134.14526367 C346.22475983 131.7469645 345.97170487 129.3529332 345.70874023 126.95776367 C345.61592773 125.97646484 345.61592773 125.97646484 345.52124023 124.9753418 C344.07504039 112.26083481 338.75491633 99.93922644 334.63842773 87.89916992 C332.5380375 81.67605427 330.79957584 75.57224971 329.45874023 69.14526367 C328.74706291 67.30137243 328.03400827 65.45793644 327.30249023 63.62182617 C326.1668048 60.28837911 325.39262301 56.88125759 324.58374023 53.45776367 C322.81787789 46.07573969 320.30829806 39.18267007 317.45874023 32.14526367 C316.42958525 29.38200138 315.42839403 26.61055678 314.43920898 23.83276367 C313.76592503 21.98726821 313.05814692 20.15410496 312.32202148 18.33276367 C309.93093277 12.2921185 308.93412693 7.65046869 309.45874023 1.14526367 C311.16742922 -0.56342531 313.38994774 0.00015228 315.7253418 -0.01586914 C316.85031067 -0.02547668 317.97527954 -0.03508423 319.13433838 -0.04498291 C320.97327667 -0.05135773 320.97327667 -0.05135773 322.84936523 -0.05786133 C324.10126648 -0.0635614 325.35316772 -0.06926147 326.64300537 -0.07513428 C329.29955687 -0.0846035 331.95599488 -0.09148999 334.61254883 -0.0949707 C338.00996378 -0.1004424 341.40697529 -0.12443659 344.80426407 -0.15294266 C348.04843385 -0.17610351 351.29262435 -0.1780219 354.53686523 -0.18286133 C355.75472717 -0.19520813 356.97258911 -0.20755493 358.22735596 -0.22027588 C359.36493347 -0.21727478 360.50251099 -0.21427368 361.67456055 -0.21118164 C363.17227997 -0.21665009 363.17227997 -0.21665009 364.70025635 -0.222229 C369.41550665 0.40594938 371.91128229 2.53104257 375.02124023 6.02026367 C378.50186225 11.18681197 379.77629281 17.2195352 381.45874023 23.14526367 C382.15357289 25.31629756 382.86129555 27.48326131 383.58374023 29.64526367 C383.89569336 30.58370117 384.20764648 31.52213867 384.52905273 32.48901367 C385.15596808 34.28020036 385.84019109 36.05220975 386.57592773 37.80151367 C387.45874023 40.14526367 387.45874023 40.14526367 387.45874023 43.14526367 C388.11874023 43.14526367 388.77874023 43.14526367 389.45874023 43.14526367 C390.61633806 45.97427559 391.75989024 48.80772436 392.89624023 51.64526367 C393.22172852 52.43674805 393.5472168 53.22823242 393.88256836 54.04370117 C395.91968969 59.16800637 396.88863644 63.67110372 397.45874023 69.14526367 C398.16759573 71.42948627 398.16759573 71.42948627 399.14624023 73.45776367 C404.44915129 86.15029086 407.87731786 99.28087975 410.77124023 112.70776367 C411.02566895 113.8845166 411.28009766 115.06126953 411.54223633 116.27368164 C413.96881413 127.90440614 414.69213877 139.17372313 414.75390625 151.02929688 C414.76539559 152.55608409 414.7857992 154.0828321 414.81542969 155.609375 C415.2723412 179.28453832 415.2723412 179.28453832 409.08154297 188.1081543 C402.8712692 193.70398044 395.13175732 193.42614665 387.31274414 193.37231445 C386.19996094 193.37260651 385.08717773 193.37289856 383.94067383 193.37319946 C380.27213676 193.37180904 376.60380421 193.35626108 372.93530273 193.34057617 C370.3879711 193.33684503 367.84063803 193.33399853 365.29330444 193.33200073 C359.2798322 193.32515148 353.2664474 193.30939755 347.25301015 193.28930175 C340.40416037 193.26691312 333.55530701 193.25594188 326.70642972 193.24591088 C312.62382615 193.22503041 298.5412872 193.18987299 284.45874023 193.14526367 C284.51940931 214.02573766 284.59700371 234.90608865 284.69445515 255.78642464 C284.73931925 265.48268671 284.77875531 275.17891282 284.80517578 284.87524414 C284.82823214 293.33179337 284.86171472 301.78822789 284.90744179 310.24468601 C284.9312715 314.71757545 284.95006717 319.19035202 284.95635414 323.66330338 C284.96245177 327.88390825 284.98261781 332.10422471 285.01301575 336.32472229 C285.02172173 337.86365115 285.02553423 339.40261783 285.0237484 340.94157028 C285.01457054 352.5126944 285.46181044 364.50852748 291.22827148 374.84838867 C299.826104 390.89767603 305.58334553 407.2698606 305.63574219 425.53686523 C305.64231339 426.54597961 305.64888458 427.55509399 305.65565491 428.5947876 C305.67524583 431.90848884 305.68701203 435.22214532 305.69702148 438.53588867 C305.70109701 439.67094597 305.70517254 440.80600327 305.70937157 441.97545624 C305.73016092 447.97118443 305.74449934 453.96689014 305.75390625 459.96264648 C305.76502012 466.15908669 305.79949739 472.35517268 305.83907795 478.55148697 C305.86516301 483.31777635 305.87359033 488.08397968 305.87718773 492.85033417 C305.88206631 495.13574394 305.89371623 497.42114954 305.91222572 499.70648956 C305.93646779 502.89503215 305.93568059 506.08263451 305.92871094 509.27124023 C305.94792603 510.68953125 305.94792603 510.68953125 305.9675293 512.13647461 C305.91643152 518.53129247 305.91643152 518.53129247 303.55436707 521.69989014 C299.74421943 524.3277848 297.30964861 524.28617597 292.66992188 524.32226562 C291.62332649 524.33212242 291.62332649 524.33212242 290.55558777 524.34217834 C288.2433563 524.36191308 285.93118969 524.37357254 283.61889648 524.38354492 C282.8301306 524.38762045 282.04136471 524.39169598 281.22869682 524.395895 C277.05611304 524.41675373 272.88356215 524.43105784 268.7109375 524.44042969 C264.39519759 524.45151055 260.07997097 524.48592971 255.76441288 524.52560139 C252.45046509 524.55170379 249.13664097 524.56011566 245.82259941 524.56371117 C244.23133301 524.56859154 242.64007264 524.58024665 241.04890633 524.59874916 C238.82450337 524.62301292 236.60144698 524.62220028 234.37695312 524.61523438 C233.1105751 524.62110062 231.84419708 524.62696686 230.53944397 524.63301086 C227.45874023 524.14526367 227.45874023 524.14526367 225.789855 522.43834114 C224.20864539 519.71443166 224.08265883 518.10354605 224.0802002 514.96827698 C224.06789619 513.39793449 224.06789619 513.39793449 224.05534363 511.79586792 C224.06149185 510.65247955 224.06764008 509.50909119 224.07397461 508.33105469 C224.06591545 506.5180764 224.06591545 506.5180764 224.05769348 504.66847229 C224.04790147 502.0404252 224.04348268 499.41300563 224.04804993 496.78500557 C224.05487389 492.61819436 224.03896315 488.4516576 224.01965332 484.28489685 C223.98179464 475.42586731 223.96902008 466.56686164 223.95874023 457.70776367 C223.94764807 448.17306627 223.93203502 438.63849626 223.88802767 429.10388511 C223.86981371 424.97446294 223.86572837 420.84535586 223.87296295 416.7159034 C223.87486326 413.5185693 223.85753561 410.32132122 223.84350586 407.12402344 C223.84965408 405.99885315 223.85580231 404.87368286 223.86213684 403.7144165 C223.76355057 390.82697027 221.51605618 379.92368865 212.83374023 370.20776367 C209.41579968 367.23955214 206.80775625 367.01730432 202.43994141 366.98413086 C200.90771187 366.96971954 200.90771187 366.96971954 199.3445282 366.95501709 C198.24139786 366.95076721 197.13826752 366.94651733 196.00170898 366.94213867 C194.86598953 366.9364386 193.73027008 366.93073853 192.56013489 366.92486572 C190.15517102 366.91541414 187.7501942 366.90888112 185.34521484 366.9050293 C181.67123735 366.89532967 177.99782064 366.86430941 174.32397461 366.83276367 C171.98738939 366.82623295 169.65080017 366.82098275 167.31420898 366.81713867 C166.21715134 366.80479187 165.12009369 366.79244507 163.98979187 366.77972412 C158.41015751 366.79596657 154.23561327 366.90498996 149.45874023 370.14526367 C147.57851942 372.17627805 147.57851942 372.17627805 146.20874023 374.52026367 C145.72920898 375.27049805 145.24967773 376.02073242 144.75561523 376.79370117 C139.56483978 386.2058904 139.16511242 396.24561129 139.20336914 406.78344727 C139.19974869 408.00743225 139.19612823 409.23141724 139.19239807 410.49249268 C139.18553667 413.13341628 139.18210133 415.77408362 139.18434525 418.41498947 C139.18719909 422.59237223 139.17275324 426.76958878 139.15536499 430.94692993 C139.1085234 442.81786676 139.08437799 454.68878914 139.07788086 466.55981445 C139.07413199 473.13245429 139.05612792 479.70490287 139.0227865 486.27746069 C139.00258186 490.42951992 139.00019559 494.58108575 139.01106668 498.73317409 C139.01428298 501.91667546 138.99159245 505.10001055 138.97290039 508.28344727 C138.98515907 510.00559952 138.98515907 510.00559952 138.99766541 511.76254272 C138.98664291 512.81377319 138.97562042 513.86500366 138.96426392 514.9480896 C138.96317438 515.86058157 138.96208485 516.77307354 138.9609623 517.71321678 C138.29587273 520.93396144 137.01193101 522.13383569 134.45874023 524.14526367 C131.27796936 524.65992737 131.27796936 524.65992737 127.47460938 524.67871094 C126.77979965 524.68732651 126.08498993 524.69594208 125.36912537 524.70481873 C123.07700121 524.7274836 120.7860993 524.72073941 118.49389648 524.71166992 C116.89733009 524.71690567 115.3007668 524.72318197 113.70420837 524.73045349 C110.35929807 524.74085883 107.01481314 524.73629516 103.66992188 524.72167969 C99.38780084 524.70449875 95.10702248 524.7279763 90.82505131 524.76316929 C87.52810307 524.78515399 84.23147551 524.78369923 80.93447685 524.77540398 C79.35604823 524.77458488 77.77759597 524.78144035 76.19923592 524.796175 C73.9894124 524.8136409 71.78199336 524.7990662 69.57226562 524.77636719 C68.31636124 524.77540543 67.06045685 524.77444366 65.76649475 524.77345276 C62.45874023 524.14526367 62.45874023 524.14526367 59.55160522 522.22607422 C56.5891106 517.86512178 56.77752999 514.38342759 56.859375 509.22119141 C56.85543228 508.22536545 56.85148956 507.22953949 56.84742737 506.20353699 C56.8407157 502.9114651 56.86989885 499.62078106 56.90014648 496.32885742 C56.904399 494.03304818 56.90672543 491.73723464 56.9072113 489.44142151 C56.91337981 484.62530062 56.93608465 479.80964421 56.97167969 474.99365234 C57.0167736 468.84618664 57.03169659 462.6991438 57.0354166 456.55152798 C57.03986717 451.8063191 57.05521243 447.06119744 57.07429314 442.31602669 C57.083124 440.05121638 57.08987862 437.78639693 57.09445381 435.52157402 C57.17597997 407.13066282 57.17597997 407.13066282 62.70874023 394.70776367 C63.01521484 393.99185059 63.32168945 393.2759375 63.63745117 392.53833008 C66.73800568 385.35009923 69.97126493 378.20045543 73.42749023 371.17651367 C78.16399182 361.1351303 77.76298092 349.87480843 77.77758789 339.02539062 C77.78690398 337.42772423 77.79707511 335.83006262 77.80802917 334.23240662 C77.83515393 329.92742028 77.85042614 325.62246634 77.8634572 321.31741738 C77.87916506 316.80639732 77.90593058 312.29544268 77.93148804 307.7844696 C77.97814101 299.25669577 78.01495007 290.72890945 78.04816091 282.20107383 C78.08647796 272.48633177 78.1358628 262.77165563 78.18614507 253.05696929 C78.28926424 233.08644952 78.37858929 213.11588796 78.45874023 193.14526367 C77.58078293 193.15079443 77.58078293 193.15079443 76.68508911 193.15643692 C62.42039684 193.24490847 48.15572912 193.31103175 33.89082336 193.35251236 C26.99230067 193.37310711 20.09396151 193.40116812 13.19555664 193.44702148 C6.53657512 193.49126219 -0.12217647 193.51441049 -6.78131104 193.52477264 C-9.32020059 193.53215597 -11.85907987 193.54657383 -14.39788818 193.5681839 C-17.95762561 193.5972754 -21.51657859 193.6012171 -25.07641602 193.59936523 C-26.12298874 193.61374634 -27.16956146 193.62812744 -28.24784851 193.64294434 C-35.31119305 193.60325711 -40.78634373 192.45556993 -46.1860199 187.69525528 C-52.84479821 180.079592 -52.11288243 165.39061983 -51.95288086 155.8840332 C-51.91627876 153.64642457 -51.91186436 151.4104856 -51.91235352 149.17260742 C-51.84653552 135.21258235 -49.95633073 121.79271399 -46.72875977 108.20776367 C-46.33672363 106.5284375 -46.33672363 106.5284375 -45.93676758 104.81518555 C-44.12991936 97.22423291 -42.0047322 89.8164018 -39.55688477 82.41088867 C-38.66987683 79.55881701 -38.04029221 76.8340103 -37.54125977 73.89526367 C-36.68136889 69.07344567 -34.87341009 64.86875012 -32.91625977 60.39526367 C-30.52499718 54.74318846 -28.55591087 48.94060048 -26.54125977 43.14526367 C-25.88125977 43.14526367 -25.22125977 43.14526367 -24.54125977 43.14526367 C-24.45875977 42.19651367 -24.37625977 41.24776367 -24.29125977 40.27026367 C-23.7069379 36.17178071 -22.24606685 32.63115732 -20.65454102 28.82885742 C-18.29288152 23.13601506 -16.09919878 17.37701973 -14.60375977 11.39526367 C-13.30705249 7.42886495 -11.42808414 4.1777142 -8.54125977 1.14526367 C-5.43206904 0.10886676 -3.26076057 0.01243055 0 0 Z " fill="#FEFEFE" transform="translate(338.541259765625,252.854736328125)"/>
<path d="M0 0 C8.56861915 6.6060462 14.60544659 13.61241932 20 23 C20.4640625 23.79148438 20.928125 24.58296875 21.40625 25.3984375 C30.03889668 41.24250245 31.6796333 60.91952979 28 78.5 C24.29508132 90.31051541 17.84066455 101.49179125 10 111 C9.48308594 111.63035156 8.96617187 112.26070313 8.43359375 112.91015625 C-2.39667002 124.82616074 -20.77137947 133.9344566 -36.72485352 135.21948242 C-59.80648956 136.15387438 -79.39181304 131.82829803 -97 116 C-97.61101562 115.48179687 -98.22203125 114.96359375 -98.8515625 114.4296875 C-110.80482909 103.56804343 -119.92908571 85.2952996 -121.21948242 69.27514648 C-122.1520163 46.23940909 -117.86044727 26.54447159 -102 9 C-101.06027344 7.93845703 -101.06027344 7.93845703 -100.1015625 6.85546875 C-95.05574899 1.46983515 -89.37719219 -2.33535998 -83 -6 C-82.20851563 -6.4640625 -81.41703125 -6.928125 -80.6015625 -7.40625 C-54.34393147 -21.71273335 -23.64704872 -16.62836852 0 0 Z " fill="#FEFDFD" transform="translate(566,231)"/>
<path d="M0 0 C1.41934647 3.84472951 0.5850863 6.72533762 -0.36328125 10.63671875 C-0.51532516 11.27559525 -0.66736908 11.91447174 -0.82402039 12.57270813 C-1.31157135 14.61315547 -1.81169209 16.65027033 -2.3125 18.6875 C-2.63823044 20.0382042 -2.96310876 21.38911419 -3.28710938 22.74023438 C-5.62871766 32.48974202 -5.62871766 32.48974202 -6.64208984 36.61181641 C-9.21274691 47.46490619 -9.26064353 58.52900266 -9.5625 69.625 C-9.60579715 71.12110312 -9.64941456 72.61719701 -9.69335938 74.11328125 C-9.79926182 77.74208861 -9.9008418 81.37100135 -10 85 C-10.33 85 -10.66 85 -11 85 C-11.05024886 80.29013543 -11.08611102 75.58043418 -11.10986328 70.87036133 C-11.11978751 69.27528152 -11.13333127 67.68021923 -11.15087891 66.08520508 C-11.3145825 50.7981786 -9.61743386 36.54318591 -6.0625 21.625 C-5.81048828 20.52800781 -5.55847656 19.43101562 -5.29882812 18.30078125 C-3.8392038 12.06658015 -2.12937802 6.0385347 0 0 Z " fill="#EC9C9C" transform="translate(298,339)"/>
<path d="M0 0 C1 2 1 2 0.109375 5.1953125 C-0.3357741 6.50794026 -0.78937901 7.81772128 -1.25 9.125 C-1.48162842 9.79990479 -1.71325684 10.47480957 -1.9519043 11.17016602 C-3.55395715 15.81103784 -5.22497896 20.42231417 -7 25 C-7.66 25 -8.32 25 -9 25 C-9.10183594 25.64324219 -9.20367187 26.28648437 -9.30859375 26.94921875 C-10.23336822 31.02972077 -11.64233121 34.88149915 -13.0625 38.8125 C-13.34416016 39.60076172 -13.62582031 40.38902344 -13.91601562 41.20117188 C-14.60758538 43.13522289 -15.30337278 45.06776488 -16 47 C-19.2174448 36.2254695 -8.30820908 19.07839968 -4.01074219 9.3046875 C-2.65415225 6.21140029 -1.32543303 3.10674748 0 0 Z " fill="#E87979" transform="translate(321,271)"/>
<path d="M0 0 C1.01037827 0.00222061 2.02075653 0.00444122 3.06175232 0.00672913 C4.77341331 0.00684242 4.77341331 0.00684242 6.51965332 0.00695801 C7.76129745 0.01211929 9.00294159 0.01728058 10.2822113 0.02259827 C12.17785072 0.02472069 12.17785072 0.02472069 14.11178589 0.02688599 C17.47705394 0.0315487 20.84225495 0.04053972 24.20750427 0.05158997 C27.63930175 0.06180606 31.07110614 0.06638403 34.50291443 0.07142639 C41.2405633 0.08248071 47.9781803 0.09923742 54.71580505 0.12025452 C54.71580505 0.45025452 54.71580505 0.78025452 54.71580505 1.12025452 C54.05847885 1.12612076 53.40115265 1.131987 52.72390747 1.13803101 C45.89450407 1.20186755 39.06557618 1.28626181 32.23655701 1.38270569 C29.68649049 1.41600061 27.13634947 1.44401814 24.58616638 1.46669006 C20.92462856 1.50015152 17.26377641 1.55246433 13.6025238 1.60853577 C11.88678413 1.61812065 11.88678413 1.61812065 10.13638306 1.62789917 C9.0755098 1.64769333 8.01463654 1.66748749 6.9216156 1.68788147 C5.98673813 1.69898453 5.05186066 1.71008759 4.08865356 1.7215271 C1.27979203 2.19352103 0.39557391 2.85645985 -1.28419495 5.12025452 C-2.00616657 7.72636528 -2.00616657 7.72636528 -2.28419495 10.12025452 C-2.61419495 10.12025452 -2.94419495 10.12025452 -3.28419495 10.12025452 C-3.31108711 8.6411856 -3.33054116 7.16197969 -3.34669495 5.68275452 C-3.35829651 4.85904358 -3.36989807 4.03533264 -3.3818512 3.18666077 C-3.24291829 0.24684049 -2.94057433 0.15481049 0 0 Z " fill="#F8E1E1" transform="translate(651.2841949462891,252.87974548339844)"/>
<path d="M0 0 C2.92506099 1.46253049 3.02548812 3.32250897 4.125 6.375 C6.6311738 13.13044758 9.39254029 19.7531731 12.23291016 26.37451172 C17.57452012 38.90624768 17.57452012 38.90624768 16 43 C14.9936345 40.56495491 13.99473587 38.12729136 13 35.6875 C12.71382812 34.99720703 12.42765625 34.30691406 12.1328125 33.59570312 C10.91089256 30.58454326 10 28.28113016 10 25 C9.34 25 8.68 25 8 25 C6.84860965 21.77278785 5.70488074 18.54291128 4.5625 15.3125 C4.23701172 14.40048828 3.91152344 13.48847656 3.57617188 12.54882812 C3.26357422 11.66259766 2.95097656 10.77636719 2.62890625 9.86328125 C2.34088135 9.05157471 2.05285645 8.23986816 1.75610352 7.40356445 C0.98497826 4.95224766 0.45817775 2.52686013 0 0 Z " fill="#E98080" transform="translate(718,271)"/>
<path d="M0 0 C0.33 0 0.66 0 1 0 C1 11.55 1 23.1 1 35 C1.66 35 2.32 35 3 35 C3 37.64 3 40.28 3 43 C3.66 43 4.32 43 5 43 C6.0625 44.8125 6.0625 44.8125 7 47 C6.67 47.99 6.34 48.98 6 50 C1.29869153 45.89756337 0.29036593 39.98460342 -0.15032959 33.93707275 C-0.36494277 28.39527327 -0.27438467 22.85617907 -0.1875 17.3125 C-0.17242022 15.62826723 -0.15873767 13.94402133 -0.14648438 12.25976562 C-0.11375247 8.17284759 -0.0621544 4.08657211 0 0 Z " fill="#F8E1E1" transform="translate(288,392)"/>
<path d="M0 0 C1 2 1 2 0.109375 5.1953125 C-0.3357741 6.50794026 -0.78937901 7.81772128 -1.25 9.125 C-1.48162842 9.79990479 -1.71325684 10.47480957 -1.9519043 11.17016602 C-3.55395715 15.81103784 -5.22497896 20.42231417 -7 25 C-7.33 25 -7.66 25 -8 25 C-7.53855883 15.77117651 -4.16655851 8.15870295 0 0 Z " fill="#EA8888" transform="translate(321,271)"/>
<path d="M0 0 C0.66 0 1.32 0 2 0 C2.45375 0.928125 2.9075 1.85625 3.375 2.8125 C4.9421633 6.03921389 4.9421633 6.03921389 7 9 C6.67 9.99 6.34 10.98 6 12 C0.44419134 4.88610478 0.44419134 4.88610478 0 0 Z " fill="#E66262" transform="translate(225,625)"/>
<path d="M0 0 C0.33 0 0.66 0 1 0 C1.16682272 4.92127034 1.24828052 8.50343896 -1 13 C-1.33 13 -1.66 13 -2 13 C-2.16682272 8.07872966 -2.24828052 4.49656104 0 0 Z " fill="#EEA6A6" transform="translate(303,319)"/>
<path d="M0 0 C2 2 2 2 2 5 C2.66 5 3.32 5 4 5 C5.0625 6.8125 5.0625 6.8125 6 9 C5.67 9.99 5.34 10.98 5 12 C2.2289312 9.65408148 1.47940716 7.85223799 0.8125 4.3125 C0.65394531 3.50425781 0.49539063 2.69601562 0.33203125 1.86328125 C0.22246094 1.24839844 0.11289062 0.63351562 0 0 Z " fill="#EEA6A6" transform="translate(289,430)"/>
<path d="M0 0 C1.65 0 3.3 0 5 0 C4.2884375 0.8353125 4.2884375 0.8353125 3.5625 1.6875 C1.87604004 4.18346074 1.41046893 6.0446237 1 9 C0.67 9 0.34 9 0 9 C0 6.03 0 3.06 0 0 Z " fill="#F5D4D4" transform="translate(648,254)"/>
<path d="M0 0 C1.98 0 3.96 0 6 0 C6.66 2.31 7.32 4.62 8 7 C7.236875 6.21625 6.47375 5.4325 5.6875 4.625 C3.09108195 1.92742283 3.09108195 1.92742283 0 0 Z " fill="#E87676" transform="translate(706,253)"/>
</svg>
