<?xml version="1.0" encoding="UTF-8"?>
<svg version="1.1" xmlns="http://www.w3.org/2000/svg" width="1040" height="1040">
<path d="M0 0 C1.11234673 -0.00327219 2.22469345 -0.00654439 3.37074766 -0.00991574 C5.19197686 -0.0076903 5.19197686 -0.0076903 7.04999858 -0.00541991 C8.35127705 -0.00777214 9.65255552 -0.01012437 10.99326667 -0.01254788 C14.61497364 -0.01894311 18.23665842 -0.01910988 21.85836996 -0.01827047 C25.79507093 -0.01844007 29.73176396 -0.0243473 33.66846097 -0.02951133 C41.48102329 -0.03883766 49.29357994 -0.04275944 57.10614713 -0.0450303 C66.46259972 -0.04799233 75.81904478 -0.05668983 85.17549342 -0.06544458 C107.79302073 -0.0862912 130.41054935 -0.09675958 153.02808403 -0.10557419 C163.7291549 -0.10978086 174.4302252 -0.11500286 185.13129559 -0.12025872 C221.76565109 -0.13815014 258.40000674 -0.15314545 295.03436595 -0.16057891 C297.33443692 -0.16105366 299.63450789 -0.16152955 301.93457885 -0.16200657 C303.64551693 -0.16236113 303.64551693 -0.16236113 305.39101941 -0.16272286 C311.16995858 -0.16392405 316.94889774 -0.1651395 322.72783691 -0.16636485 C323.87468404 -0.166605 325.02153117 -0.16684515 326.20313125 -0.16709258 C363.37663569 -0.17498339 400.55010821 -0.19841012 437.72359871 -0.23092079 C477.02919173 -0.26523332 516.33476606 -0.28493142 555.6403743 -0.28822315 C559.95699202 -0.28864068 564.27360972 -0.28912024 568.59022743 -0.28964633 C570.18452617 -0.28983111 570.18452617 -0.28983111 571.81103297 -0.29001964 C588.90287957 -0.29235002 605.99468903 -0.30800109 623.08652241 -0.32848817 C640.27459366 -0.34876335 657.46262042 -0.35421548 674.65070143 -0.34471754 C684.85589554 -0.339509 695.06094129 -0.34534947 705.26611399 -0.36725221 C712.09264405 -0.38079335 718.91907237 -0.37965411 725.74560353 -0.36685025 C729.62900062 -0.35997558 733.51211477 -0.35920785 737.3954862 -0.37641034 C775.7647231 -0.5357116 809.03558861 8.59931192 837.24175292 35.93739492 C856.91946142 55.76236409 872.4462436 85.38178819 872.46821034 113.78939199 C872.47148253 114.90173872 872.47475473 116.01408545 872.47812608 117.16013965 C872.47664246 118.37429246 872.47515883 119.58844526 872.47363025 120.83939058 C872.47598248 122.14066905 872.47833471 123.44194752 872.48075822 124.78265867 C872.48715345 128.40436564 872.48732022 132.02605041 872.48648081 135.64776195 C872.48665041 139.58446292 872.49255764 143.52115596 872.49772167 147.45785296 C872.507048 155.27041528 872.51096978 163.08297193 872.51324064 170.89553913 C872.51620267 180.25199171 872.52490017 189.60843678 872.53365492 198.96488542 C872.55450154 221.58241273 872.56496992 244.19994135 872.57378453 266.81747603 C872.5779912 277.51854689 872.5832132 288.21961719 872.58846906 298.92068759 C872.60636048 335.55504308 872.62135579 372.18939874 872.62878925 408.82375795 C872.629264 411.12382891 872.62973989 413.42389988 872.63021691 415.72397085 C872.63057147 417.43490893 872.63057147 417.43490893 872.6309332 419.18041141 C872.63213439 424.95935057 872.63334984 430.73828974 872.63457519 436.5172289 C872.63481534 437.66407604 872.63505549 438.81092317 872.63530292 439.99252325 C872.64319373 477.16602769 872.66662046 514.3395002 872.69913113 551.5129907 C872.73344366 590.81858372 872.75314176 630.12415806 872.75643349 669.4297663 C872.75685102 673.74638401 872.75733058 678.06300172 872.75785667 682.37961942 C872.75797986 683.44248525 872.75810305 684.50535108 872.75822998 685.60042497 C872.76056036 702.69227156 872.77621143 719.78408103 872.79669851 736.8759144 C872.81697369 754.06398566 872.82242582 771.25201242 872.81292788 788.44009342 C872.80771934 798.64528753 872.8135598 808.85033328 872.83546255 819.05550599 C872.84900369 825.88203605 872.84786445 832.70846437 872.83506059 839.53499552 C872.82818592 843.41839261 872.82741819 847.30150676 872.84462068 851.18487819 C873.00392194 889.55411509 863.86889842 922.82498061 836.53081542 951.03114492 C816.70584624 970.70885341 787.08642215 986.23563559 758.67881835 986.25760233 C757.56647162 986.26087453 756.45412489 986.26414672 755.30807069 986.26751807 C753.48684148 986.26529264 753.48684148 986.26529264 751.62881976 986.26302224 C750.32754129 986.26537447 749.02626282 986.2677267 747.68555167 986.27015021 C744.0638447 986.27654545 740.44215993 986.27671222 736.82044838 986.27587281 C732.88374742 986.2760424 728.94705438 986.28194963 725.01035738 986.28711367 C717.19779506 986.29643999 709.38523841 986.30036177 701.57267121 986.30263263 C692.21621863 986.30559467 682.85977356 986.31429216 673.50332492 986.32304691 C650.88579761 986.34389353 628.26826899 986.35436191 605.65073431 986.36317652 C594.94966345 986.36738319 584.24859315 986.37260519 573.54752275 986.37786105 C536.91316726 986.39575247 500.2788116 986.41074779 463.64445239 986.41818124 C461.34438143 986.418656 459.04431046 986.41913189 456.74423949 986.4196089 C455.03330141 986.41996347 455.03330141 986.41996347 453.28779893 986.42032519 C447.50885976 986.42152639 441.7299206 986.42274184 435.95098144 986.42396718 C434.8041343 986.42420733 433.65728717 986.42444748 432.47568709 986.42469491 C395.30218265 986.43258573 358.12871014 986.45601246 320.95521963 986.48852313 C281.64962662 986.52283565 242.34405228 986.54253376 203.03844404 986.54582548 C198.72182633 986.54624302 194.40520862 986.54672258 190.08859092 986.54724866 C188.49429217 986.54743345 188.49429217 986.54743345 186.86778537 986.54762197 C169.77593878 986.54995235 152.68412931 986.56560342 135.59229594 986.58609051 C118.40422468 986.60636569 101.21619792 986.61181782 84.02811692 986.60231987 C73.82292281 986.59711133 63.61787706 986.6029518 53.41270435 986.62485455 C46.58617429 986.63839569 39.75974597 986.63725645 32.93321482 986.62445259 C29.04981773 986.61757791 25.16670358 986.61681018 21.28333215 986.63401268 C-17.08590476 986.79331393 -50.35677027 977.65829042 -78.56293458 950.32020742 C-98.24064307 930.49523824 -113.76742525 900.87581415 -113.78939199 872.46821034 C-113.79266419 871.35586361 -113.79593638 870.24351689 -113.79930773 869.09746268 C-113.79782411 867.88330988 -113.79634049 866.66915707 -113.7948119 865.41821176 C-113.79716413 864.11693329 -113.79951636 862.81565482 -113.80193987 861.47494367 C-113.80833511 857.85323669 -113.80850188 854.23155192 -113.80766247 850.60984038 C-113.80783206 846.67313941 -113.81373929 842.73644638 -113.81890333 838.79974937 C-113.82822965 830.98718705 -113.83215143 823.1746304 -113.83442229 815.36206321 C-113.83738433 806.00561062 -113.84608182 796.64916556 -113.85483657 787.29271692 C-113.87568319 764.67518961 -113.88615157 742.05766099 -113.89496618 719.44012631 C-113.89917285 708.73905544 -113.90439485 698.03798514 -113.90965071 687.33691475 C-113.92754213 650.70255925 -113.94253745 614.0682036 -113.9499709 577.43384439 C-113.95044566 575.13377342 -113.95092155 572.83370245 -113.95139856 570.53363148 C-113.95163494 569.3930061 -113.95187132 568.25238072 -113.95211485 567.07719093 C-113.95331605 561.29825176 -113.9545315 555.51931259 -113.95575684 549.74037343 C-113.95599699 548.5935263 -113.95623714 547.44667916 -113.95648457 546.26507909 C-113.96437539 509.09157465 -113.98780212 471.91810213 -114.02031279 434.74461163 C-114.05462532 395.43901861 -114.07432342 356.13344428 -114.07761514 316.82783604 C-114.07803268 312.51121832 -114.07851224 308.19460062 -114.07903832 303.87798291 C-114.07916151 302.81511708 -114.07928471 301.75225125 -114.07941163 300.65717737 C-114.08174201 283.56533077 -114.09739308 266.4735213 -114.11788017 249.38168793 C-114.13815535 232.19361667 -114.14360748 215.00558992 -114.13410953 197.81750891 C-114.12890099 187.6123148 -114.13474146 177.40726905 -114.15664421 167.20209635 C-114.17018535 160.37556629 -114.16904611 153.54913797 -114.15624225 146.72260681 C-114.14936757 142.83920972 -114.14859984 138.95609557 -114.16580234 135.07272414 C-114.32510359 96.70348724 -105.19008008 63.43262173 -77.85199708 35.22645742 C-58.0270279 15.54874892 -28.40760381 0.02196674 0 0 Z " fill="#F84863" transform="translate(140.66059082746506,26.87119883298874)"/>
<path d="M0 0 C0.76885529 0.00370605 1.53771057 0.00741211 2.3298645 0.01123047 C13.85427276 0.0902478 24.7325904 0.61193501 35.6875 4.4375 C36.47012207 4.70062988 37.25274414 4.96375977 38.05908203 5.23486328 C56.3650735 11.53412072 72.61130163 21.13562347 86.6875 34.4375 C87.42145996 35.12908203 88.15541992 35.82066406 88.91162109 36.53320312 C106.31247911 53.0853247 121.14597316 71.68499611 131.6875 93.4375 C132.35394531 93.31632812 133.02039063 93.19515625 133.70703125 93.0703125 C136.70052083 92.52604167 139.69401042 91.98177083 142.6875 91.4375 C143.41050293 91.27137207 144.13350586 91.10524414 144.87841797 90.93408203 C153.9369122 88.99558865 162.96685352 89.03934014 172.1875 89.0625 C173.03543121 89.06337616 173.88336243 89.06425232 174.75698853 89.06515503 C187.14350474 89.1074628 198.82886662 89.54739604 210.6875 93.4375 C211.43306152 93.66824219 212.17862305 93.89898437 212.94677734 94.13671875 C237.83436105 101.96814988 259.10541452 115.36277522 277.6875 133.4375 C278.61079102 134.32211914 278.61079102 134.32211914 279.55273438 135.22460938 C305.51977432 160.14141515 323.40103682 191.75070586 335.6875 225.4375 C335.96094238 226.16243652 336.23438477 226.88737305 336.51611328 227.63427734 C337.2805141 229.66630564 338.02049398 231.70521937 338.75 233.75 C339.15347656 234.88050781 339.55695312 236.01101563 339.97265625 237.17578125 C340.8193811 241.03925257 340.77496657 243.631367 339.6875 247.4375 C337.66015625 249.046875 337.66015625 249.046875 334.75 250.1875 C333.58855469 250.66574219 332.42710937 251.14398438 331.23046875 251.63671875 C330.53743652 251.90919434 329.8444043 252.18166992 329.13037109 252.46240234 C325.06318536 254.08586225 321.04279397 255.81945762 317.01342773 257.53417969 C313.67732133 258.95122835 310.33501197 260.35279752 306.9921875 261.75390625 C301.953505 263.8755381 296.97741446 266.1082122 292.02563477 268.42504883 C288.6779107 269.87466893 286.35657843 270.5872583 282.6875 270.4375 C278.19238845 266.19261335 276.88811021 260.71720502 275.0625 255 C267.51606459 232.48590127 257.49297346 210.42412879 241.6875 192.4375 C240.62789062 191.19806641 240.62789062 191.19806641 239.546875 189.93359375 C224.06580046 172.20613952 204.23367321 157.98854945 180.26953125 155.640625 C172.6011915 155.20577913 165.26051482 155.03092221 157.6875 156.4375 C158.1 157.68015625 158.5125 158.9228125 158.9375 160.203125 C175.44725583 211.35963741 183.82891593 267.50390864 183.85546875 321.203125 C183.85869694 322.77284777 183.86206206 324.34257027 183.86555481 325.91229248 C183.87148842 329.17965389 183.87340069 332.44698907 183.87280273 335.71435547 C183.8727215 339.02267933 183.87966927 342.33086466 183.89331055 345.63916016 C184.03577198 380.74208744 184.03577198 380.74208744 181.6875 396.4375 C181.53611572 397.53835938 181.38473145 398.63921875 181.22875977 399.7734375 C180.81829544 402.62852155 180.36187837 405.46954597 179.875 408.3125 C179.70540771 409.31224854 179.53581543 410.31199707 179.36108398 411.34204102 C177.03858556 424.61960199 173.86147845 437.67759999 170.125 450.625 C169.93945557 451.27138428 169.75391113 451.91776855 169.56274414 452.58374023 C167.94249876 458.00712944 165.84322107 463.20768805 163.6875 468.4375 C163.35113525 469.26435303 163.01477051 470.09120605 162.66821289 470.94311523 C151.98729094 497.05062038 137.21843937 526.87331739 109.73046875 538.7109375 C98.00667883 543.1367859 85.18818208 544.76598349 73.37109375 539.76171875 C43.8314461 525.18538607 27.08812084 495.66328576 16.67675781 465.40844727 C16.00601605 463.42059917 15.34596458 461.42944531 14.6875 459.4375 C14.32386353 458.35662109 14.32386353 458.35662109 13.95288086 457.25390625 C7.24700679 437.30268826 2.916006 417.20531988 -0.3125 396.4375 C-0.49474121 395.28362793 -0.67698242 394.12975586 -0.86474609 392.94091797 C-6.66708884 354.05656136 -5.54822379 312.2100692 0.6875 273.4375 C0.88005371 272.2323877 1.07260742 271.02727539 1.27099609 269.78564453 C10.23716409 215.60661938 30.68533422 170.24164802 69.6875 131.4375 C58.22462996 106.44253124 41.05305406 83.69850059 14.6875 73.4375 C3.19593513 69.23475455 -9.28552072 71.28728926 -20.41796875 75.65625 C-27.98136071 79.17865764 -34.12955067 83.88055021 -40.3125 89.4375 C-40.97507813 90.00597656 -41.63765625 90.57445312 -42.3203125 91.16015625 C-62.50651303 109.69936553 -77.31412114 140.25559709 -84.63427734 166.20629883 C-85.3125 168.4375 -85.3125 168.4375 -86.82421875 171.94921875 C-88.67892284 176.29633359 -89.9074046 180.68989685 -91.125 185.25 C-91.50966431 186.68037598 -91.50966431 186.68037598 -91.90209961 188.13964844 C-107.09349309 245.42337906 -113.10283957 302.94006546 -112.34246826 362.078125 C-112.31491492 364.24737569 -112.29197908 366.41662453 -112.27001953 368.5859375 C-111.57089169 424.51616469 -104.35305098 487.99079029 -81.3125 539.4375 C-80.65663305 541.00764754 -80.00466333 542.57942571 -79.35546875 544.15234375 C-69.63568381 567.57303997 -57.5261786 587.60450758 -41.734375 607.39453125 C-32.54544872 618.93997249 -32.54544872 618.93997249 -31.875 623.25 C-32.3951013 627.03930947 -33.60433963 627.89969133 -36.52709961 630.19506836 C-39.46529149 632.2397092 -42.58452332 633.78065249 -45.8125 635.3125 C-47.23704705 636.00637107 -48.66152496 636.70038409 -50.0859375 637.39453125 C-50.79588867 637.73693848 -51.50583984 638.0793457 -52.23730469 638.43212891 C-55.31914834 639.92519151 -58.37731721 641.46300074 -61.4375 643 C-62.56285156 643.56203125 -63.68820313 644.1240625 -64.84765625 644.703125 C-67.2742873 645.91780841 -69.69875442 647.13620746 -72.12109375 648.359375 C-72.74935059 648.67575928 -73.37760742 648.99214355 -74.02490234 649.31811523 C-75.76858628 650.19639995 -77.51127894 651.0766519 -79.25390625 651.95703125 C-88.021875 656.20104167 -88.021875 656.20104167 -93.3125 654.4375 C-106.33781972 645.8017704 -115.3742179 630.50942321 -123.3125 617.4375 C-123.79332031 616.65407227 -124.27414063 615.87064453 -124.76953125 615.06347656 C-160.17686079 556.93099422 -174.75788538 486.53897312 -181.3125 419.4375 C-181.40574554 418.5024614 -181.49899109 417.56742279 -181.59506226 416.60404968 C-183.57654583 396.02737593 -183.6551573 375.48702188 -183.62817383 354.83544922 C-183.6235601 351.00460004 -183.63041551 347.17406973 -183.64868164 343.34326172 C-184.04000486 260.40903259 -171.70154171 174.76277035 -96.3125 44.4375 C-95.74225098 43.83470215 -95.17200195 43.2319043 -94.58447266 42.61083984 C-86.16893311 33.7470149 -77.63555866 26.00483577 -67.3125 19.4375 C-66.24 18.74269531 -65.1675 18.04789063 -64.0625 17.33203125 C-57.26143687 13.18562838 -50.28169931 10.0192341 -42.875 7.125 C-42.05378662 6.79935059 -41.23257324 6.47370117 -40.38647461 6.13818359 C-27.09504121 1.16117523 -14.03365294 -0.121739 0 0 Z " fill="#FEFEFE" transform="translate(292.3125,133.5625)"/>
<path d="M0 0 C2.1739988 1.77682594 3.92348705 3.4250991 5.1875 5.953125 C5.31885843 7.43890801 5.39276346 8.92997649 5.43701172 10.42089844 C5.46729462 11.35077576 5.49757751 12.28065308 5.52877808 13.2387085 C5.57254074 14.76023529 5.57254074 14.76023529 5.6171875 16.3125 C5.69102978 18.48438783 5.76526248 20.65626242 5.83984375 22.828125 C5.95179789 26.23230639 6.06052134 29.63649389 6.16162109 33.04101562 C6.74509119 52.29268246 8.41559825 71.16134894 12.5 90.015625 C12.71164795 91.00401367 12.9232959 91.99240234 13.14135742 93.01074219 C16.93704508 110.29223607 22.13158262 126.72712109 29.1875 142.953125 C29.52620117 143.73896973 29.86490234 144.52481445 30.21386719 145.33447266 C36.01866058 158.63919142 43.31872865 170.77924427 51.1875 182.953125 C52.11369141 184.39389404 52.11369141 184.39389404 53.05859375 185.86376953 C57.38805293 192.59147463 61.76903602 199.28358285 66.1875 205.953125 C66.72213867 206.76313965 67.25677734 207.5731543 67.80761719 208.40771484 C74.34483934 218.44461947 74.34483934 218.44461947 82.421875 227.23046875 C85.71420685 230.44267748 88.48908128 234.11475324 91.3671875 237.6953125 C92.99364407 239.79482495 92.99364407 239.79482495 94.1875 240.953125 C101.49626694 241.60970454 107.44587515 239.55311069 114.3125 237.203125 C128.01367232 232.61340226 141.63718664 228.67826779 155.8125 225.828125 C157.64167969 225.45107422 157.64167969 225.45107422 159.5078125 225.06640625 C163.0639271 224.34074611 166.62365622 223.6397464 170.1875 222.953125 C171.21891113 222.75154785 172.25032227 222.5499707 173.31298828 222.34228516 C180.50829581 221.02708985 187.5039304 220.5871257 194.8125 220.578125 C195.86695313 220.55363281 196.92140625 220.52914062 198.0078125 220.50390625 C209.19520114 220.46236892 216.70448188 223.69609978 224.7421875 231.40625 C243.23874925 250.67103956 243.23874925 250.67103956 244 262.453125 C243.70068505 266.11533147 243.40159708 266.73902792 240.6875 269.453125 C234.32473154 272.18002577 228.00679444 273.23886575 221.1484375 273.8125 C219.59741087 273.95606003 218.04646993 274.10054814 216.49560547 274.24584961 C215.69104919 274.3197995 214.88649292 274.39374939 214.05755615 274.46994019 C196.11723461 276.14662011 178.76746766 278.93903691 161.1875 282.953125 C160.26952637 283.15518555 159.35155273 283.35724609 158.40576172 283.56542969 C109.02424154 294.48480675 60.72706417 317.51359999 23.41015625 351.91796875 C21.39885309 353.75960134 19.33930328 355.5139869 17.25 357.265625 C7.66012823 365.65917473 -0.33724494 375.683215 -7.8125 385.953125 C-8.21291504 386.49179199 -8.61333008 387.03045898 -9.02587891 387.58544922 C-23.0759581 406.64896787 -32.04115455 428.93623028 -37.8125 451.765625 C-40.23120016 461.10923431 -43.23633248 470.56897174 -50.8125 476.953125 C-59.08840691 479.64655652 -68.4832717 474.5776449 -75.8125 470.953125 C-78.60504395 469.50108042 -81.34377705 467.97629766 -84.0625 466.390625 C-84.69438232 466.02718994 -85.32626465 465.66375488 -85.97729492 465.28930664 C-89.72778483 463.00317184 -92.05411576 461.00424345 -93.8125 456.953125 C-99.3879129 425.05774489 -74.51639544 382.05776244 -57.05981445 356.97143555 C-53.65920941 352.16247224 -50.17407854 347.42761984 -46.60546875 342.7421875 C-42.11269056 336.75740189 -39.0128152 330.85681649 -39.4375 323.19921875 C-41.26599496 312.24729583 -49.61141733 304.26249887 -56.9375 296.515625 C-78.62962379 273.31694441 -92.8344101 245.03365237 -104.8125 215.953125 C-105.09867188 215.26814941 -105.38484375 214.58317383 -105.6796875 213.87744141 C-112.88663998 196.47996516 -117.28461621 178.00254965 -120.625 159.515625 C-120.819729 158.44086914 -121.01445801 157.36611328 -121.21508789 156.25878906 C-124.08359321 139.49994778 -125.14284848 122.99136175 -125.07324219 106.00073242 C-125.06249876 102.89026464 -125.07322082 99.7803726 -125.0859375 96.66992188 C-125.0944343 87.34385471 -124.94232961 78.05762035 -124.046875 68.76953125 C-123.98614807 68.04499252 -123.92542114 67.3204538 -123.862854 66.57395935 C-123.33551128 61.92501871 -122.20126002 59.19198902 -118.8125 55.953125 C-114.36632603 53.30414873 -109.5256471 53.63022698 -104.49609375 53.6171875 C-103.60261734 53.6105307 -102.70914093 53.6038739 -101.78858948 53.59701538 C-99.90506035 53.5869157 -98.02149563 53.58219753 -96.13793945 53.58251953 C-93.25607752 53.57813425 -90.37573308 53.54175403 -87.49414062 53.50390625 C-85.66146356 53.49803995 -83.82877924 53.49406931 -81.99609375 53.4921875 C-81.13559921 53.47781647 -80.27510468 53.46344543 -79.38853455 53.44863892 C-75.62902852 53.4773969 -73.46495274 53.5263359 -70.26782227 55.61767578 C-68.44154063 58.54842736 -68.3286907 60.33589799 -68.34375 63.78125 C-68.3269519 65.54505005 -68.3269519 65.54505005 -68.30981445 67.34448242 C-68.3111438 69.2545105 -68.3111438 69.2545105 -68.3125 71.203125 C-67.66224636 117.51437378 -58.89081975 170.13078737 -28.8125 206.953125 C-24.88286624 208.91794188 -19.81039238 207.56150576 -15.734375 206.3203125 C-12.30807607 204.95267217 -10.89876688 204.08252533 -8.8125 200.953125 C-8.25251499 193.72397182 -11.54140697 187.44852743 -14.625 181.140625 C-15.63069071 179.01578104 -16.63316586 176.88941287 -17.6328125 174.76171875 C-18.41640137 173.09858643 -18.41640137 173.09858643 -19.21582031 171.40185547 C-23.52908035 162.0854776 -27.47942416 152.60529767 -31.45947266 143.14306641 C-32.66050767 140.31146707 -33.89196035 137.49614851 -35.13671875 134.68359375 C-40.97936734 121.20649682 -44.02504746 107.3390218 -46.8125 92.953125 C-47.07353516 91.62547119 -47.07353516 91.62547119 -47.33984375 90.27099609 C-50.14990813 75.81716287 -51.04391189 61.73902747 -51.10766602 47.0456543 C-51.11925598 45.18685334 -51.13981658 43.32808743 -51.16918945 41.46948242 C-51.21197435 38.75156583 -51.22803888 36.03461811 -51.23828125 33.31640625 C-51.25578934 32.49537918 -51.27329742 31.67435211 -51.29133606 30.82844543 C-51.26493946 23.74793194 -49.19443531 18.58579034 -44.4375 13.328125 C-39.24801709 9.42290806 -32.78105446 7.36459822 -26.8125 4.953125 C-24.62474024 4.01623133 -22.43722022 3.07877755 -20.25 2.140625 C-14.3312769 -0.39597061 -6.06008725 -3.50022281 0 0 Z " fill="#FEFEFE" transform="translate(684.8125,415.046875)"/>
<path d="M0 0 C1.45019531 0.49306641 1.45019531 0.49306641 2.9296875 0.99609375 C21.29564019 7.88928898 34.02216825 20.90917269 42.61328125 38.2578125 C46.64801796 47.56508125 48.37653458 56.18668404 48.3125 66.3125 C48.30512817 67.69779907 48.30512817 67.69779907 48.29760742 69.11108398 C48.17786697 76.10208445 47.38870929 82.39027832 45 89 C44.64808594 90.00160156 44.29617188 91.00320313 43.93359375 92.03515625 C41.22083981 99.11696604 37.68135627 105.05261657 33 111 C32.41605469 111.76054688 31.83210937 112.52109375 31.23046875 113.3046875 C20.5257532 126.3306361 4.5707905 134.58776702 -12 137 C-32.34701112 138.76819362 -49.85718326 134.7173308 -66.3125 122.125 C-79.93661998 110.59181928 -89.69247568 94.9260454 -92 77 C-93.34534968 55.98270021 -89.70335819 37.79131511 -75.921875 21.11328125 C-57.0220605 0.33116815 -27.17632307 -9.78506093 0 0 Z " fill="#FEFDFD" transform="translate(834,767)"/>
<path d="M0 0 C0.66 0.33 1.32 0.66 2 1 C2.70456437 3.37076906 3.28305545 5.68127736 3.8046875 8.09375 C3.96871567 8.82339966 4.13274384 9.55304932 4.30174255 10.30480957 C4.83634427 12.70108517 5.35678956 15.10012966 5.875 17.5 C6.0539682 18.31887695 6.2329364 19.13775391 6.41732788 19.98144531 C18.92400939 77.30870213 21.4147618 135.62258722 17 194 C16.93055176 194.98581055 16.86110352 195.97162109 16.78955078 196.98730469 C12.56589604 255.55961605 12.56589604 255.55961605 -4.0625 271.25 C-7 273 -7 273 -9.5 273.25 C-18.08151788 268.95924106 -21.29775354 258.89862776 -24.24609375 250.4140625 C-31.34284014 227.97785067 -33.57567071 203.37349954 -35 180 C-35.05639648 179.18257324 -35.11279297 178.36514648 -35.17089844 177.52294922 C-37.25171404 147.24031037 -36.12726859 117.15208128 -33 87 C-32.88785156 85.85096191 -32.77570313 84.70192383 -32.66015625 83.51806641 C-29.9059902 55.78514437 -20.4826503 20.4826503 0 0 Z " fill="#F84863" transform="translate(387,334)"/>
</svg>
