<?xml version="1.0" encoding="UTF-8"?>
<svg version="1.1" xmlns="http://www.w3.org/2000/svg" width="1040" height="1160">
<path d="M0 0 C3.41382056 0.00315174 6.8267649 -0.02034569 10.24047852 -0.0456543 C27.79483723 -0.09724712 44.544962 1.58623881 61.56274414 6.00317383 C63.05439087 6.38662964 63.05439087 6.38662964 64.57617188 6.77783203 C118.36034827 21.00745996 169.2668246 53.75720163 200.75024414 100.31567383 C201.25555664 101.06236328 201.76086914 101.80905273 202.28149414 102.57836914 C219.96881212 129.05407324 232.30185361 157.55598404 239.50024414 188.56567383 C239.69900146 189.41564941 239.89775879 190.265625 240.10253906 191.14135742 C243.4738137 206.32293107 244.09575212 221.07045773 244.06591797 236.56542969 C244.06276623 239.97925025 244.08626366 243.39219459 244.11157227 246.8059082 C244.16316509 264.36026692 242.47967916 281.11039169 238.06274414 298.12817383 C237.80710693 299.12260498 237.55146973 300.11703613 237.28808594 301.14160156 C227.76373956 337.14107591 210.8386941 369.84035595 186.58618164 398.08520508 C184.64432453 399.96287403 184.64432453 399.96287403 184.75024414 401.31567383 C185.91555664 401.46262695 187.08086914 401.60958008 188.28149414 401.76098633 C250.87443207 410.12528432 308.80591927 441.4168013 348.37988281 491.02368164 C350.94385105 494.38444489 353.382534 497.81424456 355.75024414 501.31567383 C356.25555664 502.06236328 356.76086914 502.80905273 357.28149414 503.57836914 C374.96881212 530.05407324 387.30185361 558.55598404 394.50024414 589.56567383 C394.69900146 590.41564941 394.89775879 591.265625 395.10253906 592.14135742 C398.4738137 607.32293107 399.09575212 622.07045773 399.06591797 637.56542969 C399.06276623 640.97925025 399.08626366 644.39219459 399.11157227 647.8059082 C399.16316509 665.36026692 397.47967916 682.11039169 393.06274414 699.12817383 C392.80710693 700.12260498 392.55146973 701.11703613 392.28808594 702.14160156 C378.05845801 755.92577795 345.30871634 806.83225429 298.75024414 838.31567383 C298.00355469 838.82098633 297.25686523 839.32629883 296.48754883 839.84692383 C270.01184473 857.53424181 241.50993393 869.8672833 210.50024414 877.06567383 C209.65026855 877.26443115 208.80029297 877.46318848 207.92456055 877.66796875 C192.7429869 881.03924339 177.99546024 881.6611818 162.50048828 881.63134766 C159.08666772 881.62819592 155.67372338 881.65169334 152.26000977 881.67700195 C134.70565105 881.72859478 117.95552628 880.04510885 100.93774414 875.62817383 C99.94331299 875.37253662 98.94888184 875.11689941 97.92431641 874.85351562 C82.66578334 870.81658018 68.01883038 865.63647922 53.75024414 858.87817383 C52.86780029 858.46027588 51.98535645 858.04237793 51.07617188 857.61181641 C43.01451013 853.66341485 35.39781496 849.000585 27.75024414 844.31567383 C27.73566162 845.33177734 27.7210791 846.34788086 27.70605469 847.39477539 C27.10788603 886.01974968 27.10788603 886.01974968 23.75024414 901.31567383 C23.55301758 902.22961914 23.35579102 903.14356445 23.15258789 904.08520508 C10.19692014 962.65723592 -22.8917256 1018.26294575 -73.24975586 1052.31567383 C-74.36979004 1053.07364258 -74.36979004 1053.07364258 -75.51245117 1053.84692383 C-101.98815527 1071.53424181 -130.49006607 1083.8672833 -161.49975586 1091.06567383 C-162.34973145 1091.26443115 -163.19970703 1091.46318848 -164.07543945 1091.66796875 C-179.2570131 1095.03924339 -194.00453976 1095.6611818 -209.49951172 1095.63134766 C-212.91333228 1095.62819592 -216.32627662 1095.65169334 -219.73999023 1095.67700195 C-237.29434895 1095.72859478 -254.04447372 1094.04510885 -271.06225586 1089.62817383 C-272.05668701 1089.37253662 -273.05111816 1089.11689941 -274.07568359 1088.85351562 C-327.85985998 1074.62388769 -378.76633632 1041.87414603 -410.24975586 995.31567383 C-410.75506836 994.56898438 -411.26038086 993.82229492 -411.78100586 993.05297852 C-429.46832384 966.57727441 -441.80136533 938.07536362 -448.99975586 907.06567383 C-449.29789185 905.79071045 -449.29789185 905.79071045 -449.60205078 904.48999023 C-452.97332542 889.30841659 -453.59526383 874.56088993 -453.56542969 859.06591797 C-453.56227795 855.6520974 -453.58577538 852.23915307 -453.61108398 848.82543945 C-453.66267681 831.27108073 -451.97919088 814.52095597 -447.56225586 797.50317383 C-447.30661865 796.50874268 -447.05098145 795.51431152 -446.78759766 794.48974609 C-437.09497244 757.85422287 -419.65522629 725.20137555 -395.24975586 696.31567383 C-395.9273999 696.19562988 -396.60504395 696.07558594 -397.30322266 695.9519043 C-461.3285122 684.47582592 -521.74729571 654.61098259 -560.40600586 600.47973633 C-561.36044624 599.09619327 -562.30822458 597.70803395 -563.24975586 596.31567383 C-563.75506836 595.56898438 -564.26038086 594.82229492 -564.78100586 594.05297852 C-582.46832384 567.57727441 -594.80136533 539.07536362 -601.99975586 508.06567383 C-602.19851318 507.21569824 -602.39727051 506.36572266 -602.60205078 505.48999023 C-605.97332542 490.30841659 -606.59526383 475.56088993 -606.56542969 460.06591797 C-606.56227795 456.6520974 -606.58577538 453.23915307 -606.61108398 449.82543945 C-606.66267681 432.27108073 -604.97919088 415.52095597 -600.56225586 398.50317383 C-600.17880005 397.0115271 -600.17880005 397.0115271 -599.78759766 395.48974609 C-585.55796973 341.7055697 -552.80822806 290.79909337 -506.24975586 259.31567383 C-505.50306641 258.81036133 -504.75637695 258.30504883 -503.98706055 257.78442383 C-477.51135644 240.09710585 -449.00944565 227.76406435 -417.99975586 220.56567383 C-416.72479248 220.26753784 -416.72479248 220.26753784 -415.42407227 219.96337891 C-400.24249862 216.59210427 -385.49497196 215.97016585 -370 216 C-366.58617944 216.00315174 -363.1732351 215.97965431 -359.75952148 215.9543457 C-342.20516277 215.90275288 -325.455038 217.58623881 -308.43725586 222.00317383 C-307.44282471 222.25881104 -306.44839355 222.51444824 -305.42382812 222.77783203 C-281.07598618 229.21951721 -258.52767155 238.85921772 -237.24975586 252.31567383 C-237.23517334 251.26927734 -237.22059082 250.22288086 -237.20556641 249.14477539 C-236.609516 209.51858846 -236.609516 209.51858846 -233.24975586 194.31567383 C-233.0525293 193.40317871 -232.85530273 192.49068359 -232.65209961 191.55053711 C-219.69814057 132.97653521 -186.6091381 77.36931613 -136.24975586 43.31567383 C-135.50306641 42.81036133 -134.75637695 42.30504883 -133.98706055 41.78442383 C-107.51135644 24.09710585 -79.00944565 11.76406435 -47.99975586 4.56567383 C-47.14978027 4.3669165 -46.29980469 4.16815918 -45.42407227 3.96337891 C-30.24249862 0.59210427 -15.49497196 -0.02983415 0 0 Z " fill="#000000" transform="translate(624.249755859375,33.684326171875)"/>
<path d="M0 0 C0.82132919 -0.00701431 1.64265839 -0.01402863 2.48887634 -0.02125549 C5.12154698 -0.03864922 7.75399278 -0.04510674 10.38671875 -0.046875 C11.73521912 -0.04788712 11.73521912 -0.04788712 13.11096191 -0.04891968 C26.00349892 -0.03352002 38.46064337 0.30426519 51.07421875 3.203125 C51.87021484 3.37473145 52.66621094 3.54633789 53.48632812 3.72314453 C90.85305775 11.85804151 125.02310176 29.08940648 152.59570312 55.77587891 C154.13266284 57.25954246 155.6892364 58.72084777 157.24609375 60.18359375 C190.8702513 92.25850676 215.0701762 142.77424822 216.23535156 189.5793457 C216.25483816 191.09580528 216.26862978 192.61234651 216.27734375 194.12890625 C216.28435806 194.95023544 216.29137238 195.77156464 216.29859924 196.61778259 C216.31599297 199.25045323 216.32245049 201.88289903 216.32421875 204.515625 C216.32489349 205.41462524 216.32556824 206.31362549 216.32626343 207.23986816 C216.31086377 220.13240517 215.97307856 232.58954962 213.07421875 245.203125 C212.9026123 245.99912109 212.73100586 246.79511719 212.55419922 247.61523438 C204.41930224 284.981964 187.18793727 319.15200801 160.50146484 346.72460938 C159.01780129 348.26156909 157.55649598 349.81814265 156.09375 351.375 C124.01883699 384.99915755 73.50309553 409.19908245 26.69799805 410.36425781 C25.18153847 410.38374441 23.66499724 410.39753603 22.1484375 410.40625 C21.32710831 410.41326431 20.50577911 410.42027863 19.65956116 410.42750549 C17.02689052 410.44489922 14.39444472 410.45135674 11.76171875 410.453125 C10.86271851 410.45379974 9.96371826 410.45447449 9.03747559 410.45516968 C-3.85506142 410.43977002 -16.31220587 410.10198481 -28.92578125 407.203125 C-29.72177734 407.03151855 -30.51777344 406.85991211 -31.33789062 406.68310547 C-68.70462025 398.54820849 -102.87466426 381.31684352 -130.44726562 354.63037109 C-131.98422534 353.14670754 -133.5407989 351.68540223 -135.09765625 350.22265625 C-168.7218138 318.14774324 -192.9217387 267.63200178 -194.08691406 220.8269043 C-194.10640066 219.31044472 -194.12019228 217.79390349 -194.12890625 216.27734375 C-194.13592056 215.45601456 -194.14293488 214.63468536 -194.15016174 213.78846741 C-194.16755547 211.15579677 -194.17401299 208.52335097 -194.17578125 205.890625 C-194.17645599 204.99162476 -194.17713074 204.09262451 -194.17782593 203.16638184 C-194.16242627 190.27384483 -193.82464106 177.81670038 -190.92578125 165.203125 C-190.7541748 164.40712891 -190.58256836 163.61113281 -190.40576172 162.79101562 C-182.27086474 125.424286 -165.03949977 91.25424199 -138.35302734 63.68164062 C-136.86936379 62.14468091 -135.40805848 60.58810735 -133.9453125 59.03125 C-100.59218102 24.06713499 -48.5428131 0.27892109 0 0 Z " fill="#555760" transform="translate(616.92578125,68.796875)"/>
<path d="M0 0 C1.17607819 -0.01469078 1.17607819 -0.01469078 2.37591553 -0.02967834 C62.52232968 -0.62530116 113.69990441 18.94044564 157.6015625 60.23828125 C158.36082031 60.93179688 159.12007812 61.6253125 159.90234375 62.33984375 C192.68329408 93.38286436 215.3770747 144.29576423 216.77856445 189.31396484 C216.80469261 190.7547907 216.82486956 192.19573381 216.83984375 193.63671875 C216.8496376 194.42077087 216.85943146 195.204823 216.86952209 196.01263428 C217.46544235 256.18908416 197.88010934 307.29660236 156.6015625 351.23828125 C156.02019531 351.87378906 155.43882812 352.50929688 154.83984375 353.1640625 C149.07723804 359.24600656 142.24561922 364.17306672 135.6015625 369.23828125 C134.69277344 369.94210937 133.78398438 370.6459375 132.84765625 371.37109375 C109.01189801 389.34798623 80.70563058 401.13553809 51.6015625 407.23828125 C50.84375488 407.40344238 50.08594727 407.56860352 49.30517578 407.73876953 C-1.101518 418.25965727 -56.54959307 406.13367608 -99.5859375 378.61328125 C-118.8001172 365.90769273 -136.4542903 350.64353587 -150.3984375 332.23828125 C-150.9850415 331.46629395 -150.9850415 331.46629395 -151.58349609 330.67871094 C-170.72034848 305.28922361 -183.87534447 276.3470038 -190.3984375 245.23828125 C-190.56359863 244.48047363 -190.72875977 243.72266602 -190.89892578 242.94189453 C-201.41138429 192.57558609 -189.37516406 136.78226252 -161.6328125 93.875 C-131.2088098 48.24165307 -85.16730951 15.23703882 -31.20605469 3.95825195 C-20.81653667 1.89307835 -10.60866456 0.11024139 0 0 Z " fill="#54565F" transform="translate(399.3984375,683.76171875)"/>
<path d="M0 0 C1.17607819 -0.01469078 1.17607819 -0.01469078 2.37591553 -0.02967834 C62.52232968 -0.62530116 113.69990441 18.94044564 157.6015625 60.23828125 C158.36082031 60.93179688 159.12007812 61.6253125 159.90234375 62.33984375 C192.68329408 93.38286436 215.3770747 144.29576423 216.77856445 189.31396484 C216.80469261 190.7547907 216.82486956 192.19573381 216.83984375 193.63671875 C216.8496376 194.42077087 216.85943146 195.204823 216.86952209 196.01263428 C217.46544235 256.18908416 197.88010934 307.29660236 156.6015625 351.23828125 C156.02019531 351.87378906 155.43882812 352.50929688 154.83984375 353.1640625 C149.07723804 359.24600656 142.24561922 364.17306672 135.6015625 369.23828125 C134.69277344 369.94210937 133.78398438 370.6459375 132.84765625 371.37109375 C109.01189801 389.34798623 80.70563058 401.13553809 51.6015625 407.23828125 C50.84375488 407.40344238 50.08594727 407.56860352 49.30517578 407.73876953 C-1.101518 418.25965727 -56.54959307 406.13367608 -99.5859375 378.61328125 C-118.8001172 365.90769273 -136.4542903 350.64353587 -150.3984375 332.23828125 C-150.9850415 331.46629395 -150.9850415 331.46629395 -151.58349609 330.67871094 C-170.72034848 305.28922361 -183.87534447 276.3470038 -190.3984375 245.23828125 C-190.56359863 244.48047363 -190.72875977 243.72266602 -190.89892578 242.94189453 C-201.41138429 192.57558609 -189.37516406 136.78226252 -161.6328125 93.875 C-131.2088098 48.24165307 -85.16730951 15.23703882 -31.20605469 3.95825195 C-20.81653667 1.89307835 -10.60866456 0.11024139 0 0 Z " fill="#54565F" transform="translate(771.3984375,469.76171875)"/>
<path d="M0 0 C1.17607819 -0.01469078 1.17607819 -0.01469078 2.37591553 -0.02967834 C62.52232968 -0.62530116 113.69990441 18.94044564 157.6015625 60.23828125 C158.36082031 60.93179688 159.12007813 61.6253125 159.90234375 62.33984375 C192.68329408 93.38286436 215.3770747 144.29576423 216.77856445 189.31396484 C216.80469261 190.7547907 216.82486956 192.19573381 216.83984375 193.63671875 C216.8496376 194.42077087 216.85943146 195.204823 216.86952209 196.01263428 C217.46544235 256.18908416 197.88010934 307.29660236 156.6015625 351.23828125 C156.02019531 351.87378906 155.43882812 352.50929688 154.83984375 353.1640625 C149.07723804 359.24600656 142.24561922 364.17306672 135.6015625 369.23828125 C134.69277344 369.94210937 133.78398437 370.6459375 132.84765625 371.37109375 C109.01189801 389.34798623 80.70563058 401.13553809 51.6015625 407.23828125 C50.84375488 407.40344238 50.08594727 407.56860352 49.30517578 407.73876953 C-1.101518 418.25965727 -56.54959307 406.13367608 -99.5859375 378.61328125 C-118.8001172 365.90769273 -136.4542903 350.64353587 -150.3984375 332.23828125 C-150.9850415 331.46629395 -150.9850415 331.46629395 -151.58349609 330.67871094 C-170.72034848 305.28922361 -183.87534447 276.3470038 -190.3984375 245.23828125 C-190.56359863 244.48047363 -190.72875977 243.72266602 -190.89892578 242.94189453 C-201.41138429 192.57558609 -189.37516406 136.78226252 -161.6328125 93.875 C-131.2088098 48.24165307 -85.16730951 15.23703882 -31.20605469 3.95825195 C-20.81653667 1.89307835 -10.60866456 0.11024139 0 0 Z " fill="#54565F" transform="translate(246.3984375,284.76171875)"/>
</svg>
