<?xml version="1.0" encoding="UTF-8"?>
<svg version="1.1" xmlns="http://www.w3.org/2000/svg" width="1040" height="1040">
<path d="M0 0 C1.05574219 0.51949219 2.11148438 1.03898437 3.19921875 1.57421875 C10.35664009 5.42683325 16.26273584 10.27305466 22 16 C22.55171875 16.54011719 23.1034375 17.08023438 23.671875 17.63671875 C38.59687431 33.56474221 40.59806703 52.04034895 40.45410156 72.77270508 C40.45297168 75.06030762 40.4536097 77.34791161 40.45587158 79.63551331 C40.45701413 85.81236125 40.43357905 91.98889531 40.40557575 98.16567063 C40.38048551 104.63319171 40.37821409 111.10072084 40.37347412 117.56828308 C40.36247433 128.41285242 40.33752928 139.25729373 40.30175781 150.10180664 C40.26497196 161.26553786 40.23669251 172.42923789 40.21972656 183.59301758 C40.21867567 184.28258515 40.21762477 184.97215272 40.21654204 185.68261627 C40.21132142 189.14240236 40.2062667 192.60218867 40.20129442 196.06197512 C40.15991119 224.7080606 40.08923223 253.35402581 40 282 C40.78334351 281.99674487 41.56668702 281.99348974 42.37376821 281.99013597 C88.8028378 281.79758832 135.2319445 281.62084545 181.66115125 281.46462174 C187.23617805 281.44584938 192.81120439 281.42694499 198.38623047 281.40795898 C200.05105885 281.40229267 200.05105885 281.40229267 201.74952014 281.39651188 C219.71974631 281.33503455 237.68991441 281.26286226 255.66008382 281.1867362 C274.09964246 281.10885981 292.53921666 281.0424797 310.97885573 280.98676747 C322.35674606 280.95202889 333.73452944 280.90832772 345.11233933 280.85315516 C352.91492374 280.81617843 360.71749535 280.79037041 368.52014856 280.77332608 C373.02160723 280.76316373 377.52290793 280.74809552 382.02429199 280.71975899 C386.14883282 280.69390358 390.27316985 280.68213588 394.39778943 280.68137112 C395.88653651 280.67864429 397.37528521 280.67083496 398.8639733 280.65730528 C414.54336103 280.52067601 428.06077436 284.25665063 439.83081055 295.16870117 C451.99340747 307.13131231 457.94219842 321.14232117 458.13142776 338.13213444 C458.1395246 340.63984125 458.14212242 343.14756937 458.14044189 345.6552887 C458.14302812 347.05378534 458.14604199 348.45228124 458.1494453 349.85077614 C458.15748845 353.68447093 458.15930337 357.51814697 458.16004276 361.3518492 C458.16189802 365.49041532 458.16944775 369.62897182 458.17617798 373.76753235 C458.18974302 382.81322257 458.19578325 391.85890836 458.20018864 400.90460706 C458.20295431 406.55670023 458.20719227 412.20879169 458.21169281 417.86088371 C458.22388339 433.52093301 458.23418292 449.18098095 458.2375679 464.84103489 C458.23778747 465.842755 458.23800703 466.84447511 458.23823325 467.87655037 C458.23845153 468.88061956 458.23866981 469.88468874 458.2388947 470.91918427 C458.23933816 472.95369121 458.23978472 474.98819814 458.24023438 477.02270508 C458.2404558 478.03188324 458.24067723 479.04106141 458.24090537 480.08082073 C458.24485148 496.42478382 458.26230073 512.76870228 458.2855939 529.11264814 C458.3093353 545.90718342 458.32177103 562.70169633 458.32293582 579.49624866 C458.32385104 588.91989794 458.32956479 598.34348906 458.34775543 607.76712227 C458.36319413 615.79320358 458.36825472 623.81920876 458.36001733 631.84530211 C458.35612406 635.93615583 458.35697528 640.0268564 458.37107468 644.11769104 C458.38389353 647.8715078 458.38254692 651.6250576 458.37048396 655.37887441 C458.36762857 657.36147285 458.37940194 659.34407626 458.39190602 661.32663733 C458.29838582 678.46880302 454.34068558 693.20883363 442.27734375 705.75390625 C441.52582031 706.49511719 440.77429688 707.23632812 440 708 C439.36191406 708.64839844 438.72382812 709.29679688 438.06640625 709.96484375 C426.13383577 721.3020261 412.67290408 723.31197341 396.91540527 723.20254517 C395.37407668 723.19928402 393.83274599 723.19691191 392.29141474 723.1953491 C388.06804061 723.18850628 383.84480432 723.16909051 379.62148285 723.14758825 C375.06263678 723.12659206 370.50376497 723.11730346 365.94488525 723.10658264 C358.05031704 723.08641993 350.15580252 723.05886319 342.26127625 723.02626419 C330.84716335 722.97914243 319.43303671 722.94320325 308.0188759 722.90998094 C289.49953257 722.85577499 270.98023152 722.79254307 252.4609375 722.72363281 C234.47266991 722.65671784 216.48439578 722.59405511 198.49609375 722.53710938 C197.38703318 722.53359693 196.27797262 722.53008449 195.13530415 722.52646561 C189.57139494 722.5088707 184.00748547 722.49135937 178.44357586 722.47388959 C132.29566993 722.32888452 86.14782302 722.16923023 40 722 C40.00460896 723.181839 40.00921793 724.363678 40.01396656 725.5813303 C40.12244801 753.68760438 40.20479845 781.79386801 40.25532665 809.90030676 C40.26157957 813.36591126 40.26805124 816.83151531 40.2746582 820.29711914 C40.27596976 820.98700711 40.27728131 821.67689508 40.2786326 822.38768875 C40.30034055 833.53238239 40.33973634 844.676946 40.38576398 855.82156271 C40.43265758 867.27205291 40.45994869 878.72243798 40.47044247 890.17302698 C40.47694388 896.59834589 40.49215547 903.02337067 40.52865028 909.44859505 C40.56277061 915.50525543 40.57302053 921.56150252 40.56553841 927.61824989 C40.56690579 929.8324636 40.57674177 932.04669216 40.59602737 934.2608223 C40.77386627 955.74498372 36.46479928 972.73698668 21.16796875 988.828125 C20.45253906 989.54484375 19.73710938 990.2615625 19 991 C18.45988281 991.55171875 17.91976562 992.1034375 17.36328125 992.671875 C4.31490781 1004.89856246 -12.35470719 1009.7671084 -29.875 1009.5625 C-30.53264343 1009.55824005 -31.19028687 1009.5539801 -31.86785889 1009.54959106 C-42.12128134 1009.45721087 -50.74408813 1008.69330576 -60 1004 C-61.05574219 1003.48050781 -62.11148437 1002.96101562 -63.19921875 1002.42578125 C-74.30112831 996.44997297 -82.93891377 987.21200571 -91.76651001 978.34701538 C-93.16130917 976.95243951 -93.16130917 976.95243951 -94.58428609 975.52969038 C-97.136651 972.97761795 -99.68591424 970.42246768 -102.23464251 967.86676407 C-104.9948952 965.10008783 -107.75809846 962.33636112 -110.52095032 959.57228088 C-115.29962632 954.79072916 -120.07652571 950.00740864 -124.85225296 945.22291183 C-131.76521058 938.29735412 -138.6814462 931.37507725 -145.59856026 924.45367117 C-156.83406954 913.21110735 -168.06770821 901.96667653 -179.29980469 890.72070312 C-179.97092074 890.04875926 -180.6420368 889.37681539 -181.3334897 888.68450959 C-186.09737604 883.91472257 -190.86119536 879.14486862 -195.625 874.375 C-201.0702654 868.92280452 -206.51556236 863.47064056 -211.9609375 858.01855469 C-212.63183504 857.34682903 -213.30273257 856.67510336 -213.99396034 855.98302238 C-225.18869689 844.7745902 -236.38540463 833.56812915 -247.58351457 822.36306727 C-254.48192238 815.46018575 -261.37854939 808.5555342 -268.27286826 801.64856876 C-272.99615107 796.91684665 -277.72121214 792.18690527 -282.44766356 787.45834826 C-285.17197446 784.73269554 -287.89545538 782.00622677 -290.6167202 779.27753258 C-293.57091481 776.31530333 -296.52900503 773.35699437 -299.48745728 770.39901733 C-300.76713928 769.11394289 -300.76713928 769.11394289 -302.07267344 767.80290735 C-306.27153734 763.6112524 -310.54671428 759.5977911 -315.04259455 755.72785032 C-318.60136567 752.58643482 -321.9378669 749.22090531 -325.29769897 745.86965942 C-326.09377143 745.07938036 -326.88984388 744.28910129 -327.71003973 743.47487438 C-330.35901362 740.84384113 -333.00448961 738.20932051 -335.64990234 735.57470703 C-337.06977751 734.1631649 -338.48965596 732.75162605 -339.90976976 731.340324 C-346.64037829 724.65139208 -353.36386741 717.95532358 -360.0859375 711.2578125 C-360.61741774 710.72830716 -361.14889797 710.19880183 -361.69648367 709.65325087 C-372.27255283 699.11637501 -382.84584224 688.57671309 -393.41345787 678.03135872 C-395.73132786 675.71845698 -398.04923592 673.40559341 -400.3671875 671.09277344 C-400.94321026 670.51802134 -401.51923303 669.94326925 -402.11271103 669.35110043 C-411.43532675 660.04982567 -420.7716778 650.76246313 -430.11361067 641.48059441 C-439.72989977 631.9256198 -449.33274202 622.35728933 -458.92305148 612.77623832 C-464.29781737 607.40735664 -469.6782375 602.0444294 -475.07401657 596.69665909 C-479.67066294 592.14087737 -484.25495924 587.57309505 -488.82420109 582.98982175 C-491.14991494 580.65769925 -493.48252557 578.3333617 -495.82740593 576.02049065 C-515.49720868 556.60492894 -529.99424425 534.90779485 -530.38110352 506.38476562 C-530.35210312 490.00534153 -528.61856107 477.08857065 -521.8125 462.1875 C-521.47484619 461.44693359 -521.13719238 460.70636719 -520.78930664 459.94335938 C-513.35888788 444.75064212 -500.83966413 433.42081546 -489.02124023 421.66479492 C-487.09055888 419.73498949 -485.16214145 417.80292733 -483.23361206 415.87097168 C-478.55998733 411.19174644 -473.87849459 406.52047202 -469.19424158 401.85188916 C-463.7307061 396.40598599 -458.2753301 390.95193888 -452.82027758 385.49754075 C-443.08392131 375.76286821 -433.34054385 366.03525429 -423.59301758 356.31176758 C-414.14941341 346.89143629 -404.71037996 337.46655802 -395.27661133 328.03637695 C-394.69506094 327.45504933 -394.11351054 326.8737217 -393.51433741 326.27477809 C-392.34266247 325.10354577 -391.17098782 323.93231315 -389.99931348 322.76108022 C-389.13220189 321.89429799 -389.13220189 321.89429799 -388.2475729 321.010005 C-387.3825533 320.14530938 -387.3825533 320.14530938 -386.50005856 319.26314516 C-377.48602822 310.25282099 -368.46817415 301.24632435 -359.44979284 292.24035534 C-356.18957612 288.98456205 -352.92984973 285.72827877 -349.67046648 282.4716511 C-344.50152858 277.30715744 -339.33091186 272.14435663 -334.15694337 266.9849024 C-331.79524013 264.62977519 -329.43455417 262.27365353 -327.07547569 259.91589546 C-324.51273859 257.35491411 -321.94694718 254.79703178 -319.38035583 252.23991394 C-318.64328083 251.50197245 -317.90620582 250.76403097 -317.14679521 250.00372761 C-313.87388941 246.74886887 -310.57137366 243.58618955 -307.07187271 240.57523727 C-302.30879294 236.46233988 -297.90127939 232.02066496 -293.46968079 227.55628967 C-292.5409678 226.62490329 -291.61225482 225.6935169 -290.65539902 224.73390669 C-288.62867156 222.70130431 -286.60356559 220.66710512 -284.57971954 218.63163376 C-281.28543504 215.31844572 -277.98758868 212.0088172 -274.6893158 208.69960022 C-270.51987317 204.51579813 -266.3513861 200.33104781 -262.18402418 196.14517318 C-253.99197702 187.9167562 -245.79365212 179.69461965 -237.59306335 171.47471619 C-236.29961753 170.17816006 -235.0061754 168.88160025 -233.7127369 167.58503681 C-231.75287281 165.62044717 -229.79300503 163.6558612 -227.83312247 161.69128998 C-220.45419646 154.29466118 -213.07596435 146.89734062 -205.69848633 139.49926758 C-205.02456021 138.8234644 -204.35063409 138.14766123 -203.65628596 137.45137917 C-192.73792068 126.50212999 -181.82696431 115.54552328 -170.91826925 104.58664078 C-159.70051113 93.31771457 -148.47314329 82.05842521 -137.23730153 70.80752939 C-130.3171588 63.8774454 -123.40477785 56.93980168 -116.50232562 49.99209677 C-111.76764912 45.22775334 -107.02377196 40.47269948 -102.27269993 35.72470624 C-99.53656407 32.98978312 -96.8045763 30.25104189 -94.08359909 27.50102997 C-91.5854852 24.97643234 -89.07574985 22.46398817 -86.55684581 19.96013861 C-85.23225141 18.63760376 -83.91989258 17.30284775 -82.60823041 15.96748596 C-74.69501652 8.14492607 -65.48455692 1.8093053 -54.9375 -1.9375 C-53.37322266 -2.50791016 -53.37322266 -2.50791016 -51.77734375 -3.08984375 C-36.66389633 -8.04263313 -14.12585021 -7.16265832 0 0 Z " fill="#FEFEFE" transform="translate(555,21)"/>
<path d="M0 0 C0.00238835 1.03828855 0.00477671 2.07657709 0.00723743 3.14632893 C0.06597187 28.38333714 0.14181696 53.62024942 0.23571491 78.85715199 C0.28072465 91.06141612 0.3201273 103.26565074 0.34643555 115.4699707 C0.36937376 126.10439524 0.40272477 136.73872675 0.44870156 147.37307757 C0.47269025 153.00647701 0.49138196 158.63978401 0.49761391 164.27323341 C0.50363929 169.57145878 0.52354638 174.86944744 0.55427551 180.16758537 C0.56309675 182.11589035 0.56676993 184.06422621 0.56500816 186.01255035 C0.56336613 188.66548892 0.57996235 191.3176966 0.60127258 193.97053528 C0.59642501 194.74776831 0.59157743 195.52500134 0.58658296 196.32578689 C0.59581339 200.20748213 0.59581339 200.20748213 2.09590054 203.69619322 C4.97918061 205.6704809 7.3811561 205.37953144 10.85035229 205.38476086 C11.5544889 205.38991076 12.25862551 205.39506067 12.9840996 205.40036663 C15.3614975 205.41406473 17.73834978 205.40627896 20.11576843 205.39872742 C21.83015428 205.40416264 23.54453639 205.41091241 25.25891238 205.41886932 C29.98383079 205.43696984 34.70859265 205.4363284 39.4335376 205.43273985 C44.52353807 205.43211807 49.61348505 205.44871659 54.70346069 205.46325684 C63.52681049 205.48608955 72.35012068 205.49793598 81.17349815 205.50238609 C93.93071598 205.50883603 106.68786207 205.53175299 119.44505105 205.55872939 C140.14117305 205.60204447 160.83729204 205.63198423 181.53344727 205.65356445 C201.64153528 205.67456002 221.7495985 205.70185697 241.85766602 205.73754883 C243.10912578 205.73976234 244.36058554 205.74197585 245.64996833 205.74425644 C255.43675363 205.76161606 265.22353826 205.77934196 275.01032269 205.79718363 C323.00686642 205.88458925 371.00339898 205.94003785 419 206 C419 268.04 419 330.08 419 394 C389.07699219 394.03738281 359.15398438 394.07476563 328.32421875 394.11328125 C309.42512574 394.14353882 290.52603827 394.17453064 271.62695312 394.20898438 C261.70385782 394.22703563 251.78076221 394.24489976 241.85766602 394.26245117 C239.99201586 394.2657627 239.99201586 394.2657627 238.0886758 394.26914114 C217.98652843 394.30454946 197.8843811 394.32938616 177.78221407 394.35034702 C157.1650983 394.37207904 136.54802313 394.4051046 115.93094188 394.44870156 C103.20033364 394.47526316 90.46977604 394.49292529 77.73914144 394.49934604 C69.01940856 394.50458617 60.2997395 394.52075659 51.58004078 394.54566566 C46.54280015 394.55972799 41.50567389 394.56883391 36.4684124 394.56500816 C31.86245446 394.56161589 27.25674142 394.57185819 22.6508337 394.59323552 C20.97919817 394.5985352 19.3075374 394.59870535 17.63590189 394.59339563 C15.37375498 394.5869388 13.1124303 394.59869478 10.85035229 394.61523914 C8.96105378 394.61808705 8.96105378 394.61808705 7.03358763 394.62099248 C4.03876403 394.759809 4.03876403 394.759809 2.09590054 396.30380678 C0.18993047 399.25379484 0.5800627 402.62879131 0.60127258 406.02946472 C0.59462576 406.85690557 0.58797893 407.68434642 0.58113068 408.53686124 C0.56242598 411.31921292 0.56511097 414.1011374 0.56762695 416.88354492 C0.55861435 418.87411612 0.54828838 420.86468175 0.53674316 422.85523987 C0.50908813 428.26812725 0.49987712 433.68090958 0.49388909 439.09385848 C0.48452751 444.74737345 0.45832599 450.40080925 0.43388367 456.05427551 C0.39015386 466.76394848 0.36164673 477.47360614 0.33856028 488.18334132 C0.31154331 500.37427634 0.26762968 512.56513198 0.22227156 524.75601041 C0.12933247 549.83729728 0.0576942 574.91860905 0 600 C-4.22026361 598.3546941 -7.03922308 595.23015773 -10.159729 592.0740509 C-10.77411858 591.46066461 -11.38850816 590.84727831 -12.02151561 590.21530455 C-14.08195134 588.15582247 -16.1351493 586.08927266 -18.18847656 584.02270508 C-19.66331524 582.54566541 -21.13860197 581.06907302 -22.61430359 579.59289551 C-25.79345713 576.41080626 -28.96942497 573.22558259 -32.14298248 570.03791237 C-37.16439347 564.99424459 -42.19287409 559.95766552 -47.22235107 554.92204285 C-55.18153413 546.95147068 -63.13603378 538.97624326 -71.08851314 530.99898309 C-85.31557673 516.72765423 -99.54813299 502.46180859 -113.78599715 488.20125502 C-118.78073273 483.19812856 -123.77264476 478.19220684 -128.76228285 473.1839968 C-131.87387983 470.06172149 -134.9875352 466.94150482 -138.10169411 463.82178497 C-139.5408642 462.37915773 -140.97916248 460.93566014 -142.416502 459.49120903 C-151.41367432 450.4243525 -151.41367432 450.4243525 -160.89655685 441.87606144 C-166.38289981 436.98279085 -171.47905692 431.64951253 -176.66796875 426.44555664 C-178.0383745 425.07486845 -179.40900122 423.70440115 -180.77983093 422.33413696 C-184.48189429 418.63235934 -188.18087637 414.9275168 -191.87929535 411.22209859 C-195.75187906 407.34324398 -199.62731373 403.46723992 -203.50244141 399.59092712 C-210.8317475 392.25851871 -218.15850174 384.92356593 -225.48433304 377.587686 C-233.82820583 369.23261789 -242.17493403 360.88040482 -250.52189827 352.52842534 C-267.68443511 335.355449 -284.84339932 318.17890669 -302 301 C-300.37640593 296.91349361 -297.44948558 294.17332735 -294.38449097 291.13725281 C-293.5144725 290.26361272 -293.5144725 290.26361272 -292.6268779 289.37232333 C-290.68029882 287.42010452 -288.72664752 285.47512157 -286.77294922 283.5300293 C-285.37636272 282.13236994 -283.98020928 280.73427775 -282.5844574 279.33578491 C-278.78914735 275.5356221 -274.98760663 271.74174859 -271.18480444 267.949085 C-267.20407627 263.97713858 -263.22861928 259.99992281 -259.25247192 256.02339172 C-252.56918028 249.3410372 -245.88202477 242.66256922 -239.19238281 235.98657227 C-231.46840024 228.27828677 -223.74962764 220.56481619 -216.03385723 212.84831113 C-207.81274635 204.6265233 -199.58782524 196.40855525 -191.36179209 188.19169259 C-188.99657993 185.82860723 -186.63207504 183.46481613 -184.2677269 181.10086632 C-180.54206366 177.3762119 -176.81384487 173.65413372 -173.08368111 169.93398666 C-171.71873359 168.57194636 -170.3546151 167.20907465 -168.99141121 165.84528923 C-157.40235775 154.25316462 -157.40235775 154.25316462 -153.02294922 150.5269165 C-146.52801201 144.98884372 -140.64494164 138.75725233 -134.62939453 132.71118164 C-133.18343384 131.26166048 -131.737235 129.81237685 -130.29081726 128.36331177 C-127.18965083 125.25562046 -124.09000016 122.14642807 -120.99148941 119.03608894 C-116.09556682 114.12182202 -111.1952537 109.21194911 -106.29415894 104.30284119 C-92.36291908 90.34748396 -78.43765914 76.38616849 -64.51660156 62.4206543 C-56.8182822 54.69782808 -49.11640571 46.97856725 -41.41065872 39.26315206 C-36.53319516 34.37913153 -31.66028017 29.49063075 -26.79063725 24.59881318 C-23.77054367 21.56703411 -20.74632039 18.53940161 -17.72088051 15.51295853 C-16.3138013 14.10372259 -14.90845542 12.69275365 -13.5049305 11.2799778 C-11.59695426 9.35990795 -9.6830055 7.44600275 -7.7673645 5.53358459 C-7.20667774 4.96639003 -6.64599098 4.39919547 -6.06831372 3.8148132 C-2.22821532 0 -2.22821532 0 0 0 Z " fill="#FEFEFE" transform="translate(469,223)"/>
<path d="M0 0 C2.19649887 1.45797348 2.19649887 1.45797348 4 4 C4.5844343 6.9943513 4.52224145 9.94246115 4.48101807 12.98492432 C4.48443577 13.90305774 4.48785347 14.82119117 4.49137473 15.76714683 C4.49797521 18.85061375 4.47594147 21.93321454 4.45410156 25.01660156 C4.45297356 27.22405985 4.45360603 29.43151964 4.45587158 31.63897705 C4.45702147 37.63867972 4.43346736 43.63806394 4.40557575 49.63769245 C4.38060807 55.9050721 4.37822375 62.17245866 4.37347412 68.43988037 C4.36244542 78.96160025 4.3374432 89.48322142 4.30175781 100.00488281 C4.26504035 110.84211644 4.23672732 121.67931829 4.21972656 132.51660156 C4.21867567 133.18463768 4.21762477 133.85267379 4.21654204 134.54095343 C4.21132188 137.89230265 4.20626705 141.2436521 4.20129442 144.5950017 C4.15945923 172.39674934 4.0890806 200.19836645 4 228 C4.89565225 227.99848112 5.79130451 227.99696224 6.71409774 227.99539733 C59.75638815 227.90595321 112.7986706 227.83728829 165.84102128 227.79573868 C172.20488671 227.79073564 178.56875199 227.78555838 184.93261719 227.78027344 C186.19958861 227.7792242 187.46656003 227.77817495 188.77192453 227.77709392 C209.306934 227.75967202 229.84189884 227.72812452 250.37688181 227.69138882 C271.43580943 227.65402903 292.49471362 227.63177467 313.55367303 227.62364602 C326.55610402 227.61814794 339.55840888 227.60076099 352.56080106 227.56833413 C361.46787682 227.54724747 370.37488704 227.54078665 379.28198597 227.54599449 C384.42674508 227.5485654 389.57128324 227.54452778 394.71600342 227.5231781 C399.42133937 227.50379359 404.12630462 227.50267698 408.8316572 227.51640442 C410.53831939 227.51810243 412.24500419 227.51295974 413.9516215 227.50046727 C416.26355502 227.48452119 418.57413289 227.49299876 420.88604355 227.50780869 C422.81578227 227.50553036 422.81578227 227.50553036 424.78450561 227.50320601 C428 228 428 228 430.41316199 229.7508204 C432.19386112 232.2747782 432.50080391 233.42722253 432.50336456 236.47906494 C432.51379555 237.37631161 432.52422654 238.27355827 432.53497362 239.19799423 C432.52605073 240.17969715 432.51712785 241.16140007 432.50793457 242.17285156 C432.51417453 243.2188364 432.5204145 244.26482124 432.52684355 245.34250259 C432.54283952 248.8587705 432.530143 252.37435155 432.51757812 255.890625 C432.52299628 258.40686448 432.53011721 260.92310079 432.53881836 263.43933105 C432.55519187 269.57104603 432.55275743 275.70250529 432.5411678 281.83422375 C432.53213927 286.8169484 432.53090694 291.79961815 432.53526306 296.78234863 C432.53587599 297.49114426 432.53648893 298.19993989 432.53712043 298.93021417 C432.53839932 300.37005712 432.53969617 301.80990006 432.5410108 303.24974298 C432.55242074 316.75553385 432.53929643 330.26121617 432.51780933 343.76698923 C432.49993794 355.35903677 432.50304193 366.9509241 432.52148438 378.54296875 C432.54288382 391.99996962 432.55132207 405.45687533 432.53903532 418.91389084 C432.53776111 420.34847767 432.53650362 421.78306451 432.53526306 423.21765137 C432.53464596 423.9235208 432.53402886 424.62939023 432.53339306 425.35664964 C432.52993736 430.33418449 432.5357732 435.31165905 432.54518127 440.28918457 C432.55756226 446.98690211 432.54876498 453.68426977 432.52560425 460.38197327 C432.52030223 462.84427892 432.52185626 465.30660999 432.53065491 467.76890564 C432.54153457 471.12200132 432.52793754 474.47411581 432.50793457 477.82714844 C432.51685746 478.80885136 432.52578034 479.79055428 432.53497362 480.80200577 C432.52454263 481.69925243 432.51411164 482.5964991 432.50336456 483.52093506 C432.50271515 484.29491512 432.50206574 485.06889519 432.50139666 485.86632919 C431.76652378 488.99354748 430.58886273 490.12170352 428 492 C424.78450561 492.49679399 424.78450561 492.49679399 420.88604355 492.49219131 C420.16555773 492.49680669 419.44507191 492.50142207 418.70275319 492.50617731 C416.2755683 492.51681021 413.84943348 492.49878471 411.42230225 492.48101807 C409.66993214 492.48276155 407.91756304 492.48626237 406.16519952 492.49137473 C401.33983682 492.50034227 396.51482752 492.4842867 391.68950987 492.46426249 C386.48980418 492.44702744 381.29011927 492.45283139 376.09039307 492.45587158 C367.07821664 492.45797145 358.06615583 492.44539575 349.05400848 492.42292023 C336.02389172 492.39044534 322.993831 492.37999783 309.96367815 492.37496826 C288.82438653 492.36620852 267.68515657 492.33957453 246.54589844 492.30175781 C226.00814116 492.26505529 205.47040062 492.23673492 184.93261719 492.21972656 C183.66718196 492.21867567 182.40174673 492.21762477 181.09796497 492.21654204 C174.7498014 492.21132198 168.40163772 492.20626712 162.05347395 492.20129442 C109.36894001 492.15981125 56.68447301 492.08934434 4 492 C4.00368717 493.15074886 4.00737434 494.30149773 4.01117325 495.48711777 C4.0977721 522.79290287 4.16374572 550.09867305 4.20426132 577.40456723 C4.20926425 580.76417787 4.21444153 584.12378823 4.21972656 587.48339844 C4.2207758 588.1522469 4.22182505 588.82109537 4.22290608 589.51021197 C4.24031958 600.34545307 4.27186243 611.18060942 4.30861118 622.01580021 C4.3459944 633.13061263 4.36793081 644.24539044 4.37635398 655.36026406 C4.38157769 661.60465833 4.39389101 667.8488603 4.42292023 674.09319305 C4.45000534 679.96674922 4.45845892 685.84003326 4.45243073 691.71364594 C4.45353405 693.87280759 4.46152875 696.03197804 4.4768219 698.19108582 C4.49664151 701.13275344 4.49196834 704.0733855 4.48101807 707.01507568 C4.49266943 707.87499674 4.5043208 708.73491779 4.51632524 709.62089705 C4.47782298 713.43160318 4.45753179 715.36925383 2.17306137 718.51858902 C-1.18246259 720.80610382 -3.0150011 720.73058313 -7 720 C-8.84484863 718.67077637 -8.84484863 718.67077637 -10.75195312 716.93554688 C-11.45167236 716.29955566 -12.1513916 715.66356445 -12.87231445 715.00830078 C-16.21940822 711.84901297 -19.48488894 708.61855356 -22.71875 705.34375 C-23.77201477 704.2848053 -23.77201477 704.2848053 -24.84655762 703.20446777 C-27.81383766 700.22102625 -30.77505363 697.2315929 -33.73681641 694.24267578 C-35.91618465 692.04509421 -38.09864947 689.85062062 -40.28125 687.65625 C-40.936698 686.99250366 -41.592146 686.32875732 -42.26745605 685.64489746 C-45.39735217 682.49870084 -48.56828622 679.46478837 -51.93164062 676.56835938 C-56.44301371 672.67360353 -60.62267647 668.48528354 -64.8125 664.25 C-65.62565674 663.43305664 -66.43881348 662.61611328 -67.27661133 661.77441406 C-70.7217734 658.31304958 -74.1609029 654.84571409 -77.60058594 651.37890625 C-80.12746508 648.83384812 -82.65741315 646.29186869 -85.1875 643.75 C-85.95231689 642.97688477 -86.71713379 642.20376953 -87.50512695 641.40722656 C-90.91187822 637.98515145 -94.3404702 634.65179989 -98 631.5 C-102.49161733 627.63155795 -106.64532361 623.46239067 -110.8125 619.25 C-111.62565674 618.43305664 -112.43881348 617.61611328 -113.27661133 616.77441406 C-116.7217734 613.31304958 -120.1609029 609.84571409 -123.60058594 606.37890625 C-126.12746508 603.83384812 -128.65741315 601.29186869 -131.1875 598.75 C-131.95231689 597.97688477 -132.71713379 597.20376953 -133.50512695 596.40722656 C-136.91187822 592.98515145 -140.3404702 589.65179989 -144 586.5 C-148.49161733 582.63155795 -152.64532361 578.46239067 -156.8125 574.25 C-157.62565674 573.43305664 -158.43881348 572.61611328 -159.27661133 571.77441406 C-162.7217734 568.31304958 -166.1609029 564.84571409 -169.60058594 561.37890625 C-172.12746508 558.83384812 -174.65741315 556.29186869 -177.1875 553.75 C-177.95231689 552.97688477 -178.71713379 552.20376953 -179.50512695 551.40722656 C-182.91187822 547.98515145 -186.3404702 544.65179989 -190 541.5 C-194.49161733 537.63155795 -198.64532361 533.46239067 -202.8125 529.25 C-203.62565674 528.43305664 -204.43881348 527.61611328 -205.27661133 526.77441406 C-208.7217734 523.31304958 -212.1609029 519.84571409 -215.60058594 516.37890625 C-218.12746508 513.83384812 -220.65741315 511.29186869 -223.1875 508.75 C-223.95231689 507.97688477 -224.71713379 507.20376953 -225.50512695 506.40722656 C-228.91187822 502.98515145 -232.3404702 499.65179989 -236 496.5 C-240.49161733 492.63155795 -244.64532361 488.46239067 -248.8125 484.25 C-249.62565674 483.43305664 -250.43881348 482.61611328 -251.27661133 481.77441406 C-254.7217734 478.31304958 -258.1609029 474.84571409 -261.60058594 471.37890625 C-264.12746508 468.83384812 -266.65741315 466.29186869 -269.1875 463.75 C-269.95231689 462.97688477 -270.71713379 462.20376953 -271.50512695 461.40722656 C-274.90737822 457.9896717 -278.33087435 454.66042695 -281.98632812 451.51367188 C-286.56055019 447.57400769 -290.78680615 443.32046601 -295.03125 439.03125 C-295.86660278 438.1921106 -296.70195557 437.35297119 -297.56262207 436.48840332 C-301.10336129 432.9314548 -304.63807324 429.3685388 -308.17333984 425.80615234 C-310.7697206 423.19159836 -313.36916566 420.58011816 -315.96875 417.96875 C-316.75544067 417.17376099 -317.54213135 416.37877197 -318.35266113 415.55969238 C-322.43966757 411.45479015 -326.6129317 407.54687348 -331.00210571 403.76858521 C-334.69085024 400.50321775 -338.14347539 396.99881118 -341.62109375 393.51171875 C-342.7991433 392.33510429 -342.7991433 392.33510429 -344.00099182 391.13471985 C-345.64503717 389.49135024 -347.28783953 387.84673625 -348.92944336 386.20092773 C-351.4511722 383.67379852 -353.97825164 381.15210712 -356.50585938 378.63085938 C-358.10709195 377.02896676 -359.70801471 375.42676437 -361.30859375 373.82421875 C-362.06579208 373.06904465 -362.82299042 372.31387054 -363.60313416 371.53581238 C-364.29798416 370.83781021 -364.99283417 370.13980804 -365.70874023 369.4206543 C-366.62851906 368.49968208 -366.62851906 368.49968208 -367.56687927 367.56010437 C-370.17678538 364.71894393 -370.52302326 362.02695098 -370.46961975 358.19517517 C-369.88542776 355.46444729 -368.87430525 354.29519925 -366.98608398 352.25219727 C-366.34814911 351.55788605 -365.71021423 350.86357483 -365.052948 350.14822388 C-361.64965632 346.58698782 -358.21071046 343.06817567 -354.72265625 339.58984375 C-353.95247665 338.81870743 -353.18229706 338.04757111 -352.38877869 337.25306702 C-350.77058627 335.63419847 -349.15114788 334.01657449 -347.53051758 332.40014648 C-345.06932768 329.94431282 -342.61352191 327.48318635 -340.15820312 325.02148438 C-338.57584133 323.43978347 -336.99316933 321.85839283 -335.41015625 320.27734375 C-334.68594986 319.55111313 -333.96174347 318.82488251 -333.21559143 318.0766449 C-329.90985062 314.78584243 -326.5744517 311.58680197 -323.03881836 308.54321289 C-318.45905032 304.59085257 -314.22201306 300.32937824 -309.96875 296.03125 C-309.13339722 295.1921106 -308.29804443 294.35297119 -307.43737793 293.48840332 C-304.78912914 290.828031 -302.14415594 288.16443987 -299.5 285.5 C-296.01337399 281.98662727 -292.52335074 278.47668029 -289.03125 274.96875 C-288.24455933 274.17376099 -287.45786865 273.37877197 -286.64733887 272.55969238 C-282.5643228 268.45879799 -278.39387234 264.5588347 -274.00915527 260.78430176 C-270.24107822 257.43792699 -266.73040067 253.83134149 -263.1875 250.25 C-262.37434326 249.43305664 -261.56118652 248.61611328 -260.72338867 247.77441406 C-258.14646703 245.18537329 -255.57282375 242.59311263 -253 240 C-249.60712847 236.58037281 -246.21085343 233.16417851 -242.8125 229.75 C-242.04768311 228.97688477 -241.28286621 228.20376953 -240.49487305 227.40722656 C-236.46550905 223.35973817 -232.34328232 219.51817101 -228.0168457 215.79199219 C-224.24681783 212.4422761 -220.73299928 208.8339683 -217.1875 205.25 C-216.37434326 204.43305664 -215.56118652 203.61611328 -214.72338867 202.77441406 C-212.14646703 200.18537329 -209.57282375 197.59311263 -207 195 C-203.60712847 191.58037281 -200.21085343 188.16417851 -196.8125 184.75 C-196.04768311 183.97688477 -195.28286621 183.20376953 -194.49487305 182.40722656 C-190.46550905 178.35973817 -186.34328232 174.51817101 -182.0168457 170.79199219 C-178.24681783 167.4422761 -174.73299928 163.8339683 -171.1875 160.25 C-170.37434326 159.43305664 -169.56118652 158.61611328 -168.72338867 157.77441406 C-166.14646703 155.18537329 -163.57282375 152.59311263 -161 150 C-157.60712847 146.58037281 -154.21085343 143.16417851 -150.8125 139.75 C-150.04768311 138.97688477 -149.28286621 138.20376953 -148.49487305 137.40722656 C-144.46550905 133.35973817 -140.34328232 129.51817101 -136.0168457 125.79199219 C-132.24681783 122.4422761 -128.73299928 118.8339683 -125.1875 115.25 C-124.37434326 114.43305664 -123.56118652 113.61611328 -122.72338867 112.77441406 C-120.14646703 110.18537329 -117.57282375 107.59311263 -115 105 C-111.60712847 101.58037281 -108.21085343 98.16417851 -104.8125 94.75 C-104.04768311 93.97688477 -103.28286621 93.20376953 -102.49487305 92.40722656 C-98.46550905 88.35973817 -94.34328232 84.51817101 -90.0168457 80.79199219 C-86.24681783 77.4422761 -82.73299928 73.8339683 -79.1875 70.25 C-78.37434326 69.43305664 -77.56118652 68.61611328 -76.72338867 67.77441406 C-74.14646703 65.18537329 -71.57282375 62.59311263 -69 60 C-65.60712847 56.58037281 -62.21085343 53.16417851 -58.8125 49.75 C-58.04768311 48.97688477 -57.28286621 48.20376953 -56.49487305 47.40722656 C-52.44815551 43.34230656 -48.30855487 39.48037421 -43.96307373 35.73822021 C-40.51681482 32.68670116 -37.30402848 29.40632628 -34.0703125 26.1328125 C-33.35390594 25.41261932 -32.63749939 24.69242615 -31.89938354 23.95040894 C-29.63878438 21.67771159 -27.38149512 19.40177171 -25.125 17.125 C-22.13045544 14.1039215 -19.13265015 11.08613409 -16.1328125 8.0703125 C-15.44639679 7.37559845 -14.75998108 6.6808844 -14.05276489 5.96511841 C-13.10069656 5.00809525 -13.10069656 5.00809525 -12.12939453 4.03173828 C-11.57172394 3.46883087 -11.01405334 2.90592346 -10.43948364 2.32595825 C-7.22624884 -0.63386364 -4.22200317 -0.36396579 0 0 Z M-29.22535241 63.97185189 C-30.10140108 64.85766226 -30.10140108 64.85766226 -30.99514771 65.7613678 C-31.61599554 66.38121235 -32.23684337 67.0010569 -32.87650478 67.63968462 C-34.97079306 69.73301481 -37.05782653 71.83343486 -39.14501953 73.93383789 C-40.63926803 75.4302861 -42.13396344 76.92628818 -43.6290741 78.421875 C-46.85627841 81.65202054 -50.08029088 84.88530762 -53.30191422 88.12101936 C-58.39879681 93.24011738 -63.50271114 98.35216482 -68.6076355 103.46324158 C-76.68729359 111.55430024 -84.76227089 119.65001205 -92.83524024 127.74774402 C-107.27361439 142.2303401 -121.71744018 156.70749372 -136.16659057 171.1793384 C-141.23658925 176.25773116 -146.30376428 181.33891973 -151.3686707 186.42239106 C-154.52834213 189.59274028 -157.69007144 192.76103138 -160.85230446 195.92882538 C-162.31404838 197.39402696 -163.77492047 198.86009894 -165.23483467 200.32712364 C-177.7570936 212.90900041 -177.7570936 212.90900041 -183.90412712 218.13150883 C-189.38877965 223.02113021 -194.4816767 228.35311485 -199.66796875 233.55444336 C-201.0383745 234.92513155 -202.40900122 236.29559885 -203.77983093 237.66586304 C-207.48189429 241.36764066 -211.18087637 245.0724832 -214.87929535 248.77790141 C-218.75187906 252.65675602 -222.62731373 256.53276008 -226.50244141 260.40907288 C-233.8317475 267.74148129 -241.15850174 275.07643407 -248.48433304 282.412314 C-256.82820583 290.76738211 -265.17493403 299.11959518 -273.52189827 307.47157466 C-290.68443511 324.644551 -307.84339932 341.82109331 -325 359 C-323.37640593 363.08650639 -320.44948558 365.82667265 -317.38449097 368.86274719 C-316.80447866 369.44517392 -316.22446635 370.02760064 -315.6268779 370.62767667 C-313.68029882 372.57989548 -311.72664752 374.52487843 -309.77294922 376.4699707 C-308.37636272 377.86763006 -306.98020928 379.26572225 -305.5844574 380.66421509 C-301.78914735 384.4643779 -297.98760663 388.25825141 -294.18480444 392.050915 C-290.20407627 396.02286142 -286.22861928 400.00007719 -282.25247192 403.97660828 C-275.56918028 410.6589628 -268.88202477 417.33743078 -262.19238281 424.01342773 C-254.46840024 431.72171323 -246.74962764 439.43518381 -239.03385723 447.15168887 C-230.81274635 455.3734767 -222.58782524 463.59144475 -214.36179209 471.80830741 C-211.99657993 474.17139277 -209.63207504 476.53518387 -207.2677269 478.89913368 C-203.54206366 482.6237881 -199.81384487 486.34586628 -196.08368111 490.06601334 C-194.71873359 491.42805364 -193.3546151 492.79092535 -191.99141121 494.15471077 C-184.21052581 502.03053569 -184.21052581 502.03053569 -176.02294922 509.4730835 C-169.52801201 515.01115628 -163.64494164 521.24274767 -157.62939453 527.28881836 C-156.18343384 528.73833952 -154.737235 530.18762315 -153.29081726 531.63668823 C-150.18965083 534.74437954 -147.09000016 537.85357193 -143.99148941 540.96391106 C-139.09556682 545.87817798 -134.1952537 550.78805089 -129.29415894 555.69715881 C-115.36291908 569.65251604 -101.43765914 583.61383151 -87.51660156 597.5793457 C-79.8182822 605.30217192 -72.11640571 613.02143275 -64.41065872 620.73684794 C-59.53319516 625.62086847 -54.66028017 630.50936925 -49.79063725 635.40118682 C-46.77054367 638.43296589 -43.74632039 641.46059839 -40.72088051 644.48704147 C-39.3138013 645.89627741 -37.90845542 647.30724635 -36.5049305 648.7200222 C-34.59695426 650.64009205 -32.6830055 652.55399725 -30.7673645 654.46641541 C-30.20667774 655.03360997 -29.64599098 655.60080453 -29.06831372 656.1851868 C-26.51560733 659.08937915 -26.51560733 659.08937915 -23 660 C-22.99641747 658.44256718 -22.99641747 658.44256718 -22.99276257 656.85367107 C-22.93402813 631.61666286 -22.85818304 606.37975058 -22.76428509 581.14284801 C-22.71927535 568.93858388 -22.6798727 556.73434926 -22.65356445 544.5300293 C-22.63062624 533.89560476 -22.59727523 523.26127325 -22.55129844 512.62692243 C-22.52730975 506.99352299 -22.50861804 501.36021599 -22.50238609 495.72676659 C-22.49636071 490.42854122 -22.47645362 485.13055256 -22.44572449 479.83241463 C-22.43690325 477.88410965 -22.43323007 475.93577379 -22.43499184 473.98744965 C-22.43663387 471.33451108 -22.42003765 468.6823034 -22.39872742 466.02946472 C-22.40599878 464.86361517 -22.40599878 464.86361517 -22.41341704 463.67421311 C-22.34491538 458.53384692 -22.34491538 458.53384692 -20.90409946 456.30380678 C-18.02081939 454.3295191 -15.6188439 454.62046856 -12.14964771 454.61523914 C-11.4455111 454.61008924 -10.74137449 454.60493933 -10.0159004 454.59963337 C-7.6385025 454.58593527 -5.26165022 454.59372104 -2.88423157 454.60127258 C-1.16984572 454.59583736 0.54453639 454.58908759 2.25891238 454.58113068 C6.98383079 454.56303016 11.70859265 454.5636716 16.4335376 454.56726015 C21.52353807 454.56788193 26.61348505 454.55128341 31.70346069 454.53674316 C40.52681049 454.51391045 49.35012068 454.50206402 58.17349815 454.49761391 C70.93071598 454.49116397 83.68786207 454.46824701 96.44505105 454.44127061 C117.14117305 454.39795553 137.83729204 454.36801577 158.53344727 454.34643555 C178.64153528 454.32543998 198.7495985 454.29814303 218.85766602 454.26245117 C220.10912578 454.26023766 221.36058554 454.25802415 222.64996833 454.25574356 C232.43675363 454.23838394 242.22353826 454.22065804 252.01032269 454.20281637 C300.00686642 454.11541075 348.00339898 454.05996215 396 454 C396 391.96 396 329.92 396 266 C366.07699219 265.96261719 336.15398438 265.92523438 305.32421875 265.88671875 C286.42512574 265.85646118 267.52603827 265.82546936 248.62695312 265.79101562 C238.70385782 265.77296437 228.78076221 265.75510024 218.85766602 265.73754883 C217.61389924 265.73534114 216.37013247 265.73313345 215.0886758 265.73085886 C194.98652843 265.69545054 174.8843811 265.67061384 154.78221407 265.64965298 C134.1650983 265.62792096 113.54802313 265.5948954 92.93094188 265.55129844 C80.20033364 265.52473684 67.46977604 265.50707471 54.73914144 265.50065396 C46.01940856 265.49541383 37.2997395 265.47924341 28.58004078 265.45433434 C23.54280015 265.44027201 18.50567389 265.43116609 13.4684124 265.43499184 C8.86245446 265.43838411 4.25674142 265.42814181 -0.3491663 265.40676448 C-2.02080183 265.4014648 -3.6924626 265.40129465 -5.36409811 265.40660437 C-7.62624502 265.4130612 -9.8875697 265.40130522 -12.14964771 265.38476086 C-13.40918005 265.38286225 -14.66871238 265.38096365 -15.96641237 265.37900752 C-19 265 -19 265 -20.90409946 263.69619322 C-22.81006953 260.74620516 -22.4199373 257.37120869 -22.39872742 253.97053528 C-22.40537424 253.14309443 -22.41202107 252.31565358 -22.41886932 251.46313876 C-22.43757402 248.68078708 -22.43488903 245.8988626 -22.43237305 243.11645508 C-22.44138565 241.12588388 -22.45171162 239.13531825 -22.46325684 237.14476013 C-22.49091187 231.73187275 -22.50012288 226.31909042 -22.50611091 220.90614152 C-22.51547249 215.25262655 -22.54167401 209.59919075 -22.56611633 203.94572449 C-22.60984614 193.23605152 -22.63835327 182.52639386 -22.66143972 171.81665868 C-22.68845669 159.62572366 -22.73237032 147.43486802 -22.77772844 135.24398959 C-22.87066753 110.16270272 -22.9423058 85.08139095 -23 60 C-26.02900622 60 -27.18228518 61.94170877 -29.22535241 63.97185189 Z " fill="#000000" transform="translate(492,163)"/>
<path d="M0 0 C1.05574219 0.51949219 2.11148438 1.03898437 3.19921875 1.57421875 C10.35664009 5.42683325 16.26273584 10.27305466 22 16 C22.55171875 16.54011719 23.1034375 17.08023438 23.671875 17.63671875 C38.59687431 33.56474221 40.59806703 52.04034895 40.45410156 72.77270508 C40.45297168 75.06030762 40.4536097 77.34791161 40.45587158 79.63551331 C40.45701413 85.81236125 40.43357905 91.98889531 40.40557575 98.16567063 C40.38048551 104.63319171 40.37821409 111.10072084 40.37347412 117.56828308 C40.36247433 128.41285242 40.33752928 139.25729373 40.30175781 150.10180664 C40.26497196 161.26553786 40.23669251 172.42923789 40.21972656 183.59301758 C40.21867567 184.28258515 40.21762477 184.97215272 40.21654204 185.68261627 C40.21132142 189.14240236 40.2062667 192.60218867 40.20129442 196.06197512 C40.15991119 224.7080606 40.08923223 253.35402581 40 282 C40.78334351 281.99674487 41.56668702 281.99348974 42.37376821 281.99013597 C88.8028378 281.79758832 135.2319445 281.62084545 181.66115125 281.46462174 C187.23617805 281.44584938 192.81120439 281.42694499 198.38623047 281.40795898 C200.05105885 281.40229267 200.05105885 281.40229267 201.74952014 281.39651188 C219.71974631 281.33503455 237.68991441 281.26286226 255.66008382 281.1867362 C274.09964246 281.10885981 292.53921666 281.0424797 310.97885573 280.98676747 C322.35674606 280.95202889 333.73452944 280.90832772 345.11233933 280.85315516 C352.91492374 280.81617843 360.71749535 280.79037041 368.52014856 280.77332608 C373.02160723 280.76316373 377.52290793 280.74809552 382.02429199 280.71975899 C386.14883282 280.69390358 390.27316985 280.68213588 394.39778943 280.68137112 C395.88653651 280.67864429 397.37528521 280.67083496 398.8639733 280.65730528 C414.54336103 280.52067601 428.06077436 284.25665063 439.83081055 295.16870117 C451.99340747 307.13131231 457.94219842 321.14232117 458.13142776 338.13213444 C458.1395246 340.63984125 458.14212242 343.14756937 458.14044189 345.6552887 C458.14302812 347.05378534 458.14604199 348.45228124 458.1494453 349.85077614 C458.15748845 353.68447093 458.15930337 357.51814697 458.16004276 361.3518492 C458.16189802 365.49041532 458.16944775 369.62897182 458.17617798 373.76753235 C458.18974302 382.81322257 458.19578325 391.85890836 458.20018864 400.90460706 C458.20295431 406.55670023 458.20719227 412.20879169 458.21169281 417.86088371 C458.22388339 433.52093301 458.23418292 449.18098095 458.2375679 464.84103489 C458.23778747 465.842755 458.23800703 466.84447511 458.23823325 467.87655037 C458.23845153 468.88061956 458.23866981 469.88468874 458.2388947 470.91918427 C458.23933816 472.95369121 458.23978472 474.98819814 458.24023438 477.02270508 C458.2404558 478.03188324 458.24067723 479.04106141 458.24090537 480.08082073 C458.24485148 496.42478382 458.26230073 512.76870228 458.2855939 529.11264814 C458.3093353 545.90718342 458.32177103 562.70169633 458.32293582 579.49624866 C458.32385104 588.91989794 458.32956479 598.34348906 458.34775543 607.76712227 C458.36319413 615.79320358 458.36825472 623.81920876 458.36001733 631.84530211 C458.35612406 635.93615583 458.35697528 640.0268564 458.37107468 644.11769104 C458.38389353 647.8715078 458.38254692 651.6250576 458.37048396 655.37887441 C458.36762857 657.36147285 458.37940194 659.34407626 458.39190602 661.32663733 C458.29838582 678.46880302 454.34068558 693.20883363 442.27734375 705.75390625 C441.52582031 706.49511719 440.77429688 707.23632812 440 708 C439.36191406 708.64839844 438.72382812 709.29679688 438.06640625 709.96484375 C426.13383577 721.3020261 412.67290408 723.31197341 396.91540527 723.20254517 C395.37407668 723.19928402 393.83274599 723.19691191 392.29141474 723.1953491 C388.06804061 723.18850628 383.84480432 723.16909051 379.62148285 723.14758825 C375.06263678 723.12659206 370.50376497 723.11730346 365.94488525 723.10658264 C358.05031704 723.08641993 350.15580252 723.05886319 342.26127625 723.02626419 C330.84716335 722.97914243 319.43303671 722.94320325 308.0188759 722.90998094 C289.49953257 722.85577499 270.98023152 722.79254307 252.4609375 722.72363281 C234.47266991 722.65671784 216.48439578 722.59405511 198.49609375 722.53710938 C197.38703318 722.53359693 196.27797262 722.53008449 195.13530415 722.52646561 C189.57139494 722.5088707 184.00748547 722.49135937 178.44357586 722.47388959 C132.29566993 722.32888452 86.14782302 722.16923023 40 722 C40.00460896 723.181839 40.00921793 724.363678 40.01396656 725.5813303 C40.12244801 753.68760438 40.20479845 781.79386801 40.25532665 809.90030676 C40.26157957 813.36591126 40.26805124 816.83151531 40.2746582 820.29711914 C40.27596976 820.98700711 40.27728131 821.67689508 40.2786326 822.38768875 C40.30034055 833.53238239 40.33973634 844.676946 40.38576398 855.82156271 C40.43265758 867.27205291 40.45994869 878.72243798 40.47044247 890.17302698 C40.47694388 896.59834589 40.49215547 903.02337067 40.52865028 909.44859505 C40.56277061 915.50525543 40.57302053 921.56150252 40.56553841 927.61824989 C40.56690579 929.8324636 40.57674177 932.04669216 40.59602737 934.2608223 C40.77386627 955.74498372 36.46479928 972.73698668 21.16796875 988.828125 C20.45253906 989.54484375 19.73710938 990.2615625 19 991 C18.45988281 991.55171875 17.91976562 992.1034375 17.36328125 992.671875 C4.31490781 1004.89856246 -12.35470719 1009.7671084 -29.875 1009.5625 C-30.53264343 1009.55824005 -31.19028687 1009.5539801 -31.86785889 1009.54959106 C-42.12128134 1009.45721087 -50.74408813 1008.69330576 -60 1004 C-61.05574219 1003.48050781 -62.11148437 1002.96101562 -63.19921875 1002.42578125 C-74.30112831 996.44997297 -82.93891377 987.21200571 -91.76651001 978.34701538 C-93.16130917 976.95243951 -93.16130917 976.95243951 -94.58428609 975.52969038 C-97.136651 972.97761795 -99.68591424 970.42246768 -102.23464251 967.86676407 C-104.9948952 965.10008783 -107.75809846 962.33636112 -110.52095032 959.57228088 C-115.29962632 954.79072916 -120.07652571 950.00740864 -124.85225296 945.22291183 C-131.76521058 938.29735412 -138.6814462 931.37507725 -145.59856026 924.45367117 C-156.83406954 913.21110735 -168.06770821 901.96667653 -179.29980469 890.72070312 C-179.97092074 890.04875926 -180.6420368 889.37681539 -181.3334897 888.68450959 C-186.09737604 883.91472257 -190.86119536 879.14486862 -195.625 874.375 C-201.0702654 868.92280452 -206.51556236 863.47064056 -211.9609375 858.01855469 C-212.63183504 857.34682903 -213.30273257 856.67510336 -213.99396034 855.98302238 C-225.18869689 844.7745902 -236.38540463 833.56812915 -247.58351457 822.36306727 C-254.48192238 815.46018575 -261.37854939 808.5555342 -268.27286826 801.64856876 C-272.99615107 796.91684665 -277.72121214 792.18690527 -282.44766356 787.45834826 C-285.17197446 784.73269554 -287.89545538 782.00622677 -290.6167202 779.27753258 C-293.57091481 776.31530333 -296.52900503 773.35699437 -299.48745728 770.39901733 C-300.76713928 769.11394289 -300.76713928 769.11394289 -302.07267344 767.80290735 C-306.27153734 763.6112524 -310.54671428 759.5977911 -315.04259455 755.72785032 C-318.60136567 752.58643482 -321.9378669 749.22090531 -325.29769897 745.86965942 C-326.09377143 745.07938036 -326.88984388 744.28910129 -327.71003973 743.47487438 C-330.35901362 740.84384113 -333.00448961 738.20932051 -335.64990234 735.57470703 C-337.06977751 734.1631649 -338.48965596 732.75162605 -339.90976976 731.340324 C-346.64037829 724.65139208 -353.36386741 717.95532358 -360.0859375 711.2578125 C-360.61741774 710.72830716 -361.14889797 710.19880183 -361.69648367 709.65325087 C-372.27255283 699.11637501 -382.84584224 688.57671309 -393.41345787 678.03135872 C-395.73132786 675.71845698 -398.04923592 673.40559341 -400.3671875 671.09277344 C-400.94321026 670.51802134 -401.51923303 669.94326925 -402.11271103 669.35110043 C-411.43532675 660.04982567 -420.7716778 650.76246313 -430.11361067 641.48059441 C-439.72989977 631.9256198 -449.33274202 622.35728933 -458.92305148 612.77623832 C-464.29781737 607.40735664 -469.6782375 602.0444294 -475.07401657 596.69665909 C-479.67066294 592.14087737 -484.25495924 587.57309505 -488.82420109 582.98982175 C-491.14991494 580.65769925 -493.48252557 578.3333617 -495.82740593 576.02049065 C-515.49720868 556.60492894 -529.99424425 534.90779485 -530.38110352 506.38476562 C-530.35210312 490.00534153 -528.61856107 477.08857065 -521.8125 462.1875 C-521.47484619 461.44693359 -521.13719238 460.70636719 -520.78930664 459.94335938 C-513.35888788 444.75064212 -500.83966413 433.42081546 -489.02124023 421.66479492 C-487.09055888 419.73498949 -485.16214145 417.80292733 -483.23361206 415.87097168 C-478.55998733 411.19174644 -473.87849459 406.52047202 -469.19424158 401.85188916 C-463.7307061 396.40598599 -458.2753301 390.95193888 -452.82027758 385.49754075 C-443.08392131 375.76286821 -433.34054385 366.03525429 -423.59301758 356.31176758 C-414.14941341 346.89143629 -404.71037996 337.46655802 -395.27661133 328.03637695 C-394.69506094 327.45504933 -394.11351054 326.8737217 -393.51433741 326.27477809 C-392.34266247 325.10354577 -391.17098782 323.93231315 -389.99931348 322.76108022 C-389.13220189 321.89429799 -389.13220189 321.89429799 -388.2475729 321.010005 C-387.3825533 320.14530938 -387.3825533 320.14530938 -386.50005856 319.26314516 C-377.48602822 310.25282099 -368.46817415 301.24632435 -359.44979284 292.24035534 C-356.18957612 288.98456205 -352.92984973 285.72827877 -349.67046648 282.4716511 C-344.50152858 277.30715744 -339.33091186 272.14435663 -334.15694337 266.9849024 C-331.79524013 264.62977519 -329.43455417 262.27365353 -327.07547569 259.91589546 C-324.51273859 257.35491411 -321.94694718 254.79703178 -319.38035583 252.23991394 C-318.64328083 251.50197245 -317.90620582 250.76403097 -317.14679521 250.00372761 C-313.87388941 246.74886887 -310.57137366 243.58618955 -307.07187271 240.57523727 C-302.30879294 236.46233988 -297.90127939 232.02066496 -293.46968079 227.55628967 C-292.5409678 226.62490329 -291.61225482 225.6935169 -290.65539902 224.73390669 C-288.62867156 222.70130431 -286.60356559 220.66710512 -284.57971954 218.63163376 C-281.28543504 215.31844572 -277.98758868 212.0088172 -274.6893158 208.69960022 C-270.51987317 204.51579813 -266.3513861 200.33104781 -262.18402418 196.14517318 C-253.99197702 187.9167562 -245.79365212 179.69461965 -237.59306335 171.47471619 C-236.29961753 170.17816006 -235.0061754 168.88160025 -233.7127369 167.58503681 C-231.75287281 165.62044717 -229.79300503 163.6558612 -227.83312247 161.69128998 C-220.45419646 154.29466118 -213.07596435 146.89734062 -205.69848633 139.49926758 C-205.02456021 138.8234644 -204.35063409 138.14766123 -203.65628596 137.45137917 C-192.73792068 126.50212999 -181.82696431 115.54552328 -170.91826925 104.58664078 C-159.70051113 93.31771457 -148.47314329 82.05842521 -137.23730153 70.80752939 C-130.3171588 63.8774454 -123.40477785 56.93980168 -116.50232562 49.99209677 C-111.76764912 45.22775334 -107.02377196 40.47269948 -102.27269993 35.72470624 C-99.53656407 32.98978312 -96.8045763 30.25104189 -94.08359909 27.50102997 C-91.5854852 24.97643234 -89.07574985 22.46398817 -86.55684581 19.96013861 C-85.23225141 18.63760376 -83.91989258 17.30284775 -82.60823041 15.96748596 C-74.69501652 8.14492607 -65.48455692 1.8093053 -54.9375 -1.9375 C-53.37322266 -2.50791016 -53.37322266 -2.50791016 -51.77734375 -3.08984375 C-36.66389633 -8.04263313 -14.12585021 -7.16265832 0 0 Z M-66 37 C-124 95 -124 95 -126.80078125 97.67578125 C-129.19359827 99.87690163 -129.19359827 99.87690163 -130 103 C-131.33053464 103.67223493 -132.66450173 104.3376809 -134 105 C-135.72356319 106.57154095 -137.39394179 108.20213222 -139.02734375 109.8671875 C-139.49813858 110.3431839 -139.96893341 110.8191803 -140.45399475 111.30960083 C-141.95335315 112.82670321 -143.44584509 114.35032574 -144.9375 115.875 C-146.42640982 117.39167448 -147.91680727 118.90680723 -149.41029358 120.41897583 C-150.76897664 121.79539529 -152.12278503 123.17662159 -153.47631836 124.55810547 C-156 127 -156 127 -158.82250977 129.19580078 C-159.90036743 130.08887939 -159.90036743 130.08887939 -161 131 C-161 131.66 -161 132.32 -161 133 C-162.485 133.495 -162.485 133.495 -164 134 C-165.67883678 135.6940569 -165.67883678 135.6940569 -167.3125 137.75 C-170.31534046 141.29651262 -173.38618473 144.09323555 -177 147 C-179.58324923 149.46023737 -181.91209234 151.88882266 -184.125 154.6875 C-186 157 -186 157 -189 159 C-189 159.66 -189 160.32 -189 161 C-189.99 161.33 -190.98 161.66 -192 162 C-192 162.66 -192 163.32 -192 164 C-192.58910156 164.26167969 -193.17820312 164.52335938 -193.78515625 164.79296875 C-196.11785434 166.0642275 -197.60354368 167.40230531 -199.4375 169.3125 C-200.04207031 169.93511719 -200.64664062 170.55773437 -201.26953125 171.19921875 C-201.84058594 171.79347656 -202.41164063 172.38773438 -203 173 C-208 178 -208 178 -210.4375 180.375 C-212.34955419 182.33368966 -214.07605524 184.27249391 -215.8125 186.375 C-218.60048275 189.67768726 -221.68273358 192.42897587 -224.96484375 195.23046875 C-227.03945787 197.0343079 -229.0324356 198.89263413 -231 200.8125 C-231.5775 201.37582031 -232.155 201.93914062 -232.75 202.51953125 C-234.21504284 203.93175829 -234.21504284 203.93175829 -234 206 C-234.54140625 206.2165625 -235.0828125 206.433125 -235.640625 206.65625 C-238.81645344 208.46499997 -241.20728081 210.91723799 -243.75 213.5 C-244.50990234 214.24830078 -244.50990234 214.24830078 -245.28515625 215.01171875 C-248.12805599 217.53061637 -248.12805599 217.53061637 -249 221 C-249.57560449 221.25056499 -250.15120897 221.50112997 -250.74425602 221.75928783 C-253.31028655 223.17066489 -255.02396544 224.77799258 -257.09190369 226.85139465 C-257.89793533 227.65467697 -258.70396698 228.45795929 -259.53442383 229.2855835 C-260.4098584 230.16820862 -261.28529297 231.05083374 -262.18725586 231.96020508 C-263.11615128 232.88880844 -264.04504669 233.8174118 -265.00209045 234.77415466 C-267.54792818 237.31941851 -270.08755005 239.87080397 -272.62611079 242.42332292 C-275.2867503 245.09648138 -277.95307019 247.7639617 -280.61878967 250.43205261 C-285.67057632 255.49005725 -290.71724578 260.55313587 -295.76209599 265.61805791 C-301.48544892 271.36369537 -307.21441517 277.10372142 -312.94389522 282.84324801 C-322.74367229 292.66039993 -332.53920626 302.48176696 -342.33004761 312.30783081 C-343.13889908 313.1195726 -343.94775055 313.93131439 -344.78111267 314.76765442 C-345.88957456 315.88381858 -345.88957456 315.88381858 -347.02042961 317.02253151 C-348.21917485 318.22000393 -349.42663209 319.40895573 -350.6498127 320.58145714 C-352.91275406 322.75410932 -353.9837817 323.95134509 -355 327 C-356.33053464 327.67223493 -357.66450173 328.3376809 -359 329 C-360.72356319 330.57154095 -362.39394179 332.20213222 -364.02734375 333.8671875 C-364.49813858 334.3431839 -364.96893341 334.8191803 -365.45399475 335.30960083 C-366.95335315 336.82670321 -368.44584509 338.35032574 -369.9375 339.875 C-371.42640982 341.39167448 -372.91680727 342.90680723 -374.41029358 344.41897583 C-375.76897664 345.79539529 -377.12278503 347.17662159 -378.47631836 348.55810547 C-381 351 -381 351 -383.82250977 353.19580078 C-384.54108154 353.79118652 -385.25965332 354.38657227 -386 355 C-386 355.66 -386 356.32 -386 357 C-386.66 357 -387.32 357 -388 357 C-388 357.66 -388 358.32 -388 359 C-388.66 359 -389.32 359 -390 359 C-391.634689 360.65448684 -391.634689 360.65448684 -393.3125 362.75 C-395.99943328 365.91535204 -398.69146857 368.47506812 -402 371 C-404.58175449 373.45581525 -406.91434554 375.89167231 -409.125 378.6875 C-411 381 -411 381 -414 383 C-414 383.66 -414 384.32 -414 385 C-414.99 385.33 -415.98 385.66 -417 386 C-417 386.66 -417 387.32 -417 388 C-417.99 388.33 -418.98 388.66 -420 389 C-422.74766288 391.53074213 -425.13711465 394.16796544 -427.5 397.0625 C-429.84038392 399.81245111 -432.15908348 401.7982897 -435 404 C-437.47553685 406.35477895 -439.73913508 408.658177 -441.8125 411.375 C-444.2705232 414.32462783 -446.98634923 416.66664934 -449.89453125 419.16015625 C-451.9892994 420.99064938 -454.00894331 422.86990717 -456 424.8125 C-456.5775 425.37582031 -457.155 425.93914062 -457.75 426.51953125 C-459.21504284 427.93175829 -459.21504284 427.93175829 -459 430 C-459.54140625 430.2165625 -460.0828125 430.433125 -460.640625 430.65625 C-463.81645344 432.46499997 -466.20728081 434.91723799 -468.75 437.5 C-469.25660156 437.99886719 -469.76320313 438.49773437 -470.28515625 439.01171875 C-473.12805599 441.53061637 -473.12805599 441.53061637 -474 445 C-474.56589844 445.24234375 -475.13179687 445.4846875 -475.71484375 445.734375 C-489.95494959 453.62120285 -501.61730289 472.69313008 -506.12890625 487.7734375 C-508.92346407 499.60143511 -508.06365106 512.99566027 -503 524 C-502.62617188 524.86753906 -502.25234375 525.73507812 -501.8671875 526.62890625 C-493.85780367 544.00025197 -477.4540746 557.70653323 -464.1171875 571.05078125 C-462.72658405 572.44460688 -461.33605197 573.83850372 -459.94558716 575.23246765 C-457.06150722 578.12247518 -454.17543005 581.01047063 -451.28808594 583.8972168 C-447.58187682 587.60332309 -443.8826672 591.31633566 -440.18505669 595.03101826 C-437.33012124 597.89702539 -434.47070007 600.75852359 -431.60995865 603.61873436 C-430.2423462 604.98752841 -428.87635859 606.35794788 -427.51202011 607.73000526 C-425.61930184 609.63245207 -423.72043768 611.52854114 -421.81982422 613.4230957 C-421.25677078 613.99176865 -420.69371735 614.56044159 -420.11360168 615.14634705 C-417.54040413 618.07382131 -417.54040413 618.07382131 -414 619 C-413.79375 619.556875 -413.5875 620.11375 -413.375 620.6875 C-411.85406579 623.2454348 -410.02467021 624.68721183 -407.7109375 626.515625 C-405.07785613 628.80003349 -402.90899657 631.44820489 -400.6484375 634.09375 C-398.54762418 636.52312654 -396.29861092 638.75745276 -394 641 C-393.10667969 641.90878906 -393.10667969 641.90878906 -392.1953125 642.8359375 C-391.53273438 643.50882813 -390.87015625 644.18171875 -390.1875 644.875 C-389.58292969 645.49117187 -388.97835937 646.10734375 -388.35546875 646.7421875 C-386.49190559 648.5284885 -384.60769198 650.18912278 -382.64257812 651.85742188 C-376.60523874 657.12981731 -371.01481841 662.86156899 -365.36328125 668.5390625 C-364.15380013 669.7504134 -362.94409456 670.96154022 -361.73417664 672.17245483 C-358.56929622 675.34112717 -355.40742879 678.51278903 -352.24621582 681.68511963 C-349.03249841 684.90908214 -345.8159396 688.13020699 -342.59960938 691.3515625 C-337.40569422 696.55423018 -332.21346437 701.7585723 -327.02360535 706.96528625 C-324.90840913 709.08715538 -322.79208787 711.20787454 -320.67336082 713.32621861 C-317.97705771 716.0229459 -315.28352371 718.72240788 -312.59077454 721.42268372 C-311.50736595 722.50902406 -310.42395091 723.59535796 -309.3405304 724.6816864 C-308.76754526 725.25622244 -308.19456013 725.83075848 -307.60421181 726.4227047 C-294.41328928 739.64899594 -281.2166421 752.86956296 -268.01673603 766.08688831 C-260.38727051 773.7266931 -252.75970918 781.36838165 -245.13647461 789.0144043 C-238.47871597 795.69205447 -231.81748642 802.36621893 -225.15201062 809.03616637 C-221.62492874 812.56586064 -218.09964272 816.09730826 -214.57851601 819.63294411 C-211.27254541 822.95243067 -207.96197635 826.26725851 -204.64773178 829.57848358 C-203.42932892 830.79743909 -202.21265384 832.01812429 -200.99779701 833.24061394 C-199.34583901 834.90244573 -197.68791574 836.55808114 -196.02827454 838.2122345 C-195.10007054 839.14228208 -194.17186655 840.07232965 -193.21553516 841.03056049 C-191.24492375 843.22145932 -191.24492375 843.22145932 -189 843 C-188.79375 843.556875 -188.5875 844.11375 -188.375 844.6875 C-186.85406579 847.2454348 -185.02467021 848.68721183 -182.7109375 850.515625 C-180.08501753 852.79382041 -177.92169424 855.43475122 -175.6640625 858.0703125 C-171.76100441 862.71218901 -171.76100441 862.71218901 -166.8125 866.0625 C-165 867 -165 867 -164.18685913 868.78205872 C-162.63968516 871.67333783 -160.67469985 873.26812711 -158.19775391 875.42456055 C-149.36645448 883.30208349 -141.13836971 891.79899308 -132.81367111 900.20285988 C-129.78134692 903.26345186 -126.74324208 906.3182635 -123.70401001 909.37199402 C-122.656103 910.42504205 -121.60820381 911.47809787 -120.56031227 912.53116131 C-120.03629995 913.05775919 -119.51228762 913.58435708 -118.97239614 914.12691247 C-111.91792883 921.21720982 -104.86847427 928.31244002 -97.82910156 935.41772461 C-93.05121933 940.24024998 -88.2661252 945.05549487 -83.47290576 949.86277789 C-80.94768797 952.3960168 -78.42623642 954.93275667 -75.91373825 957.47861671 C-73.11401255 960.31547177 -70.29866585 963.13632882 -67.48193359 965.95629883 C-66.66712021 966.78706436 -65.85230682 967.6178299 -65.01280212 968.47377014 C-54.93038064 978.50372281 -44.50058309 984.21832129 -30.25 984.5 C-16.76519409 984.44311379 -6.64974501 979.43295062 2.9296875 970.125 C11.65071729 960.84253053 15.3163405 950.24725572 15.24050903 937.71157837 C15.24221788 936.67739663 15.24392673 935.64321488 15.24568737 934.5776943 C15.24898055 931.11373734 15.23798121 927.64997426 15.22705078 924.18603516 C15.22648663 921.70242314 15.2268033 919.21881079 15.22793579 916.73519897 C15.22839117 911.38885634 15.22271979 906.04257402 15.21146011 900.6962471 C15.19519124 892.96640966 15.18999569 885.23659582 15.18748413 877.50674312 C15.18310921 864.96493124 15.1698056 852.4231454 15.15087891 839.88134766 C15.13251487 827.69970835 15.11836093 815.51807613 15.10986328 803.33642578 C15.10933783 802.58527924 15.10881239 801.83413269 15.10827102 801.06022413 C15.1056609 797.29186203 15.1031335 793.52349987 15.10064721 789.75513768 C15.07992102 758.50340618 15.0445521 727.25170705 15 696 C15.75275514 696.07040202 16.50551029 696.14080404 17.28107619 696.21333945 C26.19720977 696.98079432 35.06344965 697.15139721 44.00494385 697.15390015 C45.58542415 697.1579251 47.16590343 697.162365 48.74638152 697.1671797 C53.05503495 697.17903337 57.36367725 697.18476713 61.67234373 697.18936086 C66.33218827 697.19535893 70.99201979 697.20695693 75.65185547 697.21765137 C86.87978648 697.24206381 98.10772175 697.25677776 109.33567107 697.26971143 C112.50827953 697.27342889 115.68088756 697.27740158 118.8534956 697.2814641 C138.57607398 697.30668541 158.29865313 697.328727 178.02124405 697.34119225 C182.57894137 697.34412162 187.13663867 697.34708335 191.69433594 697.35009766 C192.82703847 697.35084371 193.959741 697.35158976 195.12676784 697.35235842 C213.50424313 697.3650312 231.88162211 697.39828896 250.25905231 697.43989949 C269.14314519 697.4823062 288.02718866 697.50588501 306.91132903 697.51111281 C317.5079305 697.51452625 328.10438083 697.52627556 338.70093536 697.55921555 C347.71701077 697.58719844 356.73290395 697.59822255 365.74901941 697.58702008 C370.34772554 697.58183085 374.94604987 697.58473811 379.54470062 697.60948563 C383.75643042 697.63196223 387.96750379 697.63125099 392.17924497 697.61228175 C393.70054978 697.6094797 395.22189897 697.61509181 396.74313238 697.63009469 C406.95913271 697.72466858 413.81965632 696.45750503 421.6875 689.6875 C431.9228316 677.7923849 433.15278095 668.15273864 433.13371277 652.77336121 C433.13558251 651.42151158 433.13788386 650.0696625 433.14057809 648.71781427 C433.14668233 645.01321343 433.14656412 641.30863521 433.14538372 637.60403049 C433.14517936 633.60460303 433.15070176 629.60518276 433.15544128 625.60575867 C433.16374076 617.77404461 433.1664958 609.94233807 433.16705366 602.11061998 C433.16752914 595.74359433 433.16958547 589.37657115 433.17275429 583.00954628 C433.18155881 564.95084937 433.18617396 546.89215841 433.18542381 528.83345934 C433.18538386 527.86030985 433.1853439 526.88716036 433.18530273 525.88452148 C433.18526185 524.91018145 433.18522097 523.93584142 433.18517885 522.93197594 C433.1847724 507.14144224 433.19434225 491.35093238 433.2084411 475.56040557 C433.22280936 459.33993598 433.22971104 443.11947802 433.22884732 426.8990019 C433.22851552 417.79519316 433.23125544 408.69140943 433.24202538 399.58760643 C433.25113627 391.83663648 433.25330076 384.08570286 433.24651595 376.33472987 C433.24325378 372.38212184 433.24318313 368.4295835 433.2518692 364.47698212 C433.25974846 360.85418428 433.25828828 357.23151125 433.24958507 353.60871641 C433.24733105 351.68679388 433.25486751 349.76486744 433.26282471 347.84296006 C433.21474917 335.73575588 431.81151436 324.0496634 423 315 C420.09167619 312.84429233 417.10344053 310.86315708 414 309 C413.45950673 308.64762614 412.91901346 308.29525229 412.36214161 307.93220043 C408.94366115 306.58312426 405.60710088 306.72831203 401.98698425 306.75276184 C400.76232125 306.74913809 400.76232125 306.74913809 399.51291758 306.74544114 C396.76398363 306.73978583 394.0152811 306.74848198 391.26635742 306.75708008 C389.28728041 306.75602733 387.3082037 306.75410979 385.32912827 306.75139618 C379.89944264 306.74656843 374.46983773 306.75436218 369.04016185 306.76438165 C363.23995573 306.77307784 357.43975273 306.77068603 351.63954163 306.76982117 C340.38792998 306.77009543 329.13635669 306.78168476 317.8847571 306.79741591 C308.81481398 306.8098769 299.74487696 306.81778308 290.67492676 306.82275391 C198.78111203 306.8747514 106.89085773 307.27197908 15 308 C15.00691345 306.06986415 15.00691345 306.06986415 15.01396656 304.10073566 C15.12238266 273.5184942 15.20476588 242.93630483 15.25532665 212.35391717 C15.26157977 208.58530968 15.26805143 204.81670259 15.2746582 201.0480957 C15.27662553 199.92275837 15.27662553 199.92275837 15.2786326 198.77468695 C15.30035704 186.64573591 15.33976211 174.51690402 15.38576398 162.38802353 C15.43261131 149.9318415 15.46031283 137.47572164 15.47044247 125.01945513 C15.47728456 117.34044422 15.49885153 109.66177014 15.53958233 101.98286297 C15.56927189 96.08306524 15.57225333 90.18343802 15.56553841 84.28356361 C15.56690908 81.87177972 15.57678961 79.45998255 15.59602737 77.04827499 C15.73402348 58.84936474 14.33541268 45.66602888 1.125 32.0703125 C-9.07885292 22.48362811 -20.72998394 19.29246396 -34.375 19.625 C-47.73809978 20.39299424 -56.95151744 27.91924753 -66 37 Z " fill="#000000" transform="translate(555,21)"/>
</svg>
