<?xml version="1.0" encoding="UTF-8"?>
<svg version="1.1" xmlns="http://www.w3.org/2000/svg" width="1040" height="1040">
<path d="M0 0 C1.39849664 -0.00258622 2.79699255 -0.0056001 4.19548744 -0.0090034 C8.02918223 -0.01704655 11.86285827 -0.01886147 15.6965605 -0.01960087 C19.83512662 -0.02145613 23.97368312 -0.02900586 28.11224365 -0.03573608 C37.15793388 -0.04930112 46.20361966 -0.05534135 55.24931836 -0.05974674 C60.90141153 -0.06251242 66.553503 -0.06675038 72.20559502 -0.07125092 C87.86564431 -0.08344149 103.52569225 -0.09374103 119.18574619 -0.09712601 C120.1874663 -0.09734557 121.18918641 -0.09756514 122.22126168 -0.09779136 C123.22533086 -0.09800964 124.22940005 -0.09822791 125.26389557 -0.09845281 C127.29840251 -0.09889627 129.33290945 -0.09934283 131.36741638 -0.09979248 C132.37659455 -0.10001391 133.38577271 -0.10023534 134.42553204 -0.10046348 C150.76949513 -0.10440958 167.11341358 -0.12185884 183.45735944 -0.145152 C200.25189472 -0.16889341 217.04640764 -0.18132914 233.84095997 -0.18249393 C243.26460924 -0.18340915 252.68820036 -0.18912289 262.11183357 -0.20731354 C270.13791489 -0.22275224 278.16392007 -0.22781283 286.19001342 -0.21957543 C290.28086713 -0.21568217 294.3715677 -0.21653338 298.46240234 -0.23063278 C302.21621911 -0.24345163 305.9697689 -0.24210502 309.72358572 -0.23004207 C311.70618416 -0.22718667 313.68878757 -0.23896004 315.67134863 -0.25146413 C332.81351433 -0.15794393 347.55354493 3.79975631 360.09861755 15.86309814 C360.83982849 16.61462158 361.58103943 17.36614502 362.3447113 18.14044189 C362.99310974 18.77852783 363.64150818 19.41661377 364.30955505 20.07403564 C375.6467374 32.00660613 377.65668471 45.46753782 377.54725647 61.22503662 C377.54399533 62.76636522 377.54162321 64.3076959 377.5400604 65.84902716 C377.53321758 70.07240129 377.51380182 74.29563757 377.49229956 78.51895905 C377.47130337 83.07780511 377.46201476 87.63667693 377.45129395 92.19555664 C377.43113124 100.09012485 377.40357449 107.98463937 377.37097549 115.87916565 C377.32385373 127.29327855 377.28791456 138.70740518 377.25469224 150.121566 C377.20048629 168.64090932 377.13725437 187.16021037 377.06834412 205.67950439 C377.00142914 223.66777199 376.93876641 241.65604611 376.88182068 259.64434814 C376.87830824 260.75340871 376.87479579 261.86246928 376.87117691 263.00513774 C376.853582 268.56904696 376.83607067 274.13295643 376.81860089 279.69686604 C376.67359582 325.84477197 376.51394154 371.99261887 376.3447113 418.14044189 C377.5265503 418.13583293 378.7083893 418.13122396 379.9260416 418.12647533 C408.03231568 418.01799388 436.13857931 417.93564345 464.24501807 417.88511525 C467.71062256 417.87886233 471.17622661 417.87239066 474.64183044 417.86578369 C475.33171841 417.86447214 476.02160639 417.86316059 476.73240005 417.86180929 C487.8770937 417.84010135 499.0216573 417.80070555 510.16627402 417.75467791 C521.61676422 417.70778431 533.06714928 417.68049321 544.51773828 417.66999942 C550.9430572 417.66349802 557.36808198 417.64828643 563.79330635 417.61179161 C569.84996673 417.57767128 575.90621383 417.56742136 581.9629612 417.57490349 C584.1771749 417.5735361 586.39140346 417.56370013 588.6055336 417.54441452 C610.08969502 417.36657563 627.08169799 421.67564261 643.1728363 436.97247314 C643.88955505 437.68790283 644.6062738 438.40333252 645.3447113 439.14044189 C645.89643005 439.68055908 646.4481488 440.22067627 647.0165863 440.77716064 C659.24327376 453.82553409 664.1118197 470.49514908 663.9072113 488.01544189 C663.90295135 488.67308533 663.89869141 489.33072876 663.89430237 490.00830078 C663.80192218 500.26172324 663.03801707 508.88453002 658.3447113 518.14044189 C657.82521912 519.19618408 657.30572693 520.25192627 656.77049255 521.33966064 C650.79468427 532.44157021 641.55671702 541.07935566 632.69172668 549.9069519 C631.76200944 550.83681801 630.83229219 551.76668412 629.87440169 552.72472799 C627.32232925 555.2770929 624.76717898 557.82635613 622.21147537 560.3750844 C619.44479914 563.1353371 616.68107242 565.89854036 613.91699219 568.66139221 C609.13544047 573.44006822 604.35211994 578.21696761 599.56762314 582.99269485 C592.64206542 589.90565248 585.71978855 596.8218881 578.79838248 603.73900215 C567.55581866 614.97451144 556.31138784 626.2081501 545.06541443 637.44024658 C544.39347056 638.11136264 543.7215267 638.78247869 543.02922089 639.4739316 C538.25943387 644.23781794 533.48957992 649.00163726 528.7197113 653.76544189 C523.26751582 659.21070729 517.81535186 664.65600425 512.36326599 670.10137939 C511.69154033 670.77227693 511.01981467 671.44317447 510.32773368 672.13440223 C499.1193015 683.32913878 487.91284045 694.52584653 476.70777857 705.72395647 C469.80489705 712.62236427 462.9002455 719.51899128 455.99328007 726.41331016 C451.26155795 731.13659296 446.53161658 735.86165403 441.80305956 740.58810546 C439.07740684 743.31241636 436.35093807 746.03589728 433.62224388 748.75716209 C430.66001463 751.7113567 427.70170568 754.66944693 424.74372864 757.62789917 C423.45865419 758.90758117 423.45865419 758.90758117 422.14761865 760.21311533 C417.9559637 764.41197924 413.9425024 768.68715617 410.07256162 773.18303645 C406.93114613 776.74180756 403.56561661 780.07830879 400.21437073 783.43814087 C399.42409166 784.23421332 398.6338126 785.03028577 397.81958568 785.85048163 C395.18855243 788.49945551 392.55403182 791.14493151 389.91941833 793.79034424 C388.50787621 795.21021941 387.09633735 796.63009786 385.6850353 798.05021165 C378.99610338 804.78082019 372.30003489 811.5043093 365.6025238 818.22637939 C364.8082658 819.02359975 364.8082658 819.02359975 363.99796218 819.83692557 C353.46108631 830.41299473 342.92142439 840.98628413 332.37607002 851.55389977 C330.06316828 853.87176975 327.75030471 856.18967782 325.43748474 858.50762939 C324.86273265 859.08365216 324.28798056 859.65967492 323.69581173 860.25315292 C314.39453698 869.57576865 305.10717444 878.9121197 295.82530572 888.25405256 C286.2703311 897.87034167 276.70200063 907.47318391 267.12094963 917.06349337 C261.75206794 922.43825927 256.3891407 927.81867939 251.04137039 933.21445847 C246.48558868 937.81110483 241.91780636 942.39540114 237.33453305 946.96464299 C235.00241056 949.29035683 232.67807301 951.62296746 230.36520195 953.96784782 C210.94964024 973.63765057 189.25250615 988.13468614 160.72947693 988.52154541 C144.35005284 988.49254501 131.43328195 986.75900296 116.5322113 979.95294189 C115.7916449 979.61528809 115.05107849 979.27763428 114.28807068 978.92974854 C99.09535342 971.49932978 87.76552676 958.98010603 76.00950623 947.16168213 C74.0797008 945.23100078 72.14763863 943.30258335 70.21568298 941.37405396 C65.53645774 936.70042923 60.86518332 932.01893649 56.19660046 927.33468347 C50.75069729 921.871148 45.29665019 916.415772 39.84225205 910.96071947 C30.10757951 901.2243632 20.37996559 891.48098575 10.65647888 881.73345947 C1.2361476 872.2898553 -8.18873068 862.85082185 -17.61891174 853.41705322 C-18.20023937 852.83550283 -18.78156699 852.25395244 -19.38051061 851.65477931 C-20.55174293 850.48310436 -21.72297555 849.31142972 -22.89420847 848.13975537 C-23.4720633 847.56168098 -24.04991812 846.98360659 -24.6452837 846.38801479 C-25.50997932 845.52299519 -25.50997932 845.52299519 -26.39214354 844.64050045 C-35.4024677 835.62647012 -44.40896435 826.60861605 -53.41493336 817.59023474 C-56.67072665 814.33001801 -59.92700993 811.07029162 -63.1836376 807.81090837 C-68.34813125 802.64197047 -73.51093206 797.47135376 -78.67038629 792.29738527 C-81.0255135 789.93568202 -83.38163516 787.57499606 -85.73939323 785.21591759 C-88.30037458 782.65318048 -90.85825692 780.08738908 -93.41537476 777.52079773 C-94.15331624 776.78372272 -94.89125773 776.04664772 -95.65156108 775.28723711 C-98.90641983 772.0143313 -102.06909915 768.71181556 -105.08005142 765.21231461 C-109.19294882 760.44923483 -113.63462373 756.04172129 -118.09899902 751.61012268 C-119.03038541 750.6814097 -119.96177179 749.75269672 -120.92138201 748.79584092 C-122.95398439 746.76911346 -124.98818357 744.74400749 -127.02365494 742.72016144 C-130.33684298 739.42587693 -133.64647149 736.12803057 -136.95568848 732.82975769 C-141.13949056 728.66031507 -145.32424088 724.49182799 -149.51011551 720.32446607 C-157.73853249 712.13241892 -165.96066905 703.93409401 -174.18057251 695.73350525 C-175.47712864 694.44005942 -176.77368844 693.14661729 -178.07025188 691.8531788 C-180.03484152 689.8933147 -181.9994275 687.93344693 -183.96399872 685.97356436 C-191.36062752 678.59463836 -198.75794808 671.21640624 -206.15602112 663.83892822 C-207.16972588 662.82803904 -207.16972588 662.82803904 -208.20390952 661.79672786 C-219.1531587 650.87836258 -230.10976542 639.96740621 -241.06864791 629.05871115 C-252.33757413 617.84095303 -263.59686348 606.61358519 -274.84775931 595.37774342 C-281.7778433 588.4576007 -288.71548702 581.54521974 -295.66319192 574.64276751 C-300.42753536 569.90809101 -305.18258922 565.16421386 -309.93058246 560.41314182 C-312.66550558 557.67700597 -315.40424681 554.94501819 -318.15425873 552.22404099 C-320.67885635 549.7259271 -323.19130053 547.21619174 -325.69515008 544.6972877 C-327.01768494 543.37269331 -328.35244095 542.06033447 -329.68780273 540.74867231 C-337.51036263 532.83545842 -343.84598339 523.62499881 -347.5927887 513.07794189 C-348.16319885 511.51366455 -348.16319885 511.51366455 -348.74513245 509.91778564 C-353.31564108 495.97086875 -352.84861515 474.68412526 -347.19825745 461.18341064 C-346.68907776 460.17923096 -346.17989807 459.17505127 -345.6552887 458.14044189 C-345.13579651 457.08469971 -344.61630432 456.02895752 -344.08106995 454.94122314 C-340.22845545 447.7838018 -335.38223403 441.87770605 -329.6552887 436.14044189 C-329.11517151 435.58872314 -328.57505432 435.03700439 -328.01856995 434.46856689 C-312.09054649 419.54356758 -293.61493975 417.54237487 -272.88258362 417.68634033 C-270.59498108 417.68747022 -268.30737709 417.6868322 -266.01977539 417.68457031 C-259.84292744 417.68342776 -253.66639339 417.70686285 -247.48961806 417.73486614 C-241.02209699 417.75995639 -234.55456785 417.7622278 -228.08700562 417.76696777 C-217.24243628 417.77796756 -206.39799496 417.80291262 -195.55348206 417.83868408 C-184.38975084 417.87546994 -173.22605081 417.90374939 -162.06227112 417.92071533 C-161.37270355 417.92176623 -160.68313598 417.92281712 -159.97267243 417.92389986 C-156.51288634 417.92912048 -153.05310003 417.9341752 -149.59331357 417.93914747 C-120.9472281 417.9805307 -92.30126289 418.05120967 -63.6552887 418.14044189 C-63.65854383 417.35709839 -63.66179896 416.57375488 -63.66515273 415.76667368 C-63.85770038 369.33760409 -64.03444324 322.90849739 -64.19066695 276.47929064 C-64.20943932 270.90426384 -64.22834371 265.3292375 -64.24732971 259.75421143 C-64.25110726 258.64432583 -64.2548848 257.53444024 -64.25877682 256.39092176 C-64.32025414 238.42069559 -64.39242644 220.45052748 -64.46855249 202.48035808 C-64.54642888 184.04079943 -64.612809 165.60122523 -64.66852123 147.16158617 C-64.7032598 135.78369583 -64.74696098 124.40591246 -64.80213354 113.02810256 C-64.83911026 105.22551815 -64.86491829 97.42294654 -64.88196262 89.62029333 C-64.89212497 85.11883466 -64.90719317 80.61753396 -64.93552971 76.1161499 C-64.96138512 71.99160907 -64.97315282 67.86727204 -64.97391758 63.74265246 C-64.9766444 62.25390539 -64.98445374 60.76515668 -64.99798342 59.27646859 C-65.13461268 43.59708086 -61.39863806 30.07966754 -50.48658752 18.30963135 C-35.92335763 3.50293965 -20.06209453 -0.01344445 0 0 Z " fill="#FDFDFD" transform="translate(366.65528869628906,26.85955810546875)"/>
<path d="M0 0 C0.89724667 -0.01043099 1.79449333 -0.02086198 2.71892929 -0.03160906 C4.19148367 -0.01822473 4.19148367 -0.01822473 5.69378662 -0.00457001 C6.73977146 -0.01080997 7.7857563 -0.01704993 8.86343765 -0.02347898 C12.37970556 -0.03947496 15.89528661 -0.02677844 19.41156006 -0.01421356 C21.92779954 -0.01963172 24.44403585 -0.02675265 26.96026611 -0.0354538 C33.09198109 -0.0518273 39.22344035 -0.04939287 45.35515881 -0.03780323 C50.33788346 -0.02877471 55.32055321 -0.02754238 60.30328369 -0.0318985 C61.01207932 -0.03251143 61.72087494 -0.03312436 62.45114923 -0.03375587 C63.89099218 -0.03503475 65.33083512 -0.0363316 66.77067804 -0.03764623 C80.27646891 -0.04905618 93.78215123 -0.03593187 107.28792429 -0.01444477 C118.87997183 0.00342662 130.47185916 0.00032263 142.06390381 -0.01811981 C155.52090468 -0.03951925 168.97781039 -0.0479575 182.4348259 -0.03567076 C183.86941273 -0.03439654 185.30399957 -0.03313906 186.73858643 -0.0318985 C187.44445585 -0.0312814 188.15032528 -0.03066429 188.8775847 -0.03002849 C193.85511955 -0.0265728 198.83259411 -0.03240863 203.81011963 -0.04181671 C210.50783717 -0.0541977 217.20520483 -0.04540042 223.90290833 -0.02223969 C226.36521398 -0.01693766 228.82754505 -0.0184917 231.2898407 -0.02729034 C234.64293638 -0.03817001 237.99505087 -0.02457297 241.3480835 -0.00457001 C242.32978642 -0.01349289 243.31148933 -0.02241578 244.32294083 -0.03160906 C245.22018749 -0.02117807 246.11743416 -0.01074708 247.04187012 0 C248.20284021 0.00097411 248.20284021 0.00097411 249.38726425 0.00196791 C252.51448254 0.73684078 253.64263858 1.91450184 255.52093506 4.50336456 C256.01772904 7.71885896 256.01772904 7.71885896 256.01312637 11.61732101 C256.01774175 12.33780683 256.02235713 13.05829265 256.02711236 13.80061138 C256.03774527 16.22779626 256.01971977 18.65393108 256.00195312 21.08106232 C256.00369661 22.83343243 256.00719743 24.58580153 256.01230979 26.33816504 C256.02127733 31.16352775 256.00522176 35.98853704 255.98519754 40.81385469 C255.9679625 46.01356038 255.97376645 51.21324529 255.97680664 56.4129715 C255.97890651 65.42514793 255.96633081 74.43720873 255.94385529 83.44935608 C255.9113804 96.47947284 255.90093289 109.50953356 255.89590332 122.53968641 C255.88714358 143.67897803 255.86050958 164.81820799 255.82269287 185.95746613 C255.78599035 206.4952234 255.75766998 227.03296394 255.74066162 247.57074738 C255.73961073 248.83618261 255.73855983 250.10161784 255.73747709 251.40539959 C255.73225704 257.75356316 255.72720218 264.10172685 255.72222948 270.44989061 C255.68074631 323.13442455 255.6102794 375.81889155 255.52093506 428.50336456 C257.24705835 428.49783381 257.24705835 428.49783381 259.00805283 428.49219131 C286.31383793 428.40559246 313.61960811 428.33961885 340.92550229 428.29910325 C344.28511293 428.29410031 347.64472328 428.28892304 351.0043335 428.283638 C352.0076062 428.28206414 352.0076062 428.28206414 353.03114703 428.28045848 C363.86638812 428.26304498 374.70154448 428.23150214 385.53673527 428.19475338 C396.65154769 428.15737017 407.7663255 428.13543375 418.88119912 428.12701058 C425.12559339 428.12178687 431.36979536 428.10947355 437.61412811 428.08044434 C443.48768427 428.05335922 449.36096832 428.04490564 455.23458099 428.05093384 C457.39374265 428.04983051 459.5529131 428.04183582 461.71202087 428.02654266 C464.6536885 428.00672306 467.59432055 428.01139622 470.53601074 428.0223465 C471.39593179 428.01069513 472.25585285 427.99904377 473.14183211 427.98703933 C476.95253824 428.02554158 478.89018889 428.04583277 482.03952408 430.33030319 C484.32703888 433.68582715 484.25151819 435.51836567 483.52093506 439.50336456 C482.19789124 441.34203339 482.19789124 441.34203339 480.46746826 443.24433136 C479.8315274 443.94400024 479.19558655 444.64366913 478.54037476 445.3645401 C475.32012969 448.77515887 472.02586138 452.10169467 468.68890381 455.39789581 C467.97108231 456.11193069 467.2532608 456.82596558 466.51368713 457.56163788 C464.24770912 459.81551858 461.97849124 462.06609183 459.70843506 464.31586456 C456.69905299 467.29866813 453.69299161 470.28476137 450.68890381 473.27289581 C449.99935104 473.95415024 449.30979828 474.63540466 448.59934998 475.33730316 C447.64244011 476.28925819 447.64244011 476.28925819 446.66619873 477.26044464 C446.10551193 477.81589462 445.54482513 478.3713446 444.96714783 478.9436264 C443.30900114 480.64904867 443.30900114 480.64904867 441.52093506 483.50336456 C440.86093506 483.50336456 440.20093506 483.50336456 439.52093506 483.50336456 C439.14596138 484.36680481 439.14596138 484.36680481 438.76341248 485.24768829 C437.34617001 487.82064467 435.72907274 489.52856178 433.64129639 491.59418488 C432.84319046 492.38891205 432.04508453 493.18363922 431.22279358 494.00244904 C430.35825058 494.85353241 429.49370758 495.70461578 428.60296631 496.58148956 C427.71236008 497.46689423 426.82175385 498.35229889 425.90415955 499.264534 C423.53474729 501.6191422 421.16139221 503.96961311 418.7855835 506.31775665 C415.45816341 509.60727615 412.13572347 512.90179188 408.81626892 516.19934845 C407.05158753 517.95189275 405.28424014 519.70175808 403.5138092 521.44849396 C399.24778057 525.68028963 395.17201072 529.98455973 391.25682068 534.54138947 C388.06865038 538.14480127 384.62866508 541.49704802 381.20843506 544.87836456 C380.43588379 545.64712921 379.66333252 546.41589386 378.86737061 547.20795441 C375.5971747 550.46196286 372.32100016 553.70992722 369.04534912 556.95844269 C366.63928221 559.34631808 364.23630467 561.73727249 361.83343506 564.12836456 C361.10406738 564.8494339 360.37469971 565.57050323 359.62322998 566.31342316 C356.32049922 569.60051563 353.11528343 572.91575517 350.07562256 576.44867706 C346.05411284 581.11333159 341.7086489 585.42259761 337.33343506 589.75336456 C336.47209961 590.61091339 335.61076416 591.46846222 334.72332764 592.35199738 C331.07079523 595.98831395 327.41229871 599.61860827 323.7543335 603.24945831 C321.0702835 605.91534053 318.38930264 608.58428266 315.70843506 611.25336456 C314.48314087 612.46621124 314.48314087 612.46621124 313.23309326 613.70355988 C309.07010742 617.84886391 305.10153417 622.07626177 301.27069092 626.52875519 C298.07559198 630.13444239 294.63317828 633.49258616 291.20843506 636.87836456 C290.43588379 637.64712921 289.66333252 638.41589386 288.86737061 639.20795441 C285.5971747 642.46196286 282.32100016 645.70992722 279.04534912 648.95844269 C276.63928221 651.34631808 274.23630467 653.73727249 271.83343506 656.12836456 C271.10406738 656.8494339 270.37469971 657.57050323 269.62322998 658.31342316 C266.31147077 661.60950133 263.09796691 664.93491171 260.04827881 668.47602081 C256.16929627 672.97553044 251.99248416 677.13962804 247.77093506 681.31586456 C246.54552002 682.53559967 246.54552002 682.53559967 245.29534912 683.77997589 C241.83398464 687.22513796 238.36664915 690.66426746 234.89984131 694.1039505 C232.35478318 696.63082964 229.81280374 699.16077771 227.27093506 701.69086456 C226.49781982 702.45568146 225.72470459 703.22049835 224.92816162 704.00849152 C221.51060676 707.41074278 218.18136201 710.83423891 215.03460693 714.48969269 C211.09494275 719.06391476 206.84140107 723.29017071 202.55218506 727.53461456 C201.29347595 728.78764374 201.29347595 728.78764374 200.00933838 730.06598663 C196.45238986 733.60672586 192.88947386 737.1414378 189.3270874 740.67670441 C186.71253341 743.27308516 184.10105321 745.87253022 181.48968506 748.47211456 C180.69469604 749.25880524 179.89970703 750.04549591 179.08062744 750.8560257 C174.97572521 754.94303214 171.06780854 759.11629626 167.28952026 763.50547028 C164.02415281 767.1942148 160.51974623 770.64683995 157.03265381 774.12445831 C156.24824417 774.90982468 155.46383453 775.69519104 154.65565491 776.50435638 C153.0122853 778.14840174 151.3676713 779.79120409 149.72186279 781.43280792 C147.19473358 783.95453676 144.67304218 786.4816162 142.15179443 789.00922394 C140.54990181 790.61045652 138.94769943 792.21137927 137.34515381 793.81195831 C136.58997971 794.56915665 135.8348056 795.32635498 135.05674744 796.10649872 C134.35874527 796.80134872 133.6607431 797.49619873 132.94158936 798.2121048 C132.02061714 799.13188362 132.02061714 799.13188362 131.08103943 800.07024384 C128.23987898 802.68014994 125.54788603 803.02638783 121.71611023 802.97298431 C118.98538235 802.38879233 117.81613431 801.37766981 115.77313232 799.48944855 C115.07882111 798.85151367 114.38450989 798.2135788 113.66915894 797.55631256 C110.10792288 794.15302089 106.58911073 790.71407503 103.11077881 787.22602081 C102.33964249 786.45584122 101.56850616 785.68566162 100.77400208 784.89214325 C99.15513353 783.27395083 97.53750955 781.65451244 95.92108154 780.03388214 C93.46524788 777.57269224 91.00412141 775.11688648 88.54241943 772.66156769 C86.96071853 771.0792059 85.37932789 769.49653389 83.79827881 767.91352081 C83.07204819 767.18931442 82.34581757 766.46510803 81.59757996 765.71895599 C78.29785539 762.40425258 75.0911096 759.05892961 72.03851318 755.51435089 C68.22517296 751.09527078 64.11937931 747.01119386 59.96234131 742.91742706 C58.34437512 741.31208696 56.72654025 739.70661448 55.10882568 738.10102081 C52.58016855 735.59733624 50.04992603 733.09529229 47.51727295 730.59564972 C45.05715408 728.16554671 42.60313773 725.72941459 40.14984131 723.29242706 C39.0015963 722.16437149 39.0015963 722.16437149 37.83015442 721.01352692 C37.13200119 720.31875244 36.43384796 719.62397797 35.71453857 718.90814972 C35.09611588 718.29718445 34.47769318 717.68621918 33.8405304 717.05673981 C32.52093506 715.50336456 32.52093506 715.50336456 32.52093506 713.50336456 C31.53093506 713.17336456 30.54093506 712.84336456 29.52093506 712.50336456 C28.0043335 710.96552277 28.0043335 710.96552277 26.38031006 708.99164581 C22.4066682 704.31169432 18.133446 700.00654989 13.77093506 695.69086456 C12.54552002 694.47112946 12.54552002 694.47112946 11.29534912 693.22675323 C8.70630835 690.64983159 6.11404769 688.07618831 3.52093506 685.50336456 C0.10130787 682.11049303 -3.31488643 678.71421799 -6.72906494 675.31586456 C-7.50218018 674.55104767 -8.27529541 673.78623077 -9.07183838 672.99823761 C-13.12786493 668.9603737 -16.97786655 664.82908959 -20.71176147 660.49329376 C-23.9192657 656.88174292 -27.37785379 653.5232877 -30.81890869 650.13617706 C-32.39130169 648.57640962 -33.96356365 647.01651008 -35.53570557 645.45648956 C-37.99193614 643.02523425 -40.44975284 640.59562186 -42.90997314 638.16840363 C-45.30059329 635.80779918 -47.68510968 633.44116653 -50.06890869 631.07367706 C-50.81253159 630.34351379 -51.55615448 629.61335052 -52.3223114 628.8610611 C-53.00044388 628.18630737 -53.67857635 627.51155365 -54.3772583 626.81635284 C-54.97791611 626.22315247 -55.57857391 625.62995209 -56.19743347 625.01877594 C-57.47906494 623.50336456 -57.47906494 623.50336456 -57.47906494 621.50336456 C-58.46906494 621.17336456 -59.45906494 620.84336456 -60.47906494 620.50336456 C-61.9956665 618.96552277 -61.9956665 618.96552277 -63.61968994 616.99164581 C-67.5933318 612.31169432 -71.866554 608.00654989 -76.22906494 603.69086456 C-77.45447998 602.47112946 -77.45447998 602.47112946 -78.70465088 601.22675323 C-81.29369165 598.64983159 -83.88595231 596.07618831 -86.47906494 593.50336456 C-89.89869213 590.11049303 -93.31488643 586.71421799 -96.72906494 583.31586456 C-97.50218018 582.55104767 -98.27529541 581.78623077 -99.07183838 580.99823761 C-103.11932677 576.96887362 -106.96089393 572.84664688 -110.68707275 568.52021027 C-114.03678884 564.75018239 -117.64509664 561.23636384 -121.22906494 557.69086456 C-122.0460083 556.87770782 -122.86295166 556.06455109 -123.70465088 555.22675323 C-126.29369165 552.64983159 -128.88595231 550.07618831 -131.47906494 547.50336456 C-134.89869213 544.11049303 -138.31488643 540.71421799 -141.72906494 537.31586456 C-142.50218018 536.55104767 -143.27529541 535.78623077 -144.07183838 534.99823761 C-148.11932677 530.96887362 -151.96089393 526.84664688 -155.68707275 522.52021027 C-159.03678884 518.75018239 -162.64509664 515.23636384 -166.22906494 511.69086456 C-167.0460083 510.87770782 -167.86295166 510.06455109 -168.70465088 509.22675323 C-171.29369165 506.64983159 -173.88595231 504.07618831 -176.47906494 501.50336456 C-179.89869213 498.11049303 -183.31488643 494.71421799 -186.72906494 491.31586456 C-187.50218018 490.55104767 -188.27529541 489.78623077 -189.07183838 488.99823761 C-193.13675838 484.95152007 -196.99869073 480.81191944 -200.74084473 476.46643829 C-203.79236378 473.02017939 -207.07273866 469.80739305 -210.34625244 466.57367706 C-211.06644562 465.85727051 -211.78663879 465.14086395 -212.52865601 464.40274811 C-214.80135335 462.14214894 -217.07729323 459.88485968 -219.35406494 457.62836456 C-222.37514344 454.63382 -225.39293085 451.63601471 -228.40875244 448.63617706 C-229.10346649 447.94976135 -229.79818054 447.26334564 -230.51394653 446.55612946 C-231.4709697 445.60406113 -231.4709697 445.60406113 -232.44732666 444.63275909 C-233.01023407 444.0750885 -233.57314148 443.51741791 -234.15310669 442.94284821 C-236.31121072 440.59997244 -236.48949324 439.39073892 -236.79156494 436.12836456 C-236.47906494 432.50336456 -236.47906494 432.50336456 -235.02109146 430.30686569 C-231.26280621 427.6404609 -227.99896589 427.96130907 -223.49414062 428.0223465 C-222.5760072 428.0189288 -221.65787377 428.0155111 -220.71191812 428.01198983 C-217.62845119 428.00538935 -214.54585041 428.02742309 -211.46246338 428.049263 C-209.25500509 428.05039101 -207.0475453 428.04975853 -204.84008789 428.04749298 C-198.84038523 428.04634309 -192.841001 428.0698972 -186.84137249 428.09778881 C-180.57399284 428.1227565 -174.30660628 428.12514081 -168.03918457 428.12989044 C-157.51746469 428.14091915 -146.99584353 428.16592136 -136.47418213 428.20160675 C-125.6369485 428.23832421 -114.79974665 428.26663724 -103.96246338 428.283638 C-103.29442726 428.28468889 -102.62639115 428.28573979 -101.93811151 428.28682253 C-98.58676229 428.29204269 -95.23541284 428.29709752 -91.88406324 428.30207014 C-64.0823156 428.34390533 -36.2806985 428.41428396 -8.47906494 428.50336456 C-8.48134326 427.15988618 -8.48134326 427.15988618 -8.48366761 425.78926682 C-8.57311173 372.74697641 -8.64177665 319.70469397 -8.68332626 266.66234328 C-8.6883293 260.29847785 -8.69350657 253.93461258 -8.6987915 247.57074738 C-8.69984075 246.30377595 -8.70088999 245.03680453 -8.70197102 243.73144004 C-8.71939292 223.19643056 -8.75094042 202.66146572 -8.78767613 182.12648275 C-8.82503592 161.06755513 -8.84729028 140.00865094 -8.85541892 118.94969153 C-8.860917 105.94726054 -8.87830396 92.94495568 -8.91073081 79.9425635 C-8.93181747 71.03548774 -8.93827829 62.12847752 -8.93307045 53.22137859 C-8.93049954 48.07661948 -8.93453716 42.93208132 -8.95588684 37.78736115 C-8.97527135 33.08202519 -8.97638797 28.37705995 -8.96266052 23.67170736 C-8.96096251 21.96504517 -8.9661052 20.25836037 -8.97859767 18.55174306 C-8.99454375 16.23980954 -8.98606618 13.92923167 -8.97125626 11.61732101 C-8.97353458 9.6875823 -8.97353458 9.6875823 -8.97585893 7.71885896 C-8.47906494 4.50336456 -8.47906494 4.50336456 -6.72824454 2.09020257 C-4.20428675 0.30950344 -3.05184241 0.00256065 0 0 Z " fill="#000000" transform="translate(399.47906494140625,115.49663543701172)"/>
<path d="M0 0 C1.39849664 -0.00258622 2.79699255 -0.0056001 4.19548744 -0.0090034 C8.02918223 -0.01704655 11.86285827 -0.01886147 15.6965605 -0.01960087 C19.83512662 -0.02145613 23.97368312 -0.02900586 28.11224365 -0.03573608 C37.15793388 -0.04930112 46.20361966 -0.05534135 55.24931836 -0.05974674 C60.90141153 -0.06251242 66.553503 -0.06675038 72.20559502 -0.07125092 C87.86564431 -0.08344149 103.52569225 -0.09374103 119.18574619 -0.09712601 C120.1874663 -0.09734557 121.18918641 -0.09756514 122.22126168 -0.09779136 C123.22533086 -0.09800964 124.22940005 -0.09822791 125.26389557 -0.09845281 C127.29840251 -0.09889627 129.33290945 -0.09934283 131.36741638 -0.09979248 C132.37659455 -0.10001391 133.38577271 -0.10023534 134.42553204 -0.10046348 C150.76949513 -0.10440958 167.11341358 -0.12185884 183.45735944 -0.145152 C200.25189472 -0.16889341 217.04640764 -0.18132914 233.84095997 -0.18249393 C243.26460924 -0.18340915 252.68820036 -0.18912289 262.11183357 -0.20731354 C270.13791489 -0.22275224 278.16392007 -0.22781283 286.19001342 -0.21957543 C290.28086713 -0.21568217 294.3715677 -0.21653338 298.46240234 -0.23063278 C302.21621911 -0.24345163 305.9697689 -0.24210502 309.72358572 -0.23004207 C311.70618416 -0.22718667 313.68878757 -0.23896004 315.67134863 -0.25146413 C332.81351433 -0.15794393 347.55354493 3.79975631 360.09861755 15.86309814 C360.83982849 16.61462158 361.58103943 17.36614502 362.3447113 18.14044189 C362.99310974 18.77852783 363.64150818 19.41661377 364.30955505 20.07403564 C375.6467374 32.00660613 377.65668471 45.46753782 377.54725647 61.22503662 C377.54399533 62.76636522 377.54162321 64.3076959 377.5400604 65.84902716 C377.53321758 70.07240129 377.51380182 74.29563757 377.49229956 78.51895905 C377.47130337 83.07780511 377.46201476 87.63667693 377.45129395 92.19555664 C377.43113124 100.09012485 377.40357449 107.98463937 377.37097549 115.87916565 C377.32385373 127.29327855 377.28791456 138.70740518 377.25469224 150.121566 C377.20048629 168.64090932 377.13725437 187.16021037 377.06834412 205.67950439 C377.00142914 223.66777199 376.93876641 241.65604611 376.88182068 259.64434814 C376.87830824 260.75340871 376.87479579 261.86246928 376.87117691 263.00513774 C376.853582 268.56904696 376.83607067 274.13295643 376.81860089 279.69686604 C376.67359582 325.84477197 376.51394154 371.99261887 376.3447113 418.14044189 C377.5265503 418.13583293 378.7083893 418.13122396 379.9260416 418.12647533 C408.03231568 418.01799388 436.13857931 417.93564345 464.24501807 417.88511525 C467.71062256 417.87886233 471.17622661 417.87239066 474.64183044 417.86578369 C475.33171841 417.86447214 476.02160639 417.86316059 476.73240005 417.86180929 C487.8770937 417.84010135 499.0216573 417.80070555 510.16627402 417.75467791 C521.61676422 417.70778431 533.06714928 417.68049321 544.51773828 417.66999942 C550.9430572 417.66349802 557.36808198 417.64828643 563.79330635 417.61179161 C569.84996673 417.57767128 575.90621383 417.56742136 581.9629612 417.57490349 C584.1771749 417.5735361 586.39140346 417.56370013 588.6055336 417.54441452 C610.08969502 417.36657563 627.08169799 421.67564261 643.1728363 436.97247314 C643.88955505 437.68790283 644.6062738 438.40333252 645.3447113 439.14044189 C645.89643005 439.68055908 646.4481488 440.22067627 647.0165863 440.77716064 C659.24327376 453.82553409 664.1118197 470.49514908 663.9072113 488.01544189 C663.90295135 488.67308533 663.89869141 489.33072876 663.89430237 490.00830078 C663.80192218 500.26172324 663.03801707 508.88453002 658.3447113 518.14044189 C657.82521912 519.19618408 657.30572693 520.25192627 656.77049255 521.33966064 C650.79468427 532.44157021 641.55671702 541.07935566 632.69172668 549.9069519 C631.76200944 550.83681801 630.83229219 551.76668412 629.87440169 552.72472799 C627.32232925 555.2770929 624.76717898 557.82635613 622.21147537 560.3750844 C619.44479914 563.1353371 616.68107242 565.89854036 613.91699219 568.66139221 C609.13544047 573.44006822 604.35211994 578.21696761 599.56762314 582.99269485 C592.64206542 589.90565248 585.71978855 596.8218881 578.79838248 603.73900215 C567.55581866 614.97451144 556.31138784 626.2081501 545.06541443 637.44024658 C544.39347056 638.11136264 543.7215267 638.78247869 543.02922089 639.4739316 C538.25943387 644.23781794 533.48957992 649.00163726 528.7197113 653.76544189 C523.26751582 659.21070729 517.81535186 664.65600425 512.36326599 670.10137939 C511.69154033 670.77227693 511.01981467 671.44317447 510.32773368 672.13440223 C499.1193015 683.32913878 487.91284045 694.52584653 476.70777857 705.72395647 C469.80489705 712.62236427 462.9002455 719.51899128 455.99328007 726.41331016 C451.26155795 731.13659296 446.53161658 735.86165403 441.80305956 740.58810546 C439.07740684 743.31241636 436.35093807 746.03589728 433.62224388 748.75716209 C430.66001463 751.7113567 427.70170568 754.66944693 424.74372864 757.62789917 C423.45865419 758.90758117 423.45865419 758.90758117 422.14761865 760.21311533 C417.9559637 764.41197924 413.9425024 768.68715617 410.07256162 773.18303645 C406.93114613 776.74180756 403.56561661 780.07830879 400.21437073 783.43814087 C399.42409166 784.23421332 398.6338126 785.03028577 397.81958568 785.85048163 C395.18855243 788.49945551 392.55403182 791.14493151 389.91941833 793.79034424 C388.50787621 795.21021941 387.09633735 796.63009786 385.6850353 798.05021165 C378.99610338 804.78082019 372.30003489 811.5043093 365.6025238 818.22637939 C364.8082658 819.02359975 364.8082658 819.02359975 363.99796218 819.83692557 C353.46108631 830.41299473 342.92142439 840.98628413 332.37607002 851.55389977 C330.06316828 853.87176975 327.75030471 856.18967782 325.43748474 858.50762939 C324.86273265 859.08365216 324.28798056 859.65967492 323.69581173 860.25315292 C314.39453698 869.57576865 305.10717444 878.9121197 295.82530572 888.25405256 C286.2703311 897.87034167 276.70200063 907.47318391 267.12094963 917.06349337 C261.75206794 922.43825927 256.3891407 927.81867939 251.04137039 933.21445847 C246.48558868 937.81110483 241.91780636 942.39540114 237.33453305 946.96464299 C235.00241056 949.29035683 232.67807301 951.62296746 230.36520195 953.96784782 C210.94964024 973.63765057 189.25250615 988.13468614 160.72947693 988.52154541 C144.35005284 988.49254501 131.43328195 986.75900296 116.5322113 979.95294189 C115.7916449 979.61528809 115.05107849 979.27763428 114.28807068 978.92974854 C99.09535342 971.49932978 87.76552676 958.98010603 76.00950623 947.16168213 C74.0797008 945.23100078 72.14763863 943.30258335 70.21568298 941.37405396 C65.53645774 936.70042923 60.86518332 932.01893649 56.19660046 927.33468347 C50.75069729 921.871148 45.29665019 916.415772 39.84225205 910.96071947 C30.10757951 901.2243632 20.37996559 891.48098575 10.65647888 881.73345947 C1.2361476 872.2898553 -8.18873068 862.85082185 -17.61891174 853.41705322 C-18.20023937 852.83550283 -18.78156699 852.25395244 -19.38051061 851.65477931 C-20.55174293 850.48310436 -21.72297555 849.31142972 -22.89420847 848.13975537 C-23.4720633 847.56168098 -24.04991812 846.98360659 -24.6452837 846.38801479 C-25.50997932 845.52299519 -25.50997932 845.52299519 -26.39214354 844.64050045 C-35.4024677 835.62647012 -44.40896435 826.60861605 -53.41493336 817.59023474 C-56.67072665 814.33001801 -59.92700993 811.07029162 -63.1836376 807.81090837 C-68.34813125 802.64197047 -73.51093206 797.47135376 -78.67038629 792.29738527 C-81.0255135 789.93568202 -83.38163516 787.57499606 -85.73939323 785.21591759 C-88.30037458 782.65318048 -90.85825692 780.08738908 -93.41537476 777.52079773 C-94.15331624 776.78372272 -94.89125773 776.04664772 -95.65156108 775.28723711 C-98.90641983 772.0143313 -102.06909915 768.71181556 -105.08005142 765.21231461 C-109.19294882 760.44923483 -113.63462373 756.04172129 -118.09899902 751.61012268 C-119.03038541 750.6814097 -119.96177179 749.75269672 -120.92138201 748.79584092 C-122.95398439 746.76911346 -124.98818357 744.74400749 -127.02365494 742.72016144 C-130.33684298 739.42587693 -133.64647149 736.12803057 -136.95568848 732.82975769 C-141.13949056 728.66031507 -145.32424088 724.49182799 -149.51011551 720.32446607 C-157.73853249 712.13241892 -165.96066905 703.93409401 -174.18057251 695.73350525 C-175.47712864 694.44005942 -176.77368844 693.14661729 -178.07025188 691.8531788 C-180.03484152 689.8933147 -181.9994275 687.93344693 -183.96399872 685.97356436 C-191.36062752 678.59463836 -198.75794808 671.21640624 -206.15602112 663.83892822 C-207.16972588 662.82803904 -207.16972588 662.82803904 -208.20390952 661.79672786 C-219.1531587 650.87836258 -230.10976542 639.96740621 -241.06864791 629.05871115 C-252.33757413 617.84095303 -263.59686348 606.61358519 -274.84775931 595.37774342 C-281.7778433 588.4576007 -288.71548702 581.54521974 -295.66319192 574.64276751 C-300.42753536 569.90809101 -305.18258922 565.16421386 -309.93058246 560.41314182 C-312.66550558 557.67700597 -315.40424681 554.94501819 -318.15425873 552.22404099 C-320.67885635 549.7259271 -323.19130053 547.21619174 -325.69515008 544.6972877 C-327.01768494 543.37269331 -328.35244095 542.06033447 -329.68780273 540.74867231 C-337.51036263 532.83545842 -343.84598339 523.62499881 -347.5927887 513.07794189 C-348.16319885 511.51366455 -348.16319885 511.51366455 -348.74513245 509.91778564 C-353.31564108 495.97086875 -352.84861515 474.68412526 -347.19825745 461.18341064 C-346.68907776 460.17923096 -346.17989807 459.17505127 -345.6552887 458.14044189 C-345.13579651 457.08469971 -344.61630432 456.02895752 -344.08106995 454.94122314 C-340.22845545 447.7838018 -335.38223403 441.87770605 -329.6552887 436.14044189 C-329.11517151 435.58872314 -328.57505432 435.03700439 -328.01856995 434.46856689 C-312.09054649 419.54356758 -293.61493975 417.54237487 -272.88258362 417.68634033 C-270.59498108 417.68747022 -268.30737709 417.6868322 -266.01977539 417.68457031 C-259.84292744 417.68342776 -253.66639339 417.70686285 -247.48961806 417.73486614 C-241.02209699 417.75995639 -234.55456785 417.7622278 -228.08700562 417.76696777 C-217.24243628 417.77796756 -206.39799496 417.80291262 -195.55348206 417.83868408 C-184.38975084 417.87546994 -173.22605081 417.90374939 -162.06227112 417.92071533 C-161.37270355 417.92176623 -160.68313598 417.92281712 -159.97267243 417.92389986 C-156.51288634 417.92912048 -153.05310003 417.9341752 -149.59331357 417.93914747 C-120.9472281 417.9805307 -92.30126289 418.05120967 -63.6552887 418.14044189 C-63.65854383 417.35709839 -63.66179896 416.57375488 -63.66515273 415.76667368 C-63.85770038 369.33760409 -64.03444324 322.90849739 -64.19066695 276.47929064 C-64.20943932 270.90426384 -64.22834371 265.3292375 -64.24732971 259.75421143 C-64.25110726 258.64432583 -64.2548848 257.53444024 -64.25877682 256.39092176 C-64.32025414 238.42069559 -64.39242644 220.45052748 -64.46855249 202.48035808 C-64.54642888 184.04079943 -64.612809 165.60122523 -64.66852123 147.16158617 C-64.7032598 135.78369583 -64.74696098 124.40591246 -64.80213354 113.02810256 C-64.83911026 105.22551815 -64.86491829 97.42294654 -64.88196262 89.62029333 C-64.89212497 85.11883466 -64.90719317 80.61753396 -64.93552971 76.1161499 C-64.96138512 71.99160907 -64.97315282 67.86727204 -64.97391758 63.74265246 C-64.9766444 62.25390539 -64.98445374 60.76515668 -64.99798342 59.27646859 C-65.13461268 43.59708086 -61.39863806 30.07966754 -50.48658752 18.30963135 C-35.92335763 3.50293965 -20.06209453 -0.01344445 0 0 Z M-30.6552887 35.14044189 C-32.81099636 38.04876571 -34.79213162 41.03700136 -36.6552887 44.14044189 C-37.00762851 44.71375577 -37.35996832 45.28706964 -37.72298509 45.87775666 C-38.95677918 48.87215426 -38.90478881 51.32362481 -38.90417767 54.56215572 C-38.90678495 55.20783509 -38.90939224 55.85351446 -38.91207853 56.51875988 C-38.91839557 58.69133132 -38.91040487 60.86361559 -38.90252686 63.03617859 C-38.90411457 64.60604064 -38.90657779 66.175902 -38.90984327 67.74576145 C-38.91627016 72.06706041 -38.91017815 76.388266 -38.90207899 80.70955884 C-38.89551152 85.36758883 -38.90044854 90.02560822 -38.90396118 94.68363953 C-38.90900909 103.81420588 -38.90335325 112.94473608 -38.89411088 122.07529794 C-38.88373215 132.71086368 -38.88379697 143.34642157 -38.88428346 153.98199142 C-38.88478445 172.96670064 -38.87561478 191.95139304 -38.86109924 210.93609619 C-38.84702906 229.34788317 -38.83992769 247.75965533 -38.84059143 266.17144775 C-38.84065136 267.87039452 -38.84065136 267.87039452 -38.84071251 269.60366344 C-38.84077304 271.29969633 -38.84077304 271.29969633 -38.8408348 273.02999252 C-38.84152562 293.99326893 -38.83562659 314.95653906 -38.82668158 335.91981344 C-38.82367006 343.32766572 -38.82260257 350.73551685 -38.82214928 358.14336967 C-38.82146537 367.18219715 -38.81697658 376.22101404 -38.80781647 385.25983702 C-38.80321497 389.86896048 -38.80014684 394.47807045 -38.80141068 399.08719635 C-38.80251328 403.31347812 -38.7989415 407.53973018 -38.79176215 411.76600576 C-38.78996297 413.28831362 -38.78980455 414.81062458 -38.79152944 416.33293252 C-38.80056959 425.31132488 -38.49498838 434.19658196 -37.6552887 443.14044189 C-38.94204593 443.13583293 -40.22880316 443.13122396 -41.55455303 443.12647533 C-72.13679449 443.01805924 -102.71898387 442.93567602 -133.30137153 442.88511525 C-137.06997902 442.87886212 -140.83858611 442.87239047 -144.60719299 442.86578369 C-145.73253032 442.86381636 -145.73253032 442.86381636 -146.88060174 442.86180929 C-159.00955278 442.84008485 -171.13838468 442.80067979 -183.26726516 442.75467791 C-195.72344719 442.70783059 -208.17956706 442.68012906 -220.63583356 442.66999942 C-228.31484448 442.66315734 -235.99351855 442.64159036 -243.67242572 442.60085956 C-249.57222346 442.57117001 -255.47185068 442.56818857 -261.37172508 442.57490349 C-263.78350898 442.57353281 -266.19530614 442.56365228 -268.6070137 442.54441452 C-285.88639383 442.4133909 -300.52655793 443.40955145 -313.6552887 456.14044189 C-323.42440715 468.06904969 -326.9331034 479.68763185 -325.90968323 494.94268799 C-323.99737825 511.46338798 -310.47254996 522.60664567 -299.3662262 533.62481689 C-297.97529391 535.0120106 -296.58480877 536.39965278 -295.19474792 537.78771973 C-291.55481092 541.42006787 -287.90891157 545.04637212 -284.26167297 548.67138672 C-280.55331348 552.35925636 -276.85062762 556.05281267 -273.1474762 559.74591064 C-267.16801699 565.70785129 -261.18516958 571.66636542 -255.19769287 577.62025452 C-252.01184183 580.78862782 -248.83173098 583.9626289 -245.6552887 587.14044189 C-244.65103584 588.14050479 -243.64631746 589.14010071 -242.6408844 590.13897705 C-239.70900705 593.053124 -236.78012637 595.97026191 -233.85231018 598.88848877 C-232.59147551 600.14425985 -231.32974987 601.39913698 -230.06715393 602.65313721 C-228.23610323 604.47207747 -226.40828487 606.29421197 -224.58106995 608.11700439 C-224.01648575 608.67642731 -223.45190155 609.23585022 -222.87020874 609.81222534 C-220.51934718 612.16274821 -218.50598145 614.36440277 -216.6552887 617.14044189 C-215.9952887 617.14044189 -215.3352887 617.14044189 -214.6552887 617.14044189 C-214.6552887 617.80044189 -214.6552887 618.46044189 -214.6552887 619.14044189 C-213.21553199 620.37930231 -211.76959185 621.61196029 -210.2881012 622.80059814 C-207.90682444 624.75461233 -205.8079443 626.93772453 -203.6552887 629.14044189 C-202.93856995 629.84684814 -202.2218512 630.55325439 -201.4834137 631.28106689 C-195.07693631 637.60379948 -195.07693631 637.60379948 -192.5927887 640.76544189 C-190.1947144 643.70501683 -187.42077432 645.98673698 -184.54200745 648.44512939 C-182.2796455 650.47797636 -180.49791047 652.72597199 -178.6552887 655.14044189 C-176.30050975 657.61597874 -173.9971117 659.87957697 -171.2802887 661.95294189 C-168.95596286 663.88988009 -167.17059654 665.78607511 -165.2177887 668.07794189 C-163.10840844 670.5517939 -161.17154027 672.54356559 -158.6552887 674.64044189 C-156.19276464 676.69254528 -154.33182163 678.59259079 -152.2802887 681.01544189 C-149.89904461 683.81628847 -147.46227283 686.26696882 -144.6552887 688.64044189 C-141.21254961 691.55914169 -138.31184208 694.70889297 -135.3896637 698.14044189 C-133.59925008 700.20506301 -131.75129228 702.18462004 -129.8427887 704.14044189 C-129.27946838 704.71794189 -128.71614807 705.29544189 -128.13575745 705.89044189 C-126.72353041 707.35548473 -126.72353041 707.35548473 -124.6552887 707.14044189 C-124.40472371 707.71604638 -124.15415873 708.29165087 -123.89600086 708.88469791 C-122.48462381 711.45072844 -120.87729612 713.16440734 -118.80389404 715.23234558 C-118.00061172 716.03837723 -117.19732941 716.84440887 -116.3697052 717.67486572 C-115.48708008 718.55030029 -114.60445496 719.42573486 -113.69508362 720.32769775 C-112.76648026 721.25659317 -111.83787689 722.18548859 -110.88113403 723.14253235 C-108.33587019 725.68837008 -105.78448473 728.22799195 -103.23196578 730.76655269 C-100.55880732 733.42719219 -97.89132699 736.09351209 -95.22323608 738.75923157 C-90.16523144 743.81101822 -85.10215283 748.85768768 -80.03723079 753.90253788 C-74.29159333 759.62589081 -68.55156727 765.35485707 -62.81204069 771.08433712 C-52.99488876 780.88411419 -43.17352174 790.67964816 -33.34745789 800.4704895 C-29.44681698 804.35724163 -25.54807318 808.24582247 -21.6552887 812.14044189 C-20.65103584 813.14050479 -19.64631746 814.14010071 -18.6408844 815.13897705 C-15.70900705 818.053124 -12.78012637 820.97026191 -9.85231018 823.88848877 C-8.59147551 825.14425985 -7.32974987 826.39913698 -6.06715393 827.65313721 C-4.23610323 829.47207747 -2.40828487 831.29421197 -0.58106995 833.11700439 C-0.01648575 833.67642731 0.54809845 834.23585022 1.12979126 834.81222534 C3.48065282 837.16274821 5.49401855 839.36440277 7.3447113 842.14044189 C8.0047113 842.14044189 8.6647113 842.14044189 9.3447113 842.14044189 C9.3447113 842.80044189 9.3447113 843.46044189 9.3447113 844.14044189 C11.67804464 846.80710856 11.67804464 846.80710856 14.3447113 849.14044189 C15.0047113 849.14044189 15.6647113 849.14044189 16.3447113 849.14044189 C16.6747113 850.13044189 17.0047113 851.12044189 17.3447113 852.14044189 C18.9380326 853.71707686 18.9380326 853.71707686 20.9072113 855.26544189 C23.99771398 857.87666875 26.70358887 860.57569388 29.3447113 863.64044189 C32.47018976 867.24911565 35.76107199 870.37106506 39.3993988 873.45294189 C42.54752403 876.18384571 45.42845643 879.16686505 48.3447113 882.14044189 C49.2109613 882.98606689 50.0772113 883.83169189 50.9697113 884.70294189 C53.59195567 887.39419269 55.93976356 890.2545046 58.3447113 893.14044189 C60.70395164 895.61764425 63.00011409 897.87745981 65.7197113 899.95294189 C68.00703828 901.85904771 69.74274445 903.69552067 71.6572113 905.95294189 C74.06016347 908.77289227 76.51557091 911.24907951 79.3447113 913.64044189 C82.78745039 916.55914169 85.68815792 919.70889297 88.6103363 923.14044189 C90.40074992 925.20506301 92.24870772 927.18462004 94.1572113 929.14044189 C94.72053162 929.71794189 95.28385193 930.29544189 95.86424255 930.89044189 C97.27646959 932.35548473 97.27646959 932.35548473 99.3447113 932.14044189 C99.58705505 932.70634033 99.8293988 933.27223877 100.0790863 933.85528564 C107.96591416 948.09539149 127.03784138 959.75774479 142.1181488 964.26934814 C153.94614642 967.06390596 167.34037157 966.20409296 178.3447113 961.14044189 C179.21225037 960.76661377 180.07978943 960.39278564 180.97361755 960.00762939 C187.10684726 957.17978913 192.18496019 953.4626961 197.3447113 949.14044189 C197.9737738 948.63384033 198.6028363 948.12723877 199.2509613 947.60528564 C202.84517887 944.64951462 205.80088323 941.49304284 208.76268005 937.91387939 C211.01340725 935.390842 213.55775118 933.28451259 216.12986755 931.09747314 C220.40293258 927.32180193 224.3439125 923.19998 228.3447113 919.14044189 C230.01011773 917.47251594 231.67669784 915.80576067 233.3447113 914.14044189 C233.9531488 913.53200439 234.5615863 912.92356689 235.1884613 912.29669189 C235.7350238 911.75012939 236.2815863 911.20356689 236.8447113 910.64044189 C237.44025818 910.04360596 238.03580505 909.44677002 238.6493988 908.83184814 C240.08012547 907.40441808 241.52351912 905.98970093 242.9697113 904.57794189 C245.4366242 902.11923837 245.4366242 902.11923837 247.7822113 899.14044189 C250.41222362 896.06140308 253.20721471 893.68965788 256.3447113 891.14044189 C258.86564214 888.73955539 261.17004712 886.35877213 263.3447113 883.64044189 C266.17045331 880.10826438 269.19446721 877.02524504 272.7822113 874.26544189 C275.54058812 871.97800746 277.67027045 869.50502003 279.9150238 866.72637939 C281.3447113 865.14044189 281.3447113 865.14044189 284.3447113 863.14044189 C284.3447113 862.48044189 284.3447113 861.82044189 284.3447113 861.14044189 C285.0047113 861.14044189 285.6647113 861.14044189 286.3447113 861.14044189 C288.01137797 859.80710856 288.01137797 859.80710856 289.3447113 858.14044189 C289.3447113 857.48044189 289.3447113 856.82044189 289.3447113 856.14044189 C290.3347113 855.81044189 291.3247113 855.48044189 292.3447113 855.14044189 C294.05347591 853.76529648 294.05347591 853.76529648 295.3447113 852.14044189 C295.3447113 851.48044189 295.3447113 850.82044189 295.3447113 850.14044189 C296.0047113 850.14044189 296.6647113 850.14044189 297.3447113 850.14044189 C298.66472601 848.83891375 298.66472601 848.83891375 300.07588196 847.04136658 C305.87548358 840.23163643 312.31695336 834.03741233 318.64598083 827.72564697 C320.09722525 826.27468498 321.54824881 824.82350206 322.99906921 823.37211609 C326.92224957 819.44864977 330.84849786 815.52826679 334.77531672 811.60844254 C338.89073128 807.49930075 343.00329358 803.38730631 347.11616516 799.27561951 C354.9030253 791.4918633 362.69242934 783.71065804 370.48275936 775.9303748 C379.33413239 767.09017109 388.18267482 758.24713646 397.03097367 749.40385592 C412.15448493 734.2890211 427.28011197 719.17630631 442.40809631 704.06594849 C443.0464494 703.42833499 443.68480249 702.7907215 444.34249961 702.13378638 C445.51442322 700.96323245 446.68636147 699.79269318 447.85831845 698.62217265 C451.0215444 695.46268966 454.18365426 692.30209526 457.3447113 689.14044189 C458.51137797 687.97377523 459.67804464 686.80710856 460.8447113 685.64044189 C461.44025818 685.04360596 462.03580505 684.44677002 462.6493988 683.83184814 C464.08012547 682.40441808 465.52351912 680.98970093 466.9697113 679.57794189 C469.4366242 677.11923837 469.4366242 677.11923837 471.7822113 674.14044189 C474.41222362 671.06140308 477.20721471 668.68965788 480.3447113 666.14044189 C482.86564214 663.73955539 485.17004712 661.35877213 487.3447113 658.64044189 C490.17045331 655.10826438 493.19446721 652.02524504 496.7822113 649.26544189 C499.54058812 646.97800746 501.67027045 644.50502003 503.9150238 641.72637939 C505.3447113 640.14044189 505.3447113 640.14044189 508.3447113 638.14044189 C508.3447113 637.48044189 508.3447113 636.82044189 508.3447113 636.14044189 C509.0047113 636.14044189 509.6647113 636.14044189 510.3447113 636.14044189 C512.01137797 634.80710856 512.01137797 634.80710856 513.3447113 633.14044189 C513.3447113 632.48044189 513.3447113 631.82044189 513.3447113 631.14044189 C514.3347113 630.81044189 515.3247113 630.48044189 516.3447113 630.14044189 C518.05347591 628.76529648 518.05347591 628.76529648 519.3447113 627.14044189 C519.3447113 626.48044189 519.3447113 625.82044189 519.3447113 625.14044189 C520.3347113 624.81044189 521.3247113 624.48044189 522.3447113 624.14044189 C523.89327725 622.61475215 523.89327725 622.61475215 525.4147644 620.69851685 C529.75185158 615.59243656 534.46294072 610.91993009 539.22386169 606.21124268 C540.20061942 605.24133157 541.17711855 604.27116 542.15338135 603.30075073 C544.24129493 601.22607307 546.33063571 599.15284751 548.42102242 597.08066177 C551.73323089 593.79651926 555.03983071 590.5067681 558.3453064 587.21585083 C559.4817025 586.08459726 560.61810564 584.95335074 561.75451565 583.82211113 C562.32322632 583.25598602 562.89193699 582.68986091 563.47788131 582.1065805 C571.16265013 574.45772735 578.8521856 566.81371416 586.55198669 559.17999268 C591.762684 554.01392354 596.96611778 548.84065444 602.16157717 543.65925968 C604.90391047 540.92495954 607.64977466 538.19443465 610.40469551 535.47281265 C612.99649787 532.91228951 615.57863214 530.34239044 618.15397453 527.76531601 C619.53917793 526.38404918 620.93430404 525.01275512 622.32981873 523.64190674 C632.56849502 513.35379612 638.55650808 502.97111088 638.8447113 488.39044189 C638.7878251 474.90563598 633.77766192 464.7901869 624.4697113 455.21075439 C615.18724183 446.48972461 604.59196702 442.8241014 592.05628967 442.89993286 C591.02210793 442.89822401 589.98792619 442.89651516 588.9224056 442.89475453 C585.45844864 442.89146134 581.99468556 442.90246069 578.53074646 442.91339111 C576.04713445 442.91395526 573.5635221 442.91363859 571.07991028 442.9125061 C565.73356765 442.91205072 560.38728532 442.9177221 555.0409584 442.92898178 C547.31112097 442.94525066 539.58130712 442.95044621 531.85145442 442.95295776 C519.30964254 442.95733269 506.7678567 442.9706363 494.22605896 442.98956299 C482.04441966 443.00792703 469.86278744 443.02208097 457.68113708 443.03057861 C456.55441727 443.03136678 456.55441727 443.03136678 455.40493543 443.03217088 C451.63657333 443.03478099 447.86821117 443.0373084 444.09984899 443.03979468 C412.84811749 443.06052088 381.59641835 443.0958898 350.3447113 443.14044189 C350.41511332 442.38768675 350.48551534 441.63493161 350.55805075 440.8593657 C351.32550563 431.94323212 351.49610851 423.07699225 351.49861145 414.13549805 C351.50263641 412.55501775 351.5070763 410.97453846 351.51189101 409.39406037 C351.52374467 405.08540694 351.52947843 400.77676464 351.53407216 396.46809816 C351.54007023 391.80825362 351.55166824 387.1484221 351.56236267 382.48858643 C351.58677511 371.26065541 351.60148907 360.03272014 351.61442274 348.80477083 C351.6181402 345.63216237 351.62211288 342.45955433 351.6261754 339.2869463 C351.65139672 319.56436792 351.67343831 299.84178876 351.68590355 280.11919785 C351.68883292 275.56150052 351.69179466 271.00380322 351.69480896 266.44610596 C351.69592804 264.74705216 351.69592804 264.74705216 351.69706972 263.01367405 C351.7097425 244.63619876 351.74300026 226.25881978 351.78461079 207.88138959 C351.82701751 188.99729671 351.85059632 170.11325324 351.85582411 151.22911286 C351.85923755 140.6325114 351.87098686 130.03606107 351.90392685 119.43950653 C351.93190974 110.42343113 351.94293386 101.40753794 351.93173139 92.39142248 C351.92654216 87.79271636 351.92944942 83.19439202 351.95419693 78.59574127 C351.97667353 74.38401147 351.97596229 70.17293811 351.95699306 65.96119693 C351.95419101 64.43989212 351.95980311 62.91854293 351.974806 61.39730951 C352.05408819 52.83313849 351.56874053 46.22635056 346.3447113 39.14044189 C345.4784613 37.81012939 345.4784613 37.81012939 344.5947113 36.45294189 C337.09729455 28.74726356 328.17139588 25.402258 317.56199682 25.04735529 C314.0803378 25.00835173 310.59995136 25.00241211 307.11807251 25.00672913 C305.76622289 25.00485939 304.4143738 25.00255804 303.06252557 24.9998638 C299.35792473 24.99375956 295.65334651 24.99387777 291.94874179 24.99505818 C287.94931433 24.99526253 283.94989407 24.98974013 279.95046997 24.98500061 C272.11875591 24.97670113 264.28704938 24.97394609 256.45533129 24.97338823 C250.08830563 24.97291276 243.72128246 24.97085642 237.35425758 24.96768761 C219.29556068 24.95888308 201.23686971 24.95426794 183.17817064 24.95501808 C181.71844641 24.95507802 181.71844641 24.95507802 180.22923279 24.95513916 C179.25489276 24.95518004 178.28055273 24.95522092 177.27668724 24.95526304 C161.48615354 24.95566949 145.69564368 24.94609964 129.90511688 24.93200079 C113.68464728 24.91763253 97.46418932 24.91073085 81.2437132 24.91159457 C72.13990446 24.91192638 63.03612073 24.90918646 53.93231773 24.89841652 C46.18134778 24.88930562 38.43041417 24.88714113 30.67944118 24.89392594 C26.72683314 24.89718811 22.7742948 24.89725876 18.82169342 24.88857269 C15.19889558 24.88069343 11.57622255 24.88215361 7.95342771 24.89085682 C6.03150518 24.89311085 4.10957874 24.88557438 2.18767136 24.87761718 C-9.91953282 24.92569272 -21.6056253 26.32892753 -30.6552887 35.14044189 Z " fill="#000000" transform="translate(366.65528869628906,26.85955810546875)"/>
</svg>
