<?xml version="1.0" encoding="UTF-8"?>
<svg version="1.1" xmlns="http://www.w3.org/2000/svg" width="1040" height="1040">
<path d="M0 0 C9.59202439 6.26751594 17.7442201 14.59637227 25.79847717 22.6647644 C26.76538796 23.62980338 27.73251374 24.59462699 28.69983381 25.55925572 C31.33845337 28.19179699 33.97398123 30.82741401 36.60897124 33.46358752 C39.45861104 36.31343233 42.31111544 39.16040755 45.16322327 42.00778198 C50.74272326 47.57899743 56.31946297 53.15296787 61.89510138 58.72804771 C66.42836852 63.2608388 70.96242639 67.79283742 75.49703789 72.3242836 C88.36558327 85.18402955 101.2320373 98.0458627 114.09580833 110.91038452 C114.78840301 111.60301915 115.48099769 112.29565378 116.19458008 113.00927734 C116.88802375 113.7027619 117.58146742 114.39624645 118.29592454 115.11074568 C129.53836627 126.35359402 140.78579038 137.59144323 152.03547997 148.82703887 C163.59844934 160.37563645 175.15767773 171.92796684 186.71303171 183.48418438 C193.19585117 189.96733546 199.68019363 196.44894598 206.16856575 202.92654037 C211.69129936 208.44015859 217.2105406 213.95724365 222.72532708 219.47881113 C225.53683213 222.29357568 228.34990103 225.10672743 231.16738129 227.91551208 C233.75064208 230.4908822 236.32917214 233.07089548 238.90414076 235.65455569 C240.26917023 237.02183431 241.63908685 238.38422854 243.00921875 239.74639404 C250.9407235 247.72215866 256.95969756 254.78590688 260.5625 265.5 C260.81128906 266.2321875 261.06007813 266.964375 261.31640625 267.71875 C263.11250905 273.71260164 263.2500803 279.47465907 263.3125 285.6875 C263.34150391 286.63044922 263.37050781 287.57339844 263.40039062 288.54492188 C263.46305162 295.55813335 262.01386654 300.70975678 259 307 C258.47140381 308.24910156 258.47140381 308.24910156 257.93212891 309.5234375 C254.86939242 316.36535551 250.57796494 321.05520762 245.1875 326.1875 C244.03411133 327.31961914 244.03411133 327.31961914 242.85742188 328.47460938 C239.47774332 331.76872645 236.04891039 334.96037321 232.46501923 338.03044224 C227.45630667 342.40987225 222.77382841 347.0906351 218.07849121 351.80125427 C217.0983469 352.78096171 216.11798254 353.76044903 215.13741922 354.73973709 C212.4624781 357.41245612 209.79064162 360.08825952 207.11932945 362.76460493 C204.23100989 365.65726182 201.3397814 368.54700873 198.44891357 371.43711853 C193.44694705 376.4385619 188.4468079 381.4418261 183.44792175 386.44634819 C176.22045794 393.6819552 168.99021906 400.91478399 161.75931007 408.14694787 C150.02638384 419.88206018 138.29569035 431.61940175 126.56640625 443.3581543 C115.17565407 454.75809205 103.7838472 466.15697415 92.390625 477.55444336 C91.68779583 478.25753525 90.98496666 478.96062714 90.26083964 479.68502485 C86.73478113 483.21238845 83.20870192 486.73973135 79.68261242 490.26706398 C50.45186588 519.50816934 21.22474497 548.7528965 -8 578 C-6.73284604 580.77256594 -5.43659317 582.81075622 -3.27467823 584.95465755 C-2.71766973 585.51194796 -2.16066124 586.06923836 -1.58677369 586.64341635 C-0.66884688 587.54646555 -0.66884688 587.54646555 0.2676239 588.46775818 C0.91776217 589.1153719 1.56790043 589.76298562 2.23773986 590.430224 C4.42163578 592.60334855 6.61257365 594.76923452 8.8034668 596.93530273 C10.36920985 598.4906606 11.93447024 600.04650448 13.49928284 601.60279846 C16.8731952 604.95681325 20.24998416 608.30789599 23.62885094 611.65691948 C28.97706947 616.95901779 34.31553112 622.27086538 39.65205383 627.58473206 C47.14121827 635.04090293 54.6317197 642.49572362 62.12573242 649.94702148 C62.60126361 650.41984781 63.0767948 650.89267413 63.56673602 651.37982852 C71.25772106 659.02653754 78.95639182 666.66547212 86.65706673 674.30242097 C94.57490021 682.15529374 102.48085774 690.02001942 110.37744838 697.89425808 C114.80668193 702.30998204 119.24137704 706.71989505 123.68967247 711.11642265 C127.87960161 715.25759635 132.05522057 719.41268324 136.22060204 723.57854271 C137.74592199 725.09904578 139.27635234 726.61444348 140.81241226 728.12409592 C152.30273468 739.42517271 160.63565877 749.79429997 164 766 C164.20367188 766.88171875 164.40734375 767.7634375 164.6171875 768.671875 C167.84308945 783.96176642 165.53493167 797.89429667 159 812 C158.69006104 812.68006104 158.38012207 813.36012207 158.06079102 814.06079102 C154.51278802 821.16073486 149.25288245 826.30577336 143.625 831.8125 C142.70460938 832.73998047 141.78421875 833.66746094 140.8359375 834.62304688 C136.16456996 839.25103743 131.92957904 843.12714194 126 846 C124.515 846.804375 124.515 846.804375 123 847.625 C119.72232329 849.12726849 116.47745163 850.11167042 113 851 C112.13735979 851.24434439 111.27471959 851.48868877 110.38593877 851.74043754 C103.43454644 853.63013505 97.11082651 854.4316803 89.92496395 854.38311005 C88.87339522 854.38806956 87.82182648 854.39302908 86.73839203 854.39813888 C83.23317927 854.41103811 79.728351 854.40272812 76.22312927 854.39440918 C73.67718441 854.39930076 71.13124177 854.40549181 68.58530289 854.41286707 C63.05924604 854.42583762 57.53330445 854.42952451 52.00723648 854.42490768 C43.78928161 854.41805982 35.57140927 854.42835336 27.35346588 854.44186524 C11.81936927 854.46675047 -3.7146929 854.4712954 -19.24880625 854.46939927 C-31.24826732 854.46802504 -43.24771648 854.47184954 -55.24717522 854.47932434 C-56.97248999 854.48037469 -58.69780477 854.48142231 -60.42311956 854.4824672 C-61.70783139 854.48324622 -61.70783139 854.48324622 -63.01849699 854.48404097 C-63.8765613 854.48456112 -64.73462561 854.48508126 -65.61869186 854.48561716 C-66.4782197 854.48614115 -67.33774753 854.48666514 -68.22332167 854.48720502 C-92.3931238 854.50178504 -116.56292157 854.51007233 -140.732728 854.50545502 C-141.6435643 854.50528306 -142.5544006 854.50511111 -143.492838 854.50493394 C-148.10906426 854.50404508 -152.7252905 854.50310027 -157.34151674 854.50213593 C-158.25827263 854.5019449 -159.17502851 854.50175387 -160.11956488 854.50155704 C-161.97346844 854.50116995 -163.827372 854.50077962 -165.68127556 854.50038607 C-194.51679789 854.49441837 -223.35223992 854.50984546 -252.18774414 854.54199219 C-284.60450472 854.57810099 -317.02121438 854.59739737 -349.43799633 854.59245348 C-352.89736902 854.59198353 -356.35674172 854.59157327 -359.81611443 854.59120178 C-360.66786238 854.5910994 -361.51961034 854.59099701 -362.39716884 854.59089152 C-375.23374647 854.58969859 -388.07026895 854.60163914 -400.90683174 854.62034607 C-415.51477894 854.64162452 -430.12261076 854.64539086 -444.73056317 854.62604648 C-452.89623533 854.61575166 -461.06162568 854.61910968 -469.22727212 854.64257733 C-475.33911145 854.65857833 -481.45064739 854.64817666 -487.56246793 854.62785631 C-490.02407361 854.62368181 -492.48571155 854.62783146 -494.9472831 854.64145225 C-514.93293449 854.74445156 -536.79234072 852.99031796 -553 840 C-554.60875 839.15115234 -554.60875 839.15115234 -556.25 838.28515625 C-561.23192262 835.51517492 -565.02409181 831.46529133 -569 827.4375 C-569.79946045 826.63119141 -570.5989209 825.82488281 -571.42260742 824.99414062 C-576.8936457 819.37264738 -581.40898066 814.01211662 -585 807 C-585.65935547 805.84951172 -585.65935547 805.84951172 -586.33203125 804.67578125 C-596.230529 786.58336088 -597.29967419 767.29005696 -597.24291992 747.17480469 C-597.24396188 744.94283017 -597.24586887 742.71085592 -597.24856091 740.47888279 C-597.2533508 734.34442406 -597.2455247 728.21003668 -597.23555517 722.07558656 C-597.22776229 716.09473252 -597.22939749 710.11388246 -597.230544 704.13302506 C-597.23282189 689.51932667 -597.21882355 674.90566515 -597.20104264 660.2919795 C-597.20011975 659.53230667 -597.19919686 658.77263385 -597.198246 657.98994064 C-597.19685594 656.84764445 -597.19685594 656.84764445 -597.1954378 655.68227157 C-597.18534427 647.22300754 -597.17873932 638.76374127 -597.17221069 630.30447388 C-597.15168251 604.22596773 -597.12700553 578.14747145 -597.08851624 552.06898499 C-597.08726307 551.21839106 -597.0860099 550.36779713 -597.08471876 549.49142762 C-597.07832043 545.15573721 -597.07188404 540.82004686 -597.06543553 536.48435652 C-597.06414771 535.61832305 -597.06285989 534.75228958 -597.06153305 533.86001267 C-597.05891978 532.10419388 -597.05630188 530.34837511 -597.05367939 528.59255634 C-597.01068162 499.73667244 -596.98709485 470.88081419 -596.97363281 442.02490234 C-596.95728038 407.1641509 -596.92150646 372.30347346 -596.86309147 337.44276619 C-596.85679794 333.64962905 -596.85057112 329.85649181 -596.84439087 326.06335449 C-596.84285697 325.12782615 -596.84132307 324.19229781 -596.83974268 323.22842012 C-596.81542144 308.15002318 -596.80729327 293.0716592 -596.80480447 277.99324473 C-596.8018442 262.75514778 -596.78009385 247.51716384 -596.73977637 232.27911931 C-596.71620619 223.17022718 -596.70645652 214.06156484 -596.71643328 204.9526464 C-596.7217449 198.83228323 -596.70876878 192.7121299 -596.68131829 186.5918266 C-596.66617377 183.10159581 -596.65867179 179.61183643 -596.673406 176.121593 C-596.71735339 161.91280292 -596.63736745 149.22061076 -591 136 C-590.53396771 134.87927314 -590.06793543 133.75854628 -589.58778095 132.60385799 C-586.17587941 124.7700473 -581.07389269 119.09769061 -575 113.1875 C-573.59778198 111.8118689 -573.59778198 111.8118689 -572.16723633 110.40844727 C-565.28574685 103.84220384 -559.15830968 98.95703843 -550 96 C-548.77667969 95.57976562 -547.55335938 95.15953125 -546.29296875 94.7265625 C-530.3869888 89.7591999 -512.6717054 90.49280635 -497 96 C-494.95901733 97.26971159 -492.9577154 98.60532148 -491 100 C-489.92813918 100.56673809 -488.85627836 101.13347618 -487.75193691 101.71738815 C-483.55111263 104.101862 -480.38203946 107.20885892 -477.0080719 110.63116455 C-476.34055544 111.29611773 -475.67303899 111.96107091 -474.98529476 112.64617419 C-472.76108978 114.86545665 -470.54774427 117.09525518 -468.33422852 119.32519531 C-466.73780178 120.92246865 -465.1407134 122.51908092 -463.54301453 124.11508179 C-459.21451016 128.44272607 -454.89531245 132.77955207 -450.57772946 137.11808872 C-446.06141903 141.65316351 -441.53660131 146.17973394 -437.01268005 150.70721436 C-429.42295917 158.30519761 -421.83850123 165.90838926 -414.25805664 173.515625 C-406.4520134 181.34922788 -398.64280869 189.17965684 -390.8293457 197.00585938 C-390.10626437 197.73012296 -390.10626437 197.73012296 -389.36857534 198.46901813 C-386.95010196 200.89140678 -384.53156644 203.31373338 -382.11300004 205.73602915 C-362.0656923 225.81440986 -342.02939271 245.90374903 -322 266 C-316.08217151 261.08936349 -310.64978676 255.79288775 -305.21893311 250.35264587 C-304.24178545 249.37736913 -303.26442254 248.40230803 -302.28686452 247.42744261 C-299.61545458 244.76212187 -296.94714779 242.09371371 -294.27937222 239.42475593 C-291.3963894 236.5415684 -288.51054366 233.66124874 -285.62509155 230.78053284 C-279.97928272 225.14301389 -274.33623936 219.50273468 -268.6942949 213.86134856 C-264.10948224 209.27701158 -259.5238796 204.69346629 -254.93772125 200.11047554 C-241.9323298 187.11388395 -228.92903023 174.11520461 -215.92841324 161.11383706 C-215.22822828 160.41361214 -214.52804331 159.71338722 -213.80664062 158.99194336 C-213.10560098 158.29086283 -212.40456134 157.58978231 -211.68227807 156.86745692 C-200.30774017 145.49251212 -188.92821583 134.12257026 -177.54643354 122.75487464 C-165.85696294 111.07975748 -154.17121439 99.40092633 -142.48935056 87.71819788 C-135.93174963 81.16026477 -129.37261271 74.603885 -122.80947113 68.05149651 C-117.22512678 62.47624327 -111.64424041 56.89755727 -106.06784102 51.31435698 C-103.22241507 48.46565959 -100.37539154 45.61860821 -97.52400589 42.77587509 C-94.91441836 40.17412526 -92.30948125 37.56781206 -89.70818654 34.95777161 C-88.31928684 33.56660048 -86.92545704 32.18035681 -85.53146434 30.79428905 C-84.70772673 29.96595265 -83.88398912 29.13761624 -83.03528976 28.28417873 C-82.32331145 27.57241779 -81.61133314 26.86065684 -80.87777972 26.12732738 C-78.90124626 23.88812238 -77.48685239 21.58329386 -76 19 C-74.82740694 17.65359228 -73.60789007 16.34678377 -72.34765625 15.08203125 C-71.65349609 14.38529297 -70.95933594 13.68855469 -70.24414062 12.97070312 C-69.52419922 12.25849609 -68.80425781 11.54628906 -68.0625 10.8125 C-66.98838867 9.72678711 -66.98838867 9.72678711 -65.89257812 8.61914062 C-64.8494043 7.57983398 -64.8494043 7.57983398 -63.78515625 6.51953125 C-63.15488525 5.89151611 -62.52461426 5.26350098 -61.87524414 4.61645508 C-59.98199814 2.98448245 -58.27626422 2.00887292 -56 1 C-54.948125 0.525625 -53.89625 0.05125 -52.8125 -0.4375 C-35.7543108 -7.67987774 -16.71190302 -9.10201861 0 0 Z " fill="#FDFDFD" transform="translate(741,46)"/>
<path d="M0 0 C2.18437576 1.71498299 2.18437576 1.71498299 3.9944458 4.04885864 C7.89958508 8.75064446 11.98498388 13.12247564 16.31268311 17.43966675 C16.99578033 18.1243941 17.67887755 18.80912146 18.38267469 19.51459813 C20.61578621 21.75144947 22.85230746 23.98485855 25.08886719 26.21826172 C26.70788379 27.83863537 28.32668802 29.45922124 29.94529724 31.08000183 C34.31659804 35.45583898 38.69102878 39.82853431 43.06618786 44.20051336 C47.65241816 48.78420255 52.23619755 53.37034166 56.82037354 57.95608521 C65.00351182 66.14115524 73.18916071 74.32370927 81.37581256 82.50526489 C88.79346076 89.91843858 96.20847277 97.33424063 103.62158203 104.75195312 C112.24749414 113.38321912 120.87508594 122.01279986 129.50515294 130.63991177 C134.06750814 135.20070855 138.62918634 139.76217695 143.1891098 144.32540512 C147.47143791 148.61062043 151.75620214 152.8933848 156.04286385 157.17426491 C157.61549883 158.74557728 159.18728279 160.31774192 160.75815392 161.89081764 C162.90154944 164.03694396 165.04799864 166.17996911 167.19525146 168.32223511 C167.81655465 168.94576901 168.43785783 169.56930292 169.07798839 170.21173179 C169.65715361 170.78828927 170.23631883 171.36484674 170.83303452 171.95887566 C171.37027885 172.49483227 171.90752318 173.03078887 172.46104765 173.58298659 C174.14434646 175.20335076 174.14434646 175.20335076 176.92529678 176.97986031 C179 179 179 179 179.42071706 182.28225011 C178.89497672 186.92805904 177.63057862 188.23627285 174.34323025 191.50413799 C173.58807782 192.26915882 173.58807782 192.26915882 172.81766978 193.04963461 C171.12133331 194.75951974 169.4011374 196.44316639 167.68003845 198.12809753 C166.44863178 199.35897638 165.21877028 200.59140268 163.99032885 201.82524091 C160.60627635 205.21525322 157.20079715 208.58300671 153.79153001 211.9476341 C150.12033171 215.57838042 146.46936694 219.22936976 142.81602478 222.87806702 C136.48207233 229.19862573 130.13570674 235.50649524 123.78104973 241.80623436 C114.59185336 250.91648706 105.42435726 260.04832818 96.26253802 269.18610326 C81.39623601 284.01267747 66.51619606 298.82537925 51.62573242 313.62768555 C50.73426691 314.513881 49.8428014 315.40007645 48.92432178 316.3131263 C45.31181518 319.90423187 41.69927326 323.49530188 38.0866861 327.0863264 C28.13711747 336.97671089 18.18989032 346.86944843 8.24389648 356.76342773 C7.3532064 357.64945174 6.46251631 358.53547574 5.54483562 359.44834896 C-9.28619909 374.20237911 -24.10736043 388.96629451 -38.92226785 403.73651773 C-48.06796949 412.85353912 -57.22307147 421.96093155 -66.39035784 431.05624995 C-72.66560412 437.28321422 -78.93225101 443.51874134 -85.19209916 449.76118466 C-88.8087889 453.36713854 -92.42959963 456.96870528 -96.0613327 460.55951309 C-99.38112242 463.84199767 -102.68941982 467.13561065 -105.98869448 470.43871097 C-107.18885895 471.63611305 -108.39333702 472.82920905 -109.60234535 474.01768091 C-111.23627988 475.62502495 -112.85431177 477.24681368 -114.46907139 478.87338543 C-115.37470438 479.77332531 -116.28033736 480.67326518 -117.21341377 481.60047597 C-119.22651927 483.78766613 -119.22651927 483.78766613 -118.94199222 486.13923109 C-117.28671591 489.40898918 -114.59012492 491.79322517 -112.0020752 494.33177185 C-111.36897572 494.96461234 -110.73587625 495.59745282 -110.08359194 496.24947029 C-107.95403408 498.37459255 -105.81394882 500.4887909 -103.67382812 502.60327148 C-102.14755813 504.12214928 -100.6219752 505.64171775 -99.09703064 507.16192627 C-95.8087091 510.4373609 -92.51583388 513.70812427 -89.21946716 516.97546196 C-84.01016032 522.13951387 -78.81277373 527.31544989 -73.61730957 532.49342346 C-60.71052936 545.35308372 -47.7886906 558.19758496 -34.86248779 571.03771973 C-24.81861751 581.014964 -14.77918878 590.99658633 -4.75352621 600.99213082 C0.41345855 606.14258038 5.58969571 611.28349241 10.77301788 616.41749752 C13.99262945 619.61050653 17.20393245 622.81177071 20.41296196 626.01541138 C21.90547642 627.50202173 23.40144892 628.98516937 24.90106392 630.46461678 C26.94404187 632.48106478 28.97441194 634.50941446 31.0020752 636.54124451 C31.60157722 637.12704881 32.20107924 637.71285311 32.818748 638.31640905 C35.83455112 641.36627626 37.9714406 643.58487173 38 648 C37.06029261 651.03680413 35.47951455 653.02825574 33 655 C29.39538973 656.02663742 25.90074673 655.93351565 22.17285156 655.87060547 C21.07552987 655.87979476 19.97820818 655.88898405 18.84763432 655.89845181 C15.19459411 655.92089397 11.54361004 655.89392836 7.890625 655.8671875 C5.31698127 655.87375487 2.74334393 655.8835142 0.16972351 655.89628601 C-5.29731253 655.91703338 -10.76371207 655.9173397 -16.23074341 655.89846802 C-24.76262993 655.86930288 -33.29405611 655.88765193 -41.82592773 655.91381836 C-44.6555625 655.92194682 -47.48519816 655.92968746 -50.31483459 655.93721008 C-51.01101047 655.93907985 -51.70718634 655.94094962 -52.42445844 655.94287604 C-57.31902121 655.9553038 -62.2135617 655.96081384 -67.10813904 655.96281433 C-83.95643474 655.97064549 -100.79663207 656.07285574 -117.6418457 656.40112305 C-120.44871711 656.45577481 -123.25559306 656.5097355 -126.0625 656.5625 C-127.06355019 656.58134436 -128.06460037 656.60018871 -129.09598541 656.61960411 C-146.02437951 656.92947675 -162.94021967 657.01442292 -179.87088966 656.94689941 C-209.019755 656.84791322 -238.1561343 657.17901794 -267.30078125 657.65625 C-268.8157955 657.68094144 -268.8157955 657.68094144 -270.3614161 657.7061317 C-284.9560834 657.94435853 -299.55056052 658.19337831 -314.14499664 658.44532013 C-344.44091839 658.96831155 -374.73676706 659.47471876 -405.03441465 659.88783932 C-411.01738505 659.97015502 -417.00011579 660.06323082 -422.98284912 660.16113281 C-429.675083 660.26988926 -436.36713821 660.35692816 -443.06003708 660.4122262 C-446.33588506 660.4395476 -449.61069132 660.47908942 -452.88613319 660.53874207 C-456.37007743 660.60036472 -459.8522575 660.62474363 -463.33666992 660.63867188 C-464.33063215 660.66486603 -465.32459438 660.69106018 -466.34867668 660.7180481 C-471.85268333 660.69208582 -475.78133818 660.02784315 -479.76210499 656.0132637 C-482.31989125 651.85338085 -481.91469119 647.32817272 -481.81054688 642.58447266 C-481.81317535 641.4379422 -481.81580383 640.29141174 -481.81851196 639.11013794 C-481.81873447 635.29387649 -481.7688792 631.47996926 -481.71875 627.6640625 C-481.70435917 624.95617453 -481.70034497 622.24829491 -481.69592285 619.54037476 C-481.67927775 613.08573193 -481.62625695 606.63190291 -481.56067514 600.17759264 C-481.49051029 593.09145062 -481.46228807 586.0053767 -481.43735623 578.9189558 C-481.32756804 549.04183669 -480.926114 519.16986416 -480.42473984 489.29706955 C-480.11640922 470.91161583 -479.89237187 452.52839209 -479.7890625 434.140625 C-479.78255739 432.99204136 -479.77605228 431.84345772 -479.76935005 430.66006851 C-479.74270625 425.91491321 -479.71639291 421.1697562 -479.69049168 416.42459679 C-479.53541607 388.61585902 -479.27228782 360.80779788 -479 333 C-478.98625288 331.58934139 -478.98625288 331.58934139 -478.97222805 330.15018463 C-478.71343843 303.63260606 -478.42167222 277.11566526 -478.06502151 250.59920883 C-477.92090437 239.85421562 -477.78643591 229.10930778 -477.67779541 218.3638916 C-477.58447243 209.14591155 -477.47061428 199.92846939 -477.33035761 190.71107912 C-477.25846067 185.94678188 -477.1963895 181.18285975 -477.15950584 176.41815186 C-477.12510715 172.0157006 -477.06324988 167.61451815 -476.97958064 163.21273565 C-476.9539731 161.6104614 -476.93847288 160.00798847 -476.9338944 158.40551615 C-476.926169 156.22569351 -476.88204889 154.04953625 -476.82868958 151.87042236 C-476.81339612 150.65620228 -476.79810266 149.44198219 -476.78234577 148.19096756 C-475.65556509 143.59514723 -474.00966924 142.46934528 -470 140 C-466.15315669 139.70305353 -464.91387205 141.07258077 -461.95962429 143.56215096 C-460.79721853 144.71425834 -459.64586476 145.87757898 -458.50328064 147.04934692 C-457.86479661 147.68794108 -457.22631258 148.32653524 -456.56848055 148.98448074 C-454.42787681 151.13021081 -452.30192025 153.28989062 -450.17553711 155.44970703 C-448.64526051 156.98929552 -447.114064 158.52797013 -445.58201599 160.0657959 C-442.28331668 163.38053913 -438.99088701 166.70134518 -435.7030468 170.02685928 C-430.50831913 175.28034923 -425.29792068 180.51810343 -420.08485413 185.75338745 C-407.14087658 198.75747632 -394.21796106 211.78245363 -381.29888916 224.8112793 C-371.25611632 234.93885068 -361.20775 245.06073387 -351.14214331 255.16561782 C-345.95485754 260.37445207 -340.77963802 265.5949037 -335.61307704 270.82429147 C-332.40307996 274.06828518 -329.18282909 277.30194521 -325.959589 280.53277588 C-324.46199852 282.03816044 -322.96874864 283.54787688 -321.48009491 285.06209946 C-319.45458695 287.12121398 -317.41442838 289.16458213 -315.36973572 291.20462036 C-314.77780975 291.81383902 -314.18588378 292.42305767 -313.57602066 293.0507375 C-311.7780101 294.88320029 -311.7780101 294.88320029 -309 297 C-304.85160091 296.87121384 -302.67805109 294.0407606 -299.89179611 291.23579979 C-299.38813052 290.73289936 -298.88446493 290.22999894 -298.36553675 289.71185911 C-296.66897064 288.01420532 -294.98342483 286.30601083 -293.29754639 284.5977478 C-292.07538551 283.37045322 -290.85255028 282.14382988 -289.62909722 280.91782343 C-286.26058649 277.53852343 -282.90149092 274.14999602 -279.54374194 270.76000738 C-275.92408382 267.10895855 -272.29568349 263.466618 -268.6681366 259.82341003 C-262.38059667 253.5067073 -256.09807395 247.18505034 -249.81841278 240.86051559 C-239.89681407 230.86889561 -229.95973864 220.89274796 -220.02008057 210.9190979 C-216.62157713 207.5085896 -213.22317444 204.09798092 -209.8248024 200.68734169 C-208.97548308 199.83496469 -208.12616376 198.98258769 -207.2511075 198.10438108 C-197.57999797 188.39803103 -187.91209299 178.68849198 -178.24560547 168.97753906 C-177.36175337 168.08962967 -176.47790127 167.20172027 -175.56726578 166.28690453 C-161.23765553 151.89072169 -146.91961416 137.48307506 -132.60447416 123.07250552 C-117.91700262 108.28796027 -103.21235634 93.52064485 -88.4928143 78.76802886 C-79.40840067 69.66191017 -70.33850281 60.54179486 -61.28657183 51.4033841 C-55.08535188 45.14528828 -48.86798933 38.90354294 -42.63753024 32.67455743 C-39.04013356 29.07697117 -35.45060708 25.47233062 -31.88030815 21.84783363 C-28.61400554 18.53223894 -25.32776457 15.23788643 -22.02417865 11.95945044 C-20.83051538 10.76751466 -19.64450464 9.56785743 -18.46693334 8.36002104 C-16.86841135 6.72263502 -15.24471683 5.11525932 -13.61156845 3.51251793 C-12.714559 2.61046478 -11.81754955 1.70841162 -10.89335799 0.77902353 C-6.75045484 -1.76830114 -4.67750585 -1.09866492 0 0 Z " fill="#000000" transform="translate(719,147)"/>
<path d="M0 0 C9.59202439 6.26751594 17.7442201 14.59637227 25.79847717 22.6647644 C26.76538796 23.62980338 27.73251374 24.59462699 28.69983381 25.55925572 C31.33845337 28.19179699 33.97398123 30.82741401 36.60897124 33.46358752 C39.45861104 36.31343233 42.31111544 39.16040755 45.16322327 42.00778198 C50.74272326 47.57899743 56.31946297 53.15296787 61.89510138 58.72804771 C66.42836852 63.2608388 70.96242639 67.79283742 75.49703789 72.3242836 C88.36558327 85.18402955 101.2320373 98.0458627 114.09580833 110.91038452 C114.78840301 111.60301915 115.48099769 112.29565378 116.19458008 113.00927734 C116.88802375 113.7027619 117.58146742 114.39624645 118.29592454 115.11074568 C129.53836627 126.35359402 140.78579038 137.59144323 152.03547997 148.82703887 C163.59844934 160.37563645 175.15767773 171.92796684 186.71303171 183.48418438 C193.19585117 189.96733546 199.68019363 196.44894598 206.16856575 202.92654037 C211.69129936 208.44015859 217.2105406 213.95724365 222.72532708 219.47881113 C225.53683213 222.29357568 228.34990103 225.10672743 231.16738129 227.91551208 C233.75064208 230.4908822 236.32917214 233.07089548 238.90414076 235.65455569 C240.26917023 237.02183431 241.63908685 238.38422854 243.00921875 239.74639404 C250.9407235 247.72215866 256.95969756 254.78590688 260.5625 265.5 C260.81128906 266.2321875 261.06007813 266.964375 261.31640625 267.71875 C263.11250905 273.71260164 263.2500803 279.47465907 263.3125 285.6875 C263.34150391 286.63044922 263.37050781 287.57339844 263.40039062 288.54492188 C263.46305162 295.55813335 262.01386654 300.70975678 259 307 C258.47140381 308.24910156 258.47140381 308.24910156 257.93212891 309.5234375 C254.86939242 316.36535551 250.57796494 321.05520762 245.1875 326.1875 C244.03411133 327.31961914 244.03411133 327.31961914 242.85742188 328.47460938 C239.47774332 331.76872645 236.04891039 334.96037321 232.46501923 338.03044224 C227.45630667 342.40987225 222.77382841 347.0906351 218.07849121 351.80125427 C217.0983469 352.78096171 216.11798254 353.76044903 215.13741922 354.73973709 C212.4624781 357.41245612 209.79064162 360.08825952 207.11932945 362.76460493 C204.23100989 365.65726182 201.3397814 368.54700873 198.44891357 371.43711853 C193.44694705 376.4385619 188.4468079 381.4418261 183.44792175 386.44634819 C176.22045794 393.6819552 168.99021906 400.91478399 161.75931007 408.14694787 C150.02638384 419.88206018 138.29569035 431.61940175 126.56640625 443.3581543 C115.17565407 454.75809205 103.7838472 466.15697415 92.390625 477.55444336 C91.68779583 478.25753525 90.98496666 478.96062714 90.26083964 479.68502485 C86.73478113 483.21238845 83.20870192 486.73973135 79.68261242 490.26706398 C50.45186588 519.50816934 21.22474497 548.7528965 -8 578 C-6.73284604 580.77256594 -5.43659317 582.81075622 -3.27467823 584.95465755 C-2.71766973 585.51194796 -2.16066124 586.06923836 -1.58677369 586.64341635 C-0.66884688 587.54646555 -0.66884688 587.54646555 0.2676239 588.46775818 C0.91776217 589.1153719 1.56790043 589.76298562 2.23773986 590.430224 C4.42163578 592.60334855 6.61257365 594.76923452 8.8034668 596.93530273 C10.36920985 598.4906606 11.93447024 600.04650448 13.49928284 601.60279846 C16.8731952 604.95681325 20.24998416 608.30789599 23.62885094 611.65691948 C28.97706947 616.95901779 34.31553112 622.27086538 39.65205383 627.58473206 C47.14121827 635.04090293 54.6317197 642.49572362 62.12573242 649.94702148 C62.60126361 650.41984781 63.0767948 650.89267413 63.56673602 651.37982852 C71.25772106 659.02653754 78.95639182 666.66547212 86.65706673 674.30242097 C94.57490021 682.15529374 102.48085774 690.02001942 110.37744838 697.89425808 C114.80668193 702.30998204 119.24137704 706.71989505 123.68967247 711.11642265 C127.87960161 715.25759635 132.05522057 719.41268324 136.22060204 723.57854271 C137.74592199 725.09904578 139.27635234 726.61444348 140.81241226 728.12409592 C152.30273468 739.42517271 160.63565877 749.79429997 164 766 C164.20367188 766.88171875 164.40734375 767.7634375 164.6171875 768.671875 C167.84308945 783.96176642 165.53493167 797.89429667 159 812 C158.69006104 812.68006104 158.38012207 813.36012207 158.06079102 814.06079102 C154.51278802 821.16073486 149.25288245 826.30577336 143.625 831.8125 C142.70460938 832.73998047 141.78421875 833.66746094 140.8359375 834.62304688 C136.16456996 839.25103743 131.92957904 843.12714194 126 846 C124.515 846.804375 124.515 846.804375 123 847.625 C119.72232329 849.12726849 116.47745163 850.11167042 113 851 C112.13735979 851.24434439 111.27471959 851.48868877 110.38593877 851.74043754 C103.43454644 853.63013505 97.11082651 854.4316803 89.92496395 854.38311005 C88.87339522 854.38806956 87.82182648 854.39302908 86.73839203 854.39813888 C83.23317927 854.41103811 79.728351 854.40272812 76.22312927 854.39440918 C73.67718441 854.39930076 71.13124177 854.40549181 68.58530289 854.41286707 C63.05924604 854.42583762 57.53330445 854.42952451 52.00723648 854.42490768 C43.78928161 854.41805982 35.57140927 854.42835336 27.35346588 854.44186524 C11.81936927 854.46675047 -3.7146929 854.4712954 -19.24880625 854.46939927 C-31.24826732 854.46802504 -43.24771648 854.47184954 -55.24717522 854.47932434 C-56.97248999 854.48037469 -58.69780477 854.48142231 -60.42311956 854.4824672 C-61.70783139 854.48324622 -61.70783139 854.48324622 -63.01849699 854.48404097 C-63.8765613 854.48456112 -64.73462561 854.48508126 -65.61869186 854.48561716 C-66.4782197 854.48614115 -67.33774753 854.48666514 -68.22332167 854.48720502 C-92.3931238 854.50178504 -116.56292157 854.51007233 -140.732728 854.50545502 C-141.6435643 854.50528306 -142.5544006 854.50511111 -143.492838 854.50493394 C-148.10906426 854.50404508 -152.7252905 854.50310027 -157.34151674 854.50213593 C-158.25827263 854.5019449 -159.17502851 854.50175387 -160.11956488 854.50155704 C-161.97346844 854.50116995 -163.827372 854.50077962 -165.68127556 854.50038607 C-194.51679789 854.49441837 -223.35223992 854.50984546 -252.18774414 854.54199219 C-284.60450472 854.57810099 -317.02121438 854.59739737 -349.43799633 854.59245348 C-352.89736902 854.59198353 -356.35674172 854.59157327 -359.81611443 854.59120178 C-360.66786238 854.5910994 -361.51961034 854.59099701 -362.39716884 854.59089152 C-375.23374647 854.58969859 -388.07026895 854.60163914 -400.90683174 854.62034607 C-415.51477894 854.64162452 -430.12261076 854.64539086 -444.73056317 854.62604648 C-452.89623533 854.61575166 -461.06162568 854.61910968 -469.22727212 854.64257733 C-475.33911145 854.65857833 -481.45064739 854.64817666 -487.56246793 854.62785631 C-490.02407361 854.62368181 -492.48571155 854.62783146 -494.9472831 854.64145225 C-514.93293449 854.74445156 -536.79234072 852.99031796 -553 840 C-554.60875 839.15115234 -554.60875 839.15115234 -556.25 838.28515625 C-561.23192262 835.51517492 -565.02409181 831.46529133 -569 827.4375 C-569.79946045 826.63119141 -570.5989209 825.82488281 -571.42260742 824.99414062 C-576.8936457 819.37264738 -581.40898066 814.01211662 -585 807 C-585.65935547 805.84951172 -585.65935547 805.84951172 -586.33203125 804.67578125 C-596.230529 786.58336088 -597.29967419 767.29005696 -597.24291992 747.17480469 C-597.24396188 744.94283017 -597.24586887 742.71085592 -597.24856091 740.47888279 C-597.2533508 734.34442406 -597.2455247 728.21003668 -597.23555517 722.07558656 C-597.22776229 716.09473252 -597.22939749 710.11388246 -597.230544 704.13302506 C-597.23282189 689.51932667 -597.21882355 674.90566515 -597.20104264 660.2919795 C-597.20011975 659.53230667 -597.19919686 658.77263385 -597.198246 657.98994064 C-597.19685594 656.84764445 -597.19685594 656.84764445 -597.1954378 655.68227157 C-597.18534427 647.22300754 -597.17873932 638.76374127 -597.17221069 630.30447388 C-597.15168251 604.22596773 -597.12700553 578.14747145 -597.08851624 552.06898499 C-597.08726307 551.21839106 -597.0860099 550.36779713 -597.08471876 549.49142762 C-597.07832043 545.15573721 -597.07188404 540.82004686 -597.06543553 536.48435652 C-597.06414771 535.61832305 -597.06285989 534.75228958 -597.06153305 533.86001267 C-597.05891978 532.10419388 -597.05630188 530.34837511 -597.05367939 528.59255634 C-597.01068162 499.73667244 -596.98709485 470.88081419 -596.97363281 442.02490234 C-596.95728038 407.1641509 -596.92150646 372.30347346 -596.86309147 337.44276619 C-596.85679794 333.64962905 -596.85057112 329.85649181 -596.84439087 326.06335449 C-596.84285697 325.12782615 -596.84132307 324.19229781 -596.83974268 323.22842012 C-596.81542144 308.15002318 -596.80729327 293.0716592 -596.80480447 277.99324473 C-596.8018442 262.75514778 -596.78009385 247.51716384 -596.73977637 232.27911931 C-596.71620619 223.17022718 -596.70645652 214.06156484 -596.71643328 204.9526464 C-596.7217449 198.83228323 -596.70876878 192.7121299 -596.68131829 186.5918266 C-596.66617377 183.10159581 -596.65867179 179.61183643 -596.673406 176.121593 C-596.71735339 161.91280292 -596.63736745 149.22061076 -591 136 C-590.53396771 134.87927314 -590.06793543 133.75854628 -589.58778095 132.60385799 C-586.17587941 124.7700473 -581.07389269 119.09769061 -575 113.1875 C-573.59778198 111.8118689 -573.59778198 111.8118689 -572.16723633 110.40844727 C-565.28574685 103.84220384 -559.15830968 98.95703843 -550 96 C-548.77667969 95.57976562 -547.55335938 95.15953125 -546.29296875 94.7265625 C-530.3869888 89.7591999 -512.6717054 90.49280635 -497 96 C-494.95901733 97.26971159 -492.9577154 98.60532148 -491 100 C-489.92813918 100.56673809 -488.85627836 101.13347618 -487.75193691 101.71738815 C-483.55111263 104.101862 -480.38203946 107.20885892 -477.0080719 110.63116455 C-476.34055544 111.29611773 -475.67303899 111.96107091 -474.98529476 112.64617419 C-472.76108978 114.86545665 -470.54774427 117.09525518 -468.33422852 119.32519531 C-466.73780178 120.92246865 -465.1407134 122.51908092 -463.54301453 124.11508179 C-459.21451016 128.44272607 -454.89531245 132.77955207 -450.57772946 137.11808872 C-446.06141903 141.65316351 -441.53660131 146.17973394 -437.01268005 150.70721436 C-429.42295917 158.30519761 -421.83850123 165.90838926 -414.25805664 173.515625 C-406.4520134 181.34922788 -398.64280869 189.17965684 -390.8293457 197.00585938 C-390.10626437 197.73012296 -390.10626437 197.73012296 -389.36857534 198.46901813 C-386.95010196 200.89140678 -384.53156644 203.31373338 -382.11300004 205.73602915 C-362.0656923 225.81440986 -342.02939271 245.90374903 -322 266 C-316.08217151 261.08936349 -310.64978676 255.79288775 -305.21893311 250.35264587 C-304.24178545 249.37736913 -303.26442254 248.40230803 -302.28686452 247.42744261 C-299.61545458 244.76212187 -296.94714779 242.09371371 -294.27937222 239.42475593 C-291.3963894 236.5415684 -288.51054366 233.66124874 -285.62509155 230.78053284 C-279.97928272 225.14301389 -274.33623936 219.50273468 -268.6942949 213.86134856 C-264.10948224 209.27701158 -259.5238796 204.69346629 -254.93772125 200.11047554 C-241.9323298 187.11388395 -228.92903023 174.11520461 -215.92841324 161.11383706 C-215.22822828 160.41361214 -214.52804331 159.71338722 -213.80664062 158.99194336 C-213.10560098 158.29086283 -212.40456134 157.58978231 -211.68227807 156.86745692 C-200.30774017 145.49251212 -188.92821583 134.12257026 -177.54643354 122.75487464 C-165.85696294 111.07975748 -154.17121439 99.40092633 -142.48935056 87.71819788 C-135.93174963 81.16026477 -129.37261271 74.603885 -122.80947113 68.05149651 C-117.22512678 62.47624327 -111.64424041 56.89755727 -106.06784102 51.31435698 C-103.22241507 48.46565959 -100.37539154 45.61860821 -97.52400589 42.77587509 C-94.91441836 40.17412526 -92.30948125 37.56781206 -89.70818654 34.95777161 C-88.31928684 33.56660048 -86.92545704 32.18035681 -85.53146434 30.79428905 C-84.70772673 29.96595265 -83.88398912 29.13761624 -83.03528976 28.28417873 C-82.32331145 27.57241779 -81.61133314 26.86065684 -80.87777972 26.12732738 C-78.90124626 23.88812238 -77.48685239 21.58329386 -76 19 C-74.82740694 17.65359228 -73.60789007 16.34678377 -72.34765625 15.08203125 C-71.65349609 14.38529297 -70.95933594 13.68855469 -70.24414062 12.97070312 C-69.52419922 12.25849609 -68.80425781 11.54628906 -68.0625 10.8125 C-66.98838867 9.72678711 -66.98838867 9.72678711 -65.89257812 8.61914062 C-64.8494043 7.57983398 -64.8494043 7.57983398 -63.78515625 6.51953125 C-63.15488525 5.89151611 -62.52461426 5.26350098 -61.87524414 4.61645508 C-59.98199814 2.98448245 -58.27626422 2.00887292 -56 1 C-54.948125 0.525625 -53.89625 0.05125 -52.8125 -0.4375 C-35.7543108 -7.67987774 -16.71190302 -9.10201861 0 0 Z M-47.375 28.0625 C-48.24898437 28.75472656 -49.12296875 29.44695312 -50.0234375 30.16015625 C-50.67570313 30.76730469 -51.32796875 31.37445313 -52 32 C-52 32.66 -52 33.32 -52 34 C-52.66 34 -53.32 34 -54 34 C-55.50092869 35.47961826 -55.50092869 35.47961826 -57.06282043 37.4307251 C-61.14780412 42.22977541 -65.53052434 46.66373518 -69.99487305 51.10839844 C-70.87796237 51.99163662 -71.76105169 52.8748748 -72.6709013 53.78487778 C-75.10207493 56.21634471 -77.53633286 58.64470248 -79.9711318 61.07253838 C-82.60422908 63.69922578 -85.23438998 66.3288506 -87.86489868 68.95812988 C-92.41785382 73.50820609 -96.97257871 78.05650438 -101.5284729 82.6036377 C-108.12355676 89.18613316 -114.71537009 95.77189615 -121.30630958 102.35854101 C-132.01201993 113.05719275 -142.7195965 123.75397448 -153.42871094 134.44921875 C-154.3889781 135.40824419 -154.3889781 135.40824419 -155.3686446 136.38664389 C-160.56252028 141.57377536 -165.75648657 146.76081611 -170.95045662 151.94785309 C-175.49077646 156.48212006 -180.03106012 161.01642326 -184.57128906 165.55078125 C-185.21068322 166.18934728 -185.85007738 166.82791331 -186.50884712 167.48582983 C-197.17933106 178.14261612 -207.8478425 188.80137499 -218.51495457 199.46153641 C-225.08757661 206.02968484 -231.66196838 212.59605225 -238.2386744 219.16011143 C-242.74568544 223.65868044 -247.25091328 228.15903007 -251.75475764 232.66076946 C-254.35077934 235.25544979 -256.94761546 237.84930105 -259.54668045 240.44093323 C-262.36888976 243.25510225 -265.18717244 246.07317203 -268.00512695 248.89160156 C-268.82040706 249.70328671 -269.63568716 250.51497185 -270.47567272 251.35125351 C-274.67034996 255.55349596 -278.70440795 259.8344006 -282.56930405 264.34280157 C-284.33203472 266.38460122 -286.18891287 268.30923702 -288.09936523 270.21289062 C-288.81958359 270.93303345 -289.53980194 271.65317627 -290.28184509 272.3951416 C-291.03317215 273.14130737 -291.78449921 273.88747314 -292.55859375 274.65625 C-293.34774673 275.44398804 -294.13689972 276.23172607 -294.94996643 277.04333496 C-297.44345012 279.53127102 -299.94040784 282.01568624 -302.4375 284.5 C-304.14020587 286.1976841 -305.84268207 287.89559858 -307.54492188 289.59375 C-311.69396439 293.73183306 -315.84606156 297.86683235 -320 302 C-324.97992434 297.82855183 -329.64834937 293.48207847 -334.21488953 288.86499023 C-334.90660761 288.16989318 -335.5983257 287.47479612 -336.31100494 286.75863552 C-338.61297627 284.44432772 -340.91130499 282.12643623 -343.2097168 279.80859375 C-344.86587183 278.14232704 -346.52229671 276.4763285 -348.17897034 274.81057739 C-351.7393634 271.23011533 -355.29842605 267.64833777 -358.85663414 264.06570435 C-364.48861439 258.39625571 -370.12711408 252.73331587 -375.76728821 247.07202148 C-376.73006845 246.10557192 -377.69284627 245.13911995 -378.65562171 244.1726656 C-380.1143823 242.70835222 -381.57315203 241.24404795 -383.03194192 239.77976376 C-388.52217475 234.26884821 -394.01190076 228.75742832 -399.50073242 223.24511719 C-400.25267983 222.48996073 -400.25267983 222.48996073 -401.0198181 221.71954858 C-409.14032726 213.56380549 -417.2516314 205.39896118 -425.36003437 197.23118436 C-433.70225614 188.8283993 -442.0560109 180.43720205 -450.42002803 172.05611134 C-455.10888891 167.35696042 -459.79180986 162.65212325 -464.46188927 157.93429565 C-468.85585392 153.49556888 -473.26374762 149.07116198 -477.6825161 144.6571312 C-479.29695164 143.03946094 -480.90627911 141.41667328 -482.50992203 139.78830338 C-495.00273505 127.11169128 -505.89369085 118.23170816 -524.375 117.6875 C-537.65718849 117.95036054 -547.75145019 122.70404427 -557.3125 131.8125 C-567.15740179 142.15118997 -570.48281916 153.81633787 -570.37473011 167.91630936 C-570.37879084 168.96285751 -570.38285156 170.00940567 -570.38703534 171.08766741 C-570.39695232 174.58179656 -570.38556942 178.07552121 -570.3742218 181.56964111 C-570.37696338 184.10519825 -570.38101631 186.64075425 -570.38626546 189.17630744 C-570.39463905 194.68266884 -570.39372149 200.1889069 -570.38453293 205.69526482 C-570.37090642 213.88371394 -570.37450739 222.07209316 -570.38149153 230.26054741 C-570.39340919 244.88777165 -570.38833929 259.51495276 -570.37621326 274.14217461 C-570.36567192 286.94528855 -570.36113842 299.7483878 -570.36250877 312.55150604 C-570.3625928 313.40117631 -570.36267683 314.25084657 -570.36276341 315.12626441 C-570.36311567 318.57550395 -570.36349968 322.02474349 -570.36392899 325.47398301 C-570.36789346 357.82689217 -570.35517968 390.17977537 -570.33440243 422.5326771 C-570.31603983 451.26056081 -570.31021859 479.98841964 -570.31567383 508.71630859 C-570.31602026 510.56038059 -570.31636636 512.40445258 -570.31671212 514.24852458 C-570.31688311 515.16020843 -570.31705411 516.07189228 -570.31723029 517.01120291 C-570.31808386 521.60074685 -570.31890765 526.19029079 -570.31969929 530.77983475 C-570.31985637 531.68533016 -570.32001345 532.59082558 -570.32017529 533.52376025 C-570.32416825 557.54276773 -570.31868569 581.56177281 -570.310188 605.58077884 C-570.30928098 608.16636811 -570.30837533 610.75195737 -570.30747276 613.33754664 C-570.30687165 615.05268857 -570.30626303 616.76783048 -570.30564686 618.4829724 C-570.30142997 630.4268673 -570.30084537 642.37075749 -570.30275235 654.3146529 C-570.30519852 669.71196134 -570.3010982 685.10924455 -570.28554235 700.50654611 C-570.27750987 708.64408168 -570.27487737 716.78157527 -570.2801847 724.91911332 C-570.28352417 731.00292433 -570.27635676 737.08667606 -570.26515963 743.17047963 C-570.26223862 745.62598525 -570.26265449 748.08149766 -570.26680271 750.53700152 C-570.97949827 775.173327 -570.97949827 775.173327 -563 798 C-562.34 798.33 -561.68 798.66 -561 799 C-560.56042969 799.73347656 -560.12085938 800.46695313 -559.66796875 801.22265625 C-552.9735218 812.36961593 -543.40395823 820.49498981 -531 824 C-529.37243909 824.53392252 -527.74735144 825.07545146 -526.125 825.625 C-525.40570312 825.86476563 -524.68640625 826.10453125 -523.9453125 826.3515625 C-523.30335938 826.56554687 -522.66140625 826.77953125 -522 827 C-518.59174534 828.13608489 -516.00180215 828.12535866 -512.40650177 828.12584114 C-511.72968735 828.12729458 -511.05287293 828.12874802 -510.35554898 828.13024551 C-508.06940791 828.13391748 -505.78333305 828.13041277 -503.49719238 828.12698364 C-501.84596265 828.12813535 -500.19473318 828.12972321 -498.54350424 828.13171089 C-493.98582038 828.13590531 -489.42815734 828.13381213 -484.87047338 828.13072467 C-479.95074667 828.12846797 -475.03102361 828.13195377 -470.11129761 828.13470459 C-460.41354082 828.13917654 -450.71579174 828.13817432 -441.01803464 828.13529195 C-433.03010412 828.13301964 -425.04217574 828.13273335 -417.054245 828.13381577 C-415.9096866 828.133969 -414.7651282 828.13412223 -413.58588621 828.13428011 C-411.25721856 828.13459999 -408.92855091 828.1349242 -406.59988326 828.1352527 C-384.63804818 828.13811754 -362.67621723 828.13481702 -340.71438283 828.12945233 C-322.3138181 828.12509265 -303.91325988 828.12572634 -285.51269531 828.13037109 C-186.7830171 828.1544023 -88.05287507 828.12046472 10.67611167 827.7151503 C17.85117696 827.68635994 25.02624038 827.66490625 32.20133972 827.64673233 C40.80049918 827.62479173 49.39954024 827.59246665 57.99860483 827.54622719 C62.33963964 827.5230995 66.68056062 827.50444699 71.02165604 827.49856329 C74.98129685 827.4930196 78.94062609 827.47363157 82.90015346 827.44343732 C84.3214329 827.43493741 85.74275254 827.43131626 87.164056 827.43330969 C99.02506274 827.44528389 109.58755528 826.68362835 119 819 C119.845625 818.525625 120.69125 818.05125 121.5625 817.5625 C127.39819645 813.82166894 130.84957354 809.08358213 134 803 C134.53625 802.05125 135.0725 801.1025 135.625 800.125 C140.45157774 789.15550513 139.89708922 777.43740461 137.2421875 765.94921875 C133.80978759 757.79996739 127.05763782 751.85503805 120.8125 745.8125 C119.21013013 744.26136497 117.61229971 742.70552379 116.01953125 741.14453125 C115.31932861 740.46753174 114.61912598 739.79053223 113.89770508 739.09301758 C112 737 112 737 110.76697063 734.76979542 C108.51659468 731.2422433 105.79443997 728.5244967 102.83076477 725.59025574 C102.20341798 724.9612001 101.5760712 724.33214447 100.9297139 723.68402654 C98.82936547 721.58038759 96.72195566 719.48397012 94.61450195 717.38745117 C93.10625987 715.87977329 91.59845817 714.37165475 90.09106445 712.86312866 C85.99873168 708.77022175 81.90025894 704.68351335 77.80066705 700.59787917 C73.51695642 696.32666562 69.23890368 692.04979286 64.96025085 687.77351379 C56.85763699 679.67711769 48.74993805 671.58583363 40.64040583 663.49636775 C31.40803376 654.28634542 22.18133572 645.07064775 12.95511305 635.85446584 C-6.02361193 616.89664957 -25.00946148 597.94598181 -44 579 C-42.13783773 575.01800108 -39.5625813 572.10666231 -36.5625 568.9375 C-35.97774902 568.31552734 -35.39299805 567.69355469 -34.79052734 567.05273438 C-28.01998208 559.92022599 -21.06943455 552.96246323 -14.125 546 C-13.53800323 545.4103244 -12.95100647 544.8206488 -12.34622192 544.21310425 C-6.5875383 538.43453989 -0.84400134 532.71086672 5.36767578 527.4140625 C7.70055526 525.39311755 9.84771815 523.21045163 12 521 C14.77254878 518.15251747 17.60196423 515.45954916 20.61836624 512.87634182 C25.19677425 508.88280732 29.49951232 504.64867446 33.79364014 500.35353088 C34.64294861 499.5078991 35.49225708 498.66226731 36.36730218 497.79101032 C38.70342795 495.46393773 41.03735024 493.13468234 43.37028766 490.80441415 C45.89475828 488.28387652 48.42204506 485.76616495 50.94889832 483.24801636 C57.03577201 477.18081109 63.11788413 471.10884355 69.19938695 465.03625551 C72.06760352 462.17243294 74.93630436 459.30909557 77.80493927 456.44569206 C87.34471331 446.92291178 96.88323864 437.39888335 106.41814804 427.87123203 C108.88666602 425.4046237 111.35518937 422.93802074 113.82373047 420.47143555 C114.74395647 419.55193515 114.74395647 419.55193515 115.6827729 418.61385899 C125.6343969 408.67054626 135.59451714 398.73578968 145.55819234 388.80455435 C155.79934712 378.5964707 166.03295638 368.38087203 176.25918698 358.15783733 C181.99649725 352.42269083 187.73704712 346.69087159 193.48604584 340.96743965 C198.37797525 336.09721691 203.26302201 331.22022056 208.13924685 326.33427186 C210.62585335 323.8431222 213.11556204 321.35529978 215.61413383 318.87614632 C218.32510007 316.18606793 221.02034492 313.4805778 223.71429443 310.77345276 C224.50261241 309.99610403 225.29093038 309.2187553 226.10313678 308.41785055 C231.46189815 302.99558501 236.48250521 297.17485442 236.53125 289.125 C236.53898438 287.86429687 236.53898438 287.86429687 236.546875 286.578125 C236.53140625 285.72734375 236.5159375 284.8765625 236.5 284 C236.51546875 283.14921875 236.5309375 282.2984375 236.546875 281.421875 C236.51048502 275.49030791 235.35921667 270.93901806 232 266 C231.52240234 265.53464844 231.04480469 265.06929687 230.55273438 264.58984375 C229 263 229 263 227.64832711 260.6619125 C225.9991585 257.99864104 224.28289058 256.03118688 222.07403183 253.81955624 C221.27467799 253.0143702 220.47532415 252.20918417 219.65174747 251.37959856 C218.77423367 250.50586408 217.89671987 249.63212961 216.99261475 248.73191833 C216.05001308 247.78629508 215.10784598 246.84023847 214.16607594 245.89378697 C211.57990468 243.29732787 208.98752822 240.70714309 206.39407182 238.11796343 C203.59693225 235.32328966 200.8055394 232.52288587 198.01338196 229.72323608 C192.54335077 224.24045165 187.06784854 218.76316277 181.59026757 213.28792196 C177.13800103 208.8374381 172.6875036 204.38519258 168.23825836 199.93168831 C167.28856307 198.98110023 167.28856307 198.98110023 166.31968202 198.01130836 C165.03349255 196.72390714 163.74730427 195.43650474 162.46111718 194.14910115 C150.39716152 182.07426746 138.32669075 170.00596287 126.25424734 157.93961615 C115.21079679 146.90133453 104.17557982 135.85486345 93.14422461 124.80449521 C81.81690659 113.45780386 70.4840433 102.11667864 59.14515519 90.78154904 C52.77944753 84.41775425 46.41596346 78.05177343 40.05828094 71.67996025 C34.6456258 66.25539678 29.22775508 60.83610955 23.80308786 55.42355733 C21.03593646 52.66229852 18.27124439 49.89869136 15.51303291 47.12849998 C12.98660485 44.59122662 10.4533191 42.06101477 7.91445664 39.53618539 C6.56570982 38.19134218 5.22431766 36.83913532 3.88322616 35.48665804 C-0.50869106 31.13382594 -4.4996481 27.82012191 -10 25 C-10.66 24.34 -11.32 23.68 -12 23 C-17.33305267 21.08010104 -22.48587686 20.76608956 -28.125 20.6875 C-28.80578613 20.66993652 -29.48657227 20.65237305 -30.18798828 20.63427734 C-37.41443381 20.6430665 -41.89659112 23.66167605 -47.375 28.0625 Z " fill="#010101" transform="translate(741,46)"/>
<path d="M0 0 C7.75 -0.125 7.75 -0.125 10 1 C11.39691302 1.09313878 12.79819247 1.12448271 14.19820702 1.1241985 C15.52942639 1.12756944 15.52942639 1.12756944 16.88753909 1.13100848 C18.36207324 1.12706796 18.36207324 1.12706796 19.86639595 1.12304783 C21.42991477 1.1247786 21.42991477 1.1247786 23.02501982 1.12654433 C26.55877921 1.12921586 30.09249409 1.12468442 33.62625122 1.12025452 C36.16885446 1.12069011 38.71145767 1.12156479 41.25406063 1.12284368 C46.80326717 1.12462044 52.35245963 1.12326589 57.90166473 1.11920547 C66.15320081 1.11318444 74.4047301 1.11286837 82.65626797 1.11374746 C96.53489689 1.11506317 110.41352106 1.11171311 124.29214859 1.10573006 C138.03938953 1.0998188 151.78662849 1.09596528 165.5338707 1.09487724 C166.38772283 1.0948085 167.24157497 1.09473976 168.12130142 1.09466894 C172.45735116 1.09433062 176.79340091 1.09402923 181.12945066 1.09374207 C211.86445934 1.09164006 242.59946544 1.08489827 273.33447266 1.07543945 C303.19840481 1.06625931 333.06233625 1.05917359 362.92626953 1.05493164 C363.84634492 1.05480011 364.76642031 1.05466859 365.71437677 1.05453308 C374.95391188 1.05321459 384.19344699 1.05193877 393.43298211 1.05069422 C412.25601114 1.04815781 431.07904013 1.04533656 449.90206909 1.04234314 C450.76757569 1.04220585 451.63308229 1.04206856 452.52481635 1.04192711 C510.34987865 1.03272202 568.17493949 1.01685555 626 1 C626 1.33 626 1.66 626 2 C519.03637959 2.70634433 412.07459122 3.13821047 237.11669844 3.18518724 C217.43672217 3.18476558 197.7567641 3.19463369 178.07679316 3.2084411 C157.47636194 3.22277506 136.87593974 3.22971523 116.2755034 3.22884732 C104.86000909 3.22851783 93.44453476 3.2311654 82.0290451 3.24202538 C72.45941839 3.25108238 62.88982108 3.25333957 53.32019195 3.24651595 C48.46141499 3.24324753 43.60269479 3.2432101 38.74392319 3.2518692 C34.30503404 3.25970201 29.86624712 3.25833689 25.42736056 3.24958507 C23.82381816 3.24804494 22.22026822 3.2498855 20.61673471 3.25544515 C18.4395955 3.26249738 16.26281652 3.25721909 14.08568954 3.24888897 C12.87740171 3.24910634 11.66911388 3.24932371 10.42421126 3.24954766 C6.64551074 2.97416574 3.59487362 2.15760098 0 1 C0 0.67 0 0.34 0 0 Z " fill="#979797" transform="translate(215,871)"/>
<path d="M0 0 C7.75 -0.125 7.75 -0.125 10 1 C13.01999999 1.12298959 16.01839375 1.18579555 19.03955078 1.20532227 C19.97618561 1.21522186 20.91282043 1.22512146 21.87783813 1.23532104 C24.98363693 1.26698922 28.08945104 1.29171448 31.1953125 1.31640625 C33.34480189 1.33697119 35.49428719 1.35796753 37.64376831 1.37937927 C43.30890601 1.4346475 48.97408049 1.48403581 54.63928223 1.53222656 C60.41710698 1.58240694 66.19487813 1.63811106 71.97265625 1.69335938 C83.31505841 1.80099904 94.65750705 1.90243109 106 2 C106 2.33 106 2.66 106 3 C93.21291359 3.04636945 80.42584722 3.0818927 67.63869381 3.10362434 C61.70091212 3.11405517 55.76318801 3.12820171 49.82543945 3.15087891 C44.09367368 3.17263208 38.36196325 3.1845739 32.63015938 3.18975449 C30.44493298 3.19344578 28.25970956 3.20065394 26.07450676 3.21146011 C23.01046104 3.22600775 19.94664314 3.22797655 16.88256836 3.22705078 C15.98201218 3.23424133 15.08145599 3.24143188 14.15361023 3.24884033 C9.04492733 3.23217163 4.84077156 2.65562654 0 1 C0 0.67 0 0.34 0 0 Z " fill="#ACACAC" transform="translate(215,871)"/>
<path d="M0 0 C7.75 -0.125 7.75 -0.125 10 1 C11.73868744 1.15266612 13.48247501 1.24932596 15.2265625 1.31640625 C16.2578125 1.35830078 17.2890625 1.40019531 18.3515625 1.44335938 C19.43179688 1.48267578 20.51203125 1.52199219 21.625 1.5625 C23.25695312 1.62727539 23.25695312 1.62727539 24.921875 1.69335938 C27.6144517 1.7996453 30.30712253 1.90168057 33 2 C33 2.33 33 2.66 33 3 C28.81255925 3.05840224 24.62522435 3.09373166 20.4375 3.125 C19.25607422 3.14175781 18.07464844 3.15851562 16.85742188 3.17578125 C10.84603241 3.2094585 5.65816878 3.11038894 0 1 C0 0.67 0 0.34 0 0 Z " fill="#989898" transform="translate(215,871)"/>
</svg>
