<?xml version="1.0" encoding="UTF-8"?>
<svg version="1.1" xmlns="http://www.w3.org/2000/svg" width="1040" height="1040">
<path d="M0 0 C1.09957031 -0.02900391 2.19914062 -0.05800781 3.33203125 -0.08789062 C10.82360406 -0.14565483 16.30070732 1.02322301 23 4.3125 C24.24583862 4.84109619 24.24583862 4.84109619 25.5168457 5.38037109 C32.3639738 8.43746635 37.05408814 12.73335926 42.1875 18.125 C42.94224609 18.89392578 43.69699219 19.66285156 44.47460938 20.45507812 C47.76872645 23.83475668 50.96037321 27.26358961 54.03044224 30.84748077 C58.40987225 35.85619333 63.0906351 40.53867159 67.80125427 45.23400879 C68.78096171 46.2141531 69.76044903 47.19451746 70.73973709 48.17508078 C73.41245612 50.8500219 76.08825952 53.52185838 78.76460493 56.19317055 C81.65726182 59.08149011 84.54700873 61.9727186 87.43711853 64.86358643 C92.4385619 69.86555295 97.4418261 74.8656921 102.44634819 79.86457825 C109.6819552 87.09204206 116.91478399 94.32228094 124.14694787 101.55318993 C135.88206018 113.28611616 147.61940175 125.01680965 159.3581543 136.74609375 C170.75809205 148.13684593 182.15697415 159.5286528 193.55444336 170.921875 C194.25753525 171.62470417 194.96062714 172.32753334 195.68502485 173.05166036 C199.21238845 176.57771887 202.73973135 180.10379808 206.26706398 183.62988758 C235.50816934 212.86063412 264.7528965 242.08775503 294 271.3125 C296.77256594 270.04534604 298.81075622 268.74909317 300.95465755 266.58717823 C301.79059316 265.75166548 301.79059316 265.75166548 302.64341635 264.89927369 C303.24544915 264.28732249 303.84748196 263.67537128 304.46775818 263.0448761 C305.1153719 262.39473783 305.76298562 261.74459957 306.430224 261.07476014 C308.60334855 258.89086422 310.76923452 256.69992635 312.93530273 254.5090332 C314.4906606 252.94329015 316.04650448 251.37802976 317.60279846 249.81321716 C320.95681325 246.4393048 324.30789599 243.06251584 327.65691948 239.68364906 C332.95901779 234.33543053 338.27086538 228.99696888 343.58473206 223.66044617 C351.04090293 216.17128173 358.49572362 208.6807803 365.94702148 201.18676758 C366.41984781 200.71123639 366.89267413 200.2357052 367.37982852 199.74576398 C375.02653754 192.05477894 382.66547212 184.35610818 390.30242097 176.65543327 C398.15529374 168.73759979 406.02001942 160.83164226 413.89425808 152.93505162 C418.30998204 148.50581807 422.71989505 144.07112296 427.11642265 139.62282753 C431.25759635 135.43289839 435.41268324 131.25727943 439.57854271 127.09189796 C441.09904578 125.56657801 442.61444348 124.03614766 444.12409592 122.50008774 C455.42517271 111.00976532 465.79429997 102.67684123 482 99.3125 C483.32257813 99.00699219 483.32257813 99.00699219 484.671875 98.6953125 C499.96176642 95.46941055 513.89429667 97.77756833 528 104.3125 C528.68006104 104.62243896 529.36012207 104.93237793 530.06079102 105.25170898 C537.16073486 108.79971198 542.30577336 114.05961755 547.8125 119.6875 C549.2037207 121.06808594 549.2037207 121.06808594 550.62304688 122.4765625 C555.25103743 127.14793004 559.12714194 131.38292096 562 137.3125 C562.53625 138.3025 563.0725 139.2925 563.625 140.3125 C565.12726849 143.59017671 566.11167042 146.83504837 567 150.3125 C567.24434439 151.17514021 567.48868877 152.03778041 567.74043754 152.92656123 C569.63013505 159.87795356 570.4316803 166.20167349 570.38311005 173.38753605 C570.38806956 174.43910478 570.39302908 175.49067352 570.39813888 176.57410797 C570.41103811 180.07932073 570.40272812 183.584149 570.39440918 187.08937073 C570.39930076 189.63531559 570.40549181 192.18125823 570.41286707 194.72719711 C570.42583762 200.25325396 570.42952451 205.77919555 570.42490768 211.30526352 C570.41805982 219.52321839 570.42835336 227.74109073 570.44186524 235.95903412 C570.46675047 251.49313073 570.4712954 267.0271929 570.46939927 282.56130625 C570.46802504 294.56076732 570.47184954 306.56021648 570.47932434 318.55967522 C570.48037469 320.28498999 570.48142231 322.01030477 570.4824672 323.73561956 C570.48298655 324.59209411 570.48350589 325.44856866 570.48404097 326.33099699 C570.48456112 327.1890613 570.48508126 328.04712561 570.48561716 328.93119186 C570.48614115 329.7907197 570.48666514 330.65024753 570.48720502 331.53582167 C570.50178504 355.7056238 570.51007233 379.87542157 570.50545502 404.045228 C570.50528306 404.9560643 570.50511111 405.8669006 570.50493394 406.805338 C570.50404508 411.42156426 570.50310027 416.0377905 570.50213593 420.65401674 C570.5019449 421.57077263 570.50175387 422.48752851 570.50155704 423.43206488 C570.50116995 425.28596844 570.50077962 427.139872 570.50038607 428.99377556 C570.49441837 457.82929789 570.50984546 486.66473992 570.54199219 515.50024414 C570.57810099 547.91700472 570.59739737 580.33371438 570.59245348 612.75049633 C570.59198353 616.20986902 570.59157327 619.66924172 570.59120178 623.12861443 C570.5910994 623.98036238 570.59099701 624.83211034 570.59089152 625.70966884 C570.58969859 638.54624647 570.60163914 651.38276895 570.62034607 664.21933174 C570.64162452 678.82727894 570.64539086 693.43511076 570.62604648 708.04306317 C570.61575166 716.20873533 570.61910968 724.37412568 570.64257733 732.53977212 C570.65857833 738.65161145 570.64817666 744.76314739 570.62785631 750.87496793 C570.62368181 753.33657361 570.62783146 755.79821155 570.64145225 758.2597831 C570.74445156 778.24543449 568.99031796 800.10484072 556 816.3125 C555.43410156 817.385 554.86820313 818.4575 554.28515625 819.5625 C551.51517492 824.54442262 547.46529133 828.33659181 543.4375 832.3125 C542.63119141 833.11196045 541.82488281 833.9114209 540.99414062 834.73510742 C535.37264738 840.2061457 530.01211662 844.72148066 523 848.3125 C521.84951172 848.97185547 521.84951172 848.97185547 520.67578125 849.64453125 C502.58336088 859.543029 483.29005696 860.61217419 463.17480469 860.55541992 C460.94283017 860.55646188 458.71085592 860.55836887 456.47888279 860.56106091 C450.34442406 860.5658508 444.21003668 860.5580247 438.07558656 860.54805517 C432.09473252 860.54026229 426.11388246 860.54189749 420.13302506 860.543044 C405.51932667 860.54532189 390.90566515 860.53132355 376.2919795 860.51354264 C375.53230667 860.51261975 374.77263385 860.51169686 373.98994064 860.510746 C373.22840985 860.5098193 372.46687905 860.50889259 371.68227157 860.5079378 C363.22300754 860.49784427 354.76374127 860.49123932 346.30447388 860.48471069 C320.22596773 860.46418251 294.14747145 860.43950553 268.06898499 860.40101624 C267.21839106 860.39976307 266.36779713 860.3985099 265.49142762 860.39721876 C261.15573721 860.39082043 256.82004686 860.38438404 252.48435652 860.37793553 C251.61832305 860.37664771 250.75228958 860.37535989 249.86001267 860.37403305 C248.10419388 860.37141978 246.34837511 860.36880188 244.59255634 860.36617939 C215.73667244 860.32318162 186.88081419 860.29959485 158.02490234 860.28613281 C123.1641509 860.26978038 88.30347346 860.23400646 53.44276619 860.17559147 C49.64962905 860.16929794 45.85649181 860.16307112 42.06335449 860.15689087 C41.12782615 860.15535697 40.19229781 860.15382307 39.22842012 860.15224268 C24.15002318 860.12792144 9.0716592 860.11979327 -6.00675527 860.11730447 C-21.24485222 860.1143442 -36.48283616 860.09259385 -51.72088069 860.05227637 C-60.82977282 860.02870619 -69.93843516 860.01895652 -79.0473536 860.02893328 C-85.16771677 860.0342449 -91.2878701 860.02126878 -97.4081734 859.99381829 C-100.89840419 859.97867377 -104.38816357 859.97117179 -107.878407 859.985906 C-122.08719708 860.02985339 -134.77938924 859.94986745 -148 854.3125 C-149.68109029 853.61345157 -149.68109029 853.61345157 -151.39614201 852.90028095 C-159.2299527 849.48837941 -164.90230939 844.38639269 -170.8125 838.3125 C-171.7295874 837.37768799 -172.6466748 836.44287598 -173.59155273 835.47973633 C-180.15779616 828.59824685 -185.04296157 822.47080968 -188 813.3125 C-188.42023438 812.08917969 -188.84046875 810.86585938 -189.2734375 809.60546875 C-194.2408001 793.6994888 -193.50719365 775.9842054 -188 760.3125 C-186.73028841 758.27151733 -185.39467852 756.2702154 -184 754.3125 C-183.14989286 752.70470877 -183.14989286 752.70470877 -182.28261185 751.06443691 C-179.898138 746.86361263 -176.79114108 743.69453946 -173.36883545 740.3205719 C-172.37140568 739.31929722 -172.37140568 739.31929722 -171.35382581 738.29779476 C-169.13454335 736.07358978 -166.90474482 733.86024427 -164.67480469 731.64672852 C-163.07753135 730.05030178 -161.48091908 728.4532134 -159.88491821 726.85551453 C-155.55727393 722.52701016 -151.22044793 718.20781245 -146.88191128 713.89022946 C-142.34683649 709.37391903 -137.82026606 704.84910131 -133.29278564 700.32518005 C-125.69480239 692.73545917 -118.09161074 685.15100123 -110.484375 677.57055664 C-102.65077212 669.7645134 -94.82034316 661.95530869 -86.99414062 654.1418457 C-86.51129824 653.65979148 -86.02845585 653.17773726 -85.53098187 652.68107534 C-83.10859322 650.26260196 -80.68626662 647.84406644 -78.26397085 645.42550004 C-58.18559014 625.3781923 -38.09625097 605.34189271 -18 585.3125 C-22.91063651 579.39467151 -28.20711225 573.96228676 -33.64735413 568.53143311 C-34.62263087 567.55428545 -35.59769197 566.57692254 -36.57255739 565.59936452 C-39.23787813 562.92795458 -41.90628629 560.25964779 -44.57524407 557.59187222 C-47.4584316 554.7088894 -50.33875126 551.82304366 -53.21946716 548.93759155 C-58.85698611 543.29178272 -64.49726532 537.64873936 -70.13865144 532.0067949 C-74.72298842 527.42198224 -79.30653371 522.8363796 -83.88952446 518.25022125 C-96.88611605 505.2448298 -109.88479539 492.24153023 -122.88616294 479.24091324 C-123.58638786 478.54072828 -124.28661278 477.84054331 -125.00805664 477.11914062 C-125.70913717 476.41810098 -126.41021769 475.71706134 -127.13254308 474.99477807 C-138.50748788 463.62024017 -149.87742974 452.24071583 -161.24512536 440.85893354 C-172.92024252 429.16946294 -184.59907367 417.48371439 -196.28180212 405.80185056 C-202.83973523 399.24424963 -209.396115 392.68511271 -215.94850349 386.12197113 C-221.52375673 380.53762678 -227.10244273 374.95674041 -232.68564302 369.38034102 C-235.53434041 366.53491507 -238.38139179 363.68789154 -241.22412491 360.83650589 C-243.82587474 358.22691836 -246.43218794 355.62198125 -249.04222839 353.02068654 C-250.43339952 351.63178684 -251.81964319 350.23795704 -253.20571095 348.84396434 C-254.03404735 348.02022673 -254.86238376 347.19648912 -255.71582127 346.34778976 C-256.78346269 345.27982229 -256.78346269 345.27982229 -257.87267262 344.19027972 C-260.11187762 342.21374626 -262.41670614 340.79935239 -265 339.3125 C-266.34640772 338.13990694 -267.65321623 336.92039007 -268.91796875 335.66015625 C-269.96307617 334.61891602 -269.96307617 334.61891602 -271.02929688 333.55664062 C-271.74150391 332.83669922 -272.45371094 332.11675781 -273.1875 331.375 C-274.27321289 330.30088867 -274.27321289 330.30088867 -275.38085938 329.20507812 C-276.42016602 328.1619043 -276.42016602 328.1619043 -277.48046875 327.09765625 C-278.10848389 326.46738525 -278.73649902 325.83711426 -279.38354492 325.18774414 C-281.01551755 323.29449814 -281.99112708 321.58876422 -283 319.3125 C-283.474375 318.260625 -283.94875 317.20875 -284.4375 316.125 C-290.67849824 301.42538992 -292.71272298 285.36311748 -287.1875 270.0625 C-281.95406024 257.15334859 -271.01218121 247.17401535 -261.3352356 237.51402283 C-260.37019662 236.54711204 -259.40537301 235.57998626 -258.44074428 234.61266619 C-255.80820301 231.97404663 -253.17258599 229.33851877 -250.53641248 226.70352876 C-247.68656767 223.85388896 -244.83959245 221.00138456 -241.99221802 218.14927673 C-236.42100257 212.56977674 -230.84703213 206.99303703 -225.27195229 201.41739862 C-220.7391612 196.88413148 -216.20716258 192.35007361 -211.6757164 187.81546211 C-198.81597045 174.94691673 -185.9541373 162.0804627 -173.08961548 149.21669167 C-172.39698085 148.52409699 -171.70434622 147.83150231 -170.99072266 147.11791992 C-170.2972381 146.42447625 -169.60375355 145.73103258 -168.88925432 145.01657546 C-157.64640598 133.77413373 -146.40855677 122.52670962 -135.17296113 111.27702003 C-123.62436355 99.71405066 -112.07203316 88.15482227 -100.51581562 76.59946829 C-94.03266454 70.11664883 -87.55105402 63.63230637 -81.07345963 57.14393425 C-75.55984141 51.62120064 -70.04275635 46.1019594 -64.52118887 40.58717292 C-61.70642432 37.77566787 -58.89327257 34.96259897 -56.08448792 32.14511871 C-53.5091178 29.56185792 -50.92910452 26.98332786 -48.34544431 24.40835924 C-46.97816569 23.04332977 -45.61577146 21.67341315 -44.25360596 20.30328125 C-36.22191716 12.31616265 -29.14961792 6.26424367 -18.3125 2.75 C-11.83719352 0.64960647 -6.93629031 0.05931833 0 0 Z " fill="#FCFCFC" transform="translate(330,35.6875)"/>
<path d="M0 0 C4.64534138 0.52620969 5.95390872 1.79077688 9.22151244 5.07786226 C9.73152632 5.58129722 10.2415402 6.08473217 10.76700905 6.60342273 C12.47689418 8.2997592 14.16054084 10.01995511 15.84547198 11.74105406 C17.07635083 12.97246073 18.30877712 14.20232223 19.54261535 15.43076366 C22.93262766 18.81481616 26.30038116 22.22029536 29.66500854 25.6295625 C33.29575487 29.3007608 36.94674421 32.95172557 40.59544146 36.60506773 C46.91600017 42.93902018 53.22386968 49.28538577 59.5236088 55.64004278 C68.6338615 64.82923915 77.76570263 73.99673525 86.90347771 83.15855449 C101.73005192 98.0248565 116.54275369 112.90489645 131.34505999 127.79536009 C132.23125544 128.6868256 133.11745089 129.57829111 134.03050075 130.49677073 C137.62160631 134.10927733 141.21267633 137.72181925 144.80370085 141.33440641 C154.69408533 151.28397504 164.58682288 161.23120219 174.48080218 171.17719603 C175.36682618 172.06788611 176.25285019 172.9585762 177.16572341 173.87625689 C191.91975355 188.7072916 206.68366896 203.52845294 221.45389217 218.34336036 C230.57091357 227.489062 239.678306 236.64416398 248.7736244 245.81145035 C255.00058866 252.08669663 261.23611579 258.35334352 267.4785591 264.61319167 C271.08451298 268.22988141 274.68607973 271.85069214 278.27688754 275.48242521 C281.55937212 278.80221493 284.85298509 282.11051233 288.15608541 285.40978699 C289.35348749 286.60995146 290.54658349 287.81442953 291.73505535 289.02343787 C293.34239939 290.65737239 294.96418812 292.27540428 296.59075987 293.8901639 C297.49069975 294.79579689 298.39063963 295.70142987 299.31785041 296.63450629 C301.50504058 298.64761178 301.50504058 298.64761178 303.85660553 298.36308473 C307.12636363 296.70780843 309.51059961 294.01121743 312.04914629 291.42316771 C312.68198678 290.79006823 313.31482727 290.15696876 313.96684474 289.50468445 C316.09196699 287.37512659 318.20616535 285.23504133 320.32064593 283.09492064 C321.83952372 281.56865064 323.35909219 280.04306771 324.87930071 278.51812315 C328.15473534 275.22980161 331.42549872 271.93692639 334.6928364 268.64055967 C339.85688832 263.43125283 345.03282434 258.23386624 350.21079791 253.03840208 C363.07045817 240.13162187 375.91495941 227.20978311 388.75509417 214.2835803 C398.73233844 204.23971002 408.71396078 194.20028129 418.70950526 184.17461872 C423.85995483 179.00763396 429.00086685 173.8313968 434.13487196 168.64807463 C437.32788097 165.42846306 440.52914515 162.21716006 443.73278582 159.00813055 C445.21939618 157.51561609 446.70254381 156.01964359 448.18199122 154.52002859 C450.19843922 152.47705064 452.2267889 150.44668057 454.25861895 148.41901731 C455.1373254 147.51976428 455.1373254 147.51976428 456.0337835 146.60234451 C459.07740222 143.59272009 461.30596144 141.44382331 465.71737444 141.42109251 C471.26404111 144.51442584 471.26404111 144.51442584 472.71737444 147.42109251 C472.8190359 148.8719745 472.8594838 150.32737074 472.8688637 151.78177977 C472.88137589 153.16069033 472.88137589 153.16069033 472.89414084 154.56745768 C472.89832746 155.58182807 472.90251408 156.59619846 472.90682757 157.64130735 C472.9151407 158.7109891 472.92345383 159.78067085 472.93201888 160.8827672 C472.958777 164.46583818 472.97861552 168.04891549 472.99862444 171.63203001 C473.01641704 174.15761227 473.03470125 176.68319111 473.05344927 179.20876646 C473.09266454 184.59669708 473.12917319 189.98463503 473.16320574 195.37260008 C473.24767822 208.71332934 473.34783958 222.05394697 473.4477948 235.39456773 C473.46350471 237.50020558 473.47901913 239.60584479 473.4944874 241.71148443 C473.61921812 258.64264015 473.7673149 275.57308275 474.00253069 292.50312376 C474.02011242 293.77454473 474.02011242 293.77454473 474.03804934 295.07165098 C474.13419661 301.9647477 474.23411346 308.85778075 474.34725726 315.75062132 C474.56894672 329.29704718 474.74257519 342.83755476 474.69149554 356.38593626 C474.58664017 386.14851478 474.8870358 415.88953854 475.37362444 445.64765501 C475.39831588 447.16421906 475.39831588 447.16421906 475.42350614 448.71142077 C475.71535789 466.61927668 476.02024292 484.52690912 476.32668841 502.43452024 C476.79393968 529.7556014 477.23568586 557.07673729 477.60521376 584.39933228 C477.68731551 590.4128925 477.78034702 596.42620796 477.87850726 602.43952513 C477.9871148 609.13611852 478.07423468 615.83253229 478.12960064 622.52978742 C478.15691752 625.80244579 478.19646171 629.07406122 478.25611651 632.346313 C478.31772387 635.8252853 478.34211412 639.30249155 478.35604632 642.78193235 C478.38224047 643.77371363 478.40843462 644.7654949 478.43542254 645.78733015 C478.40942571 651.28545526 477.73948059 655.20567389 473.73063815 659.18234777 C469.57128379 661.74156458 465.04568687 661.33578676 460.3018471 661.23163939 C458.58205142 661.2355821 458.58205142 661.2355821 456.82751238 661.23960447 C453.01125094 661.23982698 449.1973437 661.18997171 445.38143694 661.13984251 C442.67354898 661.12545168 439.96566936 661.12143748 437.2577492 661.11701536 C430.80310637 661.10037026 424.34927736 661.04734946 417.89496708 660.98176765 C410.80882506 660.9116028 403.72275114 660.88338058 396.63633025 660.85844874 C366.75921113 660.74866055 336.88723861 660.34720651 307.01444399 659.84583235 C288.62899027 659.53750173 270.24576653 659.31346438 251.85799944 659.21015501 C250.7094158 659.2036499 249.56083216 659.19714479 248.37744296 659.19044256 C243.63228765 659.16379876 238.88713064 659.13748542 234.14197123 659.11158419 C206.33323346 658.95650858 178.52517232 658.69338033 150.71737444 658.42109251 C149.77693537 658.41192777 148.8364963 658.40276302 147.86755908 658.39332056 C121.3499805 658.13453094 94.83303971 657.84276473 68.31658328 657.48611403 C57.57159007 657.34199688 46.82668223 657.20752842 36.08126605 657.09888792 C26.86328599 657.00556495 17.64584383 656.89170679 8.42845356 656.75145012 C3.66415633 656.67955318 -1.09976581 656.61748201 -5.8644737 656.58059835 C-10.26692495 656.54619966 -14.6681074 656.48434239 -19.0698899 656.40067315 C-20.67216415 656.37506561 -22.27463708 656.35956539 -23.87710941 656.35498691 C-26.05693205 656.34726151 -28.23308931 656.3031414 -30.41220319 656.24978209 C-32.23353332 656.2268419 -32.23353332 656.2268419 -34.091658 656.20343828 C-38.68747833 655.0766576 -39.81328028 653.43076175 -42.28262556 649.42109251 C-42.57803709 645.57716873 -41.21053487 644.33535918 -38.72606122 641.3807168 C-37.57657852 640.21833348 -36.4158822 639.0669775 -35.24673688 637.92437315 C-34.60955386 637.28588912 -33.97237083 636.64740509 -33.31587923 635.98957306 C-31.17483769 633.84896847 -29.01982667 631.72300212 -26.86465681 629.59662962 C-25.3283266 628.06633783 -23.79289672 626.5351417 -22.25830305 625.0031085 C-18.95023123 621.70429879 -15.63599178 618.4118575 -12.3168968 615.12413931 C-7.07208765 609.92856866 -1.84196511 604.71838257 3.38607562 599.50594664 C13.54008348 589.38624884 23.70877293 579.28137801 33.87922442 569.17821074 C46.82682279 556.31565893 59.76806774 543.44674453 72.69481528 530.56323582 C77.89672699 525.37973224 83.10623194 520.20401736 88.32171404 515.03416955 C91.56041483 511.82097538 94.792982 508.60166443 98.02393496 505.38068151 C99.52699727 503.88485228 101.03266199 502.39163297 102.54106295 500.90118742 C104.59480176 498.87122666 106.63919119 496.8322927 108.68148577 494.79082823 C109.28487875 494.19890226 109.88827172 493.60697629 110.50994933 492.99711317 C113.28310021 490.20611368 114.99242958 488.29463124 115.71737444 484.42109251 C114.88180346 484.07290794 114.88180346 484.07290794 114.02935225 483.71768934 C111.10643808 482.07846891 109.09622275 480.048097 106.72572958 477.67554331 C106.2346722 477.18679361 105.74361481 476.69804391 105.23767689 476.19448361 C103.58647976 474.548598 101.94253793 472.89565078 100.29844439 471.24267149 C99.10691523 470.05201417 97.91494679 468.86179631 96.7225762 467.67198163 C93.44169923 464.39558675 90.16710794 461.11297125 86.89348316 457.82933247 C83.36397504 454.29120409 79.82870622 450.75884022 76.29412615 447.22578001 C70.16802838 441.10073213 64.04561013 434.972026 57.92565882 428.840837 C49.07174479 419.97067643 40.2123205 411.10603642 31.35153674 402.24273894 C16.96916204 387.85598408 2.59126093 373.46476694 -11.78384626 359.07075071 C-25.73724349 345.09901832 -39.69272197 331.12937022 -53.65103376 317.16254759 C-54.51039757 316.30265833 -55.36976138 315.44276907 -56.25516652 314.55682256 C-60.56699036 310.24238832 -64.87885566 305.9279955 -69.19074178 301.6136235 C-98.91983699 271.86730322 -128.64448792 242.11654724 -158.36464155 212.36129332 C-159.31556464 211.40924773 -159.31556464 211.40924773 -160.2856983 210.4379689 C-163.22111091 207.49908053 -166.15650001 204.5601687 -169.09183723 201.62120503 C-169.61351617 201.09889189 -170.1351951 200.57657875 -170.67268249 200.03843793 C-172.05285204 198.65658926 -173.43300634 197.27472536 -174.81315929 195.89286011 C-177.30220555 193.40149426 -179.7922254 190.91110493 -182.28262556 188.42109251 C-183.28262556 187.42109251 -183.28262556 187.42109251 -183.68740976 184.19747591 C-183.17855177 179.45014915 -181.32587689 177.85076491 -177.80607831 174.99895811 C-176.5961205 173.95128623 -175.38918324 172.90011855 -174.18484914 171.84598684 C-173.54450019 171.2915297 -172.90415123 170.73707256 -172.24439776 170.16581368 C-168.88808575 167.18084499 -165.72943927 164.0026084 -162.55812299 160.82357359 C-161.53667713 159.80457293 -161.53667713 159.80457293 -160.494596 158.7649864 C-158.29656991 156.57068198 -156.10196444 154.37299039 -153.90738142 152.1752429 C-152.30626887 150.57548854 -150.70494437 148.97594631 -149.10342634 147.37659788 C-144.79388772 143.07158098 -140.48747317 138.76345212 -136.18178856 134.45458102 C-131.66218239 129.93242739 -127.14011914 125.41273182 -122.61845624 120.89263487 C-114.55322856 112.82933625 -106.49051191 104.76353326 -98.42880035 96.69671964 C-91.12538653 89.388827 -83.81933789 82.08357712 -76.51138532 74.78022337 C-67.99985609 66.27404794 -59.49001203 57.7661933 -50.98263687 49.25586265 C-46.4878362 44.75950417 -41.99236532 40.26382136 -37.4951328 35.76989508 C-33.27471912 31.55236833 -29.05675597 27.33240608 -24.84067762 23.11054564 C-23.29355101 21.56209653 -21.74557234 20.01449822 -20.19668233 18.46781301 C-18.08355922 16.35742101 -15.9735381 14.24397522 -13.86427534 12.12972593 C-13.25056969 11.518251 -12.63686404 10.90677608 -12.00456125 10.27677161 C-11.43682066 9.70642327 -10.86908007 9.13607494 -10.28413522 8.54844332 C-9.75575646 8.01877683 -9.22737769 7.48911034 -8.68298745 6.94339335 C-7.07809105 5.27442275 -7.07809105 5.27442275 -5.30877244 2.50180292 C-3.28262556 0.42109251 -3.28262556 0.42109251 0 0 Z " fill="#000000" transform="translate(329.2826255559921,141.5789074897766)"/>
<path d="M0 0 C1.09957031 -0.02900391 2.19914062 -0.05800781 3.33203125 -0.08789062 C10.82360406 -0.14565483 16.30070732 1.02322301 23 4.3125 C24.24583862 4.84109619 24.24583862 4.84109619 25.5168457 5.38037109 C32.3639738 8.43746635 37.05408814 12.73335926 42.1875 18.125 C42.94224609 18.89392578 43.69699219 19.66285156 44.47460938 20.45507812 C47.76872645 23.83475668 50.96037321 27.26358961 54.03044224 30.84748077 C58.40987225 35.85619333 63.0906351 40.53867159 67.80125427 45.23400879 C68.78096171 46.2141531 69.76044903 47.19451746 70.73973709 48.17508078 C73.41245612 50.8500219 76.08825952 53.52185838 78.76460493 56.19317055 C81.65726182 59.08149011 84.54700873 61.9727186 87.43711853 64.86358643 C92.4385619 69.86555295 97.4418261 74.8656921 102.44634819 79.86457825 C109.6819552 87.09204206 116.91478399 94.32228094 124.14694787 101.55318993 C135.88206018 113.28611616 147.61940175 125.01680965 159.3581543 136.74609375 C170.75809205 148.13684593 182.15697415 159.5286528 193.55444336 170.921875 C194.25753525 171.62470417 194.96062714 172.32753334 195.68502485 173.05166036 C199.21238845 176.57771887 202.73973135 180.10379808 206.26706398 183.62988758 C235.50816934 212.86063412 264.7528965 242.08775503 294 271.3125 C296.77256594 270.04534604 298.81075622 268.74909317 300.95465755 266.58717823 C301.79059316 265.75166548 301.79059316 265.75166548 302.64341635 264.89927369 C303.24544915 264.28732249 303.84748196 263.67537128 304.46775818 263.0448761 C305.1153719 262.39473783 305.76298562 261.74459957 306.430224 261.07476014 C308.60334855 258.89086422 310.76923452 256.69992635 312.93530273 254.5090332 C314.4906606 252.94329015 316.04650448 251.37802976 317.60279846 249.81321716 C320.95681325 246.4393048 324.30789599 243.06251584 327.65691948 239.68364906 C332.95901779 234.33543053 338.27086538 228.99696888 343.58473206 223.66044617 C351.04090293 216.17128173 358.49572362 208.6807803 365.94702148 201.18676758 C366.41984781 200.71123639 366.89267413 200.2357052 367.37982852 199.74576398 C375.02653754 192.05477894 382.66547212 184.35610818 390.30242097 176.65543327 C398.15529374 168.73759979 406.02001942 160.83164226 413.89425808 152.93505162 C418.30998204 148.50581807 422.71989505 144.07112296 427.11642265 139.62282753 C431.25759635 135.43289839 435.41268324 131.25727943 439.57854271 127.09189796 C441.09904578 125.56657801 442.61444348 124.03614766 444.12409592 122.50008774 C455.42517271 111.00976532 465.79429997 102.67684123 482 99.3125 C483.32257813 99.00699219 483.32257813 99.00699219 484.671875 98.6953125 C499.96176642 95.46941055 513.89429667 97.77756833 528 104.3125 C528.68006104 104.62243896 529.36012207 104.93237793 530.06079102 105.25170898 C537.16073486 108.79971198 542.30577336 114.05961755 547.8125 119.6875 C549.2037207 121.06808594 549.2037207 121.06808594 550.62304688 122.4765625 C555.25103743 127.14793004 559.12714194 131.38292096 562 137.3125 C562.53625 138.3025 563.0725 139.2925 563.625 140.3125 C565.12726849 143.59017671 566.11167042 146.83504837 567 150.3125 C567.24434439 151.17514021 567.48868877 152.03778041 567.74043754 152.92656123 C569.63013505 159.87795356 570.4316803 166.20167349 570.38311005 173.38753605 C570.38806956 174.43910478 570.39302908 175.49067352 570.39813888 176.57410797 C570.41103811 180.07932073 570.40272812 183.584149 570.39440918 187.08937073 C570.39930076 189.63531559 570.40549181 192.18125823 570.41286707 194.72719711 C570.42583762 200.25325396 570.42952451 205.77919555 570.42490768 211.30526352 C570.41805982 219.52321839 570.42835336 227.74109073 570.44186524 235.95903412 C570.46675047 251.49313073 570.4712954 267.0271929 570.46939927 282.56130625 C570.46802504 294.56076732 570.47184954 306.56021648 570.47932434 318.55967522 C570.48037469 320.28498999 570.48142231 322.01030477 570.4824672 323.73561956 C570.48298655 324.59209411 570.48350589 325.44856866 570.48404097 326.33099699 C570.48456112 327.1890613 570.48508126 328.04712561 570.48561716 328.93119186 C570.48614115 329.7907197 570.48666514 330.65024753 570.48720502 331.53582167 C570.50178504 355.7056238 570.51007233 379.87542157 570.50545502 404.045228 C570.50528306 404.9560643 570.50511111 405.8669006 570.50493394 406.805338 C570.50404508 411.42156426 570.50310027 416.0377905 570.50213593 420.65401674 C570.5019449 421.57077263 570.50175387 422.48752851 570.50155704 423.43206488 C570.50116995 425.28596844 570.50077962 427.139872 570.50038607 428.99377556 C570.49441837 457.82929789 570.50984546 486.66473992 570.54199219 515.50024414 C570.57810099 547.91700472 570.59739737 580.33371438 570.59245348 612.75049633 C570.59198353 616.20986902 570.59157327 619.66924172 570.59120178 623.12861443 C570.5910994 623.98036238 570.59099701 624.83211034 570.59089152 625.70966884 C570.58969859 638.54624647 570.60163914 651.38276895 570.62034607 664.21933174 C570.64162452 678.82727894 570.64539086 693.43511076 570.62604648 708.04306317 C570.61575166 716.20873533 570.61910968 724.37412568 570.64257733 732.53977212 C570.65857833 738.65161145 570.64817666 744.76314739 570.62785631 750.87496793 C570.62368181 753.33657361 570.62783146 755.79821155 570.64145225 758.2597831 C570.74445156 778.24543449 568.99031796 800.10484072 556 816.3125 C555.43410156 817.385 554.86820313 818.4575 554.28515625 819.5625 C551.51517492 824.54442262 547.46529133 828.33659181 543.4375 832.3125 C542.63119141 833.11196045 541.82488281 833.9114209 540.99414062 834.73510742 C535.37264738 840.2061457 530.01211662 844.72148066 523 848.3125 C521.84951172 848.97185547 521.84951172 848.97185547 520.67578125 849.64453125 C502.58336088 859.543029 483.29005696 860.61217419 463.17480469 860.55541992 C460.94283017 860.55646188 458.71085592 860.55836887 456.47888279 860.56106091 C450.34442406 860.5658508 444.21003668 860.5580247 438.07558656 860.54805517 C432.09473252 860.54026229 426.11388246 860.54189749 420.13302506 860.543044 C405.51932667 860.54532189 390.90566515 860.53132355 376.2919795 860.51354264 C375.53230667 860.51261975 374.77263385 860.51169686 373.98994064 860.510746 C373.22840985 860.5098193 372.46687905 860.50889259 371.68227157 860.5079378 C363.22300754 860.49784427 354.76374127 860.49123932 346.30447388 860.48471069 C320.22596773 860.46418251 294.14747145 860.43950553 268.06898499 860.40101624 C267.21839106 860.39976307 266.36779713 860.3985099 265.49142762 860.39721876 C261.15573721 860.39082043 256.82004686 860.38438404 252.48435652 860.37793553 C251.61832305 860.37664771 250.75228958 860.37535989 249.86001267 860.37403305 C248.10419388 860.37141978 246.34837511 860.36880188 244.59255634 860.36617939 C215.73667244 860.32318162 186.88081419 860.29959485 158.02490234 860.28613281 C123.1641509 860.26978038 88.30347346 860.23400646 53.44276619 860.17559147 C49.64962905 860.16929794 45.85649181 860.16307112 42.06335449 860.15689087 C41.12782615 860.15535697 40.19229781 860.15382307 39.22842012 860.15224268 C24.15002318 860.12792144 9.0716592 860.11979327 -6.00675527 860.11730447 C-21.24485222 860.1143442 -36.48283616 860.09259385 -51.72088069 860.05227637 C-60.82977282 860.02870619 -69.93843516 860.01895652 -79.0473536 860.02893328 C-85.16771677 860.0342449 -91.2878701 860.02126878 -97.4081734 859.99381829 C-100.89840419 859.97867377 -104.38816357 859.97117179 -107.878407 859.985906 C-122.08719708 860.02985339 -134.77938924 859.94986745 -148 854.3125 C-149.68109029 853.61345157 -149.68109029 853.61345157 -151.39614201 852.90028095 C-159.2299527 849.48837941 -164.90230939 844.38639269 -170.8125 838.3125 C-171.7295874 837.37768799 -172.6466748 836.44287598 -173.59155273 835.47973633 C-180.15779616 828.59824685 -185.04296157 822.47080968 -188 813.3125 C-188.42023438 812.08917969 -188.84046875 810.86585938 -189.2734375 809.60546875 C-194.2408001 793.6994888 -193.50719365 775.9842054 -188 760.3125 C-186.73028841 758.27151733 -185.39467852 756.2702154 -184 754.3125 C-183.14989286 752.70470877 -183.14989286 752.70470877 -182.28261185 751.06443691 C-179.898138 746.86361263 -176.79114108 743.69453946 -173.36883545 740.3205719 C-172.37140568 739.31929722 -172.37140568 739.31929722 -171.35382581 738.29779476 C-169.13454335 736.07358978 -166.90474482 733.86024427 -164.67480469 731.64672852 C-163.07753135 730.05030178 -161.48091908 728.4532134 -159.88491821 726.85551453 C-155.55727393 722.52701016 -151.22044793 718.20781245 -146.88191128 713.89022946 C-142.34683649 709.37391903 -137.82026606 704.84910131 -133.29278564 700.32518005 C-125.69480239 692.73545917 -118.09161074 685.15100123 -110.484375 677.57055664 C-102.65077212 669.7645134 -94.82034316 661.95530869 -86.99414062 654.1418457 C-86.51129824 653.65979148 -86.02845585 653.17773726 -85.53098187 652.68107534 C-83.10859322 650.26260196 -80.68626662 647.84406644 -78.26397085 645.42550004 C-58.18559014 625.3781923 -38.09625097 605.34189271 -18 585.3125 C-22.91063651 579.39467151 -28.20711225 573.96228676 -33.64735413 568.53143311 C-34.62263087 567.55428545 -35.59769197 566.57692254 -36.57255739 565.59936452 C-39.23787813 562.92795458 -41.90628629 560.25964779 -44.57524407 557.59187222 C-47.4584316 554.7088894 -50.33875126 551.82304366 -53.21946716 548.93759155 C-58.85698611 543.29178272 -64.49726532 537.64873936 -70.13865144 532.0067949 C-74.72298842 527.42198224 -79.30653371 522.8363796 -83.88952446 518.25022125 C-96.88611605 505.2448298 -109.88479539 492.24153023 -122.88616294 479.24091324 C-123.58638786 478.54072828 -124.28661278 477.84054331 -125.00805664 477.11914062 C-125.70913717 476.41810098 -126.41021769 475.71706134 -127.13254308 474.99477807 C-138.50748788 463.62024017 -149.87742974 452.24071583 -161.24512536 440.85893354 C-172.92024252 429.16946294 -184.59907367 417.48371439 -196.28180212 405.80185056 C-202.83973523 399.24424963 -209.396115 392.68511271 -215.94850349 386.12197113 C-221.52375673 380.53762678 -227.10244273 374.95674041 -232.68564302 369.38034102 C-235.53434041 366.53491507 -238.38139179 363.68789154 -241.22412491 360.83650589 C-243.82587474 358.22691836 -246.43218794 355.62198125 -249.04222839 353.02068654 C-250.43339952 351.63178684 -251.81964319 350.23795704 -253.20571095 348.84396434 C-254.03404735 348.02022673 -254.86238376 347.19648912 -255.71582127 346.34778976 C-256.78346269 345.27982229 -256.78346269 345.27982229 -257.87267262 344.19027972 C-260.11187762 342.21374626 -262.41670614 340.79935239 -265 339.3125 C-266.34640772 338.13990694 -267.65321623 336.92039007 -268.91796875 335.66015625 C-269.96307617 334.61891602 -269.96307617 334.61891602 -271.02929688 333.55664062 C-271.74150391 332.83669922 -272.45371094 332.11675781 -273.1875 331.375 C-274.27321289 330.30088867 -274.27321289 330.30088867 -275.38085938 329.20507812 C-276.42016602 328.1619043 -276.42016602 328.1619043 -277.48046875 327.09765625 C-278.10848389 326.46738525 -278.73649902 325.83711426 -279.38354492 325.18774414 C-281.01551755 323.29449814 -281.99112708 321.58876422 -283 319.3125 C-283.474375 318.260625 -283.94875 317.20875 -284.4375 316.125 C-290.67849824 301.42538992 -292.71272298 285.36311748 -287.1875 270.0625 C-281.95406024 257.15334859 -271.01218121 247.17401535 -261.3352356 237.51402283 C-260.37019662 236.54711204 -259.40537301 235.57998626 -258.44074428 234.61266619 C-255.80820301 231.97404663 -253.17258599 229.33851877 -250.53641248 226.70352876 C-247.68656767 223.85388896 -244.83959245 221.00138456 -241.99221802 218.14927673 C-236.42100257 212.56977674 -230.84703213 206.99303703 -225.27195229 201.41739862 C-220.7391612 196.88413148 -216.20716258 192.35007361 -211.6757164 187.81546211 C-198.81597045 174.94691673 -185.9541373 162.0804627 -173.08961548 149.21669167 C-172.39698085 148.52409699 -171.70434622 147.83150231 -170.99072266 147.11791992 C-170.2972381 146.42447625 -169.60375355 145.73103258 -168.88925432 145.01657546 C-157.64640598 133.77413373 -146.40855677 122.52670962 -135.17296113 111.27702003 C-123.62436355 99.71405066 -112.07203316 88.15482227 -100.51581562 76.59946829 C-94.03266454 70.11664883 -87.55105402 63.63230637 -81.07345963 57.14393425 C-75.55984141 51.62120064 -70.04275635 46.1019594 -64.52118887 40.58717292 C-61.70642432 37.77566787 -58.89327257 34.96259897 -56.08448792 32.14511871 C-53.5091178 29.56185792 -50.92910452 26.98332786 -48.34544431 24.40835924 C-46.97816569 23.04332977 -45.61577146 21.67341315 -44.25360596 20.30328125 C-36.22191716 12.31616265 -29.14961792 6.26424367 -18.3125 2.75 C-11.83719352 0.64960647 -6.93629031 0.05931833 0 0 Z M-19.41015625 32.75976562 C-21 34.3125 -21 34.3125 -23.33791292 35.66382372 C-26.00318309 37.31447134 -27.97070289 39.0325586 -30.18323708 41.24405479 C-30.98903981 42.04464203 -31.79484254 42.84522927 -32.62506354 43.67007673 C-33.49948013 44.54895476 -34.37389673 45.4278328 -35.27481079 46.33334351 C-36.22114474 47.27737225 -37.1679141 48.22096468 -38.11508024 49.16415846 C-40.71346717 51.75419703 -43.3055802 54.35043592 -45.89669561 56.94774628 C-48.6933782 59.74895215 -51.49580705 62.54439905 -54.29750061 65.34059143 C-59.78387072 70.81806461 -65.26481553 76.30093571 -70.74383976 81.78575586 C-75.19654547 86.24297686 -79.65119765 90.69824372 -84.10725021 95.15211868 C-85.05827137 96.10268014 -85.05827137 96.10268014 -86.02850508 97.07244486 C-87.31646874 98.35976908 -88.6044369 99.64708881 -89.89240949 100.93440409 C-101.97176494 113.00805536 -114.04498063 125.08783121 -126.11611037 137.1697057 C-136.47563146 147.53816238 -146.84038515 157.90136405 -157.20898438 168.26074219 C-169.24739257 180.28844931 -181.28255207 192.31939182 -193.31253946 204.3555218 C-194.59514921 205.63876866 -195.87776315 206.92201134 -197.16038132 208.20524979 C-197.79146549 208.83664251 -198.42254967 209.46803524 -199.07275761 210.11856108 C-203.52191723 214.56944813 -207.97339466 219.01800894 -212.42576981 223.46567917 C-217.85106369 228.88536603 -223.27278414 234.30859737 -228.68994404 239.73641489 C-231.45436003 242.50608998 -234.2203563 245.2741365 -236.99070549 248.03787804 C-239.52636255 250.56757853 -242.05736105 253.1018445 -244.5847135 255.63984115 C-245.93395039 256.99237272 -247.28810496 258.33999306 -248.64242327 259.68743646 C-249.44301051 260.49323919 -250.24359775 261.29904193 -251.06844521 262.12926292 C-251.76024333 262.82138575 -252.45204145 263.51350857 -253.16480315 264.22660482 C-255.12558817 266.45524423 -256.53521707 268.73605516 -258 271.3125 C-258.66 272.3025 -259.32 273.2925 -260 274.3125 C-260 275.3025 -260 276.2925 -260 277.3125 C-260.66 277.3125 -261.32 277.3125 -262 277.3125 C-263.36233092 281.39949276 -263.26350956 285.21823539 -263.3125 289.5 C-263.34150391 290.32564453 -263.37050781 291.15128906 -263.40039062 292.00195312 C-263.41295898 293.22881836 -263.41295898 293.22881836 -263.42578125 294.48046875 C-263.44036377 295.21547607 -263.45494629 295.9504834 -263.4699707 296.70776367 C-262.00986057 304.80018704 -256.80137411 310.08216763 -251.16986084 315.63038635 C-250.37579496 316.4285755 -249.58172907 317.22676465 -248.76360059 318.04914135 C-246.10929711 320.71235075 -243.44098231 323.36105255 -240.77246094 326.01000977 C-238.86283543 327.92014423 -236.95401526 329.83105309 -235.04615784 331.74295044 C-230.40529662 336.39002538 -225.75392851 341.02644397 -221.09897986 345.6594028 C-215.67317972 351.06045941 -210.25833308 356.47244255 -204.84399429 361.88498461 C-195.17891035 371.54619486 -185.50457387 381.1980855 -175.82470703 390.84448242 C-166.4427764 400.19399995 -157.06643841 409.54907475 -147.69677734 418.91088867 C-147.11988733 419.4872932 -146.54299731 420.06369773 -145.94862577 420.65756906 C-143.62941228 422.97485359 -141.3102072 425.29214655 -138.99102066 427.60945806 C-130.04778971 436.54514357 -121.1005222 445.47678674 -112.15240411 454.40757801 C-109.45324958 457.10150647 -106.75424144 459.79558122 -104.05559826 462.49002194 C-98.38179927 468.15487769 -92.70655433 473.81827065 -87.02684894 479.47720522 C-84.67937754 481.81612158 -82.33289958 484.15600978 -79.98801613 486.49752235 C-77.44033411 489.04119956 -74.88960799 491.58178505 -72.33807373 494.12159729 C-71.60537002 494.85448536 -70.87266632 495.58737343 -70.11775947 496.34247023 C-66.14438872 500.29027137 -62.08173541 504.07110746 -57.8251617 507.71265793 C-54.50342311 510.62432167 -51.41256219 513.76953235 -48.29882812 516.90014648 C-47.57589569 517.62293289 -46.85296326 518.3457193 -46.10812378 519.09040833 C-43.7467844 521.45243791 -41.38899535 523.81797713 -39.03125 526.18359375 C-37.38380478 527.83290633 -35.73613694 529.48199657 -34.08825684 531.13087463 C-29.77231493 535.45061672 -25.45938583 539.77335453 -21.14709473 544.09674072 C-16.73791314 548.51619041 -12.32586464 552.93277598 -7.9140625 557.34960938 C0.72675349 566.00111856 9.36438671 574.65579788 18 583.3125 C13.81951516 588.3015467 9.46360722 592.98464184 4.84480286 597.56776428 C4.1475891 598.26371576 3.45037535 598.95966724 2.73203391 599.67670816 C0.41072057 601.9926724 -1.9141545 604.3050273 -4.23901367 606.61743164 C-5.91012468 608.28334589 -7.58099141 609.9495052 -9.25163269 611.6158905 C-12.84176179 615.19610007 -16.43334511 618.77484216 -20.02599144 622.35252571 C-25.70592942 628.00936224 -31.38096234 633.67110216 -37.05500793 639.33384705 C-38.9991946 641.27403314 -40.94341533 643.21418511 -42.88764668 645.15432644 C-43.61627434 645.88142526 -43.61627434 645.88142526 -44.35962176 646.62321295 C-49.87876225 652.13062985 -55.39898181 657.63696459 -60.91967773 663.14282227 C-61.42390231 663.6456944 -61.92812688 664.14856654 -62.44763098 664.66667723 C-70.62897706 672.82581569 -78.81414736 680.98110951 -87.00027402 689.13545115 C-95.41438112 697.51716775 -103.82272064 705.90464121 -112.22615415 714.297059 C-117.86586789 719.9289115 -123.51234687 725.55388775 -129.16353071 731.17423069 C-132.67454477 734.66925407 -136.17925996 738.17054014 -139.68219185 741.67366219 C-141.3085938 743.29763977 -142.93757878 744.91903516 -144.56931305 746.53765488 C-146.79511346 748.74630768 -149.01148682 750.96401267 -151.22575378 753.18421936 C-151.87438375 753.82342868 -152.52301372 754.46263801 -153.19129914 755.12121731 C-157.29586726 759.26277069 -161 763.1674821 -161 769.3125 C-161.66 769.3125 -162.32 769.3125 -163 769.3125 C-167.00734336 782.55104504 -167.7328642 795.09701093 -161.81640625 807.8671875 C-155.53881089 819.28423063 -145.97190112 827.88919687 -133.56611919 831.91648579 C-124.3837483 834.3232302 -114.79926223 833.73468711 -105.3795929 833.71122742 C-103.16356714 833.71667049 -100.94754428 833.72342355 -98.73152608 833.73136932 C-92.65464501 833.74937881 -86.57788625 833.74883919 -80.50098479 833.74523985 C-74.61347632 833.74467969 -68.72601113 833.7581814 -62.83851976 833.77132157 C-50.7844051 833.79773833 -38.73031339 833.81027881 -26.67617226 833.81488609 C-14.70311303 833.81950722 -2.73008544 833.83033765 9.24295998 833.84931374 C10.36331181 833.85108393 10.36331181 833.85108393 11.50629702 833.85288988 C15.30127322 833.85891722 19.09624924 833.86505287 22.8912252 833.87122939 C49.79100047 833.91480825 76.69077501 833.94449486 103.59057617 833.96606445 C129.56031469 833.98691837 155.53003365 834.01410627 181.49975586 834.05004883 C182.69404339 834.05169804 182.69404339 834.05169804 183.91245794 834.05338058 C191.11906703 834.06333816 198.325676 834.07337766 205.53228484 834.08351372 C222.79762976 834.10779348 240.06297605 834.13100353 257.32832336 834.15351868 C258.09010071 834.1545123 258.85187805 834.15550591 259.63673956 834.15652964 C281.97306782 834.18560887 304.30939803 834.21201225 326.64573362 834.23480147 C328.06868429 834.23625348 329.49163496 834.23771097 330.91458562 834.23917401 C346.40781144 834.25509956 361.9010351 834.26910734 377.39426708 834.27772045 C382.33701264 834.28057852 387.27975816 834.28351099 392.22250366 834.28646851 C393.4037048 834.28714024 394.58490594 834.28781198 395.80190105 834.28850407 C409.86292622 834.29702755 423.92367199 834.32274362 437.98458283 834.38010293 C442.56723355 834.3979041 447.14990043 834.41091082 451.73256773 834.42364216 C456.23111954 834.43690165 460.72944724 834.46384187 465.22792339 834.49408245 C491.81596589 835.30604405 491.81596589 835.30604405 515 824.3125 C515.78375 823.85875 516.5675 823.405 517.375 822.9375 C523.98980679 818.8426196 529.10400877 813.29918234 534 807.3125 C534.52078125 806.70148437 535.0415625 806.09046875 535.578125 805.4609375 C537.36469861 802.76144441 538.11548386 800.17304841 539 797.0625 C540.00116942 793.57509318 540.96887025 790.37726838 542.54343796 787.10123158 C545.03096961 780.44549569 544.40553762 773.21077067 544.36749268 766.2084198 C544.3695188 764.55287309 544.37286026 762.89732756 544.37739825 761.24178582 C544.38604116 756.69533151 544.3759819 752.14908177 544.36285591 747.60264528 C544.35193965 742.68641205 544.35837718 737.77019737 544.36264038 732.85395813 C544.36829229 723.1735691 544.35789645 713.49325906 544.34235242 703.81288346 C544.32462999 692.35647897 544.32338832 680.90008897 544.32273683 669.44367293 C544.3210428 648.76606168 544.30521728 628.08848511 544.28125 607.41088867 C544.25852733 587.79076854 544.24396503 568.17067028 544.24023438 548.55053711 C544.23999765 547.36632447 544.23976093 546.18211182 544.23951703 544.96201394 C544.23856558 540.18774264 544.23763218 535.41347134 544.2367231 530.63920002 C544.22523032 472.85040632 544.14835399 415.06184093 544.01587296 357.27320004 C544.00519845 352.61641714 543.99478651 347.95963379 543.98461533 343.30284977 C543.92540167 316.23566369 543.85460055 289.16857873 543.74498153 262.10154444 C543.73646341 259.996385 543.72795096 257.89122554 543.71944427 255.78606606 C543.71526326 254.75358241 543.71108225 253.72109876 543.70677455 252.65732772 C543.67840666 245.48120467 543.65737263 238.30508371 543.63962555 231.12892723 C543.6182229 222.52815674 543.58652941 213.92750243 543.54105562 205.32682408 C543.51833102 200.98464996 543.50012693 196.64259134 543.49475765 192.30035806 C543.48970066 188.33945055 543.47081976 184.37885207 543.44115409 180.41805462 C543.43284927 178.99627447 543.42942799 177.57445475 543.43162647 176.15265205 C543.44886004 161.24090468 541.1746698 148.5161518 530.625 137.5 C526.95325396 133.99874963 523.54404657 131.54165492 519 129.3125 C518.05125 128.77625 517.1025 128.24 516.125 127.6875 C504.48589374 122.56629325 490.82762711 122.86955802 479 127.3125 C472.38175017 130.46725797 467.38942247 134.3510235 462.27403259 139.55744934 C461.55172111 140.27634313 460.82940962 140.99523692 460.08520991 141.73591536 C457.68515543 144.12942011 455.29961068 146.5368654 452.91381836 148.94458008 C451.18923446 150.67029308 449.46376768 152.39512416 447.73748779 154.11914062 C444.03206568 157.82365404 440.33280685 161.53420379 436.63914299 165.25043678 C431.29882486 170.62336406 425.94739964 175.98511624 420.59326274 181.344269 C411.90531623 190.04095422 403.22632648 198.7465208 394.55297852 207.45776367 C386.13125477 215.91624444 377.70530961 224.37048327 369.27368164 232.8190918 C368.75332193 233.34050241 368.23296221 233.86191301 367.69683402 234.39912394 C365.08612627 237.01505212 362.47533562 239.63089754 359.86450374 242.24670184 C338.23013528 263.92248797 316.6104579 285.61287374 295 307.3125 C290.65070735 305.34762632 287.97876436 302.26992542 284.82872009 298.77728271 C278.19179012 291.56829332 271.37105269 284.56030138 264.45533752 277.6206665 C263.92630297 277.08949476 263.39726842 276.55832302 262.85220252 276.01105517 C259.42573524 272.57183417 255.99545399 269.13643611 252.56419671 265.7019949 C249.42349496 262.55733198 246.28560233 259.40986772 243.14726257 256.2628479 C235.60614332 248.70215058 228.06034352 241.1461333 220.51389661 233.59075415 C217.66667591 230.74001437 214.81976835 227.88896198 211.97287621 225.03789409 C199.40596927 212.45255824 186.837726 199.86855869 174.26545811 187.28857803 C171.2030855 184.224296 168.14071841 181.16000847 165.07836914 178.09570312 C163.93687273 176.95348111 163.93687273 176.95348111 162.77231579 175.7881839 C150.40780711 163.41535045 138.0518573 151.03400608 125.69939447 138.64914778 C112.99146194 125.90816074 100.27602698 113.17470058 87.55315536 100.44863105 C80.41972998 93.31304173 73.28962519 86.17420228 66.16790962 79.02692413 C60.11393284 72.95126454 54.05320126 66.88244744 47.98350693 60.82248822 C44.888778 57.73230763 41.79737496 54.63898226 38.71462631 51.53684616 C35.8916073 48.69622614 33.05947348 45.86503463 30.21987437 43.04099151 C29.19582893 42.01932641 28.1751378 40.99428542 27.15822858 39.96551707 C17.77367124 30.26179277 17.77367124 30.26179277 5.125 26.78125 C3.86429687 26.77351563 3.86429687 26.77351563 2.578125 26.765625 C1.72734375 26.78109375 0.8765625 26.7965625 0 26.8125 C-1.27617188 26.78929688 -1.27617188 26.78929688 -2.578125 26.765625 C-8.93742594 26.80463912 -14.81815259 28.04691976 -19.41015625 32.75976562 Z " fill="#010101" transform="translate(330,35.6875)"/>
<path d="M0 0 C0.99 0.495 0.99 0.495 2 1 C-77.86 80.86 -157.72 160.72 -240 243 C-240 235.89416327 -231.98916838 229.75225596 -227.28135246 225.01386565 C-225.98197961 223.72118497 -225.98197961 223.72118497 -224.65635681 222.40238953 C-223.71386528 221.45758964 -222.77180954 220.51235486 -221.83014876 219.56672698 C-219.25826777 216.98654135 -216.68024075 214.4125764 -214.10109985 211.83965051 C-211.31425289 209.05734465 -208.53318694 206.26927025 -205.75135803 203.48194885 C-200.30837593 198.03008983 -194.86002066 192.5836316 -189.40969699 187.13911309 C-184.98067187 182.71460977 -180.55360883 178.28815209 -176.12793159 173.86030006 C-175.49740579 173.22946779 -174.86687998 172.59863551 -174.21724733 171.94868711 C-172.93628472 170.66708504 -171.6553266 169.38547849 -170.37437291 168.10386751 C-158.37366987 156.09746653 -146.36685308 144.09719461 -134.35792542 132.09902076 C-124.0537417 121.80377858 -113.75482206 111.50329485 -103.4597168 101.19897461 C-91.49900857 89.22756554 -79.53506556 77.25940462 -67.56593424 65.29641658 C-66.29003618 64.02115562 -65.0141423 62.74589047 -63.73825264 61.47062111 C-63.11050899 60.84318601 -62.48276533 60.2157509 -61.83599914 59.56930261 C-57.41212831 55.14715879 -52.99058282 50.72269813 -48.56992912 46.29733849 C-43.18508258 40.90688548 -37.79669266 35.520005 -32.40371531 30.13768616 C-29.65224684 27.39147653 -26.90240666 24.64368722 -24.1568718 21.89154434 C-21.18219882 18.90982015 -18.19985419 15.93589053 -15.21665955 12.96269226 C-14.34818026 12.08975153 -13.47970097 11.2168108 -12.58490413 10.31741732 C-11.78443489 9.52216358 -10.98396565 8.72690983 -10.15923977 7.90755749 C-9.47178092 7.22042335 -8.78432208 6.53328921 -8.07603115 5.82533282 C-5.85812432 3.87525701 -3.55791927 2.46448566 -1 1 C-0.67 0.67 -0.34 0.34 0 0 Z " fill="#C8C8C8" transform="translate(312,67)"/>
<path d="M0 0 C-1.74906531 0.64836042 -3.49929219 1.29358784 -5.25 1.9375 C-6.22453125 2.29714844 -7.1990625 2.65679688 -8.203125 3.02734375 C-13.02288802 4.70349039 -16.85638456 5.09891568 -22 5 C-22 4.67 -22 4.34 -22 4 C-21.31292969 3.87882813 -20.62585938 3.75765625 -19.91796875 3.6328125 C-19.01691406 3.46523438 -18.11585938 3.29765625 -17.1875 3.125 C-16.29417969 2.96257813 -15.40085937 2.80015625 -14.48046875 2.6328125 C-11.77272154 2.08811551 -11.77272154 2.08811551 -9 0 C-5.40545095 -0.82375082 -3.53372717 -1.17790906 0 0 Z " fill="#8C8C8C" transform="translate(840,864)"/>
</svg>
