<?xml version="1.0" encoding="UTF-8"?>
<svg version="1.1" xmlns="http://www.w3.org/2000/svg" width="1040" height="1040">
<path d="M0 0 C0.65764343 0.00425995 1.31528687 0.0085199 1.99285889 0.01290894 C12.24628134 0.10528913 20.86908813 0.86919424 30.125 5.5625 C31.18074219 6.08199219 32.23648438 6.60148437 33.32421875 7.13671875 C44.42612831 13.11252703 53.06391377 22.35049429 61.89151001 31.21548462 C62.82137612 32.14520187 63.75124223 33.07491912 64.70928609 34.03280962 C67.261651 36.58488205 69.81091424 39.14003232 72.35964251 41.69573593 C75.1198952 44.46241217 77.88309846 47.22613888 80.64595032 49.99021912 C85.42462632 54.77177084 90.20152571 59.55509136 94.97725296 64.33958817 C101.89021058 71.26514588 108.8064462 78.18742275 115.72356026 85.10882883 C126.95906954 96.35139265 138.19270821 107.59582347 149.42480469 118.84179688 C150.43147877 119.84971267 150.43147877 119.84971267 151.4584897 120.87799041 C156.22237604 125.64777743 160.98619536 130.41763138 165.75 135.1875 C171.1952654 140.63969548 176.64056236 146.09185944 182.0859375 151.54394531 C182.75683504 152.21567097 183.42773257 152.88739664 184.11896034 153.57947762 C195.31369689 164.7879098 206.51040463 175.99437085 217.70851457 187.19943273 C224.60692238 194.10231425 231.50354939 201.0069658 238.39786826 207.91393124 C243.12115107 212.64565335 247.84621214 217.37559473 252.57266356 222.10415174 C255.29697446 224.82980446 258.02045538 227.55627323 260.7417202 230.28496742 C263.69591481 233.24719667 266.65400503 236.20550563 269.61245728 239.16348267 C270.46557861 240.02019896 271.31869994 240.87691526 272.19767344 241.75959265 C276.39653734 245.9512476 280.67171428 249.9647089 285.16759455 253.83464968 C288.72636567 256.97606518 292.0628669 260.34159469 295.42269897 263.69284058 C296.21877143 264.48311964 297.01484388 265.27339871 297.83503973 266.08762562 C300.48401362 268.71865887 303.12948961 271.35317949 305.77490234 273.98779297 C307.19477751 275.3993351 308.61465596 276.81087395 310.03476976 278.222176 C316.76537829 284.91110792 323.48886741 291.60717642 330.2109375 298.3046875 C331.00815785 299.09894551 331.00815785 299.09894551 331.82148367 299.90924913 C342.39755283 310.44612499 352.97084224 320.98578691 363.53845787 331.53114128 C365.85632786 333.84404302 368.17423592 336.15690659 370.4921875 338.46972656 C371.06821026 339.04447866 371.64423303 339.61923075 372.23771103 340.21139957 C381.56032675 349.51267433 390.8966778 358.80003687 400.23861067 368.08190559 C409.85489977 377.6368802 419.45774202 387.20521067 429.04805148 396.78626168 C434.42281737 402.15514336 439.8032375 407.5180706 445.19901657 412.86584091 C449.79566294 417.42162263 454.37995924 421.98940495 458.94920109 426.57267825 C461.27491494 428.90480075 463.60752557 431.2291383 465.95240593 433.54200935 C485.62220868 452.95757106 500.11924425 474.65470515 500.50610352 503.17773438 C500.47710312 519.55715847 498.74356107 532.47392935 491.9375 547.375 C491.59984619 548.11556641 491.26219238 548.85613281 490.91430664 549.61914062 C483.48388788 564.81185788 470.96466413 576.14168454 459.14624023 587.89770508 C457.21555888 589.82751051 455.28714145 591.75957267 453.35861206 593.69152832 C448.68498733 598.37075356 444.00349459 603.04202798 439.31924158 607.71061084 C433.8557061 613.15651401 428.4003301 618.61056112 422.94527758 624.06495925 C413.20892131 633.79963179 403.46554385 643.52724571 393.71801758 653.25073242 C384.27441341 662.67106371 374.83537996 672.09594198 365.40161133 681.52612305 C364.82006094 682.10745067 364.23851054 682.6887783 363.63933741 683.28772191 C362.46766247 684.45895423 361.29598782 685.63018685 360.12431348 686.80141978 C359.54623909 687.3792746 358.9681647 687.95712943 358.3725729 688.552495 C357.79589317 689.12895875 357.21921343 689.7054225 356.62505856 690.29935484 C347.61102822 699.30967901 338.59317415 708.31617565 329.57479284 717.32214466 C326.31457612 720.57793795 323.05484973 723.83422123 319.79546648 727.0908489 C314.62652858 732.25534256 309.45591186 737.41814337 304.28194337 742.5775976 C301.92024013 744.93272481 299.55955417 747.28884647 297.20047569 749.64660454 C294.63773859 752.20758589 292.07194718 754.76546822 289.50535583 757.32258606 C288.39974333 758.42949829 288.39974333 758.42949829 287.27179521 759.55877239 C283.99888941 762.81363113 280.69637366 765.97631045 277.19687271 768.98726273 C272.43379294 773.10016012 268.02627939 777.54183504 263.59468079 782.00621033 C262.6659678 782.93759671 261.73725482 783.8689831 260.78039902 784.82859331 C258.75367156 786.86119569 256.72856559 788.89539488 254.70471954 790.93086624 C251.41043504 794.24405428 248.11258868 797.5536828 244.8143158 800.86289978 C240.64487317 805.04670187 236.4763861 809.23145219 232.30902418 813.41732682 C224.11697702 821.6457438 215.91865212 829.86788035 207.71806335 838.08778381 C206.42461753 839.38433994 205.1311754 840.68089975 203.8377369 841.97746319 C201.87787281 843.94205283 199.91800503 845.9066388 197.95812247 847.87121002 C190.57919646 855.26783882 183.20096435 862.66515938 175.82348633 870.06323242 C175.14956021 870.7390356 174.47563409 871.41483877 173.78128596 872.11112083 C162.86292068 883.06037001 151.95196431 894.01697672 141.04326925 904.97585922 C129.82551113 916.24478543 118.59814329 927.50407479 107.36230153 938.75497061 C100.4421588 945.6850546 93.52977785 952.62269832 86.62732562 959.57040323 C81.89264912 964.33474666 77.14877196 969.08980052 72.39769993 973.83779376 C69.66156407 976.57271688 66.9295763 979.31145811 64.20859909 982.06147003 C61.7104852 984.58606766 59.20074985 987.09851183 56.68184581 989.60236139 C55.35725141 990.92489624 54.04489258 992.25965225 52.73323041 993.59501404 C44.82001652 1001.41757393 35.60955692 1007.7531947 25.0625 1011.5 C24.01964844 1011.88027344 22.97679687 1012.26054688 21.90234375 1012.65234375 C7.95542685 1017.22285238 -13.33131664 1016.75582645 -26.83203125 1011.10546875 C-28.33830078 1010.34169922 -28.33830078 1010.34169922 -29.875 1009.5625 C-30.93074219 1009.04300781 -31.98648437 1008.52351562 -33.07421875 1007.98828125 C-40.23164009 1004.13566675 -46.13773584 999.28944534 -51.875 993.5625 C-52.42671875 993.02238281 -52.9784375 992.48226562 -53.546875 991.92578125 C-68.47187431 975.99775779 -70.47306703 957.52215105 -70.32910156 936.78979492 C-70.32797168 934.50219238 -70.3286097 932.21458839 -70.33087158 929.92698669 C-70.33201413 923.75013875 -70.30857905 917.57360469 -70.28057575 911.39682937 C-70.25548551 904.92930829 -70.25321409 898.46177916 -70.24847412 891.99421692 C-70.23747433 881.14964758 -70.21252928 870.30520627 -70.17675781 859.46069336 C-70.13997196 848.29696214 -70.11169251 837.13326211 -70.09472656 825.96948242 C-70.09315022 824.93513107 -70.09315022 824.93513107 -70.09154204 823.87988373 C-70.08632142 820.42009764 -70.0812667 816.96031133 -70.07629442 813.50052488 C-70.03491119 784.8544394 -69.96423223 756.20847419 -69.875 727.5625 C-70.65834351 727.56575513 -71.44168702 727.56901026 -72.24876821 727.57236403 C-118.6778378 727.76491168 -165.1069445 727.94165455 -211.53615125 728.09787826 C-217.11117805 728.11665062 -222.68620439 728.13555501 -228.26123047 728.15454102 C-229.37111606 728.15831856 -230.48100165 728.16209611 -231.62452014 728.16598812 C-249.59474631 728.22746545 -267.56491441 728.29963774 -285.53508382 728.3757638 C-303.97464246 728.45364019 -322.41421666 728.5200203 -340.85385573 728.57573253 C-352.23174606 728.61047111 -363.60952944 728.65417228 -374.98733933 728.70934484 C-382.78992374 728.74632157 -390.59249535 728.77212959 -398.39514856 728.78917392 C-402.89660723 728.79933627 -407.39790793 728.81440448 -411.89929199 728.84274101 C-416.02383282 728.86859642 -420.14816985 728.88036412 -424.27278943 728.88112888 C-425.76153651 728.88385571 -427.25028521 728.89166504 -428.7389733 728.90519472 C-444.41836103 729.04182399 -457.93577436 725.30584937 -469.70581055 714.39379883 C-481.86840747 702.43118769 -487.81719842 688.42017883 -488.00642776 671.43036556 C-488.0145246 668.92265875 -488.01712242 666.41493063 -488.01544189 663.9072113 C-488.01802812 662.50871466 -488.02104199 661.11021876 -488.0244453 659.71172386 C-488.03248845 655.87802907 -488.03430337 652.04435303 -488.03504276 648.2106508 C-488.03689802 644.07208468 -488.04444775 639.93352818 -488.05117798 635.79496765 C-488.06474302 626.74927743 -488.07078325 617.70359164 -488.07518864 608.65789294 C-488.07795431 603.00579977 -488.08219227 597.35370831 -488.08669281 591.70161629 C-488.09888339 576.04156699 -488.10918292 560.38151905 -488.1125679 544.72146511 C-488.11278747 543.719745 -488.11300703 542.71802489 -488.11323325 541.68594963 C-488.11345153 540.68188044 -488.11366981 539.67781126 -488.1138947 538.64331573 C-488.11433816 536.60880879 -488.11478472 534.57430186 -488.11523438 532.53979492 C-488.1154558 531.53061676 -488.11567723 530.52143859 -488.11590537 529.48167927 C-488.11985148 513.13771618 -488.13730073 496.79379772 -488.1605939 480.44985186 C-488.1843353 463.65531658 -488.19677103 446.86080367 -488.19793582 430.06625134 C-488.19885104 420.64260206 -488.20456479 411.21901094 -488.22275543 401.79537773 C-488.23819413 393.76929642 -488.24325472 385.74329124 -488.23501733 377.71719789 C-488.23112406 373.62634417 -488.23197528 369.5356436 -488.24607468 365.44480896 C-488.25889353 361.6909922 -488.25754692 357.9374424 -488.24548396 354.18362559 C-488.24262857 352.20102715 -488.25440194 350.21842374 -488.26690602 348.23586267 C-488.17338582 331.09369698 -484.21568558 316.35366637 -472.15234375 303.80859375 C-471.40082031 303.06738281 -470.64929688 302.32617188 -469.875 301.5625 C-469.23691406 300.91410156 -468.59882813 300.26570313 -467.94140625 299.59765625 C-456.00883577 288.2604739 -442.54790408 286.25052659 -426.79040527 286.35995483 C-425.24907668 286.36321598 -423.70774599 286.36558809 -422.16641474 286.3671509 C-417.94304061 286.37399372 -413.71980432 286.39340949 -409.49648285 286.41491175 C-404.93763678 286.43590794 -400.37876497 286.44519654 -395.81988525 286.45591736 C-387.92531704 286.47608007 -380.03080252 286.50363681 -372.13627625 286.53623581 C-360.72216335 286.58335757 -349.30803671 286.61929675 -337.8938759 286.65251906 C-319.37453257 286.70672501 -300.85523152 286.76995693 -282.3359375 286.83886719 C-264.34766991 286.90578216 -246.35939578 286.96844489 -228.37109375 287.02539062 C-227.26203318 287.02890307 -226.15297262 287.03241551 -225.01030415 287.03603439 C-219.44639494 287.0536293 -213.88248547 287.07114063 -208.31857586 287.08861041 C-162.17066993 287.23361548 -116.02282302 287.39326977 -69.875 287.5625 C-69.87960896 286.380661 -69.88421793 285.198822 -69.88896656 283.9811697 C-69.99744801 255.87489562 -70.07979845 227.76863199 -70.13032665 199.66219324 C-70.13657957 196.19658874 -70.14305124 192.73098469 -70.1496582 189.26538086 C-70.15096976 188.57549289 -70.15228131 187.88560492 -70.1536326 187.17481125 C-70.17534055 176.03011761 -70.21473634 164.885554 -70.26076398 153.74093729 C-70.30765758 142.29044709 -70.33494869 130.84006202 -70.34544247 119.38947302 C-70.35194388 112.96415411 -70.36715547 106.53912933 -70.40365028 100.11390495 C-70.43777061 94.05724457 -70.44802053 88.00099748 -70.44053841 81.94425011 C-70.44190579 79.7300364 -70.45174177 77.51580784 -70.47102737 75.3016777 C-70.64886627 53.81751628 -66.33979928 36.82551332 -51.04296875 20.734375 C-50.32753906 20.01765625 -49.61210937 19.3009375 -48.875 18.5625 C-48.33488281 18.01078125 -47.79476563 17.4590625 -47.23828125 16.890625 C-34.18990781 4.66393754 -17.52029281 -0.2046084 0 0 Z " fill="#FEFEFE" transform="translate(514.875,9.4375)"/>
<path d="M0 0 C4.22026361 1.6453059 7.03922308 4.76984227 10.159729 7.9259491 C10.77411858 8.53933539 11.38850816 9.15272169 12.02151561 9.78469545 C14.08195134 11.84417753 16.1351493 13.91072734 18.18847656 15.97729492 C19.66331524 17.45433459 21.13860197 18.93092698 22.61430359 20.40710449 C25.79345713 23.58919374 28.96942497 26.77441741 32.14298248 29.96208763 C37.16439347 35.00575541 42.19287409 40.04233448 47.22235107 45.07795715 C55.18153413 53.04852932 63.13603378 61.02375674 71.08851314 69.00101691 C85.31557673 83.27234577 99.54813299 97.53819141 113.78599715 111.79874498 C118.78073273 116.80187144 123.77264476 121.80779316 128.76228285 126.8160032 C131.87387983 129.93827851 134.9875352 133.05849518 138.10169411 136.17821503 C139.5408642 137.62084227 140.97916248 139.06433986 142.416502 140.50879097 C151.41367432 149.5756475 151.41367432 149.5756475 160.89655685 158.12393856 C166.38289981 163.01720915 171.47905692 168.35048747 176.66796875 173.55444336 C178.0383745 174.92513155 179.40900122 176.29559885 180.77983093 177.66586304 C184.48189429 181.36764066 188.18087637 185.0724832 191.87929535 188.77790141 C195.75187906 192.65675602 199.62731373 196.53276008 203.50244141 200.40907288 C210.8317475 207.74148129 218.15850174 215.07643407 225.48433304 222.412314 C233.82820583 230.76738211 242.17493403 239.11959518 250.52189827 247.47157466 C267.68443511 264.644551 284.84339932 281.82109331 302 299 C300.37640593 303.08650639 297.44948558 305.82667265 294.38449097 308.86274719 C293.80447866 309.44517392 293.22446635 310.02760064 292.6268779 310.62767667 C290.68029882 312.57989548 288.72664752 314.52487843 286.77294922 316.4699707 C285.37636272 317.86763006 283.98020928 319.26572225 282.5844574 320.66421509 C278.78914735 324.4643779 274.98760663 328.25825141 271.18480444 332.050915 C267.20407627 336.02286142 263.22861928 340.00007719 259.25247192 343.97660828 C252.56918028 350.6589628 245.88202477 357.33743078 239.19238281 364.01342773 C231.46840024 371.72171323 223.74962764 379.43518381 216.03385723 387.15168887 C207.81274635 395.3734767 199.58782524 403.59144475 191.36179209 411.80830741 C188.99657993 414.17139277 186.63207504 416.53518387 184.2677269 418.89913368 C180.54206366 422.6237881 176.81384487 426.34586628 173.08368111 430.06601334 C171.71873359 431.42805364 170.3546151 432.79092535 168.99141121 434.15471077 C157.40235775 445.74683538 157.40235775 445.74683538 153.02294922 449.4730835 C146.52801201 455.01115628 140.64494164 461.24274767 134.62939453 467.28881836 C133.18343384 468.73833952 131.737235 470.18762315 130.29081726 471.63668823 C127.18965083 474.74437954 124.09000016 477.85357193 120.99148941 480.96391106 C116.09556682 485.87817798 111.1952537 490.78805089 106.29415894 495.69715881 C92.36291908 509.65251604 78.43765914 523.61383151 64.51660156 537.5793457 C56.8182822 545.30217192 49.11640571 553.02143275 41.41065872 560.73684794 C36.53319516 565.62086847 31.66028017 570.50936925 26.79063725 575.40118682 C23.77054367 578.43296589 20.74632039 581.46059839 17.72088051 584.48704147 C16.3138013 585.89627741 14.90845542 587.30724635 13.5049305 588.7200222 C11.59695426 590.64009205 9.6830055 592.55399725 7.7673645 594.46641541 C7.20667774 595.03360997 6.64599098 595.60080453 6.06831372 596.1851868 C2.22821532 600 2.22821532 600 0 600 C-0.00238835 598.96171145 -0.00477671 597.92342291 -0.00723743 596.85367107 C-0.06597187 571.61666286 -0.14181696 546.37975058 -0.23571491 521.14284801 C-0.28072465 508.93858388 -0.3201273 496.73434926 -0.34643555 484.5300293 C-0.36937376 473.89560476 -0.40272477 463.26127325 -0.44870156 452.62692243 C-0.47269025 446.99352299 -0.49138196 441.36021599 -0.49761391 435.72676659 C-0.50363929 430.42854122 -0.52354638 425.13055256 -0.55427551 419.83241463 C-0.56309675 417.88410965 -0.56676993 415.93577379 -0.56500816 413.98744965 C-0.56336613 411.33451108 -0.57996235 408.6823034 -0.60127258 406.02946472 C-0.59642501 405.25223169 -0.59157743 404.47499866 -0.58658296 403.67421311 C-0.59581339 399.79251787 -0.59581339 399.79251787 -2.09590054 396.30380678 C-4.97918061 394.3295191 -7.3811561 394.62046856 -10.85035229 394.61523914 C-11.5544889 394.61008924 -12.25862551 394.60493933 -12.9840996 394.59963337 C-15.3614975 394.58593527 -17.73834978 394.59372104 -20.11576843 394.60127258 C-21.83015428 394.59583736 -23.54453639 394.58908759 -25.25891238 394.58113068 C-29.98383079 394.56303016 -34.70859265 394.5636716 -39.4335376 394.56726015 C-44.52353807 394.56788193 -49.61348505 394.55128341 -54.70346069 394.53674316 C-63.52681049 394.51391045 -72.35012068 394.50206402 -81.17349815 394.49761391 C-93.93071598 394.49116397 -106.68786207 394.46824701 -119.44505105 394.44127061 C-140.14117305 394.39795553 -160.83729204 394.36801577 -181.53344727 394.34643555 C-201.64153528 394.32543998 -221.7495985 394.29814303 -241.85766602 394.26245117 C-243.73485566 394.25913091 -243.73485566 394.25913091 -245.64996833 394.25574356 C-255.43675363 394.23838394 -265.22353826 394.22065804 -275.01032269 394.20281637 C-323.00686642 394.11541075 -371.00339898 394.05996215 -419 394 C-419 331.96 -419 269.92 -419 206 C-374.11548828 205.94392578 -374.11548828 205.94392578 -328.32421875 205.88671875 C-309.42512574 205.85646118 -290.52603827 205.82546936 -271.62695312 205.79101562 C-261.70385782 205.77296437 -251.78076221 205.75510024 -241.85766602 205.73754883 C-239.99201586 205.7342373 -239.99201586 205.7342373 -238.0886758 205.73085886 C-217.98652843 205.69545054 -197.8843811 205.67061384 -177.78221407 205.64965298 C-157.1650983 205.62792096 -136.54802313 205.5948954 -115.93094188 205.55129844 C-103.20033364 205.52473684 -90.46977604 205.50707471 -77.73914144 205.50065396 C-69.01940856 205.49541383 -60.2997395 205.47924341 -51.58004078 205.45433434 C-46.54280015 205.44027201 -41.50567389 205.43116609 -36.4684124 205.43499184 C-31.86245446 205.43838411 -27.25674142 205.42814181 -22.6508337 205.40676448 C-20.97919817 205.4014648 -19.3075374 205.40129465 -17.63590189 205.40660437 C-15.37375498 205.4130612 -13.1124303 205.40130522 -10.85035229 205.38476086 C-9.59081995 205.38286225 -8.33128762 205.38096365 -7.03358763 205.37900752 C-4.03876403 205.240191 -4.03876403 205.240191 -2.09590054 203.69619322 C-0.18993047 200.74620516 -0.5800627 197.37120869 -0.60127258 193.97053528 C-0.59462576 193.14309443 -0.58797893 192.31565358 -0.58113068 191.46313876 C-0.56242598 188.68078708 -0.56511097 185.8988626 -0.56762695 183.11645508 C-0.55861435 181.12588388 -0.54828838 179.13531825 -0.53674316 177.14476013 C-0.50908813 171.73187275 -0.49987712 166.31909042 -0.49388909 160.90614152 C-0.48452751 155.25262655 -0.45832599 149.59919075 -0.43388367 143.94572449 C-0.39015386 133.23605152 -0.36164673 122.52639386 -0.33856028 111.81665868 C-0.31154331 99.62572366 -0.26762968 87.43486802 -0.22227156 75.24398959 C-0.12933247 50.16270272 -0.0576942 25.08139095 0 0 Z " fill="#FEFEFE" transform="translate(571,217)"/>
<path d="M0 0 C1.83866882 1.32304382 1.83866882 1.32304382 3.7409668 3.0534668 C4.44063568 3.68940765 5.14030457 4.32534851 5.86117554 4.9805603 C9.27179431 8.20080537 12.59833011 11.49507368 15.89453125 14.83203125 C16.60856613 15.54985275 17.32260101 16.26767426 18.05827332 17.00724792 C20.31215402 19.27322594 22.56272727 21.54244382 24.8125 23.8125 C27.79530357 26.82188207 30.7813968 29.82794345 33.76953125 32.83203125 C34.45078568 33.52158401 35.1320401 34.21113678 35.8339386 34.92158508 C36.46857529 35.55952499 37.10321198 36.1974649 37.75708008 36.85473633 C38.31253006 37.41542313 38.86798004 37.97610992 39.44026184 38.55378723 C41.14568411 40.21193392 41.14568411 40.21193392 44 42 C44 42.66 44 43.32 44 44 C44.57941345 44.25376907 45.1588269 44.50753815 45.75579834 44.76899719 C48.25561119 46.14020937 49.90381721 47.66999256 51.90722656 49.69604492 C52.66191223 50.45410934 53.4165979 51.21217377 54.19415283 51.99320984 C55.00148865 52.81400528 55.80882446 53.63480072 56.640625 54.48046875 C57.48163757 55.32668289 58.32265015 56.17289703 59.18914795 57.04475403 C61.88088337 59.75430529 64.56586526 62.47042077 67.25 65.1875 C69.92066362 67.88589762 72.59280522 70.58278724 75.26800537 73.27668762 C76.93152597 74.95233414 78.5923676 76.63064603 80.25006104 78.3120575 C84.36587957 82.4629083 88.56503539 86.41107537 92.99578857 90.22187805 C96.76356895 93.56462567 100.27147141 97.1705509 103.8125 100.75 C105.03223511 101.97541504 105.03223511 101.97541504 106.27661133 103.22558594 C109.7217734 106.68695042 113.1609029 110.15428591 116.60058594 113.62109375 C119.12746508 116.16615188 121.65741315 118.70813131 124.1875 121.25 C125.33472534 122.40967285 125.33472534 122.40967285 126.50512695 123.59277344 C129.91187822 127.01484855 133.3404702 130.34820011 137 133.5 C141.49161733 137.36844205 145.64532361 141.53760933 149.8125 145.75 C151.03223511 146.97541504 151.03223511 146.97541504 152.27661133 148.22558594 C155.7217734 151.68695042 159.1609029 155.15428591 162.60058594 158.62109375 C165.12746508 161.16615188 167.65741315 163.70813131 170.1875 166.25 C170.95231689 167.02311523 171.71713379 167.79623047 172.50512695 168.59277344 C175.91187822 172.01484855 179.3404702 175.34820011 183 178.5 C187.49161733 182.36844205 191.64532361 186.53760933 195.8125 190.75 C197.03223511 191.97541504 197.03223511 191.97541504 198.27661133 193.22558594 C201.7217734 196.68695042 205.1609029 200.15428591 208.60058594 203.62109375 C211.12746508 206.16615188 213.65741315 208.70813131 216.1875 211.25 C216.95231689 212.02311523 217.71713379 212.79623047 218.50512695 213.59277344 C221.91187822 217.01484855 225.3404702 220.34820011 229 223.5 C233.49161733 227.36844205 237.64532361 231.53760933 241.8125 235.75 C243.03223511 236.97541504 243.03223511 236.97541504 244.27661133 238.22558594 C247.7217734 241.68695042 251.1609029 245.15428591 254.60058594 248.62109375 C257.12746508 251.16615188 259.65741315 253.70813131 262.1875 256.25 C262.95231689 257.02311523 263.71713379 257.79623047 264.50512695 258.59277344 C267.90737822 262.0103283 271.33087435 265.33957305 274.98632812 268.48632812 C279.56055019 272.42599231 283.78680615 276.67953399 288.03125 280.96875 C289.28427917 282.22745911 289.28427917 282.22745911 290.56262207 283.51159668 C294.10336129 287.0685452 297.63807324 290.6314612 301.17333984 294.19384766 C303.7697206 296.80840164 306.36916566 299.41988184 308.96875 302.03125 C309.75544067 302.82623901 310.54213135 303.62122803 311.35266113 304.44030762 C315.43966757 308.54520985 319.6129317 312.45312652 324.00210571 316.23141479 C327.69085024 319.49678225 331.14347539 323.00118882 334.62109375 326.48828125 C335.40646011 327.27269089 336.19182648 328.05710052 337.00099182 328.86528015 C338.64503717 330.50864976 340.28783953 332.15326375 341.92944336 333.79907227 C344.4511722 336.32620148 346.97825164 338.84789288 349.50585938 341.36914062 C351.10709195 342.97103324 352.70801471 344.57323563 354.30859375 346.17578125 C355.06579208 346.93095535 355.82299042 347.68612946 356.60313416 348.46418762 C357.29798416 349.16218979 357.99283417 349.86019196 358.70874023 350.5793457 C359.62851906 351.50031792 359.62851906 351.50031792 360.56687927 352.43989563 C363.17678538 355.28105607 363.52302326 357.97304902 363.46961975 361.80482483 C362.88542776 364.53555271 361.87430525 365.70480075 359.98608398 367.74780273 C359.34814911 368.44211395 358.71021423 369.13642517 358.052948 369.85177612 C354.64965632 373.41301218 351.21071046 376.93182433 347.72265625 380.41015625 C346.95247665 381.18129257 346.18229706 381.95242889 345.38877869 382.74693298 C343.77058627 384.36580153 342.15114788 385.98342551 340.53051758 387.59985352 C338.06932768 390.05568718 335.61352191 392.51681365 333.15820312 394.97851562 C331.57584133 396.56021653 329.99316933 398.14160717 328.41015625 399.72265625 C327.68594986 400.44888687 326.96174347 401.17511749 326.21559143 401.9233551 C322.90088802 405.22307967 319.55556505 408.42982546 316.01098633 411.48242188 C311.59190622 415.2957621 307.5078293 419.40155574 303.4140625 423.55859375 C301.80872239 425.17655994 300.20324992 426.7943948 298.59765625 428.41210938 C296.09397168 430.94076651 293.59192772 433.47100903 291.09228516 436.00366211 C288.66218215 438.46378098 286.22605003 440.91779733 283.7890625 443.37109375 C282.66100693 444.51933876 282.66100693 444.51933876 281.51016235 445.69078064 C280.81538788 446.38893387 280.1206134 447.0870871 279.40478516 447.80639648 C278.79381989 448.42481918 278.18285461 449.04324188 277.55337524 449.68040466 C276 451 276 451 274 451 C273.67 451.99 273.34 452.98 273 454 C271.4621582 455.51660156 271.4621582 455.51660156 269.48828125 457.140625 C264.80832976 461.11426686 260.50318532 465.38748906 256.1875 469.75 C255.37434326 470.56694336 254.56118652 471.38388672 253.72338867 472.22558594 C251.14646703 474.81462671 248.57282375 477.40688737 246 480 C242.60712847 483.41962719 239.21085343 486.83582149 235.8125 490.25 C235.04768311 491.02311523 234.28286621 491.79623047 233.49487305 492.59277344 C229.45700913 496.64879999 225.32572503 500.49880161 220.9899292 504.23269653 C217.37837836 507.44020076 214.01992314 510.89878885 210.6328125 514.33984375 C209.07304506 515.91223675 207.51314552 517.48449871 205.953125 519.05664062 C203.52186969 521.5128712 201.09225729 523.9706879 198.66503906 526.4309082 C196.30443461 528.82152835 193.93780197 531.20604474 191.5703125 533.58984375 C190.84014923 534.33346664 190.10998596 535.07708954 189.35769653 535.84324646 C188.68294281 536.52137894 188.00818909 537.19951141 187.31298828 537.89819336 C186.7197879 538.49885117 186.12658752 539.09950897 185.51541138 539.71836853 C184 541 184 541 182 541 C181.67 541.99 181.34 542.98 181 544 C179.44677734 545.53198242 179.44677734 545.53198242 177.4609375 547.16796875 C172.94715482 551.00036894 168.78603346 555.10357978 164.625 559.3125 C163.85623535 560.08505127 163.0874707 560.85760254 162.29541016 561.65356445 C159.86114235 564.09994182 157.43015894 566.5495414 155 569 C151.79463822 572.23213688 148.58585927 575.46082535 145.375 578.6875 C144.65393066 579.41686768 143.93286133 580.14623535 143.18994141 580.89770508 C139.88942381 584.21392484 136.5591556 587.43092409 133.01318359 590.48461914 C128.59183767 594.29594462 124.50809554 598.40128539 120.4140625 602.55859375 C118.80872239 604.17655994 117.20324992 605.7943948 115.59765625 607.41210938 C113.09397168 609.94076651 110.59192772 612.47100903 108.09228516 615.00366211 C105.66218215 617.46378098 103.22605003 619.91779733 100.7890625 622.37109375 C100.03702545 623.13659042 99.2849884 623.9020871 98.51016235 624.69078064 C97.81538788 625.38893387 97.1206134 626.0870871 96.40478516 626.80639648 C95.79381989 627.42481918 95.18285461 628.04324188 94.55337524 628.68040466 C93 630 93 630 91 630 C90.74428223 630.59337158 90.48856445 631.18674316 90.22509766 631.7980957 C88.87726498 634.22059528 87.53308842 635.47866573 85.3984375 637.23046875 C80.90272231 641.03897309 76.76547903 645.12437077 72.625 649.3125 C71.47185303 650.4713269 71.47185303 650.4713269 70.29541016 651.65356445 C67.86114235 654.09994182 65.43015894 656.5495414 63 659 C59.79463822 662.23213688 56.58585927 665.46082535 53.375 668.6875 C52.65393066 669.41686768 51.93286133 670.14623535 51.18994141 670.89770508 C47.25930723 674.84703918 43.22474314 678.58227927 39.00531006 682.21954346 C35.39453548 685.42544531 32.0262722 688.87200861 28.6328125 692.3046875 C27.87201385 693.06927277 27.11121521 693.83385803 26.32736206 694.62161255 C23.92410987 697.03697383 21.52415959 699.45557398 19.125 701.875 C15.94295221 705.08357538 12.75764885 708.28886664 9.5703125 711.4921875 C8.4750676 712.59987991 8.4750676 712.59987991 7.35769653 713.72994995 C6.68294281 714.4080069 6.00818909 715.08606384 5.31298828 715.78466797 C4.42318771 716.68232376 4.42318771 716.68232376 3.51541138 717.59811401 C1.12844541 719.80626303 -0.04491896 720.00415916 -3.375 720.3125 C-7 720 -7 720 -9.19649887 718.54202652 C-11.86290366 714.78374127 -11.54205549 711.51990094 -11.48101807 707.01507568 C-11.48443577 706.09694226 -11.48785347 705.17880883 -11.49137473 704.23285317 C-11.49797521 701.14938625 -11.47594147 698.06678546 -11.45410156 694.98339844 C-11.45297356 692.77594015 -11.45360603 690.56848036 -11.45587158 688.36102295 C-11.45702147 682.36132028 -11.43346736 676.36193606 -11.40557575 670.36230755 C-11.38060807 664.0949279 -11.37822375 657.82754134 -11.37347412 651.56011963 C-11.36244542 641.03839975 -11.3374432 630.51677858 -11.30175781 619.99511719 C-11.26504035 609.15788356 -11.23672732 598.32068171 -11.21972656 587.48339844 C-11.21867567 586.81536232 -11.21762477 586.14732621 -11.21654204 585.45904657 C-11.21132188 582.10769735 -11.20626705 578.7563479 -11.20129442 575.4049983 C-11.15945923 547.60325066 -11.0890806 519.80163355 -11 492 C-12.34347838 492.00227832 -12.34347838 492.00227832 -13.71409774 492.00460267 C-66.75638815 492.09404679 -119.7986706 492.16271171 -172.84102128 492.20426132 C-179.20488671 492.20926436 -185.56875199 492.21444162 -191.93261719 492.21972656 C-193.19958861 492.2207758 -194.46656003 492.22182505 -195.77192453 492.22290608 C-216.306934 492.24032798 -236.84189884 492.27187548 -257.37688181 492.30861118 C-278.43580943 492.34597097 -299.49471362 492.36822533 -320.55367303 492.37635398 C-333.55610402 492.38185206 -346.55840888 492.39923901 -359.56080106 492.43166587 C-368.46787682 492.45275253 -377.37488704 492.45921335 -386.28198597 492.45400551 C-391.42674508 492.4514346 -396.57128324 492.45547222 -401.71600342 492.4768219 C-406.42133937 492.49620641 -411.12630462 492.49732302 -415.8316572 492.48359558 C-417.53831939 492.48189757 -419.24500419 492.48704026 -420.9516215 492.49953273 C-423.26355502 492.51547881 -425.57413289 492.50700124 -427.88604355 492.49219131 C-429.17253603 492.4937102 -430.45902851 492.49522908 -431.78450561 492.49679399 C-435 492 -435 492 -437.41316199 490.2491796 C-439.19386112 487.7252218 -439.50080391 486.57277747 -439.50336456 483.52093506 C-439.51379555 482.62368839 -439.52422654 481.72644173 -439.53497362 480.80200577 C-439.52605073 479.82030285 -439.51712785 478.83859993 -439.50793457 477.82714844 C-439.51417453 476.7811636 -439.5204145 475.73517876 -439.52684355 474.65749741 C-439.54283952 471.1412295 -439.530143 467.62564845 -439.51757812 464.109375 C-439.52299628 461.59313552 -439.53011721 459.07689921 -439.53881836 456.56066895 C-439.55519187 450.42895397 -439.55275743 444.29749471 -439.5411678 438.16577625 C-439.53213927 433.1830516 -439.53090694 428.20038185 -439.53526306 423.21765137 C-439.53587599 422.50885574 -439.53648893 421.80006011 -439.53712043 421.06978583 C-439.53839932 419.62994288 -439.53969617 418.19009994 -439.5410108 416.75025702 C-439.55242074 403.24446615 -439.53929643 389.73878383 -439.51780933 376.23301077 C-439.49993794 364.64096323 -439.50304193 353.0490759 -439.52148438 341.45703125 C-439.54288382 328.00003038 -439.55132207 314.54312467 -439.53903532 301.08610916 C-439.53776111 299.65152233 -439.53650362 298.21693549 -439.53526306 296.78234863 C-439.53464596 296.0764792 -439.53402886 295.37060977 -439.53339306 294.64335036 C-439.52993736 289.66581551 -439.5357732 284.68834095 -439.54518127 279.71081543 C-439.55756226 273.01309789 -439.54876498 266.31573023 -439.52560425 259.61802673 C-439.52030223 257.15572108 -439.52185626 254.69339001 -439.53065491 252.23109436 C-439.54153457 248.87799868 -439.52793754 245.52588419 -439.50793457 242.17285156 C-439.51685746 241.19114864 -439.52578034 240.20944572 -439.53497362 239.19799423 C-439.52454263 238.30074757 -439.51411164 237.4035009 -439.50336456 236.47906494 C-439.50271515 235.70508488 -439.50206574 234.93110481 -439.50139666 234.13367081 C-438.76652378 231.00645252 -437.58886273 229.87829648 -435 228 C-431.78450561 227.50320601 -431.78450561 227.50320601 -427.88604355 227.50780869 C-427.16555773 227.50319331 -426.44507191 227.49857793 -425.70275319 227.49382269 C-423.2755683 227.48318979 -420.84943348 227.50121529 -418.42230225 227.51898193 C-416.66993214 227.51723845 -414.91756304 227.51373763 -413.16519952 227.50862527 C-408.33983682 227.49965773 -403.51482752 227.5157133 -398.68950987 227.53573751 C-393.48980418 227.55297256 -388.29011927 227.54716861 -383.09039307 227.54412842 C-374.07821664 227.54202855 -365.06615583 227.55460425 -356.05400848 227.57707977 C-343.02389172 227.60955466 -329.993831 227.62000217 -316.96367815 227.62503174 C-295.82438653 227.63379148 -274.68515657 227.66042547 -253.54589844 227.69824219 C-233.00814116 227.73494471 -212.47040062 227.76326508 -191.93261719 227.78027344 C-190.03446434 227.78184978 -190.03446434 227.78184978 -188.09796497 227.78345796 C-181.7498014 227.78867802 -175.40163772 227.79373288 -169.05347395 227.79870558 C-116.36894001 227.84018875 -63.68447301 227.91065566 -11 228 C-11.00368717 226.84925114 -11.00737434 225.69850227 -11.01117325 224.51288223 C-11.0977721 197.20709713 -11.16374572 169.90132695 -11.20426132 142.59543277 C-11.20926425 139.23582213 -11.21444153 135.87621177 -11.21972656 132.51660156 C-11.2207758 131.8477531 -11.22182505 131.17890463 -11.22290608 130.48978803 C-11.24031958 119.65454693 -11.27186243 108.81939058 -11.30861118 97.98419979 C-11.3459944 86.86938737 -11.36793081 75.75460956 -11.37635398 64.63973594 C-11.38157769 58.39534167 -11.39389101 52.1511397 -11.42292023 45.90680695 C-11.45000534 40.03325078 -11.45845892 34.15996674 -11.45243073 28.28635406 C-11.45353405 26.12719241 -11.46152875 23.96802196 -11.4768219 21.80891418 C-11.49664151 18.86724656 -11.49196834 15.9266145 -11.48101807 12.98492432 C-11.49266943 12.12500326 -11.5043208 11.26508221 -11.51632524 10.37910295 C-11.47782298 6.56839682 -11.45753179 4.63074617 -9.17306137 1.48141098 C-5.81753741 -0.80610382 -3.9849989 -0.73058313 0 0 Z M16 60 C15.99641747 61.55743282 15.99641747 61.55743282 15.99276257 63.14632893 C15.93402813 88.38333714 15.85818304 113.62024942 15.76428509 138.85715199 C15.71927535 151.06141612 15.6798727 163.26565074 15.65356445 175.4699707 C15.63062624 186.10439524 15.59727523 196.73872675 15.55129844 207.37307757 C15.52730975 213.00647701 15.50861804 218.63978401 15.50238609 224.27323341 C15.49636071 229.57145878 15.47645362 234.86944744 15.44572449 240.16758537 C15.43690325 242.11589035 15.43323007 244.06422621 15.43499184 246.01255035 C15.43663387 248.66548892 15.42003765 251.3176966 15.39872742 253.97053528 C15.40599878 255.13638483 15.40599878 255.13638483 15.41341704 256.32578689 C15.34491538 261.46615308 15.34491538 261.46615308 13.90409946 263.69619322 C11.02081939 265.6704809 8.6188439 265.37953144 5.14964771 265.38476086 C4.4455111 265.38991076 3.74137449 265.39506067 3.0159004 265.40036663 C0.6385025 265.41406473 -1.73834978 265.40627896 -4.11576843 265.39872742 C-5.83015428 265.40416264 -7.54453639 265.41091241 -9.25891238 265.41886932 C-13.98383079 265.43696984 -18.70859265 265.4363284 -23.4335376 265.43273985 C-28.52353807 265.43211807 -33.61348505 265.44871659 -38.70346069 265.46325684 C-47.52681049 265.48608955 -56.35012068 265.49793598 -65.17349815 265.50238609 C-77.93071598 265.50883603 -90.68786207 265.53175299 -103.44505105 265.55872939 C-124.14117305 265.60204447 -144.83729204 265.63198423 -165.53344727 265.65356445 C-185.64153528 265.67456002 -205.7495985 265.70185697 -225.85766602 265.73754883 C-227.10912578 265.73976234 -228.36058554 265.74197585 -229.64996833 265.74425644 C-239.43675363 265.76161606 -249.22353826 265.77934196 -259.01032269 265.79718363 C-307.00686642 265.88458925 -355.00339898 265.94003785 -403 266 C-403 328.04 -403 390.08 -403 454 C-373.07699219 454.03738281 -343.15398437 454.07476563 -312.32421875 454.11328125 C-293.42512574 454.14353882 -274.52603827 454.17453064 -255.62695312 454.20898438 C-245.70385782 454.22703563 -235.78076221 454.24489976 -225.85766602 454.26245117 C-224.61389924 454.26465886 -223.37013247 454.26686655 -222.0886758 454.26914114 C-201.98652843 454.30454946 -181.8843811 454.32938616 -161.78221407 454.35034702 C-141.1650983 454.37207904 -120.54802313 454.4051046 -99.93094188 454.44870156 C-87.20033364 454.47526316 -74.46977604 454.49292529 -61.73914144 454.49934604 C-53.01940856 454.50458617 -44.2997395 454.52075659 -35.58004078 454.54566566 C-30.54280015 454.55972799 -25.50567389 454.56883391 -20.4684124 454.56500816 C-15.86245446 454.56161589 -11.25674142 454.57185819 -6.6508337 454.59323552 C-4.97919817 454.5985352 -3.3075374 454.59870535 -1.63590189 454.59339563 C0.62624502 454.5869388 2.8875697 454.59869478 5.14964771 454.61523914 C7.03894622 454.61808705 7.03894622 454.61808705 8.96641237 454.62099248 C12 455 12 455 13.90409946 456.30380678 C15.81006953 459.25379484 15.4199373 462.62879131 15.39872742 466.02946472 C15.40537424 466.85690557 15.41202107 467.68434642 15.41886932 468.53686124 C15.43757402 471.31921292 15.43488903 474.1011374 15.43237305 476.88354492 C15.44138565 478.87411612 15.45171162 480.86468175 15.46325684 482.85523987 C15.49091187 488.26812725 15.50012288 493.68090958 15.50611091 499.09385848 C15.51547249 504.74737345 15.54167401 510.40080925 15.56611633 516.05427551 C15.60984614 526.76394848 15.63835327 537.47360614 15.66143972 548.18334132 C15.68845669 560.37427634 15.73237032 572.56513198 15.77772844 584.75601041 C15.87066753 609.83729728 15.9423058 634.91860905 16 660 C20.22026361 658.3546941 23.03922308 655.23015773 26.159729 652.0740509 C26.77411858 651.46066461 27.38850816 650.84727831 28.02151561 650.21530455 C30.08195134 648.15582247 32.1351493 646.08927266 34.18847656 644.02270508 C35.66331524 642.54566541 37.13860197 641.06907302 38.61430359 639.59289551 C41.79345713 636.41080626 44.96942497 633.22558259 48.14298248 630.03791237 C53.16439347 624.99424459 58.19287409 619.95766552 63.22235107 614.92204285 C71.18153413 606.95147068 79.13603378 598.97624326 87.08851314 590.99898309 C101.31557673 576.72765423 115.54813299 562.46180859 129.78599715 548.20125502 C134.78073273 543.19812856 139.77264476 538.19220684 144.76228285 533.1839968 C147.87387983 530.06172149 150.9875352 526.94150482 154.10169411 523.82178497 C155.5408642 522.37915773 156.97916248 520.93566014 158.416502 519.49120903 C170.7301205 507.11803577 170.7301205 507.11803577 176.89655685 501.87606144 C182.38289981 496.98279085 187.47905692 491.64951253 192.66796875 486.44555664 C194.0383745 485.07486845 195.40900122 483.70440115 196.77983093 482.33413696 C200.48189429 478.63235934 204.18087637 474.9275168 207.87929535 471.22209859 C211.75187906 467.34324398 215.62731373 463.46723992 219.50244141 459.59092712 C226.8317475 452.25851871 234.15850174 444.92356593 241.48433304 437.587686 C249.82820583 429.23261789 258.17493403 420.88040482 266.52189827 412.52842534 C283.68443511 395.355449 300.84339932 378.17890669 318 361 C316.37640593 356.91349361 313.44948558 354.17332735 310.38449097 351.13725281 C309.5144725 350.26361272 309.5144725 350.26361272 308.6268779 349.37232333 C306.68029882 347.42010452 304.72664752 345.47512157 302.77294922 343.5300293 C301.37636272 342.13236994 299.98020928 340.73427775 298.5844574 339.33578491 C294.78914735 335.5356221 290.98760663 331.74174859 287.18480444 327.949085 C283.20407627 323.97713858 279.22861928 319.99992281 275.25247192 316.02339172 C268.56918028 309.3410372 261.88202477 302.66256922 255.19238281 295.98657227 C247.46840024 288.27828677 239.74962764 280.56481619 232.03385723 272.84831113 C223.81274635 264.6265233 215.58782524 256.40855525 207.36179209 248.19169259 C204.99657993 245.82860723 202.63207504 243.46481613 200.2677269 241.10086632 C196.54206366 237.3762119 192.81384487 233.65413372 189.08368111 229.93398666 C187.71873359 228.57194636 186.3546151 227.20907465 184.99141121 225.84528923 C177.21052581 217.96946431 177.21052581 217.96946431 169.02294922 210.5269165 C162.52801201 204.98884372 156.64494164 198.75725233 150.62939453 192.71118164 C149.18343384 191.26166048 147.737235 189.81237685 146.29081726 188.36331177 C143.18965083 185.25562046 140.09000016 182.14642807 136.99148941 179.03608894 C132.09556682 174.12182202 127.1952537 169.21194911 122.29415894 164.30284119 C108.36291908 150.34748396 94.43765914 136.38616849 80.51660156 122.4206543 C72.8182822 114.69782808 65.11640571 106.97856725 57.41065872 99.26315206 C52.53319516 94.37913153 47.66028017 89.49063075 42.79063725 84.59881318 C39.77054367 81.56703411 36.74632039 78.53940161 33.72088051 75.51295853 C32.3138013 74.10372259 30.90845542 72.69275365 29.5049305 71.2799778 C27.59695426 69.35990795 25.6830055 67.44600275 23.7673645 65.53358459 C23.20667774 64.96639003 22.64599098 64.39919547 22.06831372 63.8148132 C19.51560733 60.91062085 19.51560733 60.91062085 16 60 Z " fill="#000000" transform="translate(555,157)"/>
<path d="M0 0 C0.65764343 0.00425995 1.31528687 0.0085199 1.99285889 0.01290894 C12.24628134 0.10528913 20.86908813 0.86919424 30.125 5.5625 C31.18074219 6.08199219 32.23648438 6.60148437 33.32421875 7.13671875 C44.42612831 13.11252703 53.06391377 22.35049429 61.89151001 31.21548462 C62.82137612 32.14520187 63.75124223 33.07491912 64.70928609 34.03280962 C67.261651 36.58488205 69.81091424 39.14003232 72.35964251 41.69573593 C75.1198952 44.46241217 77.88309846 47.22613888 80.64595032 49.99021912 C85.42462632 54.77177084 90.20152571 59.55509136 94.97725296 64.33958817 C101.89021058 71.26514588 108.8064462 78.18742275 115.72356026 85.10882883 C126.95906954 96.35139265 138.19270821 107.59582347 149.42480469 118.84179688 C150.43147877 119.84971267 150.43147877 119.84971267 151.4584897 120.87799041 C156.22237604 125.64777743 160.98619536 130.41763138 165.75 135.1875 C171.1952654 140.63969548 176.64056236 146.09185944 182.0859375 151.54394531 C182.75683504 152.21567097 183.42773257 152.88739664 184.11896034 153.57947762 C195.31369689 164.7879098 206.51040463 175.99437085 217.70851457 187.19943273 C224.60692238 194.10231425 231.50354939 201.0069658 238.39786826 207.91393124 C243.12115107 212.64565335 247.84621214 217.37559473 252.57266356 222.10415174 C255.29697446 224.82980446 258.02045538 227.55627323 260.7417202 230.28496742 C263.69591481 233.24719667 266.65400503 236.20550563 269.61245728 239.16348267 C270.46557861 240.02019896 271.31869994 240.87691526 272.19767344 241.75959265 C276.39653734 245.9512476 280.67171428 249.9647089 285.16759455 253.83464968 C288.72636567 256.97606518 292.0628669 260.34159469 295.42269897 263.69284058 C296.21877143 264.48311964 297.01484388 265.27339871 297.83503973 266.08762562 C300.48401362 268.71865887 303.12948961 271.35317949 305.77490234 273.98779297 C307.19477751 275.3993351 308.61465596 276.81087395 310.03476976 278.222176 C316.76537829 284.91110792 323.48886741 291.60717642 330.2109375 298.3046875 C331.00815785 299.09894551 331.00815785 299.09894551 331.82148367 299.90924913 C342.39755283 310.44612499 352.97084224 320.98578691 363.53845787 331.53114128 C365.85632786 333.84404302 368.17423592 336.15690659 370.4921875 338.46972656 C371.06821026 339.04447866 371.64423303 339.61923075 372.23771103 340.21139957 C381.56032675 349.51267433 390.8966778 358.80003687 400.23861067 368.08190559 C409.85489977 377.6368802 419.45774202 387.20521067 429.04805148 396.78626168 C434.42281737 402.15514336 439.8032375 407.5180706 445.19901657 412.86584091 C449.79566294 417.42162263 454.37995924 421.98940495 458.94920109 426.57267825 C461.27491494 428.90480075 463.60752557 431.2291383 465.95240593 433.54200935 C485.62220868 452.95757106 500.11924425 474.65470515 500.50610352 503.17773438 C500.47710312 519.55715847 498.74356107 532.47392935 491.9375 547.375 C491.59984619 548.11556641 491.26219238 548.85613281 490.91430664 549.61914062 C483.48388788 564.81185788 470.96466413 576.14168454 459.14624023 587.89770508 C457.21555888 589.82751051 455.28714145 591.75957267 453.35861206 593.69152832 C448.68498733 598.37075356 444.00349459 603.04202798 439.31924158 607.71061084 C433.8557061 613.15651401 428.4003301 618.61056112 422.94527758 624.06495925 C413.20892131 633.79963179 403.46554385 643.52724571 393.71801758 653.25073242 C384.27441341 662.67106371 374.83537996 672.09594198 365.40161133 681.52612305 C364.82006094 682.10745067 364.23851054 682.6887783 363.63933741 683.28772191 C362.46766247 684.45895423 361.29598782 685.63018685 360.12431348 686.80141978 C359.54623909 687.3792746 358.9681647 687.95712943 358.3725729 688.552495 C357.79589317 689.12895875 357.21921343 689.7054225 356.62505856 690.29935484 C347.61102822 699.30967901 338.59317415 708.31617565 329.57479284 717.32214466 C326.31457612 720.57793795 323.05484973 723.83422123 319.79546648 727.0908489 C314.62652858 732.25534256 309.45591186 737.41814337 304.28194337 742.5775976 C301.92024013 744.93272481 299.55955417 747.28884647 297.20047569 749.64660454 C294.63773859 752.20758589 292.07194718 754.76546822 289.50535583 757.32258606 C288.39974333 758.42949829 288.39974333 758.42949829 287.27179521 759.55877239 C283.99888941 762.81363113 280.69637366 765.97631045 277.19687271 768.98726273 C272.43379294 773.10016012 268.02627939 777.54183504 263.59468079 782.00621033 C262.6659678 782.93759671 261.73725482 783.8689831 260.78039902 784.82859331 C258.75367156 786.86119569 256.72856559 788.89539488 254.70471954 790.93086624 C251.41043504 794.24405428 248.11258868 797.5536828 244.8143158 800.86289978 C240.64487317 805.04670187 236.4763861 809.23145219 232.30902418 813.41732682 C224.11697702 821.6457438 215.91865212 829.86788035 207.71806335 838.08778381 C206.42461753 839.38433994 205.1311754 840.68089975 203.8377369 841.97746319 C201.87787281 843.94205283 199.91800503 845.9066388 197.95812247 847.87121002 C190.57919646 855.26783882 183.20096435 862.66515938 175.82348633 870.06323242 C175.14956021 870.7390356 174.47563409 871.41483877 173.78128596 872.11112083 C162.86292068 883.06037001 151.95196431 894.01697672 141.04326925 904.97585922 C129.82551113 916.24478543 118.59814329 927.50407479 107.36230153 938.75497061 C100.4421588 945.6850546 93.52977785 952.62269832 86.62732562 959.57040323 C81.89264912 964.33474666 77.14877196 969.08980052 72.39769993 973.83779376 C69.66156407 976.57271688 66.9295763 979.31145811 64.20859909 982.06147003 C61.7104852 984.58606766 59.20074985 987.09851183 56.68184581 989.60236139 C55.35725141 990.92489624 54.04489258 992.25965225 52.73323041 993.59501404 C44.82001652 1001.41757393 35.60955692 1007.7531947 25.0625 1011.5 C24.01964844 1011.88027344 22.97679687 1012.26054688 21.90234375 1012.65234375 C7.95542685 1017.22285238 -13.33131664 1016.75582645 -26.83203125 1011.10546875 C-28.33830078 1010.34169922 -28.33830078 1010.34169922 -29.875 1009.5625 C-30.93074219 1009.04300781 -31.98648437 1008.52351562 -33.07421875 1007.98828125 C-40.23164009 1004.13566675 -46.13773584 999.28944534 -51.875 993.5625 C-52.42671875 993.02238281 -52.9784375 992.48226562 -53.546875 991.92578125 C-68.47187431 975.99775779 -70.47306703 957.52215105 -70.32910156 936.78979492 C-70.32797168 934.50219238 -70.3286097 932.21458839 -70.33087158 929.92698669 C-70.33201413 923.75013875 -70.30857905 917.57360469 -70.28057575 911.39682937 C-70.25548551 904.92930829 -70.25321409 898.46177916 -70.24847412 891.99421692 C-70.23747433 881.14964758 -70.21252928 870.30520627 -70.17675781 859.46069336 C-70.13997196 848.29696214 -70.11169251 837.13326211 -70.09472656 825.96948242 C-70.09315022 824.93513107 -70.09315022 824.93513107 -70.09154204 823.87988373 C-70.08632142 820.42009764 -70.0812667 816.96031133 -70.07629442 813.50052488 C-70.03491119 784.8544394 -69.96423223 756.20847419 -69.875 727.5625 C-70.65834351 727.56575513 -71.44168702 727.56901026 -72.24876821 727.57236403 C-118.6778378 727.76491168 -165.1069445 727.94165455 -211.53615125 728.09787826 C-217.11117805 728.11665062 -222.68620439 728.13555501 -228.26123047 728.15454102 C-229.37111606 728.15831856 -230.48100165 728.16209611 -231.62452014 728.16598812 C-249.59474631 728.22746545 -267.56491441 728.29963774 -285.53508382 728.3757638 C-303.97464246 728.45364019 -322.41421666 728.5200203 -340.85385573 728.57573253 C-352.23174606 728.61047111 -363.60952944 728.65417228 -374.98733933 728.70934484 C-382.78992374 728.74632157 -390.59249535 728.77212959 -398.39514856 728.78917392 C-402.89660723 728.79933627 -407.39790793 728.81440448 -411.89929199 728.84274101 C-416.02383282 728.86859642 -420.14816985 728.88036412 -424.27278943 728.88112888 C-425.76153651 728.88385571 -427.25028521 728.89166504 -428.7389733 728.90519472 C-444.41836103 729.04182399 -457.93577436 725.30584937 -469.70581055 714.39379883 C-481.86840747 702.43118769 -487.81719842 688.42017883 -488.00642776 671.43036556 C-488.0145246 668.92265875 -488.01712242 666.41493063 -488.01544189 663.9072113 C-488.01802812 662.50871466 -488.02104199 661.11021876 -488.0244453 659.71172386 C-488.03248845 655.87802907 -488.03430337 652.04435303 -488.03504276 648.2106508 C-488.03689802 644.07208468 -488.04444775 639.93352818 -488.05117798 635.79496765 C-488.06474302 626.74927743 -488.07078325 617.70359164 -488.07518864 608.65789294 C-488.07795431 603.00579977 -488.08219227 597.35370831 -488.08669281 591.70161629 C-488.09888339 576.04156699 -488.10918292 560.38151905 -488.1125679 544.72146511 C-488.11278747 543.719745 -488.11300703 542.71802489 -488.11323325 541.68594963 C-488.11345153 540.68188044 -488.11366981 539.67781126 -488.1138947 538.64331573 C-488.11433816 536.60880879 -488.11478472 534.57430186 -488.11523438 532.53979492 C-488.1154558 531.53061676 -488.11567723 530.52143859 -488.11590537 529.48167927 C-488.11985148 513.13771618 -488.13730073 496.79379772 -488.1605939 480.44985186 C-488.1843353 463.65531658 -488.19677103 446.86080367 -488.19793582 430.06625134 C-488.19885104 420.64260206 -488.20456479 411.21901094 -488.22275543 401.79537773 C-488.23819413 393.76929642 -488.24325472 385.74329124 -488.23501733 377.71719789 C-488.23112406 373.62634417 -488.23197528 369.5356436 -488.24607468 365.44480896 C-488.25889353 361.6909922 -488.25754692 357.9374424 -488.24548396 354.18362559 C-488.24262857 352.20102715 -488.25440194 350.21842374 -488.26690602 348.23586267 C-488.17338582 331.09369698 -484.21568558 316.35366637 -472.15234375 303.80859375 C-471.40082031 303.06738281 -470.64929688 302.32617188 -469.875 301.5625 C-469.23691406 300.91410156 -468.59882813 300.26570313 -467.94140625 299.59765625 C-456.00883577 288.2604739 -442.54790408 286.25052659 -426.79040527 286.35995483 C-425.24907668 286.36321598 -423.70774599 286.36558809 -422.16641474 286.3671509 C-417.94304061 286.37399372 -413.71980432 286.39340949 -409.49648285 286.41491175 C-404.93763678 286.43590794 -400.37876497 286.44519654 -395.81988525 286.45591736 C-387.92531704 286.47608007 -380.03080252 286.50363681 -372.13627625 286.53623581 C-360.72216335 286.58335757 -349.30803671 286.61929675 -337.8938759 286.65251906 C-319.37453257 286.70672501 -300.85523152 286.76995693 -282.3359375 286.83886719 C-264.34766991 286.90578216 -246.35939578 286.96844489 -228.37109375 287.02539062 C-227.26203318 287.02890307 -226.15297262 287.03241551 -225.01030415 287.03603439 C-219.44639494 287.0536293 -213.88248547 287.07114063 -208.31857586 287.08861041 C-162.17066993 287.23361548 -116.02282302 287.39326977 -69.875 287.5625 C-69.87960896 286.380661 -69.88421793 285.198822 -69.88896656 283.9811697 C-69.99744801 255.87489562 -70.07979845 227.76863199 -70.13032665 199.66219324 C-70.13657957 196.19658874 -70.14305124 192.73098469 -70.1496582 189.26538086 C-70.15096976 188.57549289 -70.15228131 187.88560492 -70.1536326 187.17481125 C-70.17534055 176.03011761 -70.21473634 164.885554 -70.26076398 153.74093729 C-70.30765758 142.29044709 -70.33494869 130.84006202 -70.34544247 119.38947302 C-70.35194388 112.96415411 -70.36715547 106.53912933 -70.40365028 100.11390495 C-70.43777061 94.05724457 -70.44802053 88.00099748 -70.44053841 81.94425011 C-70.44190579 79.7300364 -70.45174177 77.51580784 -70.47102737 75.3016777 C-70.64886627 53.81751628 -66.33979928 36.82551332 -51.04296875 20.734375 C-50.32753906 20.01765625 -49.61210937 19.3009375 -48.875 18.5625 C-48.33488281 18.01078125 -47.79476563 17.4590625 -47.23828125 16.890625 C-34.18990781 4.66393754 -17.52029281 -0.2046084 0 0 Z M-34.17382812 40.1484375 C-41.63321602 50.21576406 -45.35140251 59.58316218 -45.23576355 72.21168518 C-45.23832682 73.2484302 -45.2408901 74.28517522 -45.24353105 75.35333675 C-45.24845066 78.80806585 -45.23200579 82.26235255 -45.21557617 85.71704102 C-45.21472951 88.20109548 -45.21520581 90.68515069 -45.21690369 93.16920471 C-45.21758562 98.50734143 -45.20910714 103.84534189 -45.19219017 109.18344307 C-45.16774753 116.90129594 -45.15998954 124.6190957 -45.1562262 132.33698308 C-45.14966995 144.8605092 -45.12973128 157.3839765 -45.10131836 169.9074707 C-45.07375635 182.06860053 -45.05253327 194.22971436 -45.03979492 206.39086914 C-45.03900675 207.14122751 -45.03821858 207.89158589 -45.03740653 208.6646824 C-45.03349125 212.42923254 -45.02970016 216.1937828 -45.02597082 219.95833313 C-44.99490065 251.15976485 -44.9418635 282.36112347 -44.875 313.5625 C-45.62775514 313.49209798 -46.38051029 313.42169596 -47.15607619 313.34916055 C-56.07220977 312.58170568 -64.93844965 312.41110279 -73.87994385 312.40859985 C-75.46042415 312.4045749 -77.04090343 312.400135 -78.62138152 312.3953203 C-82.93003495 312.38346663 -87.23867725 312.37773287 -91.54734373 312.37313914 C-96.20718827 312.36714107 -100.86701979 312.35554307 -105.52685547 312.34484863 C-116.75478648 312.32043619 -127.98272175 312.30572224 -139.21067107 312.29278857 C-142.38327953 312.28907111 -145.55588756 312.28509842 -148.7284956 312.2810359 C-168.45107398 312.25581459 -188.17365313 312.233773 -207.89624405 312.22130775 C-212.45394137 312.21837838 -217.01163867 312.21541665 -221.56933594 312.21240234 C-222.70203847 312.21165629 -223.834741 312.21091024 -225.00176784 312.21014158 C-243.37924313 312.1974688 -261.75662211 312.16421104 -280.13405231 312.12260051 C-299.01814519 312.0801938 -317.90218866 312.05661499 -336.78632903 312.05138719 C-347.3829305 312.04797375 -357.97938083 312.03622444 -368.57593536 312.00328445 C-377.59201077 311.97530156 -386.60790395 311.96427745 -395.62401941 311.97547992 C-400.22272554 311.98066915 -404.82104987 311.97776189 -409.41970062 311.95301437 C-413.63143042 311.93053777 -417.84250379 311.93124901 -422.05424497 311.95021825 C-423.57554978 311.9530203 -425.09689897 311.94740819 -426.61813238 311.93240531 C-435.18230341 311.85312311 -441.78909134 312.33847078 -448.875 317.5625 C-450.2053125 318.42875 -450.2053125 318.42875 -451.5625 319.3125 C-459.26817833 326.80991675 -462.6131839 335.73581542 -462.9680866 346.34521449 C-463.00709016 349.82687351 -463.01302979 353.30725994 -463.00871277 356.78913879 C-463.01058251 358.14098842 -463.01288386 359.4928375 -463.01557809 360.84468573 C-463.02168233 364.54928657 -463.02156412 368.25386479 -463.02038372 371.95846951 C-463.02017936 375.95789697 -463.02570176 379.95731724 -463.03044128 383.95674133 C-463.03874076 391.78845539 -463.0414958 399.62016193 -463.04205366 407.45188002 C-463.04252914 413.81890567 -463.04458547 420.18592885 -463.04775429 426.55295372 C-463.05655881 444.61165063 -463.06117396 462.67034159 -463.06042381 480.72904066 C-463.06038386 481.70219015 -463.0603439 482.67533964 -463.06030273 483.67797852 C-463.06026185 484.65231855 -463.06022097 485.62665858 -463.06017885 486.63052406 C-463.0597724 502.42105776 -463.06934225 518.21156762 -463.0834411 534.00209443 C-463.09780936 550.22256402 -463.10471104 566.44302198 -463.10384732 582.6634981 C-463.10351552 591.76730684 -463.10625544 600.87109057 -463.11702538 609.97489357 C-463.12613627 617.72586352 -463.12830076 625.47679714 -463.12151595 633.22777013 C-463.11825378 637.18037816 -463.11818313 641.1329165 -463.1268692 645.08551788 C-463.13474846 648.70831572 -463.13328828 652.33098875 -463.12458507 655.95378359 C-463.12233105 657.87570612 -463.12986751 659.79763256 -463.13782471 661.71953994 C-463.08974917 673.82674412 -461.68651436 685.5128366 -452.875 694.5625 C-449.96667619 696.71820767 -446.97844053 698.69934292 -443.875 700.5625 C-443.30168613 700.91483981 -442.72837226 701.26717962 -442.13768524 701.63019639 C-439.14328764 702.86399049 -436.69181709 702.81200011 -433.45328617 702.81138897 C-432.8076068 702.81399625 -432.16192743 702.81660354 -431.49668202 702.81928983 C-429.32411057 702.82560688 -427.15182631 702.81761617 -424.97926331 702.80973816 C-423.40940126 702.81132587 -421.83953989 702.81378909 -420.26968044 702.81705457 C-415.94838148 702.82348147 -411.62717589 702.81738945 -407.30588305 702.80929029 C-402.64785306 702.80272283 -397.98983368 702.80765984 -393.33180237 702.81117249 C-384.20123601 702.81622039 -375.07070581 702.81056455 -365.94014395 702.80132218 C-355.30457822 702.79094345 -344.66902032 702.79100828 -334.03345048 702.79149476 C-315.04874125 702.79199575 -296.06404885 702.78282609 -277.0793457 702.76831055 C-258.66755873 702.75424036 -240.25578657 702.747139 -221.84399414 702.74780273 C-220.71136297 702.74784269 -219.57873179 702.74788265 -218.41177846 702.74792381 C-217.28108986 702.74796417 -216.15040126 702.74800452 -214.98544937 702.7480461 C-194.02217296 702.74873693 -173.05890283 702.74283789 -152.09562846 702.73389288 C-144.68777617 702.73088137 -137.27992505 702.72981387 -129.87207222 702.72936058 C-120.83324475 702.72867668 -111.79442786 702.72418789 -102.75560487 702.71502777 C-98.14648142 702.71042628 -93.53737145 702.70735814 -88.92824554 702.70862198 C-84.70196377 702.70972458 -80.47571172 702.7061528 -76.24943613 702.69897345 C-74.72712827 702.69717427 -73.20481732 702.69701586 -71.68250937 702.69874074 C-62.70411702 702.70778089 -53.81885994 702.40219968 -44.875 701.5625 C-44.87960896 702.84925723 -44.88421793 704.13601446 -44.88896656 705.46176434 C-44.99738266 736.0440058 -45.07976588 766.62619517 -45.13032665 797.20858283 C-45.13657977 800.97719032 -45.14305143 804.74579741 -45.1496582 808.5144043 C-45.15096976 809.26462918 -45.15228131 810.01485407 -45.1536326 810.78781305 C-45.17535704 822.91676409 -45.21476211 835.04559598 -45.26076398 847.17447647 C-45.30761131 859.6306585 -45.33531283 872.08677836 -45.34544247 884.54304487 C-45.35228456 892.22205578 -45.37385153 899.90072986 -45.41458233 907.57963703 C-45.44427189 913.47943476 -45.44725333 919.37906198 -45.44053841 925.27893639 C-45.44190908 927.69072028 -45.45178961 930.10251745 -45.47102737 932.51422501 C-45.60902348 950.71313526 -44.21041268 963.89647112 -31 977.4921875 C-20.79614708 987.07887189 -9.14501606 990.27003604 4.5 989.9375 C22.25186375 988.91727795 33.72343367 975.25443073 45.42553711 963.47314453 C46.85173421 962.04474317 48.2783823 960.616792 49.70544434 959.18925476 C52.7628479 956.12893065 55.81708341 953.06549251 58.8688488 949.99954605 C63.69153975 945.15451121 68.52138058 940.31664601 73.35218811 935.47970581 C80.98545988 927.83507907 88.61403766 920.18578805 96.24056393 912.53443229 C109.9192134 898.81133711 123.60357218 885.09394042 137.29307753 871.38167465 C142.09795933 866.56837147 146.90001869 861.7522748 151.6998471 856.93393254 C154.67679681 853.94637173 157.65575004 850.96081474 160.63521576 847.97576332 C162.02045841 846.58703861 163.40482804 845.19744247 164.78827858 843.80693245 C166.67000946 841.91580754 168.55475281 840.02773772 170.44029236 838.14041138 C170.9925151 837.58391155 171.54473784 837.02741173 172.11369461 836.45404828 C175.89687083 832.67656459 175.89687083 832.67656459 178.125 831.5625 C178.125 830.9025 178.125 830.2425 178.125 829.5625 C178.785 829.5625 179.445 829.5625 180.125 829.5625 C181.76175508 827.94450498 181.76175508 827.94450498 183.4375 825.875 C186.20784781 822.61711686 189.058607 819.54819845 192.125 816.5625 C192.95 815.7375 193.775 814.9125 194.625 814.0625 C200.45833333 808.22916667 206.29166667 802.39583333 212.125 796.5625 C212.96933594 795.7065625 213.81367187 794.850625 214.68359375 793.96875 C216.78750196 791.89513807 218.9305737 789.96495875 221.1875 788.0625 C223.50187564 786.06824361 225.34458101 784.2847946 227.25 781.875 C229.51135733 779.08599263 232.14475546 777.52675208 235.125 775.5625 C235.125 774.9025 235.125 774.2425 235.125 773.5625 C235.785 773.5625 236.445 773.5625 237.125 773.5625 C237.125 772.9025 237.125 772.2425 237.125 771.5625 C237.785 771.5625 238.445 771.5625 239.125 771.5625 C240.43196338 770.00471518 240.43196338 770.00471518 241.75 768 C244.49169079 764.2135387 247.47130343 761.34274684 251.04296875 758.3515625 C254.60338382 755.29214392 257.83750484 751.90905196 261.125 748.5625 C262.79101319 746.89518011 264.45779185 745.22862501 266.125 743.5625 C268.02945526 741.65608751 269.93377776 739.74954316 271.8379364 737.84283447 C272.98934114 736.6899637 274.14074918 735.53709623 275.29216003 734.38423157 C275.90187841 733.77373774 276.51159679 733.1632439 277.13979149 732.53425026 C291.16990669 718.48645962 305.20287411 704.44152113 319.2374754 690.39821243 C327.34985743 682.28066192 335.46129082 674.16216756 343.57055664 666.04150391 C350.65208047 658.95003196 357.73534377 651.86030296 364.82072574 644.77268577 C368.5700789 641.02202675 372.31854065 637.27048635 376.06491661 633.51685333 C379.58314726 629.99186098 383.10368922 626.46919413 386.62605667 622.94833565 C387.92098296 621.6531332 389.21504608 620.35706715 390.50819969 619.06009483 C392.2675171 617.29583497 394.02985444 615.53464928 395.79301453 613.77423096 C396.30905626 613.25527638 396.825098 612.7363218 397.35677737 612.20164132 C400.89675637 608.67662182 400.89675637 608.67662182 403.125 607.5625 C403.125 606.9025 403.125 606.2425 403.125 605.5625 C403.785 605.5625 404.445 605.5625 405.125 605.5625 C406.76175508 603.94450498 406.76175508 603.94450498 408.4375 601.875 C411.20784781 598.61711686 414.058607 595.54819845 417.125 592.5625 C417.95 591.7375 418.775 590.9125 419.625 590.0625 C425.45833333 584.22916667 431.29166667 578.39583333 437.125 572.5625 C437.97320313 571.70269531 438.82140625 570.84289062 439.6953125 569.95703125 C441.73539119 567.94647139 443.80490479 566.0853182 446 564.25 C450.12858882 560.6713733 453.60335033 556.72590815 457.125 552.5625 C458.29152758 551.27070772 459.45819484 549.97904157 460.625 548.6875 C465.86466677 542.66896384 471.03362004 536.37536318 473.44970703 528.66625977 C473.89317142 527.2847223 474.37256913 525.91411218 474.89013672 524.55859375 C477.02891892 518.81284862 477.60198537 513.73005497 477.5 507.625 C477.48984863 506.74328125 477.47969727 505.8615625 477.46923828 504.953125 C477.32040912 498.72306689 476.73244001 493.28519604 474.125 487.5625 C473.68800781 486.58023437 473.25101563 485.59796875 472.80078125 484.5859375 C468.43556361 475.35138259 462.680003 467.88052756 455.67871094 460.50170898 C454.77203485 459.53874106 454.77203485 459.53874106 453.84704208 458.55631924 C447.10664378 451.43051021 440.19899892 444.47245398 433.265625 437.53515625 C431.90030143 436.1666082 430.53504815 434.79799002 429.16986084 433.42930603 C426.34480521 430.59833645 423.5177668 427.76936479 420.68945312 424.94165039 C417.05952926 421.31182958 413.43661966 417.67508921 409.81528091 414.03670597 C407.01524928 411.22560609 404.21073566 408.41901185 401.4048996 405.61370659 C400.06519771 404.27282365 398.72711937 402.93031655 397.39069366 401.58616829 C395.53890398 399.7246522 393.68097364 397.86949334 391.82128906 396.01586914 C390.99544815 395.18159897 390.99544815 395.18159897 390.15292358 394.33047485 C387.61623883 391.45584098 387.61623883 391.45584098 384.125 390.5625 C383.8775 389.985 383.63 389.4075 383.375 388.8125 C381.94200012 386.23310021 380.34075324 384.50128408 378.125 382.5625 C377.465 382.5625 376.805 382.5625 376.125 382.5625 C376.125 381.9025 376.125 381.2425 376.125 380.5625 C373.65847296 377.87833822 371.09072451 375.53493058 368.25 373.25 C365.88873143 371.32401579 363.95798613 369.27092522 362 366.9375 C358.97482998 363.37571446 355.66304614 360.23776779 352.1875 357.125 C347.87713684 353.26232835 343.93087548 349.29913034 340.234375 344.828125 C338.40876581 342.8672855 336.5699834 341.19359478 334.53686523 339.45849609 C329.96817927 335.48269206 325.69215502 331.25657936 321.42578125 326.9609375 C320.62770554 326.16144684 319.82962982 325.36195618 319.00737 324.53823853 C316.48169936 322.00701975 313.95954043 319.47233531 311.4375 316.9375 C309.73395728 315.228934 308.03018329 313.52059856 306.32617188 311.8125 C302.57434345 308.05090292 298.82472204 304.28712214 295.07710266 300.52133179 C293.66647341 299.10583993 292.25426293 297.69192327 290.84107018 296.27899075 C288.13052821 293.56802907 285.42274043 290.85434858 282.71577454 288.13981628 C281.63236595 287.05347594 280.54895091 285.96714204 279.4655304 284.8808136 C278.89254526 284.30627756 278.31956013 283.73174152 277.72921181 283.1397953 C264.53828928 269.91350406 251.3416421 256.69293704 238.14173603 243.47561169 C230.51227051 235.8358069 222.88470918 228.19411835 215.26147461 220.5480957 C208.60371597 213.87044553 201.94248642 207.19628107 195.27701062 200.52633363 C191.74992874 196.99663936 188.22464272 193.46519174 184.70351601 189.92955589 C181.39754541 186.61006933 178.08697635 183.29524149 174.77273178 179.98401642 C173.55432892 178.76506091 172.33765384 177.54437571 171.12279701 176.32188606 C169.47083901 174.66005427 167.81291574 173.00441886 166.15327454 171.3502655 C165.22507054 170.42021792 164.29686655 169.49017035 163.34053516 168.53193951 C161.36992375 166.34104068 161.36992375 166.34104068 159.125 166.5625 C158.8775 165.985 158.63 165.4075 158.375 164.8125 C156.94200012 162.23310021 155.34075324 160.50128408 153.125 158.5625 C152.465 158.5625 151.805 158.5625 151.125 158.5625 C151.125 157.9025 151.125 157.2425 151.125 156.5625 C148.59176428 153.80574348 145.90358677 151.35190528 143 149 C140.57548246 146.94443078 138.98944728 145.07950382 137.125 142.5625 C136.465 142.5625 135.805 142.5625 135.125 142.5625 C134.80402344 141.73298828 134.80402344 141.73298828 134.4765625 140.88671875 C132.67377209 137.7865445 130.17382992 135.70042676 127.5 133.375 C123.07346198 129.43472048 119.01898953 125.40570639 115.234375 120.828125 C113.39307424 118.85043159 111.5316831 117.15814034 109.48178101 115.40638733 C105.23506942 111.71035006 101.25759197 107.80291496 97.30712891 103.79467773 C96.57099869 103.05226837 95.83486847 102.30985901 95.07643127 101.54495239 C93.49147916 99.94624063 91.90760834 98.34645628 90.3247261 96.74569511 C87.81288344 94.20700122 85.2965058 91.67288746 82.77865601 89.14015198 C75.62449395 81.94344787 68.4730284 74.74413674 61.33789062 67.52856445 C56.96073478 63.1027295 52.57374064 58.68685443 48.18027878 54.27720833 C46.51575599 52.60283004 44.85488457 50.92481317 43.19786453 49.24300957 C40.87506334 46.88623302 38.53988763 44.54238668 36.20166016 42.20092773 C35.53017441 41.51348984 34.85868866 40.82605194 34.16685486 40.11778259 C24.49633529 30.50756285 13.95777153 25.32951775 0.375 25.0625 C-12.55308553 25.12888639 -25.75210159 29.86506615 -34.17382812 40.1484375 Z " fill="#000000" transform="translate(514.875,9.4375)"/>
</svg>
