<?xml version="1.0" encoding="UTF-8"?>
<svg version="1.1" xmlns="http://www.w3.org/2000/svg" width="1040" height="1040">
<path d="M0 0 C1.08539062 -0.01546875 2.17078125 -0.0309375 3.2890625 -0.046875 C20.25138585 0.03409074 34.20447448 7.72524125 46 19.5 C46.5878125 20.07621094 47.175625 20.65242188 47.78125 21.24609375 C54.87261259 28.7897116 57.80036122 39.31770129 60.79296875 49.00390625 C61.13598022 50.09416107 61.4789917 51.18441589 61.83239746 52.30770874 C62.95761867 55.89053227 64.07266397 59.47643275 65.1875 63.0625 C65.9881539 65.62004222 66.78932844 68.17741645 67.59106445 70.73461914 C69.87213359 78.01643653 72.1402786 85.30224556 74.40570068 92.58894348 C75.34518739 95.61000063 76.28595274 98.63065954 77.2265625 101.65136719 C81.27303936 114.65072274 85.30489666 127.65458093 89.33172607 140.66003418 C93.87765369 155.34017265 98.43910094 170.01548693 103.00088501 184.69070435 C104.13987545 188.35485459 105.278574 192.01909545 106.41715336 195.68337345 C115.92887715 226.29386098 125.46572858 256.89652987 135 287.5 C135.77125937 287.50423194 136.54251875 287.50846388 137.33714962 287.51282406 C147.5984673 287.56921592 157.85978154 287.62621492 168.12109375 287.68359375 C168.9727414 287.68835456 169.82438906 287.69311538 170.70184422 287.69802046 C192.29321571 287.81885453 213.88455059 287.94445976 235.47583008 288.08081055 C236.42536635 288.08680366 237.37490262 288.09279677 238.35321271 288.09897149 C247.90978305 288.15935773 257.46634944 288.22033787 267.02291125 288.2820583 C285.73787783 288.4027811 304.45277403 288.51741456 323.16796017 288.59797955 C332.45464565 288.63835019 341.74119804 288.69034696 351.02774906 288.75468159 C356.07376909 288.78916221 361.11961007 288.81703501 366.16574097 288.82785034 C370.77089234 288.83776698 375.37557213 288.86545493 379.98053741 288.90768814 C381.60377799 288.91943625 383.22708331 288.92469363 384.85036469 288.92232895 C402.31021736 288.90354315 416.90371901 293.94395204 429.71875 306.08984375 C443.73388268 320.89692742 446.65428024 335.60656497 446.41015625 355.2421875 C445.97169822 367.33357137 442.67510935 379.63538584 434 388.5 C433.42765625 389.13550781 432.8553125 389.77101563 432.265625 390.42578125 C427.2961118 395.71358972 421.64156411 399.90638572 415.796875 404.17382812 C412.35137525 406.71675675 408.96044988 409.33158478 405.5625 411.9375 C404.83232666 412.49655029 404.10215332 413.05560059 403.34985352 413.6315918 C398.01324538 417.71868749 392.68557646 421.8173236 387.359375 425.91796875 C379.85167539 431.69294897 372.31898296 437.43544975 364.79296875 443.18652344 C357.68864673 448.61571447 350.58483048 454.04538549 343.5 459.5 C334.94789849 466.08426721 326.36880362 472.63321953 317.79296875 479.18652344 C310.68864673 484.61571447 303.58483048 490.04538549 296.5 495.5 C287.94789849 502.08426721 279.36880362 508.63321953 270.79296875 515.18652344 C263.68864673 520.61571447 256.58483048 526.04538549 249.5 531.5 C244.40188018 535.42459035 239.29694464 539.3401641 234.1875 543.25 C233.49398437 543.78109375 232.80046875 544.3121875 232.0859375 544.859375 C227.41153704 548.43444227 222.71266286 551.97555925 218 555.5 C219.31652438 561.75066272 220.9136832 567.81093845 222.81640625 573.90625 C223.10035751 574.82623779 223.38430878 575.74622559 223.67686462 576.6940918 C224.63544862 579.79709053 225.59904012 582.89851205 226.5625 586 C227.25947188 588.25314472 227.95607399 590.50640384 228.65234375 592.75976562 C230.00696034 597.14230258 231.36272205 601.52448104 232.72009087 605.90616608 C235.83981504 615.97698561 238.95001614 626.05073501 242.05859375 636.125 C242.31994614 636.97195309 242.58129852 637.81890617 242.85057068 638.69152451 C243.92019168 642.15780781 244.98979037 645.624098 246.05932999 649.09040642 C247.96573482 655.26889473 249.872624 661.44723339 251.77978516 667.62548828 C263.33775258 705.06783238 274.87954749 742.51491016 286.32420731 779.99207306 C286.93259682 781.98394694 287.54131584 783.97571985 288.15011597 785.96746826 C289.27714338 789.65500381 290.40237043 793.34308725 291.52734375 797.03125 C291.86503784 798.1358255 292.20273193 799.240401 292.55065918 800.37844849 C292.8599939 801.39373627 293.16932861 802.40902405 293.48803711 803.45507812 C293.75732529 804.33748169 294.02661346 805.21988525 294.30406189 806.12902832 C296.21677244 812.64538729 296.25785561 818.71680982 296.3125 825.5 C296.34150391 826.66917969 296.37050781 827.83835937 296.40039062 829.04296875 C296.51942998 845.54365488 289.87090475 858.14441659 278.69140625 869.95703125 C266.40357195 881.56716207 251.80406694 885.36234667 235.3125 885.0625 C233.97589776 885.07176728 232.63930676 885.0828311 231.30273438 885.09570312 C220.17370739 885.01293892 211.37265833 882.81210444 202.4375 876.125 C201.86725098 875.7029126 201.29700195 875.2808252 200.70947266 874.84594727 C198.79176403 873.41546656 196.8941642 871.96150356 195 870.5 C194.27796387 869.94393066 193.55592773 869.38786133 192.81201172 868.81494141 C188.93986909 865.82497532 185.08141509 862.81798378 181.23046875 859.80078125 C176.98362046 856.47769039 172.68009185 853.23672359 168.35546875 850.015625 C163.87707407 846.6704869 159.44260349 843.2674167 155 839.875 C147.96506671 834.5041498 140.90374242 829.17124568 133.8125 823.875 C126.645251 818.51921493 119.55733534 813.07173357 112.50927734 807.56030273 C107.04174009 803.29132025 101.5157954 799.10810011 95.95678711 794.95922852 C89.77870848 790.34566394 83.65558151 785.66228788 77.53515625 780.97265625 C72.61371119 777.20181931 67.68237376 773.44402499 62.75 769.6875 C61.86868408 769.0162207 60.98736816 768.34494141 60.0793457 767.65332031 C58.28274795 766.28495003 56.48611694 764.9166234 54.68945312 763.54833984 C49.42643055 759.53991942 44.16432467 755.53029553 38.90234375 751.52050781 C34.37865638 748.07348517 29.85408628 744.62763034 25.328125 741.18359375 C24.39419922 740.47267578 23.46027344 739.76175781 22.49804688 739.02929688 C20.72880594 737.68256123 18.95929596 736.33617892 17.18945312 734.99023438 C11.76595395 730.86112641 6.37235197 726.69543582 1 722.5 C-1.97556083 723.88976292 -4.51113476 725.51044833 -7.1328125 727.484375 C-8.32874023 728.3822876 -8.32874023 728.3822876 -9.54882812 729.29833984 C-10.39896484 729.9423877 -11.24910156 730.58643555 -12.125 731.25 C-13.00865234 731.91596191 -13.89230469 732.58192383 -14.80273438 733.26806641 C-21.50849762 738.33568013 -28.15348414 743.4788912 -34.77661133 748.65380859 C-39.69076303 752.49171371 -44.64855103 756.26247054 -49.6484375 759.98828125 C-54.10181157 763.31508258 -58.51724067 766.69191177 -62.9375 770.0625 C-63.83758789 770.74868408 -64.73767578 771.43486816 -65.66503906 772.1418457 C-70.21807884 775.61371947 -74.76959154 779.08758766 -79.3203125 782.5625 C-87.91458188 789.12166301 -96.5264505 795.65420718 -105.1875 802.125 C-112.35465767 807.48090943 -119.44266198 812.92826433 -126.49072266 818.43969727 C-131.95825991 822.70867975 -137.4842046 826.89189989 -143.04321289 831.04077148 C-147.78203277 834.57954994 -152.492652 838.15310523 -157.1875 841.75 C-158.22874023 842.54760742 -158.22874023 842.54760742 -159.29101562 843.36132812 C-160.74905044 844.47831762 -162.20705745 845.5953434 -163.66503906 846.71240234 C-169.73868683 851.36226108 -175.82113183 856.00044099 -181.9140625 860.625 C-185.09383031 863.03995312 -188.2554573 865.4748995 -191.3984375 867.9375 C-204.84192711 878.39017644 -216.11407198 884.6929596 -233.45996094 884.79516602 C-235.46572908 884.8122088 -237.47121171 884.85606804 -239.4765625 884.90039062 C-255.24635273 885.00228291 -268.64714795 879.74199067 -280.25 868.9375 C-290.11189436 858.4424182 -297.31051367 844.09687454 -298.25390625 829.59765625 C-298.01888207 822.4685896 -296.7308356 815.82160274 -294.8828125 808.96484375 C-294.66465881 808.14750763 -294.44650513 807.33017151 -294.22174072 806.48806763 C-291.64557888 796.98572342 -288.72435674 787.59057598 -285.78756714 778.19473267 C-284.70758512 774.7392921 -283.63262728 771.28232089 -282.55883789 767.82495117 C-281.36530677 763.98220529 -280.17161801 760.13951092 -278.97621155 756.29734802 C-273.97961743 740.23541035 -269.02330392 724.16103579 -264.06478882 708.08731079 C-262.43467798 702.803103 -260.80391549 697.51909645 -259.1730957 692.23510742 C-254.58026445 677.35324679 -249.98886618 662.4709474 -245.40625 647.5859375 C-245.06444702 646.47576767 -244.72264404 645.36559784 -244.3704834 644.2217865 C-242.77123865 639.0259646 -241.17387361 633.82957622 -239.58007812 628.63208008 C-236.61383061 618.9632085 -233.62993752 609.30047616 -230.60435486 599.64997864 C-229.07777539 594.77766464 -227.55862586 589.90304843 -226.04006958 585.02822876 C-225.31175422 582.69761559 -224.57978638 580.36814031 -223.84396362 578.03988647 C-222.83345671 574.8418649 -221.83534312 571.64021917 -220.83984375 568.4375 C-220.53558472 567.4860762 -220.23132568 566.5346524 -219.91784668 565.55439758 C-219.64839233 564.67921982 -219.37893799 563.80404205 -219.10131836 562.90234375 C-218.86311874 562.14429443 -218.62491913 561.38624512 -218.37950134 560.60522461 C-217.93951815 558.16448638 -218.07918269 556.79866169 -219 554.5 C-221.2730455 552.56536575 -223.50920761 550.84289985 -225.9375 549.125 C-227.41138354 548.05246577 -228.88399388 546.9781802 -230.35546875 545.90234375 C-231.50668213 545.06485596 -231.50668213 545.06485596 -232.68115234 544.21044922 C-236.43006488 541.44514271 -240.08689939 538.56492617 -243.75 535.6875 C-250.10900441 530.71244531 -256.52901172 525.82840566 -263 521 C-271.76075443 514.46144022 -280.40241697 507.78123242 -289.01464844 501.04882812 C-299.61115155 492.78220051 -310.32143844 484.66012204 -321 476.5 C-329.88999675 469.70662638 -338.77523663 462.90749817 -347.640625 456.08203125 C-354.41444509 450.87155679 -361.20965528 445.68890501 -368 440.5 C-376.88482347 433.71057959 -385.76519588 426.91579917 -394.625 420.09375 C-397.84475562 417.61701491 -401.07116673 415.14903769 -404.29882812 412.68261719 C-405.76173244 411.56434561 -407.22397668 410.44521 -408.68554688 409.32519531 C-411.99687151 406.78851088 -415.31303801 404.26017548 -418.65625 401.765625 C-428.68417272 394.25329801 -437.27560319 387.36309934 -442 375.5 C-442.5878125 374.22576172 -442.5878125 374.22576172 -443.1875 372.92578125 C-446.2889246 365.0322249 -446.41993934 357.27796273 -446.5 348.875 C-446.51844971 347.7310376 -446.53689941 346.5870752 -446.5559082 345.40844727 C-446.49970543 337.69308613 -445.14041344 331.53677031 -442 324.5 C-441.54238281 323.46746094 -441.08476562 322.43492187 -440.61328125 321.37109375 C-432.29451709 305.8077602 -419.46557469 295.86092036 -402.76940918 290.45375061 C-399.00415387 289.50105103 -395.82598345 289.23019535 -391.95117188 289.19702148 C-391.26879487 289.18856233 -390.58641787 289.18010317 -389.88336277 289.17138767 C-387.57848234 289.14530871 -385.27374313 289.13323458 -382.96875 289.12109375 C-381.26077031 289.10502437 -379.55279804 289.08815002 -377.84483337 289.07055664 C-373.07611013 289.02415307 -368.30736587 288.9904258 -363.53852463 288.95881271 C-359.45457604 288.93016722 -355.37070473 288.8942329 -351.28681469 288.85830784 C-335.64095763 288.72116945 -319.99489512 288.61669829 -304.34877491 288.51525879 C-301.91243499 288.49943113 -299.4760958 288.48349393 -297.03975677 288.4675293 C-243.02668455 288.11374053 -189.01341563 287.79637435 -135 287.5 C-132.27545479 278.84075612 -129.55161652 270.18129024 -126.82859552 261.52156693 C-125.56312798 257.49721138 -124.29744836 253.47292283 -123.03121948 249.44880676 C-116.84663769 229.79337004 -110.69320846 210.12923612 -104.625 190.4375 C-103.91283613 188.12765245 -103.20064707 185.81781267 -102.48843384 183.50798035 C-102.14848955 182.40540107 -101.80854527 181.30282179 -101.45829964 180.16683102 C-97.70470087 167.99331958 -93.92882657 155.82684533 -90.140625 143.6640625 C-89.88546427 142.8448016 -89.63030354 142.0255407 -89.36741066 141.1814537 C-86.50248618 131.98412449 -83.63374765 122.78799351 -80.76049805 113.59326172 C-79.74515796 110.34346258 -78.72996423 107.09361774 -77.71484375 103.84375 C-77.3432718 102.65439535 -77.3432718 102.65439535 -76.96419334 101.44101334 C-73.73626501 91.10593223 -70.54114091 80.76161852 -67.37890625 70.40625 C-66.37368751 67.1305015 -65.36743833 63.85507194 -64.36065674 60.57980347 C-63.75766289 58.60894051 -63.15895995 56.63675822 -62.56512451 54.66311646 C-56.16372868 33.38868535 -48.98807949 17.58442382 -28.84765625 6.25390625 C-19.31173805 1.66584536 -10.55442552 -0.15041937 0 0 Z " fill="#FEFEFE" transform="translate(520,74.5)"/>
<path d="M0 0 C1.08539062 -0.01546875 2.17078125 -0.0309375 3.2890625 -0.046875 C20.25138585 0.03409074 34.20447448 7.72524125 46 19.5 C46.5878125 20.07621094 47.175625 20.65242188 47.78125 21.24609375 C54.87261259 28.7897116 57.80036122 39.31770129 60.79296875 49.00390625 C61.13598022 50.09416107 61.4789917 51.18441589 61.83239746 52.30770874 C62.95761867 55.89053227 64.07266397 59.47643275 65.1875 63.0625 C65.9881539 65.62004222 66.78932844 68.17741645 67.59106445 70.73461914 C69.87213359 78.01643653 72.1402786 85.30224556 74.40570068 92.58894348 C75.34518739 95.61000063 76.28595274 98.63065954 77.2265625 101.65136719 C81.27303936 114.65072274 85.30489666 127.65458093 89.33172607 140.66003418 C93.87765369 155.34017265 98.43910094 170.01548693 103.00088501 184.69070435 C104.13987545 188.35485459 105.278574 192.01909545 106.41715336 195.68337345 C115.92887715 226.29386098 125.46572858 256.89652987 135 287.5 C135.77125937 287.50423194 136.54251875 287.50846388 137.33714962 287.51282406 C147.5984673 287.56921592 157.85978154 287.62621492 168.12109375 287.68359375 C168.9727414 287.68835456 169.82438906 287.69311538 170.70184422 287.69802046 C192.29321571 287.81885453 213.88455059 287.94445976 235.47583008 288.08081055 C236.42536635 288.08680366 237.37490262 288.09279677 238.35321271 288.09897149 C247.90978305 288.15935773 257.46634944 288.22033787 267.02291125 288.2820583 C285.73787783 288.4027811 304.45277403 288.51741456 323.16796017 288.59797955 C332.45464565 288.63835019 341.74119804 288.69034696 351.02774906 288.75468159 C356.07376909 288.78916221 361.11961007 288.81703501 366.16574097 288.82785034 C370.77089234 288.83776698 375.37557213 288.86545493 379.98053741 288.90768814 C381.60377799 288.91943625 383.22708331 288.92469363 384.85036469 288.92232895 C402.31021736 288.90354315 416.90371901 293.94395204 429.71875 306.08984375 C443.73388268 320.89692742 446.65428024 335.60656497 446.41015625 355.2421875 C445.97169822 367.33357137 442.67510935 379.63538584 434 388.5 C433.42765625 389.13550781 432.8553125 389.77101563 432.265625 390.42578125 C427.2961118 395.71358972 421.64156411 399.90638572 415.796875 404.17382812 C412.35137525 406.71675675 408.96044988 409.33158478 405.5625 411.9375 C404.83232666 412.49655029 404.10215332 413.05560059 403.34985352 413.6315918 C398.01324538 417.71868749 392.68557646 421.8173236 387.359375 425.91796875 C379.85167539 431.69294897 372.31898296 437.43544975 364.79296875 443.18652344 C357.68864673 448.61571447 350.58483048 454.04538549 343.5 459.5 C334.94789849 466.08426721 326.36880362 472.63321953 317.79296875 479.18652344 C310.68864673 484.61571447 303.58483048 490.04538549 296.5 495.5 C287.94789849 502.08426721 279.36880362 508.63321953 270.79296875 515.18652344 C263.68864673 520.61571447 256.58483048 526.04538549 249.5 531.5 C244.40188018 535.42459035 239.29694464 539.3401641 234.1875 543.25 C233.49398437 543.78109375 232.80046875 544.3121875 232.0859375 544.859375 C227.41153704 548.43444227 222.71266286 551.97555925 218 555.5 C219.31652438 561.75066272 220.9136832 567.81093845 222.81640625 573.90625 C223.10035751 574.82623779 223.38430878 575.74622559 223.67686462 576.6940918 C224.63544862 579.79709053 225.59904012 582.89851205 226.5625 586 C227.25947188 588.25314472 227.95607399 590.50640384 228.65234375 592.75976562 C230.00696034 597.14230258 231.36272205 601.52448104 232.72009087 605.90616608 C235.83981504 615.97698561 238.95001614 626.05073501 242.05859375 636.125 C242.31994614 636.97195309 242.58129852 637.81890617 242.85057068 638.69152451 C243.92019168 642.15780781 244.98979037 645.624098 246.05932999 649.09040642 C247.96573482 655.26889473 249.872624 661.44723339 251.77978516 667.62548828 C263.33775258 705.06783238 274.87954749 742.51491016 286.32420731 779.99207306 C286.93259682 781.98394694 287.54131584 783.97571985 288.15011597 785.96746826 C289.27714338 789.65500381 290.40237043 793.34308725 291.52734375 797.03125 C291.86503784 798.1358255 292.20273193 799.240401 292.55065918 800.37844849 C292.8599939 801.39373627 293.16932861 802.40902405 293.48803711 803.45507812 C293.75732529 804.33748169 294.02661346 805.21988525 294.30406189 806.12902832 C296.21677244 812.64538729 296.25785561 818.71680982 296.3125 825.5 C296.34150391 826.66917969 296.37050781 827.83835937 296.40039062 829.04296875 C296.51942998 845.54365488 289.87090475 858.14441659 278.69140625 869.95703125 C266.40357195 881.56716207 251.80406694 885.36234667 235.3125 885.0625 C233.97589776 885.07176728 232.63930676 885.0828311 231.30273438 885.09570312 C220.17370739 885.01293892 211.37265833 882.81210444 202.4375 876.125 C201.86725098 875.7029126 201.29700195 875.2808252 200.70947266 874.84594727 C198.79176403 873.41546656 196.8941642 871.96150356 195 870.5 C194.27796387 869.94393066 193.55592773 869.38786133 192.81201172 868.81494141 C188.93986909 865.82497532 185.08141509 862.81798378 181.23046875 859.80078125 C176.98362046 856.47769039 172.68009185 853.23672359 168.35546875 850.015625 C163.87707407 846.6704869 159.44260349 843.2674167 155 839.875 C147.96506671 834.5041498 140.90374242 829.17124568 133.8125 823.875 C126.645251 818.51921493 119.55733534 813.07173357 112.50927734 807.56030273 C107.04174009 803.29132025 101.5157954 799.10810011 95.95678711 794.95922852 C89.77870848 790.34566394 83.65558151 785.66228788 77.53515625 780.97265625 C72.61371119 777.20181931 67.68237376 773.44402499 62.75 769.6875 C61.86868408 769.0162207 60.98736816 768.34494141 60.0793457 767.65332031 C58.28274795 766.28495003 56.48611694 764.9166234 54.68945312 763.54833984 C49.42643055 759.53991942 44.16432467 755.53029553 38.90234375 751.52050781 C34.37865638 748.07348517 29.85408628 744.62763034 25.328125 741.18359375 C24.39419922 740.47267578 23.46027344 739.76175781 22.49804688 739.02929688 C20.72880594 737.68256123 18.95929596 736.33617892 17.18945312 734.99023438 C11.76595395 730.86112641 6.37235197 726.69543582 1 722.5 C-1.97556083 723.88976292 -4.51113476 725.51044833 -7.1328125 727.484375 C-8.32874023 728.3822876 -8.32874023 728.3822876 -9.54882812 729.29833984 C-10.39896484 729.9423877 -11.24910156 730.58643555 -12.125 731.25 C-13.00865234 731.91596191 -13.89230469 732.58192383 -14.80273438 733.26806641 C-21.50849762 738.33568013 -28.15348414 743.4788912 -34.77661133 748.65380859 C-39.69076303 752.49171371 -44.64855103 756.26247054 -49.6484375 759.98828125 C-54.10181157 763.31508258 -58.51724067 766.69191177 -62.9375 770.0625 C-63.83758789 770.74868408 -64.73767578 771.43486816 -65.66503906 772.1418457 C-70.21807884 775.61371947 -74.76959154 779.08758766 -79.3203125 782.5625 C-87.91458188 789.12166301 -96.5264505 795.65420718 -105.1875 802.125 C-112.35465767 807.48090943 -119.44266198 812.92826433 -126.49072266 818.43969727 C-131.95825991 822.70867975 -137.4842046 826.89189989 -143.04321289 831.04077148 C-147.78203277 834.57954994 -152.492652 838.15310523 -157.1875 841.75 C-158.22874023 842.54760742 -158.22874023 842.54760742 -159.29101562 843.36132812 C-160.74905044 844.47831762 -162.20705745 845.5953434 -163.66503906 846.71240234 C-169.73868683 851.36226108 -175.82113183 856.00044099 -181.9140625 860.625 C-185.09383031 863.03995312 -188.2554573 865.4748995 -191.3984375 867.9375 C-204.84192711 878.39017644 -216.11407198 884.6929596 -233.45996094 884.79516602 C-235.46572908 884.8122088 -237.47121171 884.85606804 -239.4765625 884.90039062 C-255.24635273 885.00228291 -268.64714795 879.74199067 -280.25 868.9375 C-290.11189436 858.4424182 -297.31051367 844.09687454 -298.25390625 829.59765625 C-298.01888207 822.4685896 -296.7308356 815.82160274 -294.8828125 808.96484375 C-294.66465881 808.14750763 -294.44650513 807.33017151 -294.22174072 806.48806763 C-291.64557888 796.98572342 -288.72435674 787.59057598 -285.78756714 778.19473267 C-284.70758512 774.7392921 -283.63262728 771.28232089 -282.55883789 767.82495117 C-281.36530677 763.98220529 -280.17161801 760.13951092 -278.97621155 756.29734802 C-273.97961743 740.23541035 -269.02330392 724.16103579 -264.06478882 708.08731079 C-262.43467798 702.803103 -260.80391549 697.51909645 -259.1730957 692.23510742 C-254.58026445 677.35324679 -249.98886618 662.4709474 -245.40625 647.5859375 C-245.06444702 646.47576767 -244.72264404 645.36559784 -244.3704834 644.2217865 C-242.77123865 639.0259646 -241.17387361 633.82957622 -239.58007812 628.63208008 C-236.61383061 618.9632085 -233.62993752 609.30047616 -230.60435486 599.64997864 C-229.07777539 594.77766464 -227.55862586 589.90304843 -226.04006958 585.02822876 C-225.31175422 582.69761559 -224.57978638 580.36814031 -223.84396362 578.03988647 C-222.83345671 574.8418649 -221.83534312 571.64021917 -220.83984375 568.4375 C-220.53558472 567.4860762 -220.23132568 566.5346524 -219.91784668 565.55439758 C-219.64839233 564.67921982 -219.37893799 563.80404205 -219.10131836 562.90234375 C-218.86311874 562.14429443 -218.62491913 561.38624512 -218.37950134 560.60522461 C-217.93951815 558.16448638 -218.07918269 556.79866169 -219 554.5 C-221.2730455 552.56536575 -223.50920761 550.84289985 -225.9375 549.125 C-227.41138354 548.05246577 -228.88399388 546.9781802 -230.35546875 545.90234375 C-231.50668213 545.06485596 -231.50668213 545.06485596 -232.68115234 544.21044922 C-236.43006488 541.44514271 -240.08689939 538.56492617 -243.75 535.6875 C-250.10900441 530.71244531 -256.52901172 525.82840566 -263 521 C-271.76075443 514.46144022 -280.40241697 507.78123242 -289.01464844 501.04882812 C-299.61115155 492.78220051 -310.32143844 484.66012204 -321 476.5 C-329.88999675 469.70662638 -338.77523663 462.90749817 -347.640625 456.08203125 C-354.41444509 450.87155679 -361.20965528 445.68890501 -368 440.5 C-376.88482347 433.71057959 -385.76519588 426.91579917 -394.625 420.09375 C-397.84475562 417.61701491 -401.07116673 415.14903769 -404.29882812 412.68261719 C-405.76173244 411.56434561 -407.22397668 410.44521 -408.68554688 409.32519531 C-411.99687151 406.78851088 -415.31303801 404.26017548 -418.65625 401.765625 C-428.68417272 394.25329801 -437.27560319 387.36309934 -442 375.5 C-442.5878125 374.22576172 -442.5878125 374.22576172 -443.1875 372.92578125 C-446.2889246 365.0322249 -446.41993934 357.27796273 -446.5 348.875 C-446.51844971 347.7310376 -446.53689941 346.5870752 -446.5559082 345.40844727 C-446.49970543 337.69308613 -445.14041344 331.53677031 -442 324.5 C-441.54238281 323.46746094 -441.08476562 322.43492187 -440.61328125 321.37109375 C-432.29451709 305.8077602 -419.46557469 295.86092036 -402.76940918 290.45375061 C-399.00415387 289.50105103 -395.82598345 289.23019535 -391.95117188 289.19702148 C-391.26879487 289.18856233 -390.58641787 289.18010317 -389.88336277 289.17138767 C-387.57848234 289.14530871 -385.27374313 289.13323458 -382.96875 289.12109375 C-381.26077031 289.10502437 -379.55279804 289.08815002 -377.84483337 289.07055664 C-373.07611013 289.02415307 -368.30736587 288.9904258 -363.53852463 288.95881271 C-359.45457604 288.93016722 -355.37070473 288.8942329 -351.28681469 288.85830784 C-335.64095763 288.72116945 -319.99489512 288.61669829 -304.34877491 288.51525879 C-301.91243499 288.49943113 -299.4760958 288.48349393 -297.03975677 288.4675293 C-243.02668455 288.11374053 -189.01341563 287.79637435 -135 287.5 C-132.27545479 278.84075612 -129.55161652 270.18129024 -126.82859552 261.52156693 C-125.56312798 257.49721138 -124.29744836 253.47292283 -123.03121948 249.44880676 C-116.84663769 229.79337004 -110.69320846 210.12923612 -104.625 190.4375 C-103.91283613 188.12765245 -103.20064707 185.81781267 -102.48843384 183.50798035 C-102.14848955 182.40540107 -101.80854527 181.30282179 -101.45829964 180.16683102 C-97.70470087 167.99331958 -93.92882657 155.82684533 -90.140625 143.6640625 C-89.88546427 142.8448016 -89.63030354 142.0255407 -89.36741066 141.1814537 C-86.50248618 131.98412449 -83.63374765 122.78799351 -80.76049805 113.59326172 C-79.74515796 110.34346258 -78.72996423 107.09361774 -77.71484375 103.84375 C-77.3432718 102.65439535 -77.3432718 102.65439535 -76.96419334 101.44101334 C-73.73626501 91.10593223 -70.54114091 80.76161852 -67.37890625 70.40625 C-66.37368751 67.1305015 -65.36743833 63.85507194 -64.36065674 60.57980347 C-63.75766289 58.60894051 -63.15895995 56.63675822 -62.56512451 54.66311646 C-56.16372868 33.38868535 -48.98807949 17.58442382 -28.84765625 6.25390625 C-19.31173805 1.66584536 -10.55442552 -0.15041937 0 0 Z M-24 40.5 C-29.98368461 49.64879481 -32.54200052 60.98068558 -35.75 71.3125 C-36.37023536 73.2887113 -36.99117188 75.26470267 -37.61279297 77.24047852 C-39.14040758 82.10326778 -40.65819556 86.96904686 -42.17150879 91.83630371 C-42.93270297 94.28363215 -43.69578366 96.73035947 -44.45996094 99.17675781 C-47.28914605 108.23474034 -50.09665817 117.29927642 -52.88128662 126.37106323 C-55.34006353 134.37693392 -57.82499224 142.374497 -60.31974792 150.36920738 C-61.03245622 152.65319344 -61.74484281 154.93727963 -62.45715332 157.22138977 C-63.48137119 160.50561419 -64.50568967 163.7898072 -65.53009033 167.07397461 C-74.30553977 195.20844961 -83.07146474 223.34581784 -91.79296875 251.49707031 C-95.25146163 262.65830853 -98.7216633 273.81563163 -102.21875 284.96484375 C-103.20746325 288.12224931 -104.19589932 291.27974152 -105.18426514 294.43725586 C-106.09973926 297.35693705 -107.01975614 300.27516026 -107.93994141 303.19335938 C-108.48363027 304.92961492 -109.02710119 306.66593874 -109.5703125 308.40234375 C-109.81930298 309.18673325 -110.06829346 309.97112274 -110.3248291 310.77928162 C-111.26376588 313.79441796 -112 316.32189903 -112 319.5 C-112.59290624 319.4981014 -113.18581248 319.4962028 -113.79668558 319.49424666 C-148.9526692 319.38230785 -184.10862211 319.29654279 -219.26474693 319.24467335 C-223.48785893 319.23841997 -227.71097057 319.23194834 -231.93408203 319.2253418 C-232.77481229 319.22403024 -233.61554255 319.22271869 -234.48174949 319.2213674 C-248.08708822 319.19962265 -261.69232111 319.16020627 -275.2975971 319.11423602 C-289.26233202 319.06744544 -303.22701159 319.03969911 -317.19182169 319.02955753 C-325.80592812 319.02270374 -334.41973535 319.00107251 -343.03374965 318.96041767 C-348.94415532 318.93394714 -354.85440674 318.92600872 -360.76486735 318.93249311 C-364.17280973 318.93568937 -367.58023 318.93085933 -370.98807907 318.90397263 C-374.68968182 318.87904423 -378.3900112 318.88509605 -382.09164429 318.89872742 C-383.15976329 318.88416321 -384.2278823 318.869599 -385.32836854 318.85459346 C-394.04144142 318.94114138 -402.09367723 321.8039507 -408.6171875 327.82421875 C-414.9771613 335.53164463 -416.82740949 343.21868856 -416.39453125 353.07421875 C-415.51353289 360.72407582 -412.49729122 367.46600099 -406.58203125 372.59765625 C-405.66808594 373.24605469 -404.75414062 373.89445312 -403.8125 374.5625 C-402.75546875 375.32820313 -401.6984375 376.09390625 -400.609375 376.8828125 C-400.03251953 377.29821289 -399.45566406 377.71361328 -398.86132812 378.14160156 C-395.38293589 380.6801344 -391.97757625 383.31477951 -388.5625 385.9375 C-387.09505777 387.06120535 -385.62760991 388.18490333 -384.16015625 389.30859375 C-379.55553579 392.839397 -374.95709355 396.37818295 -370.359375 399.91796875 C-363.58555491 405.12844321 -356.79034472 410.31109499 -350 415.5 C-341.11000325 422.29337362 -332.22476337 429.09250183 -323.359375 435.91796875 C-316.58555491 441.12844321 -309.79034472 446.31109499 -303 451.5 C-294.11000325 458.29337362 -285.22476337 465.09250183 -276.359375 471.91796875 C-269.58555491 477.12844321 -262.79034472 482.31109499 -256 487.5 C-247.11517653 494.28942041 -238.23480412 501.08420083 -229.375 507.90625 C-225.42322578 510.94607633 -221.46139982 513.97273515 -217.5 517 C-212.4113506 520.88895558 -207.32605727 524.78212158 -202.25 528.6875 C-201.22777344 529.47253906 -200.20554687 530.25757813 -199.15234375 531.06640625 C-196.88692163 532.8153009 -194.62982135 534.57250733 -192.37890625 536.33984375 C-191.78239258 536.80559814 -191.18587891 537.27135254 -190.57128906 537.7512207 C-189.42300289 538.64813996 -188.27767222 539.54885958 -187.13574219 540.45385742 C-184.39324286 542.79563416 -184.39324286 542.79563416 -181 543.5 C-181.37334473 544.58812988 -181.74668945 545.67625977 -182.13134766 546.79736328 C-187.9832319 564.0238174 -193.26623762 581.42389924 -198.59178162 598.81810379 C-199.91634349 603.14227098 -201.2438455 607.4655351 -202.57128906 611.78881836 C-203.1079127 613.53660505 -203.6445338 615.28439253 -204.18115234 617.03218079 C-204.44661865 617.89679743 -204.71208496 618.76141407 -204.9855957 619.65223122 C-205.78768414 622.26504123 -206.58944289 624.8779522 -207.39111328 627.4908905 C-212.15643921 643.02126113 -216.94793997 658.54345206 -221.75 674.0625 C-222.76854773 677.35479516 -223.78707361 680.64709708 -224.80557251 683.93940735 C-225.39279959 685.83739433 -225.98016375 687.73533892 -226.56771851 689.63322449 C-228.00106134 694.26432151 -229.43038685 698.89662728 -230.85546875 703.53027344 C-233.16783174 711.04869098 -235.48789599 718.56472377 -237.8082962 726.08066368 C-238.60059522 728.64700212 -239.3928073 731.21336737 -240.18499756 733.77973938 C-242.43489655 741.0684477 -244.68492105 748.35711727 -246.93505859 755.64575195 C-247.21131671 756.54064331 -247.48757483 757.43553467 -247.7722044 758.35754395 C-248.32638785 760.15264621 -248.88062812 761.94773093 -249.43492603 763.74279785 C-250.79117813 768.13539548 -252.14624266 772.52835245 -253.498703 776.92211914 C-257.81613654 790.94278082 -257.81613654 790.94278082 -259.951437 797.68338299 C-260.53577349 799.52822832 -261.11661287 801.3741802 -261.69732666 803.22016907 C-262.37266082 805.36397757 -263.05437238 807.50579428 -263.74432373 809.64494324 C-266.64085031 818.87723545 -268.24840946 828.54764086 -264.03515625 837.69921875 C-258.94004942 846.56278195 -252.93783278 851.71300631 -243 854.5 C-227.98650505 856.01367007 -220.36868357 851.14574803 -209.03759766 842.10888672 C-205.04542515 838.95666807 -200.98649197 835.89113967 -196.9375 832.8125 C-196.04087646 832.12913574 -195.14425293 831.44577148 -194.22045898 830.74169922 C-188.1081559 826.08745153 -181.96711838 821.4730777 -175.8125 816.875 C-168.64533483 811.51910021 -161.55733796 806.07173562 -154.50927734 800.56030273 C-149.04174009 796.29132025 -143.5157954 792.10810011 -137.95678711 787.95922852 C-131.77870848 783.34566394 -125.65558151 778.66228788 -119.53515625 773.97265625 C-114.61371119 770.20181931 -109.68237376 766.44402499 -104.75 762.6875 C-103.86868408 762.0162207 -102.98736816 761.34494141 -102.0793457 760.65332031 C-100.28274795 759.28495003 -98.48611694 757.9166234 -96.68945312 756.54833984 C-93.16460362 753.86374586 -89.64024104 751.17851317 -86.1159668 748.49316406 C-84.37012549 747.16296822 -82.6241943 745.83289034 -80.87817383 744.50292969 C-76.48862722 741.15921329 -72.10042517 737.81375957 -67.71484375 734.46484375 C-59.10911923 727.89620773 -50.48534955 721.35481191 -41.8125 714.875 C-33.14213228 708.39391289 -24.58787093 701.77294027 -16.06005859 695.10595703 C-11.0616631 691.20936476 -6.02938387 687.35645335 -1 683.5 C2.74565275 685.14772705 5.80809583 687.5485898 9 690.0625 C10.16616957 690.97069075 11.33284714 691.87822952 12.5 692.78515625 C13.08652344 693.24164551 13.67304687 693.69813477 14.27734375 694.16845703 C16.82988329 696.14146591 19.41415787 698.07093426 22 700 C26.10930523 703.07122158 30.19041455 706.17599877 34.25 709.3125 C39.13452707 713.08529451 44.05691094 716.80430397 49 720.5 C54.81031289 724.8455627 60.58112994 729.23760967 66.32421875 733.671875 C71.03337933 737.30232636 75.76837785 740.89890919 80.5 744.5 C86.36568417 748.96437399 92.22678581 753.43400841 98.0625 757.9375 C103.00362157 761.74667867 107.98700853 765.49552601 112.984375 769.23046875 C116.09079496 771.56833144 119.17348016 773.93557363 122.25 776.3125 C127.05237204 780.02125541 131.89020194 783.67935503 136.75 787.3125 C146.36160798 794.50058396 155.89713986 801.78789637 165.3984375 809.12109375 C171.91507921 814.14936668 178.4724612 819.11611964 185.06542969 824.04370117 C189.175732 827.11954133 193.25490106 830.22997413 197.3125 833.375 C202.8277864 837.61859129 208.36683785 841.82931991 213.9375 846 C215.14563354 846.91821533 215.14563354 846.91821533 216.37817383 847.85498047 C225.10753359 854.35069672 232.18793548 855.24565962 243 854.5 C251.09455402 853.254684 257.7486655 846.8777811 262.48828125 840.49609375 C267.4158075 832.19993138 267.27858239 822.22408563 265.00292969 813.06555176 C263.60644512 808.00295087 261.9912326 803.01141681 260.375 798.015625 C259.78705248 796.14791419 259.20090803 794.27963493 258.61645508 792.41082764 C257.07852727 787.50964207 255.51707819 782.61627801 253.95013428 777.7243042 C252.38655466 772.82966821 250.84430444 767.92833378 249.30078125 763.02734375 C247.2131993 756.4050033 245.11937475 749.78471123 243.01591492 743.16739655 C239.2473782 731.31157962 235.56830103 719.43065347 231.93145752 707.53375244 C230.59256906 703.17299949 229.23510021 698.81809066 227.87857056 694.46279907 C223.88617468 681.64265841 219.94830553 668.80664777 216.0390625 655.9609375 C215.7791024 655.10684547 215.5191423 654.25275345 215.25130463 653.37277985 C212.83793062 645.44291664 210.42629447 637.51252554 208.01660156 629.58154297 C202.41619361 611.15146797 196.79348435 592.72935371 191.0234375 574.3515625 C190.80294361 573.64813091 190.58244972 572.94469933 190.3552742 572.21995163 C187.34060853 562.61089917 184.21357191 553.04447858 181 543.5 C181.93934891 543.03923065 181.93934891 543.03923065 182.89767456 542.56915283 C184.86140248 541.57048477 186.5025143 540.49509166 188.2578125 539.171875 C188.87390381 538.70918213 189.48999512 538.24648926 190.12475586 537.76977539 C190.78483643 537.26824951 191.44491699 536.76672363 192.125 536.25 C192.82439697 535.72204834 193.52379395 535.19409668 194.24438477 534.65014648 C200.27577981 530.08268876 206.24911259 525.44127035 212.21313477 520.78637695 C219.40102425 515.17697418 226.64108178 509.63760307 233.89111328 504.10888672 C237.42986878 501.40914155 240.96473896 498.70431841 244.5 496 C248.79635986 492.71416936 253.09302714 489.42874257 257.390625 486.14453125 C263.76681836 481.27129775 270.14106814 476.3957448 276.5 471.5 C285.05210151 464.91573279 293.63119638 458.36678047 302.20703125 451.81347656 C309.31135327 446.38428553 316.41516952 440.95461451 323.5 435.5 C332.05210151 428.91573279 340.63119638 422.36678047 349.20703125 415.81347656 C357.35598224 409.58597005 365.49880015 403.35092388 373.625 397.09375 C376.84498777 394.61683633 380.07161527 392.14866035 383.29956055 389.68212891 C384.76011577 388.5656055 386.21992129 387.44810067 387.67895508 386.32958984 C391.0255941 383.76506025 394.37845055 381.21137621 397.76171875 378.6953125 C409.90181608 369.79249606 409.90181608 369.79249606 416 356.5 C417.01792562 345.98143529 415.64618688 338.07652111 409.875 329.25 C403.60410773 323.25175522 396.85990166 319.37305708 388.11932755 319.37695217 C387.13252919 319.37496112 386.14573084 319.37297007 385.12902951 319.37091869 C384.04732441 319.37383153 382.9656193 319.37674437 381.85113525 319.37974548 C380.70023934 319.37889106 379.54934343 319.37803663 378.36357188 319.37715632 C375.16875197 319.37579282 371.97397252 319.37892259 368.7791574 319.38393438 C365.33406942 319.38824924 361.88898336 319.38679172 358.44389343 319.3860321 C352.47493288 319.38550753 346.50598325 319.38864742 340.53702545 319.39426994 C331.90689456 319.4023939 323.27676896 319.40500108 314.64663467 319.40625793 C300.64511673 319.40844704 286.64360462 319.41510331 272.64208984 319.42456055 C259.04020212 319.43373831 245.43831598 319.44081736 231.83642578 319.44506836 C230.99813092 319.44533108 230.15983605 319.44559381 229.29613832 319.44586449 C225.09069684 319.44716952 220.88525536 319.44843323 216.67981386 319.44967639 C181.78653842 319.46004461 146.89326975 319.4776591 112 319.5 C111.86667176 318.88945007 111.73334353 318.27890014 111.59597504 317.6498487 C111.41894197 316.84497653 111.2419089 316.04010437 111.05951118 315.21084213 C110.88493295 314.4146672 110.71035471 313.61849227 110.53048623 312.79819083 C109.83570127 309.78821932 108.96317545 306.85547393 108.04248047 303.90722656 C107.65872253 302.67202774 107.2749646 301.43682892 106.87957764 300.16419983 C106.45884558 298.82298794 106.03804664 297.48179702 105.6171875 296.140625 C105.16970433 294.70509114 104.72254962 293.26945486 104.2756958 291.83372498 C103.06558966 287.94883149 101.85101737 284.06534738 100.63565826 280.18209457 C99.35320283 276.08162916 98.0749945 271.9798403 96.79638672 267.87817383 C94.64045732 260.96385794 92.48215549 254.05028671 90.32226562 247.13720703 C87.0276468 236.59169696 83.73958889 226.04414771 80.453125 215.49609375 C79.38298194 212.06152135 78.3128309 208.62695145 77.24267578 205.19238281 C76.85142989 203.93668078 76.85142989 203.93668078 76.45228004 202.65561104 C74.68891359 196.99638298 72.92458355 191.33745605 71.15966797 185.67871094 C64.69421226 164.94805308 58.24800845 144.21153046 51.8215332 123.46875 C50.24243135 118.37219143 48.66031399 113.27658837 47.07572937 108.18173218 C45.78293842 104.02336632 44.49317711 99.8640746 43.20556641 95.70410156 C41.54023242 90.32434624 39.87049333 84.94597169 38.19854736 79.56826782 C37.53023936 77.41618696 36.8633441 75.26366682 36.19793701 73.11068726 C35.25426808 70.05826775 34.30540445 67.00750542 33.35546875 63.95703125 C33.07657303 63.05074982 32.79767731 62.14446838 32.5103302 61.21072388 C27.42144376 44.88675508 27.42144376 44.88675508 15.16015625 33.578125 C2.06679243 27.04328157 -14.23740495 29.39165068 -24 40.5 Z " fill="#000000" transform="translate(520,74.5)"/>
<path d="M0 0 C2.7972908 2.06756277 3.02692273 3.14440371 3.6875 6.6875 C3.790625 7.780625 3.89375 8.87375 4 10 C1.03 9.505 1.03 9.505 -2 9 C-2.20625 9.804375 -2.4125 10.60875 -2.625 11.4375 C-3.07875 12.283125 -3.5325 13.12875 -4 14 C-7.125 14.8125 -7.125 14.8125 -10 15 C-10 12 -10 12 -8.8125 10.375 C-6.58593199 8.68587944 -4.74148672 8.37047118 -2 8 C-1.855625 7.236875 -1.71125 6.47375 -1.5625 5.6875 C-1 3 -1 3 0 0 Z " fill="#FFFFFF" transform="translate(800,944)"/>
<path d="M0 0 C1.9451 2.91765 2.45276317 4.62537285 3 8 C3.928125 8.2475 4.85625 8.495 5.8125 8.75 C9.16458325 10.06454245 10.1877803 10.97963384 12 14 C8.98968256 14.93423645 8.13349732 15.04449911 5 14 C3.8125 11.4375 3.8125 11.4375 3 9 C1.02 9.33 -0.96 9.66 -3 10 C-2.69201674 8.51988629 -2.378482 7.04092675 -2.0625 5.5625 C-1.88847656 4.73878906 -1.71445313 3.91507813 -1.53515625 3.06640625 C-1 1 -1 1 0 0 Z " fill="#FFFFFF" transform="translate(239,944)"/>
<path d="M0 0 C0.66 0.33 1.32 0.66 2 1 C-1.3 4.3 -4.6 7.6 -8 11 C-8 7.0234755 -6.61988497 5.9109833 -4 3 C-1.75 1.1875 -1.75 1.1875 0 0 Z " fill="#C7C7C7" transform="translate(117,398)"/>
<path d="M0 0 C0.66 0.33 1.32 0.66 2 1 C-1.3 4.3 -4.6 7.6 -8 11 C-8 7.0234755 -6.61988497 5.9109833 -4 3 C-1.75 1.1875 -1.75 1.1875 0 0 Z " fill="#C7C7C7" transform="translate(503,109)"/>
</svg>
