<?xml version="1.0" encoding="UTF-8"?>
<svg version="1.1" xmlns="http://www.w3.org/2000/svg" width="1040" height="1040">
<path d="M0 0 C0.74056641 0.33765381 1.48113281 0.67530762 2.24414062 1.02319336 C17.43685788 8.45361212 28.76668454 20.97283587 40.52270508 32.79125977 C42.45251051 34.72194112 44.38457267 36.65035855 46.31652832 38.57888794 C50.99575356 43.25251267 55.66702798 47.93400541 60.33561084 52.61825842 C65.78151401 58.0817939 71.23556112 63.5371699 76.68995925 68.99222242 C86.42463179 78.72857869 96.15224571 88.47195615 105.87573242 98.21948242 C115.29606371 107.66308659 124.72094198 117.10212004 134.15112305 126.53588867 C134.73245067 127.11743906 135.3137783 127.69898946 135.91272191 128.29816259 C137.08395423 129.46983753 138.25518685 130.64151218 139.42641978 131.81318652 C140.29320201 132.68029811 140.29320201 132.68029811 141.177495 133.5649271 C141.75395875 134.14160683 142.3304225 134.71828657 142.92435484 135.31244144 C151.93467901 144.32647178 160.94117565 153.34432585 169.94714466 162.36270716 C173.20293795 165.62292388 176.45922123 168.88265027 179.7158489 172.14203352 C184.88034256 177.31097142 190.04314337 182.48158814 195.2025976 187.65555663 C197.55772481 190.01725987 199.91384647 192.37794583 202.27160454 194.73702431 C204.83258589 197.29976141 207.39046822 199.86555282 209.94758606 202.43214417 C210.68552755 203.16921917 211.42346903 203.90629418 212.18377239 204.66570479 C215.43863113 207.93861059 218.60131045 211.24112634 221.61226273 214.74062729 C225.72516012 219.50370706 230.16683504 223.91122061 234.63121033 228.34281921 C236.02828991 229.73588869 236.02828991 229.73588869 237.45359331 231.15710098 C239.48619569 233.18382844 241.52039488 235.20893441 243.55586624 237.23278046 C246.86905428 240.52706496 250.1786828 243.82491132 253.48789978 247.1231842 C257.67170187 251.29262683 261.85645219 255.4611139 266.04232682 259.62847582 C274.2707438 267.82052298 282.49288035 276.01884788 290.71278381 284.21943665 C292.00933994 285.51288247 293.30589975 286.8063246 294.60246319 288.0997631 C296.56705283 290.05962719 298.5316388 292.01949497 300.49621002 293.97937753 C307.89283882 301.35830354 315.29015938 308.73653565 322.68823242 316.11401367 C323.3640356 316.78793979 324.03983877 317.46186591 324.73612083 318.15621404 C335.68537001 329.07457932 346.64197672 339.98553569 357.60085922 350.89423075 C368.86978543 362.11198887 380.12907479 373.33935671 391.37997061 384.57519847 C398.3100546 391.4953412 405.24769832 398.40772215 412.19540323 405.31017438 C416.95974666 410.04485088 421.71480052 414.78872804 426.46279376 419.53980007 C429.19771688 422.27593593 431.93645811 425.0079237 434.68647003 427.72890091 C437.21106766 430.2270148 439.72351183 432.73675015 442.22736139 435.25565419 C443.54989624 436.58024859 444.88465225 437.89260742 446.22001404 439.20426959 C454.04257393 447.11748348 460.3781947 456.32794308 464.125 466.875 C464.50527344 467.91785156 464.88554688 468.96070313 465.27734375 470.03515625 C469.84785238 483.98207315 469.38082645 505.26881664 463.73046875 518.76953125 C462.96669922 520.27580078 462.96669922 520.27580078 462.1875 521.8125 C461.66800781 522.86824219 461.14851562 523.92398438 460.61328125 525.01171875 C456.76066675 532.16914009 451.91444534 538.07523584 446.1875 543.8125 C445.64738281 544.36421875 445.10726562 544.9159375 444.55078125 545.484375 C428.62275779 560.40937431 410.14715105 562.41056703 389.41479492 562.26660156 C387.12719238 562.26547168 384.83958839 562.2661097 382.55198669 562.26837158 C376.37513875 562.26951413 370.19860469 562.24607905 364.02182937 562.21807575 C357.55430829 562.19298551 351.08677916 562.19071409 344.61921692 562.18597412 C333.77464758 562.17497433 322.93020627 562.15002928 312.08569336 562.11425781 C300.92196214 562.07747196 289.75826211 562.04919251 278.59448242 562.03222656 C277.56013107 562.03065022 277.56013107 562.03065022 276.50488373 562.02904204 C273.04509764 562.02382142 269.58531133 562.0187667 266.12552488 562.01379442 C237.4794394 561.97241119 208.83347419 561.90173223 180.1875 561.8125 C180.19075513 562.59584351 180.19401026 563.37918702 180.19736403 564.18626821 C180.38991168 610.6153378 180.56665455 657.0444445 180.72287826 703.47365125 C180.74165062 709.04867805 180.76055501 714.62370439 180.77954102 720.19873047 C180.78331856 721.30861606 180.78709611 722.41850165 180.79098812 723.56202014 C180.85246545 741.53224631 180.92463774 759.50241441 181.0007638 777.47258382 C181.07864019 795.91214246 181.1450203 814.35171666 181.20073253 832.79135573 C181.23547111 844.16924606 181.27917228 855.54702944 181.33434484 866.92483933 C181.37132157 874.72742374 181.39712959 882.52999535 181.41417392 890.33264856 C181.42433627 894.83410723 181.43940448 899.33540793 181.46774101 903.83679199 C181.49359642 907.96133282 181.50536412 912.08566985 181.50612888 916.21028943 C181.50885571 917.69903651 181.51666504 919.18778521 181.53019472 920.6764733 C181.66682399 936.35586103 177.93084937 949.87327436 167.01879883 961.64331055 C155.05618769 973.80590747 141.04517883 979.75469842 124.05536556 979.94392776 C121.54765875 979.9520246 119.03993063 979.95462242 116.5322113 979.95294189 C115.13371466 979.95552812 113.73521876 979.95854199 112.33672386 979.9619453 C108.50302907 979.96998845 104.66935303 979.97180337 100.8356508 979.97254276 C96.69708468 979.97439802 92.55852818 979.98194775 88.41996765 979.98867798 C79.37427743 980.00224302 70.32859164 980.00828325 61.28289294 980.01268864 C55.63079977 980.01545431 49.97870831 980.01969227 44.32661629 980.02419281 C28.66656699 980.03638339 13.00651905 980.04668292 -2.65353489 980.0500679 C-3.655255 980.05028747 -4.65697511 980.05050703 -5.68905037 980.05073325 C-7.19515415 980.05106067 -7.19515415 980.05106067 -8.73168427 980.0513947 C-10.76619121 980.05183816 -12.80069814 980.05228472 -14.83520508 980.05273438 C-16.34897233 980.05306652 -16.34897233 980.05306652 -17.89332073 980.05340537 C-34.23728382 980.05735148 -50.58120228 980.07480073 -66.92514814 980.0980939 C-83.71968342 980.1218353 -100.51419633 980.13427103 -117.30874866 980.13543582 C-126.73239794 980.13635104 -136.15598906 980.14206479 -145.57962227 980.16025543 C-153.60570358 980.17569413 -161.63170876 980.18075472 -169.65780211 980.17251733 C-173.74865583 980.16862406 -177.8393564 980.16947528 -181.93019104 980.18357468 C-185.6840078 980.19639353 -189.4375576 980.19504692 -193.19137441 980.18298396 C-195.17397285 980.18012857 -197.15657626 980.19190194 -199.13913733 980.20440602 C-216.28130302 980.11088582 -231.02133363 976.15318558 -243.56640625 964.08984375 C-244.30761719 963.33832031 -245.04882812 962.58679688 -245.8125 961.8125 C-246.78509766 960.85537109 -246.78509766 960.85537109 -247.77734375 959.87890625 C-259.1145261 947.94633577 -261.12447341 934.48540408 -261.01504517 918.72790527 C-261.01178402 917.18657668 -261.00941191 915.64524599 -261.0078491 914.10391474 C-261.00100628 909.88054061 -260.98159051 905.65730432 -260.96008825 901.43398285 C-260.93909206 896.87513678 -260.92980346 892.31626497 -260.91908264 887.75738525 C-260.89891993 879.86281704 -260.87136319 871.96830252 -260.83876419 864.07377625 C-260.79164243 852.65966335 -260.75570325 841.24553671 -260.72248094 829.8313759 C-260.66827499 811.31203257 -260.60504307 792.79273152 -260.53613281 774.2734375 C-260.46921784 756.28516991 -260.40655511 738.29689578 -260.34960938 720.30859375 C-260.34609693 719.19953318 -260.34258449 718.09047262 -260.33896561 716.94780415 C-260.3213707 711.38389494 -260.30385937 705.81998547 -260.28638959 700.25607586 C-260.14138452 654.10816993 -259.98173023 607.96032302 -259.8125 561.8125 C-260.994339 561.81710896 -262.176178 561.82171793 -263.3938303 561.82646656 C-291.50010438 561.93494801 -319.60636801 562.01729845 -347.71280676 562.06782665 C-351.17841126 562.07407957 -354.64401531 562.08055124 -358.10961914 562.0871582 C-358.79950711 562.08846976 -359.48939508 562.08978131 -360.20018875 562.0911326 C-371.34488239 562.11284055 -382.489446 562.15223634 -393.63406271 562.19826398 C-405.08455291 562.24515758 -416.53493798 562.27244869 -427.98552698 562.28294247 C-434.41084589 562.28944388 -440.83587067 562.30465547 -447.26109505 562.34115028 C-453.31775543 562.37527061 -459.37400252 562.38552053 -465.43074989 562.37803841 C-467.6449636 562.37940579 -469.85919216 562.38924177 -472.0733223 562.40852737 C-493.55748372 562.58636627 -510.54948668 558.27729928 -526.640625 542.98046875 C-527.71570313 541.90732422 -527.71570313 541.90732422 -528.8125 540.8125 C-529.36421875 540.27238281 -529.9159375 539.73226562 -530.484375 539.17578125 C-542.71106246 526.12740781 -547.5796084 509.45779281 -547.375 491.9375 C-547.37074005 491.27985657 -547.3664801 490.62221313 -547.36209106 489.94464111 C-547.26971087 479.69121866 -546.50580576 471.06841187 -541.8125 461.8125 C-541.29300781 460.75675781 -540.77351562 459.70101563 -540.23828125 458.61328125 C-534.26247297 447.51137169 -525.02450571 438.87358623 -516.15951538 430.04598999 C-514.76493951 428.65119083 -514.76493951 428.65119083 -513.34219038 427.22821391 C-510.79011795 424.675849 -508.23496768 422.12658576 -505.67926407 419.57785749 C-502.91258783 416.8176048 -500.14886112 414.05440154 -497.38478088 411.29154968 C-492.60322916 406.51287368 -487.81990864 401.73597429 -483.03541183 396.96024704 C-476.10985412 390.04728942 -469.18757725 383.1310538 -462.26617117 376.21393974 C-451.02360735 364.97843046 -439.77917653 353.74479179 -428.53320312 342.51269531 C-427.86125926 341.84157926 -427.18931539 341.1704632 -426.49700959 340.4790103 C-421.72722257 335.71512396 -416.95736862 330.95130464 -412.1875 326.1875 C-406.73530452 320.7422346 -401.28314056 315.29693764 -395.83105469 309.8515625 C-395.15932903 309.18066496 -394.48760336 308.50976743 -393.79552238 307.81853966 C-382.5870902 296.62380311 -371.38062915 285.42709537 -360.17556727 274.22898543 C-353.27268575 267.33057762 -346.3680342 260.43395061 -339.46106876 253.53963174 C-334.72934665 248.81634893 -329.99940527 244.09128786 -325.27084826 239.36483644 C-322.54519554 236.64052554 -319.81872677 233.91704462 -317.09003258 231.1957798 C-314.12780333 228.24158519 -311.16949437 225.28349497 -308.21151733 222.32504272 C-307.35480104 221.47192139 -306.49808474 220.61880006 -305.61540735 219.73982656 C-301.4237524 215.54096266 -297.4102911 211.26578572 -293.54035032 206.76990545 C-290.39893482 203.21113433 -287.03340531 199.8746331 -283.68215942 196.51480103 C-282.89188036 195.71872857 -282.10160129 194.92265612 -281.28737438 194.10246027 C-278.65634113 191.45348638 -276.02182051 188.80801039 -273.38720703 186.16259766 C-271.9756649 184.74272249 -270.56412605 183.32284404 -269.152824 181.90273024 C-262.46389208 175.17212171 -255.76782358 168.44863259 -249.0703125 161.7265625 C-248.54080716 161.19508226 -248.01130183 160.66360203 -247.46575087 160.11601633 C-236.92887501 149.53994717 -226.38921309 138.96665776 -215.84385872 128.39904213 C-213.53095698 126.08117214 -211.21809341 123.76326408 -208.90527344 121.4453125 C-208.33052134 120.86928974 -207.75576925 120.29326697 -207.16360043 119.69978897 C-197.86232567 110.37717325 -188.57496313 101.0408222 -179.29309441 91.69888933 C-169.7381198 82.08260023 -160.16978933 72.47975798 -150.58873832 62.88944852 C-145.21985664 57.51468263 -139.8569294 52.1342625 -134.50915909 46.73848343 C-129.95337737 42.14183706 -125.38559505 37.55754076 -120.80232175 32.98829891 C-118.47019925 30.66258506 -116.1458617 28.32997443 -113.83299065 25.98509407 C-82.90919234 -5.34364223 -41.96253265 -19.16637848 0 0 Z " fill="#FEFEFE" transform="translate(556.8125,33.1875)"/>
<path d="M0 0 C4.08650639 1.62359407 6.82667265 4.55051442 9.86274719 7.61550903 C10.73638728 8.4855275 10.73638728 8.4855275 11.62767667 9.3731221 C13.57989548 11.31970118 15.52487843 13.27335248 17.4699707 15.22705078 C18.86763006 16.62363728 20.26572225 18.01979072 21.66421509 19.4155426 C25.4643779 23.21085265 29.25825141 27.01239337 33.050915 30.81519556 C37.02286142 34.79592373 41.00007719 38.77138072 44.97660828 42.74752808 C51.6589628 49.43081972 58.33743078 56.11797523 65.01342773 62.80761719 C72.72171323 70.53159976 80.43518381 78.25037236 88.15168887 85.96614277 C96.3734767 94.18725365 104.59144475 102.41217476 112.80830741 110.63820791 C115.17139277 113.00342007 117.53518387 115.36792496 119.89913368 117.7322731 C123.6237881 121.45793634 127.34586628 125.18615513 131.06601334 128.91631889 C132.42805364 130.28126641 133.79092535 131.6453849 135.15471077 133.00858879 C146.74683538 144.59764225 146.74683538 144.59764225 150.4730835 148.97705078 C156.01115628 155.47198799 162.24274767 161.35505836 168.28881836 167.37060547 C169.73833952 168.81656616 171.18762315 170.262765 172.63668823 171.70918274 C175.74437954 174.81034917 178.85357193 177.90999984 181.96391106 181.00851059 C186.87817798 185.90443318 191.78805089 190.8047463 196.69715881 195.70584106 C210.65251604 209.63708092 224.61383151 223.56234086 238.5793457 237.48339844 C246.30217192 245.1817178 254.02143275 252.88359429 261.73684794 260.58934128 C266.62086847 265.46680484 271.50936925 270.33971983 276.40118682 275.20936275 C279.43296589 278.22945633 282.46059839 281.25367961 285.48704147 284.27911949 C286.89627741 285.6861987 288.30724635 287.09154458 289.7200222 288.4950695 C291.64009205 290.40304574 293.55399725 292.3169945 295.46641541 294.2326355 C296.03360997 294.79332226 296.60080453 295.35400902 297.1851868 295.93168628 C301 299.77178468 301 299.77178468 301 302 C299.44256718 302.00358253 299.44256718 302.00358253 297.85367107 302.00723743 C272.61666286 302.06597187 247.37975058 302.14181696 222.14284801 302.23571491 C209.93858388 302.28072465 197.73434926 302.3201273 185.5300293 302.34643555 C174.89560476 302.36937376 164.26127325 302.40272477 153.62692243 302.44870156 C147.99352299 302.47269025 142.36021599 302.49138196 136.72676659 302.49761391 C131.42854122 302.50363929 126.13055256 302.52354638 120.83241463 302.55427551 C118.88410965 302.56309675 116.93577379 302.56676993 114.98744965 302.56500816 C112.33451108 302.56336613 109.6823034 302.57996235 107.02946472 302.60127258 C106.25223169 302.59642501 105.47499866 302.59157743 104.67421311 302.58658296 C100.79251787 302.59581339 100.79251787 302.59581339 97.30380678 304.09590054 C95.3295191 306.97918061 95.62046856 309.3811561 95.61523914 312.85035229 C95.61008924 313.5544889 95.60493933 314.25862551 95.59963337 314.9840996 C95.58593527 317.3614975 95.59372104 319.73834978 95.60127258 322.11576843 C95.59583736 323.83015428 95.58908759 325.54453639 95.58113068 327.25891238 C95.56303016 331.98383079 95.5636716 336.70859265 95.56726015 341.4335376 C95.56788193 346.52353807 95.55128341 351.61348505 95.53674316 356.70346069 C95.51391045 365.52681049 95.50206402 374.35012068 95.49761391 383.17349815 C95.49116397 395.93071598 95.46824701 408.68786207 95.44127061 421.44505105 C95.39795553 442.14117305 95.36801577 462.83729204 95.34643555 483.53344727 C95.32543998 503.64153528 95.29814303 523.7495985 95.26245117 543.85766602 C95.25913091 545.73485566 95.25913091 545.73485566 95.25574356 547.64996833 C95.23838394 557.43675363 95.22065804 567.22353826 95.20281637 577.01032269 C95.11541075 625.00686642 95.05996215 673.00339898 95 721 C32.96 721 -29.08 721 -93 721 C-93.03738281 691.07699219 -93.07476562 661.15398438 -93.11328125 630.32421875 C-93.14353882 611.42512574 -93.17453064 592.52603827 -93.20898438 573.62695312 C-93.22703563 563.70385782 -93.24489976 553.78076221 -93.26245117 543.85766602 C-93.2657627 541.99201586 -93.2657627 541.99201586 -93.26914114 540.0886758 C-93.30454946 519.98652843 -93.32938616 499.8843811 -93.35034702 479.78221407 C-93.37207904 459.1650983 -93.4051046 438.54802313 -93.44870156 417.93094188 C-93.47526316 405.20033364 -93.49292529 392.46977604 -93.49934604 379.73914144 C-93.50458617 371.01940856 -93.52075659 362.2997395 -93.54566566 353.58004078 C-93.55972799 348.54280015 -93.56883391 343.50567389 -93.56500816 338.4684124 C-93.56161589 333.86245446 -93.57185819 329.25674142 -93.59323552 324.6508337 C-93.5985352 322.97919817 -93.59870535 321.3075374 -93.59339563 319.63590189 C-93.5869388 317.37375498 -93.59869478 315.1124303 -93.61523914 312.85035229 C-93.61713775 311.59081995 -93.61903635 310.33128762 -93.62099248 309.03358763 C-93.759809 306.03876403 -93.759809 306.03876403 -95.30380678 304.09590054 C-98.25379484 302.18993047 -101.62879131 302.5800627 -105.02946472 302.60127258 C-106.270626 302.59130234 -106.270626 302.59130234 -107.53686124 302.58113068 C-110.31921292 302.56242598 -113.1011374 302.56511097 -115.88354492 302.56762695 C-117.87411612 302.55861435 -119.86468175 302.54828838 -121.85523987 302.53674316 C-127.26812725 302.50908813 -132.68090958 302.49987712 -138.09385848 302.49388909 C-143.74737345 302.48452751 -149.40080925 302.45832599 -155.05427551 302.43388367 C-165.76394848 302.39015386 -176.47360614 302.36164673 -187.18334132 302.33856028 C-199.37427634 302.31154331 -211.56513198 302.26762968 -223.75601041 302.22227156 C-248.83729728 302.12933247 -273.91860905 302.0576942 -299 302 C-297.35733251 297.79615575 -294.25736389 294.98786352 -291.11201477 291.87823486 C-290.19806066 290.96277582 -290.19806066 290.96277582 -289.26564282 290.02882266 C-287.21998003 287.98220626 -285.1672503 285.94282803 -283.11450195 283.90332031 C-281.64731437 282.43833374 -280.18057407 280.97289909 -278.71424866 279.50704956 C-275.55344028 276.34917684 -272.38949772 273.19448994 -269.22310829 270.04221344 C-264.21304516 265.05440769 -259.21007134 260.05953184 -254.20805359 255.06365967 C-246.29060536 247.15760047 -238.36850199 239.25622477 -230.44436568 231.35686946 C-216.26823173 217.22500068 -202.09758051 203.08763964 -187.93222207 188.94496989 C-182.96254728 183.98368565 -177.99007734 179.02522506 -173.01531851 174.06903887 C-169.91380189 170.97820111 -166.81434434 167.88530452 -163.71538353 164.79190445 C-162.28243173 163.36240959 -160.84860959 161.93378653 -159.41383362 160.50612259 C-150.39163365 151.55058431 -150.39163365 151.55058431 -141.88488865 142.11227036 C-136.95868747 136.5918017 -131.5912188 131.46266282 -126.35375977 126.24023438 C-124.97321948 124.85997653 -123.59290009 123.47949772 -122.21278381 122.09881592 C-118.48414758 118.36989393 -114.7524462 114.64405332 -111.0201695 110.91877556 C-107.11328782 107.01816447 -103.2092564 103.11470272 -99.30491638 99.21154785 C-91.91938398 91.82911786 -84.53130717 84.44923972 -77.14230341 77.07028437 C-68.7267771 68.66595308 -60.31410557 60.25876665 -51.90166771 51.85134411 C-34.60427717 34.56439326 -17.30332063 17.28101501 0 0 Z " fill="#FEFEFE" transform="translate(516,167)"/>
<path d="M0 0 C1.88157654 1.28907776 1.88157654 1.28907776 3.74780273 3.01391602 C4.44211395 3.65185089 5.13642517 4.28978577 5.85177612 4.947052 C9.41301218 8.35034368 12.93182433 11.78928954 16.41015625 15.27734375 C17.18129257 16.04752335 17.95242889 16.81770294 18.74693298 17.61122131 C20.36580153 19.22941373 21.98342551 20.84885212 23.59985352 22.46948242 C26.05568718 24.93067232 28.51681365 27.38647809 30.97851562 29.84179688 C32.56021653 31.42415867 34.14160717 33.00683067 35.72265625 34.58984375 C36.44888687 35.31405014 37.17511749 36.03825653 37.9233551 36.78440857 C41.21415757 40.09014938 44.41319803 43.4255483 47.45678711 46.96118164 C51.40914743 51.54094968 55.67062176 55.77798694 59.96875 60.03125 C60.8078894 60.86660278 61.64702881 61.70195557 62.51159668 62.56262207 C65.171969 65.21087086 67.83556013 67.85584406 70.5 70.5 C74.01337273 73.98662601 77.52331971 77.47664926 81.03125 80.96875 C81.82623901 81.75544067 82.62122803 82.54213135 83.44030762 83.35266113 C87.54120201 87.4356772 91.4411653 91.60612766 95.21569824 95.99084473 C98.56207301 99.75892178 102.16865851 103.26959933 105.75 106.8125 C106.97541504 108.03223511 106.97541504 108.03223511 108.22558594 109.27661133 C110.81462671 111.85353297 113.40688737 114.42717625 116 117 C119.41962719 120.39287153 122.83582149 123.78914657 126.25 127.1875 C127.02311523 127.95231689 127.79623047 128.71713379 128.59277344 129.50512695 C132.64026183 133.53449095 136.48182899 137.65671768 140.20800781 141.9831543 C143.5577239 145.75318217 147.1660317 149.26700072 150.75 152.8125 C151.56694336 153.62565674 152.38388672 154.43881348 153.22558594 155.27661133 C155.81462671 157.85353297 158.40688737 160.42717625 161 163 C164.41962719 166.39287153 167.83582149 169.78914657 171.25 173.1875 C172.02311523 173.95231689 172.79623047 174.71713379 173.59277344 175.50512695 C177.64026183 179.53449095 181.48182899 183.65671768 185.20800781 187.9831543 C188.5577239 191.75318217 192.1660317 195.26700072 195.75 198.8125 C196.56694336 199.62565674 197.38388672 200.43881348 198.22558594 201.27661133 C200.81462671 203.85353297 203.40688737 206.42717625 206 209 C209.41962719 212.39287153 212.83582149 215.78914657 216.25 219.1875 C217.02311523 219.95231689 217.79623047 220.71713379 218.59277344 221.50512695 C222.64026183 225.53449095 226.48182899 229.65671768 230.20800781 233.9831543 C233.5577239 237.75318217 237.1660317 241.26700072 240.75 244.8125 C241.56694336 245.62565674 242.38388672 246.43881348 243.22558594 247.27661133 C245.81462671 249.85353297 248.40688737 252.42717625 251 255 C254.41962719 258.39287153 257.83582149 261.78914657 261.25 265.1875 C262.02311523 265.95231689 262.79623047 266.71713379 263.59277344 267.50512695 C267.64026183 271.53449095 271.48182899 275.65671768 275.20800781 279.9831543 C278.5577239 283.75318217 282.1660317 287.26700072 285.75 290.8125 C286.56694336 291.62565674 287.38388672 292.43881348 288.22558594 293.27661133 C290.81462671 295.85353297 293.40688737 298.42717625 296 301 C299.41962719 304.39287153 302.83582149 307.78914657 306.25 311.1875 C307.02311523 311.95231689 307.79623047 312.71713379 308.59277344 313.50512695 C312.65769344 317.55184449 316.51962579 321.69144513 320.26177979 326.03692627 C323.31329884 329.48318518 326.59367372 332.69597152 329.8671875 335.9296875 C330.58738068 336.64609406 331.30757385 337.36250061 332.04959106 338.10061646 C334.32228841 340.36121562 336.59822829 342.61850488 338.875 344.875 C341.8960785 347.86954456 344.91386591 350.86734985 347.9296875 353.8671875 C348.62440155 354.55360321 349.3191156 355.24001892 350.03488159 355.94723511 C350.67289703 356.58194733 351.31091248 357.21665955 351.96826172 357.87060547 C352.53116913 358.42827606 353.09407654 358.98594666 353.67404175 359.56051636 C355.83214578 361.90339212 356.0104283 363.11262565 356.3125 366.375 C356 370 356 370 354.54202652 372.19649887 C350.78374127 374.86290366 347.51990094 374.54205549 343.01507568 374.48101807 C341.63787554 374.48614462 341.63787554 374.48614462 340.23285317 374.49137473 C337.14938625 374.49797521 334.06678546 374.47594147 330.98339844 374.45410156 C328.77594015 374.45297356 326.56848036 374.45360603 324.36102295 374.45587158 C318.36132028 374.45702147 312.36193606 374.43346736 306.36230755 374.40557575 C300.0949279 374.38060807 293.82754134 374.37822375 287.56011963 374.37347412 C277.03839975 374.36244542 266.51677858 374.3374432 255.99511719 374.30175781 C245.15788356 374.26504035 234.32068171 374.23672732 223.48339844 374.21972656 C222.81536232 374.21867567 222.14732621 374.21762477 221.45904657 374.21654204 C218.10769735 374.21132188 214.7563479 374.20626705 211.4049983 374.20129442 C183.60325066 374.15945923 155.80163355 374.0890806 128 374 C128.00151888 374.89565225 128.00303776 375.79130451 128.00460267 376.71409774 C128.09404679 429.75638815 128.16271171 482.7986706 128.20426132 535.84102128 C128.20926436 542.20488671 128.21444162 548.56875199 128.21972656 554.93261719 C128.2207758 556.19958861 128.22182505 557.46656003 128.22290608 558.77192453 C128.24032798 579.306934 128.27187548 599.84189884 128.30861118 620.37688181 C128.34597097 641.43580943 128.36822533 662.49471362 128.37635398 683.55367303 C128.38185206 696.55610402 128.39923901 709.55840888 128.43166587 722.56080106 C128.45275253 731.46787682 128.45921335 740.37488704 128.45400551 749.28198597 C128.4514346 754.42674508 128.45547222 759.57128324 128.4768219 764.71600342 C128.49620641 769.42133937 128.49732302 774.12630462 128.48359558 778.8316572 C128.48189757 780.53831939 128.48704026 782.24500419 128.49953273 783.9516215 C128.51547881 786.26355502 128.50700124 788.57413289 128.49219131 790.88604355 C128.4937102 792.17253603 128.49522908 793.45902851 128.49679399 794.78450561 C128 798 128 798 126.2491796 800.41316199 C123.7252218 802.19386112 122.57277747 802.50080391 119.52093506 802.50336456 C118.62368839 802.51379555 117.72644173 802.52422654 116.80200577 802.53497362 C115.82030285 802.52605073 114.83859993 802.51712785 113.82714844 802.50793457 C112.7811636 802.51417453 111.73517876 802.5204145 110.65749741 802.52684355 C107.1412295 802.54283952 103.62564845 802.530143 100.109375 802.51757812 C97.59313552 802.52299628 95.07689921 802.53011721 92.56066895 802.53881836 C86.42895397 802.55519187 80.29749471 802.55275743 74.16577625 802.5411678 C69.1830516 802.53213927 64.20038185 802.53090694 59.21765137 802.53526306 C58.50885574 802.53587599 57.80006011 802.53648893 57.06978583 802.53712043 C55.62994288 802.53839932 54.19009994 802.53969617 52.75025702 802.5410108 C39.24446615 802.55242074 25.73878383 802.53929643 12.23301077 802.51780933 C0.64096323 802.49993794 -10.9509241 802.50304193 -22.54296875 802.52148438 C-35.99996962 802.54288382 -49.45687533 802.55132207 -62.91389084 802.53903532 C-64.34847767 802.53776111 -65.78306451 802.53650362 -67.21765137 802.53526306 C-67.9235208 802.53464596 -68.62939023 802.53402886 -69.35664964 802.53339306 C-74.33418449 802.52993736 -79.31165905 802.5357732 -84.28918457 802.54518127 C-90.98690211 802.55756226 -97.68426977 802.54876498 -104.38197327 802.52560425 C-106.84427892 802.52030223 -109.30660999 802.52185626 -111.76890564 802.53065491 C-115.12200132 802.54153457 -118.47411581 802.52793754 -121.82714844 802.50793457 C-122.80885136 802.51685746 -123.79055428 802.52578034 -124.80200577 802.53497362 C-125.69925243 802.52454263 -126.5964991 802.51411164 -127.52093506 802.50336456 C-128.68190516 802.50239045 -128.68190516 802.50239045 -129.86632919 802.50139666 C-132.99354748 801.76652378 -134.12170352 800.58886273 -136 798 C-136.49679399 794.78450561 -136.49679399 794.78450561 -136.49219131 790.88604355 C-136.49680669 790.16555773 -136.50142207 789.44507191 -136.50617731 788.70275319 C-136.51681021 786.2755683 -136.49878471 783.84943348 -136.48101807 781.42230225 C-136.48276155 779.66993214 -136.48626237 777.91756304 -136.49137473 776.16519952 C-136.50034227 771.33983682 -136.4842867 766.51482752 -136.46426249 761.68950987 C-136.44702744 756.48980418 -136.45283139 751.29011927 -136.45587158 746.09039307 C-136.45797145 737.07821664 -136.44539575 728.06615583 -136.42292023 719.05400848 C-136.39044534 706.02389172 -136.37999783 692.993831 -136.37496826 679.96367815 C-136.36620852 658.82438653 -136.33957453 637.68515657 -136.30175781 616.54589844 C-136.26505529 596.00814116 -136.23673492 575.47040062 -136.21972656 554.93261719 C-136.21867567 553.66718196 -136.21762477 552.40174673 -136.21654204 551.09796497 C-136.21132198 544.7498014 -136.20626712 538.40163772 -136.20129442 532.05347395 C-136.15981125 479.36894001 -136.08934434 426.68447301 -136 374 C-137.72612329 374.00553076 -137.72612329 374.00553076 -139.48711777 374.01117325 C-166.79290287 374.0977721 -194.09867305 374.16374572 -221.40456723 374.20426132 C-224.76417787 374.20926425 -228.12378823 374.21444153 -231.48339844 374.21972656 C-232.48667114 374.22130043 -232.48667114 374.22130043 -233.51021197 374.22290608 C-244.34545307 374.24031958 -255.18060942 374.27186243 -266.01580021 374.30861118 C-277.13061263 374.3459944 -288.24539044 374.36793081 -299.36026406 374.37635398 C-305.60465833 374.38157769 -311.8488603 374.39389101 -318.09319305 374.42292023 C-323.96674922 374.45000534 -329.84003326 374.45845892 -335.71364594 374.45243073 C-337.87280759 374.45353405 -340.03197804 374.46152875 -342.19108582 374.4768219 C-345.13275344 374.49664151 -348.0733855 374.49196834 -351.01507568 374.48101807 C-351.87499674 374.49266943 -352.73491779 374.5043208 -353.62089705 374.51632524 C-357.43160318 374.47782298 -359.36925383 374.45753179 -362.51858902 372.17306137 C-364.80610382 368.81753741 -364.73058313 366.9849989 -364 363 C-362.67077637 361.15515137 -362.67077637 361.15515137 -360.93554688 359.24804688 C-360.29955566 358.54832764 -359.66356445 357.8486084 -359.00830078 357.12768555 C-355.84901297 353.78059178 -352.61855356 350.51511106 -349.34375 347.28125 C-348.2848053 346.22798523 -348.2848053 346.22798523 -347.20446777 345.15344238 C-344.22102625 342.18616234 -341.2315929 339.22494637 -338.24267578 336.26318359 C-336.04509421 334.08381535 -333.85062062 331.90135053 -331.65625 329.71875 C-330.99250366 329.063302 -330.32875732 328.407854 -329.64489746 327.73254395 C-326.49870084 324.60264783 -323.46478837 321.43171378 -320.56835938 318.06835938 C-316.67360353 313.55698629 -312.48528354 309.37732353 -308.25 305.1875 C-307.43305664 304.37434326 -306.61611328 303.56118652 -305.77441406 302.72338867 C-302.31304958 299.2782266 -298.84571409 295.8390971 -295.37890625 292.39941406 C-292.83384812 289.87253492 -290.29186869 287.34258685 -287.75 284.8125 C-286.59032715 283.66527466 -286.59032715 283.66527466 -285.40722656 282.49487305 C-281.98515145 279.08812178 -278.65179989 275.6595298 -275.5 272 C-271.63155795 267.50838267 -267.46239067 263.35467639 -263.25 259.1875 C-262.02458496 257.96776489 -262.02458496 257.96776489 -260.77441406 256.72338867 C-257.31304958 253.2782266 -253.84571409 249.8390971 -250.37890625 246.39941406 C-247.83384812 243.87253492 -245.29186869 241.34258685 -242.75 238.8125 C-241.97688477 238.04768311 -241.20376953 237.28286621 -240.40722656 236.49487305 C-236.98515145 233.08812178 -233.65179989 229.6595298 -230.5 226 C-226.63155795 221.50838267 -222.46239067 217.35467639 -218.25 213.1875 C-217.02458496 211.96776489 -217.02458496 211.96776489 -215.77441406 210.72338867 C-212.31304958 207.2782266 -208.84571409 203.8390971 -205.37890625 200.39941406 C-202.83384812 197.87253492 -200.29186869 195.34258685 -197.75 192.8125 C-196.97688477 192.04768311 -196.20376953 191.28286621 -195.40722656 190.49487305 C-191.98515145 187.08812178 -188.65179989 183.6595298 -185.5 180 C-181.63155795 175.50838267 -177.46239067 171.35467639 -173.25 167.1875 C-172.02458496 165.96776489 -172.02458496 165.96776489 -170.77441406 164.72338867 C-167.31304958 161.2782266 -163.84571409 157.8390971 -160.37890625 154.39941406 C-157.83384812 151.87253492 -155.29186869 149.34258685 -152.75 146.8125 C-151.97688477 146.04768311 -151.20376953 145.28286621 -150.40722656 144.49487305 C-146.98515145 141.08812178 -143.65179989 137.6595298 -140.5 134 C-136.63155795 129.50838267 -132.46239067 125.35467639 -128.25 121.1875 C-127.43305664 120.37434326 -126.61611328 119.56118652 -125.77441406 118.72338867 C-122.31304958 115.2782266 -118.84571409 111.8390971 -115.37890625 108.39941406 C-112.83384812 105.87253492 -110.29186869 103.34258685 -107.75 100.8125 C-106.97688477 100.04768311 -106.20376953 99.28286621 -105.40722656 98.49487305 C-101.9896717 95.09262178 -98.66042695 91.66912565 -95.51367188 88.01367188 C-91.57400769 83.43944981 -87.32046601 79.21319385 -83.03125 74.96875 C-82.1921106 74.13339722 -81.35297119 73.29804443 -80.48840332 72.43737793 C-76.9314548 68.89663871 -73.3685388 65.36192676 -69.80615234 61.82666016 C-67.19159836 59.2302794 -64.58011816 56.63083434 -61.96875 54.03125 C-61.17376099 53.24455933 -60.37877197 52.45786865 -59.55969238 51.64733887 C-55.45479015 47.56033243 -51.54687348 43.3870683 -47.76858521 38.99789429 C-44.50321775 35.30914976 -40.99881118 31.85652461 -37.51171875 28.37890625 C-36.33510429 27.2008567 -36.33510429 27.2008567 -35.13471985 25.99900818 C-33.49135024 24.35496283 -31.84673625 22.71216047 -30.20092773 21.07055664 C-27.67379852 18.5488278 -25.15210712 16.02174836 -22.63085938 13.49414062 C-21.02896676 11.89290805 -19.42676437 10.29198529 -17.82421875 8.69140625 C-17.06904465 7.93420792 -16.31387054 7.17700958 -15.53581238 6.39686584 C-14.83781021 5.70201584 -14.13980804 5.00716583 -13.4206543 4.29125977 C-12.49968208 3.37148094 -12.49968208 3.37148094 -11.56010437 2.43312073 C-8.2037164 -0.65007631 -4.33650535 -0.9277203 0 0 Z M-9.0468027 48.78397799 C-9.60428063 49.34659948 -10.16175856 49.90922097 -10.73612976 50.4888916 C-11.62558256 51.37472278 -11.62558256 51.37472278 -12.53300411 52.27844954 C-14.53290661 54.27268448 -16.5255379 56.27403284 -18.51831055 58.27539062 C-19.94523084 59.70123872 -21.3725838 61.12665393 -22.80033875 62.55166626 C-26.68946561 66.43592884 -30.57228501 70.32644181 -34.4539144 74.21819496 C-38.51530082 78.28834702 -42.58194031 82.35324414 -46.64790344 86.41882324 C-53.48344546 93.25530329 -60.31509614 100.09565254 -67.14428711 106.93847656 C-75.03089995 114.84077557 -82.92268702 122.73787604 -90.81751412 130.63196802 C-99.2238303 139.03760723 -107.62632601 147.44705758 -116.02771783 155.85761833 C-118.44542665 158.27745456 -120.86384178 160.69658296 -123.28241539 163.11555481 C-127.09404547 166.92819364 -130.90309985 170.74338797 -134.71022224 174.5605278 C-136.10451168 175.95772512 -137.49963323 177.35409265 -138.89566803 178.74954605 C-146.91696154 186.66908677 -146.91696154 186.66908677 -154.49801636 195.00198364 C-159.99792184 201.45732329 -166.18976513 207.30209159 -172.19702148 213.27880859 C-173.63669058 214.71491716 -175.07612211 216.15126392 -176.51533508 217.58782959 C-179.60174533 220.66771528 -182.68965667 223.74608511 -185.77871513 226.82331467 C-190.65937756 231.68563185 -195.53564517 236.55234035 -200.41114807 241.41983032 C-214.27092396 255.25548951 -228.13665897 269.08516776 -242.0065918 282.91064453 C-249.67668032 290.55622615 -257.34320337 298.2053649 -265.00588089 305.85837424 C-269.85644993 310.70238639 -274.71149892 315.54184979 -279.56986511 320.37804103 C-282.58088527 323.37737564 -285.58775874 326.38083995 -288.59344292 329.38552094 C-289.99300352 330.78292482 -291.3942971 332.17859541 -292.79739761 333.57244492 C-294.70433058 335.46728408 -296.60509803 337.36809532 -298.50437927 339.27059937 C-299.34933469 340.10579308 -299.34933469 340.10579308 -300.21135992 340.9578594 C-303.09941659 343.4994041 -303.09941659 343.4994041 -304 347 C-302.44256718 347.00358253 -302.44256718 347.00358253 -300.85367107 347.00723743 C-275.61666286 347.06597187 -250.37975058 347.14181696 -225.14284801 347.23571491 C-212.93858388 347.28072465 -200.73434926 347.3201273 -188.5300293 347.34643555 C-177.89560476 347.36937376 -167.26127325 347.40272477 -156.62692243 347.44870156 C-150.99352299 347.47269025 -145.36021599 347.49138196 -139.72676659 347.49761391 C-134.42854122 347.50363929 -129.13055256 347.52354638 -123.83241463 347.55427551 C-121.88410965 347.56309675 -119.93577379 347.56676993 -117.98744965 347.56500816 C-115.33451108 347.56336613 -112.6823034 347.57996235 -110.02946472 347.60127258 C-109.25223169 347.59642501 -108.47499866 347.59157743 -107.67421311 347.58658296 C-102.53384692 347.65508462 -102.53384692 347.65508462 -100.30380678 349.09590054 C-98.3295191 351.97918061 -98.62046856 354.3811561 -98.61523914 357.85035229 C-98.61008924 358.5544889 -98.60493933 359.25862551 -98.59963337 359.9840996 C-98.58593527 362.3614975 -98.59372104 364.73834978 -98.60127258 367.11576843 C-98.59583736 368.83015428 -98.58908759 370.54453639 -98.58113068 372.25891238 C-98.56303016 376.98383079 -98.5636716 381.70859265 -98.56726015 386.4335376 C-98.56788193 391.52353807 -98.55128341 396.61348505 -98.53674316 401.70346069 C-98.51391045 410.52681049 -98.50206402 419.35012068 -98.49761391 428.17349815 C-98.49116397 440.93071598 -98.46824701 453.68786207 -98.44127061 466.44505105 C-98.39795553 487.14117305 -98.36801577 507.83729204 -98.34643555 528.53344727 C-98.32543998 548.64153528 -98.29814303 568.7495985 -98.26245117 588.85766602 C-98.26023766 590.10912578 -98.25802415 591.36058554 -98.25574356 592.64996833 C-98.23838394 602.43675363 -98.22065804 612.22353826 -98.20281637 622.01032269 C-98.11541075 670.00686642 -98.05996215 718.00339898 -98 766 C-35.96 766 26.08 766 90 766 C90.05607422 721.11548828 90.05607422 721.11548828 90.11328125 675.32421875 C90.14353882 656.42512574 90.17453064 637.52603827 90.20898438 618.62695312 C90.22703563 608.70385782 90.24489976 598.78076221 90.26245117 588.85766602 C90.26465886 587.61389924 90.26686655 586.37013247 90.26914114 585.0886758 C90.30454946 564.98652843 90.32938616 544.8843811 90.35034702 524.78221407 C90.37207904 504.1650983 90.4051046 483.54802313 90.44870156 462.93094188 C90.47526316 450.20033364 90.49292529 437.46977604 90.49934604 424.73914144 C90.50458617 416.01940856 90.52075659 407.2997395 90.54566566 398.58004078 C90.55972799 393.54280015 90.56883391 388.50567389 90.56500816 383.4684124 C90.56161589 378.86245446 90.57185819 374.25674142 90.59323552 369.6508337 C90.5985352 367.97919817 90.59870535 366.3075374 90.59339563 364.63590189 C90.5869388 362.37375498 90.59869478 360.1124303 90.61523914 357.85035229 C90.61713775 356.59081995 90.61903635 355.33128762 90.62099248 354.03358763 C91 351 91 351 92.30380678 349.09590054 C95.25379484 347.18993047 98.62879131 347.5800627 102.02946472 347.60127258 C102.85690557 347.59462576 103.68434642 347.58797893 104.53686124 347.58113068 C107.31921292 347.56242598 110.1011374 347.56511097 112.88354492 347.56762695 C114.87411612 347.55861435 116.86468175 347.54828838 118.85523987 347.53674316 C124.26812725 347.50908813 129.68090958 347.49987712 135.09385848 347.49388909 C140.74737345 347.48452751 146.40080925 347.45832599 152.05427551 347.43388367 C162.76394848 347.39015386 173.47360614 347.36164673 184.18334132 347.33856028 C196.37427634 347.31154331 208.56513198 347.26762968 220.75601041 347.22227156 C245.83729728 347.12933247 270.91860905 347.0576942 296 347 C294.3546941 342.77973639 291.23015773 339.96077692 288.0740509 336.840271 C287.46066461 336.22588142 286.84727831 335.61149184 286.21530455 334.97848439 C284.15582247 332.91804866 282.08927266 330.8648507 280.02270508 328.81152344 C278.54566541 327.33668476 277.06907302 325.86139803 275.59289551 324.38569641 C272.41080626 321.20654287 269.22558259 318.03057503 266.03791237 314.85701752 C260.99424459 309.83560653 255.95766552 304.80712591 250.92204285 299.77764893 C242.95147068 291.81846587 234.97624326 283.86396622 226.99898309 275.91148686 C212.72765423 261.68442327 198.46180859 247.45186701 184.20125502 233.21400285 C179.19812856 228.21926727 174.19220684 223.22735524 169.1839968 218.23771715 C166.06172149 215.12612017 162.94150482 212.0124648 159.82178497 208.89830589 C158.37915773 207.4591358 156.93566014 206.02083752 155.49120903 204.583498 C143.10474673 192.25665444 143.10474673 192.25665444 137.8741045 186.10344315 C132.98884653 180.62036448 127.66942656 175.52188919 122.47729492 170.33203125 C121.10986825 168.96160855 119.74264554 167.59098229 118.37561035 166.22016907 C114.68215263 162.51792015 110.98549742 158.81888031 107.28796172 155.12070465 C104.97822632 152.81025688 102.66920504 150.49909791 100.36043739 148.18768311 C92.30767508 140.12568916 84.25235372 132.06626251 76.19458008 124.00927734 C68.67758197 116.49288201 61.16620126 108.97090494 53.6573841 101.4463377 C47.20816672 94.98407392 40.75512959 88.52564161 34.29906541 82.07021809 C30.4436253 78.21503348 26.58976935 74.35829655 22.73973656 70.49771118 C19.12687157 66.87521207 15.50930008 63.25748208 11.88796234 59.6434536 C10.55668393 58.31322634 9.22712886 56.98127193 7.89938545 55.64751625 C6.09427567 53.83475936 4.283191 52.0281977 2.47038269 50.22314453 C1.9401414 49.68775968 1.40990011 49.15237482 0.8635909 48.60076618 C-3.64625658 44.13378232 -4.56766331 44.34536789 -9.0468027 48.78397799 Z " fill="#000000" transform="translate(521,122)"/>
<path d="M0 0 C0.74056641 0.33765381 1.48113281 0.67530762 2.24414062 1.02319336 C17.43685788 8.45361212 28.76668454 20.97283587 40.52270508 32.79125977 C42.45251051 34.72194112 44.38457267 36.65035855 46.31652832 38.57888794 C50.99575356 43.25251267 55.66702798 47.93400541 60.33561084 52.61825842 C65.78151401 58.0817939 71.23556112 63.5371699 76.68995925 68.99222242 C86.42463179 78.72857869 96.15224571 88.47195615 105.87573242 98.21948242 C115.29606371 107.66308659 124.72094198 117.10212004 134.15112305 126.53588867 C134.73245067 127.11743906 135.3137783 127.69898946 135.91272191 128.29816259 C137.08395423 129.46983753 138.25518685 130.64151218 139.42641978 131.81318652 C140.29320201 132.68029811 140.29320201 132.68029811 141.177495 133.5649271 C141.75395875 134.14160683 142.3304225 134.71828657 142.92435484 135.31244144 C151.93467901 144.32647178 160.94117565 153.34432585 169.94714466 162.36270716 C173.20293795 165.62292388 176.45922123 168.88265027 179.7158489 172.14203352 C184.88034256 177.31097142 190.04314337 182.48158814 195.2025976 187.65555663 C197.55772481 190.01725987 199.91384647 192.37794583 202.27160454 194.73702431 C204.83258589 197.29976141 207.39046822 199.86555282 209.94758606 202.43214417 C210.68552755 203.16921917 211.42346903 203.90629418 212.18377239 204.66570479 C215.43863113 207.93861059 218.60131045 211.24112634 221.61226273 214.74062729 C225.72516012 219.50370706 230.16683504 223.91122061 234.63121033 228.34281921 C236.02828991 229.73588869 236.02828991 229.73588869 237.45359331 231.15710098 C239.48619569 233.18382844 241.52039488 235.20893441 243.55586624 237.23278046 C246.86905428 240.52706496 250.1786828 243.82491132 253.48789978 247.1231842 C257.67170187 251.29262683 261.85645219 255.4611139 266.04232682 259.62847582 C274.2707438 267.82052298 282.49288035 276.01884788 290.71278381 284.21943665 C292.00933994 285.51288247 293.30589975 286.8063246 294.60246319 288.0997631 C296.56705283 290.05962719 298.5316388 292.01949497 300.49621002 293.97937753 C307.89283882 301.35830354 315.29015938 308.73653565 322.68823242 316.11401367 C323.3640356 316.78793979 324.03983877 317.46186591 324.73612083 318.15621404 C335.68537001 329.07457932 346.64197672 339.98553569 357.60085922 350.89423075 C368.86978543 362.11198887 380.12907479 373.33935671 391.37997061 384.57519847 C398.3100546 391.4953412 405.24769832 398.40772215 412.19540323 405.31017438 C416.95974666 410.04485088 421.71480052 414.78872804 426.46279376 419.53980007 C429.19771688 422.27593593 431.93645811 425.0079237 434.68647003 427.72890091 C437.21106766 430.2270148 439.72351183 432.73675015 442.22736139 435.25565419 C443.54989624 436.58024859 444.88465225 437.89260742 446.22001404 439.20426959 C454.04257393 447.11748348 460.3781947 456.32794308 464.125 466.875 C464.50527344 467.91785156 464.88554688 468.96070313 465.27734375 470.03515625 C469.84785238 483.98207315 469.38082645 505.26881664 463.73046875 518.76953125 C462.96669922 520.27580078 462.96669922 520.27580078 462.1875 521.8125 C461.66800781 522.86824219 461.14851562 523.92398438 460.61328125 525.01171875 C456.76066675 532.16914009 451.91444534 538.07523584 446.1875 543.8125 C445.64738281 544.36421875 445.10726562 544.9159375 444.55078125 545.484375 C428.62275779 560.40937431 410.14715105 562.41056703 389.41479492 562.26660156 C387.12719238 562.26547168 384.83958839 562.2661097 382.55198669 562.26837158 C376.37513875 562.26951413 370.19860469 562.24607905 364.02182937 562.21807575 C357.55430829 562.19298551 351.08677916 562.19071409 344.61921692 562.18597412 C333.77464758 562.17497433 322.93020627 562.15002928 312.08569336 562.11425781 C300.92196214 562.07747196 289.75826211 562.04919251 278.59448242 562.03222656 C277.56013107 562.03065022 277.56013107 562.03065022 276.50488373 562.02904204 C273.04509764 562.02382142 269.58531133 562.0187667 266.12552488 562.01379442 C237.4794394 561.97241119 208.83347419 561.90173223 180.1875 561.8125 C180.19075513 562.59584351 180.19401026 563.37918702 180.19736403 564.18626821 C180.38991168 610.6153378 180.56665455 657.0444445 180.72287826 703.47365125 C180.74165062 709.04867805 180.76055501 714.62370439 180.77954102 720.19873047 C180.78331856 721.30861606 180.78709611 722.41850165 180.79098812 723.56202014 C180.85246545 741.53224631 180.92463774 759.50241441 181.0007638 777.47258382 C181.07864019 795.91214246 181.1450203 814.35171666 181.20073253 832.79135573 C181.23547111 844.16924606 181.27917228 855.54702944 181.33434484 866.92483933 C181.37132157 874.72742374 181.39712959 882.52999535 181.41417392 890.33264856 C181.42433627 894.83410723 181.43940448 899.33540793 181.46774101 903.83679199 C181.49359642 907.96133282 181.50536412 912.08566985 181.50612888 916.21028943 C181.50885571 917.69903651 181.51666504 919.18778521 181.53019472 920.6764733 C181.66682399 936.35586103 177.93084937 949.87327436 167.01879883 961.64331055 C155.05618769 973.80590747 141.04517883 979.75469842 124.05536556 979.94392776 C121.54765875 979.9520246 119.03993063 979.95462242 116.5322113 979.95294189 C115.13371466 979.95552812 113.73521876 979.95854199 112.33672386 979.9619453 C108.50302907 979.96998845 104.66935303 979.97180337 100.8356508 979.97254276 C96.69708468 979.97439802 92.55852818 979.98194775 88.41996765 979.98867798 C79.37427743 980.00224302 70.32859164 980.00828325 61.28289294 980.01268864 C55.63079977 980.01545431 49.97870831 980.01969227 44.32661629 980.02419281 C28.66656699 980.03638339 13.00651905 980.04668292 -2.65353489 980.0500679 C-3.655255 980.05028747 -4.65697511 980.05050703 -5.68905037 980.05073325 C-7.19515415 980.05106067 -7.19515415 980.05106067 -8.73168427 980.0513947 C-10.76619121 980.05183816 -12.80069814 980.05228472 -14.83520508 980.05273438 C-16.34897233 980.05306652 -16.34897233 980.05306652 -17.89332073 980.05340537 C-34.23728382 980.05735148 -50.58120228 980.07480073 -66.92514814 980.0980939 C-83.71968342 980.1218353 -100.51419633 980.13427103 -117.30874866 980.13543582 C-126.73239794 980.13635104 -136.15598906 980.14206479 -145.57962227 980.16025543 C-153.60570358 980.17569413 -161.63170876 980.18075472 -169.65780211 980.17251733 C-173.74865583 980.16862406 -177.8393564 980.16947528 -181.93019104 980.18357468 C-185.6840078 980.19639353 -189.4375576 980.19504692 -193.19137441 980.18298396 C-195.17397285 980.18012857 -197.15657626 980.19190194 -199.13913733 980.20440602 C-216.28130302 980.11088582 -231.02133363 976.15318558 -243.56640625 964.08984375 C-244.30761719 963.33832031 -245.04882812 962.58679688 -245.8125 961.8125 C-246.78509766 960.85537109 -246.78509766 960.85537109 -247.77734375 959.87890625 C-259.1145261 947.94633577 -261.12447341 934.48540408 -261.01504517 918.72790527 C-261.01178402 917.18657668 -261.00941191 915.64524599 -261.0078491 914.10391474 C-261.00100628 909.88054061 -260.98159051 905.65730432 -260.96008825 901.43398285 C-260.93909206 896.87513678 -260.92980346 892.31626497 -260.91908264 887.75738525 C-260.89891993 879.86281704 -260.87136319 871.96830252 -260.83876419 864.07377625 C-260.79164243 852.65966335 -260.75570325 841.24553671 -260.72248094 829.8313759 C-260.66827499 811.31203257 -260.60504307 792.79273152 -260.53613281 774.2734375 C-260.46921784 756.28516991 -260.40655511 738.29689578 -260.34960938 720.30859375 C-260.34609693 719.19953318 -260.34258449 718.09047262 -260.33896561 716.94780415 C-260.3213707 711.38389494 -260.30385937 705.81998547 -260.28638959 700.25607586 C-260.14138452 654.10816993 -259.98173023 607.96032302 -259.8125 561.8125 C-260.994339 561.81710896 -262.176178 561.82171793 -263.3938303 561.82646656 C-291.50010438 561.93494801 -319.60636801 562.01729845 -347.71280676 562.06782665 C-351.17841126 562.07407957 -354.64401531 562.08055124 -358.10961914 562.0871582 C-358.79950711 562.08846976 -359.48939508 562.08978131 -360.20018875 562.0911326 C-371.34488239 562.11284055 -382.489446 562.15223634 -393.63406271 562.19826398 C-405.08455291 562.24515758 -416.53493798 562.27244869 -427.98552698 562.28294247 C-434.41084589 562.28944388 -440.83587067 562.30465547 -447.26109505 562.34115028 C-453.31775543 562.37527061 -459.37400252 562.38552053 -465.43074989 562.37803841 C-467.6449636 562.37940579 -469.85919216 562.38924177 -472.0733223 562.40852737 C-493.55748372 562.58636627 -510.54948668 558.27729928 -526.640625 542.98046875 C-527.71570313 541.90732422 -527.71570313 541.90732422 -528.8125 540.8125 C-529.36421875 540.27238281 -529.9159375 539.73226562 -530.484375 539.17578125 C-542.71106246 526.12740781 -547.5796084 509.45779281 -547.375 491.9375 C-547.37074005 491.27985657 -547.3664801 490.62221313 -547.36209106 489.94464111 C-547.26971087 479.69121866 -546.50580576 471.06841187 -541.8125 461.8125 C-541.29300781 460.75675781 -540.77351562 459.70101563 -540.23828125 458.61328125 C-534.26247297 447.51137169 -525.02450571 438.87358623 -516.15951538 430.04598999 C-514.76493951 428.65119083 -514.76493951 428.65119083 -513.34219038 427.22821391 C-510.79011795 424.675849 -508.23496768 422.12658576 -505.67926407 419.57785749 C-502.91258783 416.8176048 -500.14886112 414.05440154 -497.38478088 411.29154968 C-492.60322916 406.51287368 -487.81990864 401.73597429 -483.03541183 396.96024704 C-476.10985412 390.04728942 -469.18757725 383.1310538 -462.26617117 376.21393974 C-451.02360735 364.97843046 -439.77917653 353.74479179 -428.53320312 342.51269531 C-427.86125926 341.84157926 -427.18931539 341.1704632 -426.49700959 340.4790103 C-421.72722257 335.71512396 -416.95736862 330.95130464 -412.1875 326.1875 C-406.73530452 320.7422346 -401.28314056 315.29693764 -395.83105469 309.8515625 C-395.15932903 309.18066496 -394.48760336 308.50976743 -393.79552238 307.81853966 C-382.5870902 296.62380311 -371.38062915 285.42709537 -360.17556727 274.22898543 C-353.27268575 267.33057762 -346.3680342 260.43395061 -339.46106876 253.53963174 C-334.72934665 248.81634893 -329.99940527 244.09128786 -325.27084826 239.36483644 C-322.54519554 236.64052554 -319.81872677 233.91704462 -317.09003258 231.1957798 C-314.12780333 228.24158519 -311.16949437 225.28349497 -308.21151733 222.32504272 C-307.35480104 221.47192139 -306.49808474 220.61880006 -305.61540735 219.73982656 C-301.4237524 215.54096266 -297.4102911 211.26578572 -293.54035032 206.76990545 C-290.39893482 203.21113433 -287.03340531 199.8746331 -283.68215942 196.51480103 C-282.89188036 195.71872857 -282.10160129 194.92265612 -281.28737438 194.10246027 C-278.65634113 191.45348638 -276.02182051 188.80801039 -273.38720703 186.16259766 C-271.9756649 184.74272249 -270.56412605 183.32284404 -269.152824 181.90273024 C-262.46389208 175.17212171 -255.76782358 168.44863259 -249.0703125 161.7265625 C-248.54080716 161.19508226 -248.01130183 160.66360203 -247.46575087 160.11601633 C-236.92887501 149.53994717 -226.38921309 138.96665776 -215.84385872 128.39904213 C-213.53095698 126.08117214 -211.21809341 123.76326408 -208.90527344 121.4453125 C-208.33052134 120.86928974 -207.75576925 120.29326697 -207.16360043 119.69978897 C-197.86232567 110.37717325 -188.57496313 101.0408222 -179.29309441 91.69888933 C-169.7381198 82.08260023 -160.16978933 72.47975798 -150.58873832 62.88944852 C-145.21985664 57.51468263 -139.8569294 52.1342625 -134.50915909 46.73848343 C-129.95337737 42.14183706 -125.38559505 37.55754076 -120.80232175 32.98829891 C-118.47019925 30.66258506 -116.1458617 28.32997443 -113.83299065 25.98509407 C-82.90919234 -5.34364223 -41.96253265 -19.16637848 0 0 Z M-59.8125 17.8125 C-60.79476563 18.24949219 -61.77703125 18.68648437 -62.7890625 19.13671875 C-72.02361741 23.50193639 -79.49447244 29.257497 -86.87329102 36.25878906 C-87.83625894 37.16546515 -87.83625894 37.16546515 -88.81868076 38.09045792 C-95.94448979 44.83085622 -102.90254602 51.73850108 -109.83984375 58.671875 C-111.2083918 60.03719857 -112.57700998 61.40245185 -113.94569397 62.76763916 C-116.77666355 65.59269479 -119.60563521 68.4197332 -122.43334961 71.24804688 C-126.06317042 74.87797074 -129.69991079 78.50088034 -133.33829403 82.12221909 C-136.14939391 84.92225072 -138.95598815 87.72676434 -141.76129341 90.5326004 C-143.10217635 91.87230229 -144.44468345 93.21038063 -145.78883171 94.54680634 C-147.6503478 96.39859602 -149.50550666 98.25652636 -151.35913086 100.11621094 C-152.19340103 100.94205185 -152.19340103 100.94205185 -153.04452515 101.78457642 C-155.91915902 104.32126117 -155.91915902 104.32126117 -156.8125 107.8125 C-157.40039307 108.07442139 -157.98828613 108.33634277 -158.59399414 108.60620117 C-160.93159667 109.87725808 -162.44902604 111.21987956 -164.30859375 113.11328125 C-165.27055664 114.08491211 -165.27055664 114.08491211 -166.25195312 115.07617188 C-166.91130859 115.75228516 -167.57066406 116.42839844 -168.25 117.125 C-168.90548828 117.78951172 -169.56097656 118.45402344 -170.23632812 119.13867188 C-171.51815832 120.43850169 -172.79776259 121.74053101 -174.07495117 123.04492188 C-175.54288428 124.53822463 -177.02744494 126.01515504 -178.515625 127.48828125 C-180.81530214 129.8153355 -182.97260269 132.22424458 -185.125 134.6875 C-188.60349781 138.59716839 -192.21225819 142.05397139 -196.28125 145.33984375 C-198.08040487 146.84192829 -198.08040487 146.84192829 -198.8125 149.8125 C-199.8025 150.1425 -200.7925 150.4725 -201.8125 150.8125 C-203.00400188 152.2356828 -204.1910862 153.66319043 -205.33984375 155.12109375 C-207.46488581 157.56179193 -209.92716109 159.50899025 -212.45703125 161.515625 C-212.90433594 161.94359375 -213.35164063 162.3715625 -213.8125 162.8125 C-213.8125 163.4725 -213.8125 164.1325 -213.8125 164.8125 C-214.8025 165.1425 -215.7925 165.4725 -216.8125 165.8125 C-218.26758153 167.24549794 -218.26758153 167.24549794 -219.7109375 169.08203125 C-224.93155664 175.23402201 -230.71473868 180.82104376 -236.4375 186.5 C-237.56794381 187.62541457 -238.69815372 188.75106412 -239.828125 189.87695312 C-241.90432238 191.94505747 -243.9818659 194.01178792 -246.06103516 196.0769043 C-248.64970379 198.65064272 -251.23136013 201.23121429 -253.8125 203.8125 C-255.61976119 205.6158759 -257.42734633 207.41892718 -259.23518372 209.22172546 C-260.32152406 210.30513405 -261.40785796 211.38854909 -262.4941864 212.4719696 C-263.06872244 213.04495474 -263.64325848 213.61793987 -264.2352047 214.20828819 C-277.46149594 227.39921072 -290.68206296 240.5958579 -303.89938831 253.79576397 C-311.5391931 261.42522949 -319.18088165 269.05279082 -326.8269043 276.67602539 C-333.50455447 283.33378403 -340.17871893 289.99501358 -346.84866637 296.66048938 C-350.37836064 300.18757126 -353.90980826 303.71285728 -357.44544411 307.23398399 C-360.76493067 310.53995459 -364.07975851 313.85052365 -367.39098358 317.16476822 C-368.60993909 318.38317108 -369.83062429 319.59984616 -371.05311394 320.81470299 C-372.71494573 322.46666099 -374.37058114 324.12458426 -376.0247345 325.78422546 C-376.95478208 326.71242946 -377.88482965 327.64063345 -378.84306049 328.59696484 C-381.03395932 330.56757625 -381.03395932 330.56757625 -380.8125 332.8125 C-381.40039307 333.07442139 -381.98828613 333.33634277 -382.59399414 333.60620117 C-384.93159667 334.87725808 -386.44902604 336.21987956 -388.30859375 338.11328125 C-388.94990234 338.76103516 -389.59121094 339.40878906 -390.25195312 340.07617188 C-390.91130859 340.75228516 -391.57066406 341.42839844 -392.25 342.125 C-392.90548828 342.78951172 -393.56097656 343.45402344 -394.23632812 344.13867188 C-395.51815832 345.43850169 -396.79776259 346.74053101 -398.07495117 348.04492188 C-399.54288428 349.53822463 -401.02744494 351.01515504 -402.515625 352.48828125 C-404.81530214 354.8153355 -406.97260269 357.22424458 -409.125 359.6875 C-412.60349781 363.59716839 -416.21225819 367.05397139 -420.28125 370.33984375 C-422.08040487 371.84192829 -422.08040487 371.84192829 -422.8125 374.8125 C-423.8025 375.1425 -424.7925 375.4725 -425.8125 375.8125 C-427.00400188 377.2356828 -428.1910862 378.66319043 -429.33984375 380.12109375 C-431.46488581 382.56179193 -433.92716109 384.50899025 -436.45703125 386.515625 C-437.12798828 387.15757812 -437.12798828 387.15757812 -437.8125 387.8125 C-437.8125 388.4725 -437.8125 389.1325 -437.8125 389.8125 C-438.8025 390.1425 -439.7925 390.4725 -440.8125 390.8125 C-442.19696359 392.17998498 -442.19696359 392.17998498 -443.58178711 393.95947266 C-448.82234005 400.12851812 -454.64979476 405.70991535 -460.40695381 411.39042282 C-462.54242439 413.49897001 -464.67325139 415.61210651 -466.80271912 417.72671509 C-472.85242267 423.73394846 -478.90476995 429.73843072 -484.97338867 435.7265625 C-488.69900177 439.40342775 -492.41458382 443.0901791 -496.12397575 446.7834053 C-497.53040366 448.17999562 -498.94046404 449.5729385 -500.35434151 450.96198654 C-510.96747934 461.3133899 -510.96747934 461.3133899 -518.8125 473.8125 C-519.15402603 474.51611664 -519.49555206 475.21973328 -519.84742737 475.94467163 C-524.0548355 485.29947735 -523.09957679 498.46744274 -519.75 507.875 C-513.51045209 521.80882187 -503.10446149 530.09322249 -489.29976463 535.86265373 C-484.64994365 537.12915214 -480.32150372 537.08202987 -475.52407837 537.05300903 C-474.48989663 537.05471788 -473.45571488 537.05642673 -472.3901943 537.05818737 C-468.92623734 537.06148055 -465.46247426 537.05048121 -461.99853516 537.03955078 C-459.51492314 537.03898663 -457.03131079 537.0393033 -454.54769897 537.04043579 C-449.20135634 537.04089117 -443.85507402 537.03521979 -438.5087471 537.02396011 C-430.77890966 537.00769124 -423.04909582 537.00249569 -415.31924312 536.99998413 C-402.77743124 536.99560921 -390.2356454 536.9823056 -377.69384766 536.96337891 C-365.51220835 536.94501487 -353.33057613 536.93086093 -341.14892578 536.92236328 C-340.02220596 536.92157511 -340.02220596 536.92157511 -338.87272413 536.92077102 C-335.10436203 536.9181609 -331.33599987 536.9156335 -327.56763768 536.91314721 C-296.31590618 536.89242102 -265.06420705 536.8570521 -233.8125 536.8125 C-233.88290202 537.56525514 -233.95330404 538.31801029 -234.02583945 539.09357619 C-234.79329432 548.00970977 -234.96389721 556.87594965 -234.96640015 565.81744385 C-234.9704251 567.39792415 -234.974865 568.97840343 -234.9796797 570.55888152 C-234.99153337 574.86753495 -234.99726713 579.17617725 -235.00186086 583.48484373 C-235.00785893 588.14468827 -235.01945693 592.80451979 -235.03015137 597.46435547 C-235.05456381 608.69228648 -235.06927776 619.92022175 -235.08221143 631.14817107 C-235.08592889 634.32077953 -235.08990158 637.49338756 -235.0939641 640.6659956 C-235.11918541 660.38857398 -235.141227 680.11115313 -235.15369225 699.83374405 C-235.15662162 704.39144137 -235.15958335 708.94913867 -235.16259766 713.50683594 C-235.16371673 715.20588973 -235.16371673 715.20588973 -235.16485842 716.93926784 C-235.1775312 735.31674313 -235.21078896 753.69412211 -235.25239949 772.07155231 C-235.2948062 790.95564519 -235.31838501 809.83968866 -235.32361281 828.72382903 C-235.32702625 839.3204305 -235.33877556 849.91688083 -235.37171555 860.51343536 C-235.39969844 869.52951077 -235.41072255 878.54540395 -235.39952008 887.56151941 C-235.39433085 892.16022554 -235.39723811 896.75854987 -235.42198563 901.35720062 C-235.44446223 905.56893042 -235.44375099 909.78000379 -235.42478175 913.99174497 C-235.4219797 915.51304978 -235.42759181 917.03439897 -235.44259469 918.55563238 C-235.52187689 927.11980341 -235.03652922 933.72659134 -229.8125 940.8125 C-229.235 941.699375 -228.6575 942.58625 -228.0625 943.5 C-220.56508325 951.20567833 -211.63918458 954.5506839 -201.02978551 954.9055866 C-197.54812649 954.94459016 -194.06774006 954.95052979 -190.58586121 954.94621277 C-189.23401158 954.94808251 -187.8821625 954.95038386 -186.53031427 954.95307809 C-182.82571343 954.95918233 -179.12113521 954.95906412 -175.41653049 954.95788372 C-171.41710303 954.95767936 -167.41768276 954.96320176 -163.41825867 954.96794128 C-155.58654461 954.97624076 -147.75483807 954.9789958 -139.92311998 954.97955366 C-133.55609433 954.98002914 -127.18907115 954.98208547 -120.82204628 954.98525429 C-102.76334937 954.99405881 -84.70465841 954.99867396 -66.64595934 954.99792381 C-65.1862351 954.99786388 -65.1862351 954.99786388 -63.69702148 954.99780273 C-62.72268145 954.99776185 -61.74834142 954.99772097 -60.74447594 954.99767885 C-44.95394224 954.9972724 -29.16343238 955.00684225 -13.37290557 955.0209411 C2.84756402 955.03530936 19.06802198 955.04221104 35.2884981 955.04134732 C44.39230684 955.04101552 53.49609057 955.04375544 62.59989357 955.05452538 C70.35086352 955.06363627 78.10179714 955.06580076 85.85277013 955.05901595 C89.80537816 955.05575378 93.7579165 955.05568313 97.71051788 955.0643692 C101.33331572 955.07224846 104.95598875 955.07078828 108.57878359 955.06208507 C110.50070612 955.05983105 112.42263256 955.06736751 114.34453994 955.07532471 C126.45174412 955.02724917 138.1378366 953.62401436 147.1875 944.8125 C149.34320767 941.90417619 151.32434292 938.91594053 153.1875 935.8125 C153.53987386 935.27200673 153.89224771 934.73151346 154.25529957 934.17464161 C155.60437574 930.75616115 155.45918797 927.41960088 155.43473816 923.79948425 C155.43836191 922.57482125 155.43836191 922.57482125 155.44205886 921.32541758 C155.44771417 918.57648363 155.43901802 915.8277811 155.43041992 913.07885742 C155.43147267 911.09978041 155.43339021 909.1207037 155.43610382 907.14162827 C155.44093157 901.71194264 155.43313782 896.28233773 155.42311835 890.85266185 C155.41442216 885.05245573 155.41681397 879.25225273 155.41767883 873.45204163 C155.41740457 862.20042998 155.40581524 850.94885669 155.39008409 839.6972571 C155.3776231 830.62731398 155.36971692 821.55737696 155.36474609 812.48742676 C155.3127486 720.59361203 154.91552092 628.70335773 154.1875 536.8125 C156.11763585 536.81941345 156.11763585 536.81941345 158.08676434 536.82646656 C188.6690058 536.93488266 219.25119517 537.01726588 249.83358283 537.06782665 C253.60219032 537.07407977 257.37079741 537.08055143 261.1394043 537.0871582 C261.88962918 537.08846976 262.63985407 537.08978131 263.41281305 537.0911326 C275.54176409 537.11285704 287.67059598 537.15226211 299.79947647 537.19826398 C312.2556585 537.24511131 324.71177836 537.27281283 337.16804487 537.28294247 C344.84705578 537.28978456 352.52572986 537.31135153 360.20463703 537.35208233 C366.10443476 537.38177189 372.00406198 537.38475333 377.90393639 537.37803841 C380.31572028 537.37940908 382.72751745 537.38928961 385.13922501 537.40852737 C403.33813526 537.54652348 416.52147112 536.14791268 430.1171875 522.9375 C439.70387189 512.73364708 442.89503604 501.08251606 442.5625 487.4375 C441.53717559 469.59685534 427.7421392 458.07782149 415.8984375 446.328125 C414.50750522 444.94093129 413.11702007 443.55328912 411.72695923 442.16522217 C408.08702222 438.53287403 404.44112287 434.90656977 400.79388428 431.28155518 C397.08552478 427.59368553 393.38283893 423.90012922 389.6796875 420.20703125 C383.7002283 414.24509061 377.71738088 408.28657647 371.72990417 402.33268738 C368.54405385 399.16431479 365.36325184 395.99100309 362.1875 392.8125 C361.67445313 392.29945313 361.16140625 391.78640625 360.6328125 391.2578125 C339.0625 369.6875 339.0625 369.6875 337.60258484 368.22659302 C336.21109052 366.83607398 334.81614479 365.44901153 333.42114258 364.06201172 C331.46049517 362.08743469 329.65839304 360.07049118 327.875 357.9375 C324.8613309 354.44557471 321.60449997 351.50232147 318.08984375 348.52734375 C316.27034433 346.88717898 314.74085445 345.20262506 313.1875 343.3125 C310.52593373 340.08570863 307.57159744 337.46712707 304.39453125 334.7578125 C298.00961648 329.13004691 292.22500168 322.94416084 286.703125 316.48046875 C284.73680601 314.31650429 282.47347951 312.62956064 280.1875 310.8125 C278.67657439 309.14443812 277.23603891 307.43443258 275.8125 305.69140625 C273.72090238 303.2729965 271.46339843 301.05791765 269.1875 298.8125 C265.85416667 295.47916667 262.52083333 292.14583333 259.1875 288.8125 C258.37667969 288.00425781 257.56585937 287.19601562 256.73046875 286.36328125 C254.93038598 284.55766827 253.14215951 282.74415438 251.36328125 280.91796875 C250.4088791 279.94528804 249.45445188 278.97263192 248.5 278 C247.77200195 277.24686523 247.77200195 277.24686523 247.02929688 276.47851562 C245.78625394 275.21832727 244.49050108 274.01058956 243.1875 272.8125 C242.5275 272.8125 241.8675 272.8125 241.1875 272.8125 C240.93693501 272.23689551 240.68637003 271.66129103 240.42821217 271.06824398 C239.01683511 268.50221345 237.40950742 266.78853456 235.33610535 264.72059631 C234.53282303 263.91456467 233.72954071 263.10853302 232.9019165 262.27807617 C231.57797882 260.96492432 231.57797882 260.96492432 230.22729492 259.62524414 C229.29869156 258.69634872 228.3700882 257.76745331 227.41334534 256.81040955 C224.86808149 254.26457182 222.31669603 251.72494995 219.76417708 249.18638921 C217.09101862 246.5257497 214.4235383 243.85942981 211.75544739 241.19371033 C206.69744275 236.14192368 201.63436413 231.09525422 196.56944209 226.05040401 C190.82380463 220.32705108 185.08377858 214.59808483 179.34425199 208.86860478 C169.52710007 199.06882771 159.70573304 189.27329374 149.87966919 179.48245239 C145.97902969 175.59570167 142.07935906 171.70804332 138.1875 167.8125 C137.67445313 167.29945313 137.16140625 166.78640625 136.6328125 166.2578125 C115.0625 144.6875 115.0625 144.6875 113.60083008 143.22338867 C112.22266977 141.84760901 110.83604549 140.48032445 109.44921875 139.11328125 C107.1875 136.8125 107.1875 136.8125 105 134 C104.1028125 132.9171875 104.1028125 132.9171875 103.1875 131.8125 C102.5275 131.8125 101.8675 131.8125 101.1875 131.8125 C100.8575 130.8225 100.5275 129.8325 100.1875 128.8125 C98.52702999 127.16772325 98.52702999 127.16772325 96.5 125.5625 C93.8091819 123.28749216 91.41749496 121.04009714 89.1875 118.3125 C86.52593373 115.08570863 83.57159744 112.46712707 80.39453125 109.7578125 C74.00961648 104.13004691 68.22500168 97.94416084 62.703125 91.48046875 C60.73680601 89.31650429 58.47347951 87.62956064 56.1875 85.8125 C54.67657439 84.14443812 53.23603891 82.43443258 51.8125 80.69140625 C49.72090238 78.2729965 47.46339843 76.05791765 45.1875 73.8125 C41.85416667 70.47916667 38.52083333 67.14583333 35.1875 63.8125 C34.37667969 63.00425781 33.56585937 62.19601563 32.73046875 61.36328125 C30.93038598 59.55766827 29.14215951 57.74415438 27.36328125 55.91796875 C26.4088791 54.94528804 25.45445188 53.97263192 24.5 53 C23.77200195 52.24686523 23.77200195 52.24686523 23.02929688 51.47851562 C21.78625394 50.21832727 20.49050108 49.01058956 19.1875 47.8125 C18.5275 47.8125 17.8675 47.8125 17.1875 47.8125 C16.94773437 47.24917969 16.70796875 46.68585938 16.4609375 46.10546875 C10.1253508 34.69752583 -5.58288184 23.34724738 -17.75 18.6875 C-18.760625 18.39875 -19.77125 18.11 -20.8125 17.8125 C-21.44559082 17.57208984 -22.07868164 17.33167969 -22.73095703 17.08398438 C-28.51122519 14.92769646 -33.60667946 14.33487541 -39.75 14.4375 C-40.63171875 14.44765137 -41.5134375 14.45780273 -42.421875 14.46826172 C-48.65193311 14.61709088 -54.08980396 15.20505999 -59.8125 17.8125 Z " fill="#000000" transform="translate(556.8125,33.1875)"/>
</svg>
