<?xml version="1.0" encoding="UTF-8"?>
<svg version="1.1" xmlns="http://www.w3.org/2000/svg" width="1040" height="1040">
<path d="M0 0 C2.23197451 -0.00104196 4.46394876 -0.00294895 6.6959219 -0.00564098 C12.83038062 -0.01043088 18.96476801 -0.00260477 25.09921813 0.00736475 C31.08007217 0.01515763 37.06092223 0.01352244 43.04177963 0.01237592 C57.65547802 0.01009803 72.26913954 0.02409638 86.88282519 0.04187728 C87.64249801 0.04280017 88.40217083 0.04372306 89.18486404 0.04467392 C89.94639484 0.04560063 90.70792564 0.04652733 91.49253312 0.04748212 C99.95179715 0.05757565 108.41106342 0.0641806 116.87033081 0.07070923 C142.94883696 0.09123742 169.02733324 0.11591439 195.1058197 0.15440369 C195.95641363 0.15565685 196.80700756 0.15691002 197.68337706 0.15820117 C202.01906748 0.1645995 206.35475783 0.17103588 210.69044816 0.17748439 C211.98949837 0.17941612 211.98949837 0.17941612 213.31479202 0.18138687 C215.0706108 0.18400015 216.82642958 0.18661804 218.58224835 0.18924053 C247.43813225 0.2322383 276.29399049 0.25582508 305.14990234 0.26928711 C340.01065379 0.28563955 374.87133122 0.32141347 409.7320385 0.37982845 C413.52517563 0.38612198 417.31831287 0.3923488 421.1114502 0.39852905 C422.51474271 0.4008299 422.51474271 0.4008299 423.94638456 0.40317724 C439.0247815 0.42749848 454.10314549 0.43562665 469.18155996 0.43811545 C484.41965691 0.44107572 499.65764084 0.46282607 514.89568537 0.50314355 C524.0045775 0.52671373 533.11323985 0.5364634 542.22215829 0.52648664 C548.34252146 0.52117502 554.46267478 0.53415114 560.58297809 0.56160164 C564.07320887 0.57674615 567.56296826 0.58424813 571.05321169 0.56951392 C585.26200176 0.52556653 597.95419392 0.60555247 611.17480469 6.24291992 C612.29553155 6.70895221 613.41625841 7.17498449 614.57094669 7.65513897 C622.40475739 11.06704051 628.07711408 16.16902723 633.98730469 22.24291992 C634.90439209 23.17773193 635.82147949 24.11254395 636.76635742 25.07568359 C643.33260085 31.95717308 648.21776625 38.08461024 651.17480469 47.24291992 C651.59503906 48.46624023 652.01527344 49.68956055 652.44824219 50.94995117 C657.41560479 66.85593112 656.68199834 84.57121452 651.17480469 100.24291992 C649.9050931 102.28390259 648.56948321 104.28520452 647.17480469 106.24291992 C646.6080666 107.31478074 646.04132851 108.38664156 645.45741653 109.49098301 C643.07294269 113.69180729 639.96594576 116.86088046 636.54364014 120.23484802 C635.87868695 120.90236448 635.21373377 121.56988093 634.5286305 122.25762516 C632.30934804 124.48183014 630.07954951 126.69517566 627.84960938 128.90869141 C626.25233604 130.50511814 624.65572377 132.10220653 623.0597229 133.6999054 C618.73207862 138.02840976 614.39525262 142.34760748 610.05671597 146.66519046 C605.52164118 151.18150089 600.99507075 155.70631861 596.46759033 160.23023987 C588.86960707 167.81996076 581.26641542 175.40441869 573.65917969 182.98486328 C565.82557681 190.79090652 557.99514784 198.60011123 550.16894531 206.41357422 C549.68610292 206.89562844 549.20326053 207.37768266 548.70578656 207.87434458 C546.28339791 210.29281796 543.86107131 212.71135348 541.43877554 215.12991989 C521.36039482 235.17722762 501.27105565 255.21352721 481.17480469 275.24291992 C486.0854412 281.16074841 491.38191694 286.59313316 496.82215881 292.02398682 C497.79743556 293.00113447 498.77249666 293.97849739 499.74736208 294.9560554 C502.41268282 297.62746534 505.08109097 300.29577213 507.75004876 302.96354771 C510.63323629 305.84653052 513.51355594 308.73237626 516.39427185 311.61782837 C522.0317908 317.26363721 527.67207001 322.90668056 533.31345613 328.54862502 C537.89779311 333.13343769 542.48133839 337.71904032 547.06432915 342.30519867 C560.06092074 355.31059012 573.05960008 368.3138897 586.06096763 381.31450668 C586.76119255 382.01469164 587.46141747 382.71487661 588.18286133 383.4362793 C588.88394185 384.13731894 589.58502238 384.83835859 590.30734777 385.56064186 C601.68229257 396.93517975 613.05223442 408.31470409 624.41993005 419.69648638 C636.09504721 431.38595698 647.77387835 443.07170553 659.45660681 454.75356936 C666.01453992 461.31117029 672.57091969 467.87030721 679.12330818 474.43344879 C684.69856142 480.01779314 690.27724742 485.59867951 695.86044771 491.1750789 C698.7091451 494.02050485 701.55619647 496.86752838 704.3989296 499.71891403 C707.00067943 502.32850156 709.60699262 504.93343867 712.21703308 507.53473338 C713.60820421 508.92363308 714.99444787 510.31746289 716.38051564 511.71145558 C717.20885204 512.53519319 718.03718845 513.3589308 718.89062595 514.20763016 C719.6023869 514.91960847 720.31414785 515.63158679 721.0474773 516.3651402 C723.28668231 518.34167366 725.59151083 519.75606753 728.17480469 521.24291992 C729.52121241 522.41551298 730.82802092 523.63502985 732.09277344 524.89526367 C732.78951172 525.58942383 733.48625 526.28358398 734.20410156 526.9987793 C734.91630859 527.7187207 735.62851562 528.43866211 736.36230469 529.18041992 C737.08611328 529.89649414 737.80992187 530.61256836 738.55566406 531.3503418 C739.5949707 532.39351562 739.5949707 532.39351562 740.65527344 533.45776367 C741.28328857 534.08803467 741.91130371 534.71830566 742.55834961 535.36767578 C744.19032224 537.26092178 745.16593177 538.9666557 746.17480469 541.24291992 C746.64917969 542.29479492 747.12355469 543.34666992 747.61230469 544.43041992 C753.85330293 559.13003 755.88752767 575.19230244 750.36230469 590.49291992 C745.12886493 603.40207133 734.1869859 613.38140458 724.51004028 623.04139709 C723.54500131 624.00830789 722.5801777 624.97543366 721.61554897 625.94275373 C718.9830077 628.58137329 716.34739068 631.21690115 713.71121716 633.85189116 C710.86137235 636.70153096 708.01439713 639.55403536 705.16702271 642.40614319 C699.59580726 647.98564318 694.02183682 653.56238289 688.44675697 659.1380213 C683.91396589 663.67128844 679.38196727 668.20534631 674.85052109 672.73995781 C661.99077513 685.60850319 649.12894199 698.47495723 636.26442017 711.33872826 C635.22546822 712.37762027 635.22546822 712.37762027 634.16552734 713.4375 C633.47204279 714.13094367 632.77855824 714.82438734 632.064059 715.53884446 C620.82121067 726.78128619 609.58336145 738.0287103 598.34776582 749.27839989 C586.79916824 760.84136926 575.24683785 772.40059765 563.6906203 783.95595163 C557.20746922 790.43877109 550.7258587 796.92311356 544.24826431 803.41148567 C538.7346461 808.93421929 533.21756104 814.45346052 527.69599356 819.968247 C524.881229 822.77975205 522.06807725 825.59282095 519.2592926 828.41030121 C516.68392249 830.993562 514.10390921 833.57209206 511.52024899 836.14706068 C510.15297038 837.51209015 508.79057615 838.88200677 507.42841065 840.25213867 C499.45264603 848.18364343 492.38889781 854.20261748 481.67480469 857.80541992 C480.94261719 858.05420898 480.21042969 858.30299805 479.45605469 858.55932617 C473.46220304 860.35542898 467.70014562 860.49300022 461.48730469 860.55541992 C460.54435547 860.58442383 459.60140625 860.61342773 458.62988281 860.64331055 C451.61667133 860.70597154 446.46504791 859.25678646 440.17480469 856.24291992 C439.34207031 855.89052246 438.50933594 855.538125 437.65136719 855.17504883 C430.80944918 852.11231235 426.11959707 847.82088486 420.98730469 842.43041992 C419.85518555 841.27703125 419.85518555 841.27703125 418.70019531 840.1003418 C415.40607824 836.72066324 412.21443148 833.29183031 409.14436245 829.70793915 C404.76493244 824.69922659 400.08416959 820.01674833 395.37355042 815.32141113 C394.39384298 814.34126682 393.41435566 813.36090246 392.43506759 812.38033915 C389.76234857 809.70539802 387.08654516 807.03356154 384.41019976 804.36224937 C381.51754287 801.47392981 378.62779596 798.58270132 375.73768616 795.6918335 C370.73624279 790.68986697 365.73297859 785.68972783 360.7284565 780.69084167 C353.49284949 773.46337786 346.26002069 766.23313898 339.02785682 759.00222999 C327.2927445 747.26930376 315.55540294 735.53861027 303.81665039 723.80932617 C292.41671264 712.418574 281.01783053 701.02676712 269.62036133 689.63354492 C268.91726944 688.93071575 268.21417754 688.22788658 267.48977984 687.50375956 C263.96241624 683.97770105 260.43507333 680.45162184 256.90774071 676.92553234 C227.66663535 647.6947858 198.42190818 618.46766489 169.17480469 589.24291992 C166.40223875 590.51007388 164.36404847 591.80632675 162.22014713 593.96824169 C161.66285673 594.52525019 161.10556633 595.08225869 160.53138834 595.65614623 C159.62833913 596.57407304 159.62833913 596.57407304 158.70704651 597.51054382 C158.05943279 598.16068209 157.41181907 598.81082036 156.74458069 599.48065978 C154.57145614 601.6645557 152.40557017 603.85549358 150.23950195 606.04638672 C148.68414409 607.61212977 147.1283002 609.17739016 145.57200623 610.74220276 C142.21799143 614.11611512 138.8669087 617.49290409 135.51788521 620.87177086 C130.2157869 626.21998939 124.90393931 631.55845105 119.59007263 636.89497375 C112.13390176 644.38413819 104.67908106 651.87463963 97.2277832 659.36865234 C96.75495688 659.84418353 96.28213056 660.31971472 95.79497617 660.80965594 C88.14826715 668.50064098 80.50933256 676.19931174 72.87238372 683.89998665 C65.01951095 691.81782013 57.15478527 699.72377767 49.28054661 707.6203683 C44.86482264 712.04960185 40.45490964 716.48429696 36.05838203 720.93259239 C31.91720834 725.12252153 27.76212145 729.29814049 23.59626198 733.46352196 C22.07575891 734.98884192 20.56036121 736.51927226 19.05070877 738.05533218 C7.74963198 749.5456546 -2.61949529 757.87857869 -18.82519531 761.24291992 C-19.70691406 761.4465918 -20.58863281 761.65026367 -21.49707031 761.86010742 C-36.78696173 765.08600937 -50.71949199 762.77785159 -64.82519531 756.24291992 C-65.50525635 755.93298096 -66.18531738 755.62304199 -66.88598633 755.30371094 C-73.98593017 751.75570794 -79.13096867 746.49580237 -84.63769531 740.86791992 C-85.56517578 739.9475293 -86.49265625 739.02713867 -87.44824219 738.07885742 C-92.07623274 733.40748988 -95.95233725 729.17249896 -98.82519531 723.24291992 C-99.62957031 721.75791992 -99.62957031 721.75791992 -100.45019531 720.24291992 C-101.9524638 716.96524321 -102.93686573 713.72037155 -103.82519531 710.24291992 C-104.0695397 709.38027972 -104.31388409 708.51763951 -104.56563285 707.62885869 C-106.45533036 700.67746637 -107.25687561 694.35374643 -107.20830536 687.16788387 C-107.21574463 685.59053077 -107.21574463 685.59053077 -107.22333419 683.98131195 C-107.23623342 680.47609919 -107.22792343 676.97127092 -107.21960449 673.46604919 C-107.22449608 670.92010433 -107.23068712 668.37416169 -107.23806238 665.82822281 C-107.25103294 660.30216596 -107.25471982 654.77622437 -107.250103 649.2501564 C-107.24325513 641.03220154 -107.25354867 632.81432919 -107.26706056 624.5963858 C-107.29194578 609.0622892 -107.29649072 593.52822702 -107.29459459 577.99411368 C-107.29322035 565.99465261 -107.29704485 553.99520344 -107.30451965 541.99574471 C-107.30557 540.27042993 -107.30661762 538.54511515 -107.30766252 536.81980037 C-107.30818186 535.96332581 -107.3087012 535.10685126 -107.30923629 534.22442293 C-107.30975643 533.36635862 -107.31027657 532.50829432 -107.31081247 531.62422806 C-107.31133647 530.76470022 -107.31186046 529.90517239 -107.31240033 529.01959825 C-107.32698035 504.84979612 -107.33526765 480.67999836 -107.33065033 456.51019192 C-107.33047837 455.59935562 -107.33030642 454.68851932 -107.33012925 453.75008192 C-107.3292404 449.13385567 -107.32829558 444.51762942 -107.32733124 439.90140318 C-107.32714021 438.9846473 -107.32694918 438.06789141 -107.32675236 437.12335504 C-107.32636526 435.26945148 -107.32597494 433.41554792 -107.32558138 431.56164437 C-107.31961368 402.72612203 -107.33504077 373.89068 -107.3671875 345.05517578 C-107.4032963 312.63841521 -107.42259269 280.22170554 -107.41764879 247.80492359 C-107.41717884 244.3455509 -107.41676858 240.8861782 -107.41639709 237.4268055 C-107.41629471 236.57505754 -107.41619232 235.72330959 -107.41608683 234.84575109 C-107.41489391 222.00917345 -107.42683445 209.17265097 -107.44554138 196.33608818 C-107.46681983 181.72814098 -107.47058618 167.12030916 -107.45124179 152.51235675 C-107.44094697 144.34668459 -107.44430499 136.18129424 -107.46777265 128.01564781 C-107.48377364 121.90380847 -107.47337197 115.79227253 -107.45305163 109.680452 C-107.44887712 107.21884631 -107.45302677 104.75720837 -107.46664757 102.29563683 C-107.56964687 82.30998543 -105.81551327 60.4505792 -92.82519531 44.24291992 C-92.25929687 43.17041992 -91.69339844 42.09791992 -91.11035156 40.99291992 C-88.34037023 36.0109973 -84.29048664 32.21882812 -80.26269531 28.24291992 C-79.05323242 27.04372925 -79.05323242 27.04372925 -77.81933594 25.8203125 C-72.19784269 20.34927422 -66.83731194 15.83393926 -59.82519531 12.24291992 C-58.67470703 11.58356445 -58.67470703 11.58356445 -57.50097656 10.91088867 C-39.4085562 1.01239092 -20.11525227 -0.05675426 0 0 Z " fill="#FDFDFD" transform="translate(246.8251953125,143.757080078125)"/>
<path d="M0 0 C1.8355309 0.01327646 1.8355309 0.01327646 3.70814323 0.02682114 C7.05550648 0.05733671 10.39964354 0.11880435 13.74613166 0.19353437 C17.30025804 0.26505702 20.85473073 0.29576577 24.40937805 0.32998657 C30.30855248 0.39095127 36.20707108 0.47300557 42.10577393 0.56896973 C50.08284939 0.69664689 58.0592797 0.75571445 66.03735352 0.78564453 C67.25724913 0.79039638 68.47714474 0.79514822 69.73400688 0.80004406 C72.18630455 0.80958391 74.6386024 0.81907852 77.09090042 0.82852745 C87.21978408 0.87436868 97.34846295 0.961203 107.47712708 1.04072952 C110.85328478 1.06708845 114.22944619 1.09277097 117.60561168 1.11810035 C149.58957918 1.35855795 181.57084635 1.68444718 213.55151367 2.20849609 C214.58286772 2.22535037 214.58286772 2.22535037 215.63505721 2.24254513 C229.49697464 2.46944895 243.3586528 2.70771843 257.21998882 2.96798134 C282.6599552 3.44392546 308.08715716 3.75987771 333.53198242 3.71630859 C362.73812984 3.66692613 391.93812542 3.80613195 421.14203262 4.1682024 C428.5424751 4.25949993 435.94266647 4.33849318 443.34350586 4.38964844 C449.9841796 4.43554945 456.6242559 4.50202675 463.26445532 4.59418046 C466.72849908 4.6416337 470.19196575 4.67937113 473.65632629 4.69200516 C477.45500261 4.71113964 481.25143281 4.76698568 485.04956055 4.83203125 C486.7302916 4.82772598 486.7302916 4.82772598 488.44497681 4.82333374 C495.69802948 5.00002113 495.69802948 5.00002113 498.63230896 6.91373825 C500.70285694 9.12301964 501.77142276 10.93813686 501.75101662 13.99438572 C500.32644065 17.90412645 497.6363566 20.34685927 494.7170105 23.1934967 C494.07841634 23.83198073 493.43982218 24.47046476 492.78187668 25.12829679 C490.63614662 27.26890053 488.4764668 29.3948571 486.31665039 31.52124023 C484.77706191 33.05151684 483.23838729 34.58271334 481.70056152 36.11476135 C478.3858183 39.41346067 475.06501224 42.70589033 471.73949814 45.99373055 C466.48600819 51.18845821 461.24825399 56.39885666 456.01296997 61.61192322 C443.0088811 74.55590076 429.98390379 87.47881629 416.95507812 100.39788818 C406.82750674 110.44066102 396.70562355 120.48902734 386.6007396 130.55463403 C381.39190535 135.7419198 376.17145372 140.91713932 370.94206595 146.0837003 C367.69807224 149.29369739 364.46441221 152.51394825 361.23358154 155.73718834 C359.72819698 157.23477882 358.21848054 158.7280287 356.70425797 160.21668243 C354.64514345 162.2421904 352.60177529 164.28234897 350.56173706 166.32704163 C349.9525184 166.9189676 349.34329975 167.51089357 348.71561992 168.12075669 C346.88315713 169.91876724 346.88315713 169.91876724 344.76635742 172.69677734 C344.89515865 176.84527302 347.72634236 179.02057561 350.53055763 181.80777454 C351.03345806 182.31173973 351.53635848 182.81570492 352.05449831 183.33494177 C353.75215081 185.03251418 355.4603446 186.71907228 357.16860962 188.40596008 C358.39590289 189.62883534 359.62252627 190.85238322 360.84853399 192.07654732 C364.22782423 195.44699472 367.61635186 198.80802206 371.00635004 202.16769445 C374.65738731 205.78939311 378.29972392 209.41982162 381.94294739 213.04937744 C388.25957959 219.34026246 394.5812246 225.62607329 400.90584183 231.90892982 C410.89701389 241.83490731 420.87329166 251.77577952 430.84725952 261.71903992 C434.25775801 265.11865658 437.66836574 268.51816362 441.07901573 271.91762829 C441.93139273 272.76721441 442.78376974 273.61680053 443.66197634 274.49213168 C453.36824197 284.16614846 463.07789193 293.83676552 472.78881836 303.50610352 C474.12068245 304.83227513 474.12068245 304.83227513 475.47945289 306.18523809 C489.87702351 320.52058697 504.28430286 334.84614915 518.6938519 349.16945598 C533.47654573 363.86442841 548.24391553 378.57468427 562.99832857 393.29805154 C572.10604377 402.38543207 581.22632623 411.45982904 590.36297332 420.51812198 C596.61935223 426.72291255 602.86124823 432.94202467 609.09179999 439.17274848 C612.69062414 442.77074034 616.29577516 446.36175942 619.91852379 449.93567467 C623.23191776 453.2046567 626.5265335 456.4913905 629.80690698 459.79349758 C630.99971477 460.98760974 632.19939391 462.17490342 633.40633638 463.35472719 C635.04122253 464.95479822 636.64973136 466.5774175 638.25383949 468.20825672 C639.15589265 469.10564589 640.0579458 470.00303506 640.98733389 470.92761785 C642.76635742 473.69677734 642.76635742 473.69677734 642.72929978 477.31258237 C641.80414489 480.56397587 641.21222855 481.99952957 638.87179756 484.33241749 C638.2516122 484.96516584 637.63142683 485.5979142 636.99244797 486.24983674 C636.30481838 486.92067141 635.61718878 487.59150608 634.90872192 488.28266907 C634.18311188 489.01411123 633.45750183 489.74555339 632.7099036 490.49916047 C630.2741808 492.9471103 627.81761815 495.37300391 625.3605957 497.79956055 C623.61036157 499.5497393 621.86144067 501.30123217 620.11373901 503.05393982 C615.85613793 507.31691714 611.58494188 511.56582418 607.30735983 515.80871806 C602.32742531 520.74964336 597.36408354 525.70709774 592.40157901 530.66551878 C583.54825465 539.51059178 574.68125538 548.34182466 565.8059082 557.16479492 C557.19148196 565.72842956 548.58478617 574.29972329 539.98754883 582.88061523 C539.45782255 583.40933058 538.92809627 583.93804592 538.38231768 584.48278294 C536.25314079 586.60793999 534.12399256 588.73312576 531.99488843 590.85835572 C522.8157035 600.02051625 513.63082403 609.17696766 504.44461745 618.33208749 C502.95667499 619.81503677 501.46882686 621.29808065 499.98098612 622.78113198 C494.33299443 628.41055313 488.68202345 634.03695602 483.02684402 639.65915871 C481.31149558 641.36517179 479.59697824 643.07202097 477.88333893 644.77975082 C475.55053851 647.1041218 473.2146922 649.42538634 470.87796021 651.74580383 C470.19479205 652.42779211 469.5116239 653.10978038 468.80775368 653.81243497 C468.18235282 654.43214459 467.55695196 655.05185421 466.91259956 655.6903429 C466.37355905 656.2265107 465.83451853 656.76267851 465.27914345 657.31509382 C463.1041303 659.30161391 461.33335498 660.59677267 458.40748507 661.11282545 C454.62485005 660.51695946 453.19449668 658.7399272 450.50831509 656.04000759 C450.00060889 655.53657264 449.4929027 655.03313768 448.96981147 654.51444712 C447.26067875 652.81357832 445.57009607 651.09537823 443.87876892 649.3768158 C442.6491896 648.14583719 441.41850331 646.91596345 440.18680388 645.68710619 C436.79684882 642.29863308 433.42272125 638.8947676 430.05085456 635.48830736 C426.41507654 631.82073221 422.76484855 628.16759149 419.1162262 624.51280212 C412.79347959 618.17560478 406.47969228 611.82959336 400.17158318 605.47782707 C391.04919843 596.29277141 381.91073499 587.12384858 372.76773829 577.95931537 C357.93289695 563.08911622 343.10742552 548.20961509 328.28955078 533.32250977 C327.40222433 532.43104425 326.51489788 531.53957874 325.60068274 530.62109912 C319.30149364 524.29240467 313.00263769 517.96337869 306.70385742 511.63427734 C299.50706731 504.40284586 292.31012429 497.17156665 285.11279297 489.94067383 C283.78296879 488.6046387 283.78296879 488.6046387 282.42627948 487.24161296 C267.66342652 472.4104181 252.89082298 457.58897267 238.11118037 442.77450949 C228.98728097 433.62815859 219.87240308 424.47298727 210.76881445 415.3064195 C204.53543146 409.03102341 198.2933364 402.76438589 192.04419916 396.50467818 C188.43423766 392.88796718 184.82863047 389.26716195 181.23376083 385.63544464 C177.94750608 382.31563203 174.65011484 379.0073336 171.34322102 375.70808286 C170.14442027 374.50791657 168.94991879 373.3034385 167.76003408 372.09443199 C166.15075976 370.46049072 164.52705117 368.84245897 162.89855862 367.22770596 C161.99753459 366.32207297 161.09651057 365.41643998 160.16818279 364.48336357 C157.97880788 362.47031607 157.97880788 362.47031607 155.62642801 362.75478512 C152.35960217 364.40919789 149.98133371 367.10600597 147.44804382 369.69470215 C146.81661447 370.32780162 146.18518511 370.9609011 145.53462154 371.61318541 C143.4141729 373.74276408 141.30465043 375.88285003 139.19482422 378.02294922 C137.67920632 379.54923254 136.16288249 381.07481514 134.64590454 382.5997467 C131.37713607 385.8881882 128.11293771 389.18107781 124.85202599 392.47731018 C119.69667581 397.68745413 114.52837327 402.88461577 109.35762024 408.07946777 C94.65490925 422.85469796 79.96982951 437.64737832 65.29785156 452.453125 C57.19708095 460.6275221 49.08558125 468.79111893 40.9624036 476.94325113 C35.81873892 482.10656072 30.68889941 487.28311038 25.56881177 492.46979523 C22.38112013 495.69265329 19.1809789 498.90291892 15.97716141 502.1097393 C14.49284592 503.60050283 13.0137046 505.09643862 11.5401516 506.59784126 C9.52890923 508.64561338 7.49999954 510.67410092 5.46562195 512.69885254 C4.88564333 513.29835456 4.30566471 513.89785659 3.70811099 514.51552534 C-0.05313009 518.20789729 -2.73681161 519.6699637 -8.23364258 519.69677734 C-11.17936863 517.52624236 -12.07425199 516.17494912 -13.23364258 512.69677734 C-13.33197128 511.19347706 -13.37548839 509.68626081 -13.38513184 508.17977905 C-13.39347329 507.25162416 -13.40181475 506.32346926 -13.41040897 505.36718845 C-13.41459559 504.3485065 -13.41878222 503.32982454 -13.4230957 502.28027344 C-13.4355654 500.66398119 -13.4355654 500.66398119 -13.44828701 499.01503658 C-13.47498892 495.41677909 -13.49485369 491.81851511 -13.51489258 488.22021484 C-13.53267906 485.6886511 -13.55096306 483.15709081 -13.56971741 480.62553406 C-13.60886476 475.24102111 -13.64538218 469.85650091 -13.67947388 464.47195435 C-13.76372634 451.20201583 -13.86331333 437.93218729 -13.96406293 424.6623652 C-13.97976 422.58818104 -13.9952716 420.51399556 -14.01075554 418.4398098 C-14.1463444 400.35685614 -14.32399858 382.27618059 -14.64794922 364.19555664 C-14.68291225 362.20739051 -14.71785075 360.21922394 -14.75250435 358.2310524 C-14.784977 356.39172252 -14.81828614 354.55240737 -14.85203362 352.71310043 C-15.15905652 335.74404557 -15.24825555 318.78776216 -15.18054199 301.81645775 C-15.08152561 272.67073744 -15.41272073 243.53749824 -15.88989258 214.39599609 C-15.90635354 213.38597825 -15.9228145 212.37596041 -15.93977427 211.33533597 C-16.17800027 196.74067708 -16.42702103 182.14620841 -16.67896271 167.5517807 C-17.20195413 137.25585896 -17.70836134 106.96001028 -18.1214819 76.66236269 C-18.2037976 70.6793923 -18.2968734 64.69666155 -18.39477539 58.71392822 C-18.50353184 52.02169435 -18.59057074 45.32963913 -18.64586878 38.63674027 C-18.67319018 35.36089228 -18.71273199 32.08608602 -18.77238464 28.81064415 C-18.83400729 25.32669991 -18.85838621 21.84451984 -18.87231445 18.36010742 C-18.89850861 17.36614519 -18.92470276 16.37218296 -18.95169067 15.34810066 C-18.92590859 9.88229478 -18.29022002 5.88535574 -14.29760933 1.92768002 C-9.89576025 -0.69748233 -4.97121055 -0.15046062 0 0 Z " fill="#000000" transform="translate(251.233642578125,237.30322265625)"/>
<path d="M0 0 C2.23197451 -0.00104196 4.46394876 -0.00294895 6.6959219 -0.00564098 C12.83038062 -0.01043088 18.96476801 -0.00260477 25.09921813 0.00736475 C31.08007217 0.01515763 37.06092223 0.01352244 43.04177963 0.01237592 C57.65547802 0.01009803 72.26913954 0.02409638 86.88282519 0.04187728 C87.64249801 0.04280017 88.40217083 0.04372306 89.18486404 0.04467392 C89.94639484 0.04560063 90.70792564 0.04652733 91.49253312 0.04748212 C99.95179715 0.05757565 108.41106342 0.0641806 116.87033081 0.07070923 C142.94883696 0.09123742 169.02733324 0.11591439 195.1058197 0.15440369 C195.95641363 0.15565685 196.80700756 0.15691002 197.68337706 0.15820117 C202.01906748 0.1645995 206.35475783 0.17103588 210.69044816 0.17748439 C211.98949837 0.17941612 211.98949837 0.17941612 213.31479202 0.18138687 C215.0706108 0.18400015 216.82642958 0.18661804 218.58224835 0.18924053 C247.43813225 0.2322383 276.29399049 0.25582508 305.14990234 0.26928711 C340.01065379 0.28563955 374.87133122 0.32141347 409.7320385 0.37982845 C413.52517563 0.38612198 417.31831287 0.3923488 421.1114502 0.39852905 C422.51474271 0.4008299 422.51474271 0.4008299 423.94638456 0.40317724 C439.0247815 0.42749848 454.10314549 0.43562665 469.18155996 0.43811545 C484.41965691 0.44107572 499.65764084 0.46282607 514.89568537 0.50314355 C524.0045775 0.52671373 533.11323985 0.5364634 542.22215829 0.52648664 C548.34252146 0.52117502 554.46267478 0.53415114 560.58297809 0.56160164 C564.07320887 0.57674615 567.56296826 0.58424813 571.05321169 0.56951392 C585.26200176 0.52556653 597.95419392 0.60555247 611.17480469 6.24291992 C612.29553155 6.70895221 613.41625841 7.17498449 614.57094669 7.65513897 C622.40475739 11.06704051 628.07711408 16.16902723 633.98730469 22.24291992 C634.90439209 23.17773193 635.82147949 24.11254395 636.76635742 25.07568359 C643.33260085 31.95717308 648.21776625 38.08461024 651.17480469 47.24291992 C651.59503906 48.46624023 652.01527344 49.68956055 652.44824219 50.94995117 C657.41560479 66.85593112 656.68199834 84.57121452 651.17480469 100.24291992 C649.9050931 102.28390259 648.56948321 104.28520452 647.17480469 106.24291992 C646.6080666 107.31478074 646.04132851 108.38664156 645.45741653 109.49098301 C643.07294269 113.69180729 639.96594576 116.86088046 636.54364014 120.23484802 C635.87868695 120.90236448 635.21373377 121.56988093 634.5286305 122.25762516 C632.30934804 124.48183014 630.07954951 126.69517566 627.84960938 128.90869141 C626.25233604 130.50511814 624.65572377 132.10220653 623.0597229 133.6999054 C618.73207862 138.02840976 614.39525262 142.34760748 610.05671597 146.66519046 C605.52164118 151.18150089 600.99507075 155.70631861 596.46759033 160.23023987 C588.86960707 167.81996076 581.26641542 175.40441869 573.65917969 182.98486328 C565.82557681 190.79090652 557.99514784 198.60011123 550.16894531 206.41357422 C549.68610292 206.89562844 549.20326053 207.37768266 548.70578656 207.87434458 C546.28339791 210.29281796 543.86107131 212.71135348 541.43877554 215.12991989 C521.36039482 235.17722762 501.27105565 255.21352721 481.17480469 275.24291992 C486.0854412 281.16074841 491.38191694 286.59313316 496.82215881 292.02398682 C497.79743556 293.00113447 498.77249666 293.97849739 499.74736208 294.9560554 C502.41268282 297.62746534 505.08109097 300.29577213 507.75004876 302.96354771 C510.63323629 305.84653052 513.51355594 308.73237626 516.39427185 311.61782837 C522.0317908 317.26363721 527.67207001 322.90668056 533.31345613 328.54862502 C537.89779311 333.13343769 542.48133839 337.71904032 547.06432915 342.30519867 C560.06092074 355.31059012 573.05960008 368.3138897 586.06096763 381.31450668 C586.76119255 382.01469164 587.46141747 382.71487661 588.18286133 383.4362793 C588.88394185 384.13731894 589.58502238 384.83835859 590.30734777 385.56064186 C601.68229257 396.93517975 613.05223442 408.31470409 624.41993005 419.69648638 C636.09504721 431.38595698 647.77387835 443.07170553 659.45660681 454.75356936 C666.01453992 461.31117029 672.57091969 467.87030721 679.12330818 474.43344879 C684.69856142 480.01779314 690.27724742 485.59867951 695.86044771 491.1750789 C698.7091451 494.02050485 701.55619647 496.86752838 704.3989296 499.71891403 C707.00067943 502.32850156 709.60699262 504.93343867 712.21703308 507.53473338 C713.60820421 508.92363308 714.99444787 510.31746289 716.38051564 511.71145558 C717.20885204 512.53519319 718.03718845 513.3589308 718.89062595 514.20763016 C719.6023869 514.91960847 720.31414785 515.63158679 721.0474773 516.3651402 C723.28668231 518.34167366 725.59151083 519.75606753 728.17480469 521.24291992 C729.52121241 522.41551298 730.82802092 523.63502985 732.09277344 524.89526367 C732.78951172 525.58942383 733.48625 526.28358398 734.20410156 526.9987793 C734.91630859 527.7187207 735.62851562 528.43866211 736.36230469 529.18041992 C737.08611328 529.89649414 737.80992187 530.61256836 738.55566406 531.3503418 C739.5949707 532.39351562 739.5949707 532.39351562 740.65527344 533.45776367 C741.28328857 534.08803467 741.91130371 534.71830566 742.55834961 535.36767578 C744.19032224 537.26092178 745.16593177 538.9666557 746.17480469 541.24291992 C746.64917969 542.29479492 747.12355469 543.34666992 747.61230469 544.43041992 C753.85330293 559.13003 755.88752767 575.19230244 750.36230469 590.49291992 C745.12886493 603.40207133 734.1869859 613.38140458 724.51004028 623.04139709 C723.54500131 624.00830789 722.5801777 624.97543366 721.61554897 625.94275373 C718.9830077 628.58137329 716.34739068 631.21690115 713.71121716 633.85189116 C710.86137235 636.70153096 708.01439713 639.55403536 705.16702271 642.40614319 C699.59580726 647.98564318 694.02183682 653.56238289 688.44675697 659.1380213 C683.91396589 663.67128844 679.38196727 668.20534631 674.85052109 672.73995781 C661.99077513 685.60850319 649.12894199 698.47495723 636.26442017 711.33872826 C635.22546822 712.37762027 635.22546822 712.37762027 634.16552734 713.4375 C633.47204279 714.13094367 632.77855824 714.82438734 632.064059 715.53884446 C620.82121067 726.78128619 609.58336145 738.0287103 598.34776582 749.27839989 C586.79916824 760.84136926 575.24683785 772.40059765 563.6906203 783.95595163 C557.20746922 790.43877109 550.7258587 796.92311356 544.24826431 803.41148567 C538.7346461 808.93421929 533.21756104 814.45346052 527.69599356 819.968247 C524.881229 822.77975205 522.06807725 825.59282095 519.2592926 828.41030121 C516.68392249 830.993562 514.10390921 833.57209206 511.52024899 836.14706068 C510.15297038 837.51209015 508.79057615 838.88200677 507.42841065 840.25213867 C499.45264603 848.18364343 492.38889781 854.20261748 481.67480469 857.80541992 C480.94261719 858.05420898 480.21042969 858.30299805 479.45605469 858.55932617 C473.46220304 860.35542898 467.70014562 860.49300022 461.48730469 860.55541992 C460.54435547 860.58442383 459.60140625 860.61342773 458.62988281 860.64331055 C451.61667133 860.70597154 446.46504791 859.25678646 440.17480469 856.24291992 C439.34207031 855.89052246 438.50933594 855.538125 437.65136719 855.17504883 C430.80944918 852.11231235 426.11959707 847.82088486 420.98730469 842.43041992 C419.85518555 841.27703125 419.85518555 841.27703125 418.70019531 840.1003418 C415.40607824 836.72066324 412.21443148 833.29183031 409.14436245 829.70793915 C404.76493244 824.69922659 400.08416959 820.01674833 395.37355042 815.32141113 C394.39384298 814.34126682 393.41435566 813.36090246 392.43506759 812.38033915 C389.76234857 809.70539802 387.08654516 807.03356154 384.41019976 804.36224937 C381.51754287 801.47392981 378.62779596 798.58270132 375.73768616 795.6918335 C370.73624279 790.68986697 365.73297859 785.68972783 360.7284565 780.69084167 C353.49284949 773.46337786 346.26002069 766.23313898 339.02785682 759.00222999 C327.2927445 747.26930376 315.55540294 735.53861027 303.81665039 723.80932617 C292.41671264 712.418574 281.01783053 701.02676712 269.62036133 689.63354492 C268.91726944 688.93071575 268.21417754 688.22788658 267.48977984 687.50375956 C263.96241624 683.97770105 260.43507333 680.45162184 256.90774071 676.92553234 C227.66663535 647.6947858 198.42190818 618.46766489 169.17480469 589.24291992 C166.40223875 590.51007388 164.36404847 591.80632675 162.22014713 593.96824169 C161.66285673 594.52525019 161.10556633 595.08225869 160.53138834 595.65614623 C159.62833913 596.57407304 159.62833913 596.57407304 158.70704651 597.51054382 C158.05943279 598.16068209 157.41181907 598.81082036 156.74458069 599.48065978 C154.57145614 601.6645557 152.40557017 603.85549358 150.23950195 606.04638672 C148.68414409 607.61212977 147.1283002 609.17739016 145.57200623 610.74220276 C142.21799143 614.11611512 138.8669087 617.49290409 135.51788521 620.87177086 C130.2157869 626.21998939 124.90393931 631.55845105 119.59007263 636.89497375 C112.13390176 644.38413819 104.67908106 651.87463963 97.2277832 659.36865234 C96.75495688 659.84418353 96.28213056 660.31971472 95.79497617 660.80965594 C88.14826715 668.50064098 80.50933256 676.19931174 72.87238372 683.89998665 C65.01951095 691.81782013 57.15478527 699.72377767 49.28054661 707.6203683 C44.86482264 712.04960185 40.45490964 716.48429696 36.05838203 720.93259239 C31.91720834 725.12252153 27.76212145 729.29814049 23.59626198 733.46352196 C22.07575891 734.98884192 20.56036121 736.51927226 19.05070877 738.05533218 C7.74963198 749.5456546 -2.61949529 757.87857869 -18.82519531 761.24291992 C-19.70691406 761.4465918 -20.58863281 761.65026367 -21.49707031 761.86010742 C-36.78696173 765.08600937 -50.71949199 762.77785159 -64.82519531 756.24291992 C-65.50525635 755.93298096 -66.18531738 755.62304199 -66.88598633 755.30371094 C-73.98593017 751.75570794 -79.13096867 746.49580237 -84.63769531 740.86791992 C-85.56517578 739.9475293 -86.49265625 739.02713867 -87.44824219 738.07885742 C-92.07623274 733.40748988 -95.95233725 729.17249896 -98.82519531 723.24291992 C-99.62957031 721.75791992 -99.62957031 721.75791992 -100.45019531 720.24291992 C-101.9524638 716.96524321 -102.93686573 713.72037155 -103.82519531 710.24291992 C-104.0695397 709.38027972 -104.31388409 708.51763951 -104.56563285 707.62885869 C-106.45533036 700.67746637 -107.25687561 694.35374643 -107.20830536 687.16788387 C-107.21574463 685.59053077 -107.21574463 685.59053077 -107.22333419 683.98131195 C-107.23623342 680.47609919 -107.22792343 676.97127092 -107.21960449 673.46604919 C-107.22449608 670.92010433 -107.23068712 668.37416169 -107.23806238 665.82822281 C-107.25103294 660.30216596 -107.25471982 654.77622437 -107.250103 649.2501564 C-107.24325513 641.03220154 -107.25354867 632.81432919 -107.26706056 624.5963858 C-107.29194578 609.0622892 -107.29649072 593.52822702 -107.29459459 577.99411368 C-107.29322035 565.99465261 -107.29704485 553.99520344 -107.30451965 541.99574471 C-107.30557 540.27042993 -107.30661762 538.54511515 -107.30766252 536.81980037 C-107.30818186 535.96332581 -107.3087012 535.10685126 -107.30923629 534.22442293 C-107.30975643 533.36635862 -107.31027657 532.50829432 -107.31081247 531.62422806 C-107.31133647 530.76470022 -107.31186046 529.90517239 -107.31240033 529.01959825 C-107.32698035 504.84979612 -107.33526765 480.67999836 -107.33065033 456.51019192 C-107.33047837 455.59935562 -107.33030642 454.68851932 -107.33012925 453.75008192 C-107.3292404 449.13385567 -107.32829558 444.51762942 -107.32733124 439.90140318 C-107.32714021 438.9846473 -107.32694918 438.06789141 -107.32675236 437.12335504 C-107.32636526 435.26945148 -107.32597494 433.41554792 -107.32558138 431.56164437 C-107.31961368 402.72612203 -107.33504077 373.89068 -107.3671875 345.05517578 C-107.4032963 312.63841521 -107.42259269 280.22170554 -107.41764879 247.80492359 C-107.41717884 244.3455509 -107.41676858 240.8861782 -107.41639709 237.4268055 C-107.41629471 236.57505754 -107.41619232 235.72330959 -107.41608683 234.84575109 C-107.41489391 222.00917345 -107.42683445 209.17265097 -107.44554138 196.33608818 C-107.46681983 181.72814098 -107.47058618 167.12030916 -107.45124179 152.51235675 C-107.44094697 144.34668459 -107.44430499 136.18129424 -107.46777265 128.01564781 C-107.48377364 121.90380847 -107.47337197 115.79227253 -107.45305163 109.680452 C-107.44887712 107.21884631 -107.45302677 104.75720837 -107.46664757 102.29563683 C-107.56964687 82.30998543 -105.81551327 60.4505792 -92.82519531 44.24291992 C-92.25929687 43.17041992 -91.69339844 42.09791992 -91.11035156 40.99291992 C-88.34037023 36.0109973 -84.29048664 32.21882812 -80.26269531 28.24291992 C-79.05323242 27.04372925 -79.05323242 27.04372925 -77.81933594 25.8203125 C-72.19784269 20.34927422 -66.83731194 15.83393926 -59.82519531 12.24291992 C-58.67470703 11.58356445 -58.67470703 11.58356445 -57.50097656 10.91088867 C-39.4085562 1.01239092 -20.11525227 -0.05675426 0 0 Z M-40.82519531 30.24291992 C-41.83066406 30.56131836 -42.83613281 30.8797168 -43.87207031 31.20776367 C-56.19950171 35.64350127 -66.83448792 46.29623083 -73.82519531 57.24291992 C-75.15659785 60.18497048 -76.01415721 63.12396129 -76.82519531 66.24291992 C-77.35597533 67.87150837 -77.89754034 69.49662406 -78.45019531 71.11791992 C-78.68996094 71.8372168 -78.92972656 72.55651367 -79.17675781 73.29760742 C-79.72623698 74.94604492 -80.27571615 76.59448242 -80.82519531 78.24291992 C-80.91923534 80.43914049 -80.95074146 82.63818517 -80.95103645 84.83641815 C-80.95248989 85.51323257 -80.95394333 86.19004699 -80.95544082 86.88737094 C-80.95911279 89.17351201 -80.95560808 91.45958687 -80.95217896 93.74572754 C-80.95333066 95.39695727 -80.95491852 97.04818675 -80.9569062 98.69941568 C-80.96110062 103.25709954 -80.95900744 107.81476259 -80.95591998 112.37244654 C-80.95366328 117.29217325 -80.95714908 122.21189632 -80.9598999 127.13162231 C-80.96437186 136.8293791 -80.96336964 146.52712818 -80.96048726 156.22488528 C-80.95821495 164.2128158 -80.95792866 172.20074418 -80.95901108 180.18867493 C-80.95916431 181.33323333 -80.95931754 182.47779172 -80.95947542 183.65703371 C-80.9597953 185.98570136 -80.96011951 188.31436901 -80.96044801 190.64303666 C-80.96331285 212.60487175 -80.96001233 234.56670269 -80.95464765 256.52853709 C-80.95028796 274.92910182 -80.95092166 293.32966004 -80.95556641 311.73022461 C-80.97959762 410.45990282 -80.94566004 509.19004485 -80.54034562 607.91903159 C-80.51155526 615.09409688 -80.49010157 622.2691603 -80.47192764 629.44425964 C-80.44998704 638.0434191 -80.41766197 646.64246016 -80.3714225 655.24152476 C-80.34829482 659.58255956 -80.3296423 663.92348054 -80.3237586 668.26457596 C-80.31821492 672.22421677 -80.29882688 676.18354601 -80.26863264 680.14307338 C-80.26013272 681.56435282 -80.25651157 682.98567247 -80.258505 684.40697592 C-80.27047921 696.26798266 -79.50882366 706.8304752 -71.82519531 716.24291992 C-71.39207031 717.04729492 -70.95894531 717.85166992 -70.51269531 718.68041992 C-64.87827462 727.23639208 -57.43273815 731.90166856 -47.82519531 735.24291992 C-34.91363752 737.61267191 -22.20936496 737.07695745 -10.98657227 729.84619141 C-6.85790385 726.78361765 -3.38108053 723.0633706 0.17480469 719.36791992 C1.69311242 717.80556572 3.21392394 716.24564057 4.73730469 714.68823242 C5.39859375 714.0026123 6.05988281 713.31699219 6.74121094 712.6105957 C8.68956362 710.71501742 10.66053864 708.95404099 12.72363281 707.18969727 C17.79215507 702.78801239 22.49632052 698.03414637 27.22111511 693.27177429 C28.86814351 691.61178933 30.51844421 689.95511757 32.16955566 688.29919434 C35.67415107 684.78326341 39.17478024 681.26340039 42.67480469 677.74291992 C46.73599476 673.65799408 50.79886763 669.574771 54.86601257 665.49577332 C56.47873052 663.87665221 58.08836687 662.25451209 59.69787598 660.63220215 C60.70240438 659.62403577 61.70707653 658.61601258 62.71191406 657.6081543 C63.57602905 656.73880249 64.44014404 655.86945068 65.33044434 654.97375488 C67.49013434 652.9002634 69.6655604 650.93564714 71.93164062 648.98509216 C76.67630392 644.86644281 81.09683368 640.45357724 85.52832031 636.00292969 C86.42681702 635.10457901 87.32531372 634.20622833 88.2510376 633.28065491 C90.69074564 630.84123128 93.12737961 628.39875866 95.56343269 625.95568585 C98.11872577 623.39409945 100.67689152 620.835385 103.23474121 618.27635193 C108.06722582 613.44077152 112.89715781 608.60264995 117.72615576 603.76358789 C123.22847595 598.25005192 128.73366956 592.73938878 134.23909473 587.22895348 C145.55417627 575.90344724 156.86568185 564.57437644 168.17480469 553.24291992 C172.51924474 555.20624783 175.18861645 558.27669479 178.33560181 561.76567078 C185.00046538 569.00467837 191.84843072 576.04426321 198.78866577 583.01741028 C199.32136453 583.55294173 199.85406328 584.08847317 200.40290442 584.64023285 C203.8541045 588.10871778 207.30907426 591.57342933 210.76503491 595.03717005 C213.27707885 597.55566885 215.78731756 600.0759633 218.29756086 602.59625665 C226.54325269 610.87492997 234.79455043 619.14800315 243.04752249 627.41941813 C245.19682918 629.573535 247.34605025 631.72773727 249.49525499 633.88195586 C262.87371597 647.29135096 276.25432169 660.69860363 289.63983727 674.10095692 C292.72525344 677.19032163 295.81064226 680.27971365 298.89599609 683.36914062 C299.66271262 684.13686551 300.42942914 684.90459039 301.2193795 685.69557967 C313.676533 698.16978995 326.12157187 710.65601651 338.56186824 723.14703576 C351.35989367 735.99681079 364.16919899 748.83525515 376.98949492 761.66281146 C384.17758422 768.85556054 391.36055687 776.05326378 398.53077316 783.263834 C404.62604759 789.39337564 410.73136755 795.51267973 416.85013597 801.61877266 C419.96985262 804.73265916 423.08450339 807.8512051 426.18622208 810.98302841 C429.02663646 813.85078648 431.880608 816.70429171 434.74589582 819.5471917 C435.77844184 820.57651334 436.80595984 821.61090947 437.82778327 822.65087638 C444.6385698 829.57518489 449.8834349 833.50700281 459.58105469 834.64135742 C469.20701327 834.56843349 476.39426112 833.60587126 483.47167969 826.74291992 C485.17480469 825.24291992 485.17480469 825.24291992 487.52094835 823.89356685 C490.17040963 822.24565356 492.13670979 820.53271725 494.33963108 818.33256912 C495.14133372 817.53669868 495.94303636 816.74082823 496.76903301 815.9208405 C497.63887654 815.04721765 498.50872007 814.1735948 499.40492249 813.27349854 C500.33742228 812.34482428 501.26992208 811.41615003 502.23067945 810.45933414 C504.81573687 807.88456424 507.39452017 805.30358966 509.97229826 802.72153473 C512.75470197 799.93666517 515.54283575 797.15754246 518.33021545 794.37765503 C523.78893635 788.93168722 529.24216181 783.48024859 534.69333918 778.02673104 C539.12427688 773.59401064 543.55697627 769.1630594 547.99093437 764.73336029 C548.62188439 764.10300546 549.25283442 763.47265063 549.90290413 762.82319413 C551.18466835 761.54264166 552.46643376 760.26209039 553.74820035 758.98154029 C565.77009889 746.97051972 577.78546838 734.95298413 589.79887997 722.93347582 C600.78866269 711.93852419 611.78663475 700.95180621 622.78850407 689.96894994 C634.08547496 678.69135253 645.37687951 667.40820974 656.66228861 656.11904216 C662.99813776 649.78128016 669.33617273 643.44574169 675.68004036 637.11600494 C681.0808154 631.72713843 686.47631376 626.33305616 691.86507756 620.93217757 C694.61418493 618.17717775 697.36564009 615.42463719 700.12368011 612.67857742 C703.11452675 609.70057155 706.09360122 606.71105929 709.07167053 603.72027588 C709.94374478 602.85557592 710.81581903 601.99087595 711.71431977 601.09997296 C716.05832604 596.71679078 719.35874901 592.73126002 722.17480469 587.24291992 C722.83480469 586.58291992 723.49480469 585.92291992 724.17480469 585.24291992 C727.23510203 576.74209396 728.00208677 564.88511908 724.79980469 556.30541992 C722.95301404 553.07032317 720.85423177 550.91782474 718.03189087 548.50405884 C710.30401467 541.67454121 703.11369742 534.30471449 695.83642578 527.00219727 C694.20285527 525.3667047 692.5690548 523.73144179 690.93504333 522.09638977 C687.43335752 518.59155698 683.93322795 515.08518019 680.4343071 511.57758713 C674.89766332 506.02736102 669.35715369 500.48100476 663.81607056 494.93521118 C656.04580046 487.15776927 648.27707044 479.37879199 640.50976562 471.59838867 C639.77224687 470.8596282 639.77224687 470.8596282 639.01982875 470.10594328 C635.52977109 466.60998505 632.03978068 463.11395968 628.54980469 459.61791992 C624.5596179 455.6208021 620.56939898 451.62371636 616.57910156 447.62670898 C616.08742376 447.13420306 615.59574596 446.64169713 615.08916883 446.13426678 C606.87767101 437.90906168 598.66417229 429.68585751 590.44931281 421.46400988 C584.94482112 415.95454614 579.44277457 410.44265578 573.94260764 404.92887473 C570.51857269 401.49736513 567.09245345 398.06794234 563.66577339 394.63907433 C562.08147952 393.05291327 560.49804792 391.46589039 558.91555977 389.87792778 C556.74920416 387.70431606 554.57973852 385.53385449 552.40951538 383.36410522 C551.78985094 382.74084583 551.17018651 382.11758643 550.53174436 381.47544038 C546.80923218 377.76157763 542.95571905 374.25887271 538.97839415 370.81983232 C536.81154988 368.92531937 534.7537314 366.94489461 532.72009277 364.90846252 C531.93499329 364.1247377 531.1498938 363.34101288 530.34100342 362.53353882 C529.50949768 361.69843781 528.67799194 360.86333679 527.82128906 360.00292969 C526.92279236 359.10457901 526.02429565 358.20622833 525.09857178 357.28065491 C522.65886374 354.84123128 520.22222977 352.39875866 517.78617668 349.95568585 C515.2308836 347.39409945 512.67271786 344.835385 510.11486816 342.27635193 C505.28238356 337.44077152 500.45245156 332.60264995 495.62345362 327.76358789 C490.12113342 322.25005192 484.61593981 316.73938878 479.11051464 311.22895348 C467.79543311 299.90344724 456.48392752 288.57437644 445.17480469 277.24291992 C447.76445943 273.16011263 450.41649985 269.75168001 453.85394287 266.31654358 C454.30907391 265.85899813 454.76420495 265.40145267 455.23312783 264.93004221 C456.74512129 263.41245543 458.26409711 261.902066 459.78320312 260.39160156 C460.87466928 259.2990614 461.96570207 258.20608816 463.05633545 257.11271667 C466.01065742 254.15356078 468.97117067 251.20067202 471.93298626 248.24901891 C475.03953512 245.15128141 478.14078273 242.04824484 481.24273682 238.94590759 C486.45464449 233.73493562 491.67040425 228.52784489 496.88867188 223.32324219 C502.90745262 217.32016528 508.9210129 211.31189988 514.93157935 205.30059916 C521.34686548 198.88463534 527.76596227 192.47249438 534.18616962 186.06145549 C536.02772913 184.22201929 537.86858438 182.38188083 539.70928192 180.54158211 C542.61255671 177.63931845 545.51839219 174.73964189 548.42615509 171.84187508 C549.48793937 170.78299004 550.54890374 169.72328207 551.60894775 168.66265488 C556.74666461 163.52318262 561.91978536 158.48136471 567.43856812 153.74813557 C569.97482519 151.5493489 572.36688432 149.2167676 574.76123047 146.86523438 C575.25994659 146.37630203 575.75866272 145.88736969 576.27249146 145.38362122 C581.42243986 140.32739488 586.54520812 135.24342808 591.66552734 130.15722656 C594.08391466 127.7566586 596.51053285 125.36490585 598.94482422 122.98046875 C601.91132936 120.07459672 604.86242665 117.15385831 607.80358505 114.22234154 C608.91545483 113.11894571 610.0323889 112.02062551 611.15475845 110.92791176 C622.36544728 99.99785309 629.01982733 88.74345096 629.48730469 72.86791992 C629.22444415 59.58573143 624.47076042 49.49146973 615.36230469 39.93041992 C604.97860597 30.04265906 593.28554274 26.76253943 579.13241386 26.8653965 C577.54216734 26.85885602 577.54216734 26.85885602 575.91979462 26.8521834 C572.3794118 26.84126479 568.8394215 26.85163361 565.29904175 26.86196899 C562.73033452 26.85851112 560.16162878 26.85374568 557.59292614 26.84778726 C552.01431052 26.83697743 546.43578206 26.8372653 540.85716248 26.84492874 C532.56156893 26.8562935 524.26604869 26.85046605 515.97045561 26.84130382 C501.15365418 26.82551786 486.33689158 26.82687118 471.52008647 26.83554056 C458.5548513 26.84308929 445.58963037 26.84505636 432.62439346 26.84147263 C431.76414802 26.84124347 430.90390259 26.84101432 430.0175891 26.84077822 C426.5255335 26.83984419 423.03347791 26.83888899 419.54142232 26.83789892 C386.79018166 26.82872394 354.03896572 26.83703942 321.28772887 26.85318962 C292.19066668 26.86742875 263.09364388 26.86615019 233.99658203 26.85180664 C201.30195706 26.83574351 168.60735393 26.8293721 135.91272557 26.83864343 C132.42767851 26.83960558 128.94263145 26.8405441 125.45758438 26.84147263 C124.59948309 26.84170986 123.74138181 26.84194709 122.85727745 26.84219151 C109.89885275 26.84560399 96.94044384 26.84161304 83.98202133 26.83403397 C69.24935132 26.82546012 54.51672619 26.82759243 39.78406177 26.8438762 C31.53859883 26.85268911 23.2932331 26.85325424 15.04777266 26.84193767 C8.89427423 26.83442348 2.74089062 26.84256554 -3.41259371 26.8568614 C-5.90433163 26.86021868 -8.39608254 26.85849398 -10.88781215 26.85123403 C-14.27022339 26.84213324 -17.65210339 26.85144693 -21.03448677 26.8653965 C-22.00560219 26.858373 -22.97671761 26.8513495 -23.97726077 26.84411317 C-30.13424405 26.89498527 -35.105503 28.00831192 -40.82519531 30.24291992 Z " fill="#010101" transform="translate(246.8251953125,143.757080078125)"/>
<path d="M0 0 C0.33 0 0.66 0 1 0 C1.125 7.75 1.125 7.75 0 10 C-0.09313878 11.39691302 -0.12448271 12.79819247 -0.1241985 14.19820702 C-0.12644579 15.0856866 -0.12869308 15.97316619 -0.13100848 16.88753909 C-0.12838146 17.87056185 -0.12575445 18.85358462 -0.12304783 19.86639595 C-0.12420167 20.90874183 -0.12535552 21.95108771 -0.12654433 23.02501982 C-0.12921586 26.55877921 -0.12468442 30.09249409 -0.12025452 33.62625122 C-0.12069011 36.16885446 -0.12156479 38.71145767 -0.12284368 41.25406063 C-0.12462044 46.80326717 -0.12326589 52.35245963 -0.11920547 57.90166473 C-0.11318444 66.15320081 -0.11286837 74.4047301 -0.11374746 82.65626797 C-0.11506317 96.53489689 -0.11171311 110.41352106 -0.10573006 124.29214859 C-0.0998188 138.03938953 -0.09596528 151.78662849 -0.09487724 165.5338707 C-0.0948085 166.38772283 -0.09473976 167.24157497 -0.09466894 168.12130142 C-0.09433062 172.45735116 -0.09402923 176.79340091 -0.09374207 181.12945066 C-0.09164006 211.86445934 -0.08489827 242.59946544 -0.07543945 273.33447266 C-0.06625931 303.19840481 -0.05917359 333.06233625 -0.05493164 362.92626953 C-0.05480011 363.84634492 -0.05466859 364.76642031 -0.05453308 365.71437677 C-0.05321459 374.95391188 -0.05193877 384.19344699 -0.05069422 393.43298211 C-0.04815781 412.25601114 -0.04533656 431.07904013 -0.04234314 449.90206909 C-0.04220585 450.76757569 -0.04206856 451.63308229 -0.04192711 452.52481635 C-0.03272202 510.34987865 -0.01685555 568.17493949 0 626 C-0.33 626 -0.66 626 -1 626 C-1.70634433 519.03637959 -2.13821047 412.07459122 -2.18518724 237.11669844 C-2.18476558 217.43672217 -2.19463369 197.7567641 -2.2084411 178.07679316 C-2.22277506 157.47636194 -2.22971523 136.87593974 -2.22884732 116.2755034 C-2.22851783 104.86000909 -2.2311654 93.44453476 -2.24202538 82.0290451 C-2.25108238 72.45941839 -2.25333957 62.88982108 -2.24651595 53.32019195 C-2.24324753 48.46141499 -2.2432101 43.60269479 -2.2518692 38.74392319 C-2.25970201 34.30503404 -2.25833689 29.86624712 -2.24958507 25.42736056 C-2.24804494 23.82381816 -2.2498855 22.22026822 -2.25544515 20.61673471 C-2.26249738 18.4395955 -2.25721909 16.26281652 -2.24888897 14.08568954 C-2.24921502 12.2732578 -2.24921502 12.2732578 -2.24954766 10.42421126 C-1.97416574 6.64551074 -1.15760098 3.59487362 0 0 Z " fill="#979797" transform="translate(168,215)"/>
<path d="M0 0 C0.33 0 0.66 0 1 0 C1.125 7.75 1.125 7.75 0 10 C-0.12298959 13.01999999 -0.18579555 16.01839375 -0.20532227 19.03955078 C-0.21522186 19.97618561 -0.22512146 20.91282043 -0.23532104 21.87783813 C-0.26698922 24.98363693 -0.29171448 28.08945104 -0.31640625 31.1953125 C-0.33697119 33.34480189 -0.35796753 35.49428719 -0.37937927 37.64376831 C-0.4346475 43.30890601 -0.48403581 48.97408049 -0.53222656 54.63928223 C-0.58240694 60.41710698 -0.63811106 66.19487813 -0.69335938 71.97265625 C-0.80099904 83.31505841 -0.90243109 94.65750705 -1 106 C-1.33 106 -1.66 106 -2 106 C-2.04636945 93.21291359 -2.0818927 80.42584722 -2.10362434 67.63869381 C-2.11405517 61.70091212 -2.12820171 55.76318801 -2.15087891 49.82543945 C-2.17263208 44.09367368 -2.1845739 38.36196325 -2.18975449 32.63015938 C-2.19344578 30.44493298 -2.20065394 28.25970956 -2.21146011 26.07450676 C-2.22600775 23.01046104 -2.22797655 19.94664314 -2.22705078 16.88256836 C-2.23424133 15.98201218 -2.24143188 15.08145599 -2.24884033 14.15361023 C-2.23217163 9.04492733 -1.65562654 4.84077156 0 0 Z " fill="#ACACAC" transform="translate(168,215)"/>
<path d="M0 0 C0.33 0 0.66 0 1 0 C1.125 7.75 1.125 7.75 0 10 C-0.15266612 11.73868744 -0.24932596 13.48247501 -0.31640625 15.2265625 C-0.35830078 16.2578125 -0.40019531 17.2890625 -0.44335938 18.3515625 C-0.48267578 19.43179688 -0.52199219 20.51203125 -0.5625 21.625 C-0.60568359 22.71296875 -0.64886719 23.8009375 -0.69335938 24.921875 C-0.7996453 27.6144517 -0.90168057 30.30712253 -1 33 C-1.33 33 -1.66 33 -2 33 C-2.05840224 28.81255925 -2.09373166 24.62522435 -2.125 20.4375 C-2.14175781 19.25607422 -2.15851563 18.07464844 -2.17578125 16.85742188 C-2.2094585 10.84603241 -2.11038894 5.65816878 0 0 Z " fill="#989898" transform="translate(168,215)"/>
<path d="M0 0 C0.66 0.33 1.32 0.66 2 1 C0.59106853 2.63171123 -0.82745958 4.25513945 -2.25 5.875 C-3.03890625 6.77992188 -3.8278125 7.68484375 -4.640625 8.6171875 C-6.74691403 10.74439993 -8.25651526 11.90512306 -11 13 C-9.46356148 9.31930113 -7.21849055 7.01224796 -4.375 4.25 C-3.55773437 3.45078125 -2.74046875 2.6515625 -1.8984375 1.828125 C-0.95871094 0.92320312 -0.95871094 0.92320312 0 0 Z " fill="#C1C1C1" transform="translate(189,183)"/>
</svg>
