<?xml version="1.0" encoding="UTF-8"?>
<svg version="1.1" xmlns="http://www.w3.org/2000/svg" width="1040" height="1040">
<path d="M0 0 C1.05210326 -0.00495952 2.10420653 -0.00991903 3.18819171 -0.01502883 C6.70124379 -0.0279458 10.21391334 -0.01961237 13.72697449 -0.01129913 C16.27618109 -0.01618988 18.82538548 -0.02238054 21.37458611 -0.02975702 C26.91086801 -0.0427347 32.44703485 -0.04641203 37.98332787 -0.04179764 C46.2165033 -0.03495336 54.44959627 -0.0452388 62.68276025 -0.0587552 C78.24558403 -0.08364837 93.80837347 -0.08818495 109.37121397 -0.08628923 C121.39310552 -0.08491524 133.41498517 -0.08873826 145.43687439 -0.09621429 C147.16512942 -0.09726464 148.89338445 -0.09831226 150.62163949 -0.09935716 C151.47956925 -0.0998765 152.33749902 -0.10039585 153.22142665 -0.10093093 C154.080946 -0.10145107 154.94046534 -0.10197121 155.82603073 -0.10250711 C157.11750269 -0.1032931 157.11750269 -0.1032931 158.43506499 -0.10409497 C182.64809083 -0.11867642 206.86111231 -0.12696169 231.07414246 -0.12234497 C232.44302022 -0.12208704 232.44302022 -0.12208704 233.83955207 -0.1218239 C238.46468571 -0.12093503 243.08981933 -0.11999022 247.71495295 -0.11902589 C248.63348411 -0.11883485 249.55201528 -0.11864382 250.49838072 -0.118447 C252.35587504 -0.1180599 254.21336935 -0.11766958 256.07086366 -0.11727602 C284.95992879 -0.11130879 313.84891376 -0.12673272 342.73796082 -0.15888214 C375.21221286 -0.19499093 407.68641407 -0.21428727 440.16068745 -0.20934343 C443.62625439 -0.20887348 447.09182135 -0.20846322 450.55738831 -0.20809174 C451.41066591 -0.20798935 452.26394352 -0.20788696 453.14307802 -0.20778148 C466.00323029 -0.2065885 478.86332751 -0.21852975 491.72346497 -0.23723602 C506.35888469 -0.25851461 520.99418925 -0.26228075 535.62961417 -0.24293643 C543.81083351 -0.23264143 551.99177157 -0.23600008 560.17296524 -0.25946729 C566.29641978 -0.27546794 572.41957148 -0.26506692 578.54300725 -0.24474627 C581.00935343 -0.24057165 583.4757318 -0.2447218 585.9420439 -0.25834221 C605.94086629 -0.3612085 627.8127989 1.38322529 644.03239441 14.38311005 C645.64114441 15.2319577 645.64114441 15.2319577 647.28239441 16.0979538 C652.26431703 18.86793512 656.05648622 22.91781872 660.03239441 26.94561005 C660.83185486 27.75191864 661.63131531 28.55822723 662.45500183 29.38896942 C667.92604011 35.01046266 672.44137507 40.37099342 676.03239441 47.38311005 C676.69174988 48.53359833 676.69174988 48.53359833 677.36442566 49.7073288 C687.26292341 67.79974916 688.3320686 87.09305309 688.27531433 107.20830536 C688.27635629 109.44027987 688.27826328 111.67225412 688.28095531 113.90422726 C688.28574521 120.03868598 688.2779191 126.17307337 688.26794958 132.30752349 C688.2601567 138.28837753 688.2617919 144.26922759 688.26293841 150.25008499 C688.2652163 164.86378338 688.25121795 179.4774449 688.23343705 194.09113055 C688.23251416 194.85080337 688.23159127 195.61047619 688.23064041 196.3931694 C688.22925035 197.5354656 688.22925035 197.5354656 688.22783221 198.70083848 C688.21773868 207.16010251 688.21113373 215.61936877 688.2046051 224.07863617 C688.18407692 250.15714232 688.15939994 276.23563859 688.12091064 302.31412506 C688.11965748 303.16471899 688.11840431 304.01531292 688.11711317 304.89168242 C688.11071484 309.22737283 688.10427845 313.56306319 688.09782994 317.89875352 C688.09654212 318.764787 688.0952543 319.63082047 688.09392746 320.52309738 C688.09131419 322.27891616 688.08869629 324.03473494 688.0860738 325.7905537 C688.04307603 354.64643761 688.01948925 383.50229585 688.00602722 412.3582077 C687.98967479 447.21895914 687.95390086 482.07963658 687.89548588 516.94034386 C687.88919235 520.73348099 687.88296553 524.52661823 687.87678528 528.31975555 C687.87525138 529.2552839 687.87371748 530.19081224 687.87213709 531.15468992 C687.84781585 546.23308686 687.83968768 561.31145085 687.83719888 576.38986532 C687.83423861 591.62796227 687.81248826 606.8659462 687.77217078 622.10399073 C687.7486006 631.21288286 687.73885093 640.32154521 687.74882769 649.43046365 C687.75413931 655.55082682 687.74116319 661.67098014 687.7137127 667.79128345 C687.69856818 671.28151423 687.6910662 674.77127362 687.70580041 678.26151705 C687.7497478 692.47030712 687.66976186 705.16249928 682.03239441 718.38311005 C681.33334598 720.06420034 681.33334598 720.06420034 680.62017536 721.77925205 C677.20827382 729.61306274 672.1062871 735.28541943 666.03239441 741.19561005 C664.63017639 742.57124115 664.63017639 742.57124115 663.19963074 743.97466278 C656.31814126 750.54090621 650.19070409 755.42607161 641.03239441 758.38311005 C639.8090741 758.80334442 638.58575378 759.2235788 637.32536316 759.65654755 C621.41938321 764.62391014 603.70409981 763.8903037 588.03239441 758.38311005 C585.99141174 757.11339846 583.99010981 755.77778857 582.03239441 754.38311005 C580.96053359 753.81637196 579.88867277 753.24963387 578.78433132 752.66572189 C574.58350704 750.28124805 571.41443387 747.17425112 568.04046631 743.7519455 C567.37294985 743.08699231 566.7054334 742.42203913 566.01768917 741.73693585 C563.79348419 739.5176534 561.58013867 737.28785487 559.36662292 735.05791473 C557.77019619 733.4606414 556.1731078 731.86402912 554.57540894 730.26802826 C550.24690457 725.94038398 545.92770685 721.60355798 541.61012387 717.26502132 C537.09381344 712.72994653 532.56899572 708.20337611 528.04507446 703.67589569 C520.45535357 696.07791243 512.87089564 688.47472078 505.29045105 680.86748505 C497.48440781 673.03388217 489.6752031 665.2034532 481.86174011 657.37725067 C481.37968589 656.89440828 480.89763167 656.41156589 480.40096975 655.91409191 C477.98249637 653.49170327 475.56396085 651.06937667 473.14539444 648.6470809 C453.09808671 628.56870018 433.06178712 608.47936101 413.03239441 588.38311005 C407.11456592 593.29374656 401.68218117 598.59022229 396.25132751 604.03046417 C395.27417986 605.00574091 394.29681694 605.98080202 393.31925893 606.95566744 C390.64784899 609.62098818 387.9795422 612.28939633 385.31176662 614.95835412 C382.42878381 617.84154165 379.54293807 620.7218613 376.65748596 623.60257721 C371.01167713 629.24009616 365.36863377 634.88037537 359.72668931 640.52176148 C355.14187664 645.10609846 350.55627401 649.68964375 345.97011566 654.27263451 C332.96472421 667.2692261 319.96142464 680.26790544 306.96080765 693.26927299 C306.26062269 693.96949791 305.56043772 694.66972283 304.83903503 695.39116669 C304.13799539 696.09224721 303.43695575 696.79332774 302.71467248 697.51565313 C291.34013458 708.89059793 279.96061024 720.26053978 268.57882795 731.62823541 C256.88935735 743.30335257 245.2036088 754.98218371 233.52174497 766.66491216 C226.96414404 773.22284528 220.40500712 779.77922505 213.84186554 786.33161354 C208.25752119 791.90686678 202.67663482 797.48555278 197.10023543 803.06875307 C194.25480948 805.91745045 191.40778595 808.76450183 188.5564003 811.60723495 C185.94681277 814.20898479 183.34187566 816.81529798 180.74058095 819.42533844 C179.35168125 820.81650957 177.95785144 822.20275323 176.56385875 823.58882099 C175.74012114 824.4171574 174.91638353 825.2454938 174.06768417 826.09893131 C173.35570586 826.81069226 172.64372755 827.5224532 171.91017413 828.25578266 C169.93364067 830.49498767 168.5192468 832.79981619 167.03239441 835.38311005 C165.85980135 836.72951776 164.64028448 838.03632627 163.38005066 839.3010788 C162.6858905 839.99781708 161.99173035 840.69455536 161.27653503 841.41240692 C160.55659363 842.12461395 159.83665222 842.83682098 159.09489441 843.57061005 C158.37882019 844.29441864 157.66274597 845.01822723 156.92497253 845.76396942 C155.88179871 846.80327606 155.88179871 846.80327606 154.81755066 847.8635788 C153.87214417 848.8056015 153.87214417 848.8056015 152.90763855 849.76665497 C151.01439255 851.3986276 149.30865863 852.37423713 147.03239441 853.38311005 C145.98051941 853.85748505 144.92864441 854.33186005 143.84489441 854.82061005 C129.14528433 861.06160829 113.08301189 863.09583303 97.78239441 857.57061005 C84.873243 852.33717029 74.89390976 841.39529126 65.23391724 831.71834564 C64.26700645 830.75330667 63.29988067 829.78848306 62.3325606 828.82385433 C59.69394104 826.19131306 57.05841318 823.55569604 54.42342317 820.91952252 C51.57378337 818.06967771 48.72127897 815.22270249 45.86917114 812.37532806 C40.28967115 806.80411262 34.71293144 801.23014218 29.13729303 795.65506233 C24.60402589 791.12227125 20.06996802 786.59027263 15.53535652 782.05882645 C2.66681114 769.19908049 -10.19964289 756.33724735 -23.06341393 743.47272553 C-24.10230594 742.43377358 -24.10230594 742.43377358 -25.16218567 741.3738327 C-25.85562934 740.68034815 -26.54907301 739.9868636 -27.26353013 739.27236436 C-38.50597186 728.02951603 -49.75339597 716.79166681 -61.00308556 705.55607118 C-72.56605493 694.0074736 -84.12528332 682.45514321 -95.6806373 670.89892566 C-102.16345676 664.41577458 -108.64779923 657.93416406 -115.13617134 651.45656967 C-120.65890496 645.94295146 -126.17814619 640.4258664 -131.69293267 634.90429892 C-134.50443772 632.08953436 -137.31750662 629.27638261 -140.13498688 626.46759796 C-142.71824767 623.89222785 -145.29677773 621.31221457 -147.87174635 618.72855435 C-149.23677582 617.36127574 -150.60669244 615.9988815 -151.97682434 614.63671601 C-159.90832909 606.66095139 -165.92730315 599.59720317 -169.53010559 588.88311005 C-169.90328918 587.7848288 -169.90328918 587.7848288 -170.28401184 586.66436005 C-172.08011464 580.6705084 -172.21768589 574.90845098 -172.28010559 568.69561005 C-172.3091095 567.75266083 -172.3381134 566.80971161 -172.36799622 565.83818817 C-172.43065721 558.82497669 -170.98147213 553.67335327 -167.96760559 547.38311005 C-167.4390094 546.13400848 -167.4390094 546.13400848 -166.8997345 544.85967255 C-163.83699801 538.01775453 -159.54557053 533.32790243 -154.15510559 528.19561005 C-153.38617981 527.44086395 -152.61725403 526.68611786 -151.82502747 525.90850067 C-148.44534891 522.6143836 -145.01651598 519.42273683 -141.43262482 516.35266781 C-136.42391226 511.97323779 -131.741434 507.29247495 -127.0460968 502.58185577 C-126.06595249 501.60214834 -125.08558813 500.62266102 -124.10502481 499.64337295 C-121.43008369 496.97065393 -118.75824721 494.29485052 -116.08693504 491.61850512 C-113.19861548 488.72584823 -110.30738699 485.83610131 -107.41651917 482.94599152 C-102.41455264 477.94454815 -97.4144135 472.94128395 -92.41552734 467.93676186 C-85.18806353 460.70115484 -77.95782465 453.46832605 -70.72691566 446.23616218 C-58.99398943 434.50104986 -47.26329594 422.7637083 -35.53401184 411.02495575 C-24.14325967 399.625018 -12.75145279 388.22613589 -1.35823059 376.82866669 C-0.65540142 376.1255748 0.04742775 375.4224829 0.77155477 374.6980852 C4.29761328 371.1707216 7.82369249 367.64337869 11.34978199 364.11604607 C40.58052853 334.87494071 69.80764944 305.63021354 99.03239441 276.38311005 C97.76524045 273.61054411 96.46898758 271.57235382 94.30707264 269.42845249 C93.75006414 268.87116209 93.19305565 268.31387169 92.6191681 267.7396937 C92.0072169 267.1376609 91.39526569 266.53562809 90.76477051 265.91535187 C90.11463224 265.26773815 89.46449397 264.62012442 88.79465455 263.95288604 C86.61075863 261.77976149 84.41982075 259.61387553 82.22892761 257.44780731 C80.66318456 255.89244944 79.09792417 254.33660556 77.53311157 252.78031158 C74.15919921 249.42629679 70.78241024 246.07521406 67.40354347 242.72619057 C62.05532494 237.42409226 56.71686329 232.11224467 51.38034058 226.79837799 C43.89117614 219.34220712 36.4006747 211.88738642 28.90666199 204.43608856 C28.4311308 203.96326224 27.95559961 203.49043592 27.46565839 203.00328153 C19.77467335 195.35657251 12.07600259 187.71763792 4.37532768 180.08068908 C-3.5425058 172.22781631 -11.44846334 164.36309063 -19.34505397 156.48885196 C-23.77428752 152.073128 -28.20898263 147.663215 -32.65727806 143.26668739 C-36.8472072 139.1255137 -41.02282616 134.97042681 -45.18820763 130.80456734 C-46.71352758 129.28406426 -48.24395793 127.76866656 -49.78001785 126.25901413 C-61.27034027 114.95793733 -69.60326436 104.58881007 -72.96760559 88.38311005 C-73.17127747 87.5013913 -73.37494934 86.61967255 -73.58479309 85.71123505 C-76.81069504 70.42134363 -74.50253726 56.48881337 -67.96760559 42.38311005 C-67.50269714 41.36301849 -67.50269714 41.36301849 -67.02839661 40.32231903 C-63.48039361 33.22237519 -58.22048804 28.07733669 -52.59260559 22.57061005 C-51.67221497 21.64312958 -50.75182434 20.71564911 -49.80354309 19.76006317 C-45.13217555 15.13207262 -40.89718463 11.25596811 -34.96760559 8.38311005 C-33.97760559 7.84686005 -32.98760559 7.31061005 -31.96760559 6.75811005 C-28.66374704 5.24384154 -25.48495442 4.30569335 -21.96760559 3.38311005 C-20.78307823 3.01659347 -20.78307823 3.01659347 -19.57462102 2.64267251 C-12.91638061 0.64477061 -6.92883683 -0.04662629 0 0 Z " fill="#FCFCFC" transform="translate(207.9676055908203,139.61688995361328)"/>
<path d="M0 0 C140.91 0 281.82 0 427 0 C427.07991314 119.86970519 427.07991314 119.86970519 427.06640625 152.2734375 C427.06593143 153.48284107 427.0654566 154.69224463 427.06496739 155.93829679 C427.04012937 215.08458449 426.80118497 274.22954727 426.5 333.375 C426.49402628 334.55064199 426.48805257 335.72628399 426.48189783 336.9375515 C426.33086136 366.625088 426.17088837 396.31257114 426 426 C421.99989517 424.39377998 419.3184967 421.58958653 416.34484863 418.57862854 C415.78480652 418.01958971 415.22476441 417.46055089 414.64775133 416.88457149 C412.77145029 415.00922342 410.90239237 413.12681937 409.03320312 411.24438477 C407.68980374 409.89878427 406.34595616 408.55363112 405.00169373 407.20889282 C402.10736666 404.31163127 399.21622617 401.41123952 396.32749939 398.50839424 C391.76085008 393.91949547 387.18713855 389.33767992 382.61242676 384.75682068 C375.37804464 377.51105345 368.14834993 370.26062986 360.92067575 363.00817198 C347.97630047 350.01948661 335.02636267 337.03635295 322.0711875 324.05843967 C317.52360108 319.50243991 312.97883906 314.94364649 308.43631744 310.38259709 C305.61114997 307.54679163 302.78395718 304.71301178 299.95625496 301.87973404 C298.64441684 300.56442343 297.33345142 299.24824176 296.02342033 297.93113136 C294.2362962 296.1345624 292.44611316 294.3410972 290.65515137 292.5483551 C290.1364713 292.02539795 289.61779122 291.5024408 289.08339357 290.96363646 C285.33294501 287.1118333 285.33294501 287.1118333 281 284 C276.77703393 284.31141066 274.47333044 287.02190343 271.50287628 289.81503677 C270.71480018 290.55335225 270.71480018 290.55335225 269.91080335 291.30658318 C264.14398609 296.74161365 258.53977 302.33961182 252.95397949 307.95941162 C251.79175617 309.12478813 250.62929828 310.28993074 249.46662951 311.45486283 C246.96232924 313.96502221 244.45964951 316.47678189 241.95825195 318.98983383 C237.88685792 323.08017888 233.81186201 327.16692398 229.7364502 331.25326538 C224.58632581 336.41773061 219.43716199 341.58315043 214.28913981 346.74971119 C204.18634525 356.88887345 194.07727342 367.02175622 183.96594238 377.15240479 C182.37157177 378.74988555 180.77720492 380.34737008 179.18284178 381.94485831 C176.76758874 384.36483647 174.35233226 386.78481119 171.93706116 389.20477132 C162.85250247 398.30701919 153.76864876 407.40997027 144.68554688 416.51367188 C143.85601 417.3450858 143.02647312 418.17649973 142.17179877 419.03310803 C128.69337593 432.54250125 115.22232314 446.05922347 101.75347084 459.57815763 C87.91731138 473.46532801 74.07167376 487.34299835 60.2175374 501.21223474 C51.6741373 509.76561741 43.13853943 518.32664026 34.61270052 526.89752832 C28.78100272 532.758694 22.94030456 538.61078712 17.0923056 544.45568809 C13.71525545 547.83151508 10.34250058 551.21137136 6.98043823 554.60213089 C3.9072787 557.70135537 0.8229789 560.78900535 -2.27086776 563.86757496 C-3.39205712 564.98733642 -4.50896339 566.11140503 -5.62126166 567.23999879 C-7.12580671 568.76536986 -8.64471905 570.27475656 -10.16846466 571.78091049 C-11.01101445 572.62590095 -11.85356423 573.47089141 -12.72164583 574.34148765 C-15 576 -15 576 -17.14414328 575.89757639 C-20.06876908 574.48309485 -22.16593796 572.25277278 -24.42304993 569.97135925 C-24.958035 569.44246528 -25.49302007 568.91357132 -26.04421681 568.36865026 C-27.83787962 566.59165824 -29.62061828 564.80409708 -31.40356445 563.01635742 C-32.6859421 561.74131755 -33.96894188 560.46690313 -35.2525177 559.19306946 C-38.73870631 555.72913191 -42.21515715 552.25557502 -45.68928933 548.77955031 C-48.58711177 545.88160838 -51.48925886 542.9880164 -54.39130849 540.09430867 C-61.23417099 533.27069179 -68.06881385 526.43891636 -74.89868164 519.60229492 C-81.95414701 512.54018175 -89.02425525 505.49297227 -96.10154945 498.45274085 C-102.17082779 492.41410073 -108.23045763 486.36589626 -114.28248566 480.30996782 C-117.90018553 476.69019502 -121.52160484 473.07434474 -125.15252113 469.46782494 C-128.56418819 466.07832629 -131.9637096 462.67710823 -135.35409355 459.266325 C-136.60309814 458.01389321 -137.85641993 456.76575046 -139.11423492 455.52216721 C-140.82520743 453.82923109 -142.52018781 452.12177319 -144.21186829 450.40959167 C-144.71787593 449.91610188 -145.22388357 449.42261209 -145.74522477 448.91416806 C-147.1039629 447.51965618 -147.1039629 447.51965618 -149 445 C-148.79703963 440.88233566 -146.1487118 438.78022571 -143.35070801 435.99273777 C-142.86022539 435.49999201 -142.36974277 435.00724624 -141.86439705 434.49956879 C-140.2089697 432.84019186 -138.54300588 431.19180966 -136.87695312 429.54310608 C-135.67996406 428.34767231 -134.48363954 427.15157281 -133.28792572 425.95486349 C-129.99234594 422.66034087 -126.68749124 419.37525952 -123.3811264 416.09156573 C-119.82007687 412.55164814 -116.26769886 409.00304845 -112.71435547 405.45539856 C-106.55352379 399.30665249 -100.38744549 393.16320876 -94.21801758 387.02308846 C-85.29490801 378.14200392 -76.38194491 369.25079145 -67.47184277 360.35665911 C-53.01231221 345.92322523 -38.54756044 331.49503727 -24.078125 317.0715332 C-23.21167453 316.20782848 -22.34522406 315.34412375 -21.45251751 314.45424616 C-11.7837273 304.81628221 -2.11394661 295.17931268 7.55664062 285.54315186 C11.06382623 282.04840476 14.57098796 278.55363372 18.078125 275.05883789 C18.94352559 274.19648708 19.80892618 273.33413628 20.70055103 272.44565362 C35.11652824 258.08003808 49.52475286 243.70667364 63.92702484 229.32731813 C72.81695889 220.45222147 81.71366594 211.58401965 90.61911488 202.72449052 C96.71776741 196.65633969 102.8093134 190.58111716 108.89525127 184.50021464 C112.41020278 180.98866571 115.92841744 177.48054897 119.4553833 173.98106384 C122.68124723 170.78022358 125.8978575 167.57038401 129.10722637 164.35300737 C130.27260837 163.18801847 131.44142144 162.02645013 132.61389637 160.86860002 C134.20220173 159.29914982 135.77778377 157.7179463 137.35070801 156.13310337 C138.67075207 154.81777696 138.67075207 154.81777696 140.01746368 153.4758783 C142.12976183 150.83794773 142.8846548 149.36271814 143 146 C141.37092649 143.73582072 139.85528076 141.97438225 137.89923096 140.02934265 C137.3536709 139.46413302 136.80811083 138.89892339 136.24601865 138.3165862 C134.51228097 136.52903656 132.75803887 134.76362415 131 133 C129.93144475 131.91174401 128.86354446 130.82284447 127.79634857 129.73325539 C124.4259942 126.30777685 121.02011028 122.91867062 117.61230469 119.53051758 C116.31967606 118.24145634 115.02728935 116.95215248 113.73512268 115.66262817 C110.98167566 112.91566529 108.22672273 110.17022541 105.47057343 107.42597389 C101.11453071 103.08839078 96.76298296 98.74631654 92.41217041 94.40348816 C80.05021156 82.06556447 67.68216991 69.73374856 55.31005859 57.40600586 C48.4548055 50.57525823 41.60311842 43.74095386 34.7552731 36.90277976 C30.42738331 32.58143974 26.09502292 28.26464765 21.75932169 23.95114577 C19.07607685 21.27958532 16.39697867 18.6038973 13.71906853 15.92699051 C12.47269652 14.68277483 11.22459201 13.44029201 9.97467995 12.19963264 C8.27601492 10.51306405 6.58353006 8.82053245 4.89251709 7.126297 C4.3909883 6.63127601 3.88945951 6.13625502 3.37273288 5.6262334 C0 2.22821656 0 2.22821656 0 0 Z " fill="#FEFEFE" transform="translate(341,268)"/>
<path d="M0 0 C1.05210326 -0.00495952 2.10420653 -0.00991903 3.18819171 -0.01502883 C6.70124379 -0.0279458 10.21391334 -0.01961237 13.72697449 -0.01129913 C16.27618109 -0.01618988 18.82538548 -0.02238054 21.37458611 -0.02975702 C26.91086801 -0.0427347 32.44703485 -0.04641203 37.98332787 -0.04179764 C46.2165033 -0.03495336 54.44959627 -0.0452388 62.68276025 -0.0587552 C78.24558403 -0.08364837 93.80837347 -0.08818495 109.37121397 -0.08628923 C121.39310552 -0.08491524 133.41498517 -0.08873826 145.43687439 -0.09621429 C147.16512942 -0.09726464 148.89338445 -0.09831226 150.62163949 -0.09935716 C151.47956925 -0.0998765 152.33749902 -0.10039585 153.22142665 -0.10093093 C154.080946 -0.10145107 154.94046534 -0.10197121 155.82603073 -0.10250711 C157.11750269 -0.1032931 157.11750269 -0.1032931 158.43506499 -0.10409497 C182.64809083 -0.11867642 206.86111231 -0.12696169 231.07414246 -0.12234497 C232.44302022 -0.12208704 232.44302022 -0.12208704 233.83955207 -0.1218239 C238.46468571 -0.12093503 243.08981933 -0.11999022 247.71495295 -0.11902589 C248.63348411 -0.11883485 249.55201528 -0.11864382 250.49838072 -0.118447 C252.35587504 -0.1180599 254.21336935 -0.11766958 256.07086366 -0.11727602 C284.95992879 -0.11130879 313.84891376 -0.12673272 342.73796082 -0.15888214 C375.21221286 -0.19499093 407.68641407 -0.21428727 440.16068745 -0.20934343 C443.62625439 -0.20887348 447.09182135 -0.20846322 450.55738831 -0.20809174 C451.41066591 -0.20798935 452.26394352 -0.20788696 453.14307802 -0.20778148 C466.00323029 -0.2065885 478.86332751 -0.21852975 491.72346497 -0.23723602 C506.35888469 -0.25851461 520.99418925 -0.26228075 535.62961417 -0.24293643 C543.81083351 -0.23264143 551.99177157 -0.23600008 560.17296524 -0.25946729 C566.29641978 -0.27546794 572.41957148 -0.26506692 578.54300725 -0.24474627 C581.00935343 -0.24057165 583.4757318 -0.2447218 585.9420439 -0.25834221 C605.94086629 -0.3612085 627.8127989 1.38322529 644.03239441 14.38311005 C645.64114441 15.2319577 645.64114441 15.2319577 647.28239441 16.0979538 C652.26431703 18.86793512 656.05648622 22.91781872 660.03239441 26.94561005 C660.83185486 27.75191864 661.63131531 28.55822723 662.45500183 29.38896942 C667.92604011 35.01046266 672.44137507 40.37099342 676.03239441 47.38311005 C676.69174988 48.53359833 676.69174988 48.53359833 677.36442566 49.7073288 C687.26292341 67.79974916 688.3320686 87.09305309 688.27531433 107.20830536 C688.27635629 109.44027987 688.27826328 111.67225412 688.28095531 113.90422726 C688.28574521 120.03868598 688.2779191 126.17307337 688.26794958 132.30752349 C688.2601567 138.28837753 688.2617919 144.26922759 688.26293841 150.25008499 C688.2652163 164.86378338 688.25121795 179.4774449 688.23343705 194.09113055 C688.23251416 194.85080337 688.23159127 195.61047619 688.23064041 196.3931694 C688.22925035 197.5354656 688.22925035 197.5354656 688.22783221 198.70083848 C688.21773868 207.16010251 688.21113373 215.61936877 688.2046051 224.07863617 C688.18407692 250.15714232 688.15939994 276.23563859 688.12091064 302.31412506 C688.11965748 303.16471899 688.11840431 304.01531292 688.11711317 304.89168242 C688.11071484 309.22737283 688.10427845 313.56306319 688.09782994 317.89875352 C688.09654212 318.764787 688.0952543 319.63082047 688.09392746 320.52309738 C688.09131419 322.27891616 688.08869629 324.03473494 688.0860738 325.7905537 C688.04307603 354.64643761 688.01948925 383.50229585 688.00602722 412.3582077 C687.98967479 447.21895914 687.95390086 482.07963658 687.89548588 516.94034386 C687.88919235 520.73348099 687.88296553 524.52661823 687.87678528 528.31975555 C687.87525138 529.2552839 687.87371748 530.19081224 687.87213709 531.15468992 C687.84781585 546.23308686 687.83968768 561.31145085 687.83719888 576.38986532 C687.83423861 591.62796227 687.81248826 606.8659462 687.77217078 622.10399073 C687.7486006 631.21288286 687.73885093 640.32154521 687.74882769 649.43046365 C687.75413931 655.55082682 687.74116319 661.67098014 687.7137127 667.79128345 C687.69856818 671.28151423 687.6910662 674.77127362 687.70580041 678.26151705 C687.7497478 692.47030712 687.66976186 705.16249928 682.03239441 718.38311005 C681.33334598 720.06420034 681.33334598 720.06420034 680.62017536 721.77925205 C677.20827382 729.61306274 672.1062871 735.28541943 666.03239441 741.19561005 C664.63017639 742.57124115 664.63017639 742.57124115 663.19963074 743.97466278 C656.31814126 750.54090621 650.19070409 755.42607161 641.03239441 758.38311005 C639.8090741 758.80334442 638.58575378 759.2235788 637.32536316 759.65654755 C621.41938321 764.62391014 603.70409981 763.8903037 588.03239441 758.38311005 C585.99141174 757.11339846 583.99010981 755.77778857 582.03239441 754.38311005 C580.96053359 753.81637196 579.88867277 753.24963387 578.78433132 752.66572189 C574.58350704 750.28124805 571.41443387 747.17425112 568.04046631 743.7519455 C567.37294985 743.08699231 566.7054334 742.42203913 566.01768917 741.73693585 C563.79348419 739.5176534 561.58013867 737.28785487 559.36662292 735.05791473 C557.77019619 733.4606414 556.1731078 731.86402912 554.57540894 730.26802826 C550.24690457 725.94038398 545.92770685 721.60355798 541.61012387 717.26502132 C537.09381344 712.72994653 532.56899572 708.20337611 528.04507446 703.67589569 C520.45535357 696.07791243 512.87089564 688.47472078 505.29045105 680.86748505 C497.48440781 673.03388217 489.6752031 665.2034532 481.86174011 657.37725067 C481.37968589 656.89440828 480.89763167 656.41156589 480.40096975 655.91409191 C477.98249637 653.49170327 475.56396085 651.06937667 473.14539444 648.6470809 C453.09808671 628.56870018 433.06178712 608.47936101 413.03239441 588.38311005 C407.11456592 593.29374656 401.68218117 598.59022229 396.25132751 604.03046417 C395.27417986 605.00574091 394.29681694 605.98080202 393.31925893 606.95566744 C390.64784899 609.62098818 387.9795422 612.28939633 385.31176662 614.95835412 C382.42878381 617.84154165 379.54293807 620.7218613 376.65748596 623.60257721 C371.01167713 629.24009616 365.36863377 634.88037537 359.72668931 640.52176148 C355.14187664 645.10609846 350.55627401 649.68964375 345.97011566 654.27263451 C332.96472421 667.2692261 319.96142464 680.26790544 306.96080765 693.26927299 C306.26062269 693.96949791 305.56043772 694.66972283 304.83903503 695.39116669 C304.13799539 696.09224721 303.43695575 696.79332774 302.71467248 697.51565313 C291.34013458 708.89059793 279.96061024 720.26053978 268.57882795 731.62823541 C256.88935735 743.30335257 245.2036088 754.98218371 233.52174497 766.66491216 C226.96414404 773.22284528 220.40500712 779.77922505 213.84186554 786.33161354 C208.25752119 791.90686678 202.67663482 797.48555278 197.10023543 803.06875307 C194.25480948 805.91745045 191.40778595 808.76450183 188.5564003 811.60723495 C185.94681277 814.20898479 183.34187566 816.81529798 180.74058095 819.42533844 C179.35168125 820.81650957 177.95785144 822.20275323 176.56385875 823.58882099 C175.74012114 824.4171574 174.91638353 825.2454938 174.06768417 826.09893131 C173.35570586 826.81069226 172.64372755 827.5224532 171.91017413 828.25578266 C169.93364067 830.49498767 168.5192468 832.79981619 167.03239441 835.38311005 C165.85980135 836.72951776 164.64028448 838.03632627 163.38005066 839.3010788 C162.6858905 839.99781708 161.99173035 840.69455536 161.27653503 841.41240692 C160.55659363 842.12461395 159.83665222 842.83682098 159.09489441 843.57061005 C158.37882019 844.29441864 157.66274597 845.01822723 156.92497253 845.76396942 C155.88179871 846.80327606 155.88179871 846.80327606 154.81755066 847.8635788 C153.87214417 848.8056015 153.87214417 848.8056015 152.90763855 849.76665497 C151.01439255 851.3986276 149.30865863 852.37423713 147.03239441 853.38311005 C145.98051941 853.85748505 144.92864441 854.33186005 143.84489441 854.82061005 C129.14528433 861.06160829 113.08301189 863.09583303 97.78239441 857.57061005 C84.873243 852.33717029 74.89390976 841.39529126 65.23391724 831.71834564 C64.26700645 830.75330667 63.29988067 829.78848306 62.3325606 828.82385433 C59.69394104 826.19131306 57.05841318 823.55569604 54.42342317 820.91952252 C51.57378337 818.06967771 48.72127897 815.22270249 45.86917114 812.37532806 C40.28967115 806.80411262 34.71293144 801.23014218 29.13729303 795.65506233 C24.60402589 791.12227125 20.06996802 786.59027263 15.53535652 782.05882645 C2.66681114 769.19908049 -10.19964289 756.33724735 -23.06341393 743.47272553 C-24.10230594 742.43377358 -24.10230594 742.43377358 -25.16218567 741.3738327 C-25.85562934 740.68034815 -26.54907301 739.9868636 -27.26353013 739.27236436 C-38.50597186 728.02951603 -49.75339597 716.79166681 -61.00308556 705.55607118 C-72.56605493 694.0074736 -84.12528332 682.45514321 -95.6806373 670.89892566 C-102.16345676 664.41577458 -108.64779923 657.93416406 -115.13617134 651.45656967 C-120.65890496 645.94295146 -126.17814619 640.4258664 -131.69293267 634.90429892 C-134.50443772 632.08953436 -137.31750662 629.27638261 -140.13498688 626.46759796 C-142.71824767 623.89222785 -145.29677773 621.31221457 -147.87174635 618.72855435 C-149.23677582 617.36127574 -150.60669244 615.9988815 -151.97682434 614.63671601 C-159.90832909 606.66095139 -165.92730315 599.59720317 -169.53010559 588.88311005 C-169.90328918 587.7848288 -169.90328918 587.7848288 -170.28401184 586.66436005 C-172.08011464 580.6705084 -172.21768589 574.90845098 -172.28010559 568.69561005 C-172.3091095 567.75266083 -172.3381134 566.80971161 -172.36799622 565.83818817 C-172.43065721 558.82497669 -170.98147213 553.67335327 -167.96760559 547.38311005 C-167.4390094 546.13400848 -167.4390094 546.13400848 -166.8997345 544.85967255 C-163.83699801 538.01775453 -159.54557053 533.32790243 -154.15510559 528.19561005 C-153.38617981 527.44086395 -152.61725403 526.68611786 -151.82502747 525.90850067 C-148.44534891 522.6143836 -145.01651598 519.42273683 -141.43262482 516.35266781 C-136.42391226 511.97323779 -131.741434 507.29247495 -127.0460968 502.58185577 C-126.06595249 501.60214834 -125.08558813 500.62266102 -124.10502481 499.64337295 C-121.43008369 496.97065393 -118.75824721 494.29485052 -116.08693504 491.61850512 C-113.19861548 488.72584823 -110.30738699 485.83610131 -107.41651917 482.94599152 C-102.41455264 477.94454815 -97.4144135 472.94128395 -92.41552734 467.93676186 C-85.18806353 460.70115484 -77.95782465 453.46832605 -70.72691566 446.23616218 C-58.99398943 434.50104986 -47.26329594 422.7637083 -35.53401184 411.02495575 C-24.14325967 399.625018 -12.75145279 388.22613589 -1.35823059 376.82866669 C-0.65540142 376.1255748 0.04742775 375.4224829 0.77155477 374.6980852 C4.29761328 371.1707216 7.82369249 367.64337869 11.34978199 364.11604607 C40.58052853 334.87494071 69.80764944 305.63021354 99.03239441 276.38311005 C97.76524045 273.61054411 96.46898758 271.57235382 94.30707264 269.42845249 C93.75006414 268.87116209 93.19305565 268.31387169 92.6191681 267.7396937 C92.0072169 267.1376609 91.39526569 266.53562809 90.76477051 265.91535187 C90.11463224 265.26773815 89.46449397 264.62012442 88.79465455 263.95288604 C86.61075863 261.77976149 84.41982075 259.61387553 82.22892761 257.44780731 C80.66318456 255.89244944 79.09792417 254.33660556 77.53311157 252.78031158 C74.15919921 249.42629679 70.78241024 246.07521406 67.40354347 242.72619057 C62.05532494 237.42409226 56.71686329 232.11224467 51.38034058 226.79837799 C43.89117614 219.34220712 36.4006747 211.88738642 28.90666199 204.43608856 C28.4311308 203.96326224 27.95559961 203.49043592 27.46565839 203.00328153 C19.77467335 195.35657251 12.07600259 187.71763792 4.37532768 180.08068908 C-3.5425058 172.22781631 -11.44846334 164.36309063 -19.34505397 156.48885196 C-23.77428752 152.073128 -28.20898263 147.663215 -32.65727806 143.26668739 C-36.8472072 139.1255137 -41.02282616 134.97042681 -45.18820763 130.80456734 C-46.71352758 129.28406426 -48.24395793 127.76866656 -49.78001785 126.25901413 C-61.27034027 114.95793733 -69.60326436 104.58881007 -72.96760559 88.38311005 C-73.17127747 87.5013913 -73.37494934 86.61967255 -73.58479309 85.71123505 C-76.81069504 70.42134363 -74.50253726 56.48881337 -67.96760559 42.38311005 C-67.50269714 41.36301849 -67.50269714 41.36301849 -67.02839661 40.32231903 C-63.48039361 33.22237519 -58.22048804 28.07733669 -52.59260559 22.57061005 C-51.67221497 21.64312958 -50.75182434 20.71564911 -49.80354309 19.76006317 C-45.13217555 15.13207262 -40.89718463 11.25596811 -34.96760559 8.38311005 C-33.97760559 7.84686005 -32.98760559 7.31061005 -31.96760559 6.75811005 C-28.66374704 5.24384154 -25.48495442 4.30569335 -21.96760559 3.38311005 C-20.78307823 3.01659347 -20.78307823 3.01659347 -19.57462102 2.64267251 C-12.91638061 0.64477061 -6.92883683 -0.04662629 0 0 Z M171.02274418 26.39849472 C143.9555581 26.45770838 116.88847314 26.5285095 89.82143885 26.63812852 C87.71627941 26.64664663 85.61111995 26.65515908 83.50596046 26.66366577 C82.47347681 26.66784678 81.44099317 26.67202779 80.37722213 26.6763355 C73.20109908 26.70470338 66.02497812 26.72573742 58.84882164 26.7434845 C50.24805115 26.76488715 41.64739684 26.79658064 33.04671849 26.84205443 C28.70454437 26.86477903 24.36248575 26.88298312 20.02025247 26.88835239 C16.05934496 26.89340939 12.09874647 26.91229028 8.13794903 26.94195595 C6.71616888 26.95026078 5.29434916 26.95368206 3.87254646 26.95148358 C-11.75107499 26.93342729 -24.04644974 29.61928899 -35.65510559 40.38311005 C-44.62097677 49.36908061 -48.02867616 60.10079081 -48.21760559 72.63311005 C-48.09007916 84.97483458 -44.30559972 94.1897443 -35.64729309 102.9260788 C-34.05327322 104.48202076 -32.45154893 106.03010491 -30.84260559 107.57061005 C-29.23120639 109.12180594 -27.62426511 110.67764903 -26.02229309 112.2385788 C-25.31572571 112.91557831 -24.60915833 113.59257782 -23.88117981 114.29009247 C-21.96760559 116.38311005 -21.96760559 116.38311005 -20.73595715 118.61094189 C-18.47597678 122.15381524 -15.73685854 124.88373247 -12.76040649 127.83081818 C-12.12897616 128.46395736 -11.49754582 129.09709655 -10.84698123 129.74942178 C-8.73281354 131.86688016 -6.6115836 133.97711725 -4.49031067 136.08745575 C-2.97221649 137.60498572 -1.4545627 139.12295635 0.06268311 140.64133453 C4.18187444 144.76110002 8.30720607 148.87466705 12.43365645 152.98715997 C16.74539418 157.28640088 21.05147426 161.59130074 25.3581543 165.89560699 C33.51389211 174.04512697 41.6747151 182.18953498 49.83737117 190.33212489 C59.13020148 199.6026057 68.41735795 208.87876162 77.70403898 218.15540183 C96.80717813 237.23763208 115.91744191 256.31271392 135.03239441 275.38311005 C133.30307428 279.0755647 131.20934509 281.4504958 128.30583191 284.3401413 C127.8393222 284.80619278 127.3728125 285.27224426 126.89216614 285.75241852 C125.90432701 286.7372435 124.91406546 287.71964386 123.92155457 288.69976044 C122.42806394 290.17519047 120.94253691 291.65826744 119.45817566 293.14287567 C115.56156613 297.01964289 111.66872458 300.8553938 107.48836803 304.42809677 C102.39261603 308.87716983 97.62562314 313.63537062 92.84082031 318.41405487 C91.83122667 319.41890753 90.82142787 320.4235541 89.81144351 321.42801404 C87.05495141 324.17070774 84.30153167 326.91646724 81.54867518 329.66280937 C79.18279764 332.02228185 76.81509558 334.37991924 74.44737843 336.73754546 C66.6553424 344.49639585 58.86908332 352.26102959 51.08443382 360.02729023 C49.05690067 362.05002181 47.02927721 364.07266284 45.00163436 366.09528446 C32.39583454 378.67012548 19.79217908 391.24711323 7.1934557 403.82904434 C4.28083009 406.73772088 1.36817751 409.64637039 -1.54450989 412.55498505 C-2.26838433 413.27785113 -2.99225877 414.0007172 -3.7380688 414.74548832 C-15.4742361 426.46463507 -27.22240742 438.17167258 -38.97544523 449.8738974 C-51.05432934 461.90098963 -63.1218423 473.93939882 -75.17848474 485.98878789 C-81.94329026 492.74893529 -88.7130353 499.50397029 -95.49567223 506.24623108 C-101.26891984 511.9851509 -107.03185135 517.73418264 -112.78163334 523.49661633 C-115.71344869 526.43425038 -118.64985834 529.36685838 -121.59964371 532.28645706 C-124.30381365 534.96317882 -126.99356649 537.65358089 -129.67286614 540.35518995 C-131.09632487 541.78337183 -132.53449266 543.19684749 -133.97325581 544.60961032 C-140.40542563 551.13629487 -145.04641779 557.79537878 -146.56135559 566.98467255 C-146.24822121 577.08325628 -144.80217187 583.86508714 -137.96760559 591.38311005 C-137.50213141 592.17854953 -137.03665723 592.97398902 -136.55707777 593.79353273 C-134.9352594 596.43580866 -133.22386525 598.37750579 -131.0360508 600.56634712 C-130.23546356 601.37214985 -129.43487632 602.17795259 -128.61002886 603.00817358 C-127.73115083 603.88259018 -126.85227279 604.75700677 -125.94676208 605.65792084 C-125.00273334 606.60425479 -124.05914091 607.55102415 -123.11594713 608.49819028 C-120.52590856 611.09657722 -117.92966967 613.68869025 -115.33235931 616.27980566 C-112.53115344 619.07648824 -109.73570654 621.8789171 -106.93951416 624.68061066 C-101.46204099 630.16698077 -95.97916988 635.64792558 -90.49434973 641.1269498 C-86.03712873 645.57965551 -81.58186187 650.0343077 -77.12798691 654.49036026 C-76.49427927 655.12437437 -75.86057163 655.75838847 -75.20766073 656.41161513 C-73.92033651 657.69957879 -72.63301678 658.98754694 -71.3457015 660.27551953 C-59.27205023 672.35487498 -47.19227438 684.42809068 -35.11039989 696.49922042 C-24.74194321 706.85874151 -14.37874154 717.2234952 -4.0193634 727.59209442 C8.00834372 739.63050262 20.03928623 751.66566211 32.07541621 763.6956495 C33.35866307 764.97825926 34.64190574 766.2608732 35.9251442 767.54349136 C36.55653692 768.17457554 37.18792965 768.80565972 37.83845549 769.45586766 C42.28934254 773.90502728 46.73790335 778.35650471 51.18557358 782.80887985 C56.60526044 788.23417373 62.02849178 793.65589419 67.4563093 799.07305409 C70.22598439 801.83747008 72.99403091 804.60346634 75.75777245 807.37381554 C78.28747294 809.9094726 80.82173891 812.4404711 83.35973556 814.96782355 C84.71226713 816.31706044 86.05988747 817.671215 87.40733087 819.02553332 C88.61603497 820.22641418 88.61603497 820.22641418 89.84915733 821.45155525 C90.54128016 822.14335337 91.23340298 822.83515149 91.94649923 823.54791319 C94.17513864 825.50869822 96.45594957 826.91832712 99.03239441 828.38311005 C100.02239441 829.04311005 101.01239441 829.70311005 102.03239441 830.38311005 C103.02239441 830.38311005 104.01239441 830.38311005 105.03239441 830.38311005 C105.03239441 831.04311005 105.03239441 831.70311005 105.03239441 832.38311005 C109.15659293 833.75784289 113.0249095 833.60702712 117.34489441 833.63311005 C118.18729675 833.65373505 119.0296991 833.67436005 119.89762878 833.69561005 C121.13416199 833.70334442 121.13416199 833.70334442 122.39567566 833.71123505 C123.14115662 833.72058075 123.88663757 833.72992645 124.65470886 833.73955536 C137.35065022 831.83627223 149.14844735 815.41002826 157.82609558 806.71880341 C159.29382052 805.25243592 160.76175757 803.78628072 162.22988892 802.32032013 C166.19064983 798.36409186 170.14827265 794.40473862 174.10517669 790.44465327 C178.25904449 786.2882412 182.41536582 782.13428373 186.57128906 777.97992706 C193.54571863 771.00731276 200.51804619 764.03260177 207.48918152 757.05669403 C215.53644948 749.00398042 223.58731918 740.9548812 231.6400606 732.90764135 C238.57039791 725.98184839 245.49877664 719.05410065 252.42553502 712.12472826 C256.55550692 707.99320142 260.68614182 703.86234354 264.8185482 699.73325157 C268.70241919 695.85227865 272.58381773 691.96884956 276.46335793 688.08354759 C277.88344512 686.66214336 279.30437429 685.24157973 280.72622681 683.82194138 C289.76816693 674.81516631 289.76816693 674.81516631 298.30544186 665.33577061 C302.32798552 660.78749142 306.71649419 656.56983836 311.01652527 652.2854538 C312.11135498 651.19090669 313.20596348 650.09613828 314.30036926 649.0011673 C317.25010595 646.05114553 320.20289973 643.10420148 323.15628123 640.15782928 C326.25037918 637.07001327 329.34161604 633.97933562 332.4331665 630.88896942 C338.27810315 625.04713188 344.12558259 619.20784657 349.97399575 613.36948967 C356.63623517 606.71845563 363.2956108 600.06455733 369.95475566 593.41042519 C383.64413341 579.73147964 397.33707656 566.05610826 411.03239441 552.38311005 C416.02144111 556.56359489 420.70453625 560.91950282 425.28765869 565.53830719 C425.98361017 566.23552094 426.67956165 566.9327347 427.39660257 567.65107614 C429.71256681 569.97238948 432.02492171 572.29726455 434.33732605 574.62212372 C436.0032403 576.29323472 437.66939961 577.96410145 439.33578491 579.63474274 C442.91599448 583.22487183 446.49473657 586.81645515 450.07242012 590.40910149 C455.72925665 596.08903946 461.39099656 601.76407238 467.05374146 607.43811798 C468.99392755 609.38230465 470.93407952 611.32652537 472.87422085 613.27075672 C473.3589534 613.7565085 473.84368595 614.24226028 474.34310736 614.74273181 C479.85052426 620.26187229 485.356859 625.78209186 490.86271667 631.30278778 C491.36558881 631.80701235 491.86846095 632.31123692 492.38657164 632.83074103 C500.5457101 641.01208711 508.70100391 649.19725741 516.85534555 657.38338407 C525.23706216 665.79749117 533.62453562 674.20583068 542.01695341 682.60926419 C547.6488059 688.24897794 553.27378216 693.89545692 558.8941251 699.54664075 C562.38914848 703.05765482 565.89043454 706.56237001 569.39355659 710.0653019 C571.01753418 711.69170385 572.63892957 713.32068883 574.25754929 714.9524231 C576.46620209 717.17822351 578.68390708 719.39459687 580.90411377 721.60886383 C581.54332309 722.2574938 582.18253242 722.90612377 582.84111172 723.57440919 C586.9826651 727.6789773 590.88737651 731.38311005 597.03239441 731.38311005 C597.03239441 732.04311005 597.03239441 732.70311005 597.03239441 733.38311005 C610.24463287 737.38249034 622.94984736 738.19932672 635.65739441 732.1292038 C646.76134702 725.91708397 655.26524972 716.57733562 659.03239441 704.38311005 C659.54020464 702.86785772 659.54020464 702.86785772 660.05827367 701.32199425 C661.30014917 696.93173133 661.31383732 692.71059323 661.29410744 688.17346287 C661.2981035 687.2627081 661.30209956 686.35195333 661.30621672 685.41359994 C661.31719892 682.35691861 661.31398836 679.30041809 661.31086731 676.24372101 C661.31587012 674.03114888 661.32174587 671.81857858 661.32842004 669.60601085 C661.34424367 663.52011699 661.34765213 657.43426927 661.34906864 651.34835732 C661.35238079 645.4577653 661.36503637 639.5671984 661.37746851 633.67661966 C661.40260557 621.61181944 661.41846295 609.54702358 661.42905045 597.48220253 C661.43959878 585.49467853 661.4542544 573.50717102 661.4743309 561.51965904 C661.4762042 560.39889477 661.4762042 560.39889477 661.47811535 559.2554888 C661.48448094 555.4592768 661.49091799 551.66306494 661.49738173 547.86685311 C661.54308897 520.94267464 661.57949739 494.01849074 661.61051941 467.09429169 C661.64049217 441.0972129 661.67479049 415.10014578 661.7150116 389.10308075 C661.7168581 387.90800406 661.7168581 387.90800406 661.71874191 386.68878441 C661.72988764 379.4775517 661.74108554 372.26631907 661.7523428 365.05508653 C661.8153977 324.65088335 661.87558654 284.24667521 661.92842566 243.84245729 C661.93121658 241.71008517 661.93402386 239.57771307 661.93683197 237.44534097 C661.95626689 222.64142445 661.97379944 207.83750973 661.98642921 193.03358555 C661.98969073 189.29625471 661.99297345 185.55892388 661.99628343 181.82159308 C661.9984107 179.41592513 662.00050123 177.01025715 662.00255345 174.60458913 C662.01501983 160.53295463 662.04390442 146.46157841 662.10211433 132.39005921 C662.12012225 127.80704772 662.13324276 123.22401983 662.14592444 118.64099083 C662.15908262 114.14323509 662.18580623 109.64570038 662.21576881 105.14801884 C662.31283164 81.88339265 661.13485164 61.68765573 644.03239441 44.38311005 C637.6706784 38.06696506 631.93949169 33.30178602 623.15739441 30.88311005 C620.20165442 30.06369698 617.64257336 29.19474564 614.86653614 27.85334396 C608.18859033 25.3619658 600.95237522 25.97745448 593.92831421 26.01561737 C592.2727675 26.01359124 590.61722197 26.01024979 588.96168023 26.00571179 C584.41522592 25.99706888 579.86897618 26.00712815 575.32253969 26.02025414 C570.40630646 26.0311704 565.49009178 26.02473287 560.57385254 26.02046967 C550.89346351 26.01481776 541.21315347 26.0252136 531.53277787 26.04075763 C520.07637338 26.05848006 508.61998338 26.05972173 497.16356734 26.06037322 C476.48595609 26.06206724 455.80837952 26.07789276 435.13078308 26.10186005 C415.51066295 26.12458272 395.89056469 26.13914501 376.27043152 26.14287567 C374.49411255 26.14323076 374.49411255 26.14323076 372.68190835 26.14359301 C367.90763705 26.14454446 363.13336574 26.14547787 358.35909443 26.14638695 C300.57030073 26.15787973 242.78173534 26.23475605 184.99309444 26.36723709 C180.33631155 26.3779116 175.6795282 26.38832354 171.02274418 26.39849472 Z " fill="#010101" transform="translate(207.9676055908203,139.61688995361328)"/>
<path d="M0 0 C6.6965934 -0.10860754 13.39300716 -0.19572743 20.09026229 -0.25109339 C23.36292066 -0.27841026 26.63453609 -0.31795445 29.90678787 -0.37760925 C33.38576017 -0.43921661 36.86296642 -0.46360686 40.34240723 -0.47753906 C41.3341885 -0.50373322 42.32596977 -0.52992737 43.34780502 -0.55691528 C48.80779991 -0.53109874 52.79619318 0.1102457 56.74981499 4.09716606 C59.37644503 8.49843785 58.82880801 13.42347694 58.67834473 18.39477539 C58.66949375 19.61846266 58.66064278 20.84214993 58.65152359 22.10291862 C58.62100802 25.45028187 58.55954037 28.79441894 58.48481035 32.14090705 C58.41328771 35.69503343 58.38257895 39.24950612 58.34835815 42.80415344 C58.28739346 48.70332787 58.20533916 54.60184647 58.109375 60.50054932 C57.98169783 68.47762478 57.92263028 76.45405509 57.8927002 84.43212891 C57.88794835 85.65202452 57.88319651 86.87192013 57.87830067 88.12878227 C57.86876082 90.58107994 57.85926621 93.03337779 57.84981728 95.48567581 C57.80397605 105.61455947 57.71714173 115.74323834 57.6376152 125.87190247 C57.61125628 129.24806017 57.58557375 132.62422158 57.56024438 136.00038707 C57.31978677 167.98435457 56.99389755 199.96562174 56.46984863 231.94628906 C56.45299436 232.97764311 56.45299436 232.97764311 56.4357996 234.0298326 C56.20889577 247.89175003 55.9706263 261.75342819 55.71036339 275.61476421 C55.23441927 301.05473059 54.91846702 326.48193255 54.96203613 351.92675781 C55.01141859 381.13290523 54.87221277 410.33290082 54.51014233 439.53680801 C54.4188448 446.9372505 54.33985155 454.33744186 54.28869629 461.73828125 C54.24279527 468.37895499 54.17631798 475.01903129 54.08416426 481.65923071 C54.03671103 485.12327447 53.99897359 488.58674114 53.98633957 492.05110168 C53.96720509 495.849778 53.91135905 499.6462082 53.84631348 503.44433594 C53.84918365 504.5648233 53.85205383 505.68531067 53.85501099 506.8397522 C53.6783236 514.09280488 53.6783236 514.09280488 51.76460648 517.02708435 C49.5551675 519.09778002 47.7405059 520.16647798 44.68395901 520.14495087 C40.77723194 518.72268897 38.33249279 516.03903537 35.48484802 513.12524414 C34.84636399 512.48806111 34.20787996 511.85087809 33.55004793 511.19438648 C31.40944334 509.05334495 29.28347699 506.89833392 27.15710449 504.74316406 C25.62681271 503.20683385 24.09561657 501.67140398 22.56358337 500.1368103 C19.26477366 496.82873849 15.97233238 493.51449903 12.68461418 490.19540405 C7.48904353 484.9505949 2.27885745 479.72047236 -2.93357849 474.49243164 C-13.05327629 464.33842378 -23.15814712 454.16973433 -33.26131439 443.99928284 C-46.1238662 431.05168446 -58.9927806 418.11043951 -71.87628931 405.18369198 C-77.05979289 399.98178026 -82.23550777 394.77227531 -87.40535557 389.55679321 C-90.61854975 386.31809242 -93.83786069 383.08552525 -97.05884361 379.8545723 C-98.55467284 378.35150998 -100.04789216 376.84584527 -101.53833771 375.33744431 C-103.56829847 373.2837055 -105.60723243 371.23931606 -107.6486969 369.19702148 C-108.24062287 368.59362851 -108.83254884 367.99023554 -109.44241196 367.36855793 C-112.23341145 364.59540705 -114.14489388 362.88607768 -118.01843262 362.16113281 C-118.25034878 362.71785803 -118.48226494 363.27458325 -118.72120887 363.84817892 C-120.36321108 366.77587386 -122.39901993 368.79252247 -124.77401257 371.16839504 C-125.26385145 371.66114081 -125.75369033 372.15388657 -126.25837281 372.66156402 C-127.90798348 374.31849821 -129.5646528 375.96818955 -131.22135925 377.61802673 C-132.4147131 378.81368409 -133.60763045 380.00977723 -134.80014735 381.20626932 C-138.08406561 384.49855958 -141.37422107 387.7845548 -144.66541755 391.06956708 C-148.21173889 394.61137462 -151.75231434 398.15891791 -155.29362488 401.70573425 C-162.23509238 408.65610969 -169.18197427 415.60104916 -176.13079157 422.54407566 C-181.77842573 428.18719775 -187.42411048 433.83226321 -193.06839943 439.47873116 C-193.87096215 440.28160034 -194.67352487 441.08446953 -195.50040767 441.91166808 C-197.13069896 443.54259881 -198.76098576 445.17353404 -200.39126811 446.80447371 C-215.69115437 462.11006764 -230.99717276 477.40951746 -246.3052818 492.70688666 C-259.44124669 505.83392076 -272.57196606 518.96618272 -285.69885254 532.10229492 C-300.9358795 547.3500256 -316.17614686 562.59450538 -331.42159683 577.83381468 C-333.04753107 579.45911182 -334.67346114 581.08441315 -336.29938698 582.7097187 C-337.099404 583.50942717 -337.89942101 584.30913564 -338.72368097 585.13307769 C-344.36184616 590.76951587 -349.99768679 596.40827194 -355.63263512 602.04792595 C-362.50192526 608.92282627 -369.37476931 615.79414983 -376.25218882 622.66091817 C-379.76132358 626.1647973 -383.26884133 629.67025536 -386.77204132 633.18006897 C-389.97975064 636.39374233 -393.19204899 639.60275331 -396.4080529 642.80812544 C-397.57001246 643.96785286 -398.73029394 645.12926456 -399.88870867 646.29253279 C-413.92848137 660.38660244 -413.92848137 660.38660244 -419.62612343 661.81477928 C-423.2003973 660.83818666 -424.99538929 658.44166011 -427.29537964 655.70278931 C-428.36159173 654.49278093 -429.4311353 653.28570232 -430.50349045 652.0811348 C-431.07261642 651.43889103 -431.64174239 650.79664727 -432.2281146 650.13494158 C-435.29399544 646.7548368 -438.52023752 643.5386261 -441.75003052 640.31600952 C-442.44354449 639.62211286 -443.13705846 638.9282162 -443.85158801 638.21329236 C-446.09469673 635.97160173 -448.34096875 633.73310975 -450.58728027 631.49462891 C-452.22147657 629.86235612 -453.85544214 628.2298523 -455.48919678 626.59713745 C-458.98088748 623.10858512 -462.47411949 619.62158649 -465.96858597 616.13581467 C-471.49248767 610.62551985 -477.01249716 605.1113368 -482.5319519 599.59658813 C-490.26536144 591.87033901 -498.00030985 584.14563354 -505.73669434 576.42236328 C-506.22582575 575.93405968 -506.71495716 575.44575608 -507.21891074 574.9426554 C-510.69370394 571.47376703 -514.16856364 568.00494528 -517.64343262 564.53613281 C-521.63030086 560.55620426 -525.61713051 556.57623707 -529.60388184 552.59619141 C-530.09543961 552.10546176 -530.58699739 551.6147321 -531.09345086 551.10913186 C-539.28368069 542.93257778 -547.47193292 534.75404646 -555.65882909 526.5741545 C-561.14878512 521.08918523 -566.64117072 515.60666392 -572.13541913 510.12599444 C-575.54153715 506.72731545 -578.9456003 503.32658415 -582.34909821 499.92528152 C-583.93091692 498.34534027 -585.51360249 496.76626638 -587.0972023 495.18811035 C-589.25265786 493.03983411 -591.4050414 490.88852667 -593.55667114 488.73641968 C-594.50450059 487.79398267 -594.50450059 487.79398267 -595.4714781 486.83250654 C-596.33371617 485.96820695 -596.33371617 485.96820695 -597.21337318 485.08644676 C-597.71037747 484.59036427 -598.20738176 484.09428178 -598.71944678 483.58316648 C-600.67777611 481.4393323 -601.92680727 479.68062201 -602.43448073 476.80226046 C-601.83861473 473.01962544 -600.06158247 471.58927207 -597.36166286 468.90309048 C-596.85822791 468.39538428 -596.35479296 467.88767809 -595.8361024 467.36458686 C-594.13523359 465.65545414 -592.4170335 463.96487146 -590.69847107 462.27354431 C-589.46749246 461.04396499 -588.23761872 459.8132787 -587.00876147 458.58157927 C-583.62028835 455.19162421 -580.21642287 451.81749664 -576.80996263 448.44562995 C-573.14238749 444.80985193 -569.48924677 441.15962394 -565.8344574 437.51100159 C-559.49726006 431.18825498 -553.15124863 424.87446767 -546.79948235 418.56635857 C-537.61442669 409.44397382 -528.44550385 400.30551038 -519.28097064 391.16251368 C-504.4107715 376.32767234 -489.53127036 361.50220091 -474.64416504 346.68432617 C-473.75269953 345.79699972 -472.86123401 344.90967327 -471.9427544 343.99545813 C-465.61405994 337.69626903 -459.28503396 331.39741308 -452.95593262 325.09863281 C-445.72450113 317.9018427 -438.49322193 310.70489968 -431.2623291 303.50756836 C-429.92629397 302.17774418 -429.92629397 302.17774418 -428.56326824 300.82105487 C-413.73207337 286.05820191 -398.91062794 271.28559837 -384.09616476 256.50595576 C-374.94981387 247.38205636 -365.79464255 238.26717847 -356.62807477 229.16358984 C-350.35267868 222.93020685 -344.08604117 216.68811179 -337.82633346 210.43897455 C-334.20962245 206.82901305 -330.58881723 203.22340586 -326.95709991 199.62853622 C-323.6372873 196.34228148 -320.32898887 193.04489023 -317.02973814 189.73799641 C-315.82957185 188.53919566 -314.62509377 187.34469418 -313.41608726 186.15480947 C-311.782146 184.54553515 -310.16411424 182.92182656 -308.54936123 181.29333401 C-307.64372824 180.39230998 -306.73809525 179.49128596 -305.80501884 178.56295818 C-303.79197135 176.37358327 -303.79197135 176.37358327 -304.07644039 174.0212034 C-305.73085316 170.75437756 -308.42766124 168.3761091 -311.01635742 165.84281921 C-311.6494569 165.21138986 -312.28255637 164.5799605 -312.93484068 163.92939693 C-315.06441935 161.80894829 -317.2045053 159.69942582 -319.34460449 157.58959961 C-320.87088781 156.07398171 -322.39647041 154.55765789 -323.92140198 153.04067993 C-327.20984347 149.77191147 -330.50273309 146.5077131 -333.79896545 143.24680138 C-339.0091094 138.0914512 -344.20627104 132.92314866 -349.40112305 127.75239563 C-364.17635324 113.04968464 -378.96903359 98.3646049 -393.77478027 83.69262695 C-401.94917737 75.59185634 -410.11277421 67.48035665 -418.26490641 59.35717899 C-423.428216 54.21351431 -428.60476565 49.0836748 -433.7914505 43.96358716 C-437.01430856 40.77589552 -440.22457419 37.57575429 -443.43139458 34.3719368 C-444.9221581 32.88762131 -446.41809389 31.40847999 -447.91949654 29.93492699 C-449.96726865 27.92368462 -451.9957562 25.89477493 -454.02050781 23.86039734 C-454.62000984 23.28041872 -455.21951186 22.70044011 -455.83718061 22.10288638 C-459.65856745 18.21022407 -460.79609229 15.63622259 -461.01843262 10.16113281 C-460.02843262 9.83113281 -459.03843262 9.50113281 -458.01843262 9.16113281 C-457.68843262 8.17113281 -457.35843262 7.18113281 -457.01843262 6.16113281 C-454.67283859 4.9883358 -453.27278041 5.02650868 -450.65774536 5.00964355 C-449.73847165 5.0013021 -448.81919794 4.99296064 -447.87206745 4.98436642 C-446.85769706 4.9801798 -445.84332666 4.97599318 -444.79821777 4.97167969 C-443.72853602 4.96336656 -442.65885427 4.95505342 -441.55675793 4.94648838 C-437.97368695 4.91973026 -434.39060964 4.89989173 -430.80749512 4.87988281 C-428.28191286 4.86209021 -425.75633402 4.84380601 -423.23075867 4.82505798 C-417.84282805 4.78584271 -412.4548901 4.74933406 -407.06692505 4.71530151 C-393.72619578 4.63082903 -380.38557816 4.53066768 -367.0449574 4.43071246 C-364.93931955 4.41500255 -362.83368033 4.39948813 -360.7280407 4.38401985 C-343.79688498 4.25928914 -326.86644238 4.11119236 -309.93640137 3.87597656 C-309.08878738 3.86425541 -308.2411734 3.85253426 -307.36787415 3.84045792 C-300.47477742 3.74431064 -293.58174437 3.6443938 -286.68890381 3.53125 C-273.14247795 3.30956053 -259.60197037 3.13593207 -246.05358887 3.18701172 C-216.29101035 3.29186709 -186.54998658 2.99147145 -156.79187012 2.50488281 C-155.78082741 2.48842185 -154.76978471 2.47196089 -153.72810435 2.45500112 C-135.82024845 2.16314937 -117.912616 1.85826433 -100.00500488 1.55181885 C-72.68392373 1.08456758 -45.36278784 0.64282139 -18.04019284 0.2732935 C-12.02663263 0.19119175 -6.01331717 0.09816024 0 0 Z M-403.01843262 35.16113281 C-401.01776022 39.16247761 -398.72516898 41.72690485 -395.60379028 44.80955505 C-395.04545702 45.3688916 -394.48712376 45.92822814 -393.91187131 46.50451428 C-392.03885718 48.37848138 -390.15878712 50.24520519 -388.27868652 52.11206055 C-386.93470854 53.4538374 -385.59117791 54.79606248 -384.24806213 56.13870239 C-381.3540767 59.02975323 -378.45696091 61.91761725 -375.55739212 64.80306816 C-370.97241726 69.36578945 -366.39452931 73.93557665 -361.81759644 78.50636292 C-354.57656177 85.73601179 -347.33087141 92.96097392 -340.08314645 100.1839152 C-327.10698236 113.1157807 -314.1363511 126.05318972 -301.17096078 138.99585682 C-296.62026026 143.53815091 -292.06676602 148.07762042 -287.51100564 152.61483943 C-284.67623803 155.43895692 -281.84350597 158.26510966 -279.01127434 161.09177017 C-277.69799864 162.40157802 -276.38385209 163.71051338 -275.06876945 165.018507 C-273.27253798 166.80526924 -271.47943315 168.59511326 -269.68704224 170.38572693 C-268.90697577 171.15937777 -268.90697577 171.15937777 -268.11115038 171.94865793 C-262.04275685 178.02655175 -262.04275685 178.02655175 -260.01843262 181.16113281 C-260.24093943 185.91413537 -262.40478455 188.04141886 -265.6889286 191.30985355 C-266.42808388 192.05368492 -266.42808388 192.05368492 -267.18217158 192.81254318 C-268.84305031 194.47901619 -270.51786044 196.13074595 -272.19290161 197.78297424 C-273.39565603 198.98389319 -274.59752462 200.18569987 -275.79857957 201.38831848 C-279.10720498 204.69618359 -282.42815822 207.9914281 -285.7511673 211.28483474 C-289.33035867 214.83652088 -292.89797996 218.39979383 -296.46690369 221.96179199 C-302.654011 228.13392794 -308.84812053 234.2989638 -315.04674149 240.4595356 C-324.01036345 249.36859101 -332.96060372 258.29099458 -341.90711431 267.2172296 C-356.42375845 281.70071111 -370.94748326 296.17706794 -385.47741699 310.6472168 C-386.3473827 311.51360895 -387.21734841 312.3800011 -388.11367671 313.27264755 C-397.82438337 322.94324156 -407.53625835 332.61266155 -417.24884033 342.28137207 C-420.77266283 345.78934871 -424.29644488 349.29736598 -427.82019043 352.80541992 C-428.68970882 353.6710604 -429.55922722 354.53670089 -430.45509465 355.4285729 C-444.93383712 369.84330501 -459.40289182 384.26772055 -473.86460149 398.69954056 C-482.79253882 407.60814281 -491.72900288 416.50802572 -500.67647587 425.3970077 C-506.80149315 431.48314665 -512.91767181 437.57807135 -519.02685644 443.68010253 C-522.55649987 447.20498982 -526.0902204 450.72553654 -529.63485146 454.23535728 C-532.8750694 457.44388969 -536.10375598 460.66355939 -539.32338898 463.89274382 C-540.49458995 465.06327771 -541.6701015 466.22951641 -542.85014053 467.39113993 C-544.44500988 468.96230151 -546.02394508 470.54787702 -547.59961891 472.13825321 C-548.48344549 473.0180129 -549.36727206 473.89777258 -550.27788126 474.80419165 C-552.25244377 476.96255215 -552.25244377 476.96255215 -551.92849177 479.31723511 C-550.49287419 482.22598225 -548.26884908 484.32940199 -545.98979187 486.58418274 C-545.4608979 487.11916781 -544.93200393 487.65415288 -544.38708287 488.20534962 C-542.61009086 489.99901243 -540.8225297 491.78175109 -539.03479004 493.56469727 C-537.75975016 494.84707491 -536.48533575 496.1300747 -535.21150208 497.41365051 C-531.74756452 500.89983912 -528.27400764 504.37628996 -524.79798293 507.85042214 C-521.900041 510.74824458 -519.00644902 513.65039168 -516.11274129 516.5524413 C-509.2891244 523.3953038 -502.45734897 530.22994666 -495.62072754 537.05981445 C-488.55861437 544.11527982 -481.51140489 551.18538806 -474.47117347 558.26268226 C-468.43253334 564.3319606 -462.38432888 570.39159044 -456.32840043 576.44361848 C-452.70862764 580.06131835 -449.09277735 583.68273765 -445.48625755 587.31365395 C-442.09675891 590.725321 -438.69554084 594.12484241 -435.28475761 597.51522636 C-434.03232582 598.76423096 -432.78418307 600.01755275 -431.54059982 601.27536774 C-429.84766371 602.98634024 -428.14020581 604.68132063 -426.42802429 606.3730011 C-425.6877896 607.13201256 -425.6877896 607.13201256 -424.93260068 607.90635759 C-423.42095546 609.43674717 -423.42095546 609.43674717 -421.01843262 611.16113281 C-416.92222945 610.95189645 -414.83675889 608.35119383 -412.0580225 605.56707287 C-411.57034186 605.08255416 -411.08266121 604.59803546 -410.58020237 604.09883437 C-408.93806442 602.46366768 -407.30690455 600.81796645 -405.6754303 599.17216492 C-404.49236583 597.98969227 -403.30864086 596.80788014 -402.12431091 595.62667495 C-398.86397507 592.37112052 -395.61309532 589.10626243 -392.36362731 585.83986533 C-388.86047622 582.32173806 -385.34867971 578.81226006 -381.83789062 575.30175781 C-375.75278186 569.21480901 -369.67314603 563.12243754 -363.59710884 557.02643394 C-354.80717793 548.20772274 -346.00852245 539.39775865 -337.2076013 530.59001706 C-322.92329998 516.29426307 -308.6453467 501.99218676 -294.3717041 487.68579102 C-280.51518726 473.79751881 -266.6569613 459.91095751 -252.79553223 446.02758789 C-251.94214241 445.1728445 -251.08875258 444.3181011 -250.20950247 443.43745639 C-240.89468514 434.10800103 -231.57916665 424.77924624 -222.2628088 415.45132923 C-221.44417344 414.63167549 -220.62553808 413.81202175 -219.78209559 412.96753002 C-216.50960446 409.69098708 -213.23710557 406.41445191 -209.96451663 403.13800666 C-200.37763462 393.53979314 -190.79295391 383.93939377 -181.21220946 374.33505366 C-175.2020242 368.31017033 -169.19022691 362.28689902 -163.17715663 356.26489504 C-159.7059086 352.78832269 -156.23553604 349.31088705 -152.76737022 345.8312397 C-149.59345819 342.64682559 -146.4172637 339.46470686 -143.23923659 336.28439973 C-142.08899227 335.1324932 -140.93960881 333.97972629 -139.79116816 332.82602151 C-138.23132043 331.25925577 -136.66840139 329.69561831 -135.10468388 328.13271618 C-134.23691289 327.26293925 -133.3691419 326.39316233 -132.47507483 325.49702853 C-125.80509604 319.15488607 -125.80509604 319.15488607 -122.98241425 319.17730045 C-113.48566926 323.93457765 -105.25347819 334.80179264 -97.79772949 342.30004883 C-96.49925683 343.60208522 -95.20054391 344.90388203 -93.90161133 346.20545959 C-91.12514055 348.98843603 -88.35018947 351.77291553 -85.57640076 354.55856514 C-81.19282061 358.96054385 -76.80480274 363.35808099 -72.41601562 367.75486755 C-59.94409578 380.25086586 -47.47821623 392.75288003 -35.01647949 405.2590332 C-28.11873352 412.18128603 -21.21743033 419.09997242 -14.31225634 426.01481575 C-9.94492418 430.3887012 -5.58214209 434.7670603 -1.22264004 439.14874947 C1.47951311 441.86258828 4.18579516 444.57227934 6.89329529 447.2807827 C8.15202138 448.54166518 9.40901452 449.80428024 10.66418457 451.0687027 C12.37061901 452.78723372 14.08301791 454.49958563 15.79711914 456.21046448 C16.29807744 456.71793058 16.79903573 457.22539667 17.31517458 457.74824053 C19.69648515 460.40454875 19.69648515 460.40454875 22.98156738 461.16113281 C23.15929138 430.2861906 23.32468391 399.41118784 23.48156738 368.53613281 C23.49049019 366.78390883 23.49049019 366.78390883 23.49959326 364.99628639 C23.80037467 305.80912638 24.02473591 246.62254878 24.04797363 187.43457031 C24.04869342 185.7077637 24.04869342 185.7077637 24.04942775 183.9460721 C24.06893018 134.35109464 24.01463068 84.75607903 23.98156738 35.16113281 C-116.92843262 35.16113281 -257.83843262 35.16113281 -403.01843262 35.16113281 Z " fill="#010101" transform="translate(744.0184326171875,232.8388671875)"/>
</svg>
