<?xml version="1.0" encoding="UTF-8"?>
<svg version="1.1" xmlns="http://www.w3.org/2000/svg" width="1040" height="1040">
<path d="M0 0 C325.38 0 650.76 0 986 0 C986 325.38 986 650.76 986 986 C660.62 986 335.24 986 0 986 C0 660.62 0 335.24 0 0 Z " fill="#573E93" transform="translate(27,27)"/>
<path d="M0 0 C1.35036598 -0.00422974 1.35036598 -0.00422974 2.72801208 -0.00854492 C3.72337479 -0.00652069 4.71873749 -0.00449646 5.7442627 -0.00241089 C6.78643448 -0.00416321 7.82860626 -0.00591553 8.90235901 -0.00772095 C12.36595295 -0.01214174 15.82949631 -0.00920067 19.29309082 -0.00582886 C21.68823252 -0.00650183 24.08337416 -0.0074718 26.47851562 -0.00872803 C31.5057439 -0.01020531 36.53295444 -0.00804947 41.56018066 -0.00338745 C48.02040773 0.00230985 54.48059325 -0.000969 60.94081879 -0.00695992 C65.88885819 -0.01056471 70.83688767 -0.00942732 75.78492737 -0.00683212 C78.16768905 -0.00616263 80.55045163 -0.00699206 82.93321228 -0.00931168 C86.25697231 -0.01183687 89.58066404 -0.00799949 92.90441895 -0.00241089 C93.89978165 -0.00443512 94.89514435 -0.00645935 95.92066956 -0.00854492 C96.82091354 -0.0057251 97.72115753 -0.00290527 98.64868164 0 C99.43551582 0.00037703 100.22235001 0.00075405 101.03302765 0.0011425 C102.82434082 0.12698364 102.82434082 0.12698364 103.82434082 1.12698364 C103.92167979 2.66413826 103.94881401 4.20578119 103.94853932 5.74601465 C103.95078661 6.75308741 103.9530339 7.76016016 103.9553493 8.79775026 C103.95272228 9.9197694 103.95009527 11.04178855 103.94738865 12.19780827 C103.94854249 13.38251206 103.94969634 14.56721586 103.95088515 15.78781977 C103.95309125 19.10577862 103.95076271 22.42368056 103.94660701 25.74163404 C103.94318966 29.34007471 103.94554038 32.93851212 103.9471845 36.53695339 C103.94926418 42.85342339 103.94760438 49.169884 103.9435463 55.48635292 C103.9375287 64.87881481 103.93720886 74.27127073 103.93808828 83.6637342 C103.93940442 99.46084313 103.93605233 115.2579479 103.93007088 131.05505562 C103.92416072 146.70385318 103.92030632 162.35264901 103.91921806 178.00144768 C103.91914932 178.97320803 103.91908058 179.94496838 103.91900976 180.94617602 C103.91867144 185.88093854 103.91837005 190.81570107 103.91808289 195.7504636 C103.91598057 230.73428852 103.90923793 265.71811117 103.89978027 300.70193481 C103.89060093 334.69542427 103.88351483 368.68891311 103.87927246 402.68240356 C103.87914093 403.72960523 103.87900941 404.7768069 103.8788739 405.85574195 C103.87755542 416.37184567 103.8762796 426.8879494 103.87503504 437.40405313 C103.87249859 458.82796762 103.86967734 480.25188208 103.86668396 501.67579651 C103.86647803 503.15346218 103.86647803 503.15346218 103.86626793 504.66097968 C103.86204351 534.86535127 103.85661154 565.06972247 103.84999084 595.27409363 C103.84980329 596.1318943 103.84961573 596.98969497 103.84942249 597.8734896 C103.84180587 632.62465446 103.83291286 667.37581901 103.82434082 702.12698364 C44.09434082 702.12698364 -15.63565918 702.12698364 -77.17565918 702.12698364 C-77.17565918 478.05698364 -77.17565918 253.98698364 -77.17565918 23.12698364 C-42.03065918 22.63198364 -42.03065918 22.63198364 -6.17565918 22.12698364 C-5.84565918 15.19698364 -5.51565918 8.26698364 -5.17565918 1.12698364 C-3.62391472 -0.42476081 -2.15977942 0.0010349 0 0 Z " fill="#FEFEFE" transform="translate(104.1756591796875,310.8730163574219)"/>
<path d="M0 0 C4.39405043 1.94992251 6.14578117 5.88092923 7.83886719 10.14306641 C8.46709018 11.85230018 9.08481927 13.56541396 9.6940918 15.28149414 C10.03591995 16.21961945 10.37774811 17.15774475 10.72993469 18.1242981 C11.8609972 21.23474772 12.97856026 24.34987718 14.09643555 27.46508789 C14.89640851 29.67157626 15.69737099 31.8777061 16.49926758 34.08349609 C18.1774502 38.7034803 19.85061003 43.32523675 21.51977539 47.94848633 C23.91373402 54.57601187 26.32367733 61.19760272 28.7409668 67.81665039 C29.12557571 68.86981445 29.51018463 69.92297852 29.90644836 71.00805664 C31.85833965 76.35072542 33.81213076 81.69269822 35.76660156 87.03442383 C36.35517693 88.64305298 36.35517693 88.64305298 36.9556427 90.28417969 C37.75360939 92.46475427 38.5517768 94.64525541 39.35014343 96.82568359 C41.89836243 103.78792592 44.4338064 110.75470288 46.96304321 117.72386169 C48.72039687 122.5583703 50.48761377 127.38923702 52.25689697 132.21939087 C53.09002555 134.49995243 53.91927122 136.78193734 54.74407959 139.06552124 C64.06796093 164.86500669 74.89828914 190.93563804 93.03393555 211.90258789 C93.80608398 212.88743164 94.57823242 213.87227539 95.3737793 214.88696289 C99.63594176 220.00091256 105.50949026 223.29968879 111.03393555 226.90258789 C111.87311523 227.46333008 112.71229492 228.02407227 113.5769043 228.60180664 C136.47113565 243.21269801 165.90507287 245.54826877 192.16674805 240.51391602 C211.94526003 236.05987774 231.12880887 228.61037838 250.21960449 221.89141846 C254.64149326 220.33776372 259.06815997 218.79790062 263.49487305 217.25805664 C268.68050943 215.45320767 273.86557889 213.64679787 279.0480957 211.83300781 C296.82432241 205.61223691 314.62795828 199.47121503 332.43359375 193.33520508 C333.55782242 192.94745407 334.68205109 192.55970306 335.84034729 192.16020203 C338.01360632 191.41071903 340.18713173 190.66200792 342.36094666 189.91413879 C346.77448042 188.39221323 351.18221665 186.86220506 355.56225586 185.24609375 C356.21252243 185.00702301 356.862789 184.76795227 357.53276062 184.52163696 C359.14922698 183.92257137 360.76186588 183.3132029 362.37402344 182.70263672 C366.26395026 181.53262385 370.34511968 180.9655737 374.03393555 182.90258789 C378.56768093 187.97606486 379.0573057 193.30066741 379.78393555 199.90258789 C379.90462402 200.92336426 380.0253125 201.94414063 380.1496582 202.99584961 C382.59443999 224.85365117 382.59443999 224.85365117 378.03393555 230.90258789 C375.13793945 232.37792969 375.13793945 232.37792969 371.51049805 233.60180664 C370.83853897 233.83401917 370.1665799 234.06623169 369.47425842 234.30548096 C367.20787259 235.0839264 364.93374954 235.83666106 362.65893555 236.59008789 C361.02533314 237.14585933 359.39229123 237.70328051 357.75976562 238.26220703 C354.16041816 239.49064168 350.55743707 240.70755684 346.95141602 241.91625977 C340.69308051 244.01421333 334.44321783 246.13675954 328.1940918 248.26196289 C321.41628742 250.56620312 314.63807187 252.86916062 307.85693359 255.16357422 C294.19920121 259.78717226 280.57065612 264.48476651 266.97143555 269.27758789 C253.90399578 273.88296937 240.79849283 278.34791414 227.64230347 282.6930542 C214.17361019 287.14456352 200.78261231 291.8018243 187.41210938 296.53955078 C186.31350334 296.9282711 186.31350334 296.9282711 185.19270325 297.32484436 C183.77218809 297.82839091 182.35239571 298.33398193 180.93339539 298.84178162 C175.82475611 300.66043009 170.67014005 302.27088534 165.4519043 303.75024414 C159.85335001 306.41837583 157.49863813 312.52014811 154.83862305 317.81665039 C154.44967361 318.57933228 154.06072418 319.34201416 153.6599884 320.12780762 C152.40455462 322.5918527 151.15684133 325.05972319 149.90893555 327.52758789 C148.61159706 330.07712838 147.31218364 332.62560428 146.01268005 335.17404175 C145.16352531 336.839663 144.31501863 338.5056148 143.46717834 340.17190552 C140.59559116 345.81386783 137.68900368 351.43541087 134.72143555 357.02758789 C130.78130542 364.46313429 126.90184311 371.92923837 123.03393555 379.40258789 C118.67367664 387.8251673 114.29148826 396.23495475 109.86206055 404.62133789 C106.2181529 411.53056537 102.62530044 418.46593399 99.03393555 425.40258789 C88.56280668 445.61540878 88.56280668 445.61540878 83.37915039 455.36694336 C82.39693902 457.21834941 81.41863456 459.07182968 80.44262695 460.92651367 C78.73206397 464.17339291 77.00910896 467.41345183 75.28393555 470.65258789 C74.48717407 472.17178833 74.48717407 472.17178833 73.67431641 473.72167969 C65.14696296 489.63434221 52.24879464 497.17530093 36.43041992 504.74243164 C32.77403381 506.51251587 29.15153945 508.3488608 25.52416992 510.17749023 C15.8845167 515.03277942 6.19699023 519.77401179 -3.55078125 524.40795898 C-12.50536931 528.66861581 -21.42411665 533.00140311 -30.34106445 537.34008789 C-40.37090457 542.21919955 -50.40541232 547.08721149 -60.46606445 551.90258789 C-70.48458354 556.6980834 -80.47770183 561.54470833 -90.46606445 566.40258789 C-101.42813207 571.73403272 -112.40061219 577.04192474 -123.39575195 582.30493164 C-132.43566054 586.63704368 -141.45124008 591.018607 -150.46606445 595.40258789 C-161.04143732 600.54416307 -171.61931675 605.68017584 -182.21606445 610.77758789 C-183.21444336 611.25905273 -184.21282227 611.74051758 -185.24145508 612.23657227 C-200.97304153 619.78992632 -200.97304153 619.78992632 -204.96606445 618.90258789 C-207.88204552 614.85815539 -209.35037013 610.39362823 -210.91918945 605.71508789 C-211.18366882 604.93496338 -211.44814819 604.15483887 -211.72064209 603.35107422 C-212.27500036 601.70817209 -212.82615086 600.06418446 -213.37426758 598.41918945 C-214.21477502 595.90644274 -215.07428464 593.40072464 -215.93481445 590.89477539 C-216.47244794 589.293607 -217.00894529 587.69205658 -217.54418945 586.09008789 C-217.80242493 585.34412354 -218.0606604 584.59815918 -218.32672119 583.82958984 C-219.62466222 579.86651149 -220.4853932 576.88497961 -218.96606445 572.90258789 C-216.5715332 571.12133789 -216.5715332 571.12133789 -213.15356445 569.40258789 C-212.50468262 569.07274902 -211.85580078 568.74291016 -211.18725586 568.40307617 C-203.28599753 564.4480031 -195.23030083 560.79434148 -187.203125 557.10375977 C-178.57493158 553.13493749 -170.00743938 549.05466516 -161.46606445 544.90258789 C-150.85913655 539.74985828 -140.19378121 534.73658518 -129.4855957 529.79711914 C-121.10226748 525.91994719 -112.77410609 521.93754088 -104.46606445 517.90258789 C-93.85862492 512.75089009 -83.19380543 507.73659636 -72.4855957 502.79711914 C-63.49609403 498.63960045 -54.57277901 494.354885 -45.66445923 490.02740479 C-35.21391516 484.95344971 -24.7019821 480.02284596 -14.1496582 475.16430664 C-13.06168945 474.66286133 -11.9737207 474.16141602 -10.8527832 473.64477539 C-9.32790283 472.94239746 -9.32790283 472.94239746 -7.7722168 472.22583008 C-5.27114087 471.04644679 -2.81455743 469.80898253 -0.3605957 468.53540039 C3.03393555 466.90258789 3.03393555 466.90258789 6.03393555 466.90258789 C4.7229916 461.04703824 0.15656177 458.64765241 -4.46606445 455.40258789 C-5.31322021 454.79382813 -6.16037598 454.18506836 -7.03320312 453.55786133 C-8.79956073 452.28974076 -10.56939353 451.02644791 -12.3425293 449.76782227 C-15.58636187 447.46157987 -18.80705536 445.12446808 -22.02636719 442.78417969 C-24.25663107 441.16847741 -26.49767726 439.56859981 -28.73950195 437.96899414 C-31.48797836 435.99840019 -34.17069773 433.97222699 -36.81762695 431.86743164 C-44.929949 425.44769925 -44.929949 425.44769925 -54.9621582 424.30883789 C-55.95344727 424.50477539 -56.94473633 424.70071289 -57.96606445 424.90258789 C-59.19454102 425.13977539 -60.42301758 425.37696289 -61.6887207 425.62133789 C-70.36742549 427.45200218 -78.86971688 429.98799729 -87.37792969 432.47485352 C-96.21781472 435.03404052 -105.14050694 437.23011139 -114.07470703 439.43261719 C-120.95357387 441.1334958 -127.76768041 442.93626145 -134.5637207 444.94165039 C-138.98750509 446.19107744 -143.44164042 447.29841419 -147.90356445 448.40258789 C-158.43184801 451.00999151 -168.90952631 453.76806914 -179.35668945 456.68383789 C-192.9438603 460.46934604 -206.54323481 464.10317727 -220.24536133 467.45288086 C-226.7832537 469.06302865 -233.22666357 470.83559355 -239.65356445 472.84008789 C-245.25391741 474.55426181 -250.10339995 475.81231169 -255.96606445 474.90258789 C-258.72319188 472.43339967 -258.9755279 470.82536699 -259.43017578 467.11547852 C-259.48495835 465.59707772 -259.5233075 464.0780244 -259.5480957 462.55883789 C-259.57079025 461.75273071 -259.5934848 460.94662354 -259.61686707 460.11608887 C-259.66137736 458.41504436 -259.69876042 456.71380038 -259.72949219 455.01245117 C-259.7784027 452.41119075 -259.85391659 449.8116852 -259.93286133 447.21118164 C-259.9728604 445.55627133 -260.01132354 443.90132304 -260.0480957 442.24633789 C-260.07088089 441.47020142 -260.09366608 440.69406494 -260.11714172 439.89440918 C-260.22106694 432.68560134 -260.22106694 432.68560134 -257.96606445 429.90258789 C-255.84082031 428.82519531 -255.84082031 428.82519531 -253.1809082 428.00805664 C-252.18833008 427.69610352 -251.19575195 427.38415039 -250.1730957 427.06274414 C-248.55467773 426.5812793 -248.55467773 426.5812793 -246.90356445 426.09008789 C-245.7846582 425.74461914 -244.66575195 425.39915039 -243.51293945 425.04321289 C-234.82827292 422.38821405 -226.08585758 419.94563639 -217.32910156 417.54125977 C-209.1198903 415.27207799 -201.02026203 412.73254001 -192.92114258 410.10058594 C-183.96738482 407.1992401 -174.97506889 404.43876129 -165.96606445 401.71508789 C-165.29140137 401.5108017 -164.61673828 401.3065155 -163.92163086 401.09603882 C-156.59170537 398.87774244 -149.2536126 396.68997168 -141.90356445 394.53930664 C-131.23164029 391.41331806 -120.60092824 388.15193715 -109.96606445 384.90258789 C-96.6519997 380.83464237 -83.33082459 376.80093794 -69.96606445 372.90258789 C-64.85917614 371.41170113 -59.75545701 369.91051018 -54.65356445 368.40258789 C-53.39995117 368.0377832 -52.14633789 367.67297852 -50.85473633 367.29711914 C-47.20768419 366.21496416 -43.58743479 365.0674123 -39.96606445 363.90258789 C-38.32951904 363.43852539 -38.32951904 363.43852539 -36.65991211 362.96508789 C-28.11373323 360.13290057 -24.95451755 355.53519381 -20.90045166 347.68212891 C-19.37609877 344.77899789 -17.6727942 341.98366613 -15.9934082 339.16821289 C-14.98047463 337.43245779 -13.96756405 335.69668856 -12.95629883 333.95996094 C-6.60450904 323.0549749 -0.16873657 312.20447489 6.34619141 301.39599609 C12.08345933 291.85981921 17.70893456 282.25950004 23.31323242 272.64477539 C26.13645169 267.80705159 28.95718801 262.97725528 31.96362305 258.25024414 C34.94771278 253.42502734 35.67499839 249.48418038 35.03393555 243.90258789 C32.71989226 235.0956406 29.55911008 226.50350336 26.4987793 217.93383789 C26.06798569 216.7207193 25.63719208 215.50760071 25.19334412 214.25772095 C24.03105266 210.98519397 22.86528348 207.71391641 21.69872284 204.44290924 C20.71431563 201.68126735 19.73198077 198.91889014 18.74962234 196.15651894 C11.18324714 174.8809763 3.57166636 153.62162649 -4.05831909 132.36882019 C-9.564431 117.03162611 -15.04961713 101.68700521 -20.52856445 86.34008789 C-21.13453461 84.64278534 -21.13453461 84.64278534 -21.75274658 82.91119385 C-22.14556824 81.8108783 -22.53838989 80.71056274 -22.94311523 79.5769043 C-23.33168701 78.48899597 -23.72025879 77.40108765 -24.12060547 76.2802124 C-24.88982595 74.12420489 -25.65758796 71.96767642 -26.42382812 69.81060791 C-28.27614079 64.60174164 -30.14487343 59.40014201 -32.06164265 54.21467876 C-32.77235204 52.28967411 -33.47841034 50.36302546 -34.18309021 48.43580627 C-35.0765353 45.99652609 -35.9786513 43.5603986 -36.89076233 41.1280365 C-40.95589192 29.97416965 -40.95589192 29.97416965 -39.96606445 24.90258789 C-36.95634762 21.1187775 -33.3437937 18.63957891 -29.2902832 16.05493164 C-28.21456055 15.3672168 -27.13883789 14.67950195 -26.03051758 13.97094727 C-24.91612305 13.26776367 -23.80172852 12.56458008 -22.65356445 11.84008789 C-21.55077148 11.13303711 -20.44797852 10.42598633 -19.31176758 9.69750977 C-3.76632249 -0.18660905 -3.76632249 -0.18660905 0 0 Z " fill="#FEFEFE" transform="translate(586.966064453125,319.097412109375)"/>
<path d="M0 0 C23.43 0 46.86 0 71 0 C72 1 72 1 72.12467116 2.82146028 C72.12451518 3.62616432 72.1243592 4.43086836 72.1241985 5.25995737 C72.12644579 6.18675876 72.12869308 7.11356015 72.13100848 8.06844643 C72.12838146 9.10062222 72.12575445 10.13279802 72.12304783 11.19625187 C72.12420167 12.28640674 72.12535552 13.37656161 72.12654433 14.49975148 C72.12921963 18.20216543 72.12468136 21.90453705 72.12025452 25.60694885 C72.12069003 28.26830928 72.12152219 30.92966687 72.12284368 33.59102672 C72.12492327 39.40280368 72.12326372 45.21457043 72.11920547 51.02634621 C72.11318765 59.66833794 72.11286807 68.3103232 72.11374746 76.95231664 C72.11506357 91.48724648 72.11171162 106.02217178 72.10573006 120.5571003 C72.09981983 134.95549098 72.09596549 149.35387977 72.09487724 163.75227165 C72.0948085 164.64639659 72.09473976 165.54052152 72.09466894 166.46174115 C72.09433062 171.00226116 72.09402923 175.54278117 72.09374207 180.08330118 C72.09163978 212.27192538 72.08489719 244.46054711 72.07543945 276.64916992 C72.06626006 307.92651354 72.05917398 339.20385648 72.05493164 370.48120117 C72.05480011 371.44473571 72.05466859 372.40827025 72.05453308 373.4010028 C72.05321459 383.07691613 72.05193877 392.75282946 72.05069422 402.42874279 C72.04815777 422.14096671 72.04533652 441.85319058 72.04234314 461.56541443 C72.0421372 462.92501903 72.0421372 462.92501903 72.04192711 464.31209038 C72.03272122 524.87472801 72.01664764 585.43736403 72 646 C48.24 646 24.48 646 0 646 C0 432.82 0 219.64 0 0 Z " fill="#573E93" transform="translate(27,367)"/>
<path d="M0 0 C1.50771973 -0.02090698 1.50771973 -0.02090698 3.04589844 -0.04223633 C10.10053927 0.00212886 16.24146235 1.19377094 22.9375 3.375 C24.68546875 3.93960937 24.68546875 3.93960937 26.46875 4.515625 C38.45289241 8.99390979 47.83184464 15.4257992 56.9375 24.375 C57.56398438 24.98859375 58.19046875 25.6021875 58.8359375 26.234375 C72.07551577 40.25275199 78.09483407 59.07298292 78.1875 78 C78.2184375 79.54494141 78.2184375 79.54494141 78.25 81.12109375 C78.28632037 88.33976801 77.19404264 94.52941746 74.9375 101.375 C74.37289062 103.12296875 74.37289062 103.12296875 73.796875 104.90625 C69.31859021 116.89039241 62.8867008 126.26934464 53.9375 135.375 C53.32390625 136.00148438 52.7103125 136.62796875 52.078125 137.2734375 C36.04550039 152.41536074 15.39700155 156.92623069 -5.9609375 156.64453125 C-22.73362546 156.12279425 -39.64149343 148.65801961 -52.0625 137.375 C-52.79597656 136.73304688 -53.52945313 136.09109375 -54.28515625 135.4296875 C-67.99538476 122.68364315 -77.63734159 103.58702643 -78.3984375 84.7734375 C-78.74168023 62.14926478 -73.64448263 42.40432094 -58.0625 25.375 C-57.47210937 24.69308594 -56.88171875 24.01117188 -56.2734375 23.30859375 C-47.66389953 13.94801097 -35.98225074 7.49361306 -24.0625 3.375 C-23.21429687 3.05660156 -22.36609375 2.73820312 -21.4921875 2.41015625 C-14.42168576 0.17356897 -7.35298822 0.06567173 0 0 Z " fill="#FEFDFE" transform="translate(758.0625,379.625)"/>
<path d="M0 0 C5.03178801 1.06441669 7.67149205 4.1209603 11.25 7.6875 C11.71245117 8.14833984 12.17490234 8.60917969 12.65136719 9.08398438 C16.73159431 13.1562267 16.73159431 13.1562267 18.68603516 15.15917969 C21.33965817 17.86232739 24.05845518 20.41227327 26.9375 22.875 C32.83173126 27.97362209 38.2188507 33.59880201 43.68652344 39.14453125 C50.17088196 45.75565481 50.17088196 45.75565481 57.03125 51.96875 C64.34281394 58.22304095 70.93329908 65.32003335 77.69580078 72.15380859 C79.59715567 74.07341342 81.50163664 75.98987899 83.40625 77.90625 C83.97420288 78.48250122 84.54215576 79.05875244 85.12731934 79.65246582 C88.03077272 82.57322553 90.99138452 85.36381593 94.11328125 88.05078125 C98.72300468 92.03791995 102.99600485 96.3258023 107.28125 100.65625 C108.53427917 101.91495911 108.53427917 101.91495911 109.81262207 103.19909668 C113.35336129 106.7560452 116.88807324 110.3189612 120.42333984 113.88134766 C123.0197206 116.49590164 125.61916566 119.10738184 128.21875 121.71875 C129.00544067 122.51373901 129.79213135 123.30872803 130.60266113 124.12780762 C134.77232273 128.31572693 139.01890291 132.34019769 143.50622559 136.1869812 C146.17263042 138.48142396 148.71686176 140.8708362 151.25 143.3125 C152.19875 144.21226562 153.1475 145.11203125 154.125 146.0390625 C156.25 148.6875 156.25 148.6875 156.98046875 151.08984375 C155.79149593 155.31800913 152.71895467 157.69558303 149.5625 160.625 C148.30624764 161.81915131 147.05230614 163.01573875 145.80078125 164.21484375 C145.19057129 164.79218262 144.58036133 165.36952148 143.95166016 165.96435547 C142.3530742 167.58312443 141.02572904 169.24573609 139.66796875 171.06640625 C137.25 173.6875 137.25 173.6875 134.37768555 174.58959961 C131.25 174.6875 131.25 174.6875 128.95166016 173.16796875 C128.23800293 172.41128906 127.5243457 171.65460938 126.7890625 170.875 C125.58636719 169.63169922 125.58636719 169.63169922 124.359375 168.36328125 C123.53953125 167.48027344 122.7196875 166.59726562 121.875 165.6875 C120.24459506 163.97686878 118.61180963 162.26850301 116.9765625 160.5625 C116.17573242 159.72267578 115.37490234 158.88285156 114.54980469 158.01757812 C112.55460996 155.99611969 110.52662657 154.12270086 108.3671875 152.28125 C102.30898955 147.11400801 96.82876221 141.32168376 91.24072266 135.65771484 C84.53299385 128.81115423 84.53299385 128.81115423 77.4375 122.375 C70.13380017 116.13501851 63.55589043 109.04404223 56.80419922 102.22119141 C54.90284433 100.30158658 52.99836336 98.38512101 51.09375 96.46875 C50.52579712 95.89249878 49.95784424 95.31624756 49.37268066 94.72253418 C46.46922728 91.80177447 43.50861548 89.01118407 40.38671875 86.32421875 C35.77699532 82.33708005 31.50399515 78.0491977 27.21875 73.71875 C26.38339722 72.8796106 25.54804443 72.04047119 24.68737793 71.17590332 C21.14663871 67.6189548 17.61192676 64.0560388 14.07666016 60.49365234 C11.4802794 57.87909836 8.88083434 55.26761816 6.28125 52.65625 C5.49455933 51.86126099 4.70786865 51.06627197 3.89733887 50.24719238 C-0.27232273 46.05927307 -4.51890291 42.03480231 -9.00622559 38.1880188 C-11.67263042 35.89357604 -14.21686176 33.5041638 -16.75 31.0625 C-17.69875 30.16273438 -18.6475 29.26296875 -19.625 28.3359375 C-21.75 25.6875 -21.75 25.6875 -22.28515625 23.08984375 C-21.60256591 20.02566084 -20.50759969 18.96617145 -18.1875 16.875 C-15.29576545 14.16751756 -12.58116151 11.44418922 -10 8.4375 C-9.42894531 7.78265625 -8.85789062 7.1278125 -8.26953125 6.453125 C-7.05837931 5.04582249 -5.86908157 3.61972009 -4.6875 2.1875 C-2.75 0.6875 -2.75 0.6875 0 0 Z " fill="#FDFDFD" transform="translate(135.75,118.3125)"/>
<path d="M0 0 C3.17819652 1.0682762 4.63536014 2.47027942 6.95629883 4.87939453 C7.76131836 5.70181641 8.56633789 6.52423828 9.39575195 7.37158203 C10.22397461 8.23783203 11.05219727 9.10408203 11.90551758 9.99658203 C18.38620614 16.7629227 18.38620614 16.7629227 25.29223633 23.08251953 C32.63199555 29.36116399 39.25010515 36.47762761 46.03881836 43.33789062 C54.06993424 51.58346058 54.06993424 51.58346058 62.56176758 59.34033203 C70.03401529 65.67532447 76.72558482 72.95469785 83.61157227 79.91064453 C90.42873429 86.79089768 97.19908666 93.60531402 104.59301758 99.87158203 C106.63488795 101.70950961 108.61394517 103.58897612 110.59301758 105.49658203 C111.54176758 106.39634766 112.49051758 107.29611328 113.46801758 108.22314453 C115.59301758 110.87158203 115.59301758 110.87158203 116.32348633 113.27392578 C115.13451351 117.50209116 112.06197225 119.87966506 108.90551758 122.80908203 C107.64926522 124.00323334 106.39532372 125.19982078 105.14379883 126.39892578 C104.53358887 126.97626465 103.92337891 127.55360352 103.29467773 128.1484375 C101.69609178 129.76720646 100.36874662 131.42981812 99.01098633 133.25048828 C96.59301758 135.87158203 96.59301758 135.87158203 93.72070312 136.77368164 C90.59301758 136.87158203 90.59301758 136.87158203 88.29467773 135.35205078 C87.58102051 134.59537109 86.86736328 133.83869141 86.13208008 133.05908203 C85.3302832 132.23021484 84.52848633 131.40134766 83.70239258 130.54736328 C82.88254883 129.66435547 82.06270508 128.78134766 81.21801758 127.87158203 C79.58761264 126.16095081 77.9548272 124.45258504 76.31958008 122.74658203 C75.51423828 121.90224609 74.70889648 121.05791016 73.87915039 120.18798828 C71.95745296 118.24084335 70.01610679 116.44761811 67.92895508 114.68408203 C60.36612817 108.23349109 53.56203108 100.89107898 46.57446289 93.83251953 C38.32007781 85.35137484 38.32007781 85.35137484 29.59301758 77.37158203 C22.12831874 71.05157783 15.44950415 63.77740882 8.57446289 56.83251953 C-0.81608489 47.27980503 -0.81608489 47.27980503 -10.73852539 38.29101562 C-13.58917322 35.86583762 -16.2868073 33.29214419 -18.96948242 30.68408203 C-19.51411133 30.17683594 -20.05874023 29.66958984 -20.61987305 29.14697266 C-24.38849307 25.46432875 -24.38849307 25.46432875 -24.47338867 22.74267578 C-23.17139069 20.45821779 -21.70520047 18.91856569 -19.78198242 17.12158203 C-16.95715663 14.41277587 -14.31137422 11.6707969 -11.78198242 8.68408203 C-4.04303701 -0.21570519 -4.04303701 -0.21570519 0 0 Z " fill="#FDFDFD" transform="translate(313.406982421875,394.12841796875)"/>
<path d="M0 0 C3.61477941 1.0077122 5.01297717 2.18755371 7.58740234 4.87939453 C8.38919922 5.70181641 9.19099609 6.52423828 10.01708984 7.37158203 C10.83693359 8.23783203 11.65677734 9.10408203 12.50146484 9.99658203 C14.13182541 11.68905158 15.76461035 13.37918933 17.39990234 15.06689453 C18.20459961 15.89801758 19.00929688 16.72914063 19.83837891 17.58544922 C21.7741042 19.51952217 23.73537602 21.31607037 25.82177734 23.08251953 C33.1649946 29.35863256 39.78290674 36.47697513 46.57226562 43.33789062 C54.60338151 51.58346058 54.60338151 51.58346058 63.09521484 59.34033203 C70.56746256 65.67532447 77.25903208 72.95469785 84.14501953 79.91064453 C93.58592009 89.51137639 93.58592009 89.51137639 103.56494141 98.54150391 C105.81893844 100.46141883 107.91240806 102.52509088 110.00146484 104.62158203 C111.11134766 105.72759766 111.11134766 105.72759766 112.24365234 106.85595703 C116.1220434 111.00792754 116.1220434 111.00792754 116.13818359 114.16064453 C114.65893766 118.12433826 111.98826005 120.39330101 108.93896484 123.24658203 C107.74538428 124.39145493 106.55394824 125.53856809 105.36474609 126.68798828 C104.51517334 127.50807373 104.51517334 127.50807373 103.6484375 128.34472656 C101.81968951 130.17934156 100.21242892 132.13781176 98.62646484 134.18408203 C96.12646484 136.87158203 96.12646484 136.87158203 93.74291992 137.28393555 C90.29028713 136.73980036 89.1648466 135.47182709 86.76318359 132.96142578 C85.95816406 132.13578125 85.15314453 131.31013672 84.32373047 130.45947266 C83.49550781 129.58484375 82.66728516 128.71021484 81.81396484 127.80908203 C80.17449054 126.10749662 78.53259088 124.40824445 76.88818359 122.71142578 C76.07655762 121.87337402 75.26493164 121.03532227 74.42871094 120.171875 C72.4967223 118.24152537 70.54193703 116.44942754 68.45849609 114.68798828 C60.90172063 108.23031149 54.09558159 100.89118327 47.10791016 93.83251953 C38.85352508 85.35137484 38.85352508 85.35137484 30.12646484 77.37158203 C22.661766 71.05157783 15.98295142 63.77740882 9.10791016 56.83251953 C-0.30133467 47.26273712 -0.30133467 47.26273712 -10.24511719 38.25976562 C-12.88201871 36.01187626 -15.34006588 33.61346417 -17.81103516 31.18408203 C-18.74818359 30.27271484 -19.68533203 29.36134766 -20.65087891 28.42236328 C-23.96778088 24.61579564 -23.96778088 24.61579564 -23.87353516 21.87158203 C-22.24853516 19.79345703 -22.24853516 19.79345703 -19.87353516 17.62158203 C-16.80180454 14.72156306 -13.8713762 11.83144944 -11.12353516 8.62158203 C-10.56279297 7.97833984 -10.00205078 7.33509766 -9.42431641 6.67236328 C-8.0388444 5.06354062 -6.67352021 3.43741783 -5.31103516 1.80908203 C-2.87353516 -0.12841797 -2.87353516 -0.12841797 0 0 Z " fill="#FDFDFD" transform="translate(366.87353515625,347.12841796875)"/>
<path d="M0 0 C3.61477941 1.0077122 5.01297717 2.18755371 7.58740234 4.87939453 C8.38919922 5.70181641 9.19099609 6.52423828 10.01708984 7.37158203 C10.83693359 8.23783203 11.65677734 9.10408203 12.50146484 9.99658203 C14.13182541 11.68905158 15.76461035 13.37918933 17.39990234 15.06689453 C18.20459961 15.89801758 19.00929688 16.72914063 19.83837891 17.58544922 C21.7741042 19.51952217 23.73537602 21.31607037 25.82177734 23.08251953 C33.1649946 29.35863256 39.78290674 36.47697513 46.57226562 43.33789062 C54.60338151 51.58346058 54.60338151 51.58346058 63.09521484 59.34033203 C70.56746256 65.67532447 77.25903208 72.95469785 84.14501953 79.91064453 C90.96218155 86.79089768 97.73253393 93.60531402 105.12646484 99.87158203 C107.16833522 101.70950961 109.14739243 103.58897612 111.12646484 105.49658203 C112.07521484 106.39634766 113.02396484 107.29611328 114.00146484 108.22314453 C116.12646484 110.87158203 116.12646484 110.87158203 116.85693359 113.27392578 C115.66796077 117.50209116 112.59541951 119.87966506 109.43896484 122.80908203 C108.18271249 124.00323334 106.92877098 125.19982078 105.67724609 126.39892578 C105.06703613 126.97626465 104.45682617 127.55360352 103.828125 128.1484375 C102.22953904 129.76720646 100.90219388 131.42981812 99.54443359 133.25048828 C97.12646484 135.87158203 97.12646484 135.87158203 94.25415039 136.77368164 C91.12646484 136.87158203 91.12646484 136.87158203 88.828125 135.35205078 C88.11446777 134.59537109 87.40081055 133.83869141 86.66552734 133.05908203 C85.86373047 132.23021484 85.06193359 131.40134766 84.23583984 130.54736328 C83.41599609 129.66435547 82.59615234 128.78134766 81.75146484 127.87158203 C80.1210599 126.16095081 78.48827447 124.45258504 76.85302734 122.74658203 C76.04768555 121.90224609 75.24234375 121.05791016 74.41259766 120.18798828 C72.49090023 118.24084335 70.54955406 116.44761811 68.46240234 114.68408203 C60.89957543 108.23349109 54.09547834 100.89107898 47.10791016 93.83251953 C38.85352508 85.35137484 38.85352508 85.35137484 30.12646484 77.37158203 C22.661766 71.05157783 15.98295142 63.77740882 9.10791016 56.83251953 C2.29074813 49.95226638 -4.47960424 43.13785004 -11.87353516 36.87158203 C-13.91540553 35.03365445 -15.89446274 33.15418794 -17.87353516 31.24658203 C-18.82228516 30.34681641 -19.77103516 29.44705078 -20.74853516 28.52001953 C-22.87353516 25.87158203 -22.87353516 25.87158203 -23.40869141 23.27392578 C-22.72610107 20.20974287 -21.63113485 19.15025348 -19.31103516 17.05908203 C-16.44054378 14.37116608 -13.74509877 11.67153514 -11.18603516 8.68408203 C-10.33138672 7.70568359 -10.33138672 7.70568359 -9.45947266 6.70751953 C-8.06075338 5.08831249 -6.68411872 3.45008434 -5.31103516 1.80908203 C-2.87353516 -0.12841797 -2.87353516 -0.12841797 0 0 Z " fill="#FDFDFD" transform="translate(415.87353515625,295.12841796875)"/>
<path d="M0 0 C5.30146589 3.81282963 9.70858872 9.06003764 11.15625 15.55078125 C12.18580794 24.27914471 11.35438004 31.32315459 6.15625 38.55078125 C1.49262544 43.77935795 -3.83696366 47.07815901 -10.82421875 47.90234375 C-19.47052111 48.28752486 -26.1380294 46.74804475 -32.6875 40.90625 C-38.88966533 34.17203617 -40.49279551 27.87608957 -40.25390625 18.83984375 C-39.40758289 12.05313646 -36.48276019 6.73115068 -31.46875 2.11328125 C-21.95040831 -5.06615169 -10.50641764 -6.05483484 0 0 Z " fill="#FCFCFD" transform="translate(291.84375,559.44921875)"/>
<path d="M0 0 C5.93997737 3.48462138 10.60385683 8.9345583 12.6875 15.5 C13.5576808 22.83582654 13.30988721 29.51278537 8.6875 35.5 C4.07104101 40.36703923 -0.30334659 44.02443146 -7.14453125 44.8359375 C-15.04160785 44.93943785 -20.45283618 44.16094846 -26.28515625 38.62890625 C-32.17041995 32.23608387 -33.80859036 27.17692982 -33.6171875 18.5 C-32.85193062 10.96516305 -29.0134316 6.73538884 -23.41015625 1.9453125 C-16.68882894 -2.68576963 -7.48610354 -3.30441289 0 0 Z " fill="#FCFCFC" transform="translate(356.3125,133.5)"/>
<path d="M0 0 C5.40453536 3.13418751 8.62696635 7.45100549 10.625 13.375 C11.41289686 19.50410465 11.14970424 25.16059584 8.03515625 30.5859375 C4.78073119 34.71482027 0.59254044 37.71915319 -4.375 39.375 C-11.42194345 40.06944839 -17.65373409 39.88455675 -23.375 35.375 C-28.9588631 29.3156551 -30.76372948 24.4404044 -30.64453125 16.2265625 C-30.14190129 10.90888324 -28.36487612 7.2087289 -24.43359375 3.5859375 C-17.2153968 -2.02378462 -8.65657884 -3.97378191 0 0 Z " fill="#FBFBFC" transform="translate(497.375,169.625)"/>
<path d="M0 0 C5.30266412 3.16963757 9.17370733 7.32263694 11.578125 13.0546875 C12.51931185 19.98974851 12.21357546 25.7110092 8.0078125 31.4375 C4.36759279 35.55512557 0.35490184 38.67783921 -5.15625 39.42578125 C-12.28977153 39.58286657 -16.99640808 38.85111478 -22.421875 34.0546875 C-27.75193971 28.30382821 -28.93690047 23.84546529 -28.8046875 16.1015625 C-28.06457806 10.21089552 -25.10864271 6.61803318 -20.859375 2.6796875 C-14.49302633 -1.56454495 -7.37032288 -2.87680345 0 0 Z " fill="#FBFBFC" transform="translate(370.421875,216.9453125)"/>
</svg>
