<?xml version="1.0" encoding="UTF-8"?>
<svg version="1.1" xmlns="http://www.w3.org/2000/svg" width="1040" height="1040">
<path d="M0 0 C1.11234673 -0.00327219 2.22469345 -0.00654439 3.37074766 -0.00991574 C5.19197686 -0.0076903 5.19197686 -0.0076903 7.04999858 -0.00541991 C8.35127705 -0.00777214 9.65255552 -0.01012437 10.99326667 -0.01254788 C14.61497364 -0.01894311 18.23665842 -0.01910988 21.85836996 -0.01827047 C25.79507093 -0.01844007 29.73176396 -0.0243473 33.66846097 -0.02951133 C41.48102329 -0.03883766 49.29357994 -0.04275944 57.10614713 -0.0450303 C66.46259972 -0.04799233 75.81904478 -0.05668983 85.17549342 -0.06544458 C107.79302073 -0.0862912 130.41054935 -0.09675958 153.02808403 -0.10557419 C163.7291549 -0.10978086 174.4302252 -0.11500286 185.13129559 -0.12025872 C221.76565109 -0.13815014 258.40000674 -0.15314545 295.03436595 -0.16057891 C297.33443692 -0.16105366 299.63450789 -0.16152955 301.93457885 -0.16200657 C303.64551693 -0.16236113 303.64551693 -0.16236113 305.39101941 -0.16272286 C311.16995858 -0.16392405 316.94889774 -0.1651395 322.72783691 -0.16636485 C323.87468404 -0.166605 325.02153117 -0.16684515 326.20313125 -0.16709258 C363.37663569 -0.17498339 400.55010821 -0.19841012 437.72359871 -0.23092079 C477.02919173 -0.26523332 516.33476606 -0.28493142 555.6403743 -0.28822315 C559.95699202 -0.28864068 564.27360972 -0.28912024 568.59022743 -0.28964633 C570.18452617 -0.28983111 570.18452617 -0.28983111 571.81103297 -0.29001964 C588.90287957 -0.29235002 605.99468903 -0.30800109 623.08652241 -0.32848817 C640.27459366 -0.34876335 657.46262042 -0.35421548 674.65070143 -0.34471754 C684.85589554 -0.339509 695.06094129 -0.34534947 705.26611399 -0.36725221 C712.09264405 -0.38079335 718.91907237 -0.37965411 725.74560353 -0.36685025 C729.62900062 -0.35997558 733.51211477 -0.35920785 737.3954862 -0.37641034 C775.7647231 -0.5357116 809.03558861 8.59931192 837.24175292 35.93739492 C856.91946142 55.76236409 872.4462436 85.38178819 872.46821034 113.78939199 C872.47148253 114.90173872 872.47475473 116.01408545 872.47812608 117.16013965 C872.47664246 118.37429246 872.47515883 119.58844526 872.47363025 120.83939058 C872.47598248 122.14066905 872.47833471 123.44194752 872.48075822 124.78265867 C872.48715345 128.40436564 872.48732022 132.02605041 872.48648081 135.64776195 C872.48665041 139.58446292 872.49255764 143.52115596 872.49772167 147.45785296 C872.507048 155.27041528 872.51096978 163.08297193 872.51324064 170.89553913 C872.51620267 180.25199171 872.52490017 189.60843678 872.53365492 198.96488542 C872.55450154 221.58241273 872.56496992 244.19994135 872.57378453 266.81747603 C872.5779912 277.51854689 872.5832132 288.21961719 872.58846906 298.92068759 C872.60636048 335.55504308 872.62135579 372.18939874 872.62878925 408.82375795 C872.629264 411.12382891 872.62973989 413.42389988 872.63021691 415.72397085 C872.63057147 417.43490893 872.63057147 417.43490893 872.6309332 419.18041141 C872.63213439 424.95935057 872.63334984 430.73828974 872.63457519 436.5172289 C872.63481534 437.66407604 872.63505549 438.81092317 872.63530292 439.99252325 C872.64319373 477.16602769 872.66662046 514.3395002 872.69913113 551.5129907 C872.73344366 590.81858372 872.75314176 630.12415806 872.75643349 669.4297663 C872.75685102 673.74638401 872.75733058 678.06300172 872.75785667 682.37961942 C872.75797986 683.44248525 872.75810305 684.50535108 872.75822998 685.60042497 C872.76056036 702.69227156 872.77621143 719.78408103 872.79669851 736.8759144 C872.81697369 754.06398566 872.82242582 771.25201242 872.81292788 788.44009342 C872.80771934 798.64528753 872.8135598 808.85033328 872.83546255 819.05550599 C872.84900369 825.88203605 872.84786445 832.70846437 872.83506059 839.53499552 C872.82818592 843.41839261 872.82741819 847.30150676 872.84462068 851.18487819 C873.00392194 889.55411509 863.86889842 922.82498061 836.53081542 951.03114492 C816.70584624 970.70885341 787.08642215 986.23563559 758.67881835 986.25760233 C757.56647162 986.26087453 756.45412489 986.26414672 755.30807069 986.26751807 C753.48684148 986.26529264 753.48684148 986.26529264 751.62881976 986.26302224 C750.32754129 986.26537447 749.02626282 986.2677267 747.68555167 986.27015021 C744.0638447 986.27654545 740.44215993 986.27671222 736.82044838 986.27587281 C732.88374742 986.2760424 728.94705438 986.28194963 725.01035738 986.28711367 C717.19779506 986.29643999 709.38523841 986.30036177 701.57267121 986.30263263 C692.21621863 986.30559467 682.85977356 986.31429216 673.50332492 986.32304691 C650.88579761 986.34389353 628.26826899 986.35436191 605.65073431 986.36317652 C594.94966345 986.36738319 584.24859315 986.37260519 573.54752275 986.37786105 C536.91316726 986.39575247 500.2788116 986.41074779 463.64445239 986.41818124 C461.34438143 986.418656 459.04431046 986.41913189 456.74423949 986.4196089 C455.03330141 986.41996347 455.03330141 986.41996347 453.28779893 986.42032519 C447.50885976 986.42152639 441.7299206 986.42274184 435.95098144 986.42396718 C434.8041343 986.42420733 433.65728717 986.42444748 432.47568709 986.42469491 C395.30218265 986.43258573 358.12871014 986.45601246 320.95521963 986.48852313 C281.64962662 986.52283565 242.34405228 986.54253376 203.03844404 986.54582548 C198.72182633 986.54624302 194.40520862 986.54672258 190.08859092 986.54724866 C188.49429217 986.54743345 188.49429217 986.54743345 186.86778537 986.54762197 C169.77593878 986.54995235 152.68412931 986.56560342 135.59229594 986.58609051 C118.40422468 986.60636569 101.21619792 986.61181782 84.02811692 986.60231987 C73.82292281 986.59711133 63.61787706 986.6029518 53.41270435 986.62485455 C46.58617429 986.63839569 39.75974597 986.63725645 32.93321482 986.62445259 C29.04981773 986.61757791 25.16670358 986.61681018 21.28333215 986.63401268 C-17.08590476 986.79331393 -50.35677027 977.65829042 -78.56293458 950.32020742 C-98.24064307 930.49523824 -113.76742525 900.87581415 -113.78939199 872.46821034 C-113.79266419 871.35586361 -113.79593638 870.24351689 -113.79930773 869.09746268 C-113.79782411 867.88330988 -113.79634049 866.66915707 -113.7948119 865.41821176 C-113.79716413 864.11693329 -113.79951636 862.81565482 -113.80193987 861.47494367 C-113.80833511 857.85323669 -113.80850188 854.23155192 -113.80766247 850.60984038 C-113.80783206 846.67313941 -113.81373929 842.73644638 -113.81890333 838.79974937 C-113.82822965 830.98718705 -113.83215143 823.1746304 -113.83442229 815.36206321 C-113.83738433 806.00561062 -113.84608182 796.64916556 -113.85483657 787.29271692 C-113.87568319 764.67518961 -113.88615157 742.05766099 -113.89496618 719.44012631 C-113.89917285 708.73905544 -113.90439485 698.03798514 -113.90965071 687.33691475 C-113.92754213 650.70255925 -113.94253745 614.0682036 -113.9499709 577.43384439 C-113.95044566 575.13377342 -113.95092155 572.83370245 -113.95139856 570.53363148 C-113.95163494 569.3930061 -113.95187132 568.25238072 -113.95211485 567.07719093 C-113.95331605 561.29825176 -113.9545315 555.51931259 -113.95575684 549.74037343 C-113.95599699 548.5935263 -113.95623714 547.44667916 -113.95648457 546.26507909 C-113.96437539 509.09157465 -113.98780212 471.91810213 -114.02031279 434.74461163 C-114.05462532 395.43901861 -114.07432342 356.13344428 -114.07761514 316.82783604 C-114.07803268 312.51121832 -114.07851224 308.19460062 -114.07903832 303.87798291 C-114.07916151 302.81511708 -114.07928471 301.75225125 -114.07941163 300.65717737 C-114.08174201 283.56533077 -114.09739308 266.4735213 -114.11788017 249.38168793 C-114.13815535 232.19361667 -114.14360748 215.00558992 -114.13410953 197.81750891 C-114.12890099 187.6123148 -114.13474146 177.40726905 -114.15664421 167.20209635 C-114.17018535 160.37556629 -114.16904611 153.54913797 -114.15624225 146.72260681 C-114.14936757 142.83920972 -114.14859984 138.95609557 -114.16580234 135.07272414 C-114.32510359 96.70348724 -105.19008008 63.43262173 -77.85199708 35.22645742 C-58.0270279 15.54874892 -28.40760381 0.02196674 0 0 Z " fill="#FA7214" transform="translate(140.66059082746506,26.87119883298874)"/>
<path d="M0 0 C1.24814073 0.00037972 2.49628145 0.00075944 3.78224462 0.00115067 C4.47732005 -0.00000318 5.17239548 -0.00115702 5.8885338 -0.00234583 C8.24699965 -0.00501919 10.60539894 -0.00048448 12.96386141 0.00394398 C14.66001757 0.00350842 16.35617368 0.00263381 18.05232942 0.00135481 C22.73612541 -0.00089323 27.41989877 0.00313534 32.10369188 0.00813287 C37.14598453 0.01243278 42.18827581 0.01099128 47.23056978 0.0102306 C55.9742869 0.00970507 64.71799658 0.01285488 73.46171182 0.01846844 C86.10381219 0.02657955 98.74590894 0.02919826 111.38801163 0.03045643 C131.89669028 0.03264756 152.40536496 0.03930931 172.91404146 0.04875904 C192.84177563 0.05793158 212.76950873 0.06501318 232.69724458 0.06926686 C234.53833327 0.06966094 234.53833327 0.06966094 236.41661567 0.07006299 C242.57379832 0.07136798 248.73098097 0.0726317 254.88816363 0.07387489 C306.00559765 0.08424942 357.12302737 0.10186939 408.24045748 0.1241985 C408.24045748 4.95342369 406.49149459 7.58366229 404.05295748 11.5616985 C403.60661958 12.30468189 403.16028169 13.04766529 402.70041841 13.81316334 C398.0920724 21.45215226 393.37399591 29.02523932 388.66233248 36.600761 C385.1519541 42.25323594 381.69289175 47.93620293 378.24045748 53.6241985 C373.24787938 61.84637639 368.20872735 70.0378368 363.13498873 78.210136 C359.13506616 84.66037432 355.17983618 91.13683313 351.24045748 97.6241985 C346.2476994 105.84626808 341.20872845 114.03783503 336.13498873 122.210136 C332.13506616 128.66037432 328.17983618 135.13683313 324.24045748 141.6241985 C319.2476994 149.84626808 314.20872845 158.03783503 309.13498873 166.210136 C305.13506616 172.66037432 301.17983618 179.13683313 297.24045748 185.6241985 C292.2476994 193.84626808 287.20872845 202.03783503 282.13498873 210.210136 C278.13506616 216.66037432 274.17983618 223.13683313 270.24045748 229.6241985 C265.2476994 237.84626808 260.20872845 246.03783503 255.13498873 254.210136 C251.13506616 260.66037432 247.17983618 267.13683313 243.24045748 273.6241985 C238.2476994 281.84626808 233.20872845 290.03783503 228.13498873 298.210136 C224.13506616 304.66037432 220.17983618 311.13683313 216.24045748 317.6241985 C211.2476994 325.84626808 206.20872845 334.03783503 201.13498873 342.210136 C197.13506571 348.66037504 193.17990718 355.13687574 189.24045748 361.6241985 C184.28994127 369.77490388 179.29976536 377.89946294 174.27341646 386.00359303 C169.93775851 392.99465394 165.61598106 399.99415002 161.30295748 406.9991985 C160.63651216 408.08112477 159.97006685 409.16305104 159.28342623 410.27776295 C155.89779514 415.78064371 152.52731638 421.29210049 149.18186373 426.819511 C148.5391855 427.88057057 147.89650728 428.94163014 147.23435396 430.03484303 C146.01379854 432.05246658 144.79574894 434.07160875 143.58054537 436.09246022 C143.03776949 436.98980885 142.49499361 437.88715748 141.93576998 438.8116985 C141.46155611 439.59931568 140.98734224 440.38693287 140.49875826 441.19841725 C139.06573349 443.39160687 137.9858099 444.86532643 135.46500009 445.74084145 C132.82399549 446.19596769 130.32899508 446.25336914 127.64777559 446.25791126 C126.50925646 446.26217625 125.37073732 446.26644123 124.19771761 446.27083546 C122.9528911 446.27038227 121.70806459 446.26992909 120.42551607 446.26946217 C119.11141252 446.27282078 117.79730898 446.27617939 116.44338411 446.27963978 C112.8423572 446.28846751 109.24135406 446.29081728 105.64031738 446.29145557 C102.63554077 446.29240538 99.6307697 446.29608424 96.62599522 446.29962766 C89.54077405 446.30776637 82.45556559 446.3102123 75.37034029 446.30950123 C68.05394636 446.30889952 60.73762595 446.31947131 53.42125064 446.33524489 C47.14263091 446.34830029 40.86403528 446.35368602 34.58540207 446.35304582 C30.83394378 446.35279039 27.08255093 446.35566696 23.33110613 446.36622387 C19.15288905 446.37766159 14.97483813 446.3731704 10.79660982 446.36711842 C9.54773485 446.37273793 8.29885988 446.37835743 7.01214021 446.38414723 C5.87926073 446.37995274 4.74638124 446.37575825 3.57917207 446.37143666 C2.59067451 446.37198142 1.60217695 446.37252619 0.58372492 446.37308747 C-1.75954252 446.1241985 -1.75954252 446.1241985 -3.75954252 444.1241985 C-3.95552882 441.69916414 -4.02552391 439.388504 -4.00843149 436.96240097 C-4.01103878 436.21244334 -4.01364606 435.4624857 -4.01633236 434.68980208 C-4.0226808 432.15059327 -4.01463949 429.61162725 -4.00678068 427.07242543 C-4.00836738 425.24412451 -4.01082958 423.41582417 -4.01409709 421.58752549 C-4.02053889 416.54304931 -4.01442069 411.49865282 -4.00633281 406.45418185 C-3.99977732 401.02196993 -4.00469957 395.58976724 -4.00821501 390.15755421 C-4.01326677 379.50805974 -4.00760323 368.85859623 -3.99836471 358.2091056 C-3.98800236 345.82083957 -3.98805032 333.43258031 -3.98853729 321.04431076 C-3.98905353 298.28074337 -3.97900413 275.51719119 -3.96403485 252.75362933 C-3.95040859 231.95568193 -3.9441736 211.15774603 -3.94484526 190.3597942 C-3.94488567 189.02429098 -3.94492603 187.68878775 -3.94496634 186.35328453 C-3.94500669 185.03347724 -3.94504705 183.71366994 -3.94508862 182.35386848 C-3.94577761 157.95238769 -3.93989353 133.55091233 -3.93093541 109.1494333 C-3.9279128 100.50315264 -3.92685511 91.85687298 -3.92640311 83.21059185 C-3.92572255 72.68220888 -3.92127999 62.15383506 -3.9120703 51.62545597 C-3.90743791 46.24823243 -3.90441208 40.87102064 -3.9056645 35.49379498 C-3.9067536 30.57970557 -3.90327783 25.66564222 -3.89601598 20.75155825 C-3.89419163 18.96561028 -3.89408294 17.17965965 -3.89578327 15.39371156 C-3.89782615 12.98249438 -3.89382416 10.57136441 -3.88817698 8.16015488 C-3.8902323 7.45262856 -3.89228761 6.74510224 -3.89440522 6.01613572 C-3.8690849 0.17413558 -3.8690849 0.17413558 0 0 Z " fill="#FEFEFE" transform="translate(113.7595425248146,294.8758015036583)"/>
<path d="M0 0 C1.23590378 0.01131958 2.47180756 0.02263916 3.74516296 0.03430176 C7.01969777 0.07145637 10.29104768 0.14321581 13.56451416 0.23193359 C16.90924734 0.31401044 20.25411966 0.34967403 23.59960938 0.390625 C30.15488777 0.47879388 36.70804294 0.61263228 43.26171875 0.78125 C42.73491291 5.16676874 41.73409002 8.17661624 39.41015625 11.921875 C38.81380371 12.89664795 38.21745117 13.8714209 37.60302734 14.87573242 C36.95414551 15.91705322 36.30526367 16.95837402 35.63671875 18.03125 C34.25969848 20.28135339 32.88457679 22.53252068 31.51171875 24.78515625 C31.1588681 25.36215775 30.80601746 25.93915924 30.44247437 26.53364563 C26.73138009 32.61582545 23.17795428 38.78639697 19.63671875 44.96875 C14.58801639 53.76227586 9.48743682 62.52110595 4.31591797 71.24291992 C-0.22756249 78.90754393 -4.7362599 86.59224058 -9.23828125 94.28125 C-14.73326536 103.66462486 -20.24618823 113.03703225 -25.78515625 122.39453125 C-30.29047197 130.01119124 -34.76619214 137.6450589 -39.23828125 145.28125 C-44.22194153 153.79096019 -49.21503617 162.29481813 -54.23828125 170.78125 C-59.17530632 179.12352071 -64.08760882 187.48009253 -68.98828125 195.84375 C-69.34466675 196.45195587 -69.70105225 197.06016174 -70.0682373 197.6867981 C-72.62547325 202.05129059 -75.18195775 206.41622304 -77.73828125 210.78125 C-80.65444172 215.76071331 -83.57091805 220.73999122 -86.48828125 225.71875 C-86.84498901 226.32751984 -87.20169678 226.93628967 -87.56921387 227.56350708 C-92.62225308 236.18585451 -97.69552885 244.7960101 -102.78613281 253.39624023 C-107.29118712 261.01229257 -111.76652375 268.64562514 -116.23828125 276.28125 C-121.73351334 285.66448036 -127.24618745 295.03703092 -132.78515625 304.39453125 C-137.29047197 312.01119124 -141.76619214 319.6450589 -146.23828125 327.28125 C-151.73351334 336.66448036 -157.24618745 346.03703092 -162.78515625 355.39453125 C-167.29047197 363.01119124 -171.76619214 370.6450589 -176.23828125 378.28125 C-181.73351334 387.66448036 -187.24618745 397.03703092 -192.78515625 406.39453125 C-197.29047197 414.01119124 -201.76619214 421.6450589 -206.23828125 429.28125 C-211.22194153 437.79096019 -216.21503617 446.29481813 -221.23828125 454.78125 C-226.17530632 463.12352071 -231.08760882 471.48009253 -235.98828125 479.84375 C-236.34466675 480.45195587 -236.70105225 481.06016174 -237.0682373 481.6867981 C-239.62547325 486.05129059 -242.18195775 490.41622304 -244.73828125 494.78125 C-247.65444172 499.76071331 -250.57091805 504.73999122 -253.48828125 509.71875 C-253.84498901 510.32751984 -254.20169678 510.93628967 -254.56921387 511.56350708 C-259.62225308 520.18585451 -264.69552885 528.7960101 -269.78613281 537.39624023 C-274.29118712 545.01229257 -278.76652375 552.64562514 -283.23828125 560.28125 C-288.73351334 569.66448036 -294.24618745 579.03703092 -299.78515625 588.39453125 C-304.29047229 596.01119178 -308.7661094 603.64510694 -313.23828125 611.28125 C-318.82208672 620.81485237 -324.40834201 630.34693744 -330.04882812 639.84716797 C-332.8156092 644.50935108 -335.55265288 649.18621172 -338.25390625 653.88671875 C-338.83688477 654.89355713 -339.41986328 655.90039551 -340.02050781 656.93774414 C-341.13473371 658.86325191 -342.2413379 660.7931981 -343.33886719 662.72827148 C-343.84192383 663.59395752 -344.34498047 664.45964355 -344.86328125 665.3515625 C-345.29898438 666.11227051 -345.7346875 666.87297852 -346.18359375 667.65673828 C-348.25999044 670.49417609 -349.63602706 672.01058295 -352.73828125 673.78125 C-356.69697453 674.3300553 -360.61189951 674.24597083 -364.6015625 674.171875 C-366.3222419 674.16338531 -366.3222419 674.16338531 -368.0776825 674.15472412 C-371.73580938 674.13236197 -375.39295119 674.08216327 -379.05078125 674.03125 C-381.53318896 674.01118491 -384.01561205 673.99293416 -386.49804688 673.9765625 C-392.5784602 673.93249759 -398.65830034 673.86558594 -404.73828125 673.78125 C-405.64658671 670.85501494 -405.87057259 670.09240641 -404.62109375 667.15356445 C-404.04101562 666.1605835 -403.4609375 665.16760254 -402.86328125 664.14453125 C-402.21544678 663.02288574 -401.5676123 661.90124023 -400.90014648 660.74560547 C-400.17985858 659.52812275 -399.4592278 658.31084282 -398.73828125 657.09375 C-398.00176471 655.83012611 -397.26618087 654.56595817 -396.53149414 653.30126953 C-391.21543961 644.17787889 -385.78104247 635.12357891 -380.32080078 626.0859375 C-375.17177765 617.55334784 -370.18108812 608.93544078 -365.21801758 600.29370117 C-360.79581048 592.59856441 -356.31263223 584.94261291 -351.78588867 577.30859375 C-347.30639188 569.75219559 -342.86302866 562.17498928 -338.42578125 554.59375 C-332.83001491 545.0345453 -327.20583473 535.49301443 -321.55078125 525.96875 C-315.43857635 515.67235614 -309.38442727 505.34366908 -303.359375 494.99609375 C-299.37121889 488.14746706 -295.37001645 481.30651767 -291.36328125 474.46875 C-291.00681519 473.860383 -290.65034912 473.25201599 -290.28308105 472.62521362 C-285.06572763 463.72374877 -279.81763097 454.84101694 -274.55078125 445.96875 C-268.43719394 435.66979264 -262.38125687 425.33879768 -256.35546875 414.98828125 C-252.39229602 408.18224799 -248.41022744 401.3873399 -244.42578125 394.59375 C-243.89399765 393.68703049 -243.89399765 393.68703049 -243.35147095 392.76199341 C-241.90800576 390.30088219 -240.46450749 387.83979039 -239.02088928 385.37876892 C-236.45759507 381.0086828 -233.89632272 376.63741599 -231.3359375 372.265625 C-224.47264003 360.54793322 -217.59773829 348.83752198 -210.68164062 337.15087891 C-206.26560298 329.68418148 -201.87393055 322.20331762 -197.48828125 314.71875 C-197.13089874 314.10888245 -196.77351624 313.49901489 -196.40530396 312.8706665 C-192.7709469 306.66830535 -189.13832601 300.46492895 -185.5070343 294.26077271 C-183.73043276 291.22564897 -181.95327836 288.19084932 -180.17578125 285.15625 C-179.82490448 284.55719849 -179.47402771 283.95814697 -179.11251831 283.34094238 C-173.95261522 274.53386161 -168.76137103 265.74593995 -163.55078125 256.96875 C-157.43866162 246.67230511 -151.3844277 236.34366982 -145.359375 225.99609375 C-141.37121889 219.14746706 -137.37001645 212.30651767 -133.36328125 205.46875 C-132.82858215 204.55619949 -132.82858215 204.55619949 -132.28308105 203.62521362 C-127.06572763 194.72374877 -121.81763097 185.84101694 -116.55078125 176.96875 C-110.44255376 166.67882179 -104.3919332 156.35687186 -98.37109375 146.015625 C-94.31806157 139.05542065 -90.24886282 132.10473442 -86.17578125 125.15625 C-85.63233566 124.22912201 -85.63233566 124.22912201 -85.07791138 123.28326416 C-79.96555468 114.5632176 -74.83357953 105.85495393 -69.68457031 97.15649414 C-64.87835104 89.03173019 -60.1090617 80.88548161 -55.3399353 72.73892212 C-49.45230309 62.68382397 -43.52194015 52.65495487 -37.57177734 42.63671875 C-32.44715989 33.9998666 -27.37630407 25.33256812 -22.34106445 16.64331055 C-21.54188599 15.26719604 -21.54188599 15.26719604 -20.7265625 13.86328125 C-20.03880737 12.67569214 -20.03880737 12.67569214 -19.3371582 11.46411133 C-18.80952881 10.57876709 -18.28189941 9.69342285 -17.73828125 8.78125 C-17.45748215 8.0985202 -17.17668304 7.41579041 -16.88737488 6.71237183 C-13.23543292 -1.01470194 -7.83896863 -0.26992447 0 0 Z " fill="#FEFDFD" transform="translate(658.73828125,184.21875)"/>
<path d="M0 0 C2.15130295 0.11725238 4.2999375 0.2863381 6.4453125 0.484375 C7.14635101 0.54458832 7.84738953 0.60480164 8.56967163 0.6668396 C13.52033196 1.09614465 18.46074129 1.60004904 23.40063477 2.13842773 C26.03263104 2.42457322 28.66558637 2.70018631 31.29882812 2.97460938 C32.97402384 3.15303182 34.64915664 3.33204625 36.32421875 3.51171875 C37.50377892 3.6352195 37.50377892 3.6352195 38.70716858 3.76121521 C44.2142367 4.3688371 44.2142367 4.3688371 46.4453125 5.484375 C45.96626774 10.76428142 43.14945768 14.48247362 40.3203125 18.796875 C39.21799929 20.50993383 38.11647306 22.22349926 37.015625 23.9375 C36.43200195 24.84177734 35.84837891 25.74605469 35.24707031 26.67773438 C32.18875795 31.44173965 29.19257218 36.24430843 26.1953125 41.046875 C25.57809326 42.03429687 24.96087402 43.02171875 24.32495117 44.0390625 C18.69013687 53.06515347 13.11185716 62.1257063 7.54785156 71.19555664 C6.90944336 72.23574951 6.27103516 73.27594238 5.61328125 74.34765625 C5.04891357 75.26844971 4.4845459 76.18924316 3.90307617 77.13793945 C2.7830597 78.94073267 1.62259755 80.71844742 0.4453125 82.484375 C-2.25611877 82.85186768 -2.25611877 82.85186768 -5.73266602 82.84082031 C-7.6796212 82.84532196 -7.6796212 82.84532196 -9.66590881 82.84991455 C-11.08847447 82.83790972 -12.51103617 82.82542678 -13.93359375 82.8125 C-15.38565374 82.80944336 -16.83771665 82.80756652 -18.28977966 82.80682373 C-21.33384407 82.80221793 -24.37764433 82.78778062 -27.42163086 82.765625 C-31.33157154 82.73731718 -35.2413042 82.7264114 -39.15133762 82.7219429 C-42.14953204 82.71779455 -45.14768404 82.7079824 -48.14585686 82.69606781 C-49.58801876 82.6903546 -51.03018477 82.68559939 -52.47235298 82.68180084 C-54.4836279 82.67495769 -56.49487232 82.66043114 -58.50610352 82.64550781 C-59.65256851 82.63867981 -60.79903351 82.63185181 -61.98023987 82.62481689 C-64.5546875 82.484375 -64.5546875 82.484375 -65.5546875 81.484375 C-65.14143545 74.98728913 -63.78699337 69.40270439 -61.61328125 63.29296875 C-61.32614761 62.46225357 -61.03901398 61.63153839 -60.74317932 60.77565002 C-59.83496952 58.15456984 -58.91384178 55.53825394 -57.9921875 52.921875 C-57.36957866 51.13246186 -56.74782569 49.34275069 -56.12695312 47.55273438 C-54.61273006 43.19310908 -53.08691432 38.83770365 -51.5546875 34.484375 C-50.82991211 34.55358154 -50.10513672 34.62278809 -49.35839844 34.6940918 C-35.70864488 36.15288366 -35.70864488 36.15288366 -23.29052734 31.79785156 C-19.51105064 27.39404551 -17.06010866 22.26075126 -14.69140625 16.99609375 C-13.01334327 13.28820887 -11.06485423 9.79510721 -8.9921875 6.296875 C-8.39277344 5.16894531 -7.79335938 4.04101562 -7.17578125 2.87890625 C-4.2663279 0.22094067 -3.75291762 0.09284894 0 0 Z " fill="#FEFDFD" transform="translate(710.5546875,653.515625)"/>
<path d="M0 0 C1.75446217 0.11013674 3.50598727 0.26982325 5.25390625 0.45703125 C7.04284302 0.63721802 7.04284302 0.63721802 8.86791992 0.82104492 C12.32448129 1.18997324 15.77236737 1.61367728 19.22021484 2.05615234 C21.38023474 2.33220103 23.54148684 2.59633405 25.703125 2.859375 C27.09774562 3.0344458 28.4922802 3.21020361 29.88671875 3.38671875 C31.13340332 3.54382324 32.38008789 3.70092773 33.66455078 3.86279297 C37.33631987 4.4706753 40.70154912 5.36650041 44.25390625 6.45703125 C43.67338482 10.53954129 42.36337922 13.30541384 40.18359375 16.7890625 C39.54228516 17.82224609 38.90097656 18.85542969 38.24023438 19.91992188 C37.54349609 21.02529297 36.84675781 22.13066406 36.12890625 23.26953125 C35.4010126 24.43642499 34.67380943 25.6037497 33.94726562 26.77148438 C32.08233788 29.76499004 30.20875741 32.75296913 28.33239746 35.73931885 C26.69016203 38.35490637 25.05416514 40.97438175 23.41796875 43.59375 C21.5893578 46.52098169 19.75982332 49.4475965 17.92602539 52.37158203 C14.55471142 57.75125307 11.21040055 63.14616784 7.8984375 68.5625 C7.53543549 69.15547882 7.17243347 69.74845764 6.7984314 70.35940552 C5.03837123 73.23506123 3.2819254 76.1127507 1.53125 78.99414062 C0.89960937 80.02732422 0.26796875 81.06050781 -0.3828125 82.125 C-0.93670654 83.03531982 -1.49060059 83.94563965 -2.0612793 84.88354492 C-6.88543509 92.25224891 -6.88543509 92.25224891 -10.09375 93.015625 C-10.98964844 92.97566406 -11.88554688 92.93570313 -12.80859375 92.89453125 C-13.865625 92.84941406 -14.92265625 92.80429687 -16.01171875 92.7578125 C-48.75574892 90.12047953 -48.75574892 90.12047953 -56.74609375 87.45703125 C-56.38238339 81.32310522 -53.40972708 77.37748052 -50.05859375 72.45703125 C-48.86213878 70.65961413 -47.66686613 68.86140955 -46.47265625 67.0625 C-45.85422852 66.13614746 -45.23580078 65.20979492 -44.59863281 64.25537109 C-41.64856503 59.79916696 -38.7914896 55.2851868 -35.93359375 50.76953125 C-34.7672644 48.93207751 -33.60059099 47.09484212 -32.43359375 45.2578125 C-31.83804688 44.32018066 -31.2425 43.38254883 -30.62890625 42.41650391 C-28.63033515 39.27507771 -26.62665705 36.13696666 -24.62109375 33 C-23.92870605 31.9167041 -23.23631836 30.8334082 -22.52294922 29.71728516 C-21.14334377 27.56453321 -19.75963074 25.41440745 -18.37158203 23.26708984 C-15.49931226 18.81686643 -12.6580006 14.37723258 -10.05078125 9.765625 C-9.46744019 8.76305664 -9.46744019 8.76305664 -8.87231445 7.74023438 C-7.90067937 6.05431259 -6.96403891 4.34834624 -6.03125 2.640625 C-3.74609375 0.45703125 -3.74609375 0.45703125 0 0 Z " fill="#FEFDFD" transform="translate(783.74609375,537.54296875)"/>
<path d="M0 0 C1.29461655 0.00222061 2.58923309 0.00444122 3.92308044 0.00672913 C4.99131546 0.00651009 4.99131546 0.00651009 6.08113098 0.00628662 C8.4457143 0.00698581 10.81021979 0.01477846 13.17478943 0.02259827 C14.81003781 0.02446243 16.44528675 0.02588634 18.08053589 0.02688599 C22.39273103 0.03071134 26.7048927 0.04054177 31.01707458 0.05158997 C35.41404263 0.06180371 39.81101607 0.06638353 44.20799255 0.07142639 C52.84147149 0.08216402 61.47492317 0.09924065 70.10838318 0.12025452 C69.40646674 3.1277149 68.51671308 5.39274516 66.91307068 8.04212952 C66.45247253 8.80751038 65.99187439 9.57289124 65.51731873 10.36146545 C64.75802063 11.60331604 64.75802063 11.60331604 63.98338318 12.87025452 C63.45204773 13.74713928 62.92071228 14.62402405 62.37327576 15.52748108 C56.37322034 25.39443141 50.23582333 35.1761436 44.09324646 44.95472717 C42.00764687 48.2809122 39.9298874 51.61192705 37.85447693 54.94447327 C37.16458679 56.05145569 36.47469666 57.15843811 35.76390076 58.29896545 C34.43084115 60.43840031 33.09861971 62.5783577 31.76731873 64.71888733 C31.17088562 65.67504944 30.57445251 66.63121155 29.95994568 67.61634827 C29.43223572 68.46382629 28.90452576 69.31130432 28.36082458 70.1844635 C27.10838318 72.12025452 27.10838318 72.12025452 26.10838318 73.12025452 C16.70525731 74.08277921 7.34433511 72.26257614 -1.91896057 70.85072327 C-6.57887534 70.14547202 -11.22796463 69.65079399 -15.93067932 69.33119202 C-17.89161682 69.12025452 -17.89161682 69.12025452 -20.89161682 68.12025452 C-19.2024835 63.07296328 -16.30144788 58.90135529 -13.39161682 54.49525452 C-12.89274963 53.73212952 -12.39388245 52.96900452 -11.87989807 52.18275452 C-9.897166 49.15284223 -7.90018712 46.13310996 -5.89161682 43.12025452 C-13.15161682 43.12025452 -20.41161682 43.12025452 -27.89161682 43.12025452 C-27.06744265 38.99938367 -26.60212403 37.2224311 -24.55567932 33.85462952 C-24.07332825 33.05452454 -23.59097717 32.25441956 -23.0940094 31.43006897 C-22.57346985 30.5853302 -22.0529303 29.74059143 -21.51661682 28.87025452 C-20.98512024 27.99651184 -20.45362366 27.12276917 -19.90602112 26.22254944 C-3.97092204 0.1651399 -3.97092204 0.1651399 0 0 Z " fill="#FEFDFD" transform="translate(877.8916168212891,350.87974548339844)"/>
<path d="M0 0 C1.76114532 0.02053518 3.52235379 0.03618441 5.28358459 0.04716492 C9.90324625 0.08902342 14.519059 0.19693156 19.13720703 0.31890869 C23.85591558 0.43175709 28.57525082 0.48174178 33.29492188 0.53710938 C42.54335128 0.65482738 51.78893288 0.84237615 61.03515625 1.07421875 C60.53942016 5.1629958 59.99245263 8.76848952 58.28515625 12.52490234 C57.92808594 13.32197601 57.57101562 14.11904968 57.203125 14.9402771 C56.81769531 15.77596222 56.43226563 16.61164734 56.03515625 17.47265625 C55.63941406 18.34822174 55.24367188 19.22378723 54.8359375 20.12588501 C54.00286355 21.96488509 53.1655449 23.80196759 52.32421875 25.63720703 C51.03145296 28.45729725 49.75095717 31.28270267 48.47265625 34.109375 C47.66085563 35.8974531 46.84837954 37.68522473 46.03515625 39.47265625 C45.64972656 40.32048676 45.26429688 41.16831726 44.8671875 42.0418396 C44.51011719 42.82000031 44.15304687 43.59816101 43.78515625 44.39990234 C43.31335938 45.43079483 43.31335938 45.43079483 42.83203125 46.48251343 C42.03515625 48.07421875 42.03515625 48.07421875 41.03515625 49.07421875 C38.35727652 49.16934819 35.70526756 49.19977154 33.02709961 49.18774414 C32.18814651 49.18789017 31.34919342 49.18803619 30.4848175 49.18818665 C27.69818581 49.18748725 24.91162009 49.1796936 22.125 49.171875 C20.19828834 49.17001092 18.2715762 49.16858697 16.34486389 49.16758728 C11.26328228 49.16376134 6.18172905 49.15393041 1.10015869 49.1428833 C-4.08101009 49.13267081 -9.26218344 49.12809001 -14.44335938 49.12304688 C-24.6172 49.11230821 -34.79101952 49.09523088 -44.96484375 49.07421875 C-44.17271399 44.42924703 -42.38085405 40.96355982 -39.95703125 36.97265625 C-39.55332306 36.29554596 -39.14961487 35.61843567 -38.7336731 34.92080688 C-37.44250002 32.75947316 -36.14118384 30.6044426 -34.83984375 28.44921875 C-33.98764794 27.02381594 -33.13607941 25.59803791 -32.28515625 24.171875 C-27.69418995 16.50158193 -27.69418995 16.50158193 -26.25105286 14.26112366 C-24.86313388 12.01102822 -24.86313388 12.01102822 -23.73857117 9.17137146 C-18.60186174 -1.5311552 -10.45803808 -0.35802101 0 0 Z " fill="#FEFEFE" transform="translate(464.96484375,686.92578125)"/>
<path d="M0 0 C1.26070312 0.12632812 2.52140625 0.25265625 3.8203125 0.3828125 C4.52341553 0.44654053 5.22651855 0.51026855 5.95092773 0.57592773 C8.622905 0.83961152 11.28172454 1.16943579 13.9453125 1.5078125 C15.17685059 1.66169434 16.40838867 1.81557617 17.67724609 1.97412109 C26.44357277 3.07914715 35.19665754 4.27053343 43.9453125 5.5078125 C43.39912345 8.90003013 42.66586584 11.36570893 40.78515625 14.23828125 C40.32971436 14.9449292 39.87427246 15.65157715 39.4050293 16.37963867 C38.90269775 17.14381104 38.40036621 17.9079834 37.8828125 18.6953125 C36.78223715 20.40260454 35.68337034 22.11099879 34.5859375 23.8203125 C33.99619141 24.73683594 33.40644531 25.65335937 32.79882812 26.59765625 C29.51262382 31.7572394 26.32767958 36.97886975 23.1328125 42.1953125 C17.6218895 51.17306342 12.0851856 60.13372495 6.5078125 69.0703125 C5.86287842 70.10567139 5.21794434 71.14103027 4.5534668 72.20776367 C3.96218994 73.15369385 3.37091309 74.09962402 2.76171875 75.07421875 C2.24037354 75.90896729 1.71902832 76.74371582 1.18188477 77.60375977 C-0.0546875 79.5078125 -0.0546875 79.5078125 -1.0546875 80.5078125 C-9.7212011 81.35284671 -18.48821069 79.69039585 -27.0546875 78.5078125 C-29.02858607 78.24044385 -31.00254794 77.97354218 -32.9765625 77.70703125 C-38.33697098 76.98141079 -43.69617234 76.24727574 -49.0546875 75.5078125 C-48.55203886 70.56668149 -46.07634597 67.07954615 -43.3671875 63.0703125 C-42.35574886 61.54104001 -41.34538349 60.01105729 -40.3359375 58.48046875 C-39.7996875 57.67109863 -39.2634375 56.86172852 -38.7109375 56.02783203 C-35.87952472 51.71977738 -33.12655918 47.36221936 -30.3671875 43.0078125 C-25.06783132 34.66605477 -19.75470323 26.33320545 -14.4296875 18.0078125 C-13.41708862 16.42323242 -13.41708862 16.42323242 -12.3840332 14.80664062 C-11.14074016 12.86365136 -9.89068448 10.92496442 -8.63232422 8.99169922 C-7.69199708 7.51121511 -6.7842481 6.00792385 -5.94970703 4.46533203 C-4.25120461 1.4058788 -3.52744277 0.58640353 0 0 Z " fill="#FEFCFC" transform="translate(845.0546875,440.4921875)"/>
<path d="M0 0 C24.09 0 48.18 0 73 0 C71.87473663 9.00210697 71.87473663 9.00210697 70.64892578 12.25708008 C70.2431279 13.35280083 70.2431279 13.35280083 69.82913208 14.47065735 C69.53747162 15.22928574 69.24581116 15.98791412 68.9453125 16.76953125 C68.64309784 17.57235031 68.34088318 18.37516937 68.0295105 19.20231628 C67.39330867 20.88546324 66.75270954 22.5669541 66.10791016 24.24682617 C65.1228655 26.81807165 64.15630543 29.39574602 63.19140625 31.97460938 C62.56879786 33.61499728 61.94513663 35.25498604 61.3203125 36.89453125 C61.0327005 37.66328079 60.7450885 38.43203033 60.44876099 39.22407532 C57.82178675 46.00624449 57.82178675 46.00624449 55 48 C51.90583801 48.36076355 51.90583801 48.36076355 48.05004883 48.34057617 C47.34735367 48.34101425 46.64465851 48.34145233 45.92066956 48.34190369 C43.59917364 48.33981447 41.27840091 48.31647819 38.95703125 48.29296875 C37.34706517 48.28737324 35.73709398 48.28310293 34.12712097 48.28010559 C29.89045093 48.26865318 25.6540896 48.23918279 21.4175415 48.20599365 C17.0941587 48.17530119 12.77072599 48.16160203 8.44726562 48.14648438 C-0.0352979 48.1143133 -8.51761054 48.06311238 -17 48 C-16.50019023 44.0433534 -15.97395649 40.37910982 -14.52539062 36.65698242 C-14.22838257 35.8831572 -13.93137451 35.10933197 -13.62536621 34.3120575 C-13.30555786 33.50138321 -12.98574951 32.69070892 -12.65625 31.85546875 C-12.32709595 31.00447098 -11.99794189 30.15347321 -11.65881348 29.27668762 C-10.61278696 26.57754682 -9.55644865 23.88257615 -8.5 21.1875 C-7.78970676 19.35767709 -7.0800646 17.52760131 -6.37109375 15.69726562 C-1.23616717 2.47233434 -1.23616717 2.47233434 0 0 Z " fill="#FEFDFD" transform="translate(557,688)"/>
<path d="M0 0 C1.27463104 0.00444122 2.54926208 0.00888245 3.86251831 0.01345825 C4.56506744 0.0131662 5.26761658 0.01287415 5.99145508 0.01257324 C8.31822984 0.0139688 10.64468607 0.02954031 12.97140503 0.04519653 C14.58280258 0.04892587 16.1942024 0.05177321 17.80560303 0.05377197 C22.05042767 0.06141472 26.29511583 0.08106864 30.53988647 0.10317993 C34.86990513 0.1236246 39.19994579 0.13277073 43.52999878 0.14285278 C52.02875939 0.16431399 60.52740899 0.19845758 69.02609253 0.24050903 C68.311726 4.21687029 67.22328063 7.00205676 65.14718628 10.48660278 C64.55486206 11.49013794 63.96253784 12.4936731 63.3522644 13.52761841 C62.41737183 15.08706177 62.41737183 15.08706177 61.46359253 16.67800903 C56.23572026 25.48909321 51.11052448 34.34275312 46.02609253 43.24050903 C22.59609253 43.24050903 -0.83390747 43.24050903 -24.97390747 43.24050903 C-24.17102744 38.42322887 -23.64988349 36.11212363 -21.49734497 32.04519653 C-20.99444946 31.08702026 -20.49155396 30.12884399 -19.97341919 29.14163208 C-19.43733032 28.14301147 -18.90124146 27.14439087 -18.34890747 26.11550903 C-17.5351062 24.57987305 -17.5351062 24.57987305 -16.7048645 23.01321411 C-4.6461759 0.37575052 -4.6461759 0.37575052 0 0 Z " fill="#FEFDFD" transform="translate(765.9739074707031,350.7594909667969)"/>
<path d="M0 0 C1.24106003 0.00015106 2.48212006 0.00030212 3.76078796 0.00045776 C5.11502238 0.01067098 6.46925516 0.02110297 7.82348633 0.03173828 C9.20925187 0.03546911 10.59502006 0.03831575 11.98078918 0.04031372 C15.62555238 0.0479447 19.27015582 0.06758848 22.91485596 0.08972168 C26.63502847 0.1101917 30.35522684 0.1193179 34.07543945 0.12939453 C41.37303827 0.15083498 48.67050553 0.18496434 55.96801758 0.22705078 C56.96801758 3.22705078 56.96801758 3.22705078 55.77270508 6.21142578 C55.14146665 7.47270678 54.49710345 8.72746549 53.84301758 9.97705078 C53.49553467 10.65646729 53.14805176 11.33588379 52.79003906 12.03588867 C38.39368236 39.801386 38.39368236 39.801386 34.96801758 43.22705078 C32.91245096 43.32118766 30.85361577 43.34448076 28.79589844 43.34057617 C27.83007591 43.34079521 27.83007591 43.34079521 26.84474182 43.34101868 C24.70741455 43.34031963 22.57017345 43.33252769 20.43286133 43.32470703 C18.95455472 43.32284282 17.4762475 43.32141893 15.99794006 43.32041931 C12.10002955 43.31659437 8.20215609 43.3067643 4.30426025 43.29571533 C0.32955425 43.2855007 -3.64515771 43.28092158 -7.61987305 43.27587891 C-15.42392642 43.265142 -23.22794924 43.24806587 -31.03198242 43.22705078 C-30.313958 39.22427485 -29.20437172 36.42053124 -27.11791992 32.91064453 C-26.52108398 31.89808594 -25.92424805 30.88552734 -25.30932617 29.84228516 C-24.68155273 28.79363281 -24.0537793 27.74498047 -23.40698242 26.66455078 C-22.50012695 25.13217773 -22.50012695 25.13217773 -21.57495117 23.56884766 C-20.35237297 21.50297724 -19.12547098 19.43965959 -17.89428711 17.37890625 C-16.61433271 15.21264886 -15.35564572 13.03372823 -14.11499023 10.84472656 C-13.50236328 9.76562012 -12.88973633 8.68651367 -12.25854492 7.57470703 C-11.71020996 6.59638916 -11.161875 5.61807129 -10.59692383 4.61010742 C-7.66388392 0.14374198 -5.01885697 -0.02036047 0 0 Z " fill="#FEFDFC" transform="translate(666.031982421875,350.77294921875)"/>
</svg>
