<?xml version="1.0" encoding="UTF-8"?>
<svg version="1.1" xmlns="http://www.w3.org/2000/svg" width="1040" height="1040">
<path d="M0 0 C325.38 0 650.76 0 986 0 C986 325.38 986 650.76 986 986 C660.62 986 335.24 986 0 986 C0 660.62 0 335.24 0 0 Z " fill="#2180C4" transform="translate(27,27)"/>
<path d="M0 0 C0.98458191 -0.00204437 1.96916382 -0.00408875 2.98358154 -0.00619507 C6.2416844 -0.00920423 9.4992813 0.00929703 12.75732422 0.02832031 C15.03636551 0.03138134 17.31540868 0.03325484 19.5944519 0.03399658 C24.38107429 0.03860255 29.16752875 0.05302647 33.95410156 0.07519531 C40.0380352 0.10325327 46.12183554 0.11438493 52.20582771 0.11887741 C58.05634315 0.12408564 63.90682643 0.13859997 69.75732422 0.15332031 C71.39739126 0.1561414 71.39739126 0.1561414 73.07059097 0.15901947 C83.6448407 0.18248204 94.20856283 0.2618624 104.77246094 0.76367188 C105.90244349 0.81271227 105.90244349 0.81271227 107.05525398 0.86274338 C118.04899854 1.46402359 127.16092603 5.21922062 136.18701172 11.35644531 C136.72567871 11.72092773 137.2643457 12.08541016 137.81933594 12.4609375 C141.08591373 14.67590252 144.3357024 16.91418368 147.57763672 19.16503906 C152.75918897 22.76056403 157.97311663 26.30805647 163.18701172 29.85644531 C170.22425848 34.64994967 177.25536041 39.45190781 184.26538086 44.28515625 C187.86040093 46.76257497 191.4642795 49.22614239 195.07763672 51.67675781 C195.91657471 52.24700684 196.7555127 52.81725586 197.61987305 53.40478516 C199.23001686 54.49872242 200.84170888 55.59038625 202.45532227 56.67919922 C210.37763431 62.06804954 217.84006577 67.94030442 225.06201172 74.23144531 C229.30420256 77.90063066 233.5753564 81.51631757 237.93701172 85.04394531 C242.31852967 88.59912435 246.50411853 92.32414068 250.67529297 96.12207031 C254.07158678 99.14334568 257.60294152 101.98220464 261.13623047 104.84082031 C265.36958249 108.33157409 269.49364157 111.94283332 273.62792969 115.54980469 C277.36662686 118.80316729 281.14596009 121.98872037 284.99951172 125.10644531 C289.36283957 128.63835618 293.52539652 132.34351467 297.67529297 136.12207031 C300.18852404 138.35779064 302.76012651 140.49022213 305.37451172 142.60644531 C311.81250077 147.82030969 318.03864738 153.26685785 324.28613281 158.70556641 C329.00210439 162.80130232 333.74989843 166.86004661 338.50048828 170.91552734 C339.61280972 171.86586335 340.72416081 172.81733643 341.83447266 173.77001953 C347.91769611 178.9891695 354.0629094 184.10234956 360.37451172 189.04394531 C360.96111572 189.50333496 361.54771973 189.96272461 362.15209961 190.43603516 C364.77420015 192.48465479 367.40353134 194.52208874 370.04638672 196.54394531 C379.33453127 203.74929381 386.86538609 211.42586918 389.18701172 223.35644531 C390.46773056 238.41403966 385.73688492 249.25321488 378.36962891 262.26660156 C376.95850624 264.76024526 375.5615635 267.26166576 374.16357422 269.76269531 C370.86768358 275.64431499 367.5320283 281.5026663 364.18701172 287.35644531 C363.54795898 288.48445557 363.54795898 288.48445557 362.89599609 289.63525391 C352.91731931 307.19856359 341.65640762 320.80976215 324.18701172 331.35644531 C322.10358318 332.64795841 320.02025358 333.93963112 317.93701172 335.23144531 C316.25653472 336.25665435 314.57604933 337.28184999 312.89501953 338.30615234 C311.19948863 339.34877298 309.51737191 340.41310547 307.83544922 341.47753906 C288.33135625 353.69882293 266.61732767 363.65775547 244.30029297 369.43457031 C241.10167631 370.31092686 241.10167631 370.31092686 237.85888672 371.81738281 C212.94662856 382.25932932 180.97008397 383.84161591 154.24951172 383.79394531 C153.49394989 383.79407623 152.73838806 383.79420715 151.95993042 383.79434204 C124.57991807 383.70846896 124.57991807 383.70846896 118.37451172 379.23144531 C115.65601859 375.65856864 114.84295869 372.72679083 114.18701172 368.35644531 C114.01298828 367.49921875 113.83896484 366.64199219 113.65966797 365.75878906 C113.01472528 361.11626772 112.96313112 356.53834808 112.93701172 351.85644531 C112.90607422 350.47005859 112.90607422 350.47005859 112.87451172 349.05566406 C112.84423152 343.76419853 112.98027886 339.78851511 116.18701172 335.35644531 C122.2149823 329.8705841 126.97308388 329.64419088 134.93701172 329.71972656 C136.06792236 329.7093486 137.19883301 329.69897064 138.36401367 329.6882782 C141.97198958 329.65866823 145.57893686 329.66195011 149.18701172 329.66894531 C169.85462181 329.61721337 188.83571726 328.153557 208.99951172 323.60644531 C209.79270813 323.42870575 210.58590454 323.25096619 211.40313721 323.06784058 C222.92455318 320.47342515 234.17148895 317.6642614 245.18701172 313.35644531 C246.46390869 312.87570557 246.46390869 312.87570557 247.76660156 312.38525391 C259.51913848 307.94678482 270.39296777 302.89736729 281.04638672 296.22753906 C284.18701172 294.35644531 284.18701172 294.35644531 286.18701172 294.35644531 C284.88776066 291.7579432 283.82255857 291.59870868 281.18701172 290.41894531 C273.81651137 286.84951729 267.1199706 282.24107636 260.29589844 277.7421875 C257.21178019 275.71562404 254.10686392 273.72212728 250.99951172 271.73144531 C249.85097646 270.99461851 248.7025382 270.25764048 247.55419922 269.52050781 C246.99442383 269.16118164 246.43464844 268.80185547 245.85791016 268.43164062 C244.21789483 267.37631808 242.58132338 266.31564974 240.94482422 265.25488281 C235.75358594 261.89584628 230.55340697 258.56781404 225.26904297 255.35644531 C210.26045884 246.22199439 195.8768535 236.38689178 182.18701172 225.35644531 C181.57212891 224.875625 180.95724609 224.39480469 180.32373047 223.89941406 C178.90445608 222.76725725 177.53819969 221.56904991 176.18701172 220.35644531 C176.18701172 219.69644531 176.18701172 219.03644531 176.18701172 218.35644531 C175.52701172 218.35644531 174.86701172 218.35644531 174.18701172 218.35644531 C172.81201172 216.95800781 172.81201172 216.95800781 171.18701172 214.98144531 C167.61062133 210.76428497 163.77213188 206.89985179 159.81201172 203.04394531 C157.09486836 200.26210806 154.55454388 197.37223146 152.0078125 194.43554688 C149.11710035 191.13475515 146.12755904 187.92989777 143.12451172 184.73144531 C142.48473389 184.04993408 141.84495605 183.36842285 141.18579102 182.66625977 C136.686153 177.89625724 132.12612296 173.1908568 127.49951172 168.54394531 C126.92386475 167.96370605 126.34821777 167.3834668 125.75512695 166.78564453 C123.50639699 164.54527167 121.35425031 162.47948708 118.79248047 160.59472656 C118.26267578 160.18609375 117.73287109 159.77746094 117.18701172 159.35644531 C117.18701172 158.69644531 117.18701172 158.03644531 117.18701172 157.35644531 C116.59275391 157.0921875 115.99849609 156.82792969 115.38623047 156.55566406 C113.10598585 155.31226247 111.75635653 154.06460256 109.99951172 152.16894531 C102.95248869 144.95664029 94.62520116 137.37439571 84.06567383 137.16796875 C79.23861533 137.20915815 75.15702134 138.24305978 70.59716797 139.74316406 C69.79187149 139.99634903 68.98657501 140.249534 68.15687561 140.51039124 C65.51718788 141.34312843 62.88354866 142.19352106 60.24951172 143.04394531 C58.38714287 143.63480202 56.52434138 144.22429663 54.66113281 144.8125 C50.78252619 146.03799577 46.90585205 147.26935848 43.03027344 148.50439453 C37.38470876 150.29912687 31.72783617 152.05548256 26.06591797 153.79785156 C25.16851395 154.07404831 24.27110992 154.35024506 23.34651184 154.6348114 C21.55517159 155.18590966 19.76379515 155.73689032 17.97238159 156.28775024 C5.18165538 160.22393392 -7.58427592 164.22405486 -20.31298828 168.35644531 C-27.87046925 170.79958234 -35.43007491 173.22071753 -43.06298828 175.41894531 C-44.09069336 175.72541992 -44.09069336 175.72541992 -45.13916016 176.03808594 C-49.85122619 177.35252933 -53.97061903 177.52323803 -58.81298828 177.35644531 C-59.14298828 176.36644531 -59.47298828 175.37644531 -59.81298828 174.35644531 C-60.80298828 174.02644531 -61.79298828 173.69644531 -62.81298828 173.35644531 C-63.78027344 171.02734375 -63.78027344 171.02734375 -64.60205078 167.96582031 C-65.05451172 166.31259766 -65.05451172 166.31259766 -65.51611328 164.62597656 C-65.97244141 162.88380859 -65.97244141 162.88380859 -66.43798828 161.10644531 C-66.74994141 159.96046875 -67.06189453 158.81449219 -67.38330078 157.63378906 C-70.95245537 144.41868652 -70.95245537 144.41868652 -71.06298828 137.73144531 C-71.08876953 136.79042969 -71.11455078 135.84941406 -71.14111328 134.87988281 C-70.81298828 132.35644531 -70.81298828 132.35644531 -69.57080078 130.63378906 C-63.30900545 126.08355112 -54.55350985 124.68230313 -47.18798828 122.61035156 C-37.37312972 119.82735915 -27.6078076 116.89902672 -17.85119629 113.91925049 C-1.86157344 109.03925307 14.1628603 104.31176188 30.24926758 99.76171875 C39.56486089 97.12411052 48.84549279 94.38839996 58.09033203 91.51123047 C66.1606414 89.00865104 73.72432339 87.04217526 82.18701172 86.54394531 C83.32009766 86.44823242 83.32009766 86.44823242 84.47607422 86.35058594 C93.15961467 85.82091981 99.50051365 89.31252188 106.81201172 93.60644531 C111.74819053 96.44517712 116.69415528 99.16537852 121.81201172 101.66894531 C131.01615792 106.18579484 139.95982311 111.18774499 148.93554688 116.13891602 C152.80493167 118.48294407 152.80493167 118.48294407 157.09326172 119.33300781 C160.30023287 117.83721903 162.37630262 115.33178008 164.68701172 112.73144531 C165.16009766 112.22226563 165.63318359 111.71308594 166.12060547 111.18847656 C169.44954106 107.50912669 172.05061286 103.84916644 174.18701172 99.35644531 C173.65504407 94.69491899 170.44002197 92.65595492 166.99951172 89.85644531 C165.71810463 88.78632089 164.43685916 87.71600291 163.15576172 86.64550781 C162.49705078 86.10055664 161.83833984 85.55560547 161.15966797 84.99414062 C158.07990723 82.43732935 155.03850009 79.83647358 151.99951172 77.23144531 C151.4175 76.73410889 150.83548828 76.23677246 150.23583984 75.72436523 C145.69282876 71.82843939 141.27640611 67.80569774 136.87451172 63.75097656 C133.10924871 60.396171 129.17703972 57.27870501 125.20654297 54.16894531 C124.54009766 53.57082031 123.87365234 52.97269531 123.18701172 52.35644531 C123.18701172 51.69644531 123.18701172 51.03644531 123.18701172 50.35644531 C122.34783203 50.17275391 122.34783203 50.17275391 121.49169922 49.98535156 C119.18701172 49.35644531 119.18701172 49.35644531 116.94482422 48.38378906 C110.54514098 45.73466203 104.97795233 45.05584252 98.12451172 45.14160156 C96.72895554 45.15054443 96.72895554 45.15054443 95.3052063 45.15966797 C79.21708959 45.34164692 63.13445187 46.16729663 47.06201172 46.85644531 C43.67011337 47.00165949 40.27819054 47.14627357 36.88623047 47.29003906 C36.05849247 47.32513077 35.23075447 47.36022247 34.3779335 47.39637756 C28.03827669 47.66241619 21.69784143 47.90025137 15.35647202 48.12156677 C11.10483271 48.27318931 6.86106847 48.48232312 2.61376953 48.73144531 C-10.98600154 49.39662741 -10.98600154 49.39662741 -15.52392578 45.36816406 C-19.09246013 39.67430796 -18.71213111 32.84742077 -18.50585938 26.35571289 C-18.43779399 24.16268536 -18.42384828 21.97426564 -18.41845703 19.78027344 C-18.2550301 7.68521682 -18.2550301 7.68521682 -14.81298828 3.35644531 C-10.17133138 -0.40159797 -5.69247908 -0.05672949 0 0 Z " fill="#FEFEFE" transform="translate(377.81298828125,125.6435546875)"/>
<path d="M0 0 C3.61920249 2.7919562 5.48052468 4.80834155 6.921875 9.19921875 C7.2413208 10.16134277 7.5607666 11.1234668 7.88989258 12.11474609 C8.23560303 13.19062988 8.58131348 14.26651367 8.9375 15.375 C9.31092529 16.51533691 9.68435059 17.65567383 10.0690918 18.83056641 C17.388024 41.27993561 24.34062544 63.85768027 31.2578125 86.43359375 C34.12707886 95.77924805 37.10057709 105.09253614 40.05395508 114.41186523 C40.83999308 116.89286518 41.62532311 119.37408741 42.41015625 121.85546875 C42.6584317 122.64009491 42.90670715 123.42472107 43.1625061 124.23312378 C44.7076698 129.12924963 46.21190779 134.03495791 47.64233398 138.96606445 C48.16542799 140.7736094 48.16542799 140.7736094 49.1875 142.6875 C49.78560582 148.78817939 48.64619755 151.82662777 45.1875 156.6875 C41.76905563 159.63116043 38.94113032 160.02202509 34.48010254 159.953125 C30.15386501 159.45187944 26.33212497 157.67686873 22.359375 155.96875 C21.44794739 155.59141724 20.53651978 155.21408447 19.59747314 154.82531738 C16.70509732 153.62591107 13.82100024 152.40807254 10.9375 151.1875 C8.03878209 149.96944219 5.1384959 148.75553874 2.23468018 147.54968262 C0.43292501 146.80060734 -1.36576807 146.04411388 -3.16094971 145.27941895 C-3.97569763 144.93906616 -4.79044556 144.59871338 -5.62988281 144.24804688 C-6.69955292 143.79504211 -6.69955292 143.79504211 -7.79083252 143.33288574 C-10.0938932 142.48475731 -10.0938932 142.48475731 -13.8125 142.6875 C-13.95945312 143.76064453 -13.95945312 143.76064453 -14.109375 144.85546875 C-15.09079059 151.39541921 -16.58715642 157.48004729 -18.6171875 163.765625 C-20.16914096 168.70771708 -21.40643218 173.73241547 -22.6875 178.75 C-24.8289081 187.1073454 -27.17283475 195.37210121 -29.70263672 203.61938477 C-31.22291149 208.61250286 -32.59354811 213.61279737 -33.8125 218.6875 C-35.49248969 225.63145738 -37.51108924 232.43536584 -39.6015625 239.265625 C-41.15469741 244.37998845 -42.55559624 249.49229778 -43.8125 254.6875 C-45.49248969 261.63145738 -47.51108924 268.43536584 -49.6015625 275.265625 C-51.53948972 281.64708231 -53.1756818 288.05192887 -54.7421875 294.53515625 C-56.17934402 300.28518853 -57.94750581 305.94144002 -59.70703125 311.59960938 C-61.14491969 316.2670409 -62.30740492 320.83832919 -63.08544922 325.66430664 C-64.12376172 328.55366047 -65.39391464 329.7833221 -67.8125 331.6875 C-70.42273285 332.06722099 -72.60653367 332.20561272 -75.21142578 332.1574707 C-75.95006866 332.1596611 -76.68871155 332.1618515 -77.44973755 332.16410828 C-79.88622113 332.16641603 -82.32149049 332.14018692 -84.7578125 332.11328125 C-86.45123918 332.10835721 -88.1446713 332.10505842 -89.83810425 332.10331726 C-93.38394601 332.09568069 -96.92938362 332.07512826 -100.47509766 332.04418945 C-105.02609411 332.00455444 -109.57682798 331.98657071 -114.12797737 331.97688007 C-118.46295816 331.96692 -122.79787449 331.9470248 -127.1328125 331.92578125 C-127.96295994 331.9223855 -128.79310738 331.91898975 -129.6484108 331.9154911 C-131.98980687 331.90394543 -134.33103457 331.88543044 -136.67236328 331.86450195 C-137.36954468 331.86181305 -138.06672607 331.85912415 -138.78503418 331.85635376 C-143.58266846 331.80241577 -143.58266846 331.80241577 -145.8125 330.6875 C-146.07359241 324.61116745 -145.53633631 319.48764686 -143.75 313.6875 C-143.28987309 312.11472704 -142.8302683 310.54180127 -142.37109375 308.96875 C-142.12085449 308.12570312 -141.87061523 307.28265625 -141.61279297 306.4140625 C-140.12736545 301.35327711 -138.72763311 296.26829302 -137.3125 291.1875 C-136.7086178 289.03117031 -136.10445526 286.87491912 -135.5 284.71875 C-134.09759078 279.71014563 -132.70218944 274.69964658 -131.3125 269.6875 C-129.02281868 261.42938271 -126.71090706 253.17754227 -124.3984375 244.92578125 C-122.69586861 238.84835055 -120.99881085 232.76946112 -119.3125 226.6875 C-117.02281868 218.42938271 -114.71090706 210.17754227 -112.3984375 201.92578125 C-110.69586861 195.84835055 -108.99881085 189.76946112 -107.3125 183.6875 C-105.32450354 176.51745942 -103.32026367 169.35202921 -101.3125 162.1875 C-99.06492575 154.16656743 -96.81982617 146.14499851 -94.59692383 138.1171875 C-93.53797421 134.29312915 -92.47122841 130.47144764 -91.39453125 126.65234375 C-91.16137207 125.82210693 -90.92821289 124.99187012 -90.68798828 124.13647461 C-90.23922401 122.53904578 -89.78847071 120.94217399 -89.33544922 119.34594727 C-88.21298295 115.5750839 -88.21298295 115.5750839 -87.8125 111.6875 C-88.60720703 111.36064209 -89.40191406 111.03378418 -90.22070312 110.69702148 C-97.8936451 107.53865285 -105.56058343 104.36619495 -113.22167969 101.17919922 C-115.38238235 100.28159973 -117.5441588 99.38656984 -119.70800781 98.49658203 C-121.95597762 97.57118103 -124.19769709 96.63245086 -126.4375 95.6875 C-127.62601562 95.1925 -128.81453125 94.6975 -130.0390625 94.1875 C-134.04038789 92.02340289 -135.39405336 89.94283993 -136.8125 85.6875 C-137.21367393 80.37194537 -136.72023122 77.17048755 -133.8125 72.6875 C-131.18294497 70.59100443 -128.30912763 69.00695908 -125.375 67.375 C-123.55902469 66.32572499 -121.74397302 65.27485035 -119.9296875 64.22265625 C-118.94709961 63.65820801 -117.96451172 63.09375977 -116.95214844 62.51220703 C-111.85410651 59.54931704 -106.82423712 56.47514427 -101.79074097 53.40444946 C-99.38321187 51.93639789 -96.97313771 50.47255045 -94.56315613 49.00852966 C-86.88558746 44.34400627 -79.21237559 39.67230312 -71.5402832 34.9987793 C-66.32980585 31.82547426 -61.11601396 28.65771189 -55.8984375 25.49609375 C-54.09646696 24.40387423 -52.29453832 23.31158563 -50.49264526 22.21923828 C-49.29572031 21.49368941 -48.09871999 20.76826485 -46.90164185 20.04296875 C-37.93198876 14.60690896 -28.9978032 9.11599901 -20.11865234 3.53295898 C-19.32539551 3.03739502 -18.53213867 2.54183105 -17.71484375 2.03125 C-17.02898193 1.60005859 -16.34312012 1.16886719 -15.63647461 0.72460938 C-10.6642081 -2.10261431 -5.11592333 -2.38743089 0 0 Z " fill="#FEFEFE" transform="translate(579.8125,608.3125)"/>
<path d="M0 0 C1.4752054 -0.00512655 1.4752054 -0.00512655 2.98021293 -0.01035666 C6.284771 -0.01695977 9.58852179 0.00508126 12.89300537 0.0269165 C15.25809714 0.02804445 17.6231903 0.02741215 19.98828125 0.02514648 C26.41771348 0.02399637 32.84684869 0.04755419 39.27621174 0.07544231 C45.31191561 0.0997826 51.34764351 0.10193267 57.38338825 0.10604981 C69.33847302 0.1148046 81.29344863 0.14142513 93.24847412 0.17926025 C104.8617499 0.2159756 116.47499588 0.24424381 128.08831787 0.2612915 C128.81144661 0.26236349 129.53457534 0.26343548 130.27961707 0.26453996 C136.56978403 0.27379133 142.85995183 0.28240254 149.15011978 0.29095078 C176.2360672 0.32859035 203.32172527 0.40827162 230.40765381 0.48101807 C230.40765381 40.41101807 230.40765381 80.34101807 230.40765381 121.48101807 C170.38300151 121.6422302 170.38300151 121.6422302 145.29046631 121.67633057 C139.55641637 121.68416229 133.82236686 121.69224429 128.08831787 121.70074463 C127.36962847 121.70179962 126.65093907 121.70285462 125.9104712 121.70394158 C114.30126115 121.72134828 102.69213019 121.7528887 91.08296707 121.78962925 C79.17262199 121.82700916 67.26231837 121.84924766 55.35191703 121.85737205 C48.6603944 121.86237247 41.96906237 121.87491326 35.27759552 121.90393829 C28.98380693 121.93101806 22.69027228 121.93947805 16.39643097 121.93344879 C14.08246482 121.93455236 11.76849048 121.94255016 9.45457458 121.95783997 C6.30273431 121.97765101 3.15186121 121.9729893 0 121.96203613 C-1.38326434 121.97951318 -1.38326434 121.97951318 -2.79447341 121.9973433 C-8.91308089 121.93960517 -8.91308089 121.93960517 -12.16012192 119.7474556 C-13.79765587 117.15612373 -14.09470812 115.78333758 -14.10028076 112.73699951 C-14.11156006 111.78648209 -14.12283936 110.83596466 -14.13446045 109.85664368 C-14.12636353 108.82067551 -14.1182666 107.78470734 -14.10992432 106.71734619 C-14.11693359 105.62103378 -14.12394287 104.52472137 -14.13116455 103.39518738 C-14.14878562 99.7672908 -14.13710648 96.14017274 -14.12359619 92.51226807 C-14.1262899 89.99407806 -14.13017131 87.47588907 -14.13519287 84.95770264 C-14.1410935 79.67844685 -14.13288728 74.39939397 -14.11383057 69.12017822 C-14.09206186 63.01927193 -14.09911341 56.91890033 -14.12113619 50.81800699 C-14.14148417 44.94572242 -14.13931931 39.07364089 -14.12760925 33.20133972 C-14.12493766 30.70383123 -14.12822682 28.20630913 -14.13752747 25.70881653 C-14.1476668 22.22040467 -14.132227 18.73302478 -14.10992432 15.24468994 C-14.11802124 14.20872177 -14.12611816 13.1727536 -14.13446045 12.10539246 C-14.12318115 11.15487503 -14.11190186 10.2043576 -14.10028076 9.22503662 C-14.09877266 8.40061821 -14.09726456 7.5761998 -14.09571075 6.72679901 C-12.42673898 -0.71938471 -6.26085281 -0.07910363 0 0 Z " fill="#E5EAF3" transform="translate(782.5923461914063,799.5189819335938)"/>
<path d="M0 0 C54.00606585 -0.16121214 54.00606585 -0.16121214 76.5859375 -0.1953125 C92.19504026 -0.21907437 107.80405685 -0.24705288 123.41308594 -0.30175781 C134.77956716 -0.34157498 146.14597868 -0.3674208 157.5125277 -0.37635398 C163.53335971 -0.38157738 169.55399224 -0.39388868 175.57476044 -0.42292023 C181.23820065 -0.45000831 186.90135864 -0.45845833 192.56485748 -0.45243073 C194.64661694 -0.45353392 196.72838555 -0.46152689 198.81008911 -0.4768219 C201.64667163 -0.49664628 204.48218063 -0.49196674 207.31878662 -0.48101807 C208.14758009 -0.49266943 208.97637355 -0.5043208 209.83028197 -0.51632524 C213.36044523 -0.47935031 215.56948713 -0.29724074 218.51082993 1.73356247 C220.21717504 4.33052884 220.50229226 5.65959663 220.50793457 8.74401855 C220.51921387 9.69453598 220.53049316 10.64505341 220.54211426 11.62437439 C220.53401733 12.66034256 220.52592041 13.69631073 220.51757812 14.76367188 C220.5245874 15.85998428 220.53159668 16.95629669 220.53881836 18.08583069 C220.55643943 21.71372727 220.54476029 25.34084533 220.53125 28.96875 C220.53394371 31.48694 220.53782512 34.00512899 220.54284668 36.52331543 C220.54874731 41.80257122 220.54054109 47.08162409 220.52148438 52.36083984 C220.49971567 58.46174614 220.50676722 64.56211773 220.52879 70.66301107 C220.54913798 76.53529565 220.54697312 82.40737718 220.53526306 88.27967834 C220.53259147 90.77718684 220.53588063 93.27470894 220.54518127 95.77220154 C220.55532061 99.2606134 220.53988081 102.74799328 220.51757812 106.23632812 C220.52567505 107.2722963 220.53377197 108.30826447 220.54211426 109.37562561 C220.53083496 110.32614304 220.51955566 111.27666046 220.50793457 112.25598145 C220.50642647 113.08039986 220.50491837 113.90481827 220.50336456 114.75421906 C219.7705243 118.02381494 218.76169362 119.0932327 216 121 C212.98282972 121.3841698 210.33425865 121.52341025 207.31878662 121.48101807 C206.43332161 121.48443577 205.5478566 121.48785347 204.63555932 121.49137473 C201.66263675 121.49797376 198.6906131 121.47594407 195.71777344 121.45410156 C193.58913189 121.45297352 191.46048879 121.45360609 189.33184814 121.45587158 C183.54700977 121.45702135 177.76250175 121.4334693 171.97774029 121.40557575 C165.93457899 121.38060597 159.89141049 121.37822359 153.84820557 121.37347412 C142.40182494 121.36103135 130.95559674 121.32819204 119.5092833 121.28807616 C104.04381667 121.23504852 88.57830848 121.21342351 73.1127739 121.19006729 C48.74173504 121.15243166 24.37101789 121.07274931 0 121 C0 81.07 0 41.14 0 0 Z " fill="#E5EAF3" transform="translate(27,800)"/>
<path d="M0 0 C1.42517944 -0.01546875 1.42517944 -0.01546875 2.87915039 -0.03125 C9.74794387 0.05437949 15.78636935 1.34438436 22.3125 3.4375 C23.46621094 3.80230469 24.61992188 4.16710937 25.80859375 4.54296875 C44.20600226 11.31067414 58.41998721 24.00322319 67.3125 41.4375 C72.31884277 52.56412881 74.66533215 62.64832348 74.625 74.8125 C74.64111328 75.77671875 74.65722656 76.7409375 74.67382812 77.734375 C74.67852084 84.73590294 73.45800825 90.78995257 71.3125 97.4375 C70.95929688 98.57960938 70.60609375 99.72171875 70.2421875 100.8984375 C63.63292233 119.15959238 50.55477495 133.5538923 33.3125 142.4375 C15.07493773 150.65488438 -5.71696641 152.92370825 -24.8203125 146.046875 C-42.37583546 139.03169857 -58.41613826 125.67136153 -66.6875 108.4375 C-75.2895909 87.27216522 -77.01185409 65.84768986 -68.02734375 44.390625 C-63.76688536 34.83021493 -58.17804627 27.66825854 -50.6875 20.4375 C-49.98109375 19.70015625 -49.2746875 18.9628125 -48.546875 18.203125 C-35.77037984 5.62169084 -17.49625222 0.1569045 0 0 Z " fill="#FDFEFE" transform="translate(840.6875,384.5625)"/>
<path d="M0 0 C4.81767845 1.06787796 7.75722447 4.37418193 11.0625 7.8125 C11.57876953 8.33392578 12.09503906 8.85535156 12.62695312 9.39257812 C18.82180228 15.71369173 18.82180228 15.71369173 21 19 C20.74146392 23.09698282 18.22232204 25.14596134 15.42358398 27.93286133 C14.94860977 28.40987991 14.47363556 28.8868985 13.98426819 29.37837219 C12.41203519 30.95361258 10.82931597 32.51784222 9.24609375 34.08203125 C8.14509212 35.1799724 7.0446828 36.2785078 5.94483948 37.37760925 C3.63498929 39.68285508 1.3203179 41.98310536 -0.99829102 44.27954102 C-3.95138109 47.20451509 -6.89588388 50.13793837 -9.83718967 53.07475758 C-12.66046108 55.89283358 -15.4883796 58.70622883 -18.31640625 61.51953125 C-18.84721865 62.04846292 -19.37803104 62.5773946 -19.92492867 63.12235451 C-25.15878256 68.33229128 -30.4216513 73.44006842 -36.03038025 78.25028992 C-40.09166288 81.858127 -43.86636592 85.76666232 -47.6875 89.625 C-48.58944092 90.53072754 -49.49138184 91.43645508 -50.4206543 92.36962891 C-53.28288564 95.24399569 -56.14195802 98.1214694 -59 101 C-62.76774333 104.79475338 -66.53915545 108.58581381 -70.3125 112.375 C-71.59096802 113.66591553 -71.59096802 113.66591553 -72.89526367 114.98291016 C-77.16688231 119.27185359 -81.51109994 123.37685366 -86.10122681 127.32162476 C-89.34987999 130.1931942 -92.35791188 133.29466286 -95.38671875 136.39453125 C-96.75036572 137.77567239 -98.11430648 139.15652351 -99.47851562 140.53710938 C-101.59486795 142.68453738 -103.70876489 144.83422797 -105.81762695 146.98901367 C-107.87558849 149.08928 -109.94286513 151.1800009 -112.01171875 153.26953125 C-112.63890305 153.91533646 -113.26608734 154.56114166 -113.91227722 155.22651672 C-117.06794956 158.40052651 -119.57027196 160.75615375 -124 162 C-128.72094409 158.56658612 -132.24470132 154.4142623 -136 150 C-137.31032865 148.49810284 -138.622745 146.99802388 -139.9375 145.5 C-140.95833333 144.33333333 -141.97916667 143.16666667 -143 142 C-141.57147678 137.30136337 -138.83475879 134.44739864 -135.375 131.125 C-134.87871094 130.63386719 -134.38242187 130.14273438 -133.87109375 129.63671875 C-131.12224434 126.94382556 -128.29407544 124.37908397 -125.36962891 121.87841797 C-120.61696833 117.73014826 -116.18619841 113.29422735 -111.75 108.8125 C-110.89245117 107.95116455 -110.03490234 107.0898291 -109.15136719 106.20239258 C-106.43179111 103.4706888 -103.715488 100.73576725 -101 98 C-97.41961974 94.39288149 -93.83584819 90.78918198 -90.25 87.1875 C-89.03715332 85.96220581 -89.03715332 85.96220581 -87.79980469 84.7121582 C-83.66750515 80.56223233 -79.4531489 76.60886321 -75.01489258 72.79003906 C-71.16859626 69.3729732 -67.58630781 65.68696731 -63.96875 62.03125 C-63.13339722 61.1921106 -62.29804443 60.35297119 -61.43737793 59.48840332 C-58.78912914 56.828031 -56.14415594 54.16443987 -53.5 51.5 C-50.01337399 47.98662727 -46.52335074 44.47668029 -43.03125 40.96875 C-42.24455933 40.17376099 -41.45786865 39.37877197 -40.64733887 38.55969238 C-36.50286391 34.39706999 -32.27086554 30.42526882 -27.81887817 26.59402466 C-25.18893906 24.28920411 -22.75031392 21.8443999 -20.29296875 19.35546875 C-19.80089432 18.8596077 -19.30881989 18.36374664 -18.80183411 17.8528595 C-17.26120024 16.30021301 -15.72393483 14.74430102 -14.1875 13.1875 C-12.14223185 11.11558341 -10.09362044 9.04705557 -8.04296875 6.98046875 C-6.69755005 5.61764771 -6.69755005 5.61764771 -5.32495117 4.22729492 C-3 2 -3 2 0 0 Z " fill="#E5EAF3" transform="translate(850,644)"/>
<path d="M0 0 C4.42348823 1.40823665 6.71074423 3.90737429 9.86474609 7.21923828 C10.48096832 7.84490692 11.09719055 8.47057556 11.73208618 9.11520386 C13.69732964 11.11494872 15.64474071 13.13101267 17.59130859 15.14892578 C19.53401087 17.14193708 21.48030403 19.13133263 23.42910767 21.11837769 C24.63782183 22.35304674 25.84253984 23.59164668 27.04232788 24.83499146 C29.95253669 27.82936625 32.9183746 30.6760115 36.08398438 33.40039062 C40.69575577 37.37999951 44.96472088 41.66466091 49.24755859 45.99267578 C50.08291138 46.83181519 50.91826416 47.67095459 51.77893066 48.53552246 C55.31966989 52.09247098 58.85438183 55.65538698 62.38964844 59.21777344 C64.98602919 61.83232743 67.58547425 64.44380763 70.18505859 67.05517578 C70.97174927 67.85016479 71.75843994 68.64515381 72.56896973 69.4642334 C76.02202035 72.93240391 79.49204828 76.31753955 83.20263672 79.51025391 C87.85553825 83.5158102 92.14916233 87.84997242 96.46630859 92.21142578 C97.75263184 93.50342896 97.75263184 93.50342896 99.06494141 94.8215332 C102.70125798 98.47406561 106.3315523 102.13256213 109.96240234 105.79052734 C112.62828456 108.47457734 115.29722669 111.15555819 117.96630859 113.83642578 C118.77487305 114.65328857 119.5834375 115.47015137 120.41650391 116.31176758 C124.65642492 120.56977398 128.96792513 124.6609378 133.54431152 128.55665588 C135.79550928 130.53220642 137.76308859 132.69429542 139.71630859 134.96142578 C140.38662109 135.73357422 141.05693359 136.50572266 141.74755859 137.30126953 C142.23224609 137.86974609 142.71693359 138.43822266 143.21630859 139.02392578 C141.7833927 143.65785847 139.38244672 146.14283325 135.90380859 149.46142578 C132.09219488 153.14890292 128.49029051 156.84677644 125.21630859 161.02392578 C121.0992827 160.50925226 119.17953992 159.47917404 116.28735352 156.53320312 C115.18546944 155.42602432 115.18546944 155.42602432 114.06132507 154.29647827 C113.28102432 153.49239532 112.50072357 152.68831238 111.69677734 151.85986328 C110.87937576 151.03443024 110.06197418 150.20899719 109.21980286 149.35855103 C106.60487149 146.71461526 104.00389499 144.0574546 101.40380859 141.39892578 C98.81196271 138.764385 96.21726301 136.13272076 93.61994934 133.50357056 C92.00559219 131.86775814 90.39477306 130.22844376 88.78813171 128.58505249 C85.37831602 125.11572315 81.9544213 121.7370383 78.2644043 118.56542969 C73.44160695 114.41942039 69.00197841 109.91564759 64.52880859 105.39892578 C63.62686768 104.49319824 62.72492676 103.5874707 61.7956543 102.65429688 C58.45025415 99.29471272 55.10942467 95.93061316 51.7689209 92.56616211 C48.4833906 89.25758228 45.19397069 85.95290097 41.90380859 82.64892578 C41.05149658 81.78831543 40.19918457 80.92770508 39.32104492 80.04101562 C35.10764092 75.81052294 30.82498009 71.7638463 26.29855347 67.87240601 C21.98268798 64.04106412 17.93424542 59.92605785 13.84521484 55.85595703 C13.36836683 55.3819364 12.89151882 54.90791576 12.40022087 54.41953087 C9.88710894 51.92127103 7.37677545 49.42026061 4.86889648 46.91674805 C2.28430646 44.33768831 -0.30947075 41.7680734 -2.90539455 39.20042896 C-4.91011203 37.21431358 -6.90811091 35.22154282 -8.90431404 33.2268734 C-10.32050588 31.81516732 -11.7437536 30.41055098 -13.167099 29.00605774 C-14.02211502 28.14804062 -14.87713104 27.2900235 -15.75805664 26.40600586 C-16.51336166 25.65434647 -17.26866669 24.90268707 -18.04685974 24.12825012 C-19.81851639 21.98173225 -20.60967508 20.79296535 -20.78369141 18.02392578 C-19.18485171 15.84974604 -17.65858914 14.05728783 -15.78369141 12.14892578 C-15.27620361 11.61952393 -14.76871582 11.09012207 -14.24584961 10.54467773 C-12.7727455 9.0228837 -11.28078692 7.52206493 -9.78369141 6.02392578 C-9.09662109 5.31365234 -8.40955078 4.60337891 -7.70166016 3.87158203 C-5.16340448 1.4364609 -3.5934535 0.03088567 0 0 Z " fill="#E5EAF3" transform="translate(184.78369140625,632.97607421875)"/>
<path d="M0 0 C9.39578309 5.92999508 16.32918047 13.69228154 19.30859375 24.45703125 C20.25950899 35.02767047 19.91160168 44.4477913 13.25 53.14453125 C6.42017018 61.06851593 -0.73119045 66.85020571 -11.41015625 67.78125 C-22.61523254 68.23699082 -30.44991965 66.50874136 -39.06640625 59.08203125 C-46.44025128 52.00821748 -50.67958931 45.00022617 -51.09887695 34.69140625 C-51.26887227 22.75027181 -48.34042386 15.31476806 -40.0625 6.65625 C-29.4918078 -3.14819763 -13.32134685 -6.35740499 0 0 Z " fill="#FCFDFE" transform="translate(122.69140625,532.54296875)"/>
<path d="M0 0 C6.57845527 4.6465294 11.6191931 10.93380365 13.59375 18.83203125 C14.91994698 29.11870693 13.62248358 37.29668136 7.59375 45.83203125 C2.07962703 52.21315469 -4.51253626 56.20111524 -12.890625 57.28125 C-23.01379898 57.74608962 -30.82188816 55.65764828 -38.5625 48.96875 C-44.87936899 42.29053469 -47.61016165 35.68989977 -48.03125 26.51953125 C-47.74502028 17.00716371 -44.54235772 9.4046622 -37.59375 2.83203125 C-26.17601913 -5.9458859 -12.75643661 -7.32123445 0 0 Z " fill="#FCFDFD" transform="translate(108.40625,690.16796875)"/>
<path d="M0 0 C4.90436413 2.79131362 8.50753462 5.64162834 11.5 10.4375 C11.90992188 11.08203125 12.31984375 11.7265625 12.7421875 12.390625 C16.31933273 19.05151612 16.55748044 26.05128165 15.5 33.4375 C13.01688537 40.97458645 9.29788029 47.19584742 2.5 51.4375 C1.85546875 51.84742188 1.2109375 52.25734375 0.546875 52.6796875 C-6.69753153 56.57020212 -15.2693394 56.80871883 -23.15234375 54.7421875 C-25.43563274 53.81325967 -27.42147255 52.75944346 -29.5 51.4375 C-30.43585937 50.85355469 -30.43585937 50.85355469 -31.390625 50.2578125 C-37.10989417 46.05539298 -40.30945249 40.08654705 -42.5 33.4375 C-43.88285178 23.77864981 -42.55325956 16.17363189 -36.95703125 8.25390625 C-27.949567 -2.979659 -13.12493372 -6.1764394 0 0 Z " fill="#FCFDFD" transform="translate(941.5,577.5625)"/>
<path d="M0 0 C5.30146589 3.81282963 9.70858872 9.06003764 11.15625 15.55078125 C12.18580794 24.27914471 11.35438004 31.32315459 6.15625 38.55078125 C1.49262544 43.77935795 -3.83696366 47.07815901 -10.82421875 47.90234375 C-19.47052111 48.28752486 -26.1380294 46.74804475 -32.6875 40.90625 C-38.88966533 34.17203617 -40.49279551 27.87608957 -40.25390625 18.83984375 C-39.40758289 12.05313646 -36.48276019 6.73115068 -31.46875 2.11328125 C-21.95040831 -5.06615169 -10.50641764 -6.05483484 0 0 Z " fill="#FCFCFD" transform="translate(958.84375,693.44921875)"/>
</svg>
