<?xml version="1.0" encoding="UTF-8"?>
<svg version="1.1" xmlns="http://www.w3.org/2000/svg" width="1040" height="1040">
<path d="M0 0 C325.05 0 650.1 0 985 0 C985.58268248 62.92970759 986.16084423 125.83028093 986.11921513 188.75809431 C986.11275272 200.46480356 986.11286363 212.17150878 986.11368043 223.87821946 C986.11489863 243.53488298 986.11173164 263.19154307 986.10557556 282.84820557 C986.09726696 309.42631144 986.09546392 336.00441152 986.09460449 362.58251953 C986.08939477 426.30501371 986.07543358 490.02750692 986.0625 553.75 C986.041875 696.3925 986.02125 839.035 986 986 C660.62 986 335.24 986 0 986 C0 660.62 0 335.24 0 0 Z " fill="#CC8816" transform="translate(27,27)"/>
<path d="M0 0 C1.33461212 0.1278476 2.66924743 0.25545333 4.00390625 0.3828125 C5.26074219 0.51171875 6.51757812 0.640625 7.8125 0.7734375 C8.95332031 0.88864746 10.09414063 1.00385742 11.26953125 1.12255859 C14 1.625 14 1.625 16 3.625 C16.59332 13.30229511 15.16085439 23.00019715 14.13671875 32.61328125 C13.94167021 34.48002981 13.74708415 36.34682674 13.55293274 38.21366882 C13.0407579 43.12665356 12.52246333 48.03897353 12.00280762 52.95117188 C11.48592684 57.84663118 10.97455177 62.74266474 10.46289062 67.63867188 C9.86617054 73.34695493 9.2684386 79.05512194 8.66525269 84.76272583 C7.7920656 93.02914795 6.92609593 101.29580471 6.10791016 109.56787109 C5.97353098 110.91424813 5.83907831 112.26061782 5.70454407 113.60697937 C5.4663845 116.00351067 5.23240232 118.40046317 5.00382996 120.79792786 C3.35959018 137.26540982 3.35959018 137.26540982 0 140.625 C-7.61104985 141.57987716 -15.68193341 140.16686602 -23.25244141 139.33984375 C-24.54137299 139.20329376 -25.83030457 139.06674377 -27.15829468 138.92605591 C-30.6622366 138.55472769 -34.16545847 138.17697578 -37.66857958 137.79799271 C-41.34101691 137.40182277 -45.01409316 137.01166683 -48.68710327 136.62084961 C-55.6287553 135.8813287 -62.56982315 135.13646663 -69.51069295 134.38964367 C-77.41843091 133.53905389 -85.32680798 132.69448169 -93.23524213 131.8503933 C-109.49087758 130.11525047 -125.74570122 128.37262095 -142 126.625 C-142.05589546 127.47305017 -142.11179092 128.32110035 -142.16938019 129.19484901 C-142.75028091 137.69680682 -143.51239203 146.16370045 -144.40429688 154.63818359 C-144.54489054 155.98985301 -144.68528896 157.34154274 -144.82551193 158.69325066 C-145.20689708 162.36393345 -145.59112404 166.03431366 -145.97591877 169.70464039 C-146.39173009 173.6752256 -146.80501119 177.64607437 -147.21868896 181.61688232 C-148.0274365 189.3754182 -148.83884857 197.13367326 -149.65124726 204.89182758 C-150.31316505 211.21341035 -150.97397985 217.53510761 -151.63415527 223.85687256 C-155.96663069 265.34050436 -160.32849912 306.82097248 -164.734375 348.296875 C-164.83009293 349.19795439 -164.92581085 350.09903378 -165.02442932 351.02741861 C-166.96389112 369.28360084 -168.9067903 387.53941527 -170.85508728 405.79465675 C-171.45374208 411.4040623 -172.05181128 417.01353025 -172.64972973 422.62301433 C-173.05762245 426.44925487 -173.46589676 430.27545389 -173.87506104 434.10155869 C-175.46984987 449.01612751 -177.04553842 463.93149338 -178.52148438 478.85839844 C-178.6960573 480.61421014 -178.6960573 480.61421014 -178.87415695 482.40549278 C-179.40630367 487.76197883 -179.93148748 493.1189271 -180.44146729 498.47756958 C-180.62183723 500.31173349 -180.80246331 502.14587223 -180.98339844 503.97998047 C-181.057799 504.79424877 -181.13219955 505.60851707 -181.20885468 506.44746017 C-182.14644491 515.77144491 -182.14644491 515.77144491 -185 518.625 C-194.79971154 518.56867982 -204.64672999 517.32317592 -214.375 516.25 C-215.48681641 516.13624023 -216.59863281 516.02248047 -217.74414062 515.90527344 C-218.78505859 515.78442383 -219.82597656 515.66357422 -220.8984375 515.5390625 C-221.83349121 515.4354541 -222.76854492 515.3318457 -223.73193359 515.22509766 C-226 514.625 -226 514.625 -228 511.625 C-228.96836275 503.73557933 -227.48080381 495.39239134 -226.62304688 487.54980469 C-226.47480491 486.15911681 -226.32703697 484.76837833 -226.17970276 483.37759399 C-225.86353524 480.40248395 -225.54410447 477.42774965 -225.22206116 474.45326996 C-224.71254628 469.74670492 -224.21069019 465.03934186 -223.70983887 460.33184814 C-222.82681748 452.04148163 -221.93741701 443.751809 -221.04656982 435.46228027 C-219.70418222 422.97059602 -218.36678668 410.47837884 -217.03549433 397.98550725 C-216.53686266 393.30862704 -216.03486866 388.63212369 -215.53017426 383.95589399 C-215.21685252 381.04737436 -214.90611091 378.13858311 -214.59602165 375.22971725 C-214.38347492 373.24356053 -214.16774748 371.25774499 -213.95191956 369.27194214 C-213.82570724 368.08333588 -213.69949493 366.89472961 -213.56945801 365.67010498 C-213.45884285 364.64146709 -213.34822769 363.61282921 -213.23426056 362.55302048 C-212.9968375 359.58547191 -213 356.6020311 -213 353.625 C-237.42 350.985 -261.84 348.345 -287 345.625 C-287.33 351.235 -287.66 356.845 -288 362.625 C-288.42005903 367.33243173 -288.86247232 372.02888629 -289.35107422 376.72875977 C-289.48295135 378.02537033 -289.61482849 379.3219809 -289.7507019 380.65788269 C-290.1066084 384.15355941 -290.46730991 387.64872315 -290.82960653 391.1437428 C-291.05665041 393.33535385 -291.28276711 395.52705873 -291.50860977 397.71879387 C-292.29888019 405.38596942 -293.09367068 413.0526631 -293.89208984 420.71899414 C-294.63319124 427.83636382 -295.36327529 434.95480864 -296.08857334 442.07380444 C-296.71543329 448.2210894 -297.35055903 454.36748538 -297.99194348 460.51327175 C-298.37330747 464.16918423 -298.75127799 467.82536828 -299.12063217 471.48251534 C-299.5318698 475.551576 -299.96025025 479.61865827 -300.39013672 483.68579102 C-300.50869019 484.88332001 -300.62724365 486.080849 -300.74938965 487.31466675 C-302.33316064 501.95816064 -302.33316064 501.95816064 -306 505.625 C-314.01571559 505.95252386 -321.90854273 505.07521071 -329.875 504.25 C-331.20570888 504.12218447 -332.53643794 503.99457884 -333.8671875 503.8671875 C-335.1253125 503.73828125 -336.3834375 503.609375 -337.6796875 503.4765625 C-338.82163574 503.36135254 -339.96358398 503.24614258 -341.14013672 503.12744141 C-344 502.625 -344 502.625 -347 500.625 C-348.25760217 491.44088928 -346.5619105 481.62115226 -345.57324219 472.45727539 C-345.41752199 470.96676746 -345.26239577 469.47619738 -345.10780525 467.98557186 C-344.684633 463.92165855 -344.25313176 459.85866781 -343.82018423 455.7957859 C-343.35258039 451.39342701 -342.89286505 446.99024334 -342.43215942 442.5871582 C-341.63250413 434.95494459 -340.8279322 427.32326235 -340.0199585 419.69192505 C-338.84878813 408.6301736 -337.68490432 397.56766504 -336.52280784 386.50495708 C-334.73796135 369.51546099 -332.94828655 352.526478 -331.15507531 335.5378629 C-328.5538137 310.89387816 -325.96329362 286.24877661 -323.37724733 261.60319096 C-321.43346906 243.0786779 -319.48751596 224.55439317 -317.54133606 206.03013229 C-317.09606183 201.79187149 -316.65086663 197.5536024 -316.20573425 193.31532669 C-315.03476258 182.16660136 -313.86295282 171.01796513 -312.6887697 159.86957753 C-312.2022577 155.25025725 -311.71614902 150.63089554 -311.23117447 146.01141357 C-310.78661317 141.77704356 -310.3408353 137.54280345 -309.89408159 133.3086642 C-309.73255743 131.77582121 -309.57147074 130.24293205 -309.41086531 128.70999253 C-309.19234347 126.62493756 -308.97221034 124.54005865 -308.75167847 122.45521545 C-308.56884717 120.71778375 -308.56884717 120.71778375 -308.38232231 118.94525242 C-307.98496467 115.49442669 -307.50656651 112.06134949 -307 108.625 C-307.5911752 108.58472718 -308.18235041 108.54445436 -308.79144001 108.50296116 C-328.55148369 107.12985432 -348.22338297 105.12180174 -367.9163053 103.02234912 C-372.33690335 102.55182141 -376.75793481 102.08539838 -381.1789093 101.61842346 C-388.57404574 100.83671787 -395.96888637 100.05226557 -403.36352539 99.26586914 C-412.84090865 98.25799492 -422.31878467 97.25483261 -431.79681683 96.25308132 C-439.99367738 95.38669697 -448.1903069 94.5181343 -456.38690209 93.64924359 C-459.0039258 93.37191956 -461.62098182 93.09490202 -464.23804283 92.81793022 C-468.3432435 92.38332744 -472.44829715 91.9473603 -476.55324173 91.51034546 C-478.05479277 91.35068102 -479.55638924 91.19144308 -481.0580349 91.03267097 C-483.11248309 90.81536666 -485.16675613 90.59647345 -487.22099304 90.37718201 C-488.36804057 90.25533759 -489.5150881 90.13349318 -490.69689465 90.0079565 C-491.78691941 89.88158086 -492.87694418 89.75520521 -494 89.625 C-495.88035053 89.44704187 -495.88035053 89.44704187 -497.79868793 89.26548862 C-501 88.625 -501 88.625 -503 85.625 C-503.40856906 78.3364198 -502.46574008 71.27944955 -501.5 64.0625 C-501.35691406 62.95841797 -501.21382813 61.85433594 -501.06640625 60.71679688 C-500.7160201 58.0188235 -500.36044731 55.3216444 -500 52.625 C-490.951461 49.60882033 -479.73334763 51.88395069 -470.42333984 52.91577148 C-469.11938483 53.05462076 -467.81542982 53.19347004 -466.47196102 53.33652687 C-463.63293403 53.63892471 -460.79442062 53.94564791 -457.95623207 54.25581551 C-453.3338706 54.76094057 -448.71048306 55.25623397 -444.08695984 55.75059509 C-437.36913966 56.46988739 -430.65182863 57.19377652 -423.93484497 57.9208374 C-413.28991525 59.0729002 -402.64400123 60.21568464 -391.99780273 61.35595703 C-390.64994479 61.50032393 -390.64994479 61.50032393 -389.2748574 61.64760733 C-384.67912127 62.13980439 -380.08336811 62.63184224 -375.48760414 63.1237793 C-371.74104433 63.52485794 -367.99452419 63.92630434 -364.24803734 64.32806396 C-335.50741936 67.40997727 -306.76190329 70.44226594 -278.01171875 73.43359375 C-277.08016433 73.53054275 -276.14860991 73.62749176 -275.18882656 73.72737861 C-257.06144019 75.61388123 -238.93355964 77.49560973 -220.8052997 79.37369829 C-214.06473463 80.07211409 -207.32430959 80.77187186 -200.5839749 81.47250742 C-196.7091509 81.87519071 -192.83425409 82.27713697 -188.95914268 82.67704582 C-173.95451203 84.22567669 -158.95795702 85.81113933 -143.98647404 87.65810204 C-136.00263664 88.64301994 -128.01432353 89.42637776 -120 90.125 C-110.68860395 90.96069562 -101.40097098 91.88867666 -92.125 93.0625 C-73.80232887 95.37653038 -55.387787 96.92600846 -37 98.625 C-36.93710533 97.71212471 -36.93710533 97.71212471 -36.87294006 96.7808075 C-35.55764807 78.02112633 -33.69502289 59.34655089 -31.67602539 40.65264893 C-31.35359729 37.65830829 -31.03504306 34.66356066 -30.71656704 31.66879749 C-30.33217588 28.05637063 -29.94541972 24.44419804 -29.55859375 20.83203125 C-29.48677824 20.15926462 -29.41496273 19.48649799 -29.34097099 18.7933445 C-29.13675071 16.88397984 -28.93059479 14.97482251 -28.72436523 13.06567383 C-28.60826401 11.98715652 -28.49216278 10.90863922 -28.37254333 9.79743958 C-28.24960403 8.75053452 -28.12666473 7.70362946 -28 6.625 C-27.86130997 5.3577861 -27.72261993 4.0905722 -27.57972717 2.78495789 C-27.38841721 1.74217178 -27.19710724 0.69938568 -27 -0.375 C-19.75256189 -3.99871906 -7.69634617 -0.79962038 0 0 Z " fill="#FEFDFD" transform="translate(776,212.375)"/>
<path d="M0 0 C1.4752054 -0.00512655 1.4752054 -0.00512655 2.98021293 -0.01035666 C6.284771 -0.01695977 9.58852179 0.00508126 12.89300537 0.0269165 C15.25809714 0.02804445 17.6231903 0.02741215 19.98828125 0.02514648 C26.41771348 0.02399637 32.84684869 0.04755419 39.27621174 0.07544231 C45.31191561 0.0997826 51.34764351 0.10193267 57.38338825 0.10604981 C69.33847302 0.1148046 81.29344863 0.14142513 93.24847412 0.17926025 C104.8617499 0.2159756 116.47499588 0.24424381 128.08831787 0.2612915 C128.81144661 0.26236349 129.53457534 0.26343548 130.27961707 0.26453996 C136.56978403 0.27379133 142.85995183 0.28240254 149.15011978 0.29095078 C176.2360672 0.32859035 203.32172527 0.40827162 230.40765381 0.48101807 C230.40765381 40.41101807 230.40765381 80.34101807 230.40765381 121.48101807 C170.38300151 121.6422302 170.38300151 121.6422302 145.29046631 121.67633057 C139.55641637 121.68416229 133.82236686 121.69224429 128.08831787 121.70074463 C127.36962847 121.70179962 126.65093907 121.70285462 125.9104712 121.70394158 C114.30126115 121.72134828 102.69213019 121.7528887 91.08296707 121.78962925 C79.17262199 121.82700916 67.26231837 121.84924766 55.35191703 121.85737205 C48.6603944 121.86237247 41.96906237 121.87491326 35.27759552 121.90393829 C28.98380693 121.93101806 22.69027228 121.93947805 16.39643097 121.93344879 C14.08246482 121.93455236 11.76849048 121.94255016 9.45457458 121.95783997 C6.30273431 121.97765101 3.15186121 121.9729893 0 121.96203613 C-1.38326434 121.97951318 -1.38326434 121.97951318 -2.79447341 121.9973433 C-8.91308089 121.93960517 -8.91308089 121.93960517 -12.16012192 119.7474556 C-13.79765587 117.15612373 -14.09470812 115.78333758 -14.10028076 112.73699951 C-14.11156006 111.78648209 -14.12283936 110.83596466 -14.13446045 109.85664368 C-14.12636353 108.82067551 -14.1182666 107.78470734 -14.10992432 106.71734619 C-14.11693359 105.62103378 -14.12394287 104.52472137 -14.13116455 103.39518738 C-14.14878562 99.7672908 -14.13710648 96.14017274 -14.12359619 92.51226807 C-14.1262899 89.99407806 -14.13017131 87.47588907 -14.13519287 84.95770264 C-14.1410935 79.67844685 -14.13288728 74.39939397 -14.11383057 69.12017822 C-14.09206186 63.01927193 -14.09911341 56.91890033 -14.12113619 50.81800699 C-14.14148417 44.94572242 -14.13931931 39.07364089 -14.12760925 33.20133972 C-14.12493766 30.70383123 -14.12822682 28.20630913 -14.13752747 25.70881653 C-14.1476668 22.22040467 -14.132227 18.73302478 -14.10992432 15.24468994 C-14.11802124 14.20872177 -14.12611816 13.1727536 -14.13446045 12.10539246 C-14.12318115 11.15487503 -14.11190186 10.2043576 -14.10028076 9.22503662 C-14.09877266 8.40061821 -14.09726456 7.5761998 -14.09571075 6.72679901 C-12.42673898 -0.71938471 -6.26085281 -0.07910363 0 0 Z " fill="#FEFEFE" transform="translate(782.5923461914063,799.5189819335938)"/>
<path d="M0 0 C54.00606585 -0.16121214 54.00606585 -0.16121214 76.5859375 -0.1953125 C92.19504026 -0.21907437 107.80405685 -0.24705288 123.41308594 -0.30175781 C134.77956716 -0.34157498 146.14597868 -0.3674208 157.5125277 -0.37635398 C163.53335971 -0.38157738 169.55399224 -0.39388868 175.57476044 -0.42292023 C181.23820065 -0.45000831 186.90135864 -0.45845833 192.56485748 -0.45243073 C194.64661694 -0.45353392 196.72838555 -0.46152689 198.81008911 -0.4768219 C201.64667163 -0.49664628 204.48218063 -0.49196674 207.31878662 -0.48101807 C208.14758009 -0.49266943 208.97637355 -0.5043208 209.83028197 -0.51632524 C213.36044523 -0.47935031 215.56948713 -0.29724074 218.51082993 1.73356247 C220.21717504 4.33052884 220.50229226 5.65959663 220.50793457 8.74401855 C220.51921387 9.69453598 220.53049316 10.64505341 220.54211426 11.62437439 C220.53401733 12.66034256 220.52592041 13.69631073 220.51757812 14.76367188 C220.5245874 15.85998428 220.53159668 16.95629669 220.53881836 18.08583069 C220.55643943 21.71372727 220.54476029 25.34084533 220.53125 28.96875 C220.53394371 31.48694 220.53782512 34.00512899 220.54284668 36.52331543 C220.54874731 41.80257122 220.54054109 47.08162409 220.52148438 52.36083984 C220.49971567 58.46174614 220.50676722 64.56211773 220.52879 70.66301107 C220.54913798 76.53529565 220.54697312 82.40737718 220.53526306 88.27967834 C220.53259147 90.77718684 220.53588063 93.27470894 220.54518127 95.77220154 C220.55532061 99.2606134 220.53988081 102.74799328 220.51757812 106.23632812 C220.52567505 107.2722963 220.53377197 108.30826447 220.54211426 109.37562561 C220.53083496 110.32614304 220.51955566 111.27666046 220.50793457 112.25598145 C220.50642647 113.08039986 220.50491837 113.90481827 220.50336456 114.75421906 C219.7705243 118.02381494 218.76169362 119.0932327 216 121 C212.98282972 121.3841698 210.33425865 121.52341025 207.31878662 121.48101807 C206.43332161 121.48443577 205.5478566 121.48785347 204.63555932 121.49137473 C201.66263675 121.49797376 198.6906131 121.47594407 195.71777344 121.45410156 C193.58913189 121.45297352 191.46048879 121.45360609 189.33184814 121.45587158 C183.54700977 121.45702135 177.76250175 121.4334693 171.97774029 121.40557575 C165.93457899 121.38060597 159.89141049 121.37822359 153.84820557 121.37347412 C142.40182494 121.36103135 130.95559674 121.32819204 119.5092833 121.28807616 C104.04381667 121.23504852 88.57830848 121.21342351 73.1127739 121.19006729 C48.74173504 121.15243166 24.37101789 121.07274931 0 121 C0 81.07 0 41.14 0 0 Z " fill="#FEFEFE" transform="translate(27,800)"/>
<path d="M0 0 C0.89832047 -0.00525696 1.79664093 -0.01051392 2.72218323 -0.01593018 C5.68020208 -0.02909229 8.63767916 -0.02040545 11.59570312 -0.01025391 C13.65783796 -0.01227573 15.7199721 -0.01518807 17.78210449 -0.01895142 C22.09943463 -0.02336964 26.41657829 -0.01695976 30.73388672 -0.00292969 C36.26206049 0.01416178 41.78979727 0.00431793 47.31795502 -0.01364708 C51.57480143 -0.02449839 55.83154461 -0.02103236 60.08839417 -0.0132637 C62.12651115 -0.01126543 64.16463757 -0.01370785 66.20274353 -0.02070236 C69.05338294 -0.02833891 71.90331908 -0.01668159 74.75390625 0 C75.59252701 -0.00607269 76.43114777 -0.01214539 77.29518127 -0.0184021 C82.18111403 0.03444634 85.7591939 0.4764548 89.87695312 3.38818359 C92.78467108 7.70932269 93.24619958 11.16998639 93.2175293 16.31152344 C93.21796738 16.9756424 93.21840546 17.63976135 93.21885681 18.32400513 C93.21678188 20.49935239 93.19351398 22.67391 93.16992188 24.84912109 C93.16432127 26.3651182 93.16005337 27.88112075 93.15705872 29.39712524 C93.14564641 33.37236728 93.11621089 37.34727647 93.08294678 41.3223877 C93.05216753 45.38463845 93.03853666 49.4469434 93.0234375 53.50927734 C92.99133725 61.46906489 92.94018525 69.42858275 92.87695312 77.38818359 C93.9360791 77.37247314 94.99520508 77.3567627 96.08642578 77.34057617 C100.03361338 77.28608237 103.98076802 77.25176313 107.92822266 77.22338867 C109.63335776 77.20834622 111.33845445 77.18790706 113.04345703 77.16186523 C115.50107324 77.12528075 117.95817581 77.10841187 120.41601562 77.09521484 C121.17250397 77.07973099 121.92899231 77.06424713 122.70840454 77.04829407 C127.48838127 77.04679036 130.74410156 77.73101732 134.87695312 80.38818359 C137.3799969 84.14274926 137.32975387 85.93564294 136.87695312 90.38818359 C134.12516467 95.1420523 130.72061253 98.80033537 126.82617188 102.59912109 C126.24914017 103.17095123 125.67210846 103.74278137 125.07759094 104.3319397 C123.24461984 106.14722971 121.40508152 107.95566089 119.56445312 109.76318359 C117.73538982 111.56439069 115.90790744 113.36713115 114.08345032 115.17300415 C112.95316718 116.29128419 111.82022761 117.40688901 110.68400574 118.51913452 C107.89659788 121.27200699 105.24948951 124.08235374 102.70288086 127.06005859 C98.32928681 132.11435231 93.58618415 136.79129914 88.84467697 141.49562454 C87.17684611 143.15051085 85.51231803 144.80865929 83.84854126 146.46762085 C80.31917264 149.98565431 76.78586234 153.49971202 73.25195312 157.01318359 C69.14546165 161.0959776 65.0406551 165.18043719 60.94005203 169.26914597 C59.30863824 170.89412952 57.67421888 172.51604676 56.03964233 174.1378479 C55.03132467 175.1425302 54.02314872 176.14735477 53.01513672 177.15234375 C52.14134369 178.02089996 51.26755066 178.88945618 50.36727905 179.78433228 C48.54115157 181.69370663 46.86681413 183.58383691 45.20425415 185.62557983 C42.74069401 188.54992887 41.57844294 189.5950072 37.87695312 190.38818359 C32.95743252 190.29873776 30.01854265 189.29534735 26.37463379 185.94396973 C24.81632777 184.32520616 23.365137 182.64857406 21.9140625 180.93310547 C17.47946705 175.83734793 12.69851502 171.09676385 7.9058075 166.34187317 C6.24582253 164.69484477 4.58915077 163.04454407 2.93322754 161.39343262 C-0.58270339 157.88883721 -4.10256641 154.38820804 -7.62304688 150.88818359 C-11.70797272 146.82699352 -15.7911958 142.76412065 -19.87019348 138.69697571 C-21.48931458 137.08425777 -23.11145471 135.47462141 -24.73376465 133.8651123 C-29.54420522 129.07828566 -34.23650466 124.24649366 -38.65039062 119.08569336 C-40.75451775 116.66029616 -43.00917412 114.40737531 -45.29492188 112.15380859 C-46.20628906 111.25017578 -47.11765625 110.34654297 -48.05664062 109.41552734 C-49.47402268 108.01780384 -50.89140854 106.62008415 -52.30908203 105.22265625 C-53.70224045 103.84760936 -55.09237037 102.46949622 -56.48242188 101.09130859 C-57.30194336 100.28338867 -58.12146484 99.47546875 -58.96582031 98.64306641 C-63.99973294 93.38127181 -63.99973294 93.38127181 -64.41601562 90.02880859 C-64.38121094 89.23990234 -64.34640625 88.45099609 -64.31054688 87.63818359 C-64.28347656 86.83896484 -64.25640625 86.03974609 -64.22851562 85.21630859 C-64.17630859 84.31138672 -64.17630859 84.31138672 -64.12304688 83.38818359 C-63.46304687 83.38818359 -62.80304688 83.38818359 -62.12304688 83.38818359 C-61.89617187 82.76943359 -61.66929687 82.15068359 -61.43554688 81.51318359 C-59.65252555 78.62638716 -58.37495472 78.35615087 -55.12304688 77.38818359 C-52.22732488 77.22232651 -49.43314486 77.15476858 -46.54101562 77.19287109 C-45.7268367 77.19570099 -44.91265778 77.19853088 -44.07380676 77.20144653 C-41.48590088 77.21259775 -38.8983473 77.23769276 -36.31054688 77.26318359 C-34.55078627 77.27321994 -32.7910202 77.28234465 -31.03125 77.29052734 C-26.72838089 77.31252049 -22.42577352 77.34701524 -18.12304688 77.38818359 C-18.12970871 76.54959808 -18.13637054 75.71101257 -18.14323425 74.84701538 C-18.20342615 66.93162986 -18.2490623 59.01632157 -18.27848339 51.10075951 C-18.29411775 47.03159165 -18.31531496 42.96261342 -18.34936523 38.89355469 C-18.3820387 34.96429208 -18.39991666 31.03521152 -18.4076786 27.10582352 C-18.41320783 25.60914877 -18.42400512 24.11248362 -18.44023705 22.61588669 C-18.4621183 20.51421582 -18.46500946 18.41329047 -18.46362305 16.31152344 C-18.47028488 15.11683441 -18.47694672 13.92214539 -18.48381042 12.69125366 C-18.06571928 8.86330501 -17.27419619 6.58499139 -15.12304688 3.38818359 C-10.25944335 -0.0509428 -5.72975248 -0.04149078 0 0 Z " fill="#FEFEFE" transform="translate(482.123046875,777.61181640625)"/>
<path d="M0 0 C2.22727825 1.66162028 4.28433689 3.407996 6.33984375 5.27734375 C7.55027344 6.33308594 7.55027344 6.33308594 8.78515625 7.41015625 C21.1511524 18.86855636 30.33310536 35.78169953 31.5168457 52.82592773 C32.03231404 75.51680264 28.12586356 95.94301496 12.33984375 113.27734375 C11.32470703 114.41236328 11.32470703 114.41236328 10.2890625 115.5703125 C-2.14572255 128.75604372 -20.06346429 137.75159333 -38.22265625 138.59375 C-61.27682131 139.23937636 -79.87330451 133.6221341 -97.18359375 118 C-111.74452488 104.16055645 -120.50067929 85.70778397 -121.06274414 65.63745117 C-121.28353298 45.57345875 -116.34008806 27.49222854 -102.66015625 12.27734375 C-101.8815625 11.39433594 -101.10296875 10.51132813 -100.30078125 9.6015625 C-73.57977078 -18.97726971 -31.99586427 -20.71978876 0 0 Z " fill="#FEFEFD" transform="translate(620.66015625,128.72265625)"/>
<path d="M0 0 C2.71426817 1.00972145 4.15304695 2.42733933 6.20385742 4.46801758 C6.95344727 5.21374023 7.70303711 5.95946289 8.4753418 6.7277832 C9.63453125 7.904375 9.63453125 7.904375 10.81713867 9.10473633 C11.6015332 9.8775293 12.38592773 10.65032227 13.1940918 11.4465332 C14.31267578 12.57091797 14.31267578 12.57091797 15.45385742 13.71801758 C16.47612427 14.74536011 16.47612427 14.74536011 17.51904297 15.79345703 C19.20074209 17.88047699 19.90822619 19.12909798 20.12963867 21.79223633 C18.32104492 24.12426758 18.32104492 24.12426758 15.69213867 26.60473633 C14.84780273 27.41555664 14.0034668 28.22637695 13.13354492 29.06176758 C11.6009428 30.47642359 10.05156085 31.85890237 8.46531677 33.21330261 C2.98700429 37.89211547 -2.10537926 42.90809209 -7.17588806 48.02259827 C-8.68848465 49.5481761 -10.20437334 51.07041719 -11.72106934 52.59191895 C-14.94035245 55.82252586 -18.15566245 59.05706856 -21.37036133 62.29223633 C-25.10111782 66.04674759 -28.83356884 69.79954246 -32.57029724 73.54811096 C-34.05006689 75.03427322 -35.52674698 76.52345628 -37.0032959 78.01281738 C-40.85283796 81.87626344 -44.68518556 85.70293559 -48.8293457 89.2512207 C-53.71172827 93.43836729 -58.20496921 98.01491217 -62.73147583 102.57818604 C-64.34489647 104.20456901 -65.96159404 105.82763328 -67.57910156 107.44995117 C-71.01236879 110.89455117 -74.44166817 114.34308413 -77.87036133 117.79223633 C-81.84894316 121.79455838 -85.82921053 125.79517448 -89.81375122 129.79156494 C-91.39323198 131.37744639 -92.9696293 132.96634729 -94.54589844 134.55541992 C-99.2903834 139.32365346 -104.06522828 143.99196913 -109.20698547 148.33435059 C-110.93986509 149.85315373 -112.52198241 151.45870007 -114.10083008 153.13598633 C-114.59389648 153.6593457 -115.08696289 154.18270508 -115.5949707 154.72192383 C-116.59129961 155.79141441 -117.57796114 156.86997432 -118.5559082 157.95629883 C-122.15925533 161.73530319 -122.15925533 161.73530319 -125.35864258 161.99145508 C-128.84289304 160.32790159 -131.25376758 157.87075485 -133.87036133 155.10473633 C-134.37825195 154.58717773 -134.88614258 154.06961914 -135.40942383 153.53637695 C-136.92309522 151.97807167 -138.39778765 150.3893291 -139.87036133 148.79223633 C-140.3730957 148.27838379 -140.87583008 147.76453125 -141.39379883 147.23510742 C-142.80786133 145.71020508 -142.80786133 145.71020508 -144.87036133 142.79223633 C-144.58608835 138.95551318 -143.55713196 136.98071944 -140.85449219 134.30639648 C-139.90231056 133.34982651 -139.90231056 133.34982651 -138.93089294 132.37393188 C-138.23931595 131.69986298 -137.54773895 131.02579407 -136.83520508 130.33129883 C-136.12312393 129.6225058 -135.41104279 128.91371277 -134.67738342 128.18344116 C-132.39673618 125.91853734 -130.10232361 123.66813439 -127.80786133 121.41723633 C-126.28942168 119.91029143 -124.77183382 118.40248772 -123.25512695 116.89379883 C-121.78258262 115.43469511 -120.30929804 113.976338 -118.83520508 112.51879883 C-118.1577977 111.84877838 -117.48039032 111.17875793 -116.78245544 110.48843384 C-112.89053871 106.67256712 -108.89088101 103.0379826 -104.76930237 99.47250366 C-101.87956944 96.91553968 -99.17005554 94.19726651 -96.46411133 91.44848633 C-95.89511108 90.87569946 -95.32611084 90.3029126 -94.73986816 89.71276855 C-92.94753151 87.90838382 -91.15851817 86.10076273 -89.37036133 84.29223633 C-87.00881279 81.90378651 -84.64375833 79.51888638 -82.27661133 77.13598633 C-81.75240601 76.60348267 -81.22820068 76.070979 -80.68811035 75.52233887 C-77.9404351 72.75701029 -75.13255167 70.12885982 -72.17114258 67.59301758 C-67.28184024 63.35942343 -62.74590719 58.78072154 -58.19444275 54.19148254 C-56.61462999 52.59870142 -55.03153547 51.00924475 -53.44763184 49.42053223 C-50.08569272 46.0472632 -46.72772313 42.67006031 -43.37036133 39.29223633 C-39.47438784 35.37251797 -35.57672595 31.45450891 -31.67478943 27.54072571 C-30.12854578 25.98808395 -28.58538752 24.4324223 -27.0423584 22.87658691 C-22.31709365 18.12703271 -17.54881972 13.48879798 -12.44491577 9.14413452 C-10.52576972 7.49637309 -8.74951797 5.73853773 -6.99536133 3.91723633 C-2.90729121 -0.32294803 -2.90729121 -0.32294803 0 0 Z " fill="#FEFDFD" transform="translate(860.870361328125,596.207763671875)"/>
<path d="M0 0 C2.49783138 0.90848484 3.67575316 1.66869958 5.48071289 3.57910156 C6.2821875 4.40667969 6.2821875 4.40667969 7.09985352 5.25097656 C7.6419043 5.83105469 8.18395508 6.41113281 8.74243164 7.00878906 C12.03008233 10.46022308 15.30191604 13.82423229 18.94433594 16.90478516 C23.88944969 21.20516407 28.49378243 25.83419753 33.10585022 30.48454285 C34.68566298 32.07732397 36.2687575 33.66678064 37.85266113 35.25549316 C41.78285823 39.19893523 45.70753936 43.14785192 49.63238525 47.09661865 C52.96108878 50.44517933 56.29192096 53.791596 59.62550354 57.13529968 C61.17174719 58.68794144 62.71490545 60.24360309 64.25793457 61.79943848 C68.9160334 66.48149812 73.62760881 71.02739525 78.64538574 75.32409668 C81.50899717 77.8268919 84.16931036 80.51845034 86.83618164 83.22753906 C87.68968201 84.08671936 87.68968201 84.08671936 88.5604248 84.96325684 C90.9542585 87.37318188 93.34197407 89.78913385 95.73022461 92.20458984 C104.2693735 100.84451286 104.2693735 100.84451286 113.28442383 108.97851562 C118.04693924 113.20776805 122.52194271 117.75062851 127.03198242 122.24560547 C128.8151649 124.01896595 130.60874555 125.78137672 132.40258789 127.54394531 C133.54516981 128.68000585 134.68711999 129.81670218 135.82836914 130.95410156 C136.62831802 131.73553024 136.62831802 131.73553024 137.44442749 132.53274536 C140.34316646 135.44907427 142.22393361 137.93235601 143.42993164 141.88378906 C139.27701487 147.33594237 134.94729797 152.58427183 130.24243164 157.57128906 C129.44450195 158.42078125 128.64657227 159.27027344 127.82446289 160.14550781 C125.42993164 161.88378906 125.42993164 161.88378906 123.02563477 161.71557617 C119.99583927 160.74468516 118.69537072 159.59892798 116.50415039 157.31347656 C115.78936523 156.58128906 115.07458008 155.84910156 114.33813477 155.09472656 C113.60530273 154.32386719 112.8724707 153.55300781 112.11743164 152.75878906 C110.66555727 151.25371822 109.21114414 149.7510921 107.75415039 148.25097656 C107.11566162 147.58179199 106.47717285 146.91260742 105.81933594 146.22314453 C103.88563058 144.32994286 101.92797191 142.57872999 99.87451172 140.82177734 C94.87469845 136.48115091 90.22887318 131.79574742 85.56881714 127.09783936 C83.9553965 125.47145638 82.33869893 123.84839211 80.72119141 122.22607422 C76.70752063 118.19915483 72.69936329 114.16676243 68.69104004 110.13452148 C65.2918744 106.71550287 61.89058297 103.29862507 58.48654175 99.88446045 C56.90706098 98.298579 55.33066367 96.7096781 53.75439453 95.12060547 C49.13027322 90.47317683 44.45576595 85.9686512 39.4753418 81.7043457 C35.52822787 78.19114105 31.84350326 74.40479651 28.12440491 70.65342712 C26.61180832 69.12784929 25.09591963 67.6056082 23.57922363 66.08410645 C19.81597363 62.30761924 16.05824496 58.52565395 12.300354 54.74383545 C9.11257496 51.53619038 5.92266122 48.33069612 2.72999573 45.12791443 C1.25022608 43.64175217 -0.22645401 42.15256911 -1.70300293 40.66320801 C-6.29238193 36.05725282 -10.9005669 31.5827913 -15.90612793 27.42883301 C-17.75546307 25.71164169 -19.19506785 24.00039209 -20.57006836 21.88378906 C-20.35587788 15.61933312 -15.49991685 12.15409335 -11.32006836 8.00878906 C-10.5556543 7.21214844 -9.79124023 6.41550781 -9.00366211 5.59472656 C-8.25729492 4.84707031 -7.51092773 4.09941406 -6.74194336 3.32910156 C-6.06228516 2.64348145 -5.38262695 1.95786133 -4.68237305 1.25146484 C-2.57006836 -0.11621094 -2.57006836 -0.11621094 0 0 Z " fill="#FEFDFD" transform="translate(175.570068359375,599.1162109375)"/>
<path d="M0 0 C1.16789063 0.61875 1.16789063 0.61875 2.359375 1.25 C8.63509138 4.95646336 12.37163939 9.74624026 16 16 C16.54333984 16.92039062 16.54333984 16.92039062 17.09765625 17.859375 C20.54505624 25.10693219 20.14713736 35.41145058 18.23828125 43.046875 C13.97871825 54.15877849 7.02120095 61.97101939 -3.66796875 67.0546875 C-11.85113808 70.37181812 -23.12004857 70.5025136 -31.4375 67.4375 C-41.55722515 62.57322875 -48.59851716 55.33172913 -52.875 44.9375 C-55.50884694 35.94772302 -55.40667775 24.7070484 -51.3125 16.234375 C-40.7239942 -1.79129559 -19.22586597 -10.75572922 0 0 Z " fill="#FEFDFC" transform="translate(946,519)"/>
<path d="M0 0 C8.50437655 4.87265484 14.75477322 11.78964936 17.375 21.3125 C18.73174664 32.81875519 16.67181415 41.15784805 9.8046875 50.43359375 C4.45897576 56.4378352 -2.40966315 59.8087805 -10.3515625 60.7578125 C-18.00688084 60.98793229 -24.07240835 60.35615635 -30.625 56.3125 C-31.24761719 55.97347656 -31.87023437 55.63445313 -32.51171875 55.28515625 C-39.21025877 51.20209823 -43.2529428 43.63446651 -45.625 36.3125 C-46.46990231 27.62769018 -46.30978955 19.87905155 -41.625 12.3125 C-41.0990625 11.37857422 -41.0990625 11.37857422 -40.5625 10.42578125 C-32.13777144 -3.05963495 -13.87762828 -6.6811849 0 0 Z " fill="#FEFDFC" transform="translate(108.625,495.6875)"/>
<path d="M0 0 C6.48506668 4.11854033 12.66313523 9.28698336 15.38671875 16.64453125 C17.08153404 24.60174912 17.38916172 34.12264888 12.9375 41.23046875 C7.92729268 47.98973493 2.4654097 53.57310114 -6.0625 55.23046875 C-15.10827695 56.02795538 -22.61189162 55.7829152 -30.0625 50.23046875 C-36.61932177 44.33493328 -40.48138572 38.74445081 -41.40625 29.96875 C-41.81052901 20.61979783 -40.35529171 13.92445595 -33.97265625 6.9453125 C-24.8548309 -1.64258795 -12.03694637 -5.52558098 0 0 Z " fill="#FDFCFB" transform="translate(133.0625,706.76953125)"/>
<path d="M0 0 C6.13869493 4.24085413 10.68431823 10.32639219 13.046875 17.4140625 C13.99096076 27.78551897 12.89309405 35.17290198 6.47265625 43.44140625 C1.48116553 48.94484474 -3.9056302 51.91168024 -11.2890625 52.828125 C-20.90562649 53.22446929 -27.50460756 51.18563163 -34.828125 44.9765625 C-41.27641127 37.20068788 -43.55967436 31.1979085 -43.390625 21.12890625 C-42.48134384 13.40813493 -39.14820902 6.71698491 -33.015625 1.8515625 C-31.68309532 1.00404362 -30.32974864 0.18790419 -28.953125 -0.5859375 C-27.921875 -1.2046875 -26.890625 -1.8234375 -25.828125 -2.4609375 C-17.35112185 -5.6810348 -7.68185396 -4.49363353 0 0 Z " fill="#FEFDFC" transform="translate(927.953125,701.5859375)"/>
<path d="M0 0 C6.77864937 4.1203555 13.0991443 8.96497226 15.1875 16.9375 C16.21949551 26.51014797 15.08919053 33.49025979 9.0625 41.125 C3.42116195 47.17768562 -2.16599936 49.13381443 -10.375 49.4375 C-18.46122978 49.13626676 -23.12951191 47.00894255 -28.625 41.125 C-34.73309071 33.51080474 -35.83660741 26.53552989 -34.8125 16.9375 C-33.03545013 9.85299453 -27.58175636 5.08202481 -21.8125 0.9375 C-15.13007621 -2.44199092 -7.06453826 -1.96880575 0 0 Z " fill="#FDFCFB" transform="translate(253.8125,494.0625)"/>
<path d="M0 0 C0.66 0.33 1.32 0.66 2 1 C-1.3 4.3 -4.6 7.6 -8 11 C-8 7.0234755 -6.61988497 5.9109833 -4 3 C-1.75 1.1875 -1.75 1.1875 0 0 Z " fill="#F2E4DA" transform="translate(907,521)"/>
<path d="M0 0 C0.66 0.33 1.32 0.66 2 1 C-0.97 3.97 -3.94 6.94 -7 10 C-7 7 -7 7 -4.625 4.4375 C-3.75875 3.633125 -2.8925 2.82875 -2 2 C-1.34 1.34 -0.68 0.68 0 0 Z " fill="#F2E4DA" transform="translate(897,702)"/>
<path d="M0 0 C0.66 0.33 1.32 0.66 2 1 C-0.97 3.97 -3.94 6.94 -7 10 C-7 7 -7 7 -4.625 4.4375 C-3.75875 3.633125 -2.8925 2.82875 -2 2 C-1.34 1.34 -0.68 0.68 0 0 Z " fill="#F2E4D9" transform="translate(76,498)"/>
</svg>
