<?xml version="1.0" encoding="UTF-8"?>
<svg version="1.1" xmlns="http://www.w3.org/2000/svg" width="1040" height="1040">
<path d="M0 0 C1.11234673 -0.00327219 2.22469345 -0.00654439 3.37074766 -0.00991574 C5.19197686 -0.0076903 5.19197686 -0.0076903 7.04999858 -0.00541991 C8.35127705 -0.00777214 9.65255552 -0.01012437 10.99326667 -0.01254788 C14.61497364 -0.01894311 18.23665842 -0.01910988 21.85836996 -0.01827047 C25.79507093 -0.01844007 29.73176396 -0.0243473 33.66846097 -0.02951133 C41.48102329 -0.03883766 49.29357994 -0.04275944 57.10614713 -0.0450303 C66.46259972 -0.04799233 75.81904478 -0.05668983 85.17549342 -0.06544458 C107.79302073 -0.0862912 130.41054935 -0.09675958 153.02808403 -0.10557419 C163.7291549 -0.10978086 174.4302252 -0.11500286 185.13129559 -0.12025872 C221.76565109 -0.13815014 258.40000674 -0.15314545 295.03436595 -0.16057891 C297.33443692 -0.16105366 299.63450789 -0.16152955 301.93457885 -0.16200657 C303.64551693 -0.16236113 303.64551693 -0.16236113 305.39101941 -0.16272286 C311.16995858 -0.16392405 316.94889774 -0.1651395 322.72783691 -0.16636485 C323.87468404 -0.166605 325.02153117 -0.16684515 326.20313125 -0.16709258 C363.37663569 -0.17498339 400.55010821 -0.19841012 437.72359871 -0.23092079 C477.02919173 -0.26523332 516.33476606 -0.28493142 555.6403743 -0.28822315 C559.95699202 -0.28864068 564.27360972 -0.28912024 568.59022743 -0.28964633 C570.18452617 -0.28983111 570.18452617 -0.28983111 571.81103297 -0.29001964 C588.90287957 -0.29235002 605.99468903 -0.30800109 623.08652241 -0.32848817 C640.27459366 -0.34876335 657.46262042 -0.35421548 674.65070143 -0.34471754 C684.85589554 -0.339509 695.06094129 -0.34534947 705.26611399 -0.36725221 C712.09264405 -0.38079335 718.91907237 -0.37965411 725.74560353 -0.36685025 C729.62900062 -0.35997558 733.51211477 -0.35920785 737.3954862 -0.37641034 C775.7647231 -0.5357116 809.03558861 8.59931192 837.24175292 35.93739492 C856.91946142 55.76236409 872.4462436 85.38178819 872.46821034 113.78939199 C872.47148253 114.90173872 872.47475473 116.01408545 872.47812608 117.16013965 C872.47664246 118.37429246 872.47515883 119.58844526 872.47363025 120.83939058 C872.47598248 122.14066905 872.47833471 123.44194752 872.48075822 124.78265867 C872.48715345 128.40436564 872.48732022 132.02605041 872.48648081 135.64776195 C872.48665041 139.58446292 872.49255764 143.52115596 872.49772167 147.45785296 C872.507048 155.27041528 872.51096978 163.08297193 872.51324064 170.89553913 C872.51620267 180.25199171 872.52490017 189.60843678 872.53365492 198.96488542 C872.55450154 221.58241273 872.56496992 244.19994135 872.57378453 266.81747603 C872.5779912 277.51854689 872.5832132 288.21961719 872.58846906 298.92068759 C872.60636048 335.55504308 872.62135579 372.18939874 872.62878925 408.82375795 C872.629264 411.12382891 872.62973989 413.42389988 872.63021691 415.72397085 C872.63057147 417.43490893 872.63057147 417.43490893 872.6309332 419.18041141 C872.63213439 424.95935057 872.63334984 430.73828974 872.63457519 436.5172289 C872.63481534 437.66407604 872.63505549 438.81092317 872.63530292 439.99252325 C872.64319373 477.16602769 872.66662046 514.3395002 872.69913113 551.5129907 C872.73344366 590.81858372 872.75314176 630.12415806 872.75643349 669.4297663 C872.75685102 673.74638401 872.75733058 678.06300172 872.75785667 682.37961942 C872.75797986 683.44248525 872.75810305 684.50535108 872.75822998 685.60042497 C872.76056036 702.69227156 872.77621143 719.78408103 872.79669851 736.8759144 C872.81697369 754.06398566 872.82242582 771.25201242 872.81292788 788.44009342 C872.80771934 798.64528753 872.8135598 808.85033328 872.83546255 819.05550599 C872.84900369 825.88203605 872.84786445 832.70846437 872.83506059 839.53499552 C872.82818592 843.41839261 872.82741819 847.30150676 872.84462068 851.18487819 C873.00392194 889.55411509 863.86889842 922.82498061 836.53081542 951.03114492 C816.70584624 970.70885341 787.08642215 986.23563559 758.67881835 986.25760233 C757.56647162 986.26087453 756.45412489 986.26414672 755.30807069 986.26751807 C753.48684148 986.26529264 753.48684148 986.26529264 751.62881976 986.26302224 C750.32754129 986.26537447 749.02626282 986.2677267 747.68555167 986.27015021 C744.0638447 986.27654545 740.44215993 986.27671222 736.82044838 986.27587281 C732.88374742 986.2760424 728.94705438 986.28194963 725.01035738 986.28711367 C717.19779506 986.29643999 709.38523841 986.30036177 701.57267121 986.30263263 C692.21621863 986.30559467 682.85977356 986.31429216 673.50332492 986.32304691 C650.88579761 986.34389353 628.26826899 986.35436191 605.65073431 986.36317652 C594.94966345 986.36738319 584.24859315 986.37260519 573.54752275 986.37786105 C536.91316726 986.39575247 500.2788116 986.41074779 463.64445239 986.41818124 C461.34438143 986.418656 459.04431046 986.41913189 456.74423949 986.4196089 C455.03330141 986.41996347 455.03330141 986.41996347 453.28779893 986.42032519 C447.50885976 986.42152639 441.7299206 986.42274184 435.95098144 986.42396718 C434.8041343 986.42420733 433.65728717 986.42444748 432.47568709 986.42469491 C395.30218265 986.43258573 358.12871014 986.45601246 320.95521963 986.48852313 C281.64962662 986.52283565 242.34405228 986.54253376 203.03844404 986.54582548 C198.72182633 986.54624302 194.40520862 986.54672258 190.08859092 986.54724866 C188.49429217 986.54743345 188.49429217 986.54743345 186.86778537 986.54762197 C169.77593878 986.54995235 152.68412931 986.56560342 135.59229594 986.58609051 C118.40422468 986.60636569 101.21619792 986.61181782 84.02811692 986.60231987 C73.82292281 986.59711133 63.61787706 986.6029518 53.41270435 986.62485455 C46.58617429 986.63839569 39.75974597 986.63725645 32.93321482 986.62445259 C29.04981773 986.61757791 25.16670358 986.61681018 21.28333215 986.63401268 C-17.08590476 986.79331393 -50.35677027 977.65829042 -78.56293458 950.32020742 C-98.24064307 930.49523824 -113.76742525 900.87581415 -113.78939199 872.46821034 C-113.79266419 871.35586361 -113.79593638 870.24351689 -113.79930773 869.09746268 C-113.79782411 867.88330988 -113.79634049 866.66915707 -113.7948119 865.41821176 C-113.79716413 864.11693329 -113.79951636 862.81565482 -113.80193987 861.47494367 C-113.80833511 857.85323669 -113.80850188 854.23155192 -113.80766247 850.60984038 C-113.80783206 846.67313941 -113.81373929 842.73644638 -113.81890333 838.79974937 C-113.82822965 830.98718705 -113.83215143 823.1746304 -113.83442229 815.36206321 C-113.83738433 806.00561062 -113.84608182 796.64916556 -113.85483657 787.29271692 C-113.87568319 764.67518961 -113.88615157 742.05766099 -113.89496618 719.44012631 C-113.89917285 708.73905544 -113.90439485 698.03798514 -113.90965071 687.33691475 C-113.92754213 650.70255925 -113.94253745 614.0682036 -113.9499709 577.43384439 C-113.95044566 575.13377342 -113.95092155 572.83370245 -113.95139856 570.53363148 C-113.95163494 569.3930061 -113.95187132 568.25238072 -113.95211485 567.07719093 C-113.95331605 561.29825176 -113.9545315 555.51931259 -113.95575684 549.74037343 C-113.95599699 548.5935263 -113.95623714 547.44667916 -113.95648457 546.26507909 C-113.96437539 509.09157465 -113.98780212 471.91810213 -114.02031279 434.74461163 C-114.05462532 395.43901861 -114.07432342 356.13344428 -114.07761514 316.82783604 C-114.07803268 312.51121832 -114.07851224 308.19460062 -114.07903832 303.87798291 C-114.07916151 302.81511708 -114.07928471 301.75225125 -114.07941163 300.65717737 C-114.08174201 283.56533077 -114.09739308 266.4735213 -114.11788017 249.38168793 C-114.13815535 232.19361667 -114.14360748 215.00558992 -114.13410953 197.81750891 C-114.12890099 187.6123148 -114.13474146 177.40726905 -114.15664421 167.20209635 C-114.17018535 160.37556629 -114.16904611 153.54913797 -114.15624225 146.72260681 C-114.14936757 142.83920972 -114.14859984 138.95609557 -114.16580234 135.07272414 C-114.32510359 96.70348724 -105.19008008 63.43262173 -77.85199708 35.22645742 C-58.0270279 15.54874892 -28.40760381 0.02196674 0 0 Z " fill="#2E2A30" transform="translate(140.66059082746506,26.87119883298874)"/>
<path d="M0 0 C1.45279358 0.28897408 1.45279358 0.28897408 2.93493652 0.58378601 C4.97283946 0.99115518 7.00998308 1.40233961 9.04638672 1.81713867 C12.14474343 2.44688004 15.24587805 3.06118884 18.34765625 3.67382812 C20.33612271 4.07329791 22.32441037 4.473659 24.3125 4.875 C25.68940002 5.14707024 25.68940002 5.14707024 27.09411621 5.42463684 C40.58425424 8.20069771 40.58425424 8.20069771 45.15625 12.47265625 C47.50647515 18.21357081 46.96943234 23.6378171 46.65625 29.76171875 C46.59857053 31.13044301 46.54112129 32.49917699 46.48388672 33.86791992 C45.71763411 50.36654108 43.68272201 66.75469969 41.65625 83.13671875 C37.15178551 105.63150558 37.15178551 105.63150558 40.37109375 127.33984375 C45.10812305 133.13764372 50.98098506 134.22986277 57.96875 136.01171875 C73.47444389 140.01968872 88.65237023 145.08226163 103.87167358 150.04690552 C111.59716317 152.56505582 119.32223228 155.0615481 127.11328125 157.37109375 C144.83936654 162.65578647 162.10874704 168.89911058 179.40625 175.44921875 C180.56903473 175.88950409 181.73181946 176.32978943 182.92984009 176.78341675 C186.29335269 178.05983474 189.65503555 179.34090708 193.015625 180.625 C194.01142075 181.0049411 195.00721649 181.3848822 196.03318787 181.77633667 C229.56010559 194.65792705 229.56010559 194.65792705 237.15234375 210.19921875 C244.57846743 227.70215048 241.62641866 246.61086221 239.65625 265.13671875 C239.5883728 265.78435181 239.52049561 266.43198486 239.45056152 267.09924316 C235.99340061 300.0481826 235.99340061 300.0481826 232.12304688 316.12158203 C231.20021582 320.10539352 230.44540842 324.12472958 229.65625 328.13671875 C220.77629043 372.67564959 210.47035755 421.59137084 191.65625 463.13671875 C191.08970703 464.42835938 191.08970703 464.42835938 190.51171875 465.74609375 C187.45141055 472.3375268 183.3945072 477.65570772 178.65625 483.13671875 C177.93050781 483.98492188 177.20476562 484.833125 176.45703125 485.70703125 C162.16359919 502.02100082 162.16359919 502.02100082 153.65625 503.13671875 C143.92827452 503.6589938 135.40321001 502.56488169 126.03125 500.01171875 C124.80398193 499.69041992 123.57671387 499.36912109 122.31225586 499.03808594 C113.98365479 496.83369673 105.70903638 494.47282924 97.48046875 491.921875 C92.70504613 490.44399635 87.91181407 489.03323502 83.11328125 487.6328125 C65.65304339 482.52656812 48.39856464 477.12354983 31.24658203 471.04882812 C-11.20682427 454.96527804 -11.20682427 454.96527804 -54.96875 455.38671875 C-59.23562173 458.53072949 -60.76802921 461.81027774 -62.20288086 466.84570312 C-62.70744308 468.59182137 -62.70744308 468.59182137 -63.22219849 470.37321472 C-63.58446169 471.65892903 -63.94658892 472.94468166 -64.30859375 474.23046875 C-64.69728637 475.58696062 -65.08678224 476.94322254 -65.47702026 478.29927063 C-66.31460766 481.2150366 -67.14713581 484.13218316 -67.97598267 487.05044556 C-69.28791191 491.66674289 -70.6155539 496.27842779 -71.94604492 500.8894043 C-75.92978019 514.70522195 -79.88976602 528.5276596 -83.81717968 542.35959435 C-85.60245311 548.64259975 -87.40338286 554.92100091 -89.21492481 561.1964817 C-90.5017231 565.65773245 -91.76924198 570.1238641 -93.02254868 574.59463215 C-93.80912381 577.38274593 -94.61390368 580.16536198 -95.42374039 582.94679832 C-95.9678681 584.83539849 -96.49045502 586.7301641 -97.01217651 588.62507629 C-99.52785882 597.16323525 -102.84449044 603.13721238 -110.34375 608.13671875 C-113.53593445 608.41760254 -113.53593445 608.41760254 -117.53393555 608.45898438 C-118.26279465 608.46891418 -118.99165375 608.47884399 -119.74259949 608.48907471 C-122.15526103 608.51829489 -124.56765928 608.53192006 -126.98046875 608.54296875 C-128.66095484 608.55447692 -130.34144088 608.56599232 -132.02192688 608.57751465 C-135.54840313 608.59853032 -139.0747883 608.61021728 -142.60131836 608.6171875 C-147.10628672 608.62813394 -151.61003894 608.67613685 -156.11462688 608.73313141 C-159.58835784 608.77050817 -163.0618001 608.78080195 -166.5357151 608.78385925 C-168.19544916 608.78988949 -169.85517952 608.80586979 -171.51471519 608.83222961 C-187.18014513 609.06321764 -187.18014513 609.06321764 -193.00666809 603.70080566 C-196.79747737 599.26640629 -197.78608955 595.49561142 -197.56640625 589.8125 C-196.82887024 580.94912871 -195.50263316 572.67096833 -192.4584198 564.29403687 C-191.39107178 561.27075837 -190.43843738 558.23698267 -189.5168457 555.16650391 C-187.3163074 547.96382812 -184.90289635 540.84224206 -182.44921875 533.72265625 C-181.97981176 532.35592326 -181.51056233 530.98913614 -181.04145813 529.62229919 C-179.79709804 525.9984225 -178.55004651 522.37547726 -177.30252075 518.75268936 C-176.26575649 515.74031239 -175.23109337 512.72721544 -174.19638634 509.71413136 C-169.41692016 495.79800565 -164.62621898 481.88629145 -159.73828125 468.0078125 C-159.2306147 466.56563858 -159.2306147 466.56563858 -158.71269226 465.09432983 C-156.18317286 457.91059311 -156.18317286 457.91059311 -154.92123413 454.33630371 C-151.41214457 444.3811059 -148.15258802 434.44052059 -145.34375 424.26171875 C-142.99635795 415.7553422 -140.09164326 408.64075867 -135.34375 401.13671875 C-134.84746094 400.24855469 -134.35117187 399.36039063 -133.83984375 398.4453125 C-122.25683615 378.50163776 -103.71597361 364.24710607 -81.63720703 358.10571289 C-74.62854019 356.37492198 -67.39649145 356.65450756 -60.21875 356.63671875 C-59.39560303 356.63237823 -58.57245605 356.62803772 -57.72436523 356.62356567 C-40.64545276 356.59544024 -24.29083336 359.04439365 -7.53486633 362.12193298 C-1.77999315 363.14445499 3.89695309 363.63746745 9.73901367 363.921875 C12.42651554 364.11979965 14.86023156 364.54420066 17.46875 365.19921875 C23.23640906 366.60361157 28.25354808 367.35363125 33.671875 364.609375 C37.40009 361.520422 38.84038624 358.57964069 40.71875 354.19921875 C41.05890137 353.43923584 41.39905273 352.67925293 41.74951172 351.89624023 C48.05831838 337.64373188 53.00444096 322.89613111 57.5234375 307.9921875 C58.96748667 303.27237807 60.50844412 298.5996518 62.12890625 293.9375 C72.79388539 266.44938226 72.79388539 266.44938226 70.65625 238.13671875 C67.28097774 235.0437759 63.86486648 233.1249593 59.6953125 231.28125 C58.5496582 230.76771973 57.40400391 230.25418945 56.22363281 229.72509766 C54.45777832 228.9388501 54.45777832 228.9388501 52.65625 228.13671875 C50.41216731 227.10306294 48.16996556 226.06531354 45.9296875 225.0234375 C44.24286865 224.24166138 44.24286865 224.24166138 42.52197266 223.4440918 C37.69065372 221.20211382 32.86162507 218.95524071 28.03320312 216.70703125 C25.06070574 215.32479418 22.08541927 213.94879434 19.109375 212.57421875 C9.66207707 208.18681062 0.62566911 203.43336235 -8.34375 198.13671875 C-9.41496094 197.55148437 -10.48617187 196.96625 -11.58984375 196.36328125 C-24.72802353 189.11349915 -33.71684869 178.7147193 -38.4375 164.30859375 C-42.56090913 149.8766618 -44.16156133 136.13942022 -44.34375 121.13671875 C-44.36318665 120.41670685 -44.38262329 119.69669495 -44.40264893 118.9548645 C-44.78051677 104.89043796 -43.4914478 91.56695961 -41.21875 77.69921875 C-40.89945693 75.68263201 -40.58077954 73.66594769 -40.26269531 71.64916992 C-34.22980976 33.83940393 -34.22980976 33.83940393 -28.98876953 15.56860352 C-28.34555482 13.14352336 -27.88454407 10.73485224 -27.46875 8.26171875 C-26.56305979 4.01486887 -24.81001556 1.84209675 -21.34375 -0.86328125 C-14.28915885 -3.21481163 -7.08564564 -1.44697267 0 0 Z " fill="#F40A63" transform="translate(565.34375,241.86328125)"/>
<path d="M0 0 C5.56165518 0.35017829 8.80843276 4.45156473 12.58984375 8.16015625 C15.22632968 10.73154376 17.92960593 13.02548797 20.8125 15.3125 C25.6081049 19.17904184 30.10628667 23.28601983 34.59887695 27.4934082 C38.81161123 31.41642724 43.20154453 35.05653719 47.69140625 38.66015625 C50.70069052 41.15576469 53.57688654 43.77515143 56.4375 46.4375 C60.17077255 49.91169243 63.96121111 53.2381871 67.9375 56.4375 C72.45608176 60.0731405 76.71733329 63.90586402 80.95922852 67.85375977 C84.1704905 70.82465628 87.46377815 73.63711077 90.875 76.375 C95.05996326 79.7410352 99.01987934 83.26998928 102.9375 86.9375 C112.54341837 97.0781751 112.54341837 97.0781751 124.4375 102.9375 C124.91316406 102.40125 125.38882813 101.865 125.87890625 101.3125 C130.76196912 95.84490842 135.72943802 90.46624042 140.75 85.125 C145.45454602 80.11976317 150.1521425 75.1089495 154.8125 70.0625 C155.53904785 69.27625244 155.53904785 69.27625244 156.28027344 68.47412109 C160.10844813 64.31972618 163.86822285 60.1066403 167.59765625 55.86328125 C170.26854951 53.06763289 171.94592309 52.00122293 175.8125 51.5 C179.4375 51.9375 179.4375 51.9375 182.06771851 53.72775269 C185.57152443 58.47347784 185.56075258 62.95394691 185.97900391 68.73095703 C186.08491222 69.93952236 186.19082054 71.14808769 186.2999382 72.39327621 C186.52908632 75.04458576 186.74982297 77.69508173 186.95667648 80.34807968 C187.29287872 84.65850536 187.66020572 88.96595562 188.03164673 93.27346802 C188.49897884 98.71887184 188.95810868 104.16486319 189.40778244 109.61175382 C190.30016762 120.41573859 191.25199863 131.21379928 192.22558594 142.01074219 C192.37938877 143.71815544 192.53318334 145.42556943 192.68696976 147.13298416 C192.91956989 149.71514092 193.15218794 152.29729603 193.38494515 154.87943864 C194.24805974 164.46292694 195.09530984 174.04780909 195.94140625 183.6328125 C196.25143955 187.144859 196.56148489 190.65690444 196.87158203 194.16894531 C196.94861461 195.04149373 197.02564719 195.91404215 197.10501409 196.81303144 C197.74307435 204.03616071 198.38584433 211.25886629 199.02936304 218.481511 C199.66131764 225.57732864 200.28957713 232.67346752 200.91506064 239.76985848 C201.28374776 243.9518048 201.65394221 248.13360329 202.02814865 252.31505966 C202.37554369 256.19786013 202.7183262 260.08104099 203.05764008 263.96455574 C203.18174108 265.37596475 203.30745628 266.78723301 203.43499374 268.19833565 C204.00311213 274.49341099 204.52426007 280.79620985 204.76187134 287.11331177 C204.79754023 287.95417894 204.83320911 288.79504612 204.86995888 289.66139412 C204.25100627 292.91904877 203.10682874 294.00319698 200.4375 295.9375 C197.31323719 296.54432487 197.31323719 296.54432487 193.56221008 296.69723511 C192.87248733 296.73064035 192.18276459 296.76404559 191.47214115 296.79846311 C189.16453341 296.90568771 186.85678797 296.98569505 184.5480957 297.06591797 C182.89114054 297.13742502 181.23425906 297.21065744 179.57745075 297.28549004 C176.03168777 297.44219473 172.48571064 297.58718635 168.93909073 297.72310638 C163.51507777 297.9315017 158.09259255 298.16866551 152.67001343 298.41119385 C142.03932001 298.88261754 131.40741014 299.3216987 120.77513289 299.75572062 C115.46186695 299.97304836 110.1487044 300.19287922 104.83552551 300.412323 C95.95706785 300.77864515 87.0785353 301.14310429 78.19995117 301.50634766 C67.95695748 301.92543244 57.71408644 302.34742047 47.47127455 302.77092373 C37.54061365 303.18146711 27.6098769 303.5901464 17.67910194 303.99792099 C13.47952201 304.17038623 9.27996834 304.34347205 5.0804348 304.51706314 C0.15614667 304.7205179 -4.76820621 304.92232835 -9.6926136 305.12287521 C-11.49375967 305.1964842 -13.2948832 305.27064704 -15.0959816 305.34541321 C-17.55874523 305.44755098 -20.02158379 305.54765007 -22.48445129 305.64724731 C-23.1907541 305.67701066 -23.89705691 305.70677401 -24.62476283 305.73743927 C-39.23329323 306.31912029 -39.23329323 306.31912029 -42.0625 303.875 C-44.5625 300.9375 -44.5625 300.9375 -45.078125 297.6953125 C-44.3846488 292.64134201 -42.24613215 290.48226715 -38.8125 286.875 C-37.61003486 285.55266705 -36.40822627 284.22973681 -35.20703125 282.90625 C-34.59553223 282.24367188 -33.9840332 281.58109375 -33.35400391 280.8984375 C-30.66262694 277.95252038 -28.08188567 274.91673835 -25.5 271.875 C-24.51220244 270.71963837 -23.52392054 269.56469066 -22.53515625 268.41015625 C-22.0467627 267.8392627 -21.55836914 267.26836914 -21.05517578 266.68017578 C-19.02698453 264.31229401 -16.99338561 261.94908094 -14.95996094 259.58569336 C-13.46269287 257.84184186 -11.97116838 256.09321726 -10.48046875 254.34375 C-8.52644113 252.05214297 -6.54787779 249.78538569 -4.55078125 247.53125 C-3.61696638 246.45852578 -2.68336276 245.38561762 -1.75 244.3125 C-0.91855469 243.37148438 -0.08710938 242.43046875 0.76953125 241.4609375 C2.64068512 239.14395143 2.64068512 239.14395143 2.41015625 236.796875 C1.24113083 234.56211156 0.02154414 233.4037236 -1.9375 231.8125 C-5.38952421 228.92962673 -8.74635483 225.97652998 -12.0625 222.9375 C-15.18157011 220.09225772 -18.31005391 217.2655042 -21.5 214.5 C-25.44917367 211.06981424 -29.29272305 207.52746482 -33.14038086 203.98461914 C-35.9172637 201.43209547 -38.71222015 198.90774254 -41.5625 196.4375 C-45.4933925 193.0307265 -49.31446573 189.50747215 -53.140625 185.984375 C-55.91744057 183.43194857 -58.71230717 180.90766712 -61.5625 178.4375 C-65.4933925 175.0307265 -69.31446573 171.50747215 -73.140625 167.984375 C-75.91744057 165.43194857 -78.71230717 162.90766712 -81.5625 160.4375 C-84.95301162 157.4990566 -88.26206733 154.47622885 -91.5625 151.4375 C-99.8498828 143.78224531 -99.8498828 143.78224531 -108.5625 136.625 C-109.2225 136.068125 -109.8825 135.51125 -110.5625 134.9375 C-110.5625 134.2775 -110.5625 133.6175 -110.5625 132.9375 C-111.2225 132.9375 -111.8825 132.9375 -112.5625 132.9375 C-113.2702327 126.12091662 -113.2702327 126.12091662 -111.48876953 123.14208984 C-109.94231474 121.3743419 -108.32461893 119.7460022 -106.625 118.125 C-105.41536904 116.90230607 -104.20834912 115.67702366 -103.00390625 114.44921875 C-102.41109863 113.85286621 -101.81829102 113.25651367 -101.20751953 112.64208984 C-99.00328786 110.35803738 -97.02975047 107.92689919 -95.0625 105.4375 C-91.57687264 101.0804658 -87.88456333 96.99628467 -84.0625 92.9375 C-79.43629473 88.02443945 -75.08979122 82.98628041 -70.87109375 77.71484375 C-68.20970542 74.51307201 -65.40787754 71.47515082 -62.5625 68.4375 C-58.91361551 64.54173719 -55.40551562 60.60415716 -52.0625 56.4375 C-47.72322656 51.03313218 -43.05853585 45.98794877 -38.3359375 40.921875 C-34.02021049 36.29191002 -29.89945457 31.50333818 -25.7890625 26.69140625 C-24.75528677 25.4817038 -23.72143046 24.2720702 -22.6875 23.0625 C-21.9130957 22.15588623 -21.9130957 22.15588623 -21.12304688 21.23095703 C-17.32210245 16.79293607 -13.44490782 12.43210097 -9.5 8.12109375 C-7.47820036 5.90474135 -7.47820036 5.90474135 -5.53515625 3.21875 C-3.5625 0.9375 -3.5625 0.9375 0 0 Z " fill="#F40A63" transform="translate(255.5625,179.0625)"/>
<path d="M0 0 C19.94096448 15.60709381 33.85567585 36.81365654 37.01953125 62.36328125 C38.43626769 91.62861139 32.92251168 116.927437 12.96484375 139.2578125 C1.42684501 151.68011041 -12.88490659 160.22515742 -28.98046875 165.36328125 C-29.97433594 165.68296875 -30.96820312 166.00265625 -31.9921875 166.33203125 C-56.90044342 172.94972286 -83.15958964 168.05335939 -105.2265625 155.51953125 C-127.71417309 141.24910996 -141.96983742 120.18314379 -147.98046875 94.36328125 C-152.66973022 69.25749759 -147.81983622 43.72857586 -133.66796875 22.55078125 C-118.38147565 1.66096213 -97.67938957 -12.34332144 -72.11499023 -17.17871094 C-46.29212308 -20.95187853 -21.02438572 -15.42479594 0 0 Z " fill="#F40A64" transform="translate(812.98046875,228.63671875)"/>
<path d="M0 0 C1.8715244 0.64705726 3.74395511 1.29149788 5.6171875 1.93359375 C6.58366211 2.26601074 7.55013672 2.59842773 8.54589844 2.94091797 C13.37826877 4.57114406 18.24633242 6.07749161 23.125 7.5625 C24.07963135 7.85366699 25.0342627 8.14483398 26.01782227 8.44482422 C33.0309564 10.55634397 40.08464716 12.47352858 47.21142578 14.16455078 C53.59134144 15.74402346 60.07099563 17.84719525 64.5 22.9375 C65.1477248 24.68580805 65.72539231 26.46088982 66.25 28.25 C68.21602792 33.83145754 70.347065 36.98058216 75.5 39.9375 C79.08107483 41.60709502 82.71828131 42.80393697 86.5 43.9375 C87.54414062 44.26492188 88.58828125 44.59234375 89.6640625 44.9296875 C105.58263735 49.565119 122.41859182 51.90585241 138.9309082 53.16650391 C144.09954419 53.62951585 147.34578259 55.09102793 151.25 58.4375 C154.21520623 61.99574747 153.64484479 66.31865748 153.6328125 70.68359375 C153.63376923 71.44994644 153.63472595 72.21629913 153.63571167 73.00587463 C153.63639243 74.6324166 153.63454541 76.25896129 153.63037109 77.88549805 C153.6250873 80.33453773 153.630285 82.78338841 153.63671875 85.23242188 C153.65377358 110.72955995 153.65377358 110.72955995 148.16796875 117.4140625 C142.60922313 122.49113696 135.50027039 121.35922785 128.43261719 121.09863281 C117.4197002 120.49352748 106.45426236 119.18811162 95.5 117.9375 C94.55640625 117.83598633 93.6128125 117.73447266 92.640625 117.62988281 C80.59928074 116.31401505 68.85703853 113.82148124 57.0625 111.125 C56.34356567 110.96432037 55.62463135 110.80364075 54.88391113 110.63809204 C44.85157726 108.37747243 35.84311543 105.24388386 26.5 100.9375 C25.28151367 100.4314624 24.06302734 99.9254248 22.80761719 99.40405273 C18.84945643 97.64905778 16.04859961 95.50488663 12.8125 92.6875 C11.91011597 91.90294434 11.91011597 91.90294434 10.98950195 91.10253906 C-10.07887335 72.20887442 -23.72981089 44.58982218 -25.91796875 16.3828125 C-26.38348293 5.62412866 -26.38348293 5.62412866 -23.08203125 1.57421875 C-16.04114932 -5.61578927 -8.59958693 -3.08832118 0 0 Z " fill="#F40A63" transform="translate(610.5,733.0625)"/>
</svg>
