<?xml version="1.0" encoding="UTF-8"?>
<svg version="1.1" xmlns="http://www.w3.org/2000/svg" width="1040" height="1040">
<path d="M0 0 C325.38 0 650.76 0 986 0 C986 325.38 986 650.76 986 986 C660.62 986 335.24 986 0 986 C0 660.62 0 335.24 0 0 Z " fill="#C62F92" transform="translate(27,27)"/>
<path d="M0 0 C1.43279297 0.43505859 1.43279297 0.43505859 2.89453125 0.87890625 C14.02909662 4.60080992 23.07703439 10.47790954 32 18 C32.87398437 18.69609375 33.74796875 19.3921875 34.6484375 20.109375 C40.76886243 25.03011531 45.78364204 31.16142941 51 37 C52.49928578 38.66730919 53.99927538 40.33398578 55.5 42 C64.5 52 64.5 52 66.7421875 54.4921875 C68.26708244 56.18592894 69.79315402 57.87861169 71.3203125 59.5703125 C74.69912708 63.31564256 78.06895965 67.06518207 81.375 70.875 C84.82783819 74.841749 88.38877381 78.70682669 91.95043945 82.57543945 C95.08517052 85.98598806 98.15726302 89.44159116 101.19140625 92.94140625 C103.4301125 95.4895665 105.71410212 97.99410593 108 100.5 C110.84524228 103.61907011 113.6719958 106.74755391 116.4375 109.9375 C119.3988351 113.3468858 122.44152486 116.6779431 125.5 120 C129.15507609 123.97049813 132.77345431 127.96413726 136.28515625 132.0625 C137.46097204 133.39098436 138.68038557 134.68176009 139.93359375 135.9375 C147.84461758 144.06625844 153.40405535 153.77009933 159.34472656 163.36962891 C161.40996844 166.65147493 163.56249598 169.86847725 165.74389648 173.07397461 C166.88461792 174.8230808 167.88890288 176.65928537 168.875 178.5 C174.63490982 188.56832236 183.76093015 194.8028352 192.93505859 201.47705078 C196.15714123 203.85342244 199.29836705 206.32817932 202.4375 208.8125 C203.01387207 209.26455811 203.59024414 209.71661621 204.18408203 210.18237305 C206.7102024 212.16707746 209.20329865 214.17135599 211.66015625 216.2421875 C212.43230469 216.88414062 213.20445312 217.52609375 214 218.1875 C214.639375 218.73792969 215.27875 219.28835938 215.9375 219.85546875 C218.89052465 221.49417372 220.6705444 221.5310271 224 221 C226.83378914 218.85626584 226.83378914 218.85626584 229.375 215.9375 C232.30598502 212.78604265 235.17443546 209.80662879 238.46459961 207.03320312 C243.55009886 202.61154721 248.24014897 197.81039409 252.95281029 193.00009346 C255.1367833 190.7735046 257.33057772 188.55669574 259.52372456 186.33914852 C263.59065766 182.22669988 267.65333952 178.11023847 271.69995117 173.9777832 C274.53185076 171.08656542 277.37575242 168.20764939 280.22802162 165.33653069 C281.30864464 164.24416996 282.384719 163.1472897 283.45607567 162.04583931 C284.94921137 160.51177132 286.45715305 158.99387542 287.96948242 157.47875977 C288.82249435 156.61162857 289.67550629 155.74449738 290.55436707 154.85108948 C293 153 293 153 295.65270996 152.63401794 C298.82320049 153.12835082 300.68021019 154.44225276 303.30078125 156.28125 C304.27724609 156.95800781 305.25371094 157.63476562 306.25976562 158.33203125 C307.26716797 159.04746094 308.27457031 159.76289062 309.3125 160.5 C310.85260742 161.57314453 310.85260742 161.57314453 312.42382812 162.66796875 C314.95666841 164.43506662 317.48146951 166.21259444 320 168 C319.47966689 171.81200397 318.71632246 173.78227469 315.98413086 176.48583984 C315.34934311 177.12355316 314.71455536 177.76126648 314.06053162 178.41830444 C313.36895462 179.09237335 312.67737762 179.76644226 311.96484375 180.4609375 C311.2527626 181.16973053 310.54068146 181.87852356 309.80702209 182.60879517 C307.52637485 184.87369899 305.23196228 187.12410194 302.9375 189.375 C301.41906035 190.8819449 299.90147249 192.38974861 298.38476562 193.8984375 C296.91222129 195.35754122 295.43893671 196.81589833 293.96484375 198.2734375 C293.28743637 198.94345795 292.61002899 199.61347839 291.91209412 200.30380249 C288.77067141 203.38384022 285.59845686 206.37573161 282.25317383 209.23364258 C277.13106442 213.66663589 272.40725621 218.49707226 267.6462326 223.30916786 C265.95026024 225.02275023 264.25058006 226.73257662 262.54986572 228.44145203 C257.72095497 233.29463998 252.8979095 238.153627 248.07910156 243.0168457 C245.11746955 246.0052566 242.15098607 248.98877986 239.18146515 251.96935081 C238.05525129 253.10176302 236.93093726 254.23606801 235.80858612 255.37230873 C234.2437904 256.95632258 232.67292845 258.5340779 231.10058594 260.1105957 C230.20982361 261.00881546 229.31906128 261.90703522 228.40130615 262.83247375 C225.07455052 265.83535206 223.08580726 266.89946229 218.625 267.3125 C211.16218062 266.6691535 206.24599126 261.9692775 200.75 257.3125 C199.22566818 256.03857443 197.70093137 254.76513329 196.17578125 253.4921875 C195.44955566 252.88342773 194.72333008 252.27466797 193.97509766 251.64746094 C191.6544094 249.71173729 189.30433683 247.81645394 186.9375 245.9375 C183.37810147 243.10931916 179.8459191 240.24994664 176.32250977 237.37719727 C170.03306376 232.24947246 163.71380355 227.16863694 157.30981445 222.18457031 C154.08396111 219.66570921 150.89968301 217.10505595 147.74609375 214.49609375 C147.02873047 213.90441406 146.31136719 213.31273437 145.57226562 212.703125 C144.18237145 211.55356934 142.79671267 210.39886718 141.41601562 209.23828125 C138.08086447 206.48330389 135.2043211 204.29922399 131 203 C130.00033203 203.92619141 130.00033203 203.92619141 128.98046875 204.87109375 C123.40756276 209.99193184 117.74934287 214.92565728 111.859375 219.68359375 C108.65271738 222.28133687 105.47980239 224.91705331 102.3125 227.5625 C101.78277588 228.00464844 101.25305176 228.44679688 100.70727539 228.90234375 C99.47115583 229.93446352 98.23552151 230.96716439 97 232 C100.07219902 236.80123856 103.49507671 241.17242806 107.125 245.5625 C111.16274601 250.48547892 115.1423624 255.43447915 119 260.5 C123.26207899 266.08836614 127.66639299 271.54628513 132.11328125 276.98828125 C135.62336198 281.28936608 139.08417075 285.62376186 142.5 290 C146.44185106 295.04853781 150.45028261 300.03759487 154.5 305 C159.49423824 311.12054186 164.40953303 317.29584042 169.26953125 323.5234375 C169.70219299 324.05641449 170.13485474 324.58939148 170.58062744 325.13851929 C172 327 172 327 173.53997803 329.47207642 C176.20520647 333.42905169 178.3127405 336.43702379 182.9460907 337.98300171 C186.50930827 338.41331772 189.96943122 338.54050321 193.55859375 338.5625 C194.8937671 338.60573259 196.22880402 338.65337274 197.56367493 338.70510864 C201.12065247 338.83163077 204.67654722 338.90020431 208.23521423 338.95792389 C211.92063592 339.02833628 215.60408949 339.15437709 219.28808594 339.27685547 C225.14652647 339.46669421 231.00505268 339.63066255 236.86474609 339.77636719 C246.65667653 340.02469166 256.43494409 340.48048334 266.21609497 340.99365234 C268.66910344 341.12080664 271.12235905 341.23968101 273.57592773 341.35546875 C276.43206721 341.49081035 279.28747381 341.63437902 282.14257812 341.79003906 C284.70832455 341.92969362 287.2747911 342.05670779 289.84179688 342.17089844 C291.01291016 342.23567383 292.18402344 342.30044922 293.390625 342.3671875 C294.91478027 342.44235596 294.91478027 342.44235596 296.46972656 342.51904297 C299.35346251 343.06718652 300.336044 343.6043902 302 346 C302.53399693 352.29006771 301.43652062 358.15823479 300.1875 364.3125 C299.9390332 365.65151367 299.9390332 365.65151367 299.68554688 367.01757812 C299.4293457 368.30245117 299.4293457 368.30245117 299.16796875 369.61328125 C299.01610107 370.38454346 298.8642334 371.15580566 298.70776367 371.95043945 C297.84961291 374.43549486 297.16219007 375.49063581 295 377 C292.44628906 377.35644531 292.44628906 377.35644531 289.265625 377.328125 C288.02119629 377.32369385 286.77676758 377.3192627 285.49462891 377.31469727 C284.07974591 377.29357495 282.66486978 377.2719898 281.25 377.25 C279.74007991 377.23718224 278.23015054 377.22542331 276.72021484 377.21459961 C272.21686094 377.17624906 267.71407101 377.11366858 263.21105957 377.04681396 C259.73026409 376.99606753 256.24942466 376.95012715 252.76855469 376.90478516 C237.92303531 376.70870937 223.07864052 376.47440037 208.234375 376.19950867 C201.40126573 376.07388901 194.5685244 375.96392747 187.73471069 375.88545227 C184.26601182 375.84307195 180.7976862 375.78591257 177.32928467 375.72409058 C175.7988173 375.70004857 174.26823082 375.68253494 172.73760986 375.67214966 C158.54787789 375.56971907 158.54787789 375.56971907 153 371 C150.97172156 368.82133318 149.2629 366.50250734 147.5625 364.0625 C146.51823302 362.61884612 145.47258805 361.1761883 144.42578125 359.734375 C143.8735791 358.96673828 143.32137695 358.19910156 142.75244141 357.40820312 C139.65728102 353.154837 136.44802365 348.98873351 133.25 344.8125 C131.88908041 343.02883084 130.52840615 341.24497446 129.16796875 339.4609375 C127.77866714 337.64060874 126.38934399 335.82029642 125 334 C109.28699714 313.40707074 109.28699714 313.40707074 102.45703125 304.265625 C99.06208931 299.73903575 95.62006808 295.24806783 92.1875 290.75 C87.43281871 284.51881879 82.69258932 278.27808753 78 272 C70.73376483 262.28232541 63.36181355 252.64533111 56 243 C40.291998 222.41362469 40.291998 222.41362469 33.4453125 213.25 C30.11676976 208.81194301 26.74106525 204.40960911 23.375 200 C18.05090721 193.0239457 12.75655445 186.02708067 7.5 179 C-0.26888047 168.61730968 -8.12975831 158.30595394 -16 148 C-23.84212582 137.72768508 -31.6791864 127.45313625 -39.41845703 117.10302734 C-43.62514488 111.48418544 -47.87114072 105.8956903 -52.125 100.3125 C-52.80433594 99.42006592 -53.48367187 98.52763184 -54.18359375 97.6081543 C-57.18405502 93.67150542 -60.19206355 89.74208795 -63.2421875 85.84375 C-63.95157471 84.93435669 -63.95157471 84.93435669 -64.67529297 84.0065918 C-65.90440303 82.43475348 -67.13945485 80.8675663 -68.375 79.30078125 C-70 77 -70 77 -70 75 C-75.27608692 74.98669542 -75.27608692 74.98669542 -79.76318359 77.41845703 C-81.51486419 79.39877804 -83.11043338 81.44042281 -84.6875 83.5625 C-85.90613233 85.12248776 -87.12488514 86.68238142 -88.34375 88.2421875 C-88.9521875 89.0372168 -89.560625 89.83224609 -90.1875 90.65136719 C-92.94566487 94.22539009 -95.82109637 97.70024262 -98.6875 101.1875 C-103.11159242 106.62285141 -107.45649664 112.11526549 -111.76635742 117.64135742 C-116.01367879 123.06436551 -120.4038846 128.36540752 -124.79736328 133.67016602 C-129.00261087 138.75887383 -133.11137956 143.91349234 -137.17236328 149.11767578 C-140.57515461 153.47440345 -144.05120943 157.76517612 -147.5625 162.03515625 C-154.60562646 170.60203603 -161.61466049 179.1938018 -168.4375 187.9375 C-169.78419562 189.65300231 -171.13331634 191.36654491 -172.484375 193.07861328 C-173.58283914 194.47115722 -174.67888213 195.8656121 -175.7734375 197.26123047 C-177.64878907 199.64286861 -179.54122071 202.01000517 -181.4375 204.375 C-182.02909912 205.13159912 -182.62069824 205.88819824 -183.23022461 206.66772461 C-184.07339233 207.71005249 -184.07339233 207.71005249 -184.93359375 208.7734375 C-185.6769397 209.70808838 -185.6769397 209.70808838 -186.43530273 210.66162109 C-188 212 -188 212 -192 212 C-194.3046875 210.453125 -194.3046875 210.453125 -196.875 208.25 C-197.82890625 207.43660156 -198.7828125 206.62320313 -199.765625 205.78515625 C-200.28060547 205.33930176 -200.79558594 204.89344727 -201.32617188 204.43408203 C-203.13024801 202.8884077 -204.96088995 201.378695 -206.796875 199.87109375 C-208.0733605 198.81042975 -209.34940778 197.74923812 -210.625 196.6875 C-211.54901611 195.93291504 -211.54901611 195.93291504 -212.49169922 195.16308594 C-217.66404617 190.79869074 -217.66404617 190.79869074 -218 187 C-217.12646484 185.08740234 -217.12646484 185.08740234 -215.7109375 183.0859375 C-215.18830322 182.33449463 -214.66566895 181.58305176 -214.12719727 180.80883789 C-213.54897217 180.00567139 -212.97074707 179.20250488 -212.375 178.375 C-211.78323975 177.53251709 -211.19147949 176.69003418 -210.58178711 175.82202148 C-208.73598593 173.20377537 -206.87141569 170.59998588 -205 168 C-204.44876465 167.23220215 -203.8975293 166.4644043 -203.32958984 165.67333984 C-201.21025425 162.72568377 -199.08555296 159.78206429 -196.95092773 156.84545898 C-191.08540489 148.77388831 -185.38925514 140.58585065 -179.68017578 132.40332031 C-177.08994234 128.69825521 -174.48384623 125.00447372 -171.875 121.3125 C-171.38765381 120.622771 -170.90030762 119.93304199 -170.39819336 119.22241211 C-169.42149396 117.84041899 -168.44468782 116.45850131 -167.46777344 115.07666016 C-165.47881039 112.26260166 -163.49164676 109.44727504 -161.50463867 106.63183594 C-160.50237612 105.21178781 -159.49993499 103.7918657 -158.49731445 102.37207031 C-156.00689439 98.84522401 -153.51871538 95.31683792 -151.03515625 91.78515625 C-145.92767914 84.52764888 -140.77954977 77.30420414 -135.5625 70.125 C-131.10397493 63.98496645 -126.76294842 57.77727339 -122.5 51.5 C-118.11449142 45.05095716 -113.67159618 38.64921942 -109.125 32.3125 C-108.61388672 31.59449219 -108.10277344 30.87648438 -107.57617188 30.13671875 C-95.6984107 13.68347759 -81.92589933 5.87937804 -62.4375 0.6875 C-61.49245605 0.43291016 -60.54741211 0.17832031 -59.57373047 -0.08398438 C-41.13982202 -4.75692128 -18.27472183 -5.68492682 0 0 Z " fill="#FEFEFE" transform="translate(307,437)"/>
<path d="M0 0 C0.75925781 -0.01675781 1.51851562 -0.03351563 2.30078125 -0.05078125 C5.46431557 0.4307387 7.08689062 1.41570978 9.6875 3.3125 C11.34532317 5.65944762 12.78248952 7.9084897 14.19140625 10.39453125 C14.59656967 11.0863298 15.00173309 11.77812836 15.41917419 12.4908905 C16.70753974 14.69584245 17.97916967 16.90990394 19.25 19.125 C20.52788038 21.32720179 21.80912812 23.52740746 23.09153748 25.72697449 C23.88634237 27.09292442 24.67793198 28.46075224 25.4657135 29.83076477 C27.20658119 32.84671286 28.98450025 35.78664528 30.96069336 38.6550293 C32.6875 41.3125 32.6875 41.3125 32.6875 43.3125 C33.2959375 42.9721875 33.904375 42.631875 34.53125 42.28125 C63.55281676 26.23403073 93.68249761 14.18879971 126.6875 9.3125 C127.8324292 9.13589844 128.9773584 8.95929688 130.15698242 8.77734375 C140.148142 7.36550185 149.96636597 7.00190736 160.05053711 7.05175781 C162.61921862 7.06247588 165.18719887 7.05179197 167.75585938 7.0390625 C227.26545228 6.98386342 285.73979696 29.43512408 330.6875 68.3125 C331.42685791 68.94333496 331.42685791 68.94333496 332.18115234 69.58691406 C333.71464895 70.90051122 335.23420299 72.22853902 336.75 73.5625 C337.64847656 74.35140625 338.54695313 75.1403125 339.47265625 75.953125 C343.21853697 79.94344591 344.16622806 83.76996056 343.99731445 89.23339844 C342.87123581 96.79028241 336.74474148 104.03998474 332.625 110.25 C331.28057452 112.28601246 329.93683043 114.32247501 328.59375 116.359375 C327.93246094 117.36162109 327.27117187 118.36386719 326.58984375 119.39648438 C324.85011619 122.06323309 323.14954004 124.74896786 321.46875 127.453125 C320.98414307 128.22664307 320.49953613 129.00016113 320.00024414 129.79711914 C319.11200577 131.21990892 318.2328892 132.64845296 317.36499023 134.08374023 C314.71173054 138.30214003 312.17893799 140.89218087 307.6875 143.3125 C302.50368215 143.94910921 299.92986493 143.19984091 295.6875 140.3125 C293.8840986 138.70241881 292.11619268 137.05216013 290.375 135.375 C263.44752753 110.13394598 229.39288118 94.46307564 193.6875 86.3125 C192.55006348 86.05146484 192.55006348 86.05146484 191.38964844 85.78515625 C181.21287355 83.512171 171.08523892 82.58501286 160.6875 82.3125 C159.81706055 82.28526855 158.94662109 82.25803711 158.04980469 82.22998047 C130.01700378 81.44608751 101.18245343 85.76637667 75.375 97.1484375 C73.12673301 98.12225082 71.0777908 98.81835334 68.6875 99.3125 C70.66161957 104.13612497 72.89676507 108.64335399 75.55859375 113.12890625 C75.92219498 113.74845688 76.2857962 114.36800751 76.66041565 115.0063324 C77.42409212 116.30574009 78.18973767 117.60399239 78.95727539 118.90112305 C80.12256573 120.8708852 81.28150344 122.84427478 82.43945312 124.81835938 C83.18713055 126.08875917 83.93516551 127.35894863 84.68359375 128.62890625 C85.02539169 129.21031876 85.36718964 129.79173126 85.71934509 130.39076233 C87.37289816 133.18143083 89.0822937 135.89520367 90.90234375 138.58154297 C93.17073473 142.05175925 93.3277843 144.16374534 93.14453125 148.1953125 C92.23116944 152.42644155 89.16688073 154.27693349 85.8125 156.625 C79.3056462 158.73015858 72.09073303 156.61531221 65.59912109 155.34057617 C64.5039769 155.1308165 63.4088327 154.92105682 62.28050232 154.7049408 C58.67263843 154.01188178 55.06674642 153.30913535 51.4609375 152.60546875 C48.94948886 152.1191184 46.43798288 151.63306411 43.92642212 151.14729309 C38.66849142 150.12862508 33.41155984 149.10498634 28.15527344 148.07788086 C22.08651182 146.89214586 16.01551137 145.71843549 9.94329202 144.55054873 C4.08912717 143.4240909 -1.76288824 142.28675534 -7.61411667 141.14513588 C-10.09903367 140.661664 -12.58455117 140.18126802 -15.07066727 139.70400047 C-18.54330797 139.03618046 -22.01330614 138.35600385 -25.48291016 137.67260742 C-26.51056992 137.477677 -27.53822968 137.28274658 -28.59703064 137.08190918 C-34.348481 135.933294 -38.67238252 134.67950188 -43.125 130.6875 C-47.13345958 122.67058084 -42.69704552 112.90179739 -40.18359375 105.0234375 C-39.75082637 103.63443621 -39.31921466 102.24507438 -38.88868713 100.8553772 C-37.75337459 97.20122824 -36.60307241 93.55197487 -35.44927979 89.90362549 C-34.3032786 86.27177098 -33.17051391 82.63580125 -32.03710938 79 C-30.49361007 74.05223824 -28.94646471 69.1056501 -27.39421558 64.16062641 C-23.22979983 50.89032799 -19.13563894 37.59753757 -15.23828125 24.24609375 C-14.96306641 23.30958984 -14.68785156 22.37308594 -14.40429688 21.40820312 C-13.86590677 19.57173964 -13.33513292 17.73303228 -12.81054688 15.89257812 C-8.10754081 0.04087836 -8.10754081 0.04087836 0 0 Z " fill="#FEFDFE" transform="translate(529.3125,367.6875)"/>
<path d="M0 0 C36.3 0 72.6 0 110 0 C110 66 110 132 110 200 C73.7 200 37.4 200 0 200 C0 134 0 68 0 0 Z " fill="#FFFFFF" transform="translate(803,27)"/>
<path d="M0 0 C36.3 0 72.6 0 110 0 C110 51.81 110 103.62 110 157 C73.7 157 37.4 157 0 157 C0 105.19 0 53.38 0 0 Z " fill="#FFFFFF" transform="translate(803,856)"/>
<path d="M0 0 C15.30014912 11.73090749 25.70442083 27.99556408 29.07421875 47.05078125 C30.54285028 69.73223753 26.63786102 89.23036652 11.34765625 106.66015625 C-0.29832546 118.90644629 -16.07028518 129.08888314 -33.41430664 130.21191406 C-55.91399685 130.57403128 -75.02528801 127.06488498 -91.92578125 111.05078125 C-105.336683 97.95072821 -113.91435653 80.93573806 -114.16796875 62.04321289 C-114.21876943 42.17855779 -109.50634475 25.10885976 -95.92578125 10.05078125 C-95.43078125 9.46425781 -94.93578125 8.87773437 -94.42578125 8.2734375 C-69.99319979 -18.66348356 -28.84113916 -19.21459071 0 0 Z " fill="#FEFDFE" transform="translate(248.92578125,299.94921875)"/>
<path d="M0 0 C2.25850392 0.96171362 3.65424829 2.01842104 5.46484375 3.67578125 C6.15707031 4.30355469 6.84929688 4.93132812 7.5625 5.578125 C8.78259766 6.70927734 8.78259766 6.70927734 10.02734375 7.86328125 C11.04664494 8.80233312 12.06619162 9.74111855 13.0859375 10.6796875 C15.32328655 12.74159743 17.55691801 14.80745842 19.7890625 16.875 C24.1602831 20.91738356 28.59150165 24.89207728 33.02734375 28.86328125 C38.43072233 33.70799064 43.81098798 38.575372 49.15234375 43.48828125 C52.38951591 46.46546406 55.63872104 49.42280981 58.96484375 52.30078125 C63.09645275 55.88265434 67.09664302 59.60166083 71.10693359 63.31787109 C75.20158746 67.10965545 79.33567382 70.85415909 83.4921875 74.578125 C86.39647641 77.19601254 89.2750515 79.84081328 92.15234375 82.48828125 C95.38945404 85.46552944 98.63872295 88.42281146 101.96484375 91.30078125 C106.14766386 94.92472769 110.19006182 98.69583871 114.24755859 102.45849609 C117.76216404 105.71192912 121.32343042 108.89736887 124.9453125 112.03125 C127.6325095 114.3957817 130.26782575 116.81548405 132.90234375 119.23828125 C143.77275984 129.26992201 143.77275984 129.26992201 155.02734375 138.86328125 C154.52507633 143.29736081 153.07610746 145.34852076 150.02734375 148.55078125 C149.21910156 149.41316406 148.41085937 150.27554688 147.578125 151.1640625 C146.73636719 152.05480469 145.89460937 152.94554687 145.02734375 153.86328125 C143.418709 155.65093736 141.81436551 157.4424666 140.21484375 159.23828125 C138.82863767 160.78861009 137.43336792 162.33090309 136.02734375 163.86328125 C135.36347656 164.63929688 134.69960938 165.4153125 134.015625 166.21484375 C132.02734375 167.86328125 132.02734375 167.86328125 129.9921875 167.7890625 C127.82239952 166.76671707 126.36031939 165.67141709 124.58984375 164.05078125 C123.89761719 163.42300781 123.20539063 162.79523438 122.4921875 162.1484375 C121.27208984 161.01728516 121.27208984 161.01728516 120.02734375 159.86328125 C119.00804256 158.92422938 117.98849588 157.98544395 116.96875 157.046875 C114.73140095 154.98496507 112.49776949 152.91910408 110.265625 150.8515625 C105.8944044 146.80917894 101.46318585 142.83448522 97.02734375 138.86328125 C91.62396517 134.01857186 86.24369952 129.1511905 80.90234375 124.23828125 C77.66517159 121.26109844 74.41596646 118.30375269 71.08984375 115.42578125 C66.9558989 111.84188312 62.95315985 108.12102518 58.94116211 104.40209961 C55.70272107 101.40247202 52.44442535 98.42920748 49.15234375 95.48828125 C44.84512177 91.63148772 40.62060415 87.69163924 36.40234375 83.73828125 C31.9676795 79.58403544 27.51925141 75.46585683 22.9140625 71.5 C20.59075588 69.48454353 18.3098591 67.42479663 16.02734375 65.36328125 C13.0905591 62.71214131 10.14131833 60.08037954 7.15234375 57.48828125 C3.24094434 54.08157854 -0.57850944 50.57725745 -4.39428711 47.06445312 C-7.71036409 44.01330557 -11.05094213 40.99204947 -14.41015625 37.98828125 C-15.93263985 36.61510875 -17.45370119 35.24035589 -18.97265625 33.86328125 C-19.53210938 33.35925781 -20.0915625 32.85523438 -20.66796875 32.3359375 C-23.17121355 29.98288738 -24.73782142 28.34772245 -24.97265625 24.86328125 C-23.48828125 22.70703125 -23.48828125 22.70703125 -21.22265625 20.36328125 C-20.40023437 19.49574219 -19.5778125 18.62820312 -18.73046875 17.734375 C-17.82039062 16.78691406 -16.9103125 15.83945313 -15.97265625 14.86328125 C-14.00327609 12.72748386 -12.05169104 10.57561374 -10.09765625 8.42578125 C-8.39743489 6.56369031 -6.68839022 4.71121112 -4.97265625 2.86328125 C-4.45445312 2.23292969 -3.93625 1.60257813 -3.40234375 0.953125 C-1.97265625 -0.13671875 -1.97265625 -0.13671875 0 0 Z " fill="#FEFDFD" transform="translate(699.97265625,176.13671875)"/>
<path d="M0 0 C7.89118563 2.89880289 14.09939835 13.41464197 19.10546875 19.7734375 C19.70746094 20.41796875 20.30945313 21.0625 20.9296875 21.7265625 C22.10546875 23.7734375 22.10546875 23.7734375 22.140625 26.68359375 C20.8285685 30.59995863 18.61734995 32.63130032 15.54296875 35.2109375 C14.99431152 35.69119385 14.4456543 36.1714502 13.88037109 36.66625977 C12.29869584 38.04737878 10.70293546 39.41065969 9.10546875 40.7734375 C7.8128122 41.91815399 6.52098664 43.06381049 5.23046875 44.2109375 C2.82135531 46.30581875 0.39447177 48.37892792 -2.0390625 50.4453125 C-8.56379986 55.99477333 -14.95845274 61.63614521 -21.21411133 67.48754883 C-24.4678479 70.5118077 -27.79694044 73.37344248 -31.26953125 76.1484375 C-37.29122493 80.9798989 -42.8489104 86.26555421 -48.46484375 91.5546875 C-52.66262047 95.50659767 -56.9774363 99.29689523 -61.37207031 103.02783203 C-69.07245572 109.56748087 -76.61862041 116.22434967 -84.015625 123.10546875 C-88.58592305 127.340901 -93.28617788 131.40869941 -98.03515625 135.44140625 C-98.61023926 135.9310083 -99.18532227 136.42061035 -99.77783203 136.92504883 C-100.98042375 137.94879774 -102.18452742 138.97077324 -103.39013672 139.9909668 C-106.52047754 142.66017499 -109.56251934 145.38107276 -112.51171875 148.25 C-113.09091064 148.80856689 -113.67010254 149.36713379 -114.2668457 149.94262695 C-115.37174351 151.01688192 -116.46469458 152.10359943 -117.54370117 153.20385742 C-121.21825931 156.76442054 -121.21825931 156.76442054 -124.53125 156.80859375 C-131.83904301 153.60765962 -136.99378743 145.3607049 -141.81640625 139.2890625 C-143.81025642 136.73370956 -143.81025642 136.73370956 -146.22265625 134.7578125 C-147.89453125 132.7734375 -147.89453125 132.7734375 -148.0234375 130.390625 C-146.43394643 126.70564569 -143.80336113 124.4736725 -140.83203125 121.8984375 C-140.23640381 121.36669922 -139.64077637 120.83496094 -139.02709961 120.28710938 C-137.325277 118.77191142 -135.61151026 117.27140866 -133.89453125 115.7734375 C-133.18554688 115.14179687 -132.4765625 114.51015625 -131.74609375 113.859375 C-128.78380298 111.23341418 -125.77125294 108.66771976 -122.75390625 106.10546875 C-116.22825594 100.55427407 -109.83194497 94.91197871 -103.57495117 89.05932617 C-100.3212146 86.0350673 -96.99212206 83.17343252 -93.51953125 80.3984375 C-87.49783757 75.5669761 -81.9401521 70.28132079 -76.32421875 64.9921875 C-72.12644203 61.04027733 -67.8116262 57.24997977 -63.41699219 53.51904297 C-55.71660678 46.97939413 -48.17044209 40.32252533 -40.7734375 33.44140625 C-36.19106734 29.19478641 -31.47621443 25.11839137 -26.71875 21.0703125 C-25.5271015 20.05497175 -24.33570277 19.03933779 -23.14453125 18.0234375 C-22.24891479 17.26003052 -22.24891479 17.26003052 -21.33520508 16.48120117 C-16.17880778 12.06390829 -11.18306235 7.49092846 -6.22265625 2.85546875 C-2.67232381 -0.31957687 -2.67232381 -0.31957687 0 0 Z " fill="#FEFDFD" transform="translate(827.89453125,720.2265625)"/>
<path d="M0 0 C10.16391275 6.18484904 16.54094384 14.25655122 19.75390625 25.67578125 C20.93399 37.3275555 19.70319437 46.72924103 12.76953125 56.4609375 C7.87246346 62.35652089 2.84048678 65.85992144 -4.24609375 68.67578125 C-5.39658203 69.21912109 -5.39658203 69.21912109 -6.5703125 69.7734375 C-15.62069414 72.82546401 -26.20806949 71.29224421 -34.62890625 67.21875 C-42.07667141 62.82790337 -47.02282778 57.17503859 -51.24609375 49.67578125 C-51.58769531 49.08539063 -51.92929687 48.495 -52.28125 47.88671875 C-55.87072728 40.30707835 -55.36739087 30.32347656 -53.4375 22.32421875 C-49.70922074 12.33913865 -42.98314408 4.47894074 -33.484375 -0.38671875 C-22.59739431 -4.94671066 -10.70469352 -5.17029415 0 0 Z " fill="#FEFDFD" transform="translate(640.24609375,96.32421875)"/>
<path d="M0 0 C6.68924501 4.58785389 11.70236105 10.11920942 14 18 C15.0944687 26.73449782 14.49506175 35.14312365 9.265625 42.41015625 C3.20827368 49.62967382 -2.4855088 53.40234026 -11.98046875 54.2734375 C-21.12141347 54.56291931 -27.35992491 53.09371813 -34.2890625 46.98046875 C-40.87480621 40.14326937 -43.05995502 33.94645916 -43.5 24.5625 C-43.27531103 16.85117448 -41.11157795 11.40819566 -35.91015625 5.7109375 C-26.06396154 -3.54616864 -12.40501826 -6.77259269 0 0 Z " fill="#FDFCFD" transform="translate(672,896)"/>
<path d="M0 0 C5.30146589 3.81282963 9.70858872 9.06003764 11.15625 15.55078125 C12.18580794 24.27914471 11.35438004 31.32315459 6.15625 38.55078125 C1.49262544 43.77935795 -3.83696366 47.07815901 -10.82421875 47.90234375 C-19.47052111 48.28752486 -26.1380294 46.74804475 -32.6875 40.90625 C-38.88966533 34.17203617 -40.49279551 27.87608957 -40.25390625 18.83984375 C-39.40758289 12.05313646 -36.48276019 6.73115068 -31.46875 2.11328125 C-21.95040831 -5.06615169 -10.50641764 -6.05483484 0 0 Z " fill="#FDFCFD" transform="translate(582.84375,957.44921875)"/>
<path d="M0 0 C6.39790738 3.6206807 10.34929659 9.0601297 12.625 16 C13.47436099 23.71338291 13.32010701 30.60310663 8.625 37 C3.89517139 42.32105718 -0.90854402 46.39983972 -8.13671875 47.37109375 C-15.6088305 47.54068774 -21.28279776 46.50953049 -27.375 42 C-32.80310469 36.41423252 -35.65013017 30.65400777 -35.8125 22.8125 C-35.66847977 15.32344817 -33.90401856 9.42229421 -28.4375 4.12109375 C-19.94273042 -2.55566643 -10.12650993 -4.55003547 0 0 Z " fill="#FDFCFD" transform="translate(370.375,85)"/>
<path d="M0 0 C5.69306468 3.3446755 9.56747213 8.19009719 11.625 14.4375 C12.53280541 21.4993816 11.9576755 27.64793069 7.625 33.4375 C3.36057863 37.9747635 -0.88906203 41.02399563 -7.20703125 41.7734375 C-14.87832885 41.87397875 -20.4177899 41.16505058 -26.125 35.7890625 C-31.3506618 30.03580984 -32.86028929 24.95177834 -32.68359375 17.21875 C-31.9170075 10.30977017 -28.47793004 6.00327484 -23.25390625 1.6640625 C-16.48277267 -2.75617855 -7.39669183 -3.32067283 0 0 Z " fill="#FDFBFC" transform="translate(461.375,158.5625)"/>
<path d="M0 0 C0.66 0.33 1.32 0.66 2 1 C-0.97 3.97 -3.94 6.94 -7 10 C-7 6.04435836 -5.59478606 4.89133304 -3 2 C-2.01 1.34 -1.02 0.68 0 0 Z " fill="#F2DFE9" transform="translate(346,86)"/>
</svg>
