<?xml version="1.0" encoding="UTF-8"?>
<svg version="1.1" xmlns="http://www.w3.org/2000/svg" width="1040" height="1040">
<path d="M0 0 C325.38 0 650.76 0 986 0 C986 325.38 986 650.76 986 986 C660.62 986 335.24 986 0 986 C0 660.62 0 335.24 0 0 Z " fill="#EC204A" transform="translate(27,27)"/>
<path d="M0 0 C1.22396484 0.67869141 1.22396484 0.67869141 2.47265625 1.37109375 C3.52582031 1.89574219 4.57898438 2.42039063 5.6640625 2.9609375 C23.26267581 11.83192151 39.57704429 22.48243074 54.47265625 35.37109375 C55.3028125 36.07234375 56.13296875 36.77359375 56.98828125 37.49609375 C58.85054623 39.08825923 60.6623119 40.72050012 62.47265625 42.37109375 C63.0155127 42.84514648 63.55836914 43.31919922 64.11767578 43.80761719 C69.44695197 48.73148939 72.54361421 54.31051762 75.78515625 60.74609375 C76.34348145 61.84026611 76.90180664 62.93443848 77.47705078 64.06176758 C98.8837902 106.79885924 109.91208126 153.4039282 109.91015625 201.12109375 C109.91275452 202.66434326 109.91275452 202.66434326 109.91540527 204.23876953 C109.90454384 219.0720556 109.12673878 233.65891005 107.22265625 248.37109375 C107.12032684 249.1863855 107.01799744 250.00167725 106.91256714 250.8416748 C104.87682292 266.60940256 104.87682292 266.60940256 100.47265625 273.37109375 C97.84765625 275.30859375 97.84765625 275.30859375 95.47265625 276.37109375 C94.81265625 276.70109375 94.15265625 277.03109375 93.47265625 277.37109375 C66.76941001 279.48138953 66.76941001 279.48138953 57.47265625 273.37109375 C54.86222566 269.9735702 54.07784036 267.79042825 54.59765625 263.55859375 C54.71496094 262.58921875 54.83226562 261.61984375 54.953125 260.62109375 C55.5192279 257.07975835 56.20752553 253.5753506 56.91015625 250.05859375 C64.97330262 208.79861852 61.23182655 164.52217713 49.47265625 124.37109375 C49.07694465 122.95215156 48.68247485 121.53286264 48.2890625 120.11328125 C45.89159524 111.58059277 43.13489717 103.45919177 39.47265625 95.37109375 C37.05192408 95.13588753 37.05192408 95.13588753 34.6796875 98.15234375 C33.54238241 99.38661268 32.41122141 100.62656174 31.28515625 101.87109375 C30.69508789 102.51530273 30.10501953 103.15951172 29.49707031 103.82324219 C25.99679768 107.65558702 22.53620016 111.52025576 19.14453125 115.44921875 C17.11507552 117.78214449 15.04500925 120.0762062 12.97265625 122.37109375 C8.17357833 127.69444068 3.43187675 133.05972714 -1.20703125 138.5234375 C-7.27532482 145.66130795 -13.47836558 152.63278637 -19.859375 159.4921875 C-24.09480725 164.06248555 -28.16260566 168.76274038 -32.1953125 173.51171875 C-35.28661684 177.14839748 -38.39831283 180.76682801 -41.52734375 184.37109375 C-42.28869629 185.24967041 -42.28869629 185.24967041 -43.06542969 186.14599609 C-49.61337141 193.64471751 -56.15448 199.87364768 -64.52734375 205.37109375 C-65.70498843 206.15540779 -66.88204044 206.94061224 -68.05859375 207.7265625 C-69.96099641 208.99524497 -71.86436904 210.26233129 -73.77099609 211.5246582 C-80.47885847 215.97316365 -87.03063067 220.620567 -93.52734375 225.37109375 C-94.17348633 225.84305176 -94.81962891 226.31500977 -95.48535156 226.80126953 C-103.79328272 232.89254659 -111.8300855 239.19311186 -119.63671875 245.9140625 C-122.11484229 248.02046751 -124.62694757 250.02802585 -127.21484375 251.99609375 C-140.46233045 262.03377623 -140.46233045 262.03377623 -147.19895935 276.71031189 C-147.8938775 282.71154537 -146.64794826 288.47248353 -145.62133789 294.37719727 C-145.40690536 295.66434631 -145.19247284 296.95149536 -144.97154236 298.27764893 C-144.50721784 301.06427015 -144.03581535 303.84956476 -143.5587635 306.63403511 C-142.80379604 311.04113557 -142.06508767 315.45086873 -141.32847595 319.86106873 C-140.16123063 326.83795836 -138.98342202 333.81301534 -137.8009457 340.7873382 C-135.68379528 353.27495457 -133.57937013 365.76470558 -131.4867391 378.25645393 C-130.75256841 382.63601899 -130.01207557 387.01445352 -129.26639378 391.3920728 C-128.91480137 393.46078511 -128.56577796 395.52991169 -128.21784973 397.59924316 C-127.79449085 400.11645997 -127.36702632 402.63299125 -126.93460083 405.14866638 C-125.06827274 416.32467161 -125.06827274 416.32467161 -125.52734375 421.37109375 C-128.87995621 425.13256138 -132.00152801 425.98584418 -136.89453125 426.63671875 C-138.11011719 426.80429687 -139.32570312 426.971875 -140.578125 427.14453125 C-141.84011719 427.30179688 -143.10210937 427.4590625 -144.40234375 427.62109375 C-145.65660156 427.79382813 -146.91085938 427.9665625 -148.203125 428.14453125 C-163.03053592 430.12151937 -163.03053592 430.12151937 -168.34765625 428.5234375 C-171.92684397 424.98914998 -171.83629594 420.78740705 -172.40234375 415.93359375 C-172.72371772 413.5503959 -173.04816778 411.16761169 -173.375 408.78515625 C-173.46192612 408.13157639 -173.54885223 407.47799652 -173.63841248 406.80461121 C-174.36481331 401.38183247 -175.20686972 395.981996 -176.0859375 390.58203125 C-176.22640503 389.71877731 -176.36687256 388.85552338 -176.51159668 387.96611023 C-176.80451749 386.16796471 -177.0975908 384.36984402 -177.39080811 382.57174683 C-180.54095924 363.18720598 -183.3931374 343.76489549 -186.13012695 324.31811523 C-186.26658127 323.34881577 -186.40303558 322.3795163 -186.54362488 321.38084412 C-186.81176968 319.47368803 -187.07920744 317.56643238 -187.34590149 315.65907288 C-188.11722685 310.17004153 -188.9363916 304.69070562 -189.7897644 299.21386719 C-194.57913216 268.29640767 -194.57913216 268.29640767 -186.6328125 257.03515625 C-185.59060547 255.71644531 -185.59060547 255.71644531 -184.52734375 254.37109375 C-183.86347656 253.45070313 -183.19960937 252.5303125 -182.515625 251.58203125 C-180.67552193 249.05826697 -178.79040416 246.57838011 -176.87402344 244.11230469 C-175.36295489 242.15854456 -173.870178 240.19156592 -172.37890625 238.22265625 C-166.91443766 231.01880021 -161.37829745 223.91259071 -155.60546875 216.953125 C-152.06740011 212.55714122 -148.79293882 207.9714007 -145.52734375 203.37109375 C-146.91511322 200.20159334 -148.50348992 198.20630037 -151.046875 195.875 C-151.73974609 195.23369141 -152.43261719 194.59238281 -153.14648438 193.93164062 C-153.87029297 193.27228516 -154.59410156 192.61292969 -155.33984375 191.93359375 C-156.7636986 190.62313187 -158.18689046 189.3119492 -159.609375 188 C-160.28822754 187.3827002 -160.96708008 186.76540039 -161.66650391 186.12939453 C-163.28999002 184.59536842 -164.74998226 183.0077012 -166.2265625 181.3359375 C-168.33963032 179.11191042 -168.33963032 179.11191042 -171.0234375 179.31640625 C-174.02531075 180.58084584 -176.1025265 182.13768908 -178.58984375 184.24609375 C-179.55019531 185.05820312 -180.51054687 185.8703125 -181.5 186.70703125 C-185.07868433 189.82809813 -188.56591583 193.0471048 -192.04296875 196.28051758 C-196.14972045 200.0815179 -200.44269495 203.60685574 -204.80078125 207.1171875 C-208.64125405 210.29190499 -212.2989685 213.64936577 -215.95703125 217.03125 C-218.2009328 219.07395065 -220.4980603 221.00585186 -222.83984375 222.93359375 C-232.19502472 231.1193771 -235.59406471 241.59110509 -236.703125 253.640625 C-236.793591 254.53119598 -236.88405701 255.42176697 -236.9772644 256.33932495 C-237.27431372 259.28655048 -237.55687281 262.23498624 -237.83984375 265.18359375 C-238.04820544 267.26743719 -238.25762148 269.35117544 -238.46801758 271.43481445 C-239.50726303 281.77913829 -240.50407535 292.12762324 -241.50763035 302.47545719 C-242.04166799 307.97854803 -242.58042715 313.48116883 -243.12133694 318.98358822 C-243.45182246 322.35103622 -243.77867805 325.71876637 -244.09780884 329.08731079 C-244.45724835 332.87396022 -244.8254996 336.65966423 -245.1953125 340.4453125 C-245.30036102 341.57967743 -245.40540955 342.71404236 -245.51364136 343.88278198 C-245.61766266 344.93039703 -245.72168396 345.97801208 -245.82885742 347.05737305 C-245.91592453 347.96738571 -246.00299164 348.87739838 -246.09269714 349.81498718 C-246.56246862 352.57765908 -247.30539208 354.85068372 -248.52734375 357.37109375 C-255.47834273 360.84659324 -268.05246394 358.4035169 -275.71484375 357.62109375 C-276.42068604 357.55946045 -277.12652832 357.49782715 -277.85375977 357.43432617 C-282.49145445 356.89695402 -285.39853161 355.88950894 -288.52734375 352.37109375 C-289.97976658 345.14960682 -288.33041252 337.32012807 -287.09765625 330.140625 C-286.38930309 325.45870171 -285.95239816 320.77340863 -285.52734375 316.05859375 C-284.70827063 307.13305943 -283.77306794 298.24920271 -282.52734375 289.37109375 C-282.40133789 288.46891113 -282.27533203 287.56672852 -282.14550781 286.63720703 C-280.37393298 274.14821816 -278.3234831 261.71752208 -275.91003418 249.3369751 C-275.53778955 247.42475382 -275.173563 245.51097716 -274.80957031 243.59716797 C-271.66460103 227.86165339 -265.70434312 218.42454602 -254.71484375 206.99609375 C-253.28565913 205.49424972 -251.85726762 203.99165052 -250.4296875 202.48828125 C-249.75147949 201.77510742 -249.07327148 201.06193359 -248.37451172 200.32714844 C-245.43068544 197.20978971 -242.57567415 194.0165594 -239.72265625 190.81640625 C-237.06000817 187.85053846 -234.35890626 184.92185272 -231.65234375 181.99609375 C-226.81866852 176.76996027 -221.9945346 171.5354865 -217.19140625 166.28125 C-215.42054628 164.3468062 -213.64452211 162.41707681 -211.86328125 160.4921875 C-208.09764818 156.40232318 -204.44724068 152.35183522 -201.15234375 147.87109375 C-195.32867112 140.21556166 -187.67959757 134.05487141 -180.21484375 128.05859375 C-174.1763828 123.20157081 -168.59418625 117.89900572 -162.95703125 112.58984375 C-158.75925453 108.63793358 -154.4444387 104.84763602 -150.04980469 101.11669922 C-148.31174984 99.64063435 -146.57528952 98.16272537 -144.83984375 96.68359375 C-144.23865723 96.17127197 -143.6374707 95.6589502 -143.01806641 95.13110352 C-138.30231761 91.08876415 -133.74319533 86.8993241 -129.20776367 82.65698242 C-125.9540271 79.63272355 -122.62493456 76.77108877 -119.15234375 73.99609375 C-113.13065007 69.16463235 -107.5729646 63.87897704 -101.95703125 58.58984375 C-97.75925453 54.63793358 -93.4444387 50.84763602 -89.04980469 47.11669922 C-81.34941928 40.57705038 -73.80325459 33.92018158 -66.40625 27.0390625 C-63.55451491 24.39627408 -60.67663763 21.80100734 -57.72265625 19.2734375 C-55.93961824 17.7283494 -54.19615196 16.15608101 -52.45703125 14.5625 C-37.86239335 1.35305929 -20.00023097 -9.9143512 0 0 Z " fill="#FEFDFD" transform="translate(353.52734375,225.62890625)"/>
<path d="M0 0 C0.94840759 0.17529236 1.89681519 0.35058472 2.8739624 0.53118896 C5.97499941 1.1069675 9.07338935 1.69581558 12.171875 2.28515625 C14.35535977 2.69369813 16.53895543 3.10164772 18.72265625 3.5090332 C35.38159089 6.62881807 52.01788224 9.86839946 68.64160156 13.17041016 C77.38775936 14.90372996 86.13490064 16.59093781 94.921875 18.10546875 C95.69789063 18.2404628 96.47390625 18.37545685 97.2734375 18.51454163 C100.84754417 19.13521331 104.42282316 19.74198012 108.00390625 20.32104492 C119.05498306 22.21665175 119.05498306 22.21665175 123.921875 26.34765625 C125.0975 27.12109375 125.0975 27.12109375 126.296875 27.91015625 C128.98910865 31.94850672 128.82580136 36.66186149 127.921875 41.34765625 C125.59729724 44.80880853 122.96028885 47.31810713 119.671875 49.84765625 C115.04399154 53.46233446 110.47245868 57.13659883 105.921875 60.84765625 C99.94583103 65.71143746 93.95134769 70.55016717 87.921875 75.34765625 C88.72625 76.27578125 89.530625 77.20390625 90.359375 78.16015625 C93.07410822 81.31563439 95.68949036 84.54061176 98.296875 87.78515625 C101.62829102 91.87978965 105.11538458 95.60161925 108.90625 99.265625 C111.17571878 101.6098631 113.15515578 104.09573091 115.171875 106.66015625 C121.29798807 114.2887012 128.59000742 120.48365137 135.984375 126.84765625 C139.234166 129.65429393 142.22819581 132.65703284 145.234375 135.72265625 C150.47987889 141.03562932 156.03653812 145.75871398 161.921875 150.34765625 C162.53272949 150.82960449 163.14358398 151.31155273 163.77294922 151.80810547 C193.061647 174.88383127 225.60226306 194.05607543 260.921875 206.34765625 C261.99284424 206.72776855 263.06381348 207.10788086 264.16723633 207.49951172 C274.41739836 211.04329586 284.77475788 213.5885613 295.3449707 215.97802734 C297.51190885 216.47065364 299.67587415 216.97498815 301.83984375 217.48046875 C303.10594482 217.76809082 304.3720459 218.05571289 305.67651367 218.35205078 C308.81681793 219.31542705 310.663397 219.98331742 312.921875 222.34765625 C314.09723293 226.55799261 314.06989009 230.76615483 314.06713867 235.10375977 C314.07217659 236.25101532 314.07217659 236.25101532 314.07731628 237.42144775 C314.08678551 239.93983602 314.08876706 242.45815756 314.08984375 244.9765625 C314.09305805 246.7310336 314.09642225 248.48550444 314.09992981 250.23997498 C314.10591021 253.91251243 314.10777072 257.58502638 314.10717773 261.25756836 C314.10707593 265.96418378 314.12075228 270.67064897 314.13794994 275.37722874 C314.14906256 278.99831333 314.15109721 282.61936145 314.15056801 286.24046135 C314.15174831 287.97600766 314.15617289 289.71155491 314.16390038 291.44708443 C314.17368966 293.87181312 314.170827 296.29621337 314.16479492 298.72094727 C314.17041443 299.43741928 314.17603394 300.1538913 314.18182373 300.89207458 C314.1588411 304.52476411 314.02673606 307.31363295 311.921875 310.34765625 C307.44755451 313.19495111 302.89645749 312.18823667 297.921875 311.34765625 C293.40302608 310.31867631 288.94602649 309.09965789 284.484375 307.84765625 C283.85216034 307.67092377 283.21994568 307.49419128 282.568573 307.31210327 C227.11014625 291.74843132 175.71633857 265.6583199 130.921875 229.34765625 C129.9834375 228.60257813 129.045 227.8575 128.078125 227.08984375 C116.96511429 218.18027482 106.80120759 208.32594411 96.70153809 198.30255127 C95.69858714 197.3076441 94.69416077 196.3142216 93.68811035 195.32244873 C86.95940229 188.67916757 80.8224683 181.73680154 74.921875 174.34765625 C73.9869498 173.24595169 73.04561138 172.14960532 72.09375 171.0625 C60.47311736 157.73625838 50.6073022 143.11138852 40.921875 128.34765625 C39.71521629 126.53404095 38.50716076 124.72135312 37.296875 122.91015625 C36.50520833 121.72265625 35.71354167 120.53515625 34.921875 119.34765625 C32.19139038 120.62547841 29.91782254 122.01359297 27.59375 123.9296875 C26.96662109 124.44337891 26.33949219 124.95707031 25.69335938 125.48632812 C24.69272461 126.31487305 24.69272461 126.31487305 23.671875 127.16015625 C22.97384766 127.73185547 22.27582031 128.30355469 21.55664062 128.89257812 C18.61203737 131.30467479 15.67482951 133.72564303 12.74023438 136.14990234 C10.63707104 137.88611247 8.52954844 139.61692631 6.421875 141.34765625 C5.78862305 141.87464111 5.15537109 142.40162598 4.50292969 142.94458008 C-8.00961105 153.21149047 -8.00961105 153.21149047 -15.96484375 152.703125 C-19.17312274 152.16346994 -21.4245002 151.22461038 -24.078125 149.34765625 C-25.453125 146.66015625 -25.453125 146.66015625 -26.078125 144.34765625 C-26.738125 144.34765625 -27.398125 144.34765625 -28.078125 144.34765625 C-28.69609224 110.61131427 -29.20158238 76.87218898 -29.31030273 43.12994385 C-29.32065159 40.02777364 -29.3380798 36.92576738 -29.36157227 33.82366943 C-29.38882234 30.161254 -29.40127966 26.49908473 -29.40219879 22.83657074 C-29.40613806 20.84943833 -29.42462766 18.86235146 -29.44354248 16.87530518 C-29.44058167 15.68813904 -29.43762085 14.5009729 -29.43457031 13.27783203 C-29.43821594 12.24747833 -29.44186157 11.21712463 -29.44561768 10.1555481 C-28.85758755 5.66260145 -26.53550802 2.22880877 -23.078125 -0.65234375 C-15.64938083 -3.12859181 -7.51460489 -1.44668135 0 0 Z " fill="#FEFDFD" transform="translate(545.078125,460.65234375)"/>
<path d="M0 0 C34.32 0 68.64 0 104 0 C104.06610304 48.1972547 104.12150832 96.39446675 104.15319599 144.59175379 C104.15694823 150.27837305 104.16083119 155.96499221 104.16479492 161.65161133 C104.16558185 162.78374277 104.16636878 163.91587422 104.16717956 165.08231268 C104.18024315 183.42771861 104.20390224 201.77309642 104.23145839 220.11848565 C104.25948607 238.93434452 104.27617067 257.75018863 104.28226548 276.56606752 C104.2863874 288.18194291 104.29941883 299.79773882 104.3237494 311.41358975 C104.33957405 319.37268338 104.34440779 327.33173576 104.34050413 335.29084399 C104.33857748 339.88684773 104.34158714 344.48271231 104.35761642 349.07869148 C104.37217581 353.28380498 104.37297826 357.48868525 104.36269668 361.69380931 C104.36142526 363.21744603 104.36526438 364.74109709 104.37464955 366.26470544 C104.3866464 368.33201656 104.3802267 370.39847993 104.36914349 372.4657774 C104.37028265 373.61519084 104.37142181 374.76460428 104.37259549 375.94884843 C103.88445042 379.9462253 102.54751288 382.78344292 99.35227966 385.29533386 C95.72567683 386.38174559 92.11491535 386.28600132 88.36352539 386.2746582 C87.0579644 386.2823246 87.0579644 386.2823246 85.72602844 386.29014587 C82.84983437 386.30404221 79.9738799 386.3030851 77.09765625 386.30078125 C75.09752819 386.3046681 73.09740095 386.30900274 71.09727478 386.31376648 C66.90507329 386.32122874 62.71295601 386.32093731 58.52075195 386.31567383 C53.14937964 386.30987859 47.77835209 386.32681156 42.40703678 386.3500185 C38.27634161 386.36475231 34.14572954 386.36562803 30.01501274 386.36250877 C28.03467564 386.36302214 26.05433391 386.3682628 24.07402229 386.37832069 C21.30441017 386.39066112 18.53547055 386.38390783 15.76586914 386.37231445 C14.94856323 386.37995819 14.13125732 386.38760193 13.28918457 386.39547729 C8.73138681 386.35332114 5.64839309 386.03292593 2 383 C-0.24557995 379.55997225 -0.24877123 376.639637 -0.24609566 372.58882523 C-0.24840335 371.94431622 -0.25071103 371.29980722 -0.25308865 370.63576764 C-0.25839961 368.46730064 -0.24939565 366.29912821 -0.24050903 364.13067627 C-0.24138088 362.563924 -0.24313147 360.99717202 -0.24568737 359.43042159 C-0.25016906 355.11822534 -0.24214593 350.80612804 -0.23213124 346.49394441 C-0.22351088 341.84639119 -0.2264159 337.19884375 -0.22793579 332.55128479 C-0.22898554 324.4967847 -0.22269956 316.44231696 -0.21146011 308.38782501 C-0.19522024 296.74232209 -0.18999866 285.09683483 -0.18748413 273.45132181 C-0.18310465 254.55819655 -0.16978869 235.66508855 -0.15087891 216.77197266 C-0.13252665 198.41683031 -0.11836694 180.06169264 -0.10986328 161.70654297 C-0.10933783 160.57552254 -0.10881239 159.44450211 -0.10827102 158.27920833 C-0.10566098 152.60532789 -0.10313356 146.93144742 -0.10064721 141.25756693 C-0.07990683 94.17169597 -0.04303283 47.0858569 0 0 Z " fill="#FEFEFE" transform="translate(803,27)"/>
<path d="M0 0 C0.87037399 -0.00511093 1.74074799 -0.01022186 2.63749695 -0.01548767 C5.51369102 -0.02938401 8.38964549 -0.02842689 11.26586914 -0.02612305 C13.2659972 -0.03000989 15.26612444 -0.03434454 17.26625061 -0.03910828 C21.45845211 -0.04657053 25.65056938 -0.04627911 29.84277344 -0.04101562 C35.21414575 -0.03522039 40.58517331 -0.05215336 45.95648861 -0.0753603 C50.08718378 -0.0900941 54.21779586 -0.09096982 58.34851265 -0.08785057 C60.32884975 -0.08836394 62.30919148 -0.09360459 64.2895031 -0.10366249 C67.05911522 -0.11600291 69.82805484 -0.10924963 72.59765625 -0.09765625 C73.41496216 -0.10529999 74.23226807 -0.11294373 75.07434082 -0.12081909 C79.61076379 -0.07886064 82.77855421 0.18658504 86.36352539 3.2746582 C88.35377992 7.20544415 88.61102539 10.46341054 88.60403442 14.83625793 C88.60574327 15.48164778 88.60745212 16.12703762 88.60921276 16.79198474 C88.61249691 18.94623568 88.60152199 21.10017247 88.59057617 23.25439453 C88.59001182 24.80191033 88.59032908 26.34942666 88.59146118 27.89694214 C88.59203478 32.09284024 88.58027934 36.28862389 88.56631327 40.4844954 C88.55380707 44.87138682 88.55263549 49.25828089 88.55026245 53.64518738 C88.54404736 61.95009049 88.52763613 70.25494091 88.50756347 78.55982083 C88.48102443 89.78384675 88.47023206 101.00788708 88.45855904 112.23193645 C88.43975558 129.91288316 88.39991008 147.5937187 88.36352539 165.2746582 C54.04352539 165.2746582 19.72352539 165.2746582 -15.63647461 165.2746582 C-15.75738371 125.85381262 -15.75738371 125.85381262 -15.78295898 109.35473633 C-15.8007709 97.95536254 -15.82172836 86.55605519 -15.86279297 75.15673828 C-15.89268376 66.85526088 -15.91204687 58.55383731 -15.91874009 50.25230759 C-15.9226529 45.85622539 -15.93185636 41.46029717 -15.95366478 37.0642643 C-15.97402487 32.92666039 -15.98030939 28.78927393 -15.97579765 24.65162468 C-15.97662307 23.13307132 -15.98259166 21.61451071 -15.99409103 20.09600067 C-16.0090282 18.0218075 -16.00542445 15.94843414 -15.99723816 13.8742218 C-16.00000354 12.71368443 -16.00276892 11.55314707 -16.0056181 10.3574419 C-15.52457149 6.34013513 -14.1995413 3.5034427 -10.98875427 0.97932434 C-7.36215144 -0.10708739 -3.75138996 -0.01134312 0 0 Z " fill="#FEFEFE" transform="translate(818.636474609375,847.725341796875)"/>
<path d="M0 0 C14.76317372 11.30940372 25.26853039 27.50142695 28.1171875 46.01953125 C30.24896964 68.12356951 25.43775329 87.38307515 11.7421875 104.95703125 C-0.13211808 118.60844379 -17.30939449 128.62770404 -35.51074219 130.25439453 C-57.47706979 131.61356578 -76.46316001 126.66511212 -93.1953125 111.89453125 C-99.40311922 106.12598023 -103.70126788 99.33054743 -107.8828125 92.01953125 C-108.31207031 91.313125 -108.74132812 90.60671875 -109.18359375 89.87890625 C-117.50490465 75.09974404 -118.49792374 55.27585683 -114.4934082 39.06469727 C-108.856259 19.606277 -96.56745316 4.47804812 -79.08203125 -5.59375 C-52.96385444 -19.5349755 -24.0865095 -16.5472362 0 0 Z " fill="#FEFDFD" transform="translate(499.8828125,123.98046875)"/>
<path d="M0 0 C3.60577652 6.85493778 6.89886816 13.81500858 9.9375 20.9375 C10.41521851 22.01922485 10.41521851 22.01922485 10.90258789 23.12280273 C12.14328831 26.09002627 12.9994213 28.58275537 13.00390625 31.81640625 C10.47625133 37.31430157 1.71975941 39.39003484 -3.5546875 41.6484375 C-4.5947142 42.09691544 -5.63474091 42.54539337 -6.70628357 43.00746155 C-10.09426591 44.46703438 -13.484535 45.92120452 -16.875 47.375 C-19.23077087 48.3879674 -21.58648346 49.40107033 -23.94213867 50.41430664 C-36.86458772 55.96720838 -49.80391788 61.47531238 -62.78686523 66.88525391 C-74.5135225 71.77727027 -86.20275448 76.75624704 -97.89120483 81.73876953 C-101.41367775 83.23984831 -104.93685875 84.73925386 -108.46020508 86.23828125 C-118.39931153 90.46876493 -128.33603641 94.70365239 -138.24708557 98.99954224 C-141.96517233 100.61051646 -145.68641728 102.21411378 -149.4079895 103.8170166 C-151.12038856 104.55725848 -152.83110282 105.30141142 -154.54000854 106.04968262 C-156.87678604 107.07275111 -159.21884524 108.08265234 -161.5625 109.08984375 C-162.57117882 109.53803719 -162.57117882 109.53803719 -163.60023499 109.99528503 C-167.55672994 111.67699915 -170.70826536 112.30791047 -175 112 C-188.15777667 86.27213893 -188.15777667 86.27213893 -188 79 C-181.63643386 75.74298018 -175.22923962 72.71696251 -168.640625 69.9453125 C-167.75920837 69.57135345 -166.87779175 69.19739441 -165.96966553 68.81210327 C-163.0643312 67.58016462 -160.15715367 66.35263838 -157.25 65.125 C-155.17172283 64.24449972 -153.09360137 63.36363182 -151.015625 62.48242188 C-146.61181035 60.61507024 -142.20742828 58.74906566 -137.80273438 56.88378906 C-127.66030881 52.58660158 -117.52787982 48.26594729 -107.39477539 43.94683838 C-101.72713153 41.53131343 -96.05886292 39.11725551 -90.390625 36.703125 C-88.7190332 35.99115463 -88.7190332 35.99115463 -87.01367188 35.26480103 C-79.35825733 32.00422589 -71.70268082 28.74403131 -64.046875 25.484375 C-63.0098494 25.04281067 -61.97282379 24.60124634 -60.90437317 24.14630127 C-55.89943336 22.01547824 -50.89399907 19.88583124 -45.88745117 17.75878906 C-44.01740497 16.96421718 -42.1473689 16.16962143 -40.27734375 15.375 C-38.94022591 14.80685577 -38.94022591 14.80685577 -37.57609558 14.22723389 C-32.85773317 12.22077209 -28.14367517 10.20486235 -23.43612671 8.17315674 C-21.52829961 7.34999165 -19.61935201 6.52949065 -17.70996094 5.70996094 C-15.53749488 4.77640625 -13.36732851 3.83746986 -11.20019531 2.89160156 C-10.28463867 2.4994043 -9.36908203 2.10720703 -8.42578125 1.703125 C-7.27203003 1.20280762 -7.27203003 1.20280762 -6.0949707 0.69238281 C-4 0 -4 0 0 0 Z " fill="#FEFCFC" transform="translate(746,804)"/>
<path d="M0 0 C2.50647957 1.0785159 3.4021148 2.26144056 4.98364258 4.47631836 C5.53544189 5.23759033 6.08724121 5.9988623 6.65576172 6.78320312 C7.23962646 7.61134521 7.82349121 8.4394873 8.42504883 9.29272461 C9.34821899 10.57457642 9.34821899 10.57457642 10.29003906 11.88232422 C11.57097137 13.6627169 12.84736779 15.44638109 14.11938477 17.2331543 C15.84823612 19.65969161 17.58986311 22.07617908 19.33911133 24.48803711 C22.02656089 28.19370027 24.70432068 31.90620685 27.37866211 35.62133789 C30.07767001 39.3688223 32.78286377 43.11183661 35.48754883 46.85522461 C38.72886336 51.3413284 41.96896837 55.82827292 45.20239258 60.32006836 C50.75559507 68.02985434 56.34192088 75.71280092 61.98754883 83.35522461 C68.17766001 91.73470919 74.29229191 100.16629824 80.37866211 108.62133789 C83.07767015 112.3688225 85.78296699 116.11176182 88.48754883 119.85522461 C89.56699372 121.35000342 90.64642079 122.84479509 91.72583008 124.33959961 C94.48832503 128.16472044 97.25267134 131.98849878 100.01806641 135.81152344 C101.11199042 137.32580311 102.20430936 138.84124374 103.29492188 140.35791016 C105.8435991 143.90149836 108.40828515 147.42910783 111.02661133 150.92163086 C111.49623291 151.55617188 111.96585449 152.19071289 112.44970703 152.84448242 C113.32147955 154.02155658 114.20224653 155.1920465 115.09375 156.35424805 C116.79531815 158.66966628 117.93505119 160.63801565 118.61254883 163.44116211 C117.66790095 167.08986456 115.12557266 168.60495442 112.17504883 170.66772461 C111.58989502 171.09351807 111.00474121 171.51931152 110.40185547 171.95800781 C109.19457527 172.83509451 107.98284604 173.70608844 106.7668457 174.57104492 C105.08566948 175.78440756 103.4472329 177.03717696 101.81567383 178.31616211 C100.38481445 179.41831055 100.38481445 179.41831055 98.92504883 180.54272461 C98.06782227 181.2065918 97.2105957 181.87045898 96.32739258 182.55444336 C93.98754883 183.85522461 93.98754883 183.85522461 91.89379883 183.80834961 C89.39637799 182.55963919 88.253955 181.13773599 86.55004883 178.91772461 C85.85395508 178.01151367 85.15786133 177.10530273 84.44067383 176.17163086 C79.78403034 169.91305553 75.23459168 163.57647095 70.69311523 157.23413086 C67.96833705 153.43363864 65.22747967 149.64479925 62.48754883 145.85522461 C59.24607368 141.36923715 56.00612905 136.88217598 52.77270508 132.39038086 C47.21950259 124.68059488 41.63317678 116.9976483 35.98754883 109.35522461 C29.79743764 100.97574003 23.68280574 92.54415098 17.59643555 84.08911133 C14.89742765 80.34162692 12.19223389 76.5986126 9.48754883 72.85522461 C6.2462343 68.36912082 3.00612929 63.8821763 -0.22729492 59.39038086 C-1.30134204 57.89937179 -2.37556065 56.40848624 -3.44995117 54.91772461 C-3.97637207 54.187229 -4.50279297 53.4567334 -5.04516602 52.70410156 C-9.78579119 46.14032473 -14.59362317 39.62669625 -19.43212891 33.13476562 C-26.91737292 23.04180125 -26.91737292 23.04180125 -27.20776367 19.41772461 C-25.26271513 15.24794735 -21.65341148 13.33647605 -17.88745117 10.85522461 C-16.38480109 9.83445886 -14.88219644 8.81362623 -13.37963867 7.79272461 C-12.64455078 7.30545898 -11.90946289 6.81819336 -11.15209961 6.31616211 C-9.10695664 4.9197523 -7.16627892 3.4318357 -5.20776367 1.91772461 C-2.01245117 -0.14477539 -2.01245117 -0.14477539 0 0 Z " fill="#FEFCFC" transform="translate(693.012451171875,337.144775390625)"/>
<path d="M0 0 C7.6013052 5.34111645 12.15210909 12.60512656 14.6015625 21.52734375 C15.80923701 34.16579795 13.74507811 43.66076026 5.66015625 53.484375 C-1.30315981 60.39483857 -9.9257121 63.8006416 -19.6484375 63.90234375 C-29.79680006 63.74330966 -38.05353495 60.65110945 -45.3984375 53.52734375 C-47.72587975 50.68269212 -49.62012289 47.74049787 -51.3984375 44.52734375 C-51.74003906 43.9240625 -52.08164062 43.32078125 -52.43359375 42.69921875 C-55.81663419 35.46108572 -55.51788957 26.2391618 -53.70703125 18.6171875 C-50.13741875 8.9538432 -44.36141213 2.48788661 -35.3984375 -2.47265625 C-34.79515625 -2.81425781 -34.191875 -3.15585938 -33.5703125 -3.5078125 C-22.64956887 -8.61207311 -9.83798994 -6.04058991 0 0 Z " fill="#FEFCFC" transform="translate(665.3984375,247.47265625)"/>
<path d="M0 0 C1.50277034 0.89917829 2.98544864 1.83352752 4.4375 2.8125 C5.51 3.493125 6.5825 4.17375 7.6875 4.875 C12.99403316 9.77217203 15.9584455 16.53726213 16.98828125 23.578125 C17.28132373 31.8502957 16.04838154 37.92958987 11.4375 44.8125 C10.839375 45.740625 10.24125 46.66875 9.625 47.625 C3.42272917 53.82727083 -3.88248293 57.09186865 -12.625 57.3125 C-21.34364223 57.31142944 -28.47635388 54.83309297 -34.75390625 48.65625 C-36.55849829 46.45607933 -38.08630442 44.24261143 -39.5625 41.8125 C-40.201875 40.78125 -40.84125 39.75 -41.5 38.6875 C-44.04787585 31.73728169 -43.68965407 23.32186622 -41.4609375 16.3828125 C-38.59303142 10.23291764 -35.35222694 5.43257771 -29.5625 1.8125 C-28.92957031 1.40257812 -28.29664063 0.99265625 -27.64453125 0.5703125 C-19.34277108 -3.94659266 -8.48425869 -4.04988783 0 0 Z " fill="#FEFCFC" transform="translate(511.5625,897.1875)"/>
<path d="M0 0 C5.88220048 3.50190325 10.57472749 8.96233861 12.625 15.5 C13.46137039 23.0954102 13.50029273 30.30742762 8.625 36.5 C3.91601925 41.45475219 -0.4524655 45.06806918 -7.42578125 45.8359375 C-15.63922584 45.93430211 -21.27724282 45.39449541 -27.34375 39.62890625 C-33.48257453 32.97431982 -34.86275483 27.74380727 -34.6796875 18.72265625 C-33.95198414 11.02579378 -30.20041501 6.84180607 -24.47265625 1.9453125 C-17.57992067 -2.80387217 -7.66644301 -3.3906382 0 0 Z " fill="#FEFBFB" transform="translate(369.375,798.5)"/>
<path d="M0 0 C0.66 0.33 1.32 0.66 2 1 C-3.61 6.61 -9.22 12.22 -15 18 C-15 12.50089132 -9.68936771 8.76735434 -6 5 C-4.05347234 3.22256464 -2.09090037 1.6083849 0 0 Z " fill="#F9D8DB" transform="translate(413,123)"/>
<path d="M0 0 C0.66 0.33 1.32 0.66 2 1 C-1.63 4.63 -5.26 8.26 -9 12 C-9 8.47601214 -8.44884893 7.98495633 -6.1875 5.4375 C-5.40439453 4.53837891 -5.40439453 4.53837891 -4.60546875 3.62109375 C-3 2 -3 2 0 0 Z " fill="#FADADC" transform="translate(626,247)"/>
<path d="M0 0 C0.66 0.33 1.32 0.66 2 1 C-1.3 4.3 -4.6 7.6 -8 11 C-8 6.67750434 -5.85084926 5.11604454 -3 2 C-2.01 1.34 -1.02 0.68 0 0 Z " fill="#F9D8DB" transform="translate(482,899)"/>
</svg>
