<?xml version="1.0" encoding="UTF-8"?>
<svg version="1.1" xmlns="http://www.w3.org/2000/svg" width="1040" height="1040">
<path d="M0 0 C325.38 0 650.76 0 986 0 C986 325.38 986 650.76 986 986 C660.62 986 335.24 986 0 986 C0 660.62 0 335.24 0 0 Z " fill="#0C872D" transform="translate(27,27)"/>
<path d="M0 0 C0.67031754 0.12242569 1.34063507 0.24485138 2.03126526 0.37098694 C3.51358043 0.64255844 4.99530576 0.91736443 6.47650146 1.19497681 C8.94948272 1.65823649 11.42394615 2.11272861 13.89892578 2.56518555 C16.71569955 3.08026832 19.53234764 3.59597882 22.34857178 4.11405945 C35.64357121 6.5592223 48.95115422 8.93466813 62.25764084 11.31633377 C64.42523678 11.70442629 66.59277074 12.09286314 68.76028442 12.48141479 C88.93062395 16.0970161 109.10762866 19.67206131 129.29296875 23.203125 C148.34348415 26.53580303 167.38619743 29.90644007 186.41896057 33.33891296 C194.11666658 34.72607136 201.81607567 36.10367725 209.51564026 37.48047256 C211.77154821 37.88387168 214.02743923 38.2873654 216.2833252 38.69088745 C225.35942148 40.31439047 225.35942148 40.31439047 234.43572998 41.93670654 C238.01270734 42.57581524 241.58956631 43.21558285 245.16634941 43.85577774 C247.11440205 44.20427549 249.06257714 44.5520885 251.01075745 44.89987183 C254.68907602 45.55849735 258.36616956 46.22357288 262.04296875 46.890625 C262.73537281 47.01478287 263.42777687 47.13894073 264.14116287 47.26686096 C266.28958502 47.65281435 268.43697071 48.04414951 270.58422852 48.43652344 C271.86346695 48.66837341 273.14270538 48.90022339 274.46070862 49.13909912 C281.30796081 50.5755909 289.30892649 52.43930361 294.04296875 57.890625 C297.71209269 63.62514983 298.33273114 69.40491432 298.27168274 76.09030151 C298.26491342 77.27125847 298.26491342 77.27125847 298.25800735 78.47607315 C298.13172502 87.24580631 297.14396666 95.87524367 296.07104492 104.57080078 C295.85827434 106.3601745 295.64642404 108.14965785 295.43540955 109.9392395 C294.86637587 114.7419432 294.28428341 119.5429773 293.69932342 124.34376383 C293.08507479 129.40157838 292.48220074 134.46075042 291.87776184 139.51974487 C290.86186594 148.00835054 289.83780376 156.49593866 288.80834961 164.98291016 C287.62301634 174.75548413 286.448829 184.52934541 285.28101748 194.30402768 C284.03038389 204.77094593 282.77156964 215.23686885 281.51041245 225.70252371 C281.15064718 228.69257257 280.79238412 231.68279813 280.43446922 234.673069 C279.86906022 239.39343757 279.29811905 244.11310726 278.72312355 248.83231735 C278.51454506 250.55082851 278.30769961 252.26955118 278.10284424 253.98851013 C273.18898621 295.17266013 273.18898621 295.17266013 258.99609375 306.7734375 C254.37156111 310.08890931 249.5815205 313.08240045 244.71484375 316.02734375 C239.26384365 319.33654125 233.93818322 322.83259971 228.60546875 326.328125 C226.62506391 327.6237956 224.64459589 328.91936964 222.6640625 330.21484375 C221.70999512 330.8392334 220.75592773 331.46362305 219.77294922 332.10693359 C215.91198279 334.62957898 212.04151247 337.13734851 208.16796875 339.640625 C207.48782715 340.08027588 206.80768555 340.51992676 206.10693359 340.97290039 C204.75741233 341.84502568 203.40780402 342.71701629 202.05810547 343.58886719 C198.61476769 345.81322835 195.17245016 348.0391657 191.73046875 350.265625 C191.03646973 350.71454102 190.3424707 351.16345703 189.62744141 351.62597656 C184.09440441 355.20669796 178.56797166 358.79752263 173.04296875 362.390625 C163.36529253 368.68435587 153.67423332 374.95720929 143.97949219 381.22460938 C134.80649437 387.15524034 125.64201714 393.0987556 116.48510742 399.05419922 C110.48792416 402.95378291 104.48397104 406.84275584 98.4765625 410.7265625 C92.99320015 414.2728118 87.51720511 417.83030749 82.04296875 421.390625 C73.74297133 426.78844213 65.43411911 432.17239131 57.11962891 437.54785156 C54.30318112 439.36897346 51.48725233 441.19089553 48.671875 443.01367188 C47.26259242 443.92518033 45.85244732 444.83535674 44.44140625 445.74414062 C40.74163734 448.12942763 37.06240302 450.54047727 33.40625 452.9921875 C32.64441406 453.49814453 31.88257813 454.00410156 31.09765625 454.52539062 C29.64285378 455.49230202 28.19326755 456.46712582 26.75 457.45117188 C22.90668976 459.99211038 19.79314269 461.83784529 15.04296875 461.890625 C4.97664121 457.78527119 -14.29745028 444.94170314 -18.89453125 434.828125 C-18.97648093 432.28768478 -18.26103963 431.06229781 -16.95703125 428.890625 C-15.33546448 427.50379944 -15.33546448 427.50379944 -13.37329102 426.23461914 C-12.62965805 425.74679962 -11.88602509 425.2589801 -11.11985779 424.75637817 C-10.30428909 424.23478119 -9.4887204 423.7131842 -8.6484375 423.17578125 C-7.36314903 422.33706985 -7.36314903 422.33706985 -6.05189514 421.48141479 C-4.19054106 420.26793901 -2.32646404 419.05863215 -0.46002197 417.85299683 C4.56524226 414.60613811 9.57025028 411.32827652 14.578125 408.0546875 C15.61211426 407.37995895 16.64610352 406.70523041 17.71142578 406.01005554 C28.35315 399.05687711 38.89208807 391.95497524 49.41796875 384.828125 C53.00876423 382.39922131 56.6000276 379.97101006 60.19140625 377.54296875 C61.04616043 376.96492996 61.90091461 376.38689117 62.78157043 375.79133606 C70.17995106 370.79104658 77.60574693 365.832888 85.04296875 360.890625 C98.04247861 352.25033122 110.98089082 343.52066112 123.91616821 334.78457642 C142.24121669 322.41047836 160.62786937 310.13021112 179.04296875 297.890625 C175.99023037 296.21238967 173.12480265 295.32223776 169.73046875 294.56201172 C168.66836182 294.32191376 167.60625488 294.0818158 166.51196289 293.83444214 C165.36719482 293.58227936 164.22242676 293.33011658 163.04296875 293.0703125 C161.85630615 292.80678986 160.66964355 292.54326721 159.44702148 292.27175903 C156.93260821 291.71585821 154.41753245 291.16294676 151.90185547 290.61279297 C148.08261178 289.77432811 144.26794765 288.91691651 140.453125 288.05859375 C138.00416492 287.51965656 135.55495346 286.98186019 133.10546875 286.4453125 C131.97689453 286.18910126 130.84832031 285.93289001 129.68554688 285.66891479 C120.27762378 283.64604751 110.28338323 281.53959123 101.703125 286.93359375 C100.63199463 287.58835693 99.56086426 288.24312012 98.45727539 288.91772461 C97.3511792 289.63065674 96.24508301 290.34358887 95.10546875 291.078125 C93.91485193 291.81829025 92.72268477 292.55596693 91.52905273 293.29125977 C89.13360609 294.77276856 86.74812556 296.26842063 84.37109375 297.77929688 C81.46195309 299.62482566 78.5401839 301.44554677 75.60546875 303.25 C72.23691901 305.3216744 68.87550238 307.40410529 65.51953125 309.49609375 C59.20151478 313.42417076 52.84218381 317.28392166 46.48046875 321.140625 C45.89065216 321.49824921 45.30083557 321.85587341 44.69314575 322.22433472 C41.68101135 324.05048698 38.66848362 325.87598905 35.65576172 327.70117188 C29.78220341 331.25999331 23.91284056 334.82572781 18.04296875 338.390625 C15.71228425 339.80606316 13.38155981 341.22143548 11.05078125 342.63671875 C10.47365891 342.98715744 9.89653656 343.33759613 9.30192566 343.69865417 C5.78287387 345.83516984 2.26284385 347.97006322 -1.25805664 350.10353088 C-3.02678949 351.17544535 -4.795143 352.24798365 -6.56347656 353.32055664 C-8.8919063 354.73264571 -11.22217279 356.14163406 -13.55371094 357.54858398 C-18.87250755 360.76368096 -24.16826026 364.00591171 -29.40316772 367.3563385 C-31.76733819 368.86916467 -34.13901756 370.37002034 -36.51068115 371.87106323 C-38.16018856 372.92324515 -39.79735685 373.99469322 -41.43408203 375.06665039 C-47.2526764 378.74639941 -51.02683858 380.81078216 -57.95703125 379.890625 C-60.86769754 372.88073849 -63.40377791 365.80915426 -65.70703125 358.578125 C-66.18076172 357.13469727 -66.18076172 357.13469727 -66.6640625 355.66210938 C-67.11072266 354.26508789 -67.11072266 354.26508789 -67.56640625 352.83984375 C-67.83420898 352.00799561 -68.10201172 351.17614746 -68.37792969 350.3190918 C-69.00257941 347.69961846 -69.22909278 345.5718556 -68.95703125 342.890625 C-64.4964327 338.37228408 -58.98735886 335.2905669 -53.58203125 332.015625 C-51.69496033 330.85994986 -49.80825565 329.70367652 -47.921875 328.546875 C-46.94202637 327.94746094 -45.96217773 327.34804688 -44.95263672 326.73046875 C-39.99853152 323.68775182 -35.0719481 320.60130694 -30.14453125 317.515625 C-28.11458451 316.24609187 -26.08463659 314.97656063 -24.0546875 313.70703125 C-20.04080197 311.19538868 -16.02797784 308.68205888 -12.015625 306.16796875 C-1.58505342 299.6359779 8.86724886 293.14221179 19.35546875 286.703125 C28.35625902 281.17648637 37.31363098 275.58826784 46.234375 269.93359375 C60.20644882 261.08043535 74.25968394 252.35765152 88.35546875 243.703125 C97.61893763 238.01525897 106.8500013 232.28186388 116.015625 226.4375 C118.48368925 224.86580891 120.96212975 223.34268374 123.4765625 221.84375 C131.68828949 216.91453274 135.80688116 211.95489025 139.04296875 202.890625 C139.63227088 200.17755769 140.10521463 197.56916293 140.48046875 194.828125 C140.59898193 194.00666992 140.71749512 193.18521484 140.83959961 192.33886719 C142.37504882 181.19438302 143.46448348 169.98787302 144.59741211 158.79663086 C145.48421625 150.05073898 146.45735744 141.32631836 147.57202148 132.60644531 C148.27752081 127.03998616 148.9099262 121.46570588 149.54296875 115.890625 C150.30107444 109.2497725 151.06247696 102.6106355 151.9152832 95.98120117 C152.30462104 92.95264183 152.67399544 89.92172347 153.04296875 86.890625 C153.19121094 85.72660156 153.33945312 84.56257813 153.4921875 83.36328125 C153.61207031 82.27917969 153.73195313 81.19507813 153.85546875 80.078125 C153.96503906 79.14355469 154.07460938 78.20898438 154.1875 77.24609375 C154.25743241 74.88484896 154.25743241 74.88484896 152.89122772 73.33674049 C150.4481823 71.42525195 148.35983195 71.03130089 145.32629395 70.39730835 C144.1587709 70.1489259 142.99124786 69.90054344 141.78834534 69.64463425 C140.55237106 69.3958112 139.31639679 69.14698814 138.04296875 68.890625 C136.84393417 68.64445057 135.6448996 68.39827614 134.40953064 68.14464188 C130.44591111 67.34187556 126.47849963 66.56065008 122.50976562 65.78369141 C120.99869297 65.48617835 119.48766731 65.18842653 117.97668457 64.89045715 C114.75165198 64.25459465 111.52644218 63.61964141 108.3011322 62.98518753 C103.1981455 61.98056412 98.0965257 60.96911964 92.99523926 59.9559021 C92.13077289 59.7842134 91.26630652 59.61252469 90.37564421 59.4356333 C86.8195083 58.72924623 83.26341196 58.02266013 79.70732021 57.31605077 C69.64089158 55.31617437 59.57326476 53.32280865 49.50195312 51.34765625 C41.47034201 49.77247422 33.44154371 48.18375687 25.41577196 46.57907808 C21.17723762 45.7321592 16.93759265 44.89216444 12.69444275 44.06865311 C8.71171205 43.29553992 4.73295611 42.50454846 0.7565155 41.69972801 C-0.7010362 41.40803321 -2.15992044 41.12290669 -3.62014771 40.84491539 C-5.61585106 40.46396615 -7.6065129 40.05688469 -9.59680176 39.64859009 C-11.26803478 39.31844123 -11.26803478 39.31844123 -12.97303009 38.9816227 C-16.63787701 37.6416971 -18.46500123 35.85806815 -20.95703125 32.890625 C-21.84961232 28.9270657 -21.27847853 24.92371687 -20.95703125 20.890625 C-20.90627441 20.1486084 -20.85551758 19.4065918 -20.80322266 18.64208984 C-20.63109416 16.22193353 -20.42528912 13.80703404 -20.20703125 11.390625 C-20.1150647 10.22430542 -20.1150647 10.22430542 -20.02124023 9.03442383 C-19.67021142 5.7074548 -19.15839061 3.21359744 -17.37890625 0.359375 C-12.35929201 -2.68477815 -5.52174756 -1.0274794 0 0 Z " fill="#FDFEFD" transform="translate(298.95703125,366.109375)"/>
<path d="M0 0 C7.58228142 5.57949435 13.99482911 12.9341447 20.578125 19.6171875 C21.41859375 20.46539062 22.2590625 21.31359375 23.125 22.1875 C23.87007812 22.94417969 24.61515625 23.70085937 25.3828125 24.48046875 C27.37541345 26.39871892 29.37891761 28.18994166 31.48046875 29.98046875 C37.03322023 34.8041952 42.1625883 40.05147321 47.34268188 45.26751709 C49.22496176 47.16271893 51.11048618 49.05464053 52.99682617 50.94580078 C57.67828905 55.64053678 62.35425545 60.34073484 67.03039551 65.04077148 C70.99325528 69.0234563 74.95822178 73.0040216 78.92593384 76.98187256 C80.77131359 78.83367034 82.61362294 80.68848449 84.45581055 82.54345703 C89.64311568 87.75324924 94.81748515 92.90925849 100.43057251 97.66696167 C102.84582248 99.71842363 105.11370353 101.90650409 107.375 104.125 C108.20773437 104.93195313 109.04046875 105.73890625 109.8984375 106.5703125 C112.92735881 110.07215089 113.97545465 112.69909639 114.0625 117.3125 C112.57624618 122.47067502 109.72938853 125.24358692 106 129 C105.2059375 129.81984375 104.411875 130.6396875 103.59375 131.484375 C100.03643782 135.10756333 96.45606799 138.62292251 92.58569336 141.90991211 C87.34908745 146.4820764 82.47714491 151.41032676 77.58329773 156.34153748 C75.86905414 158.06872676 74.15154698 159.7926132 72.43322754 161.51574707 C68.78597559 165.17433971 65.14268685 168.83686281 61.5 172.5 C57.2735937 176.75013369 53.04550978 180.99857062 48.81315613 185.24278259 C47.13396365 186.9283829 45.45784924 188.61700141 43.78186035 190.30578613 C38.89311032 195.21765566 33.96819374 200.02020785 28.69555664 204.52484131 C26.17631759 206.71661555 23.87506051 209.06644569 21.546875 211.4609375 C20.58882075 212.43647208 19.63047953 213.4117249 18.671875 214.38671875 C17.19852216 215.89121965 15.7277069 217.39798793 14.26171875 218.90966797 C12.82181555 220.39183746 11.37267089 221.86443936 9.921875 223.3359375 C9.07206055 224.20782715 8.22224609 225.0797168 7.34667969 225.97802734 C5.09566754 227.91756985 3.90048693 228.64266938 1 229 C1 229.66 1 230.32 1 231 C-3.44741848 231.34881714 -6.88352826 231.60677812 -10.875 229.4375 C-16.07467974 223.47316148 -16.42595567 217.70907399 -16.29296875 210.12890625 C-16.28872391 209.206577 -16.28447906 208.28424774 -16.28010559 207.33396912 C-16.26341364 204.40983965 -16.22577938 201.48641851 -16.1875 198.5625 C-16.17244089 196.57097355 -16.15875464 194.57943621 -16.14648438 192.58789062 C-16.11354122 187.72499062 -16.06182499 182.8626151 -16 178 C-17.44579941 178.00999275 -17.44579941 178.00999275 -18.92080688 178.02018738 C-28.01347864 178.08105687 -37.10610894 178.12600066 -46.19893837 178.15543652 C-50.87343476 178.17107865 -55.54776639 178.19229038 -60.22216797 178.22631836 C-64.73497508 178.25896363 -69.24762391 178.27686394 -73.76054001 178.28463173 C-75.4804979 178.29016596 -77.20044734 178.30097303 -78.92033768 178.31719017 C-81.33331126 178.33903339 -83.74563453 178.34196409 -86.15869141 178.34057617 C-86.86647736 178.351362 -87.57426331 178.36214783 -88.30349731 178.3732605 C-92.95807424 178.34437571 -96.16171757 177.66492335 -100 175 C-104.41416756 169.30411358 -104.57150044 164.42690546 -104.50170898 157.38647461 C-104.50981346 155.81931953 -104.50981346 155.81931953 -104.51808167 154.22050476 C-104.53054816 150.78082607 -104.51409205 147.34198768 -104.49609375 143.90234375 C-104.49624877 141.50533504 -104.49773831 139.10832609 -104.50050354 136.71131897 C-104.50188657 131.69374477 -104.48934411 126.67645676 -104.46655273 121.65893555 C-104.43815349 115.23062961 -104.44091108 108.80279852 -104.45364285 102.37445736 C-104.46060039 97.42704723 -104.45281004 92.47974668 -104.44038582 87.53235054 C-104.43587317 85.16209903 -104.43553288 82.79183575 -104.43945122 80.42158318 C-104.44236447 77.10885401 -104.42585057 73.79677751 -104.40405273 70.48413086 C-104.40855438 69.50682007 -104.41305603 68.52950928 -104.41769409 67.52258301 C-104.36105115 62.33639861 -104.16737717 58.33603418 -101 54 C-96.50256676 50.90269568 -92.37646293 50.57956724 -87.06689453 50.65942383 C-86.2954863 50.65898575 -85.52407806 50.65854767 -84.72929382 50.65809631 C-82.19686976 50.66017495 -79.66511993 50.68346156 -77.1328125 50.70703125 C-75.37019207 50.71263051 -73.60756696 50.71689905 -71.84494019 50.71989441 C-67.21869893 50.73131722 -62.59274282 50.76076219 -57.96661377 50.79400635 C-53.24080258 50.82476264 -48.51494505 50.83841161 -43.7890625 50.85351562 C-34.52591679 50.88563446 -25.26298216 50.93679966 -16 51 C-16.01571045 49.72882324 -16.0314209 48.45764648 -16.04760742 47.14794922 C-16.1020325 42.41803356 -16.13639592 37.68814544 -16.16479492 32.95800781 C-16.17985288 30.91336406 -16.20030357 28.86875245 -16.22631836 26.82421875 C-16.26283311 23.88012748 -16.27975651 20.93646443 -16.29296875 17.9921875 C-16.31619453 16.6277803 -16.31619453 16.6277803 -16.33988953 15.23580933 C-16.34124918 10.07280233 -15.94174592 6.44150211 -13 2 C-8.45850268 -1.19969129 -5.2926665 -1.64255167 0 0 Z " fill="#FEFEFE" transform="translate(770,405)"/>
<path d="M0 0 C40.92 0 81.84 0 124 0 C124.16121214 47.73670497 124.16121214 47.73670497 124.1953125 67.69921875 C124.21907206 81.49761889 124.24704407 95.29592153 124.30175781 109.09423828 C124.34158183 119.14227677 124.36742242 129.19023637 124.37635398 139.23835158 C124.38157623 144.56055322 124.39388012 149.88252911 124.42292023 155.20465851 C124.45001922 160.21148783 124.45845616 165.21799788 124.45243073 170.22489357 C124.45353344 172.06477148 124.46152007 173.9046598 124.4768219 175.74447441 C124.49666382 178.25267256 124.4919609 180.7596583 124.48101807 183.2678833 C124.49266943 183.99940306 124.5043208 184.73092282 124.51632524 185.48460984 C124.47704396 188.80544751 124.2054897 190.70820933 122.27355576 193.45151138 C119.63592929 195.24796373 118.30847748 195.50229369 115.14208984 195.50793457 C114.16632996 195.51921387 113.19057007 195.53049316 112.1852417 195.54211426 C111.12122131 195.53401733 110.05720093 195.52592041 108.9609375 195.51757812 C107.83536438 195.5245874 106.70979126 195.53159668 105.55010986 195.53881836 C101.82482322 195.5564416 98.10029454 195.54475945 94.375 195.53125 C91.78954929 195.53394365 89.20409958 195.537825 86.61865234 195.54284668 C81.19813467 195.54874764 75.77790254 195.54054013 70.35742188 195.52148438 C64.09292562 195.49971563 57.82895011 195.50676714 51.56446648 195.52879 C45.53519373 195.54913662 39.50617554 195.5469737 33.47686768 195.53526306 C30.91237312 195.53259125 28.34786531 195.53588142 25.78338623 195.54518127 C22.20158484 195.55531922 18.62078884 195.5398826 15.0390625 195.51757812 C13.44303192 195.52972351 13.44303192 195.52972351 11.8147583 195.54211426 C10.83899841 195.53083496 9.86323853 195.51955566 8.85791016 195.50793457 C8.01136871 195.50642647 7.16482727 195.50491837 6.29263306 195.50336456 C3.02775517 194.78653645 1.92207457 193.72930198 0 191 C-0.3844919 188.2853009 -0.52420614 185.97940485 -0.48101807 183.2678833 C-0.48443577 182.4845071 -0.48785347 181.7011309 -0.49137473 180.89401603 C-0.49796844 178.26653799 -0.47595364 175.64007938 -0.45410156 173.01269531 C-0.4529734 171.13035608 -0.45360633 169.24801509 -0.45587158 167.36567688 C-0.45702089 162.25228674 -0.43347641 157.13927068 -0.40557575 152.0259676 C-0.38059826 146.68348898 -0.37822298 141.34100212 -0.37347412 135.99847412 C-0.36103361 125.88018262 -0.32819739 115.76206365 -0.28807616 105.64384818 C-0.23503941 91.97215636 -0.21342168 78.30041748 -0.19006729 64.62864876 C-0.15243681 43.08563656 -0.07275306 21.54298849 0 0 Z " fill="#FFFFFF" transform="translate(800,27)"/>
<path d="M0 0 C0.97575989 -0.0112793 1.95151978 -0.02255859 2.95684814 -0.03417969 C4.55287872 -0.0220343 4.55287872 -0.0220343 6.18115234 -0.00964355 C7.30672546 -0.01665283 8.43229858 -0.02366211 9.59197998 -0.03088379 C13.31726662 -0.04850703 17.0417953 -0.03682488 20.76708984 -0.02331543 C23.35254055 -0.02600908 25.93799027 -0.02989043 28.5234375 -0.03491211 C33.94395517 -0.04081307 39.3641873 -0.03260556 44.78466797 -0.0135498 C51.04916422 0.00821894 57.31313973 0.00116743 63.57762337 -0.02085543 C69.60689611 -0.04120205 75.63591431 -0.03903913 81.66522217 -0.02732849 C84.22971672 -0.02465668 86.79422453 -0.02794685 89.35870361 -0.0372467 C92.940505 -0.04738465 96.521301 -0.03194803 100.10302734 -0.00964355 C101.16704773 -0.01774048 102.23106812 -0.0258374 103.32733154 -0.03417969 C104.30309143 -0.02290039 105.27885132 -0.01162109 106.28417969 0 C107.13072113 0.0015081 107.97726257 0.0030162 108.84945679 0.00457001 C112.08842212 0.71570883 113.21681056 1.82171017 115.14208984 4.50793457 C115.63428116 7.701931 115.63428116 7.701931 115.62310791 11.55670166 C115.62652561 12.26657392 115.62994331 12.97644618 115.63346457 13.70782971 C115.64005352 16.08659575 115.61805216 18.46423345 115.59619141 20.84289551 C115.59506314 22.54789707 115.59569638 24.25290057 115.59796143 25.957901 C115.59911032 30.58785166 115.57557266 35.21738884 115.5476656 39.84724331 C115.52268118 44.68522998 115.52031228 49.52322586 115.51556396 54.36126709 C115.50312548 63.52333616 115.47029205 72.6852146 115.43016601 81.84719968 C115.37712107 94.22737276 115.35550988 106.60759787 115.33215714 118.98785591 C115.29453128 138.49469163 115.21484628 158.00112502 115.14208984 177.50793457 C74.22208984 177.50793457 33.30208984 177.50793457 -8.85791016 177.50793457 C-9.01912229 134.28516943 -9.01912229 134.28516943 -9.05322266 116.20715332 C-9.07698014 103.71245781 -9.10494631 91.21786999 -9.15966797 78.7232666 C-9.19949816 69.62450686 -9.22533404 60.52583429 -9.23426414 51.42698979 C-9.23948536 46.60779995 -9.25178256 41.78885948 -9.28083038 36.96974945 C-9.3079392 32.43567822 -9.31636437 27.90195959 -9.31034088 23.36781502 C-9.31144316 21.70209145 -9.3194241 20.03635634 -9.33473206 18.37070274 C-9.35458985 16.09893339 -9.34986586 13.82850096 -9.33892822 11.55670166 C-9.34261539 10.28462734 -9.34630257 9.01255302 -9.35010147 7.701931 C-8.85791016 4.50793457 -8.85791016 4.50793457 -7.13146591 2.09913254 C-4.49062877 0.25088462 -3.19523622 0.00569227 0 0 Z " fill="#FFFFFF" transform="translate(808.85791015625,835.4920654296875)"/>
<path d="M0 0 C15.52753592 12.2845789 25.42075151 28.21869533 28.82421875 47.796875 C30.35594024 71.45268888 25.52709999 91.5350057 9.82421875 109.796875 C0.34561523 119.93831793 -11.88475825 126.90587986 -25.17578125 130.796875 C-26.36300781 131.15265625 -27.55023437 131.5084375 -28.7734375 131.875 C-48.29005866 136.63057443 -68.66936705 132.06216144 -85.50683594 121.85693359 C-102.81042883 110.86626649 -114.18803844 93.3016289 -118.71777344 73.41772461 C-122.07084848 54.2304855 -118.15264414 35.36594512 -108.17578125 18.796875 C-96.56263418 2.27945558 -79.59641501 -9.53936598 -59.74291992 -13.78857422 C-38.22545352 -17.26329205 -17.79921889 -12.3477976 0 0 Z " fill="#FDFEFD" transform="translate(551.17578125,245.203125)"/>
<path d="M0 0 C5.62776478 3.77948835 10.22576052 9.19198022 14.96484375 13.99609375 C17.18447368 16.18164107 19.54264716 18.08872557 22 20 C23.68762851 21.6454378 25.3540349 23.31288577 27 25 C28.10408203 26.10408203 28.10408203 26.10408203 29.23046875 27.23046875 C31.24954474 29.24954474 33.26202812 31.27417991 35.26953125 33.3046875 C40.68733744 38.77112477 46.06428792 44.19169407 51.9453125 49.1640625 C55.25384744 52.12035798 58.34159372 55.29879614 61.43798828 58.47509766 C64.15271015 61.23778606 66.93960084 63.84665815 69.875 66.375 C74.8453353 70.67443452 79.40103784 75.35027686 84 80.0390625 C87.91176423 83.99666772 91.92746137 87.73849653 96.14306641 91.37011719 C98.77728 93.6822405 101.22502296 96.13016924 103.6875 98.625 C105.02361328 99.97464844 105.02361328 99.97464844 106.38671875 101.3515625 C108.03837356 103.02543688 109.6894866 104.69984617 111.33984375 106.375 C115.45707035 110.43781392 119.70613131 114.35782912 123.94140625 118.296875 C127.87751312 121.97057474 131.73967095 125.6976474 135.51635742 129.53540039 C136.76747038 130.77045496 138.09544967 131.92691895 139.4375 133.0625 C141.5891002 135.73048425 141.30242657 137.67330776 141 141 C140.34 141 139.68 141 139 141 C138.78085937 141.5465625 138.56171875 142.093125 138.3359375 142.65625 C136.5689496 145.75622878 134.16879075 148.04323367 131.625 150.5 C131.14289063 150.97308594 130.66078125 151.44617188 130.1640625 151.93359375 C128.77911231 153.29219978 127.38964235 154.6461937 126 156 C125.28070312 156.75925781 124.56140625 157.51851562 123.8203125 158.30078125 C122 160 122 160 119.25 160.6875 C114.27464408 159.63502086 111.53298334 156.51920952 108 153 C107.41089844 152.41347656 106.82179688 151.82695312 106.21484375 151.22265625 C105.06380448 150.06637307 103.91670896 148.90615166 102.7734375 147.7421875 C100.95199585 145.95284173 99.06285721 144.28711468 97.125 142.625 C93.37766297 139.39852835 89.91098784 135.95440285 86.46875 132.40625 C84.4450005 130.43373466 82.39010541 128.59129029 80.25 126.75 C75.01351312 122.20650579 70.2103088 117.2596769 65.35546875 112.31640625 C62.03774519 108.96229085 58.70922958 105.69460814 55.125 102.625 C49.00009549 97.35529356 43.44572522 91.48798813 37.77734375 85.73828125 C33.23630191 81.15757965 28.65496721 76.72890013 23.75585938 72.53320312 C21.20520946 70.30599492 18.8659574 67.92296842 16.5 65.5 C12.81289306 61.7569411 9.02476643 58.21743886 5.02734375 54.80859375 C1.69004203 51.83138624 -1.39954834 48.6087656 -4.5390625 45.42578125 C-6.75047509 43.24596027 -9.01379047 41.20198917 -11.375 39.1875 C-14.30924379 36.68251432 -16.61609849 34.04152951 -19 31 C-19.886875 30.38125 -20.77375 29.7625 -21.6875 29.125 C-24 27 -24 27 -24.890625 23.70703125 C-25.02612021 19.11471153 -24.07860003 17.93992981 -21.0625 14.5625 C-20.2375 13.62792969 -19.4125 12.69335938 -18.5625 11.73046875 C-6.63162302 -0.98246267 -6.63162302 -0.98246267 0 0 Z " fill="#FBFCFB" transform="translate(659,176)"/>
<path d="M0 0 C4.93179641 1.18363114 7.62264295 4.20007273 11.125 7.75 C11.59760254 8.21615723 12.07020508 8.68231445 12.55712891 9.16259766 C14.10019139 10.69380183 15.61546265 12.24827807 17.125 13.8125 C17.61830811 14.3065332 18.11161621 14.80056641 18.61987305 15.30957031 C20.91165268 17.75986505 22.07428815 19.5018289 22.75 22.80859375 C21.89694829 26.82326835 20.20651725 28.05519892 17.125 30.75 C15.95383035 31.9160938 14.7916329 33.09124191 13.63671875 34.2734375 C1.91704453 46.09062331 1.91704453 46.09062331 -3.921875 51.015625 C-7.4382685 54.13818243 -10.68464437 57.54300929 -13.96875 60.90625 C-16.0929025 63.03640293 -18.31024922 65.01080857 -20.59375 66.96875 C-25.60775457 71.3104329 -30.22285891 76.02737193 -34.875 80.75 C-40.12738044 86.08196197 -45.3871683 91.29507201 -51.0703125 96.16796875 C-53.80567166 98.56584853 -56.33916698 101.14450123 -58.875 103.75 C-62.05717244 107.01959476 -65.29153005 110.14612256 -68.75 113.125 C-73.00119575 116.80236514 -76.94072309 120.73888175 -80.875 124.75 C-85.42060425 129.38438559 -90.03634879 133.81666216 -94.95556641 138.05322266 C-97.96328967 140.71204696 -100.75933291 143.56621221 -103.5625 146.4375 C-107.17941765 150.14043234 -110.79331538 153.54909996 -114.875 156.75 C-115.8340625 157.86375 -115.8340625 157.86375 -116.8125 159 C-118.875 160.75 -118.875 160.75 -121.625 161.4375 C-126.66615403 160.37110203 -129.32445988 157.35028499 -132.875 153.75 C-133.76574219 152.86957031 -134.65648437 151.98914063 -135.57421875 151.08203125 C-143.812435 142.5617648 -143.812435 142.5617648 -143.875 135.75 C-142.72265625 133.59765625 -142.72265625 133.59765625 -140.9375 131.8125 C-140.2878125 131.14476562 -139.638125 130.47703125 -138.96875 129.7890625 C-138.2778125 129.11617187 -137.586875 128.44328125 -136.875 127.75 C-136.2253125 127.07710937 -135.575625 126.40421875 -134.90625 125.7109375 C-131.74809902 122.46506011 -128.50064198 119.38447884 -125.0625 116.4375 C-121.67304373 113.5274953 -118.51048893 110.42839675 -115.375 107.25 C-111.73635292 103.56183067 -108.00937667 100.06993385 -104.05859375 96.71875 C-100.51866542 93.52711515 -97.21440295 90.09430997 -93.91040039 86.66040039 C-92.60140303 85.32064832 -91.24187126 84.03065323 -89.875 82.75 C-89.215 82.75 -88.555 82.75 -87.875 82.75 C-87.65972656 82.19699219 -87.44445312 81.64398437 -87.22265625 81.07421875 C-85.43239997 77.98667531 -82.96613628 75.88679593 -80.3125 73.5625 C-75.55722915 69.31985512 -71.02429445 64.94092881 -66.6171875 60.33203125 C-64.875 58.75 -64.875 58.75 -62.875 58.75 C-62.875 58.09 -62.875 57.43 -62.875 56.75 C-61.42382812 55.32226562 -61.42382812 55.32226562 -59.40625 53.65625 C-54.81291178 49.75029514 -50.59759253 45.54950678 -46.375 41.25 C-41.6356903 36.42436407 -36.84258303 31.77836263 -31.71435547 27.36669922 C-29.07541773 25.04720815 -26.64323839 22.5755987 -24.1875 20.0625 C-20.89776443 16.6965911 -17.57654979 13.65390943 -13.875 10.75 C-13.070625 9.945625 -12.26625 9.14125 -11.4375 8.3125 C-4.22794118 1.10294118 -4.22794118 1.10294118 0 0 Z " fill="#FBFCFB" transform="translate(774.875,708.25)"/>
<path d="M0 0 C0.66985145 -0.00155999 1.33970289 -0.00311998 2.02985287 -0.00472724 C4.29083852 -0.00873917 6.5517579 -0.00554687 8.81274414 -0.00241089 C10.42701253 -0.00376484 12.04128061 -0.00554474 13.6555481 -0.00772095 C18.05211768 -0.01229596 22.4486639 -0.01050544 26.84523392 -0.00734186 C31.43588577 -0.00481861 36.02653557 -0.0071557 40.6171875 -0.00872803 C48.32788453 -0.01054983 56.038572 -0.00814315 63.74926758 -0.00338745 C72.67711751 0.00205519 81.60494462 0.00029254 90.532794 -0.00521386 C98.18372386 -0.0097447 105.83464682 -0.01039568 113.48557758 -0.00777519 C118.06142361 -0.00621225 122.6372589 -0.00601909 127.21310425 -0.00931168 C131.51399688 -0.01218997 135.81485994 -0.01021547 140.11574936 -0.00441742 C141.69886094 -0.0030896 143.28197499 -0.00348431 144.8650856 -0.00568008 C147.01702483 -0.00839073 149.16886777 -0.00501155 151.32080078 0 C153.13155846 0.00056554 153.13155846 0.00056554 154.97889709 0.0011425 C157.66040039 0.12698364 157.66040039 0.12698364 158.66040039 1.12698364 C158.76043328 3.26051538 158.79121087 5.39735906 158.79321289 7.53323364 C158.79450195 8.83389771 158.79579102 10.13456177 158.79711914 11.47463989 C158.79502441 12.15542603 158.79292969 12.83621216 158.79077148 13.53762817 C158.78542279 15.61826879 158.79071719 17.69869353 158.79711914 19.77932739 C158.79518555 21.73032349 158.79518555 21.73032349 158.79321289 23.72073364 C158.79208496 24.92407349 158.79095703 26.12741333 158.78979492 27.36721802 C158.66040039 30.12698364 158.66040039 30.12698364 157.66040039 31.12698364 C155.54910029 31.22606553 153.43442442 31.25330716 151.32080078 31.25396729 C150.65094934 31.25552728 149.98109789 31.25708727 149.29094791 31.25869453 C147.02996226 31.26270646 144.76904288 31.25951416 142.50805664 31.25637817 C140.89378825 31.25773213 139.27952017 31.25951203 137.66525269 31.26168823 C133.2686831 31.26626324 128.87213688 31.26447273 124.47556686 31.26130915 C119.88491501 31.25878589 115.29426521 31.26112299 110.70361328 31.26269531 C102.99291625 31.26451711 95.28222878 31.26211043 87.5715332 31.25735474 C78.64368327 31.2519121 69.71585616 31.25367475 60.78800678 31.25918114 C53.13707693 31.26371198 45.48615396 31.26436296 37.8352232 31.26174247 C33.25937717 31.26017954 28.68354188 31.25998638 24.10769653 31.26327896 C19.8068039 31.26615726 15.50594084 31.26418276 11.20505142 31.2583847 C9.62193984 31.25705688 8.03882579 31.2574516 6.45571518 31.25964737 C4.30377595 31.26235802 2.15193301 31.25897884 0 31.25396729 C-1.81075768 31.25340175 -1.81075768 31.25340175 -3.65809631 31.25282478 C-6.33959961 31.12698364 -6.33959961 31.12698364 -7.33959961 30.12698364 C-7.4396325 27.99345191 -7.47041008 25.85660823 -7.47241211 23.72073364 C-7.47370117 22.42006958 -7.47499023 21.11940552 -7.47631836 19.77932739 C-7.47422363 19.09854126 -7.47212891 18.41775513 -7.4699707 17.71633911 C-7.46462201 15.63569849 -7.46991641 13.55527375 -7.47631836 11.47463989 C-7.4750293 10.17397583 -7.47374023 8.87331177 -7.47241211 7.53323364 C-7.47128418 6.3298938 -7.47015625 5.12655396 -7.46899414 3.88674927 C-7.2291528 -1.22865922 -4.52186337 0.00141227 0 0 Z " fill="#FEFEFE" transform="translate(62.339599609375,433.8730163574219)"/>
<path d="M0 0 C0.66985145 -0.00155999 1.33970289 -0.00311998 2.02985287 -0.00472724 C4.29083852 -0.00873917 6.5517579 -0.00554687 8.81274414 -0.00241089 C10.42701253 -0.00376484 12.04128061 -0.00554474 13.6555481 -0.00772095 C18.05211768 -0.01229596 22.4486639 -0.01050544 26.84523392 -0.00734186 C31.43588577 -0.00481861 36.02653557 -0.0071557 40.6171875 -0.00872803 C48.32788453 -0.01054983 56.038572 -0.00814315 63.74926758 -0.00338745 C72.67711751 0.00205519 81.60494462 0.00029254 90.532794 -0.00521386 C98.18372386 -0.0097447 105.83464682 -0.01039568 113.48557758 -0.00777519 C118.06142361 -0.00621225 122.6372589 -0.00601909 127.21310425 -0.00931168 C131.51399688 -0.01218997 135.81485994 -0.01021547 140.11574936 -0.00441742 C141.69886094 -0.0030896 143.28197499 -0.00348431 144.8650856 -0.00568008 C147.01702483 -0.00839073 149.16886777 -0.00501155 151.32080078 0 C153.13155846 0.00056554 153.13155846 0.00056554 154.97889709 0.0011425 C157.66040039 0.12698364 157.66040039 0.12698364 158.66040039 1.12698364 C158.91455589 5.76713689 158.84562837 10.4181967 158.84790039 15.06448364 C158.86014648 16.37868286 158.87239258 17.69288208 158.88500977 19.04690552 C158.88694336 20.29922974 158.88887695 21.55155396 158.89086914 22.84182739 C158.89497803 23.99803589 158.89908691 25.15424438 158.90332031 26.3454895 C158.66040039 29.12698364 158.66040039 29.12698364 156.66040039 31.12698364 C153.87146664 31.37587261 153.87146664 31.37587261 150.23851013 31.3742218 C149.57188781 31.37663622 148.90526549 31.37905063 148.2184425 31.38153821 C145.97430612 31.38719495 143.73045192 31.37849745 141.48632812 31.36990356 C139.88176394 31.37097595 138.27720014 31.37291398 136.67263794 31.37565613 C132.30708793 31.38051421 127.94163972 31.37283712 123.57610202 31.36270308 C119.01615429 31.35393956 114.45620992 31.35567969 109.89625549 31.35606384 C102.23859954 31.35512651 94.58098315 31.34643279 86.92333984 31.33279419 C78.05738277 31.31706234 69.19146902 31.31179624 60.325499 31.31252974 C51.81134909 31.31313912 43.29721336 31.30804229 34.7830677 31.29973793 C31.15268913 31.29619835 27.52231557 31.29437372 23.89193535 31.29384422 C19.62139284 31.29284303 15.35088702 31.28676482 11.0803566 31.27667809 C9.50853385 31.27374606 7.93670689 31.27252913 6.36488152 31.27310562 C4.22831709 31.27359289 2.09185697 31.26797464 -0.04469299 31.26069641 C-1.84244092 31.25818264 -1.84244092 31.25818264 -3.676507 31.2556181 C-6.33959961 31.12698364 -6.33959961 31.12698364 -7.33959961 30.12698364 C-7.4396325 27.99345191 -7.47041008 25.85660823 -7.47241211 23.72073364 C-7.47370117 22.42006958 -7.47499023 21.11940552 -7.47631836 19.77932739 C-7.47422363 19.09854126 -7.47212891 18.41775513 -7.4699707 17.71633911 C-7.46462201 15.63569849 -7.46991641 13.55527375 -7.47631836 11.47463989 C-7.4750293 10.17397583 -7.47374023 8.87331177 -7.47241211 7.53323364 C-7.47128418 6.3298938 -7.47015625 5.12655396 -7.46899414 3.88674927 C-7.2291528 -1.22865922 -4.52186337 0.00141227 0 0 Z " fill="#FEFEFE" transform="translate(62.339599609375,581.8730163574219)"/>
<path d="M0 0 C0.66985145 -0.00155999 1.33970289 -0.00311998 2.02985287 -0.00472724 C4.29083852 -0.00873917 6.5517579 -0.00554687 8.81274414 -0.00241089 C10.42701253 -0.00376484 12.04128061 -0.00554474 13.6555481 -0.00772095 C18.05211768 -0.01229596 22.4486639 -0.01050544 26.84523392 -0.00734186 C31.43588577 -0.00481861 36.02653557 -0.0071557 40.6171875 -0.00872803 C48.32788453 -0.01054983 56.038572 -0.00814315 63.74926758 -0.00338745 C72.67711751 0.00205519 81.60494462 0.00029254 90.532794 -0.00521386 C98.18372386 -0.0097447 105.83464682 -0.01039568 113.48557758 -0.00777519 C118.06142361 -0.00621225 122.6372589 -0.00601909 127.21310425 -0.00931168 C131.51399688 -0.01218997 135.81485994 -0.01021547 140.11574936 -0.00441742 C141.69886094 -0.0030896 143.28197499 -0.00348431 144.8650856 -0.00568008 C147.01702483 -0.00839073 149.16886777 -0.00501155 151.32080078 0 C153.13155846 0.00056554 153.13155846 0.00056554 154.97889709 0.0011425 C157.66040039 0.12698364 157.66040039 0.12698364 158.66040039 1.12698364 C158.76043328 3.26051538 158.79121087 5.39735906 158.79321289 7.53323364 C158.79450195 8.83389771 158.79579102 10.13456177 158.79711914 11.47463989 C158.79502441 12.15542603 158.79292969 12.83621216 158.79077148 13.53762817 C158.78542279 15.61826879 158.79071719 17.69869353 158.79711914 19.77932739 C158.79518555 21.73032349 158.79518555 21.73032349 158.79321289 23.72073364 C158.79208496 24.92407349 158.79095703 26.12741333 158.78979492 27.36721802 C158.66040039 30.12698364 158.66040039 30.12698364 157.66040039 31.12698364 C155.56406896 31.22824202 153.46426725 31.25776172 151.36549377 31.26069641 C150.70043145 31.26296197 150.03536912 31.26522752 149.35015339 31.26756173 C147.10532585 31.27392886 144.86055826 31.27307065 142.61572266 31.27224731 C141.01292848 31.27523712 139.41013502 31.27863923 137.80734253 31.28242493 C133.44170038 31.29128729 129.0760778 31.29360397 124.71042752 31.29424071 C121.07204318 31.29518794 117.43366345 31.29886408 113.79528087 31.30241281 C105.2147552 31.31056585 96.63424003 31.31299627 88.05371094 31.31228638 C79.18834739 31.31168534 70.32304465 31.32224046 61.4576965 31.33803004 C53.85855432 31.35108454 46.25943206 31.35647116 38.66027874 31.35583097 C34.11624101 31.35557536 29.57225728 31.35846064 25.02823067 31.36900902 C20.75603887 31.37865495 16.48395308 31.37879344 12.21175766 31.37149239 C10.64035196 31.37044216 9.06893977 31.37283518 7.49754524 31.37885284 C5.35900036 31.38651437 3.22082692 31.38196729 1.08229065 31.3742218 C-0.116585 31.37476657 -1.31546064 31.37531134 -2.55066586 31.37587261 C-5.33959961 31.12698364 -5.33959961 31.12698364 -7.33959961 29.12698364 C-7.58251953 26.3454895 -7.58251953 26.3454895 -7.57006836 22.84182739 C-7.56813477 21.58950317 -7.56620117 20.33717896 -7.56420898 19.04690552 C-7.55196289 17.7327063 -7.5397168 16.41850708 -7.52709961 15.06448364 C-7.52645508 13.74641724 -7.52581055 12.42835083 -7.52514648 11.07034302 C-7.47382651 0.00233424 -7.47382651 0.00233424 0 0 Z " fill="#FEFEFE" transform="translate(62.339599609375,510.8730163574219)"/>
<path d="M0 0 C7.87013146 5.17093416 13.41047432 11.12863453 16.02734375 20.33203125 C17.00456089 30.02466171 16.23925067 37.63116934 10.4140625 45.515625 C4.79334 52.30785064 -1.33656695 56.76379716 -10.3046875 57.66796875 C-21.37730027 57.7922405 -28.13457318 55.69186914 -36.25 48.125 C-43.19968516 40.89165422 -44.45481318 33.51401591 -44.28125 23.8046875 C-43.51889309 15.2257597 -39.0649436 9.18540537 -32.97265625 3.33203125 C-23.70811414 -3.8527157 -10.56767777 -5.56918587 0 0 Z " fill="#FCFDFC" transform="translate(594.97265625,882.66796875)"/>
<path d="M0 0 C6.93513433 3.9391563 12.70179142 9.32065585 15.1171875 17.1171875 C16.89365137 26.62282749 16.13426571 34.49306586 11.328125 42.9375 C8.81535767 46.58434816 6.31625405 49.15778157 2.5625 51.5 C1.91796875 51.90992188 1.2734375 52.31984375 0.609375 52.7421875 C-6.63503153 56.63270212 -15.2068394 56.87121883 -23.08984375 54.8046875 C-25.37313274 53.87575967 -27.35897255 52.82194346 -29.4375 51.5 C-30.37335937 50.91605469 -30.37335937 50.91605469 -31.328125 50.3203125 C-37.04739417 46.11789298 -40.24695249 40.14904705 -42.4375 33.5 C-43.82035178 23.84114981 -42.49075956 16.23613189 -36.89453125 8.31640625 C-27.9148144 -2.88255412 -13.11475132 -6.11028186 0 0 Z " fill="#FCFDFC" transform="translate(718.4375,77.5)"/>
<path d="M0 0 C6.96367845 4.73380646 10.42473915 9.4818696 13.18359375 17.484375 C14.59287758 26.49585191 13.4718511 34.00048675 8.18359375 41.484375 C3.07171725 48.06766013 -2.79212817 51.79323627 -11.08203125 52.93359375 C-19.86874927 53.36905885 -26.6325642 51.63443528 -33.81640625 46.484375 C-36.31778083 44.03253259 -38.10462571 41.52954248 -39.81640625 38.484375 C-40.43515625 37.453125 -41.05390625 36.421875 -41.69140625 35.359375 C-44.21287684 28.65073506 -43.88459769 20.85328648 -41.75 14.12109375 C-38.69719722 7.44152799 -35.21798526 3.08289575 -28.81640625 -0.515625 C-27.78515625 -1.134375 -26.75390625 -1.753125 -25.69140625 -2.390625 C-17.19705862 -5.61731083 -7.74433167 -4.34863685 0 0 Z " fill="#FCFDFC" transform="translate(729.81640625,892.515625)"/>
<path d="M0 0 C5.51118969 4.07434381 10.78466964 9.72717999 12.1875 16.6171875 C13.1676722 25.63697442 12.68769478 33.17731051 7.1875 40.6171875 C2.04683954 46.29557395 -3.32611453 50.12965599 -11.01171875 50.96484375 C-20.18263766 51.35150952 -26.97667994 49.99507005 -33.875 43.75 C-40.77884325 36.35713452 -42.47423761 30.15288855 -42.21875 20.125 C-41.37169464 12.81100277 -38.26919656 7.65870374 -32.9375 2.6796875 C-23.24456777 -4.93105929 -10.95537382 -6.37862226 0 0 Z " fill="#FBFCFB" transform="translate(580.8125,125.3828125)"/>
<path d="M0 0 C0.66 0.66 1.32 1.32 2 2 C0.28296875 2.01546875 0.28296875 2.01546875 -1.46875 2.03125 C-7.32445561 2.77483167 -10.52546486 6.42242136 -14.5 10.5 C-15.22703125 11.18320313 -15.9540625 11.86640625 -16.703125 12.5703125 C-20.37597873 16.25697395 -22.46037625 18.68879948 -22.46875 24.03125 C-22.3140625 25.3409375 -22.159375 26.650625 -22 28 C-23.48852539 26.69580078 -23.48852539 26.69580078 -25 25 C-25.30180586 19.85003609 -23.85865405 17.46382715 -20.47265625 13.6328125 C-19.01762012 12.11566311 -17.54699141 10.61334057 -16.0625 9.125 C-15.32064453 8.35414063 -14.57878906 7.58328125 -13.81445312 6.7890625 C-6.80938456 -0.42558654 -6.80938456 -0.42558654 0 0 Z " fill="#D3DFD4" transform="translate(659,176)"/>
<path d="M0 0 C0.66 0.33 1.32 0.66 2 1 C-3.61 6.61 -9.22 12.22 -15 18 C-15 13.74508832 -12.52840258 11.92686684 -9.75 9 C-9.25886719 8.46632812 -8.76773437 7.93265625 -8.26171875 7.3828125 C-5.68642506 4.62209767 -3.11691202 2.1373111 0 0 Z " fill="#D7E2D8" transform="translate(461,245)"/>
<path d="M0 0 C0.66 0.33 1.32 0.66 2 1 C-0.97 3.97 -3.94 6.94 -7 10 C-7 6.04435836 -5.59478606 4.89133304 -3 2 C-2.01 1.34 -1.02 0.68 0 0 Z " fill="#D6E2D7" transform="translate(699,893)"/>
</svg>
